<?xml version="1.0" encoding="UTF-8" standalone="no"?>
<!DOCTYPE svg PUBLIC "-//W3C//DTD SVG 1.1//EN"
 "http://www.w3.org/Graphics/SVG/1.1/DTD/svg11.dtd">
<!-- Generated by graphviz version 2.43.0 (0)
 -->
<!-- Title: %3 Pages: 1 -->
<svg width="2190pt" height="352pt"
 viewBox="0.00 0.00 2190.00 352.00" xmlns="http://www.w3.org/2000/svg" xmlns:xlink="http://www.w3.org/1999/xlink">
<g id="graph0" class="graph" transform="scale(1 1) rotate(0) translate(4 348)">
<title>%3</title>
<polygon fill="white" stroke="transparent" points="-4,4 -4,-348 2186,-348 2186,4 -4,4"/>
<g id="clust6" class="cluster">
<title>cluster_Filename</title>
<polygon fill="#f0f0ff" stroke="#f0f0ff" points="8,-105.5 8,-191.5 225,-191.5 225,-105.5 8,-105.5"/>
<text text-anchor="middle" x="116.5" y="-176.3" font-family="Times,serif" font-size="14.00">Filename</text>
</g>
<g id="clust8" class="cluster">
<title>cluster_ProtonCurrent</title>
<polygon fill="#f0f0ff" stroke="#f0f0ff" points="338,-162.5 338,-248.5 464,-248.5 464,-162.5 338,-162.5"/>
<text text-anchor="middle" x="401" y="-233.3" font-family="Times,serif" font-size="14.00">ProtonCurrent</text>
</g>
<g id="clust10" class="cluster">
<title>cluster_RawDetector</title>
<polygon fill="#f0f0ff" stroke="#f0f0ff" points="292.5,-58.5 292.5,-154.5 509.5,-154.5 509.5,-58.5 292.5,-58.5"/>
<text text-anchor="start" x="354" y="-140.3" font-family="Times,serif" font-size="14.00">RawDetector</text>
<text text-anchor="start" x="334.5" y="-128.7" font-family="Times,serif" font-size="11.00">via:</text>
<text text-anchor="start" x="355.5" y="-128.7" font-family="Times,serif" font-style="italic" font-size="11.00">load_mcstas_events</text>
</g>
<g id="clust12" class="cluster">
<title>cluster_ReducibleData</title>
<polygon fill="#f0f0ff" stroke="#f0f0ff" points="577,-162.5 577,-258.5 849,-258.5 849,-162.5 577,-162.5"/>
<text text-anchor="start" x="660.5" y="-244.3" font-family="Times,serif" font-size="14.00">ReducibleData</text>
<text text-anchor="start" x="585" y="-232.7" font-family="Times,serif" font-size="11.00">via:</text>
<text text-anchor="start" x="606" y="-232.7" font-family="Times,serif" font-style="italic" font-size="11.00">add_coords_masks_and_apply_corrections</text>
</g>
<g id="clust17" class="cluster">
<title>cluster_SampleRotationOffset</title>
<polygon fill="#f0f0ff" stroke="#f0f0ff" points="30.5,-11.5 30.5,-97.5 203.5,-97.5 203.5,-11.5 30.5,-11.5"/>
<text text-anchor="middle" x="117" y="-82.3" font-family="Times,serif" font-size="14.00">SampleRotationOffset</text>
</g>
<!-- Alpha -->
<g id="node1" class="node">
<title>Alpha</title>
<polygon fill="none" stroke="black" points="741,-90 684,-90 684,-67 741,-67 741,-90"/>
<text text-anchor="middle" x="712.5" y="-74.8" font-family="Times,serif" font-size="14.00">Alpha</text>
</g>
<!-- ReducedReference -->
<g id="node17" class="node">
<title>ReducedReference</title>
<polygon fill="none" stroke="black" points="1136.5,-161 986.5,-161 986.5,-128 1136.5,-128 1136.5,-161"/>
<text text-anchor="start" x="994.5" y="-146.8" font-family="Times,serif" font-size="14.00">ReducedReference</text>
<text text-anchor="start" x="1002" y="-135.2" font-family="Times,serif" font-size="11.00">via:</text>
<text text-anchor="start" x="1023" y="-135.2" font-family="Times,serif" font-style="italic" font-size="11.00">reduce_reference</text>
</g>
<!-- Alpha&#45;&gt;ReducedReference -->
<g id="edge9" class="edge">
<title>Alpha:e&#45;&gt;ReducedReference:w</title>
<path fill="none" stroke="black" d="M742.5,-78.5C790.36,-78.5 802.62,-82.65 849,-94.5 908.17,-109.62 919.72,-140.83 975.38,-144.2"/>
<polygon fill="black" stroke="black" points="975.4,-147.71 985.5,-144.5 975.61,-140.71 975.4,-147.71"/>
</g>
<!-- Sample(sample_rotation) -->
<g id="node25" class="node">
<title>Sample(sample_rotation)</title>
<polygon fill="none" stroke="black" points="1596,-149 1285.67,-149 1282,-145.33 1282,-116 1592.33,-116 1596,-119.67 1596,-149"/>
<polyline fill="none" stroke="black" points="1592.33,-145.33 1282,-145.33 "/>
<polyline fill="none" stroke="black" points="1592.33,-145.33 1592.33,-116 "/>
<polyline fill="none" stroke="black" points="1592.33,-145.33 1596,-149 "/>
<text text-anchor="start" x="1349.5" y="-134.8" font-family="Times,serif" font-size="14.00">Sample(sample_rotation)</text>
<text text-anchor="start" x="1290" y="-123.2" font-family="Times,serif" font-size="11.00">via:</text>
<text text-anchor="start" x="1311" y="-123.2" font-family="Times,serif" font-style="italic" font-size="11.00">mask_events_where_supermirror_does_not_cover</text>
</g>
<!-- Alpha&#45;&gt;Sample(sample_rotation) -->
<g id="edge31" class="edge">
<title>Alpha:e&#45;&gt;Sample(sample_rotation):w</title>
<path fill="none" stroke="black" d="M742.5,-78.5C950.6,-78.5 1006.61,-60.46 1210,-104.5 1239.89,-110.97 1246.41,-128.13 1271.74,-131.8"/>
<polygon fill="black" stroke="black" points="1271.79,-135.31 1282,-132.5 1272.26,-128.33 1271.79,-135.31"/>
</g>
<!-- BeamDivergenceLimits -->
<g id="node2" class="node">
<title>BeamDivergenceLimits</title>
<polygon fill="none" stroke="black" points="492.5,-280 309.5,-280 309.5,-257 492.5,-257 492.5,-280"/>
<text text-anchor="middle" x="401" y="-264.8" font-family="Times,serif" font-size="14.00">BeamDivergenceLimits</text>
</g>
<!-- ReducibleData[ReferenceRun] -->
<g id="node16" class="node">
<title>ReducibleData[ReferenceRun]</title>
<polygon fill="none" stroke="black" points="767.5,-192 657.5,-192 657.5,-171 767.5,-171 767.5,-192"/>
<text text-anchor="start" x="665.5" y="-178.4" font-family="Times,serif" font-size="12.00">[ReferenceRun]</text>
</g>
<!-- BeamDivergenceLimits&#45;&gt;ReducibleData[ReferenceRun] -->
<g id="edge13" class="edge">
<title>BeamDivergenceLimits:e&#45;&gt;ReducibleData[ReferenceRun]:w</title>
<path fill="none" stroke="black" stroke-width="2" d="M494,-268.5C539.21,-268.5 534.17,-225.02 568.05,-201.69"/>
<polygon fill="black" stroke="black" stroke-width="2" points="570.11,-204.54 577,-196.5 566.59,-198.49 570.11,-204.54"/>
</g>
<!-- CoordTransformationGraph -->
<g id="node3" class="node">
<title>CoordTransformationGraph</title>
<polygon fill="none" stroke="black" points="513,-344 289,-344 289,-311 513,-311 513,-344"/>
<text text-anchor="start" x="302" y="-329.8" font-family="Times,serif" font-size="14.00">CoordTransformationGraph</text>
<text text-anchor="start" x="297" y="-318.2" font-family="Times,serif" font-size="11.00">via:</text>
<text text-anchor="start" x="318" y="-318.2" font-family="Times,serif" font-style="italic" font-size="11.00">coordinate_transformation_graph</text>
</g>
<!-- CoordTransformationGraph&#45;&gt;ReducibleData[ReferenceRun] -->
<g id="edge16" class="edge">
<title>CoordTransformationGraph:e&#45;&gt;ReducibleData[ReferenceRun]:w</title>
<path fill="none" stroke="black" stroke-width="2" d="M513,-327.5C574.26,-327.5 530.84,-245.55 569.44,-203.39"/>
<polygon fill="black" stroke="black" stroke-width="2" points="571.97,-205.82 577,-196.5 567.25,-200.65 571.97,-205.82"/>
</g>
<!-- Reference(sample_rotation) -->
<g id="node22" class="node">
<title>Reference(sample_rotation)</title>
<polygon fill="none" stroke="black" points="1546,-204 1335.67,-204 1332,-200.33 1332,-171 1542.33,-171 1546,-174.67 1546,-204"/>
<polyline fill="none" stroke="black" points="1542.33,-200.33 1332,-200.33 "/>
<polyline fill="none" stroke="black" points="1542.33,-200.33 1542.33,-171 "/>
<polyline fill="none" stroke="black" points="1542.33,-200.33 1546,-204 "/>
<text text-anchor="start" x="1340" y="-189.8" font-family="Times,serif" font-size="14.00">Reference(sample_rotation)</text>
<text text-anchor="start" x="1374.5" y="-178.2" font-family="Times,serif" font-size="11.00">via:</text>
<text text-anchor="start" x="1395.5" y="-178.2" font-family="Times,serif" font-style="italic" font-size="11.00">evaluate_reference</text>
</g>
<!-- CoordTransformationGraph&#45;&gt;Reference(sample_rotation) -->
<g id="edge21" class="edge">
<title>CoordTransformationGraph:e&#45;&gt;Reference(sample_rotation):w</title>
<path fill="none" stroke="black" d="M513,-327.5C534.81,-327.5 1227.19,-202.14 1321.04,-188.67"/>
<polygon fill="black" stroke="black" points="1321.48,-192.14 1331,-187.5 1320.66,-185.19 1321.48,-192.14"/>
</g>
<!-- CriticalEdge -->
<g id="node4" class="node">
<title>CriticalEdge</title>
<polygon fill="none" stroke="black" points="765.5,-144 659.5,-144 659.5,-121 765.5,-121 765.5,-144"/>
<text text-anchor="middle" x="712.5" y="-128.8" font-family="Times,serif" font-size="14.00">CriticalEdge</text>
</g>
<!-- CriticalEdge&#45;&gt;ReducedReference -->
<g id="edge7" class="edge">
<title>CriticalEdge:e&#45;&gt;ReducedReference:w</title>
<path fill="none" stroke="black" d="M766.5,-132.5C860.55,-132.5 886.24,-143.67 975.48,-144.46"/>
<polygon fill="black" stroke="black" points="975.48,-147.96 985.5,-144.5 975.52,-140.96 975.48,-147.96"/>
</g>
<!-- CriticalEdge&#45;&gt;Sample(sample_rotation) -->
<g id="edge29" class="edge">
<title>CriticalEdge:e&#45;&gt;Sample(sample_rotation):w</title>
<path fill="none" stroke="black" d="M766.5,-132.5C831.65,-132.5 847.86,-128.61 913,-127.5 1044.98,-125.25 1078.08,-122.92 1210,-127.5 1238.43,-128.49 1247.83,-131.65 1271.96,-132.36"/>
<polygon fill="black" stroke="black" points="1271.95,-135.86 1282,-132.5 1272.05,-128.86 1271.95,-135.86"/>
</g>
<!-- DetectorSpatialResolution[SampleRun] -->
<g id="node5" class="node">
<title>DetectorSpatialResolution[SampleRun]</title>
<polygon fill="none" stroke="black" points="1210,-199 913,-199 913,-176 1210,-176 1210,-199"/>
<text text-anchor="middle" x="1061.5" y="-183.8" font-family="Times,serif" font-size="14.00">DetectorSpatialResolution[SampleRun]</text>
</g>
<!-- DetectorSpatialResolution[SampleRun]&#45;&gt;Reference(sample_rotation) -->
<g id="edge22" class="edge">
<title>DetectorSpatialResolution[SampleRun]:e&#45;&gt;Reference(sample_rotation):w</title>
<path fill="none" stroke="black" d="M1210,-187.5C1260.21,-187.5 1275.26,-187.5 1320.8,-187.5"/>
<polygon fill="black" stroke="black" points="1321,-191 1331,-187.5 1321,-184 1321,-191"/>
</g>
<!-- Filename[ReferenceRun] -->
<g id="node6" class="node">
<title>Filename[ReferenceRun]</title>
<polygon fill="none" stroke="black" points="171.5,-135 61.5,-135 61.5,-114 171.5,-114 171.5,-135"/>
<text text-anchor="start" x="69.5" y="-121.4" font-family="Times,serif" font-size="12.00">[ReferenceRun]</text>
</g>
<!-- RawDetector[ReferenceRun] -->
<g id="node12" class="node">
<title>RawDetector[ReferenceRun]</title>
<polygon fill="none" stroke="black" points="456,-88 346,-88 346,-67 456,-67 456,-88"/>
<text text-anchor="start" x="354" y="-74.4" font-family="Times,serif" font-size="12.00">[ReferenceRun]</text>
</g>
<!-- Filename[ReferenceRun]&#45;&gt;RawDetector[ReferenceRun] -->
<g id="edge1" class="edge">
<title>Filename[ReferenceRun]:e&#45;&gt;RawDetector[ReferenceRun]:w</title>
<path fill="none" stroke="black" d="M172.5,-124.5C248.39,-124.5 264.19,-81.63 334.68,-77.78"/>
<polygon fill="black" stroke="black" points="335.1,-81.27 345,-77.5 334.91,-74.27 335.1,-81.27"/>
</g>
<!-- Filename[SampleRun](sample_rotation) -->
<g id="node7" class="node">
<title>Filename[SampleRun](sample_rotation)</title>
<polygon fill="none" stroke="black" points="217,-160 18.33,-160 16,-157.67 16,-139 214.67,-139 217,-141.33 217,-160"/>
<polyline fill="none" stroke="black" points="214.67,-157.67 16,-157.67 "/>
<polyline fill="none" stroke="black" points="214.67,-157.67 214.67,-139 "/>
<polyline fill="none" stroke="black" points="214.67,-157.67 217,-160 "/>
<text text-anchor="start" x="24" y="-146.4" font-family="Times,serif" font-size="12.00">[SampleRun](sample_rotation)</text>
</g>
<!-- RawDetector[SampleRun](sample_rotation) -->
<g id="node14" class="node">
<title>RawDetector[SampleRun](sample_rotation)</title>
<polygon fill="none" stroke="black" points="501.5,-113 302.83,-113 300.5,-110.67 300.5,-92 499.17,-92 501.5,-94.33 501.5,-113"/>
<polyline fill="none" stroke="black" points="499.17,-110.67 300.5,-110.67 "/>
<polyline fill="none" stroke="black" points="499.17,-110.67 499.17,-92 "/>
<polyline fill="none" stroke="black" points="499.17,-110.67 501.5,-113 "/>
<text text-anchor="start" x="308.5" y="-99.4" font-family="Times,serif" font-size="12.00">[SampleRun](sample_rotation)</text>
</g>
<!-- Filename[SampleRun](sample_rotation)&#45;&gt;RawDetector[SampleRun](sample_rotation) -->
<g id="edge3" class="edge">
<title>Filename[SampleRun](sample_rotation):e&#45;&gt;RawDetector[SampleRun](sample_rotation):w</title>
<path fill="none" stroke="black" d="M218.5,-149.5C256.21,-149.5 257.64,-110.57 288.83,-103.57"/>
<polygon fill="black" stroke="black" points="289.42,-107.03 299,-102.5 288.69,-100.07 289.42,-107.03"/>
</g>
<!-- MValue -->
<g id="node8" class="node">
<title>MValue</title>
<polygon fill="none" stroke="black" points="747.5,-117 677.5,-117 677.5,-94 747.5,-94 747.5,-117"/>
<text text-anchor="middle" x="712.5" y="-101.8" font-family="Times,serif" font-size="14.00">MValue</text>
</g>
<!-- MValue&#45;&gt;ReducedReference -->
<g id="edge8" class="edge">
<title>MValue:e&#45;&gt;ReducedReference:w</title>
<path fill="none" stroke="black" d="M748.5,-105.5C851.81,-105.5 877.15,-142.03 975.43,-144.38"/>
<polygon fill="black" stroke="black" points="975.46,-147.88 985.5,-144.5 975.54,-140.88 975.46,-147.88"/>
</g>
<!-- MValue&#45;&gt;Sample(sample_rotation) -->
<g id="edge30" class="edge">
<title>MValue:e&#45;&gt;Sample(sample_rotation):w</title>
<path fill="none" stroke="black" d="M748.5,-105.5C953.77,-105.5 1005.42,-106.75 1210,-123.5 1238.5,-125.83 1247.71,-131.1 1271.92,-132.27"/>
<polygon fill="black" stroke="black" points="1271.92,-135.77 1282,-132.5 1272.08,-128.77 1271.92,-135.77"/>
</g>
<!-- ProtonCurrent[ReferenceRun] -->
<g id="node9" class="node">
<title>ProtonCurrent[ReferenceRun]</title>
<polygon fill="none" stroke="black" points="456,-192 346,-192 346,-171 456,-171 456,-192"/>
<text text-anchor="start" x="354" y="-178.4" font-family="Times,serif" font-size="12.00">[ReferenceRun]</text>
</g>
<!-- ProtonCurrent[ReferenceRun]&#45;&gt;ReducibleData[ReferenceRun] -->
<g id="edge15" class="edge">
<title>ProtonCurrent[ReferenceRun]:e&#45;&gt;ReducibleData[ReferenceRun]:w</title>
<path fill="none" stroke="black" d="M457,-181.5C542.2,-181.5 566,-181.5 646.41,-181.5"/>
<polygon fill="black" stroke="black" points="646.5,-185 656.5,-181.5 646.5,-178 646.5,-185"/>
</g>
<!-- ProtonCurrent[SampleRun] -->
<g id="node10" class="node">
<title>ProtonCurrent[SampleRun]</title>
<polygon fill="none" stroke="black" points="448.5,-217 353.5,-217 353.5,-196 448.5,-196 448.5,-217"/>
<text text-anchor="start" x="361.5" y="-203.4" font-family="Times,serif" font-size="12.00">[SampleRun]</text>
</g>
<!-- ReducibleData[SampleRun](sample_rotation) -->
<g id="node21" class="node">
<title>ReducibleData[SampleRun](sample_rotation)</title>
<polygon fill="none" stroke="black" points="813,-217 614.33,-217 612,-214.67 612,-196 810.67,-196 813,-198.33 813,-217"/>
<polyline fill="none" stroke="black" points="810.67,-214.67 612,-214.67 "/>
<polyline fill="none" stroke="black" points="810.67,-214.67 810.67,-196 "/>
<polyline fill="none" stroke="black" points="810.67,-214.67 813,-217 "/>
<text text-anchor="start" x="620" y="-203.4" font-family="Times,serif" font-size="12.00">[SampleRun](sample_rotation)</text>
</g>
<!-- ProtonCurrent[SampleRun]&#45;&gt;ReducibleData[SampleRun](sample_rotation) -->
<g id="edge18" class="edge">
<title>ProtonCurrent[SampleRun]:e&#45;&gt;ReducibleData[SampleRun](sample_rotation):w</title>
<path fill="none" stroke="black" d="M450,-206.5C517.85,-206.5 537.3,-206.5 600.42,-206.5"/>
<polygon fill="black" stroke="black" points="600.5,-210 610.5,-206.5 600.5,-203 600.5,-210"/>
</g>
<!-- QBins -->
<g id="node11" class="node">
<title>QBins</title>
<polygon fill="none" stroke="black" points="1468.5,-231 1409.5,-231 1409.5,-208 1468.5,-208 1468.5,-231"/>
<text text-anchor="middle" x="1439" y="-215.8" font-family="Times,serif" font-size="14.00">QBins</text>
</g>
<!-- ReflectivityOverQ(sample_rotation) -->
<g id="node23" class="node">
<title>ReflectivityOverQ(sample_rotation)</title>
<polygon fill="none" stroke="black" points="1937,-204 1671.67,-204 1668,-200.33 1668,-171 1933.33,-171 1937,-174.67 1937,-204"/>
<polyline fill="none" stroke="black" points="1933.33,-200.33 1668,-200.33 "/>
<polyline fill="none" stroke="black" points="1933.33,-200.33 1933.33,-171 "/>
<polyline fill="none" stroke="black" points="1933.33,-200.33 1937,-204 "/>
<text text-anchor="start" x="1676" y="-189.8" font-family="Times,serif" font-size="14.00">ReflectivityOverQ(sample_rotation)</text>
<text text-anchor="start" x="1728.5" y="-178.2" font-family="Times,serif" font-size="11.00">via:</text>
<text text-anchor="start" x="1749.5" y="-178.2" font-family="Times,serif" font-style="italic" font-size="11.00">reduce_sample_over_q</text>
</g>
<!-- QBins&#45;&gt;ReflectivityOverQ(sample_rotation) -->
<g id="edge26" class="edge">
<title>QBins:e&#45;&gt;ReflectivityOverQ(sample_rotation):w</title>
<path fill="none" stroke="black" d="M1470,-219.5C1526.4,-219.5 1540.47,-214.33 1596,-204.5 1624.71,-199.42 1633.26,-189.98 1657.76,-187.91"/>
<polygon fill="black" stroke="black" points="1658.15,-191.4 1668,-187.5 1657.87,-184.4 1658.15,-191.4"/>
</g>
<!-- RawDetector[ReferenceRun]&#45;&gt;ReducibleData[ReferenceRun] -->
<g id="edge10" class="edge">
<title>RawDetector[ReferenceRun]:e&#45;&gt;ReducibleData[ReferenceRun]:w</title>
<path fill="none" stroke="black" d="M457,-77.5C482.77,-77.5 490.63,-79.71 513,-92.5 547.65,-112.32 542.91,-134.75 577,-155.5 605.65,-172.94 617.06,-180.08 646.33,-181.3"/>
<polygon fill="black" stroke="black" points="646.43,-184.81 656.5,-181.5 646.57,-177.81 646.43,-184.81"/>
</g>
<!-- SampleRotationOffset[ReferenceRun] -->
<g id="node13" class="node">
<title>SampleRotationOffset[ReferenceRun]</title>
<polygon fill="none" stroke="black" points="171.5,-41 61.5,-41 61.5,-20 171.5,-20 171.5,-41"/>
<text text-anchor="start" x="69.5" y="-27.4" font-family="Times,serif" font-size="12.00">[ReferenceRun]</text>
</g>
<!-- SampleRotationOffset[ReferenceRun]&#45;&gt;RawDetector[ReferenceRun] -->
<g id="edge2" class="edge">
<title>SampleRotationOffset[ReferenceRun]:e&#45;&gt;RawDetector[ReferenceRun]:w</title>
<path fill="none" stroke="black" d="M172.5,-30.5C248.39,-30.5 264.19,-73.37 334.68,-77.22"/>
<polygon fill="black" stroke="black" points="334.91,-80.73 345,-77.5 335.1,-73.73 334.91,-80.73"/>
</g>
<!-- RawDetector[SampleRun](sample_rotation)&#45;&gt;ReducibleData[SampleRun](sample_rotation) -->
<g id="edge17" class="edge">
<title>RawDetector[SampleRun](sample_rotation):e&#45;&gt;ReducibleData[SampleRun](sample_rotation):w</title>
<path fill="none" stroke="black" d="M503,-102.5C565.84,-102.5 546.53,-195.44 600.39,-205.6"/>
<polygon fill="black" stroke="black" points="600.23,-209.1 610.5,-206.5 600.85,-202.13 600.23,-209.1"/>
</g>
<!-- SampleRotationOffset[SampleRun] -->
<g id="node15" class="node">
<title>SampleRotationOffset[SampleRun]</title>
<polygon fill="none" stroke="black" points="164,-66 69,-66 69,-45 164,-45 164,-66"/>
<text text-anchor="start" x="77" y="-52.4" font-family="Times,serif" font-size="12.00">[SampleRun]</text>
</g>
<!-- SampleRotationOffset[SampleRun]&#45;&gt;RawDetector[SampleRun](sample_rotation) -->
<g id="edge4" class="edge">
<title>SampleRotationOffset[SampleRun]:e&#45;&gt;RawDetector[SampleRun](sample_rotation):w</title>
<path fill="none" stroke="black" d="M165.5,-55.5C224.84,-55.5 235.05,-97.33 288.82,-102.06"/>
<polygon fill="black" stroke="black" points="288.86,-105.57 299,-102.5 289.16,-98.58 288.86,-105.57"/>
</g>
<!-- ReducibleData[ReferenceRun]&#45;&gt;ReducedReference -->
<g id="edge5" class="edge">
<title>ReducibleData[ReferenceRun]:e&#45;&gt;ReducedReference:w</title>
<path fill="none" stroke="black" d="M768.5,-181.5C862.9,-181.5 886.07,-147.06 975.46,-144.63"/>
<polygon fill="black" stroke="black" points="975.55,-148.13 985.5,-144.5 975.45,-141.13 975.55,-148.13"/>
</g>
<!-- ReducedReference&#45;&gt;Reference(sample_rotation) -->
<g id="edge19" class="edge">
<title>ReducedReference:e&#45;&gt;Reference(sample_rotation):w</title>
<path fill="none" stroke="black" d="M1137.5,-144.5C1222.16,-144.5 1241.44,-184.21 1320.99,-187.31"/>
<polygon fill="black" stroke="black" points="1320.93,-190.81 1331,-187.5 1321.07,-183.81 1320.93,-190.81"/>
</g>
<!-- ReducedReference&#45;&gt;Sample(sample_rotation) -->
<g id="edge28" class="edge">
<title>ReducedReference:e&#45;&gt;Sample(sample_rotation):w</title>
<path fill="none" stroke="black" d="M1137.5,-144.5C1198.42,-144.5 1215.7,-133.78 1271.85,-132.6"/>
<polygon fill="black" stroke="black" points="1272.04,-136.1 1282,-132.5 1271.96,-129.1 1272.04,-136.1"/>
</g>
<!-- WavelengthBins -->
<g id="node18" class="node">
<title>WavelengthBins</title>
<polygon fill="none" stroke="black" points="467,-23 335,-23 335,0 467,0 467,-23"/>
<text text-anchor="middle" x="401" y="-7.8" font-family="Times,serif" font-size="14.00">WavelengthBins</text>
</g>
<!-- WavelengthBins&#45;&gt;ReducibleData[ReferenceRun] -->
<g id="edge14" class="edge">
<title>WavelengthBins:e&#45;&gt;ReducibleData[ReferenceRun]:w</title>
<path fill="none" stroke="black" stroke-width="2" d="M468,-11.5C489.08,-11.5 497.1,-12.66 513,-26.5 561.29,-68.51 528.6,-113.63 577,-155.5 577.19,-155.66 577.37,-155.82 577.56,-155.98"/>
<polygon fill="black" stroke="black" stroke-width="2" points="575.57,-158.87 585.52,-162.5 580,-153.46 575.57,-158.87"/>
</g>
<!-- WavelengthBins&#45;&gt;ReducedReference -->
<g id="edge6" class="edge">
<title>WavelengthBins:e&#45;&gt;ReducedReference:w</title>
<path fill="none" stroke="black" d="M468,-11.5C489.08,-11.5 496.85,-12.95 513,-26.5 558.72,-64.83 525.73,-113.98 577,-144.5 613.79,-166.4 904.31,-146.98 975.21,-144.71"/>
<polygon fill="black" stroke="black" points="975.57,-148.2 985.5,-144.5 975.43,-141.21 975.57,-148.2"/>
</g>
<!-- YIndexLimits -->
<g id="node19" class="node">
<title>YIndexLimits</title>
<polygon fill="none" stroke="black" points="456,-50 346,-50 346,-27 456,-27 456,-50"/>
<text text-anchor="middle" x="401" y="-34.8" font-family="Times,serif" font-size="14.00">YIndexLimits</text>
</g>
<!-- YIndexLimits&#45;&gt;ReducibleData[ReferenceRun] -->
<g id="edge11" class="edge">
<title>YIndexLimits:e&#45;&gt;ReducibleData[ReferenceRun]:w</title>
<path fill="none" stroke="black" stroke-width="2" d="M457,-38.5C483.28,-38.5 492.23,-41.39 513,-57.5 554.11,-89.38 535.72,-123.85 577,-155.5 577.42,-155.82 577.84,-156.14 578.25,-156.45"/>
<polygon fill="black" stroke="black" stroke-width="2" points="576.36,-159.41 586.49,-162.5 580.5,-153.77 576.36,-159.41"/>
</g>
<!-- ZIndexLimits -->
<g id="node20" class="node">
<title>ZIndexLimits</title>
<polygon fill="none" stroke="black" points="456.5,-307 345.5,-307 345.5,-284 456.5,-284 456.5,-307"/>
<text text-anchor="middle" x="401" y="-291.8" font-family="Times,serif" font-size="14.00">ZIndexLimits</text>
</g>
<!-- ZIndexLimits&#45;&gt;ReducibleData[ReferenceRun] -->
<g id="edge12" class="edge">
<title>ZIndexLimits:e&#45;&gt;ReducibleData[ReferenceRun]:w</title>
<path fill="none" stroke="black" stroke-width="2" d="M457,-295.5C482.77,-295.5 491.6,-294.85 513,-280.5 548.94,-256.4 539.07,-226.3 568.59,-202.43"/>
<polygon fill="black" stroke="black" stroke-width="2" points="570.84,-205.12 577,-196.5 566.81,-199.4 570.84,-205.12"/>
</g>
<!-- ReducibleData[SampleRun](sample_rotation)&#45;&gt;Reference(sample_rotation) -->
<g id="edge20" class="edge">
<title>ReducibleData[SampleRun](sample_rotation):e&#45;&gt;Reference(sample_rotation):w</title>
<path fill="none" stroke="black" d="M814.5,-206.5C990.31,-206.5 1034.49,-209.74 1210,-199.5 1260.37,-196.56 1275.05,-188.65 1320.75,-187.61"/>
<polygon fill="black" stroke="black" points="1321.04,-191.11 1331,-187.5 1320.96,-184.11 1321.04,-191.11"/>
</g>
<!-- ReducibleData[SampleRun](sample_rotation)&#45;&gt;Sample(sample_rotation) -->
<g id="edge27" class="edge">
<title>ReducibleData[SampleRun](sample_rotation):e&#45;&gt;Sample(sample_rotation):w</title>
<path fill="none" stroke="black" d="M814.5,-206.5C860.39,-206.5 867.81,-183.54 913,-175.5 1043.11,-152.36 1080.9,-189.69 1210,-161.5 1240.02,-154.94 1246.31,-137.06 1271.7,-133.23"/>
<polygon fill="black" stroke="black" points="1272.27,-136.7 1282,-132.5 1271.78,-129.72 1272.27,-136.7"/>
</g>
<!-- Reference(sample_rotation)&#45;&gt;ReflectivityOverQ(sample_rotation) -->
<g id="edge25" class="edge">
<title>Reference(sample_rotation):e&#45;&gt;ReflectivityOverQ(sample_rotation):w</title>
<path fill="none" stroke="black" d="M1547,-187.5C1597.21,-187.5 1612.26,-187.5 1657.8,-187.5"/>
<polygon fill="black" stroke="black" points="1658,-191 1668,-187.5 1658,-184 1658,-191"/>
</g>
<!-- ReflectivityOverQ -->
<g id="node24" class="node">
<title>ReflectivityOverQ</title>
<polygon fill="none" stroke="black" points="2182,-204 2009,-204 2009,-171 2182,-171 2182,-204"/>
<text text-anchor="start" x="2032" y="-189.8" font-family="Times,serif" font-size="14.00">ReflectivityOverQ</text>
<text text-anchor="start" x="2017" y="-178.2" font-family="Times,serif" font-size="11.00">via:</text>
<text text-anchor="start" x="2038" y="-178.2" font-family="Times,serif" font-style="italic" font-size="11.00">combine_measurements</text>
</g>
<!-- ReflectivityOverQ(sample_rotation)&#45;&gt;ReflectivityOverQ -->
<g id="edge23" class="edge">
<title>ReflectivityOverQ(sample_rotation):e&#45;&gt;ReflectivityOverQ:w</title>
<path fill="none" stroke="black" d="M1937,-187.5C1965.38,-187.5 1974.88,-187.5 1998.98,-187.5"/>
<polygon fill="black" stroke="black" points="1999,-191 2009,-187.5 1999,-184 1999,-191"/>
</g>
<!-- Sample(sample_rotation)&#45;&gt;ReflectivityOverQ(sample_rotation) -->
<g id="edge24" class="edge">
<title>Sample(sample_rotation):e&#45;&gt;ReflectivityOverQ(sample_rotation):w</title>
<path fill="none" stroke="black" d="M1596,-132.5C1632.49,-132.5 1628.9,-177.67 1657.88,-186.14"/>
<polygon fill="black" stroke="black" points="1657.62,-189.64 1668,-187.5 1658.56,-182.7 1657.62,-189.64"/>
</g>
</g>
</svg>
