<?xml version="1.0" encoding="utf-8" standalone="no"?>
<!DOCTYPE svg PUBLIC "-//W3C//DTD SVG 1.1//EN"
  "http://www.w3.org/Graphics/SVG/1.1/DTD/svg11.dtd">
<svg xmlns:xlink="http://www.w3.org/1999/xlink" width="872.398601pt" height="296.39952pt" viewBox="0 0 872.398601 296.39952" xmlns="http://www.w3.org/2000/svg" version="1.1">
 <metadata>
  <rdf:RDF xmlns:dc="http://purl.org/dc/elements/1.1/" xmlns:cc="http://creativecommons.org/ns#" xmlns:rdf="http://www.w3.org/1999/02/22-rdf-syntax-ns#">
   <cc:Work>
    <dc:type rdf:resource="http://purl.org/dc/dcmitype/StillImage"/>
    <dc:date>2026-02-09T13:15:49.021544</dc:date>
    <dc:format>image/svg+xml</dc:format>
    <dc:creator>
     <cc:Agent>
      <dc:title>Matplotlib v3.10.8, https://matplotlib.org/</dc:title>
     </cc:Agent>
    </dc:creator>
   </cc:Work>
  </rdf:RDF>
 </metadata>
 <defs>
  <style type="text/css">*{stroke-linejoin: round; stroke-linecap: butt}</style>
 </defs>
 <g id="figure_1">
  <g id="patch_1">
   <path d="M 0 296.39952 
L 872.398601 296.39952 
L 872.398601 0 
L 0 0 
z
" style="fill: #ffffff"/>
  </g>
  <g id="axes_1">
   <g id="patch_2">
    <path d="M 50.14375 257.158895 
L 409.945031 257.158895 
L 409.945031 22.318125 
L 50.14375 22.318125 
z
" style="fill: #ffffff"/>
   </g>
   <g id="matplotlib.axis_1">
    <g id="xtick_1">
     <g id="line2d_1">
      <defs>
       <path id="m29ce3e9169" d="M 0 0 
L 0 3.5 
" style="stroke: #000000; stroke-width: 0.8"/>
      </defs>
      <g>
       <use xlink:href="#m29ce3e9169" x="66.498354" y="257.158895" style="stroke: #000000; stroke-width: 0.8"/>
      </g>
     </g>
     <g id="text_1">
      <!-- 4 -->
      <g transform="translate(63.317104 271.757332) scale(0.1 -0.1)">
       <defs>
        <path id="DejaVuSans-34" d="M 2419 4116 
L 825 1625 
L 2419 1625 
L 2419 4116 
z
M 2253 4666 
L 3047 4666 
L 3047 1625 
L 3713 1625 
L 3713 1100 
L 3047 1100 
L 3047 0 
L 2419 0 
L 2419 1100 
L 313 1100 
L 313 1709 
L 2253 4666 
z
" transform="scale(0.015625)"/>
       </defs>
       <use xlink:href="#DejaVuSans-34"/>
      </g>
     </g>
    </g>
    <g id="xtick_2">
     <g id="line2d_2">
      <g>
       <use xlink:href="#m29ce3e9169" x="115.318066" y="257.158895" style="stroke: #000000; stroke-width: 0.8"/>
      </g>
     </g>
     <g id="text_2">
      <!-- 5 -->
      <g transform="translate(112.136816 271.757332) scale(0.1 -0.1)">
       <defs>
        <path id="DejaVuSans-35" d="M 691 4666 
L 3169 4666 
L 3169 4134 
L 1269 4134 
L 1269 2991 
Q 1406 3038 1543 3061 
Q 1681 3084 1819 3084 
Q 2600 3084 3056 2656 
Q 3513 2228 3513 1497 
Q 3513 744 3044 326 
Q 2575 -91 1722 -91 
Q 1428 -91 1123 -41 
Q 819 9 494 109 
L 494 744 
Q 775 591 1075 516 
Q 1375 441 1709 441 
Q 2250 441 2565 725 
Q 2881 1009 2881 1497 
Q 2881 1984 2565 2268 
Q 2250 2553 1709 2553 
Q 1456 2553 1204 2497 
Q 953 2441 691 2322 
L 691 4666 
z
" transform="scale(0.015625)"/>
       </defs>
       <use xlink:href="#DejaVuSans-35"/>
      </g>
     </g>
    </g>
    <g id="xtick_3">
     <g id="line2d_3">
      <g>
       <use xlink:href="#m29ce3e9169" x="164.137779" y="257.158895" style="stroke: #000000; stroke-width: 0.8"/>
      </g>
     </g>
     <g id="text_3">
      <!-- 6 -->
      <g transform="translate(160.956529 271.757332) scale(0.1 -0.1)">
       <defs>
        <path id="DejaVuSans-36" d="M 2113 2584 
Q 1688 2584 1439 2293 
Q 1191 2003 1191 1497 
Q 1191 994 1439 701 
Q 1688 409 2113 409 
Q 2538 409 2786 701 
Q 3034 994 3034 1497 
Q 3034 2003 2786 2293 
Q 2538 2584 2113 2584 
z
M 3366 4563 
L 3366 3988 
Q 3128 4100 2886 4159 
Q 2644 4219 2406 4219 
Q 1781 4219 1451 3797 
Q 1122 3375 1075 2522 
Q 1259 2794 1537 2939 
Q 1816 3084 2150 3084 
Q 2853 3084 3261 2657 
Q 3669 2231 3669 1497 
Q 3669 778 3244 343 
Q 2819 -91 2113 -91 
Q 1303 -91 875 529 
Q 447 1150 447 2328 
Q 447 3434 972 4092 
Q 1497 4750 2381 4750 
Q 2619 4750 2861 4703 
Q 3103 4656 3366 4563 
z
" transform="scale(0.015625)"/>
       </defs>
       <use xlink:href="#DejaVuSans-36"/>
      </g>
     </g>
    </g>
    <g id="xtick_4">
     <g id="line2d_4">
      <g>
       <use xlink:href="#m29ce3e9169" x="212.957491" y="257.158895" style="stroke: #000000; stroke-width: 0.8"/>
      </g>
     </g>
     <g id="text_4">
      <!-- 7 -->
      <g transform="translate(209.776241 271.757332) scale(0.1 -0.1)">
       <defs>
        <path id="DejaVuSans-37" d="M 525 4666 
L 3525 4666 
L 3525 4397 
L 1831 0 
L 1172 0 
L 2766 4134 
L 525 4134 
L 525 4666 
z
" transform="scale(0.015625)"/>
       </defs>
       <use xlink:href="#DejaVuSans-37"/>
      </g>
     </g>
    </g>
    <g id="xtick_5">
     <g id="line2d_5">
      <g>
       <use xlink:href="#m29ce3e9169" x="261.777204" y="257.158895" style="stroke: #000000; stroke-width: 0.8"/>
      </g>
     </g>
     <g id="text_5">
      <!-- 8 -->
      <g transform="translate(258.595954 271.757332) scale(0.1 -0.1)">
       <defs>
        <path id="DejaVuSans-38" d="M 2034 2216 
Q 1584 2216 1326 1975 
Q 1069 1734 1069 1313 
Q 1069 891 1326 650 
Q 1584 409 2034 409 
Q 2484 409 2743 651 
Q 3003 894 3003 1313 
Q 3003 1734 2745 1975 
Q 2488 2216 2034 2216 
z
M 1403 2484 
Q 997 2584 770 2862 
Q 544 3141 544 3541 
Q 544 4100 942 4425 
Q 1341 4750 2034 4750 
Q 2731 4750 3128 4425 
Q 3525 4100 3525 3541 
Q 3525 3141 3298 2862 
Q 3072 2584 2669 2484 
Q 3125 2378 3379 2068 
Q 3634 1759 3634 1313 
Q 3634 634 3220 271 
Q 2806 -91 2034 -91 
Q 1263 -91 848 271 
Q 434 634 434 1313 
Q 434 1759 690 2068 
Q 947 2378 1403 2484 
z
M 1172 3481 
Q 1172 3119 1398 2916 
Q 1625 2713 2034 2713 
Q 2441 2713 2670 2916 
Q 2900 3119 2900 3481 
Q 2900 3844 2670 4047 
Q 2441 4250 2034 4250 
Q 1625 4250 1398 4047 
Q 1172 3844 1172 3481 
z
" transform="scale(0.015625)"/>
       </defs>
       <use xlink:href="#DejaVuSans-38"/>
      </g>
     </g>
    </g>
    <g id="xtick_6">
     <g id="line2d_6">
      <g>
       <use xlink:href="#m29ce3e9169" x="310.596916" y="257.158895" style="stroke: #000000; stroke-width: 0.8"/>
      </g>
     </g>
     <g id="text_6">
      <!-- 9 -->
      <g transform="translate(307.415666 271.757332) scale(0.1 -0.1)">
       <defs>
        <path id="DejaVuSans-39" d="M 703 97 
L 703 672 
Q 941 559 1184 500 
Q 1428 441 1663 441 
Q 2288 441 2617 861 
Q 2947 1281 2994 2138 
Q 2813 1869 2534 1725 
Q 2256 1581 1919 1581 
Q 1219 1581 811 2004 
Q 403 2428 403 3163 
Q 403 3881 828 4315 
Q 1253 4750 1959 4750 
Q 2769 4750 3195 4129 
Q 3622 3509 3622 2328 
Q 3622 1225 3098 567 
Q 2575 -91 1691 -91 
Q 1453 -91 1209 -44 
Q 966 3 703 97 
z
M 1959 2075 
Q 2384 2075 2632 2365 
Q 2881 2656 2881 3163 
Q 2881 3666 2632 3958 
Q 2384 4250 1959 4250 
Q 1534 4250 1286 3958 
Q 1038 3666 1038 3163 
Q 1038 2656 1286 2365 
Q 1534 2075 1959 2075 
z
" transform="scale(0.015625)"/>
       </defs>
       <use xlink:href="#DejaVuSans-39"/>
      </g>
     </g>
    </g>
    <g id="xtick_7">
     <g id="line2d_7">
      <g>
       <use xlink:href="#m29ce3e9169" x="359.416628" y="257.158895" style="stroke: #000000; stroke-width: 0.8"/>
      </g>
     </g>
     <g id="text_7">
      <!-- 10 -->
      <g transform="translate(353.054128 271.757332) scale(0.1 -0.1)">
       <defs>
        <path id="DejaVuSans-31" d="M 794 531 
L 1825 531 
L 1825 4091 
L 703 3866 
L 703 4441 
L 1819 4666 
L 2450 4666 
L 2450 531 
L 3481 531 
L 3481 0 
L 794 0 
L 794 531 
z
" transform="scale(0.015625)"/>
        <path id="DejaVuSans-30" d="M 2034 4250 
Q 1547 4250 1301 3770 
Q 1056 3291 1056 2328 
Q 1056 1369 1301 889 
Q 1547 409 2034 409 
Q 2525 409 2770 889 
Q 3016 1369 3016 2328 
Q 3016 3291 2770 3770 
Q 2525 4250 2034 4250 
z
M 2034 4750 
Q 2819 4750 3233 4129 
Q 3647 3509 3647 2328 
Q 3647 1150 3233 529 
Q 2819 -91 2034 -91 
Q 1250 -91 836 529 
Q 422 1150 422 2328 
Q 422 3509 836 4129 
Q 1250 4750 2034 4750 
z
" transform="scale(0.015625)"/>
       </defs>
       <use xlink:href="#DejaVuSans-31"/>
       <use xlink:href="#DejaVuSans-30" transform="translate(63.623047 0)"/>
      </g>
     </g>
    </g>
    <g id="xtick_8">
     <g id="line2d_8">
      <g>
       <use xlink:href="#m29ce3e9169" x="408.236341" y="257.158895" style="stroke: #000000; stroke-width: 0.8"/>
      </g>
     </g>
     <g id="text_8">
      <!-- 11 -->
      <g transform="translate(401.873841 271.757332) scale(0.1 -0.1)">
       <use xlink:href="#DejaVuSans-31"/>
       <use xlink:href="#DejaVuSans-31" transform="translate(63.623047 0)"/>
      </g>
     </g>
    </g>
    <g id="text_9">
     <!-- wavelength [Å] -->
     <g transform="translate(192.00689 287.119832) scale(0.1 -0.1)">
      <defs>
       <path id="DejaVuSans-77" d="M 269 3500 
L 844 3500 
L 1563 769 
L 2278 3500 
L 2956 3500 
L 3675 769 
L 4391 3500 
L 4966 3500 
L 4050 0 
L 3372 0 
L 2619 2869 
L 1863 0 
L 1184 0 
L 269 3500 
z
" transform="scale(0.015625)"/>
       <path id="DejaVuSans-61" d="M 2194 1759 
Q 1497 1759 1228 1600 
Q 959 1441 959 1056 
Q 959 750 1161 570 
Q 1363 391 1709 391 
Q 2188 391 2477 730 
Q 2766 1069 2766 1631 
L 2766 1759 
L 2194 1759 
z
M 3341 1997 
L 3341 0 
L 2766 0 
L 2766 531 
Q 2569 213 2275 61 
Q 1981 -91 1556 -91 
Q 1019 -91 701 211 
Q 384 513 384 1019 
Q 384 1609 779 1909 
Q 1175 2209 1959 2209 
L 2766 2209 
L 2766 2266 
Q 2766 2663 2505 2880 
Q 2244 3097 1772 3097 
Q 1472 3097 1187 3025 
Q 903 2953 641 2809 
L 641 3341 
Q 956 3463 1253 3523 
Q 1550 3584 1831 3584 
Q 2591 3584 2966 3190 
Q 3341 2797 3341 1997 
z
" transform="scale(0.015625)"/>
       <path id="DejaVuSans-76" d="M 191 3500 
L 800 3500 
L 1894 563 
L 2988 3500 
L 3597 3500 
L 2284 0 
L 1503 0 
L 191 3500 
z
" transform="scale(0.015625)"/>
       <path id="DejaVuSans-65" d="M 3597 1894 
L 3597 1613 
L 953 1613 
Q 991 1019 1311 708 
Q 1631 397 2203 397 
Q 2534 397 2845 478 
Q 3156 559 3463 722 
L 3463 178 
Q 3153 47 2828 -22 
Q 2503 -91 2169 -91 
Q 1331 -91 842 396 
Q 353 884 353 1716 
Q 353 2575 817 3079 
Q 1281 3584 2069 3584 
Q 2775 3584 3186 3129 
Q 3597 2675 3597 1894 
z
M 3022 2063 
Q 3016 2534 2758 2815 
Q 2500 3097 2075 3097 
Q 1594 3097 1305 2825 
Q 1016 2553 972 2059 
L 3022 2063 
z
" transform="scale(0.015625)"/>
       <path id="DejaVuSans-6c" d="M 603 4863 
L 1178 4863 
L 1178 0 
L 603 0 
L 603 4863 
z
" transform="scale(0.015625)"/>
       <path id="DejaVuSans-6e" d="M 3513 2113 
L 3513 0 
L 2938 0 
L 2938 2094 
Q 2938 2591 2744 2837 
Q 2550 3084 2163 3084 
Q 1697 3084 1428 2787 
Q 1159 2491 1159 1978 
L 1159 0 
L 581 0 
L 581 3500 
L 1159 3500 
L 1159 2956 
Q 1366 3272 1645 3428 
Q 1925 3584 2291 3584 
Q 2894 3584 3203 3211 
Q 3513 2838 3513 2113 
z
" transform="scale(0.015625)"/>
       <path id="DejaVuSans-67" d="M 2906 1791 
Q 2906 2416 2648 2759 
Q 2391 3103 1925 3103 
Q 1463 3103 1205 2759 
Q 947 2416 947 1791 
Q 947 1169 1205 825 
Q 1463 481 1925 481 
Q 2391 481 2648 825 
Q 2906 1169 2906 1791 
z
M 3481 434 
Q 3481 -459 3084 -895 
Q 2688 -1331 1869 -1331 
Q 1566 -1331 1297 -1286 
Q 1028 -1241 775 -1147 
L 775 -588 
Q 1028 -725 1275 -790 
Q 1522 -856 1778 -856 
Q 2344 -856 2625 -561 
Q 2906 -266 2906 331 
L 2906 616 
Q 2728 306 2450 153 
Q 2172 0 1784 0 
Q 1141 0 747 490 
Q 353 981 353 1791 
Q 353 2603 747 3093 
Q 1141 3584 1784 3584 
Q 2172 3584 2450 3431 
Q 2728 3278 2906 2969 
L 2906 3500 
L 3481 3500 
L 3481 434 
z
" transform="scale(0.015625)"/>
       <path id="DejaVuSans-74" d="M 1172 4494 
L 1172 3500 
L 2356 3500 
L 2356 3053 
L 1172 3053 
L 1172 1153 
Q 1172 725 1289 603 
Q 1406 481 1766 481 
L 2356 481 
L 2356 0 
L 1766 0 
Q 1100 0 847 248 
Q 594 497 594 1153 
L 594 3053 
L 172 3053 
L 172 3500 
L 594 3500 
L 594 4494 
L 1172 4494 
z
" transform="scale(0.015625)"/>
       <path id="DejaVuSans-68" d="M 3513 2113 
L 3513 0 
L 2938 0 
L 2938 2094 
Q 2938 2591 2744 2837 
Q 2550 3084 2163 3084 
Q 1697 3084 1428 2787 
Q 1159 2491 1159 1978 
L 1159 0 
L 581 0 
L 581 4863 
L 1159 4863 
L 1159 2956 
Q 1366 3272 1645 3428 
Q 1925 3584 2291 3584 
Q 2894 3584 3203 3211 
Q 3513 2838 3513 2113 
z
" transform="scale(0.015625)"/>
       <path id="DejaVuSans-20" transform="scale(0.015625)"/>
       <path id="DejaVuSans-5b" d="M 550 4863 
L 1875 4863 
L 1875 4416 
L 1125 4416 
L 1125 -397 
L 1875 -397 
L 1875 -844 
L 550 -844 
L 550 4863 
z
" transform="scale(0.015625)"/>
       <path id="DejaVuSans-c5" d="M 2663 5081 
Q 2663 5278 2523 5417 
Q 2384 5556 2188 5556 
Q 1988 5556 1852 5420 
Q 1716 5284 1716 5081 
Q 1716 4884 1853 4746 
Q 1991 4609 2188 4609 
Q 2384 4609 2523 4746 
Q 2663 4884 2663 5081 
z
M 2188 4044 
L 1338 1722 
L 3041 1722 
L 2188 4044 
z
M 1716 4366 
Q 1525 4494 1428 4673 
Q 1331 4853 1331 5081 
Q 1331 5441 1579 5691 
Q 1828 5941 2188 5941 
Q 2544 5941 2795 5689 
Q 3047 5438 3047 5081 
Q 3047 4863 2948 4678 
Q 2850 4494 2663 4366 
L 4325 0 
L 3669 0 
L 3244 1197 
L 1141 1197 
L 716 0 
L 50 0 
L 1716 4366 
z
" transform="scale(0.015625)"/>
       <path id="DejaVuSans-5d" d="M 1947 4863 
L 1947 -844 
L 622 -844 
L 622 -397 
L 1369 -397 
L 1369 4416 
L 622 4416 
L 622 4863 
L 1947 4863 
z
" transform="scale(0.015625)"/>
      </defs>
      <use xlink:href="#DejaVuSans-77"/>
      <use xlink:href="#DejaVuSans-61" transform="translate(81.787109 0)"/>
      <use xlink:href="#DejaVuSans-76" transform="translate(143.066406 0)"/>
      <use xlink:href="#DejaVuSans-65" transform="translate(202.246094 0)"/>
      <use xlink:href="#DejaVuSans-6c" transform="translate(263.769531 0)"/>
      <use xlink:href="#DejaVuSans-65" transform="translate(291.552734 0)"/>
      <use xlink:href="#DejaVuSans-6e" transform="translate(353.076172 0)"/>
      <use xlink:href="#DejaVuSans-67" transform="translate(416.455078 0)"/>
      <use xlink:href="#DejaVuSans-74" transform="translate(479.931641 0)"/>
      <use xlink:href="#DejaVuSans-68" transform="translate(519.140625 0)"/>
      <use xlink:href="#DejaVuSans-20" transform="translate(582.519531 0)"/>
      <use xlink:href="#DejaVuSans-5b" transform="translate(614.306641 0)"/>
      <use xlink:href="#DejaVuSans-c5" transform="translate(653.320312 0)"/>
      <use xlink:href="#DejaVuSans-5d" transform="translate(721.728516 0)"/>
     </g>
    </g>
   </g>
   <g id="matplotlib.axis_2">
    <g id="ytick_1">
     <g id="line2d_9">
      <defs>
       <path id="mcd59e4d1a9" d="M 0 0 
L -3.5 0 
" style="stroke: #000000; stroke-width: 0.8"/>
      </defs>
      <g>
       <use xlink:href="#mcd59e4d1a9" x="50.14375" y="226.823073" style="stroke: #000000; stroke-width: 0.8"/>
      </g>
     </g>
     <g id="text_10">
      <!-- 0.96 -->
      <g transform="translate(20.878125 230.622292) scale(0.1 -0.1)">
       <defs>
        <path id="DejaVuSans-2e" d="M 684 794 
L 1344 794 
L 1344 0 
L 684 0 
L 684 794 
z
" transform="scale(0.015625)"/>
       </defs>
       <use xlink:href="#DejaVuSans-30"/>
       <use xlink:href="#DejaVuSans-2e" transform="translate(63.623047 0)"/>
       <use xlink:href="#DejaVuSans-39" transform="translate(95.410156 0)"/>
       <use xlink:href="#DejaVuSans-36" transform="translate(159.033203 0)"/>
      </g>
     </g>
    </g>
    <g id="ytick_2">
     <g id="line2d_10">
      <g>
       <use xlink:href="#mcd59e4d1a9" x="50.14375" y="193.962165" style="stroke: #000000; stroke-width: 0.8"/>
      </g>
     </g>
     <g id="text_11">
      <!-- 0.98 -->
      <g transform="translate(20.878125 197.761384) scale(0.1 -0.1)">
       <use xlink:href="#DejaVuSans-30"/>
       <use xlink:href="#DejaVuSans-2e" transform="translate(63.623047 0)"/>
       <use xlink:href="#DejaVuSans-39" transform="translate(95.410156 0)"/>
       <use xlink:href="#DejaVuSans-38" transform="translate(159.033203 0)"/>
      </g>
     </g>
    </g>
    <g id="ytick_3">
     <g id="line2d_11">
      <g>
       <use xlink:href="#mcd59e4d1a9" x="50.14375" y="161.101257" style="stroke: #000000; stroke-width: 0.8"/>
      </g>
     </g>
     <g id="text_12">
      <!-- 1.00 -->
      <g transform="translate(20.878125 164.900476) scale(0.1 -0.1)">
       <use xlink:href="#DejaVuSans-31"/>
       <use xlink:href="#DejaVuSans-2e" transform="translate(63.623047 0)"/>
       <use xlink:href="#DejaVuSans-30" transform="translate(95.410156 0)"/>
       <use xlink:href="#DejaVuSans-30" transform="translate(159.033203 0)"/>
      </g>
     </g>
    </g>
    <g id="ytick_4">
     <g id="line2d_12">
      <g>
       <use xlink:href="#mcd59e4d1a9" x="50.14375" y="128.240349" style="stroke: #000000; stroke-width: 0.8"/>
      </g>
     </g>
     <g id="text_13">
      <!-- 1.02 -->
      <g transform="translate(20.878125 132.039568) scale(0.1 -0.1)">
       <defs>
        <path id="DejaVuSans-32" d="M 1228 531 
L 3431 531 
L 3431 0 
L 469 0 
L 469 531 
Q 828 903 1448 1529 
Q 2069 2156 2228 2338 
Q 2531 2678 2651 2914 
Q 2772 3150 2772 3378 
Q 2772 3750 2511 3984 
Q 2250 4219 1831 4219 
Q 1534 4219 1204 4116 
Q 875 4013 500 3803 
L 500 4441 
Q 881 4594 1212 4672 
Q 1544 4750 1819 4750 
Q 2544 4750 2975 4387 
Q 3406 4025 3406 3419 
Q 3406 3131 3298 2873 
Q 3191 2616 2906 2266 
Q 2828 2175 2409 1742 
Q 1991 1309 1228 531 
z
" transform="scale(0.015625)"/>
       </defs>
       <use xlink:href="#DejaVuSans-31"/>
       <use xlink:href="#DejaVuSans-2e" transform="translate(63.623047 0)"/>
       <use xlink:href="#DejaVuSans-30" transform="translate(95.410156 0)"/>
       <use xlink:href="#DejaVuSans-32" transform="translate(159.033203 0)"/>
      </g>
     </g>
    </g>
    <g id="ytick_5">
     <g id="line2d_13">
      <g>
       <use xlink:href="#mcd59e4d1a9" x="50.14375" y="95.379442" style="stroke: #000000; stroke-width: 0.8"/>
      </g>
     </g>
     <g id="text_14">
      <!-- 1.04 -->
      <g transform="translate(20.878125 99.17866) scale(0.1 -0.1)">
       <use xlink:href="#DejaVuSans-31"/>
       <use xlink:href="#DejaVuSans-2e" transform="translate(63.623047 0)"/>
       <use xlink:href="#DejaVuSans-30" transform="translate(95.410156 0)"/>
       <use xlink:href="#DejaVuSans-34" transform="translate(159.033203 0)"/>
      </g>
     </g>
    </g>
    <g id="ytick_6">
     <g id="line2d_14">
      <g>
       <use xlink:href="#mcd59e4d1a9" x="50.14375" y="62.518534" style="stroke: #000000; stroke-width: 0.8"/>
      </g>
     </g>
     <g id="text_15">
      <!-- 1.06 -->
      <g transform="translate(20.878125 66.317752) scale(0.1 -0.1)">
       <use xlink:href="#DejaVuSans-31"/>
       <use xlink:href="#DejaVuSans-2e" transform="translate(63.623047 0)"/>
       <use xlink:href="#DejaVuSans-30" transform="translate(95.410156 0)"/>
       <use xlink:href="#DejaVuSans-36" transform="translate(159.033203 0)"/>
      </g>
     </g>
    </g>
    <g id="ytick_7">
     <g id="line2d_15">
      <g>
       <use xlink:href="#mcd59e4d1a9" x="50.14375" y="29.657626" style="stroke: #000000; stroke-width: 0.8"/>
      </g>
     </g>
     <g id="text_16">
      <!-- 1.08 -->
      <g transform="translate(20.878125 33.456844) scale(0.1 -0.1)">
       <use xlink:href="#DejaVuSans-31"/>
       <use xlink:href="#DejaVuSans-2e" transform="translate(63.623047 0)"/>
       <use xlink:href="#DejaVuSans-30" transform="translate(95.410156 0)"/>
       <use xlink:href="#DejaVuSans-38" transform="translate(159.033203 0)"/>
      </g>
     </g>
    </g>
    <g id="text_17">
     <!-- [0.999999999999999889] -->
     <g transform="translate(14.798438 205.672885) rotate(-90) scale(0.1 -0.1)">
      <use xlink:href="#DejaVuSans-5b"/>
      <use xlink:href="#DejaVuSans-30" transform="translate(39.013672 0)"/>
      <use xlink:href="#DejaVuSans-2e" transform="translate(102.636719 0)"/>
      <use xlink:href="#DejaVuSans-39" transform="translate(134.423828 0)"/>
      <use xlink:href="#DejaVuSans-39" transform="translate(198.046875 0)"/>
      <use xlink:href="#DejaVuSans-39" transform="translate(261.669922 0)"/>
      <use xlink:href="#DejaVuSans-39" transform="translate(325.292969 0)"/>
      <use xlink:href="#DejaVuSans-39" transform="translate(388.916016 0)"/>
      <use xlink:href="#DejaVuSans-39" transform="translate(452.539062 0)"/>
      <use xlink:href="#DejaVuSans-39" transform="translate(516.162109 0)"/>
      <use xlink:href="#DejaVuSans-39" transform="translate(579.785156 0)"/>
      <use xlink:href="#DejaVuSans-39" transform="translate(643.408203 0)"/>
      <use xlink:href="#DejaVuSans-39" transform="translate(707.03125 0)"/>
      <use xlink:href="#DejaVuSans-39" transform="translate(770.654297 0)"/>
      <use xlink:href="#DejaVuSans-39" transform="translate(834.277344 0)"/>
      <use xlink:href="#DejaVuSans-39" transform="translate(897.900391 0)"/>
      <use xlink:href="#DejaVuSans-39" transform="translate(961.523438 0)"/>
      <use xlink:href="#DejaVuSans-39" transform="translate(1025.146484 0)"/>
      <use xlink:href="#DejaVuSans-38" transform="translate(1088.769531 0)"/>
      <use xlink:href="#DejaVuSans-38" transform="translate(1152.392578 0)"/>
      <use xlink:href="#DejaVuSans-39" transform="translate(1216.015625 0)"/>
      <use xlink:href="#DejaVuSans-5d" transform="translate(1279.638672 0)"/>
     </g>
    </g>
   </g>
   <g id="line2d_16">
    <defs>
     <path id="md5175c5c64" d="M 0 3 
C 0.795609 3 1.55874 2.683901 2.12132 2.12132 
C 2.683901 1.55874 3 0.795609 3 0 
C 3 -0.795609 2.683901 -1.55874 2.12132 -2.12132 
C 1.55874 -2.683901 0.795609 -3 0 -3 
C -0.795609 -3 -1.55874 -2.683901 -2.12132 -2.12132 
C -2.683901 -1.55874 -3 -0.795609 -3 0 
C -3 0.795609 -2.683901 1.55874 -2.12132 2.12132 
C -1.55874 2.683901 -0.795609 3 0 3 
z
" style="stroke: #1f77b4"/>
    </defs>
    <g clip-path="url(#p5574744133)">
     <use xlink:href="#md5175c5c64" x="66.498354" y="168.231739" style="fill: #1f77b4; stroke: #1f77b4"/>
     <use xlink:href="#md5175c5c64" x="73.173702" y="168.109462" style="fill: #1f77b4; stroke: #1f77b4"/>
     <use xlink:href="#md5175c5c64" x="79.849051" y="167.99069" style="fill: #1f77b4; stroke: #1f77b4"/>
     <use xlink:href="#md5175c5c64" x="86.524399" y="167.875425" style="fill: #1f77b4; stroke: #1f77b4"/>
     <use xlink:href="#md5175c5c64" x="93.199747" y="167.763666" style="fill: #1f77b4; stroke: #1f77b4"/>
     <use xlink:href="#md5175c5c64" x="99.875096" y="167.655412" style="fill: #1f77b4; stroke: #1f77b4"/>
     <use xlink:href="#md5175c5c64" x="106.550444" y="167.550664" style="fill: #1f77b4; stroke: #1f77b4"/>
     <use xlink:href="#md5175c5c64" x="113.225793" y="167.449423" style="fill: #1f77b4; stroke: #1f77b4"/>
     <use xlink:href="#md5175c5c64" x="119.901141" y="167.351687" style="fill: #1f77b4; stroke: #1f77b4"/>
     <use xlink:href="#md5175c5c64" x="126.57649" y="167.257457" style="fill: #1f77b4; stroke: #1f77b4"/>
     <use xlink:href="#md5175c5c64" x="133.251838" y="167.166733" style="fill: #1f77b4; stroke: #1f77b4"/>
     <use xlink:href="#md5175c5c64" x="139.927187" y="167.079515" style="fill: #1f77b4; stroke: #1f77b4"/>
     <use xlink:href="#md5175c5c64" x="146.602535" y="166.995803" style="fill: #1f77b4; stroke: #1f77b4"/>
     <use xlink:href="#md5175c5c64" x="153.277883" y="166.915596" style="fill: #1f77b4; stroke: #1f77b4"/>
     <use xlink:href="#md5175c5c64" x="159.953232" y="166.838896" style="fill: #1f77b4; stroke: #1f77b4"/>
     <use xlink:href="#md5175c5c64" x="166.62858" y="166.765701" style="fill: #1f77b4; stroke: #1f77b4"/>
     <use xlink:href="#md5175c5c64" x="173.303929" y="166.696013" style="fill: #1f77b4; stroke: #1f77b4"/>
     <use xlink:href="#md5175c5c64" x="179.979277" y="166.62983" style="fill: #1f77b4; stroke: #1f77b4"/>
     <use xlink:href="#md5175c5c64" x="186.654626" y="166.567153" style="fill: #1f77b4; stroke: #1f77b4"/>
     <use xlink:href="#md5175c5c64" x="193.329974" y="166.507983" style="fill: #1f77b4; stroke: #1f77b4"/>
     <use xlink:href="#md5175c5c64" x="200.005322" y="166.452318" style="fill: #1f77b4; stroke: #1f77b4"/>
     <use xlink:href="#md5175c5c64" x="206.680671" y="166.400158" style="fill: #1f77b4; stroke: #1f77b4"/>
     <use xlink:href="#md5175c5c64" x="213.356019" y="166.351505" style="fill: #1f77b4; stroke: #1f77b4"/>
     <use xlink:href="#md5175c5c64" x="220.031368" y="166.306358" style="fill: #1f77b4; stroke: #1f77b4"/>
     <use xlink:href="#md5175c5c64" x="226.706716" y="166.264717" style="fill: #1f77b4; stroke: #1f77b4"/>
     <use xlink:href="#md5175c5c64" x="233.382065" y="166.226581" style="fill: #1f77b4; stroke: #1f77b4"/>
     <use xlink:href="#md5175c5c64" x="240.057413" y="166.191952" style="fill: #1f77b4; stroke: #1f77b4"/>
     <use xlink:href="#md5175c5c64" x="246.732762" y="166.160828" style="fill: #1f77b4; stroke: #1f77b4"/>
     <use xlink:href="#md5175c5c64" x="253.40811" y="166.13321" style="fill: #1f77b4; stroke: #1f77b4"/>
     <use xlink:href="#md5175c5c64" x="260.083458" y="166.109098" style="fill: #1f77b4; stroke: #1f77b4"/>
     <use xlink:href="#md5175c5c64" x="266.758807" y="166.088492" style="fill: #1f77b4; stroke: #1f77b4"/>
     <use xlink:href="#md5175c5c64" x="273.434155" y="166.071392" style="fill: #1f77b4; stroke: #1f77b4"/>
     <use xlink:href="#md5175c5c64" x="280.109504" y="166.057798" style="fill: #1f77b4; stroke: #1f77b4"/>
     <use xlink:href="#md5175c5c64" x="286.784852" y="166.04771" style="fill: #1f77b4; stroke: #1f77b4"/>
     <use xlink:href="#md5175c5c64" x="293.460201" y="166.041128" style="fill: #1f77b4; stroke: #1f77b4"/>
     <use xlink:href="#md5175c5c64" x="300.135549" y="166.038051" style="fill: #1f77b4; stroke: #1f77b4"/>
     <use xlink:href="#md5175c5c64" x="306.810898" y="166.038481" style="fill: #1f77b4; stroke: #1f77b4"/>
     <use xlink:href="#md5175c5c64" x="313.486246" y="166.042416" style="fill: #1f77b4; stroke: #1f77b4"/>
     <use xlink:href="#md5175c5c64" x="320.161594" y="166.049857" style="fill: #1f77b4; stroke: #1f77b4"/>
     <use xlink:href="#md5175c5c64" x="326.836943" y="166.060804" style="fill: #1f77b4; stroke: #1f77b4"/>
     <use xlink:href="#md5175c5c64" x="333.512291" y="166.075258" style="fill: #1f77b4; stroke: #1f77b4"/>
     <use xlink:href="#md5175c5c64" x="340.18764" y="166.093217" style="fill: #1f77b4; stroke: #1f77b4"/>
     <use xlink:href="#md5175c5c64" x="346.862988" y="166.114681" style="fill: #1f77b4; stroke: #1f77b4"/>
     <use xlink:href="#md5175c5c64" x="353.538337" y="166.139652" style="fill: #1f77b4; stroke: #1f77b4"/>
     <use xlink:href="#md5175c5c64" x="360.213685" y="166.168129" style="fill: #1f77b4; stroke: #1f77b4"/>
     <use xlink:href="#md5175c5c64" x="366.889033" y="166.200111" style="fill: #1f77b4; stroke: #1f77b4"/>
     <use xlink:href="#md5175c5c64" x="373.564382" y="166.2356" style="fill: #1f77b4; stroke: #1f77b4"/>
     <use xlink:href="#md5175c5c64" x="380.23973" y="166.274594" style="fill: #1f77b4; stroke: #1f77b4"/>
     <use xlink:href="#md5175c5c64" x="386.915079" y="166.317095" style="fill: #1f77b4; stroke: #1f77b4"/>
     <use xlink:href="#md5175c5c64" x="393.590427" y="166.363101" style="fill: #1f77b4; stroke: #1f77b4"/>
    </g>
   </g>
   <g id="line2d_17">
    <path d="M 66.498354 162.100852 
L 66.498354 162.100852 
L 73.173702 162.100852 
L 73.173702 175.733056 
L 79.849051 175.733056 
L 79.849051 167.834634 
L 86.524399 167.834634 
L 86.524399 173.675793 
L 93.199747 173.675793 
L 93.199747 175.980076 
L 99.875096 175.980076 
L 99.875096 164.409736 
L 106.550444 164.409736 
L 106.550444 168.414387 
L 113.225793 168.414387 
L 113.225793 182.818735 
L 119.901141 182.818735 
L 119.901141 156.121044 
L 126.57649 156.121044 
L 126.57649 152.905349 
L 133.251838 152.905349 
L 133.251838 165.974768 
L 139.927187 165.974768 
L 139.927187 164.785749 
L 146.602535 164.785749 
L 146.602535 156.038867 
L 153.277883 156.038867 
L 153.277883 176.948051 
L 159.953232 176.948051 
L 159.953232 162.985094 
L 166.62858 162.985094 
L 166.62858 164.665827 
L 173.303929 164.665827 
L 173.303929 169.263818 
L 179.979277 169.263818 
L 179.979277 166.435639 
L 186.654626 166.435639 
L 186.654626 157.459315 
L 193.329974 157.459315 
L 193.329974 165.502781 
L 200.005322 165.502781 
L 200.005322 149.997255 
L 206.680671 149.997255 
L 206.680671 179.647512 
L 213.356019 179.647512 
L 213.356019 166.360252 
L 220.031368 166.360252 
L 220.031368 178.79029 
L 226.706716 178.79029 
L 226.706716 169.193602 
L 233.382065 169.193602 
L 233.382065 165.520019 
L 240.057413 165.520019 
L 240.057413 157.939474 
L 246.732762 157.939474 
L 246.732762 167.112522 
L 253.40811 167.112522 
L 253.40811 154.525085 
L 260.083458 154.525085 
L 260.083458 165.210648 
L 266.758807 165.210648 
L 266.758807 148.316949 
L 273.434155 148.316949 
L 273.434155 160.297594 
L 280.109504 160.297594 
L 280.109504 167.774971 
L 286.784852 167.774971 
L 286.784852 178.984137 
L 293.460201 178.984137 
L 293.460201 192.325174 
L 300.135549 192.325174 
L 300.135549 180.01059 
L 306.810898 180.01059 
L 306.810898 200.043689 
L 313.486246 200.043689 
L 313.486246 162.281783 
L 320.161594 162.281783 
L 320.161594 172.672117 
L 326.836943 172.672117 
L 326.836943 150.911725 
L 333.512291 150.911725 
L 333.512291 178.900844 
L 340.18764 178.900844 
L 340.18764 157.630214 
L 346.862988 157.630214 
L 346.862988 158.463195 
L 353.538337 158.463195 
L 353.538337 157.668411 
L 360.213685 157.668411 
L 360.213685 162.081872 
L 366.889033 162.081872 
L 366.889033 180.890973 
L 373.564382 180.890973 
L 373.564382 126.844113 
L 380.23973 126.844113 
L 380.23973 120.953456 
L 386.915079 120.953456 
L 386.915079 138.518315 
L 393.590427 138.518315 
" clip-path="url(#p5574744133)" style="fill: none; stroke: #ff7f0e; stroke-width: 1.5; stroke-linecap: square"/>
   </g>
   <g id="LineCollection_1">
    <path d="M 69.836028 186.13701 
L 69.836028 138.064694 
" clip-path="url(#p5574744133)" style="fill: none; stroke: #ff7f0e; stroke-width: 1.5"/>
    <path d="M 76.511376 199.377534 
L 76.511376 152.088579 
" clip-path="url(#p5574744133)" style="fill: none; stroke: #ff7f0e; stroke-width: 1.5"/>
    <path d="M 83.186725 191.731407 
L 83.186725 143.937861 
" clip-path="url(#p5574744133)" style="fill: none; stroke: #ff7f0e; stroke-width: 1.5"/>
    <path d="M 89.862073 197.872715 
L 89.862073 149.47887 
" clip-path="url(#p5574744133)" style="fill: none; stroke: #ff7f0e; stroke-width: 1.5"/>
    <path d="M 96.537422 199.723015 
L 96.537422 152.237137 
" clip-path="url(#p5574744133)" style="fill: none; stroke: #ff7f0e; stroke-width: 1.5"/>
    <path d="M 103.21277 188.003229 
L 103.21277 140.816244 
" clip-path="url(#p5574744133)" style="fill: none; stroke: #ff7f0e; stroke-width: 1.5"/>
    <path d="M 109.888119 192.872282 
L 109.888119 143.956492 
" clip-path="url(#p5574744133)" style="fill: none; stroke: #ff7f0e; stroke-width: 1.5"/>
    <path d="M 116.563467 206.973944 
L 116.563467 158.663525 
" clip-path="url(#p5574744133)" style="fill: none; stroke: #ff7f0e; stroke-width: 1.5"/>
    <path d="M 123.238815 180.771592 
L 123.238815 131.470496 
" clip-path="url(#p5574744133)" style="fill: none; stroke: #ff7f0e; stroke-width: 1.5"/>
    <path d="M 129.914164 177.098259 
L 129.914164 128.712438 
" clip-path="url(#p5574744133)" style="fill: none; stroke: #ff7f0e; stroke-width: 1.5"/>
    <path d="M 136.589512 190.421447 
L 136.589512 141.52809 
" clip-path="url(#p5574744133)" style="fill: none; stroke: #ff7f0e; stroke-width: 1.5"/>
    <path d="M 143.264861 189.11442 
L 143.264861 140.457077 
" clip-path="url(#p5574744133)" style="fill: none; stroke: #ff7f0e; stroke-width: 1.5"/>
    <path d="M 149.940209 181.437211 
L 149.940209 130.640523 
" clip-path="url(#p5574744133)" style="fill: none; stroke: #ff7f0e; stroke-width: 1.5"/>
    <path d="M 156.615558 201.391214 
L 156.615558 152.504888 
" clip-path="url(#p5574744133)" style="fill: none; stroke: #ff7f0e; stroke-width: 1.5"/>
    <path d="M 163.290906 188.534961 
L 163.290906 137.435226 
" clip-path="url(#p5574744133)" style="fill: none; stroke: #ff7f0e; stroke-width: 1.5"/>
    <path d="M 169.966254 190.070201 
L 169.966254 139.261453 
" clip-path="url(#p5574744133)" style="fill: none; stroke: #ff7f0e; stroke-width: 1.5"/>
    <path d="M 176.641603 194.363282 
L 176.641603 144.164353 
" clip-path="url(#p5574744133)" style="fill: none; stroke: #ff7f0e; stroke-width: 1.5"/>
    <path d="M 183.316951 191.982206 
L 183.316951 140.889072 
" clip-path="url(#p5574744133)" style="fill: none; stroke: #ff7f0e; stroke-width: 1.5"/>
    <path d="M 189.9923 184.44618 
L 189.9923 130.47245 
" clip-path="url(#p5574744133)" style="fill: none; stroke: #ff7f0e; stroke-width: 1.5"/>
    <path d="M 196.667648 192.885213 
L 196.667648 138.12035 
" clip-path="url(#p5574744133)" style="fill: none; stroke: #ff7f0e; stroke-width: 1.5"/>
    <path d="M 203.342997 177.608493 
L 203.342997 122.386018 
" clip-path="url(#p5574744133)" style="fill: none; stroke: #ff7f0e; stroke-width: 1.5"/>
    <path d="M 210.018345 207.985484 
L 210.018345 151.309539 
" clip-path="url(#p5574744133)" style="fill: none; stroke: #ff7f0e; stroke-width: 1.5"/>
    <path d="M 216.693694 194.503584 
L 216.693694 138.21692 
" clip-path="url(#p5574744133)" style="fill: none; stroke: #ff7f0e; stroke-width: 1.5"/>
    <path d="M 223.369042 206.307696 
L 223.369042 151.272884 
" clip-path="url(#p5574744133)" style="fill: none; stroke: #ff7f0e; stroke-width: 1.5"/>
    <path d="M 230.04439 197.40769 
L 230.04439 140.979514 
" clip-path="url(#p5574744133)" style="fill: none; stroke: #ff7f0e; stroke-width: 1.5"/>
    <path d="M 236.719739 193.511391 
L 236.719739 137.528647 
" clip-path="url(#p5574744133)" style="fill: none; stroke: #ff7f0e; stroke-width: 1.5"/>
    <path d="M 243.395087 186.78134 
L 243.395087 129.097608 
" clip-path="url(#p5574744133)" style="fill: none; stroke: #ff7f0e; stroke-width: 1.5"/>
    <path d="M 250.070436 197.400732 
L 250.070436 136.824313 
" clip-path="url(#p5574744133)" style="fill: none; stroke: #ff7f0e; stroke-width: 1.5"/>
    <path d="M 256.745784 185.112602 
L 256.745784 123.937568 
" clip-path="url(#p5574744133)" style="fill: none; stroke: #ff7f0e; stroke-width: 1.5"/>
    <path d="M 263.421133 196.395757 
L 263.421133 134.02554 
" clip-path="url(#p5574744133)" style="fill: none; stroke: #ff7f0e; stroke-width: 1.5"/>
    <path d="M 270.096481 179.334575 
L 270.096481 117.299324 
" clip-path="url(#p5574744133)" style="fill: none; stroke: #ff7f0e; stroke-width: 1.5"/>
    <path d="M 276.77183 192.011164 
L 276.77183 128.584024 
" clip-path="url(#p5574744133)" style="fill: none; stroke: #ff7f0e; stroke-width: 1.5"/>
    <path d="M 283.447178 199.292745 
L 283.447178 136.257197 
" clip-path="url(#p5574744133)" style="fill: none; stroke: #ff7f0e; stroke-width: 1.5"/>
    <path d="M 290.122526 211.366901 
L 290.122526 146.601373 
" clip-path="url(#p5574744133)" style="fill: none; stroke: #ff7f0e; stroke-width: 1.5"/>
    <path d="M 296.797875 224.765573 
L 296.797875 159.884775 
" clip-path="url(#p5574744133)" style="fill: none; stroke: #ff7f0e; stroke-width: 1.5"/>
    <path d="M 303.473223 214.450777 
L 303.473223 145.570403 
" clip-path="url(#p5574744133)" style="fill: none; stroke: #ff7f0e; stroke-width: 1.5"/>
    <path d="M 310.148572 233.892939 
L 310.148572 166.194439 
" clip-path="url(#p5574744133)" style="fill: none; stroke: #ff7f0e; stroke-width: 1.5"/>
    <path d="M 316.82392 196.98594 
L 316.82392 127.577625 
" clip-path="url(#p5574744133)" style="fill: none; stroke: #ff7f0e; stroke-width: 1.5"/>
    <path d="M 323.499269 207.77167 
L 323.499269 137.572564 
" clip-path="url(#p5574744133)" style="fill: none; stroke: #ff7f0e; stroke-width: 1.5"/>
    <path d="M 330.174617 187.383404 
L 330.174617 114.440046 
" clip-path="url(#p5574744133)" style="fill: none; stroke: #ff7f0e; stroke-width: 1.5"/>
    <path d="M 336.849965 217.920221 
L 336.849965 139.881466 
" clip-path="url(#p5574744133)" style="fill: none; stroke: #ff7f0e; stroke-width: 1.5"/>
    <path d="M 343.525314 195.046472 
L 343.525314 120.213956 
" clip-path="url(#p5574744133)" style="fill: none; stroke: #ff7f0e; stroke-width: 1.5"/>
    <path d="M 350.200662 200.768261 
L 350.200662 116.158129 
" clip-path="url(#p5574744133)" style="fill: none; stroke: #ff7f0e; stroke-width: 1.5"/>
    <path d="M 356.876011 202.992985 
L 356.876011 112.343836 
" clip-path="url(#p5574744133)" style="fill: none; stroke: #ff7f0e; stroke-width: 1.5"/>
    <path d="M 363.551359 217.02923 
L 363.551359 107.134514 
" clip-path="url(#p5574744133)" style="fill: none; stroke: #ff7f0e; stroke-width: 1.5"/>
    <path d="M 370.226708 246.484315 
L 370.226708 115.297632 
" clip-path="url(#p5574744133)" style="fill: none; stroke: #ff7f0e; stroke-width: 1.5"/>
    <path d="M 376.902056 197.213663 
L 376.902056 56.474562 
" clip-path="url(#p5574744133)" style="fill: none; stroke: #ff7f0e; stroke-width: 1.5"/>
    <path d="M 383.577405 199.72669 
L 383.577405 42.180223 
" clip-path="url(#p5574744133)" style="fill: none; stroke: #ff7f0e; stroke-width: 1.5"/>
    <path d="M 390.252753 244.043925 
L 390.252753 32.992705 
" clip-path="url(#p5574744133)" style="fill: none; stroke: #ff7f0e; stroke-width: 1.5"/>
   </g>
   <g id="patch_3">
    <path d="M 50.14375 257.158895 
L 50.14375 22.318125 
" style="fill: none; stroke: #000000; stroke-width: 0.8; stroke-linejoin: miter; stroke-linecap: square"/>
   </g>
   <g id="patch_4">
    <path d="M 409.945031 257.158895 
L 409.945031 22.318125 
" style="fill: none; stroke: #000000; stroke-width: 0.8; stroke-linejoin: miter; stroke-linecap: square"/>
   </g>
   <g id="patch_5">
    <path d="M 50.14375 257.158895 
L 409.945031 257.158895 
" style="fill: none; stroke: #000000; stroke-width: 0.8; stroke-linejoin: miter; stroke-linecap: square"/>
   </g>
   <g id="patch_6">
    <path d="M 50.14375 22.318125 
L 409.945031 22.318125 
" style="fill: none; stroke: #000000; stroke-width: 0.8; stroke-linejoin: miter; stroke-linecap: square"/>
   </g>
   <g id="text_18">
    <!-- polarizer -->
    <g transform="translate(203.77939 16.318125) scale(0.12 -0.12)">
     <defs>
      <path id="DejaVuSans-70" d="M 1159 525 
L 1159 -1331 
L 581 -1331 
L 581 3500 
L 1159 3500 
L 1159 2969 
Q 1341 3281 1617 3432 
Q 1894 3584 2278 3584 
Q 2916 3584 3314 3078 
Q 3713 2572 3713 1747 
Q 3713 922 3314 415 
Q 2916 -91 2278 -91 
Q 1894 -91 1617 61 
Q 1341 213 1159 525 
z
M 3116 1747 
Q 3116 2381 2855 2742 
Q 2594 3103 2138 3103 
Q 1681 3103 1420 2742 
Q 1159 2381 1159 1747 
Q 1159 1113 1420 752 
Q 1681 391 2138 391 
Q 2594 391 2855 752 
Q 3116 1113 3116 1747 
z
" transform="scale(0.015625)"/>
      <path id="DejaVuSans-6f" d="M 1959 3097 
Q 1497 3097 1228 2736 
Q 959 2375 959 1747 
Q 959 1119 1226 758 
Q 1494 397 1959 397 
Q 2419 397 2687 759 
Q 2956 1122 2956 1747 
Q 2956 2369 2687 2733 
Q 2419 3097 1959 3097 
z
M 1959 3584 
Q 2709 3584 3137 3096 
Q 3566 2609 3566 1747 
Q 3566 888 3137 398 
Q 2709 -91 1959 -91 
Q 1206 -91 779 398 
Q 353 888 353 1747 
Q 353 2609 779 3096 
Q 1206 3584 1959 3584 
z
" transform="scale(0.015625)"/>
      <path id="DejaVuSans-72" d="M 2631 2963 
Q 2534 3019 2420 3045 
Q 2306 3072 2169 3072 
Q 1681 3072 1420 2755 
Q 1159 2438 1159 1844 
L 1159 0 
L 581 0 
L 581 3500 
L 1159 3500 
L 1159 2956 
Q 1341 3275 1631 3429 
Q 1922 3584 2338 3584 
Q 2397 3584 2469 3576 
Q 2541 3569 2628 3553 
L 2631 2963 
z
" transform="scale(0.015625)"/>
      <path id="DejaVuSans-69" d="M 603 3500 
L 1178 3500 
L 1178 0 
L 603 0 
L 603 3500 
z
M 603 4863 
L 1178 4863 
L 1178 4134 
L 603 4134 
L 603 4863 
z
" transform="scale(0.015625)"/>
      <path id="DejaVuSans-7a" d="M 353 3500 
L 3084 3500 
L 3084 2975 
L 922 459 
L 3084 459 
L 3084 0 
L 275 0 
L 275 525 
L 2438 3041 
L 353 3041 
L 353 3500 
z
" transform="scale(0.015625)"/>
     </defs>
     <use xlink:href="#DejaVuSans-70"/>
     <use xlink:href="#DejaVuSans-6f" transform="translate(63.476562 0)"/>
     <use xlink:href="#DejaVuSans-6c" transform="translate(124.658203 0)"/>
     <use xlink:href="#DejaVuSans-61" transform="translate(152.441406 0)"/>
     <use xlink:href="#DejaVuSans-72" transform="translate(213.720703 0)"/>
     <use xlink:href="#DejaVuSans-69" transform="translate(254.833984 0)"/>
     <use xlink:href="#DejaVuSans-7a" transform="translate(282.617188 0)"/>
     <use xlink:href="#DejaVuSans-65" transform="translate(335.107422 0)"/>
     <use xlink:href="#DejaVuSans-72" transform="translate(396.630859 0)"/>
    </g>
   </g>
   <g id="legend_1">
    <g id="patch_7">
     <path d="M 322.788781 59.674375 
L 402.945031 59.674375 
Q 404.945031 59.674375 404.945031 57.674375 
L 404.945031 29.318125 
Q 404.945031 27.318125 402.945031 27.318125 
L 322.788781 27.318125 
Q 320.788781 27.318125 320.788781 29.318125 
L 320.788781 57.674375 
Q 320.788781 59.674375 322.788781 59.674375 
z
" style="fill: #ffffff; opacity: 0.8; stroke: #cccccc; stroke-linejoin: miter"/>
    </g>
    <g id="line2d_18">
     <g>
      <use xlink:href="#md5175c5c64" x="334.788781" y="35.416562" style="fill: #1f77b4; stroke: #1f77b4"/>
     </g>
    </g>
    <g id="text_19">
     <!-- fit -->
     <g transform="translate(352.788781 38.916562) scale(0.1 -0.1)">
      <defs>
       <path id="DejaVuSans-66" d="M 2375 4863 
L 2375 4384 
L 1825 4384 
Q 1516 4384 1395 4259 
Q 1275 4134 1275 3809 
L 1275 3500 
L 2222 3500 
L 2222 3053 
L 1275 3053 
L 1275 0 
L 697 0 
L 697 3053 
L 147 3053 
L 147 3500 
L 697 3500 
L 697 3744 
Q 697 4328 969 4595 
Q 1241 4863 1831 4863 
L 2375 4863 
z
" transform="scale(0.015625)"/>
      </defs>
      <use xlink:href="#DejaVuSans-66"/>
      <use xlink:href="#DejaVuSans-69" transform="translate(35.205078 0)"/>
      <use xlink:href="#DejaVuSans-74" transform="translate(62.988281 0)"/>
     </g>
    </g>
    <g id="line2d_19">
     <path d="M 324.788781 50.094687 
L 324.788781 50.094687 
L 334.788781 50.094687 
L 334.788781 50.094687 
L 344.788781 50.094687 
" style="fill: none; stroke: #ff7f0e; stroke-width: 1.5; stroke-linecap: square"/>
    </g>
    <g id="text_20">
     <!-- efficiency -->
     <g transform="translate(352.788781 53.594687) scale(0.1 -0.1)">
      <defs>
       <path id="DejaVuSans-63" d="M 3122 3366 
L 3122 2828 
Q 2878 2963 2633 3030 
Q 2388 3097 2138 3097 
Q 1578 3097 1268 2742 
Q 959 2388 959 1747 
Q 959 1106 1268 751 
Q 1578 397 2138 397 
Q 2388 397 2633 464 
Q 2878 531 3122 666 
L 3122 134 
Q 2881 22 2623 -34 
Q 2366 -91 2075 -91 
Q 1284 -91 818 406 
Q 353 903 353 1747 
Q 353 2603 823 3093 
Q 1294 3584 2113 3584 
Q 2378 3584 2631 3529 
Q 2884 3475 3122 3366 
z
" transform="scale(0.015625)"/>
       <path id="DejaVuSans-79" d="M 2059 -325 
Q 1816 -950 1584 -1140 
Q 1353 -1331 966 -1331 
L 506 -1331 
L 506 -850 
L 844 -850 
Q 1081 -850 1212 -737 
Q 1344 -625 1503 -206 
L 1606 56 
L 191 3500 
L 800 3500 
L 1894 763 
L 2988 3500 
L 3597 3500 
L 2059 -325 
z
" transform="scale(0.015625)"/>
      </defs>
      <use xlink:href="#DejaVuSans-65"/>
      <use xlink:href="#DejaVuSans-66" transform="translate(61.523438 0)"/>
      <use xlink:href="#DejaVuSans-66" transform="translate(96.728516 0)"/>
      <use xlink:href="#DejaVuSans-69" transform="translate(131.933594 0)"/>
      <use xlink:href="#DejaVuSans-63" transform="translate(159.716797 0)"/>
      <use xlink:href="#DejaVuSans-69" transform="translate(214.697266 0)"/>
      <use xlink:href="#DejaVuSans-65" transform="translate(242.480469 0)"/>
      <use xlink:href="#DejaVuSans-6e" transform="translate(304.003906 0)"/>
      <use xlink:href="#DejaVuSans-63" transform="translate(367.382812 0)"/>
      <use xlink:href="#DejaVuSans-79" transform="translate(422.363281 0)"/>
     </g>
    </g>
   </g>
  </g>
  <g id="axes_2">
   <g id="patch_8">
    <path d="M 500.74351 257.158895 
L 860.544791 257.158895 
L 860.544791 22.318125 
L 500.74351 22.318125 
z
" style="fill: #ffffff"/>
   </g>
   <g id="matplotlib.axis_3">
    <g id="xtick_9">
     <g id="line2d_20">
      <g>
       <use xlink:href="#m29ce3e9169" x="517.098114" y="257.158895" style="stroke: #000000; stroke-width: 0.8"/>
      </g>
     </g>
     <g id="text_21">
      <!-- 4 -->
      <g transform="translate(513.916864 271.757332) scale(0.1 -0.1)">
       <use xlink:href="#DejaVuSans-34"/>
      </g>
     </g>
    </g>
    <g id="xtick_10">
     <g id="line2d_21">
      <g>
       <use xlink:href="#m29ce3e9169" x="565.917826" y="257.158895" style="stroke: #000000; stroke-width: 0.8"/>
      </g>
     </g>
     <g id="text_22">
      <!-- 5 -->
      <g transform="translate(562.736576 271.757332) scale(0.1 -0.1)">
       <use xlink:href="#DejaVuSans-35"/>
      </g>
     </g>
    </g>
    <g id="xtick_11">
     <g id="line2d_22">
      <g>
       <use xlink:href="#m29ce3e9169" x="614.737539" y="257.158895" style="stroke: #000000; stroke-width: 0.8"/>
      </g>
     </g>
     <g id="text_23">
      <!-- 6 -->
      <g transform="translate(611.556289 271.757332) scale(0.1 -0.1)">
       <use xlink:href="#DejaVuSans-36"/>
      </g>
     </g>
    </g>
    <g id="xtick_12">
     <g id="line2d_23">
      <g>
       <use xlink:href="#m29ce3e9169" x="663.557251" y="257.158895" style="stroke: #000000; stroke-width: 0.8"/>
      </g>
     </g>
     <g id="text_24">
      <!-- 7 -->
      <g transform="translate(660.376001 271.757332) scale(0.1 -0.1)">
       <use xlink:href="#DejaVuSans-37"/>
      </g>
     </g>
    </g>
    <g id="xtick_13">
     <g id="line2d_24">
      <g>
       <use xlink:href="#m29ce3e9169" x="712.376964" y="257.158895" style="stroke: #000000; stroke-width: 0.8"/>
      </g>
     </g>
     <g id="text_25">
      <!-- 8 -->
      <g transform="translate(709.195714 271.757332) scale(0.1 -0.1)">
       <use xlink:href="#DejaVuSans-38"/>
      </g>
     </g>
    </g>
    <g id="xtick_14">
     <g id="line2d_25">
      <g>
       <use xlink:href="#m29ce3e9169" x="761.196676" y="257.158895" style="stroke: #000000; stroke-width: 0.8"/>
      </g>
     </g>
     <g id="text_26">
      <!-- 9 -->
      <g transform="translate(758.015426 271.757332) scale(0.1 -0.1)">
       <use xlink:href="#DejaVuSans-39"/>
      </g>
     </g>
    </g>
    <g id="xtick_15">
     <g id="line2d_26">
      <g>
       <use xlink:href="#m29ce3e9169" x="810.016388" y="257.158895" style="stroke: #000000; stroke-width: 0.8"/>
      </g>
     </g>
     <g id="text_27">
      <!-- 10 -->
      <g transform="translate(803.653888 271.757332) scale(0.1 -0.1)">
       <use xlink:href="#DejaVuSans-31"/>
       <use xlink:href="#DejaVuSans-30" transform="translate(63.623047 0)"/>
      </g>
     </g>
    </g>
    <g id="xtick_16">
     <g id="line2d_27">
      <g>
       <use xlink:href="#m29ce3e9169" x="858.836101" y="257.158895" style="stroke: #000000; stroke-width: 0.8"/>
      </g>
     </g>
     <g id="text_28">
      <!-- 11 -->
      <g transform="translate(852.473601 271.757332) scale(0.1 -0.1)">
       <use xlink:href="#DejaVuSans-31"/>
       <use xlink:href="#DejaVuSans-31" transform="translate(63.623047 0)"/>
      </g>
     </g>
    </g>
    <g id="text_29">
     <!-- wavelength [Å] -->
     <g transform="translate(642.60665 287.119832) scale(0.1 -0.1)">
      <use xlink:href="#DejaVuSans-77"/>
      <use xlink:href="#DejaVuSans-61" transform="translate(81.787109 0)"/>
      <use xlink:href="#DejaVuSans-76" transform="translate(143.066406 0)"/>
      <use xlink:href="#DejaVuSans-65" transform="translate(202.246094 0)"/>
      <use xlink:href="#DejaVuSans-6c" transform="translate(263.769531 0)"/>
      <use xlink:href="#DejaVuSans-65" transform="translate(291.552734 0)"/>
      <use xlink:href="#DejaVuSans-6e" transform="translate(353.076172 0)"/>
      <use xlink:href="#DejaVuSans-67" transform="translate(416.455078 0)"/>
      <use xlink:href="#DejaVuSans-74" transform="translate(479.931641 0)"/>
      <use xlink:href="#DejaVuSans-68" transform="translate(519.140625 0)"/>
      <use xlink:href="#DejaVuSans-20" transform="translate(582.519531 0)"/>
      <use xlink:href="#DejaVuSans-5b" transform="translate(614.306641 0)"/>
      <use xlink:href="#DejaVuSans-c5" transform="translate(653.320312 0)"/>
      <use xlink:href="#DejaVuSans-5d" transform="translate(721.728516 0)"/>
     </g>
    </g>
   </g>
   <g id="matplotlib.axis_4">
    <g id="ytick_8">
     <g id="line2d_28">
      <g>
       <use xlink:href="#mcd59e4d1a9" x="500.74351" y="238.600345" style="stroke: #000000; stroke-width: 0.8"/>
      </g>
     </g>
     <g id="text_30">
      <!-- 0.70 -->
      <g transform="translate(471.477885 242.399563) scale(0.1 -0.1)">
       <use xlink:href="#DejaVuSans-30"/>
       <use xlink:href="#DejaVuSans-2e" transform="translate(63.623047 0)"/>
       <use xlink:href="#DejaVuSans-37" transform="translate(95.410156 0)"/>
       <use xlink:href="#DejaVuSans-30" transform="translate(159.033203 0)"/>
      </g>
     </g>
    </g>
    <g id="ytick_9">
     <g id="line2d_29">
      <g>
       <use xlink:href="#mcd59e4d1a9" x="500.74351" y="201.219118" style="stroke: #000000; stroke-width: 0.8"/>
      </g>
     </g>
     <g id="text_31">
      <!-- 0.75 -->
      <g transform="translate(471.477885 205.018337) scale(0.1 -0.1)">
       <use xlink:href="#DejaVuSans-30"/>
       <use xlink:href="#DejaVuSans-2e" transform="translate(63.623047 0)"/>
       <use xlink:href="#DejaVuSans-37" transform="translate(95.410156 0)"/>
       <use xlink:href="#DejaVuSans-35" transform="translate(159.033203 0)"/>
      </g>
     </g>
    </g>
    <g id="ytick_10">
     <g id="line2d_30">
      <g>
       <use xlink:href="#mcd59e4d1a9" x="500.74351" y="163.837892" style="stroke: #000000; stroke-width: 0.8"/>
      </g>
     </g>
     <g id="text_32">
      <!-- 0.80 -->
      <g transform="translate(471.477885 167.637111) scale(0.1 -0.1)">
       <use xlink:href="#DejaVuSans-30"/>
       <use xlink:href="#DejaVuSans-2e" transform="translate(63.623047 0)"/>
       <use xlink:href="#DejaVuSans-38" transform="translate(95.410156 0)"/>
       <use xlink:href="#DejaVuSans-30" transform="translate(159.033203 0)"/>
      </g>
     </g>
    </g>
    <g id="ytick_11">
     <g id="line2d_31">
      <g>
       <use xlink:href="#mcd59e4d1a9" x="500.74351" y="126.456666" style="stroke: #000000; stroke-width: 0.8"/>
      </g>
     </g>
     <g id="text_33">
      <!-- 0.85 -->
      <g transform="translate(471.477885 130.255884) scale(0.1 -0.1)">
       <use xlink:href="#DejaVuSans-30"/>
       <use xlink:href="#DejaVuSans-2e" transform="translate(63.623047 0)"/>
       <use xlink:href="#DejaVuSans-38" transform="translate(95.410156 0)"/>
       <use xlink:href="#DejaVuSans-35" transform="translate(159.033203 0)"/>
      </g>
     </g>
    </g>
    <g id="ytick_12">
     <g id="line2d_32">
      <g>
       <use xlink:href="#mcd59e4d1a9" x="500.74351" y="89.075439" style="stroke: #000000; stroke-width: 0.8"/>
      </g>
     </g>
     <g id="text_34">
      <!-- 0.90 -->
      <g transform="translate(471.477885 92.874658) scale(0.1 -0.1)">
       <use xlink:href="#DejaVuSans-30"/>
       <use xlink:href="#DejaVuSans-2e" transform="translate(63.623047 0)"/>
       <use xlink:href="#DejaVuSans-39" transform="translate(95.410156 0)"/>
       <use xlink:href="#DejaVuSans-30" transform="translate(159.033203 0)"/>
      </g>
     </g>
    </g>
    <g id="ytick_13">
     <g id="line2d_33">
      <g>
       <use xlink:href="#mcd59e4d1a9" x="500.74351" y="51.694213" style="stroke: #000000; stroke-width: 0.8"/>
      </g>
     </g>
     <g id="text_35">
      <!-- 0.95 -->
      <g transform="translate(471.477885 55.493432) scale(0.1 -0.1)">
       <use xlink:href="#DejaVuSans-30"/>
       <use xlink:href="#DejaVuSans-2e" transform="translate(63.623047 0)"/>
       <use xlink:href="#DejaVuSans-39" transform="translate(95.410156 0)"/>
       <use xlink:href="#DejaVuSans-35" transform="translate(159.033203 0)"/>
      </g>
     </g>
    </g>
    <g id="text_36">
     <!-- [0.999999999999999889] -->
     <g transform="translate(465.398198 205.672885) rotate(-90) scale(0.1 -0.1)">
      <use xlink:href="#DejaVuSans-5b"/>
      <use xlink:href="#DejaVuSans-30" transform="translate(39.013672 0)"/>
      <use xlink:href="#DejaVuSans-2e" transform="translate(102.636719 0)"/>
      <use xlink:href="#DejaVuSans-39" transform="translate(134.423828 0)"/>
      <use xlink:href="#DejaVuSans-39" transform="translate(198.046875 0)"/>
      <use xlink:href="#DejaVuSans-39" transform="translate(261.669922 0)"/>
      <use xlink:href="#DejaVuSans-39" transform="translate(325.292969 0)"/>
      <use xlink:href="#DejaVuSans-39" transform="translate(388.916016 0)"/>
      <use xlink:href="#DejaVuSans-39" transform="translate(452.539062 0)"/>
      <use xlink:href="#DejaVuSans-39" transform="translate(516.162109 0)"/>
      <use xlink:href="#DejaVuSans-39" transform="translate(579.785156 0)"/>
      <use xlink:href="#DejaVuSans-39" transform="translate(643.408203 0)"/>
      <use xlink:href="#DejaVuSans-39" transform="translate(707.03125 0)"/>
      <use xlink:href="#DejaVuSans-39" transform="translate(770.654297 0)"/>
      <use xlink:href="#DejaVuSans-39" transform="translate(834.277344 0)"/>
      <use xlink:href="#DejaVuSans-39" transform="translate(897.900391 0)"/>
      <use xlink:href="#DejaVuSans-39" transform="translate(961.523438 0)"/>
      <use xlink:href="#DejaVuSans-39" transform="translate(1025.146484 0)"/>
      <use xlink:href="#DejaVuSans-38" transform="translate(1088.769531 0)"/>
      <use xlink:href="#DejaVuSans-38" transform="translate(1152.392578 0)"/>
      <use xlink:href="#DejaVuSans-39" transform="translate(1216.015625 0)"/>
      <use xlink:href="#DejaVuSans-5d" transform="translate(1279.638672 0)"/>
     </g>
    </g>
   </g>
   <g id="line2d_34">
    <g clip-path="url(#pd068cb2d6f)">
     <use xlink:href="#md5175c5c64" x="517.098114" y="236.937838" style="fill: #1f77b4; stroke: #1f77b4"/>
     <use xlink:href="#md5175c5c64" x="523.773462" y="230.72624" style="fill: #1f77b4; stroke: #1f77b4"/>
     <use xlink:href="#md5175c5c64" x="530.448811" y="224.641518" style="fill: #1f77b4; stroke: #1f77b4"/>
     <use xlink:href="#md5175c5c64" x="537.124159" y="218.683671" style="fill: #1f77b4; stroke: #1f77b4"/>
     <use xlink:href="#md5175c5c64" x="543.799507" y="212.852701" style="fill: #1f77b4; stroke: #1f77b4"/>
     <use xlink:href="#md5175c5c64" x="550.474856" y="207.148606" style="fill: #1f77b4; stroke: #1f77b4"/>
     <use xlink:href="#md5175c5c64" x="557.150204" y="201.571388" style="fill: #1f77b4; stroke: #1f77b4"/>
     <use xlink:href="#md5175c5c64" x="563.825553" y="196.121045" style="fill: #1f77b4; stroke: #1f77b4"/>
     <use xlink:href="#md5175c5c64" x="570.500901" y="190.797579" style="fill: #1f77b4; stroke: #1f77b4"/>
     <use xlink:href="#md5175c5c64" x="577.17625" y="185.600988" style="fill: #1f77b4; stroke: #1f77b4"/>
     <use xlink:href="#md5175c5c64" x="583.851598" y="180.531273" style="fill: #1f77b4; stroke: #1f77b4"/>
     <use xlink:href="#md5175c5c64" x="590.526947" y="175.588434" style="fill: #1f77b4; stroke: #1f77b4"/>
     <use xlink:href="#md5175c5c64" x="597.202295" y="170.772472" style="fill: #1f77b4; stroke: #1f77b4"/>
     <use xlink:href="#md5175c5c64" x="603.877643" y="166.083385" style="fill: #1f77b4; stroke: #1f77b4"/>
     <use xlink:href="#md5175c5c64" x="610.552992" y="161.521174" style="fill: #1f77b4; stroke: #1f77b4"/>
     <use xlink:href="#md5175c5c64" x="617.22834" y="157.085839" style="fill: #1f77b4; stroke: #1f77b4"/>
     <use xlink:href="#md5175c5c64" x="623.903689" y="152.77738" style="fill: #1f77b4; stroke: #1f77b4"/>
     <use xlink:href="#md5175c5c64" x="630.579037" y="148.595797" style="fill: #1f77b4; stroke: #1f77b4"/>
     <use xlink:href="#md5175c5c64" x="637.254386" y="144.54109" style="fill: #1f77b4; stroke: #1f77b4"/>
     <use xlink:href="#md5175c5c64" x="643.929734" y="140.613259" style="fill: #1f77b4; stroke: #1f77b4"/>
     <use xlink:href="#md5175c5c64" x="650.605082" y="136.812304" style="fill: #1f77b4; stroke: #1f77b4"/>
     <use xlink:href="#md5175c5c64" x="657.280431" y="133.138225" style="fill: #1f77b4; stroke: #1f77b4"/>
     <use xlink:href="#md5175c5c64" x="663.955779" y="129.591021" style="fill: #1f77b4; stroke: #1f77b4"/>
     <use xlink:href="#md5175c5c64" x="670.631128" y="126.170694" style="fill: #1f77b4; stroke: #1f77b4"/>
     <use xlink:href="#md5175c5c64" x="677.306476" y="122.877243" style="fill: #1f77b4; stroke: #1f77b4"/>
     <use xlink:href="#md5175c5c64" x="683.981825" y="119.710668" style="fill: #1f77b4; stroke: #1f77b4"/>
     <use xlink:href="#md5175c5c64" x="690.657173" y="116.670968" style="fill: #1f77b4; stroke: #1f77b4"/>
     <use xlink:href="#md5175c5c64" x="697.332522" y="113.758145" style="fill: #1f77b4; stroke: #1f77b4"/>
     <use xlink:href="#md5175c5c64" x="704.00787" y="110.972197" style="fill: #1f77b4; stroke: #1f77b4"/>
     <use xlink:href="#md5175c5c64" x="710.683218" y="108.313126" style="fill: #1f77b4; stroke: #1f77b4"/>
     <use xlink:href="#md5175c5c64" x="717.358567" y="105.78093" style="fill: #1f77b4; stroke: #1f77b4"/>
     <use xlink:href="#md5175c5c64" x="724.033915" y="103.375611" style="fill: #1f77b4; stroke: #1f77b4"/>
     <use xlink:href="#md5175c5c64" x="730.709264" y="101.097167" style="fill: #1f77b4; stroke: #1f77b4"/>
     <use xlink:href="#md5175c5c64" x="737.384612" y="98.945599" style="fill: #1f77b4; stroke: #1f77b4"/>
     <use xlink:href="#md5175c5c64" x="744.059961" y="96.920908" style="fill: #1f77b4; stroke: #1f77b4"/>
     <use xlink:href="#md5175c5c64" x="750.735309" y="95.023092" style="fill: #1f77b4; stroke: #1f77b4"/>
     <use xlink:href="#md5175c5c64" x="757.410658" y="93.252152" style="fill: #1f77b4; stroke: #1f77b4"/>
     <use xlink:href="#md5175c5c64" x="764.086006" y="91.608088" style="fill: #1f77b4; stroke: #1f77b4"/>
     <use xlink:href="#md5175c5c64" x="770.761354" y="90.090901" style="fill: #1f77b4; stroke: #1f77b4"/>
     <use xlink:href="#md5175c5c64" x="777.436703" y="88.700589" style="fill: #1f77b4; stroke: #1f77b4"/>
     <use xlink:href="#md5175c5c64" x="784.112051" y="87.437153" style="fill: #1f77b4; stroke: #1f77b4"/>
     <use xlink:href="#md5175c5c64" x="790.7874" y="86.300593" style="fill: #1f77b4; stroke: #1f77b4"/>
     <use xlink:href="#md5175c5c64" x="797.462748" y="85.290909" style="fill: #1f77b4; stroke: #1f77b4"/>
     <use xlink:href="#md5175c5c64" x="804.138097" y="84.408101" style="fill: #1f77b4; stroke: #1f77b4"/>
     <use xlink:href="#md5175c5c64" x="810.813445" y="83.652168" style="fill: #1f77b4; stroke: #1f77b4"/>
     <use xlink:href="#md5175c5c64" x="817.488793" y="83.023112" style="fill: #1f77b4; stroke: #1f77b4"/>
     <use xlink:href="#md5175c5c64" x="824.164142" y="82.520932" style="fill: #1f77b4; stroke: #1f77b4"/>
     <use xlink:href="#md5175c5c64" x="830.83949" y="82.145628" style="fill: #1f77b4; stroke: #1f77b4"/>
     <use xlink:href="#md5175c5c64" x="837.514839" y="81.897199" style="fill: #1f77b4; stroke: #1f77b4"/>
     <use xlink:href="#md5175c5c64" x="844.190187" y="81.775647" style="fill: #1f77b4; stroke: #1f77b4"/>
    </g>
   </g>
   <g id="line2d_35">
    <path d="M 517.098114 238.826584 
L 517.098114 238.826584 
L 523.773462 238.826584 
L 523.773462 225.039273 
L 530.448811 225.039273 
L 530.448811 224.842923 
L 537.124159 224.842923 
L 537.124159 220.981088 
L 543.799507 220.981088 
L 543.799507 208.532001 
L 550.474856 208.532001 
L 550.474856 198.283695 
L 557.150204 198.283695 
L 557.150204 199.932438 
L 563.825553 199.932438 
L 563.825553 191.245176 
L 570.500901 191.245176 
L 570.500901 193.37015 
L 577.17625 193.37015 
L 577.17625 174.267695 
L 583.851598 174.267695 
L 583.851598 172.980805 
L 590.526947 172.980805 
L 590.526947 171.729965 
L 597.202295 171.729965 
L 597.202295 172.542049 
L 603.877643 172.542049 
L 603.877643 159.969172 
L 610.552992 159.969172 
L 610.552992 161.101775 
L 617.22834 161.101775 
L 617.22834 150.389987 
L 623.903689 150.389987 
L 623.903689 143.970205 
L 630.579037 143.970205 
L 630.579037 145.059973 
L 637.254386 145.059973 
L 637.254386 149.103637 
L 643.929734 149.103637 
L 643.929734 145.423826 
L 650.605082 145.423826 
L 650.605082 143.481347 
L 657.280431 143.481347 
L 657.280431 134.249573 
L 663.955779 134.249573 
L 663.955779 125.952076 
L 670.631128 125.952076 
L 670.631128 124.31869 
L 677.306476 124.31869 
L 677.306476 115.062346 
L 683.981825 115.062346 
L 683.981825 111.549658 
L 690.657173 111.549658 
L 690.657173 111.309704 
L 697.332522 111.309704 
L 697.332522 115.347009 
L 704.00787 115.347009 
L 704.00787 112.153579 
L 710.683218 112.153579 
L 710.683218 112.339421 
L 717.358567 112.339421 
L 717.358567 110.76945 
L 724.033915 110.76945 
L 724.033915 109.332986 
L 730.709264 109.332986 
L 730.709264 92.680823 
L 737.384612 92.680823 
L 737.384612 98.444567 
L 744.059961 98.444567 
L 744.059961 93.841636 
L 750.735309 93.841636 
L 750.735309 105.036267 
L 757.410658 105.036267 
L 757.410658 91.251242 
L 764.086006 91.251242 
L 764.086006 95.980427 
L 770.761354 95.980427 
L 770.761354 94.742131 
L 777.436703 94.742131 
L 777.436703 84.561771 
L 784.112051 84.561771 
L 784.112051 91.395547 
L 790.7874 91.395547 
L 790.7874 75.547341 
L 797.462748 75.547341 
L 797.462748 88.504043 
L 804.138097 88.504043 
L 804.138097 72.983125 
L 810.813445 72.983125 
L 810.813445 78.185139 
L 817.488793 78.185139 
L 817.488793 91.922367 
L 824.164142 91.922367 
L 824.164142 62.347709 
L 830.83949 62.347709 
L 830.83949 71.146742 
L 837.514839 71.146742 
L 837.514839 83.49045 
L 844.190187 83.49045 
" clip-path="url(#pd068cb2d6f)" style="fill: none; stroke: #ff7f0e; stroke-width: 1.5; stroke-linecap: square"/>
   </g>
   <g id="LineCollection_2">
    <path d="M 520.435788 246.484315 
L 520.435788 231.168853 
" clip-path="url(#pd068cb2d6f)" style="fill: none; stroke: #ff7f0e; stroke-width: 1.5"/>
    <path d="M 527.111136 232.839831 
L 527.111136 217.238715 
" clip-path="url(#pd068cb2d6f)" style="fill: none; stroke: #ff7f0e; stroke-width: 1.5"/>
    <path d="M 533.786485 232.693942 
L 533.786485 216.991904 
" clip-path="url(#pd068cb2d6f)" style="fill: none; stroke: #ff7f0e; stroke-width: 1.5"/>
    <path d="M 540.461833 229.01477 
L 540.461833 212.947406 
" clip-path="url(#pd068cb2d6f)" style="fill: none; stroke: #ff7f0e; stroke-width: 1.5"/>
    <path d="M 547.137182 216.602947 
L 547.137182 200.461055 
" clip-path="url(#pd068cb2d6f)" style="fill: none; stroke: #ff7f0e; stroke-width: 1.5"/>
    <path d="M 553.81253 206.394002 
L 553.81253 190.173387 
" clip-path="url(#pd068cb2d6f)" style="fill: none; stroke: #ff7f0e; stroke-width: 1.5"/>
    <path d="M 560.487879 208.335456 
L 560.487879 191.52942 
" clip-path="url(#pd068cb2d6f)" style="fill: none; stroke: #ff7f0e; stroke-width: 1.5"/>
    <path d="M 567.163227 199.748025 
L 567.163227 182.742327 
" clip-path="url(#pd068cb2d6f)" style="fill: none; stroke: #ff7f0e; stroke-width: 1.5"/>
    <path d="M 573.838575 201.874581 
L 573.838575 184.865718 
" clip-path="url(#pd068cb2d6f)" style="fill: none; stroke: #ff7f0e; stroke-width: 1.5"/>
    <path d="M 580.513924 182.877151 
L 580.513924 165.658239 
" clip-path="url(#pd068cb2d6f)" style="fill: none; stroke: #ff7f0e; stroke-width: 1.5"/>
    <path d="M 587.189272 181.771624 
L 587.189272 164.189987 
" clip-path="url(#pd068cb2d6f)" style="fill: none; stroke: #ff7f0e; stroke-width: 1.5"/>
    <path d="M 593.864621 180.488696 
L 593.864621 162.971233 
" clip-path="url(#pd068cb2d6f)" style="fill: none; stroke: #ff7f0e; stroke-width: 1.5"/>
    <path d="M 600.539969 181.627329 
L 600.539969 163.456768 
" clip-path="url(#pd068cb2d6f)" style="fill: none; stroke: #ff7f0e; stroke-width: 1.5"/>
    <path d="M 607.215318 169.012885 
L 607.215318 150.925459 
" clip-path="url(#pd068cb2d6f)" style="fill: none; stroke: #ff7f0e; stroke-width: 1.5"/>
    <path d="M 613.890666 170.455524 
L 613.890666 151.748026 
" clip-path="url(#pd068cb2d6f)" style="fill: none; stroke: #ff7f0e; stroke-width: 1.5"/>
    <path d="M 620.566014 159.866665 
L 620.566014 140.913308 
" clip-path="url(#pd068cb2d6f)" style="fill: none; stroke: #ff7f0e; stroke-width: 1.5"/>
    <path d="M 627.241363 153.459854 
L 627.241363 134.480557 
" clip-path="url(#pd068cb2d6f)" style="fill: none; stroke: #ff7f0e; stroke-width: 1.5"/>
    <path d="M 633.916711 154.682661 
L 633.916711 135.437286 
" clip-path="url(#pd068cb2d6f)" style="fill: none; stroke: #ff7f0e; stroke-width: 1.5"/>
    <path d="M 640.59206 159.150134 
L 640.59206 139.05714 
" clip-path="url(#pd068cb2d6f)" style="fill: none; stroke: #ff7f0e; stroke-width: 1.5"/>
    <path d="M 647.267408 155.728038 
L 647.267408 135.119614 
" clip-path="url(#pd068cb2d6f)" style="fill: none; stroke: #ff7f0e; stroke-width: 1.5"/>
    <path d="M 653.942757 153.807058 
L 653.942757 133.155637 
" clip-path="url(#pd068cb2d6f)" style="fill: none; stroke: #ff7f0e; stroke-width: 1.5"/>
    <path d="M 660.618105 145.20339 
L 660.618105 123.295756 
" clip-path="url(#pd068cb2d6f)" style="fill: none; stroke: #ff7f0e; stroke-width: 1.5"/>
    <path d="M 667.293454 136.880445 
L 667.293454 115.023707 
" clip-path="url(#pd068cb2d6f)" style="fill: none; stroke: #ff7f0e; stroke-width: 1.5"/>
    <path d="M 673.968802 135.114266 
L 673.968802 113.523114 
" clip-path="url(#pd068cb2d6f)" style="fill: none; stroke: #ff7f0e; stroke-width: 1.5"/>
    <path d="M 680.64415 126.226274 
L 680.64415 103.898418 
" clip-path="url(#pd068cb2d6f)" style="fill: none; stroke: #ff7f0e; stroke-width: 1.5"/>
    <path d="M 687.319499 122.661001 
L 687.319499 100.438315 
" clip-path="url(#pd068cb2d6f)" style="fill: none; stroke: #ff7f0e; stroke-width: 1.5"/>
    <path d="M 693.994847 122.709237 
L 693.994847 99.910172 
" clip-path="url(#pd068cb2d6f)" style="fill: none; stroke: #ff7f0e; stroke-width: 1.5"/>
    <path d="M 700.670196 127.310433 
L 700.670196 103.383585 
" clip-path="url(#pd068cb2d6f)" style="fill: none; stroke: #ff7f0e; stroke-width: 1.5"/>
    <path d="M 707.345544 124.2036 
L 707.345544 100.103558 
" clip-path="url(#pd068cb2d6f)" style="fill: none; stroke: #ff7f0e; stroke-width: 1.5"/>
    <path d="M 714.020893 124.698612 
L 714.020893 99.980229 
" clip-path="url(#pd068cb2d6f)" style="fill: none; stroke: #ff7f0e; stroke-width: 1.5"/>
    <path d="M 720.696241 122.967402 
L 720.696241 98.571498 
" clip-path="url(#pd068cb2d6f)" style="fill: none; stroke: #ff7f0e; stroke-width: 1.5"/>
    <path d="M 727.37159 121.925659 
L 727.37159 96.740313 
" clip-path="url(#pd068cb2d6f)" style="fill: none; stroke: #ff7f0e; stroke-width: 1.5"/>
    <path d="M 734.046938 105.5705 
L 734.046938 79.791146 
" clip-path="url(#pd068cb2d6f)" style="fill: none; stroke: #ff7f0e; stroke-width: 1.5"/>
    <path d="M 740.722286 111.664856 
L 740.722286 85.224278 
" clip-path="url(#pd068cb2d6f)" style="fill: none; stroke: #ff7f0e; stroke-width: 1.5"/>
    <path d="M 747.397635 107.288017 
L 747.397635 80.395256 
" clip-path="url(#pd068cb2d6f)" style="fill: none; stroke: #ff7f0e; stroke-width: 1.5"/>
    <path d="M 754.072983 118.969654 
L 754.072983 91.102881 
" clip-path="url(#pd068cb2d6f)" style="fill: none; stroke: #ff7f0e; stroke-width: 1.5"/>
    <path d="M 760.748332 105.403827 
L 760.748332 77.098656 
" clip-path="url(#pd068cb2d6f)" style="fill: none; stroke: #ff7f0e; stroke-width: 1.5"/>
    <path d="M 767.42368 110.058232 
L 767.42368 81.902623 
" clip-path="url(#pd068cb2d6f)" style="fill: none; stroke: #ff7f0e; stroke-width: 1.5"/>
    <path d="M 774.099029 109.095332 
L 774.099029 80.38893 
" clip-path="url(#pd068cb2d6f)" style="fill: none; stroke: #ff7f0e; stroke-width: 1.5"/>
    <path d="M 780.774377 99.504739 
L 780.774377 69.618802 
" clip-path="url(#pd068cb2d6f)" style="fill: none; stroke: #ff7f0e; stroke-width: 1.5"/>
    <path d="M 787.449725 107.496026 
L 787.449725 75.295067 
" clip-path="url(#pd068cb2d6f)" style="fill: none; stroke: #ff7f0e; stroke-width: 1.5"/>
    <path d="M 794.125074 91.146213 
L 794.125074 59.948468 
" clip-path="url(#pd068cb2d6f)" style="fill: none; stroke: #ff7f0e; stroke-width: 1.5"/>
    <path d="M 800.800422 105.815277 
L 800.800422 71.192809 
" clip-path="url(#pd068cb2d6f)" style="fill: none; stroke: #ff7f0e; stroke-width: 1.5"/>
    <path d="M 807.475771 91.952454 
L 807.475771 54.013795 
" clip-path="url(#pd068cb2d6f)" style="fill: none; stroke: #ff7f0e; stroke-width: 1.5"/>
    <path d="M 814.151119 101.065888 
L 814.151119 55.304391 
" clip-path="url(#pd068cb2d6f)" style="fill: none; stroke: #ff7f0e; stroke-width: 1.5"/>
    <path d="M 820.826468 119.003899 
L 820.826468 64.840834 
" clip-path="url(#pd068cb2d6f)" style="fill: none; stroke: #ff7f0e; stroke-width: 1.5"/>
    <path d="M 827.501816 91.702713 
L 827.501816 32.992705 
" clip-path="url(#pd068cb2d6f)" style="fill: none; stroke: #ff7f0e; stroke-width: 1.5"/>
    <path d="M 834.177165 103.475772 
L 834.177165 38.817712 
" clip-path="url(#pd068cb2d6f)" style="fill: none; stroke: #ff7f0e; stroke-width: 1.5"/>
    <path d="M 840.852513 126.473175 
L 840.852513 40.507726 
" clip-path="url(#pd068cb2d6f)" style="fill: none; stroke: #ff7f0e; stroke-width: 1.5"/>
   </g>
   <g id="patch_9">
    <path d="M 500.74351 257.158895 
L 500.74351 22.318125 
" style="fill: none; stroke: #000000; stroke-width: 0.8; stroke-linejoin: miter; stroke-linecap: square"/>
   </g>
   <g id="patch_10">
    <path d="M 860.544791 257.158895 
L 860.544791 22.318125 
" style="fill: none; stroke: #000000; stroke-width: 0.8; stroke-linejoin: miter; stroke-linecap: square"/>
   </g>
   <g id="patch_11">
    <path d="M 500.74351 257.158895 
L 860.544791 257.158895 
" style="fill: none; stroke: #000000; stroke-width: 0.8; stroke-linejoin: miter; stroke-linecap: square"/>
   </g>
   <g id="patch_12">
    <path d="M 500.74351 22.318125 
L 860.544791 22.318125 
" style="fill: none; stroke: #000000; stroke-width: 0.8; stroke-linejoin: miter; stroke-linecap: square"/>
   </g>
   <g id="text_37">
    <!-- analyzer -->
    <g transform="translate(654.962275 16.318125) scale(0.12 -0.12)">
     <use xlink:href="#DejaVuSans-61"/>
     <use xlink:href="#DejaVuSans-6e" transform="translate(61.279297 0)"/>
     <use xlink:href="#DejaVuSans-61" transform="translate(124.658203 0)"/>
     <use xlink:href="#DejaVuSans-6c" transform="translate(185.9375 0)"/>
     <use xlink:href="#DejaVuSans-79" transform="translate(213.720703 0)"/>
     <use xlink:href="#DejaVuSans-7a" transform="translate(272.900391 0)"/>
     <use xlink:href="#DejaVuSans-65" transform="translate(325.390625 0)"/>
     <use xlink:href="#DejaVuSans-72" transform="translate(386.914062 0)"/>
    </g>
   </g>
   <g id="legend_2">
    <g id="patch_13">
     <path d="M 773.388541 59.674375 
L 853.544791 59.674375 
Q 855.544791 59.674375 855.544791 57.674375 
L 855.544791 29.318125 
Q 855.544791 27.318125 853.544791 27.318125 
L 773.388541 27.318125 
Q 771.388541 27.318125 771.388541 29.318125 
L 771.388541 57.674375 
Q 771.388541 59.674375 773.388541 59.674375 
z
" style="fill: #ffffff; opacity: 0.8; stroke: #cccccc; stroke-linejoin: miter"/>
    </g>
    <g id="line2d_36">
     <g>
      <use xlink:href="#md5175c5c64" x="785.388541" y="35.416562" style="fill: #1f77b4; stroke: #1f77b4"/>
     </g>
    </g>
    <g id="text_38">
     <!-- fit -->
     <g transform="translate(803.388541 38.916562) scale(0.1 -0.1)">
      <use xlink:href="#DejaVuSans-66"/>
      <use xlink:href="#DejaVuSans-69" transform="translate(35.205078 0)"/>
      <use xlink:href="#DejaVuSans-74" transform="translate(62.988281 0)"/>
     </g>
    </g>
    <g id="line2d_37">
     <path d="M 775.388541 50.094687 
L 775.388541 50.094687 
L 785.388541 50.094687 
L 785.388541 50.094687 
L 795.388541 50.094687 
" style="fill: none; stroke: #ff7f0e; stroke-width: 1.5; stroke-linecap: square"/>
    </g>
    <g id="text_39">
     <!-- efficiency -->
     <g transform="translate(803.388541 53.594687) scale(0.1 -0.1)">
      <use xlink:href="#DejaVuSans-65"/>
      <use xlink:href="#DejaVuSans-66" transform="translate(61.523438 0)"/>
      <use xlink:href="#DejaVuSans-66" transform="translate(96.728516 0)"/>
      <use xlink:href="#DejaVuSans-69" transform="translate(131.933594 0)"/>
      <use xlink:href="#DejaVuSans-63" transform="translate(159.716797 0)"/>
      <use xlink:href="#DejaVuSans-69" transform="translate(214.697266 0)"/>
      <use xlink:href="#DejaVuSans-65" transform="translate(242.480469 0)"/>
      <use xlink:href="#DejaVuSans-6e" transform="translate(304.003906 0)"/>
      <use xlink:href="#DejaVuSans-63" transform="translate(367.382812 0)"/>
      <use xlink:href="#DejaVuSans-79" transform="translate(422.363281 0)"/>
     </g>
    </g>
   </g>
  </g>
 </g>
 <defs>
  <clipPath id="p5574744133">
   <rect x="50.14375" y="22.318125" width="359.801281" height="234.84077"/>
  </clipPath>
  <clipPath id="pd068cb2d6f">
   <rect x="500.74351" y="22.318125" width="359.801281" height="234.84077"/>
  </clipPath>
 </defs>
</svg>
