<?xml version="1.0" encoding="UTF-8" standalone="no"?>
<!DOCTYPE svg PUBLIC "-//W3C//DTD SVG 1.1//EN"
 "http://www.w3.org/Graphics/SVG/1.1/DTD/svg11.dtd">
<!-- Generated by graphviz version 2.43.0 (0)
 -->
<!-- Title: %3 Pages: 1 -->
<svg width="1788pt" height="352pt"
 viewBox="0.00 0.00 1788.00 352.00" xmlns="http://www.w3.org/2000/svg" xmlns:xlink="http://www.w3.org/1999/xlink">
<g id="graph0" class="graph" transform="scale(1 1) rotate(0) translate(4 348)">
<title>%3</title>
<polygon fill="white" stroke="transparent" points="-4,4 -4,-348 1784,-348 1784,4 -4,4"/>
<g id="clust5" class="cluster">
<title>cluster_DetectorData</title>
<polygon fill="#f0f0ff" stroke="#f0f0ff" points="275,-152.5 275,-248.5 424,-248.5 424,-152.5 275,-152.5"/>
<text text-anchor="start" x="301" y="-234.3" font-family="Times,serif" font-size="14.00">DetectorData</text>
<text text-anchor="start" x="283" y="-222.7" font-family="Times,serif" font-size="11.00">via:</text>
<text text-anchor="start" x="304" y="-222.7" font-family="Times,serif" font-style="italic" font-size="11.00">load_mcstas_events</text>
</g>
<g id="clust7" class="cluster">
<title>cluster_Filename</title>
<polygon fill="#f0f0ff" stroke="#f0f0ff" points="23,-157.5 23,-243.5 149,-243.5 149,-157.5 23,-157.5"/>
<text text-anchor="middle" x="86" y="-228.3" font-family="Times,serif" font-size="14.00">Filename</text>
</g>
<g id="clust9" class="cluster">
<title>cluster_ProtonCurrent</title>
<polygon fill="#f0f0ff" stroke="#f0f0ff" points="286,-58.5 286,-144.5 412,-144.5 412,-58.5 286,-58.5"/>
<text text-anchor="middle" x="349" y="-129.3" font-family="Times,serif" font-size="14.00">ProtonCurrent</text>
</g>
<g id="clust12" class="cluster">
<title>cluster_ReducibleData</title>
<polygon fill="#f0f0ff" stroke="#f0f0ff" points="525,-152.5 525,-248.5 797,-248.5 797,-152.5 525,-152.5"/>
<text text-anchor="start" x="608.5" y="-234.3" font-family="Times,serif" font-size="14.00">ReducibleData</text>
<text text-anchor="start" x="533" y="-222.7" font-family="Times,serif" font-size="11.00">via:</text>
<text text-anchor="start" x="554" y="-222.7" font-family="Times,serif" font-style="italic" font-size="11.00">add_coords_masks_and_apply_corrections</text>
</g>
<g id="clust16" class="cluster">
<title>cluster_SampleRotationOffset</title>
<polygon fill="#f0f0ff" stroke="#f0f0ff" points="0,-63.5 0,-149.5 173,-149.5 173,-63.5 0,-63.5"/>
<text text-anchor="middle" x="86.5" y="-134.3" font-family="Times,serif" font-size="14.00">SampleRotationOffset</text>
</g>
<!-- Alpha -->
<g id="node1" class="node">
<title>Alpha</title>
<polygon fill="none" stroke="black" points="689.5,-80 632.5,-80 632.5,-57 689.5,-57 689.5,-80"/>
<text text-anchor="middle" x="661" y="-64.8" font-family="Times,serif" font-size="14.00">Alpha</text>
</g>
<!-- ReducedReference -->
<g id="node17" class="node">
<title>ReducedReference</title>
<polygon fill="none" stroke="black" points="1084.5,-151 934.5,-151 934.5,-118 1084.5,-118 1084.5,-151"/>
<text text-anchor="start" x="942.5" y="-136.8" font-family="Times,serif" font-size="14.00">ReducedReference</text>
<text text-anchor="start" x="950" y="-125.2" font-family="Times,serif" font-size="11.00">via:</text>
<text text-anchor="start" x="971" y="-125.2" font-family="Times,serif" font-style="italic" font-size="11.00">reduce_reference</text>
</g>
<!-- Alpha&#45;&gt;ReducedReference -->
<g id="edge9" class="edge">
<title>Alpha:e&#45;&gt;ReducedReference:w</title>
<path fill="none" stroke="black" d="M691,-68.5C738.64,-68.5 750.84,-72.69 797,-84.5 856.17,-99.64 867.71,-130.84 923.38,-134.2"/>
<polygon fill="black" stroke="black" points="923.4,-137.71 933.5,-134.5 923.61,-130.71 923.4,-137.71"/>
</g>
<!-- Sample -->
<g id="node23" class="node">
<title>Sample</title>
<polygon fill="none" stroke="black" points="1544,-139 1230,-139 1230,-106 1544,-106 1544,-139"/>
<text text-anchor="start" x="1360" y="-124.8" font-family="Times,serif" font-size="14.00">Sample</text>
<text text-anchor="start" x="1238" y="-113.2" font-family="Times,serif" font-size="11.00">via:</text>
<text text-anchor="start" x="1259" y="-113.2" font-family="Times,serif" font-style="italic" font-size="11.00">mask_events_where_supermirror_does_not_cover</text>
</g>
<!-- Alpha&#45;&gt;Sample -->
<g id="edge30" class="edge">
<title>Alpha:e&#45;&gt;Sample:w</title>
<path fill="none" stroke="black" d="M691,-68.5C898.88,-68.5 954.83,-50.5 1158,-94.5 1187.89,-100.97 1194.41,-118.13 1219.74,-121.8"/>
<polygon fill="black" stroke="black" points="1219.79,-125.31 1230,-122.5 1220.26,-118.33 1219.79,-125.31"/>
</g>
<!-- BeamDivergenceLimits -->
<g id="node2" class="node">
<title>BeamDivergenceLimits</title>
<polygon fill="none" stroke="black" points="440.5,-280 257.5,-280 257.5,-257 440.5,-257 440.5,-280"/>
<text text-anchor="middle" x="349" y="-264.8" font-family="Times,serif" font-size="14.00">BeamDivergenceLimits</text>
</g>
<!-- ReducibleData[ReferenceRun] -->
<g id="node16" class="node">
<title>ReducibleData[ReferenceRun]</title>
<polygon fill="none" stroke="black" points="716,-182 606,-182 606,-161 716,-161 716,-182"/>
<text text-anchor="start" x="614" y="-168.4" font-family="Times,serif" font-size="12.00">[ReferenceRun]</text>
</g>
<!-- BeamDivergenceLimits&#45;&gt;ReducibleData[ReferenceRun] -->
<g id="edge13" class="edge">
<title>BeamDivergenceLimits:e&#45;&gt;ReducibleData[ReferenceRun]:w</title>
<path fill="none" stroke="black" stroke-width="2" d="M442,-268.5C490.21,-268.5 480.81,-218.42 516.17,-192.04"/>
<polygon fill="black" stroke="black" stroke-width="2" points="518.39,-194.78 525,-186.5 514.67,-188.85 518.39,-194.78"/>
</g>
<!-- CoordTransformationGraph -->
<g id="node3" class="node">
<title>CoordTransformationGraph</title>
<polygon fill="none" stroke="black" points="461,-344 237,-344 237,-311 461,-311 461,-344"/>
<text text-anchor="start" x="250" y="-329.8" font-family="Times,serif" font-size="14.00">CoordTransformationGraph</text>
<text text-anchor="start" x="245" y="-318.2" font-family="Times,serif" font-size="11.00">via:</text>
<text text-anchor="start" x="266" y="-318.2" font-family="Times,serif" font-style="italic" font-size="11.00">coordinate_transformation_graph</text>
</g>
<!-- CoordTransformationGraph&#45;&gt;ReducibleData[ReferenceRun] -->
<g id="edge16" class="edge">
<title>CoordTransformationGraph:e&#45;&gt;ReducibleData[ReferenceRun]:w</title>
<path fill="none" stroke="black" stroke-width="2" d="M461,-327.5C526.33,-327.5 476.51,-238.72 517.59,-193.38"/>
<polygon fill="black" stroke="black" stroke-width="2" points="520.06,-195.87 525,-186.5 515.29,-190.74 520.06,-195.87"/>
</g>
<!-- Reference -->
<g id="node22" class="node">
<title>Reference</title>
<polygon fill="none" stroke="black" points="1459.5,-194 1314.5,-194 1314.5,-161 1459.5,-161 1459.5,-194"/>
<text text-anchor="start" x="1350.5" y="-179.8" font-family="Times,serif" font-size="14.00">Reference</text>
<text text-anchor="start" x="1322.5" y="-168.2" font-family="Times,serif" font-size="11.00">via:</text>
<text text-anchor="start" x="1343.5" y="-168.2" font-family="Times,serif" font-style="italic" font-size="11.00">evaluate_reference</text>
</g>
<!-- CoordTransformationGraph&#45;&gt;Reference -->
<g id="edge21" class="edge">
<title>CoordTransformationGraph:e&#45;&gt;Reference:w</title>
<path fill="none" stroke="black" d="M461,-327.5C554.21,-327.5 1177.45,-186.44 1302.75,-177.9"/>
<polygon fill="black" stroke="black" points="1303.15,-181.39 1313,-177.5 1302.87,-174.4 1303.15,-181.39"/>
</g>
<!-- CriticalEdge -->
<g id="node4" class="node">
<title>CriticalEdge</title>
<polygon fill="none" stroke="black" points="714,-134 608,-134 608,-111 714,-111 714,-134"/>
<text text-anchor="middle" x="661" y="-118.8" font-family="Times,serif" font-size="14.00">CriticalEdge</text>
</g>
<!-- CriticalEdge&#45;&gt;ReducedReference -->
<g id="edge7" class="edge">
<title>CriticalEdge:e&#45;&gt;ReducedReference:w</title>
<path fill="none" stroke="black" d="M715,-122.5C808.74,-122.5 834.41,-133.65 923.24,-134.45"/>
<polygon fill="black" stroke="black" points="923.48,-137.96 933.5,-134.5 923.52,-130.96 923.48,-137.96"/>
</g>
<!-- CriticalEdge&#45;&gt;Sample -->
<g id="edge28" class="edge">
<title>CriticalEdge:e&#45;&gt;Sample:w</title>
<path fill="none" stroke="black" d="M715,-122.5C779.93,-122.5 796.08,-118.61 861,-117.5 992.98,-115.24 1026.08,-112.92 1158,-117.5 1186.43,-118.49 1195.83,-121.65 1219.96,-122.36"/>
<polygon fill="black" stroke="black" points="1219.95,-125.86 1230,-122.5 1220.05,-118.86 1219.95,-125.86"/>
</g>
<!-- Filename[ReferenceRun] -->
<g id="node5" class="node">
<title>Filename[ReferenceRun]</title>
<polygon fill="none" stroke="black" points="141,-187 31,-187 31,-166 141,-166 141,-187"/>
<text text-anchor="start" x="39" y="-173.4" font-family="Times,serif" font-size="12.00">[ReferenceRun]</text>
</g>
<!-- DetectorData[ReferenceRun] -->
<g id="node6" class="node">
<title>DetectorData[ReferenceRun]</title>
<polygon fill="none" stroke="black" points="404,-182 294,-182 294,-161 404,-161 404,-182"/>
<text text-anchor="start" x="302" y="-168.4" font-family="Times,serif" font-size="12.00">[ReferenceRun]</text>
</g>
<!-- Filename[ReferenceRun]&#45;&gt;DetectorData[ReferenceRun] -->
<g id="edge1" class="edge">
<title>Filename[ReferenceRun]:e&#45;&gt;DetectorData[ReferenceRun]:w</title>
<path fill="none" stroke="black" d="M142,-176.5C205.61,-176.5 223.95,-172.01 282.78,-171.54"/>
<polygon fill="black" stroke="black" points="283.01,-175.04 293,-171.5 282.99,-168.04 283.01,-175.04"/>
</g>
<!-- DetectorData[ReferenceRun]&#45;&gt;ReducibleData[ReferenceRun] -->
<g id="edge10" class="edge">
<title>DetectorData[ReferenceRun]:e&#45;&gt;ReducibleData[ReferenceRun]:w</title>
<path fill="none" stroke="black" d="M405,-171.5C490.42,-171.5 514.27,-171.5 594.88,-171.5"/>
<polygon fill="black" stroke="black" points="595,-175 605,-171.5 595,-168 595,-175"/>
</g>
<!-- SampleRotationOffset[ReferenceRun] -->
<g id="node7" class="node">
<title>SampleRotationOffset[ReferenceRun]</title>
<polygon fill="none" stroke="black" points="141,-93 31,-93 31,-72 141,-72 141,-93"/>
<text text-anchor="start" x="39" y="-79.4" font-family="Times,serif" font-size="12.00">[ReferenceRun]</text>
</g>
<!-- SampleRotationOffset[ReferenceRun]&#45;&gt;DetectorData[ReferenceRun] -->
<g id="edge2" class="edge">
<title>SampleRotationOffset[ReferenceRun]:e&#45;&gt;DetectorData[ReferenceRun]:w</title>
<path fill="none" stroke="black" d="M142,-82.5C216.4,-82.5 215.36,-163.68 282.99,-170.98"/>
<polygon fill="black" stroke="black" points="282.83,-174.47 293,-171.5 283.2,-167.48 282.83,-174.47"/>
</g>
<!-- Filename[SampleRun] -->
<g id="node8" class="node">
<title>Filename[SampleRun]</title>
<polygon fill="none" stroke="black" points="133.5,-212 38.5,-212 38.5,-191 133.5,-191 133.5,-212"/>
<text text-anchor="start" x="46.5" y="-198.4" font-family="Times,serif" font-size="12.00">[SampleRun]</text>
</g>
<!-- DetectorData[SampleRun] -->
<g id="node9" class="node">
<title>DetectorData[SampleRun]</title>
<polygon fill="none" stroke="black" points="396.5,-207 301.5,-207 301.5,-186 396.5,-186 396.5,-207"/>
<text text-anchor="start" x="309.5" y="-193.4" font-family="Times,serif" font-size="12.00">[SampleRun]</text>
</g>
<!-- Filename[SampleRun]&#45;&gt;DetectorData[SampleRun] -->
<g id="edge3" class="edge">
<title>Filename[SampleRun]:e&#45;&gt;DetectorData[SampleRun]:w</title>
<path fill="none" stroke="black" d="M135,-201.5C204.78,-201.5 224.72,-196.98 289.63,-196.53"/>
<polygon fill="black" stroke="black" points="290.01,-200.03 300,-196.5 289.99,-193.03 290.01,-200.03"/>
</g>
<!-- ReducibleData[SampleRun] -->
<g id="node21" class="node">
<title>ReducibleData[SampleRun]</title>
<polygon fill="none" stroke="black" points="708.5,-207 613.5,-207 613.5,-186 708.5,-186 708.5,-207"/>
<text text-anchor="start" x="621.5" y="-193.4" font-family="Times,serif" font-size="12.00">[SampleRun]</text>
</g>
<!-- DetectorData[SampleRun]&#45;&gt;ReducibleData[SampleRun] -->
<g id="edge17" class="edge">
<title>DetectorData[SampleRun]:e&#45;&gt;ReducibleData[SampleRun]:w</title>
<path fill="none" stroke="black" d="M398,-196.5C489.67,-196.5 515.08,-196.5 601.96,-196.5"/>
<polygon fill="black" stroke="black" points="602,-200 612,-196.5 602,-193 602,-200"/>
</g>
<!-- SampleRotationOffset[SampleRun] -->
<g id="node10" class="node">
<title>SampleRotationOffset[SampleRun]</title>
<polygon fill="none" stroke="black" points="133.5,-118 38.5,-118 38.5,-97 133.5,-97 133.5,-118"/>
<text text-anchor="start" x="46.5" y="-104.4" font-family="Times,serif" font-size="12.00">[SampleRun]</text>
</g>
<!-- SampleRotationOffset[SampleRun]&#45;&gt;DetectorData[SampleRun] -->
<g id="edge4" class="edge">
<title>SampleRotationOffset[SampleRun]:e&#45;&gt;DetectorData[SampleRun]:w</title>
<path fill="none" stroke="black" d="M135,-107.5C191.27,-107.5 185.77,-159.23 237,-182.5 259.75,-192.83 268.9,-195.79 289.85,-196.38"/>
<polygon fill="black" stroke="black" points="289.96,-199.88 300,-196.5 290.04,-192.88 289.96,-199.88"/>
</g>
<!-- DetectorSpatialResolution[SampleRun] -->
<g id="node11" class="node">
<title>DetectorSpatialResolution[SampleRun]</title>
<polygon fill="none" stroke="black" points="1158,-189 861,-189 861,-166 1158,-166 1158,-189"/>
<text text-anchor="middle" x="1009.5" y="-173.8" font-family="Times,serif" font-size="14.00">DetectorSpatialResolution[SampleRun]</text>
</g>
<!-- DetectorSpatialResolution[SampleRun]&#45;&gt;Reference -->
<g id="edge22" class="edge">
<title>DetectorSpatialResolution[SampleRun]:e&#45;&gt;Reference:w</title>
<path fill="none" stroke="black" d="M1158,-177.5C1223.39,-177.5 1242.23,-177.5 1302.89,-177.5"/>
<polygon fill="black" stroke="black" points="1303,-181 1313,-177.5 1303,-174 1303,-181"/>
</g>
<!-- MValue -->
<g id="node12" class="node">
<title>MValue</title>
<polygon fill="none" stroke="black" points="696,-107 626,-107 626,-84 696,-84 696,-107"/>
<text text-anchor="middle" x="661" y="-91.8" font-family="Times,serif" font-size="14.00">MValue</text>
</g>
<!-- MValue&#45;&gt;ReducedReference -->
<g id="edge8" class="edge">
<title>MValue:e&#45;&gt;ReducedReference:w</title>
<path fill="none" stroke="black" d="M697,-95.5C800.1,-95.5 825.37,-132.03 923.45,-134.38"/>
<polygon fill="black" stroke="black" points="923.46,-137.88 933.5,-134.5 923.54,-130.88 923.46,-137.88"/>
</g>
<!-- MValue&#45;&gt;Sample -->
<g id="edge29" class="edge">
<title>MValue:e&#45;&gt;Sample:w</title>
<path fill="none" stroke="black" d="M697,-95.5C902.05,-95.5 953.64,-96.77 1158,-113.5 1186.5,-115.83 1195.71,-121.11 1219.92,-122.27"/>
<polygon fill="black" stroke="black" points="1219.92,-125.77 1230,-122.5 1220.08,-118.77 1219.92,-125.77"/>
</g>
<!-- ProtonCurrent[ReferenceRun] -->
<g id="node13" class="node">
<title>ProtonCurrent[ReferenceRun]</title>
<polygon fill="none" stroke="black" points="404,-88 294,-88 294,-67 404,-67 404,-88"/>
<text text-anchor="start" x="302" y="-74.4" font-family="Times,serif" font-size="12.00">[ReferenceRun]</text>
</g>
<!-- ProtonCurrent[ReferenceRun]&#45;&gt;ReducibleData[ReferenceRun] -->
<g id="edge15" class="edge">
<title>ProtonCurrent[ReferenceRun]:e&#45;&gt;ReducibleData[ReferenceRun]:w</title>
<path fill="none" stroke="black" d="M405,-77.5C430.77,-77.5 438.11,-80.68 461,-92.5 493.81,-109.45 492.64,-127.7 525,-145.5 554.56,-161.76 565.47,-169.85 594.79,-171.27"/>
<polygon fill="black" stroke="black" points="594.92,-174.77 605,-171.5 595.08,-167.78 594.92,-174.77"/>
</g>
<!-- ProtonCurrent[SampleRun] -->
<g id="node14" class="node">
<title>ProtonCurrent[SampleRun]</title>
<polygon fill="none" stroke="black" points="396.5,-113 301.5,-113 301.5,-92 396.5,-92 396.5,-113"/>
<text text-anchor="start" x="309.5" y="-99.4" font-family="Times,serif" font-size="12.00">[SampleRun]</text>
</g>
<!-- ProtonCurrent[SampleRun]&#45;&gt;ReducibleData[SampleRun] -->
<g id="edge18" class="edge">
<title>ProtonCurrent[SampleRun]:e&#45;&gt;ReducibleData[SampleRun]:w</title>
<path fill="none" stroke="black" d="M398,-102.5C464.71,-102.5 462.59,-158.95 525,-182.5 558.21,-195.03 570.51,-196.35 601.68,-196.48"/>
<polygon fill="black" stroke="black" points="601.99,-199.98 612,-196.5 602.01,-192.98 601.99,-199.98"/>
</g>
<!-- QBins -->
<g id="node15" class="node">
<title>QBins</title>
<polygon fill="none" stroke="black" points="1416.5,-221 1357.5,-221 1357.5,-198 1416.5,-198 1416.5,-221"/>
<text text-anchor="middle" x="1387" y="-205.8" font-family="Times,serif" font-size="14.00">QBins</text>
</g>
<!-- ReflectivityOverQ -->
<g id="node24" class="node">
<title>ReflectivityOverQ</title>
<polygon fill="none" stroke="black" points="1780,-194 1616,-194 1616,-161 1780,-161 1780,-194"/>
<text text-anchor="start" x="1634.5" y="-179.8" font-family="Times,serif" font-size="14.00">ReflectivityOverQ</text>
<text text-anchor="start" x="1624" y="-168.2" font-family="Times,serif" font-size="11.00">via:</text>
<text text-anchor="start" x="1645" y="-168.2" font-family="Times,serif" font-style="italic" font-size="11.00">reduce_sample_over_q</text>
</g>
<!-- QBins&#45;&gt;ReflectivityOverQ -->
<g id="edge25" class="edge">
<title>QBins:e&#45;&gt;ReflectivityOverQ:w</title>
<path fill="none" stroke="black" d="M1418,-209.5C1474.4,-209.5 1488.47,-204.33 1544,-194.5 1572.71,-189.42 1581.26,-179.98 1605.76,-177.91"/>
<polygon fill="black" stroke="black" points="1606.15,-181.4 1616,-177.5 1605.87,-174.4 1606.15,-181.4"/>
</g>
<!-- ReducibleData[ReferenceRun]&#45;&gt;ReducedReference -->
<g id="edge5" class="edge">
<title>ReducibleData[ReferenceRun]:e&#45;&gt;ReducedReference:w</title>
<path fill="none" stroke="black" d="M717,-171.5C811.19,-171.5 834.29,-137.06 923.48,-134.63"/>
<polygon fill="black" stroke="black" points="923.55,-138.13 933.5,-134.5 923.45,-131.13 923.55,-138.13"/>
</g>
<!-- ReducedReference&#45;&gt;Reference -->
<g id="edge19" class="edge">
<title>ReducedReference:e&#45;&gt;Reference:w</title>
<path fill="none" stroke="black" d="M1085.5,-134.5C1184.88,-134.5 1208.52,-174.61 1302.73,-177.35"/>
<polygon fill="black" stroke="black" points="1302.95,-180.86 1313,-177.5 1303.05,-173.86 1302.95,-180.86"/>
</g>
<!-- ReducedReference&#45;&gt;Sample -->
<g id="edge27" class="edge">
<title>ReducedReference:e&#45;&gt;Sample:w</title>
<path fill="none" stroke="black" d="M1085.5,-134.5C1146.42,-134.5 1163.7,-123.78 1219.85,-122.6"/>
<polygon fill="black" stroke="black" points="1220.04,-126.1 1230,-122.5 1219.96,-119.1 1220.04,-126.1"/>
</g>
<!-- WavelengthBins -->
<g id="node18" class="node">
<title>WavelengthBins</title>
<polygon fill="none" stroke="black" points="415,-23 283,-23 283,0 415,0 415,-23"/>
<text text-anchor="middle" x="349" y="-7.8" font-family="Times,serif" font-size="14.00">WavelengthBins</text>
</g>
<!-- WavelengthBins&#45;&gt;ReducibleData[ReferenceRun] -->
<g id="edge14" class="edge">
<title>WavelengthBins:e&#45;&gt;ReducibleData[ReferenceRun]:w</title>
<path fill="none" stroke="black" stroke-width="2" d="M416,-11.5C437.08,-11.5 444.87,-12.93 461,-26.5 506.95,-65.17 478.91,-107.01 525,-145.5 525.29,-145.74 525.58,-145.98 525.86,-146.22"/>
<polygon fill="black" stroke="black" stroke-width="2" points="523.79,-149.04 533.8,-152.5 528.13,-143.55 523.79,-149.04"/>
</g>
<!-- WavelengthBins&#45;&gt;ReducedReference -->
<g id="edge6" class="edge">
<title>WavelengthBins:e&#45;&gt;ReducedReference:w</title>
<path fill="none" stroke="black" d="M416,-11.5C437.08,-11.5 444.59,-13.26 461,-26.5 504.43,-61.53 476.52,-106.88 525,-134.5 562.2,-155.7 852.36,-136.9 923.21,-134.7"/>
<polygon fill="black" stroke="black" points="923.57,-138.2 933.5,-134.5 923.43,-131.2 923.57,-138.2"/>
</g>
<!-- YIndexLimits -->
<g id="node19" class="node">
<title>YIndexLimits</title>
<polygon fill="none" stroke="black" points="404,-50 294,-50 294,-27 404,-27 404,-50"/>
<text text-anchor="middle" x="349" y="-34.8" font-family="Times,serif" font-size="14.00">YIndexLimits</text>
</g>
<!-- YIndexLimits&#45;&gt;ReducibleData[ReferenceRun] -->
<g id="edge11" class="edge">
<title>YIndexLimits:e&#45;&gt;ReducibleData[ReferenceRun]:w</title>
<path fill="none" stroke="black" stroke-width="2" d="M405,-38.5C431.28,-38.5 439.83,-41.92 461,-57.5 499.95,-86.17 485.87,-117.08 525,-145.5 525.55,-145.9 526.1,-146.3 526.64,-146.69"/>
<polygon fill="black" stroke="black" stroke-width="2" points="524.76,-149.64 534.96,-152.5 528.77,-143.9 524.76,-149.64"/>
</g>
<!-- ZIndexLimits -->
<g id="node20" class="node">
<title>ZIndexLimits</title>
<polygon fill="none" stroke="black" points="404.5,-307 293.5,-307 293.5,-284 404.5,-284 404.5,-307"/>
<text text-anchor="middle" x="349" y="-291.8" font-family="Times,serif" font-size="14.00">ZIndexLimits</text>
</g>
<!-- ZIndexLimits&#45;&gt;ReducibleData[ReferenceRun] -->
<g id="edge12" class="edge">
<title>ZIndexLimits:e&#45;&gt;ReducibleData[ReferenceRun]:w</title>
<path fill="none" stroke="black" stroke-width="2" d="M405,-295.5C430.77,-295.5 439.99,-295.42 461,-280.5 499.31,-253.3 485.14,-219.34 516.95,-192.47"/>
<polygon fill="black" stroke="black" stroke-width="2" points="519.05,-195.27 525,-186.5 514.88,-189.65 519.05,-195.27"/>
</g>
<!-- ReducibleData[SampleRun]&#45;&gt;Reference -->
<g id="edge20" class="edge">
<title>ReducibleData[SampleRun]:e&#45;&gt;Reference:w</title>
<path fill="none" stroke="black" d="M710,-196.5C909.14,-196.5 959.08,-198.75 1158,-189.5 1223.52,-186.45 1242.06,-178.38 1302.86,-177.57"/>
<polygon fill="black" stroke="black" points="1303.02,-181.07 1313,-177.5 1302.98,-174.07 1303.02,-181.07"/>
</g>
<!-- ReducibleData[SampleRun]&#45;&gt;Sample -->
<g id="edge26" class="edge">
<title>ReducibleData[SampleRun]:e&#45;&gt;Sample:w</title>
<path fill="none" stroke="black" d="M710,-196.5C749.16,-196.5 758.69,-190.65 797,-182.5 825.79,-176.38 831.91,-170 861,-165.5 991.6,-145.31 1028.9,-179.69 1158,-151.5 1188.02,-144.94 1194.31,-127.06 1219.7,-123.23"/>
<polygon fill="black" stroke="black" points="1220.27,-126.7 1230,-122.5 1219.78,-119.72 1220.27,-126.7"/>
</g>
<!-- Reference&#45;&gt;ReflectivityOverQ -->
<g id="edge24" class="edge">
<title>Reference:e&#45;&gt;ReflectivityOverQ:w</title>
<path fill="none" stroke="black" d="M1461,-177.5C1526.39,-177.5 1545.23,-177.5 1605.89,-177.5"/>
<polygon fill="black" stroke="black" points="1606,-181 1616,-177.5 1606,-174 1606,-181"/>
</g>
<!-- Sample&#45;&gt;ReflectivityOverQ -->
<g id="edge23" class="edge">
<title>Sample:e&#45;&gt;ReflectivityOverQ:w</title>
<path fill="none" stroke="black" d="M1544,-122.5C1580.49,-122.5 1576.9,-167.67 1605.88,-176.14"/>
<polygon fill="black" stroke="black" points="1605.62,-179.64 1616,-177.5 1606.56,-172.7 1605.62,-179.64"/>
</g>
</g>
</svg>
