<?xml version="1.0" encoding="UTF-8" standalone="no"?>
<!DOCTYPE svg PUBLIC "-//W3C//DTD SVG 1.1//EN"
 "http://www.w3.org/Graphics/SVG/1.1/DTD/svg11.dtd">
<!-- Generated by graphviz version 2.43.0 (0)
 -->
<!-- Title: %3 Pages: 1 -->
<svg width="5103pt" height="352pt"
 viewBox="0.00 0.00 5103.27 352.00" xmlns="http://www.w3.org/2000/svg" xmlns:xlink="http://www.w3.org/1999/xlink">
<g id="graph0" class="graph" transform="scale(1 1) rotate(0) translate(4 348)">
<title>%3</title>
<polygon fill="white" stroke="transparent" points="-4,4 -4,-348 5099.27,-348 5099.27,4 -4,4"/>
<!-- BeamDivergenceLimits -->
<g id="node1" class="node">
<title>BeamDivergenceLimits</title>
<polygon fill="none" stroke="black" points="3222.04,-225 3039.04,-225 3039.04,-189 3222.04,-189 3222.04,-225"/>
<text text-anchor="middle" x="3130.54" y="-203.3" font-family="Times,serif" font-size="14.00">BeamDivergenceLimits</text>
</g>
<!-- ess.reflectometry.conversions.add_masks_MaskedData[SampleRun] -->
<g id="node29" class="node">
<title>ess.reflectometry.conversions.add_masks_MaskedData[SampleRun]</title>
<ellipse fill="none" stroke="black" cx="3397.28" cy="-180" rx="61.99" ry="18"/>
<text text-anchor="middle" x="3397.28" y="-176.3" font-family="Times,serif" font-size="14.00">add_masks</text>
</g>
<!-- BeamDivergenceLimits&#45;&gt;ess.reflectometry.conversions.add_masks_MaskedData[SampleRun] -->
<g id="edge25" class="edge">
<title>BeamDivergenceLimits&#45;&gt;ess.reflectometry.conversions.add_masks_MaskedData[SampleRun]</title>
<path fill="none" stroke="black" d="M3222.28,-197.75C3257.12,-194.19 3296.26,-190.2 3328.57,-186.91"/>
<polygon fill="black" stroke="black" points="3329.22,-190.36 3338.81,-185.86 3328.51,-183.39 3329.22,-190.36"/>
</g>
<!-- BeamSize[SampleRun] -->
<g id="node2" class="node">
<title>BeamSize[SampleRun]</title>
<polygon fill="none" stroke="black" points="3683.53,-147 3504.53,-147 3504.53,-111 3683.53,-111 3683.53,-147"/>
<text text-anchor="middle" x="3594.03" y="-125.3" font-family="Times,serif" font-size="14.00">BeamSize[SampleRun]</text>
</g>
<!-- ess.reflectometry.corrections.footprint_correction_FootprintCorrectedData[SampleRun] -->
<g id="node17" class="node">
<title>ess.reflectometry.corrections.footprint_correction_FootprintCorrectedData[SampleRun]</title>
<ellipse fill="none" stroke="black" cx="3832.37" cy="-131" rx="103.18" ry="18"/>
<text text-anchor="middle" x="3832.37" y="-127.3" font-family="Times,serif" font-size="14.00">footprint_correction</text>
</g>
<!-- BeamSize[SampleRun]&#45;&gt;ess.reflectometry.corrections.footprint_correction_FootprintCorrectedData[SampleRun] -->
<g id="edge11" class="edge">
<title>BeamSize[SampleRun]&#45;&gt;ess.reflectometry.corrections.footprint_correction_FootprintCorrectedData[SampleRun]</title>
<path fill="none" stroke="black" d="M3683.7,-129.75C3695.15,-129.85 3706.99,-129.95 3718.76,-130.05"/>
<polygon fill="black" stroke="black" points="3719.04,-133.55 3729.07,-130.13 3719.1,-126.55 3719.04,-133.55"/>
</g>
<!-- ess.amor.load.load_amor_chopper_1_position_Chopper1Position[SampleRun] -->
<g id="node3" class="node">
<title>ess.amor.load.load_amor_chopper_1_position_Chopper1Position[SampleRun]</title>
<ellipse fill="none" stroke="black" cx="1076.36" cy="-18" rx="152.17" ry="18"/>
<text text-anchor="middle" x="1076.36" y="-14.3" font-family="Times,serif" font-size="14.00">load_amor_chopper_1_position</text>
</g>
<!-- Chopper1Position[SampleRun] -->
<g id="node5" class="node">
<title>Chopper1Position[SampleRun]</title>
<polygon fill="none" stroke="black" points="1504.95,-36 1268.95,-36 1268.95,0 1504.95,0 1504.95,-36"/>
<text text-anchor="middle" x="1386.95" y="-14.3" font-family="Times,serif" font-size="14.00">Chopper1Position[SampleRun]</text>
</g>
<!-- ess.amor.load.load_amor_chopper_1_position_Chopper1Position[SampleRun]&#45;&gt;Chopper1Position[SampleRun] -->
<g id="edge2" class="edge">
<title>ess.amor.load.load_amor_chopper_1_position_Chopper1Position[SampleRun]&#45;&gt;Chopper1Position[SampleRun]</title>
<path fill="none" stroke="black" d="M1228.49,-18C1238.58,-18 1248.68,-18 1258.63,-18"/>
<polygon fill="black" stroke="black" points="1258.94,-21.5 1268.94,-18 1258.94,-14.5 1258.94,-21.5"/>
</g>
<!-- RawChopper[SampleRun] -->
<g id="node4" class="node">
<title>RawChopper[SampleRun]</title>
<polygon fill="none" stroke="black" points="853.77,-90 653.77,-90 653.77,-54 853.77,-54 853.77,-90"/>
<text text-anchor="middle" x="753.77" y="-68.3" font-family="Times,serif" font-size="14.00">RawChopper[SampleRun]</text>
</g>
<!-- RawChopper[SampleRun]&#45;&gt;ess.amor.load.load_amor_chopper_1_position_Chopper1Position[SampleRun] -->
<g id="edge1" class="edge">
<title>RawChopper[SampleRun]&#45;&gt;ess.amor.load.load_amor_chopper_1_position_Chopper1Position[SampleRun]</title>
<path fill="none" stroke="black" d="M854.01,-55.28C893.6,-48.62 939.02,-40.96 978.38,-34.34"/>
<polygon fill="black" stroke="black" points="978.97,-37.79 988.25,-32.67 977.81,-30.88 978.97,-37.79"/>
</g>
<!-- ess.amor.load.load_amor_chopper_2_position_Chopper2Position[SampleRun] -->
<g id="node6" class="node">
<title>ess.amor.load.load_amor_chopper_2_position_Chopper2Position[SampleRun]</title>
<ellipse fill="none" stroke="black" cx="1076.36" cy="-72" rx="152.17" ry="18"/>
<text text-anchor="middle" x="1076.36" y="-68.3" font-family="Times,serif" font-size="14.00">load_amor_chopper_2_position</text>
</g>
<!-- RawChopper[SampleRun]&#45;&gt;ess.amor.load.load_amor_chopper_2_position_Chopper2Position[SampleRun] -->
<g id="edge3" class="edge">
<title>RawChopper[SampleRun]&#45;&gt;ess.amor.load.load_amor_chopper_2_position_Chopper2Position[SampleRun]</title>
<path fill="none" stroke="black" d="M854.01,-72C873.14,-72 893.62,-72 914.13,-72"/>
<polygon fill="black" stroke="black" points="914.19,-75.5 924.19,-72 914.19,-68.5 914.19,-75.5"/>
</g>
<!-- ess.amor.conversions.incident_beam_IncidentBeam[SampleRun] -->
<g id="node23" class="node">
<title>ess.amor.conversions.incident_beam_IncidentBeam[SampleRun]</title>
<ellipse fill="none" stroke="black" cx="1656.95" cy="-76" rx="77.99" ry="18"/>
<text text-anchor="middle" x="1656.95" y="-72.3" font-family="Times,serif" font-size="14.00">incident_beam</text>
</g>
<!-- Chopper1Position[SampleRun]&#45;&gt;ess.amor.conversions.incident_beam_IncidentBeam[SampleRun] -->
<g id="edge14" class="edge">
<title>Chopper1Position[SampleRun]&#45;&gt;ess.amor.conversions.incident_beam_IncidentBeam[SampleRun]</title>
<path fill="none" stroke="black" d="M1471.28,-36.03C1509.34,-44.27 1553.8,-53.89 1589.55,-61.63"/>
<polygon fill="black" stroke="black" points="1588.88,-65.07 1599.4,-63.76 1590.36,-58.23 1588.88,-65.07"/>
</g>
<!-- Chopper2Position[SampleRun] -->
<g id="node7" class="node">
<title>Chopper2Position[SampleRun]</title>
<polygon fill="none" stroke="black" points="1504.95,-90 1268.95,-90 1268.95,-54 1504.95,-54 1504.95,-90"/>
<text text-anchor="middle" x="1386.95" y="-68.3" font-family="Times,serif" font-size="14.00">Chopper2Position[SampleRun]</text>
</g>
<!-- ess.amor.load.load_amor_chopper_2_position_Chopper2Position[SampleRun]&#45;&gt;Chopper2Position[SampleRun] -->
<g id="edge4" class="edge">
<title>ess.amor.load.load_amor_chopper_2_position_Chopper2Position[SampleRun]&#45;&gt;Chopper2Position[SampleRun]</title>
<path fill="none" stroke="black" d="M1228.49,-72C1238.58,-72 1248.68,-72 1258.63,-72"/>
<polygon fill="black" stroke="black" points="1258.94,-75.5 1268.94,-72 1258.94,-68.5 1258.94,-75.5"/>
</g>
<!-- Chopper2Position[SampleRun]&#45;&gt;ess.amor.conversions.incident_beam_IncidentBeam[SampleRun] -->
<g id="edge15" class="edge">
<title>Chopper2Position[SampleRun]&#45;&gt;ess.amor.conversions.incident_beam_IncidentBeam[SampleRun]</title>
<path fill="none" stroke="black" d="M1505.11,-73.75C1526.43,-74.07 1548.34,-74.39 1568.62,-74.7"/>
<polygon fill="black" stroke="black" points="1568.69,-78.2 1578.74,-74.85 1568.8,-71.2 1568.69,-78.2"/>
</g>
<!-- ChopperFrequency[SampleRun] -->
<g id="node8" class="node">
<title>ChopperFrequency[SampleRun]</title>
<polygon fill="none" stroke="black" points="1509.45,-290 1264.45,-290 1264.45,-254 1509.45,-254 1509.45,-290"/>
<text text-anchor="middle" x="1386.95" y="-268.3" font-family="Times,serif" font-size="14.00">ChopperFrequency[SampleRun]</text>
</g>
<!-- ess.amor.load.compute_tof_ReducibleDetectorData[SampleRun] -->
<g id="node41" class="node">
<title>ess.amor.load.compute_tof_ReducibleDetectorData[SampleRun]</title>
<ellipse fill="none" stroke="black" cx="1656.95" cy="-249" rx="67.69" ry="18"/>
<text text-anchor="middle" x="1656.95" y="-245.3" font-family="Times,serif" font-size="14.00">compute_tof</text>
</g>
<!-- ChopperFrequency[SampleRun]&#45;&gt;ess.amor.load.compute_tof_ReducibleDetectorData[SampleRun] -->
<g id="edge42" class="edge">
<title>ChopperFrequency[SampleRun]&#45;&gt;ess.amor.load.compute_tof_ReducibleDetectorData[SampleRun]</title>
<path fill="none" stroke="black" d="M1509.79,-261.54C1534.49,-259.42 1559.75,-257.26 1582.17,-255.33"/>
<polygon fill="black" stroke="black" points="1582.59,-258.81 1592.26,-254.47 1581.99,-251.83 1582.59,-258.81"/>
</g>
<!-- ChopperPhase[SampleRun] -->
<g id="node9" class="node">
<title>ChopperPhase[SampleRun]</title>
<polygon fill="none" stroke="black" points="1492.95,-236 1280.95,-236 1280.95,-200 1492.95,-200 1492.95,-236"/>
<text text-anchor="middle" x="1386.95" y="-214.3" font-family="Times,serif" font-size="14.00">ChopperPhase[SampleRun]</text>
</g>
<!-- ChopperPhase[SampleRun]&#45;&gt;ess.amor.load.compute_tof_ReducibleDetectorData[SampleRun] -->
<g id="edge41" class="edge">
<title>ChopperPhase[SampleRun]&#45;&gt;ess.amor.load.compute_tof_ReducibleDetectorData[SampleRun]</title>
<path fill="none" stroke="black" d="M1493.1,-230.16C1523.79,-233.71 1556.6,-237.51 1584.67,-240.76"/>
<polygon fill="black" stroke="black" points="1584.45,-244.25 1594.79,-241.93 1585.26,-237.3 1584.45,-244.25"/>
</g>
<!-- ess.reflectometry.conversions.add_coords_DataWithScatteringCoordinates[SampleRun] -->
<g id="node10" class="node">
<title>ess.reflectometry.conversions.add_coords_DataWithScatteringCoordinates[SampleRun]</title>
<ellipse fill="none" stroke="black" cx="2862.49" cy="-153" rx="63.09" ry="18"/>
<text text-anchor="middle" x="2862.49" y="-149.3" font-family="Times,serif" font-size="14.00">add_coords</text>
</g>
<!-- DataWithScatteringCoordinates[SampleRun] -->
<g id="node13" class="node">
<title>DataWithScatteringCoordinates[SampleRun]</title>
<polygon fill="none" stroke="black" points="3299.54,-171 2961.54,-171 2961.54,-135 3299.54,-135 3299.54,-171"/>
<text text-anchor="middle" x="3130.54" y="-149.3" font-family="Times,serif" font-size="14.00">DataWithScatteringCoordinates[SampleRun]</text>
</g>
<!-- ess.reflectometry.conversions.add_coords_DataWithScatteringCoordinates[SampleRun]&#45;&gt;DataWithScatteringCoordinates[SampleRun] -->
<g id="edge7" class="edge">
<title>ess.reflectometry.conversions.add_coords_DataWithScatteringCoordinates[SampleRun]&#45;&gt;DataWithScatteringCoordinates[SampleRun]</title>
<path fill="none" stroke="black" d="M2925.87,-153C2933.9,-153 2942.42,-153 2951.24,-153"/>
<polygon fill="black" stroke="black" points="2951.32,-156.5 2961.32,-153 2951.32,-149.5 2951.32,-156.5"/>
</g>
<!-- ReducibleDetectorData[SampleRun] -->
<g id="node11" class="node">
<title>ReducibleDetectorData[SampleRun]</title>
<polygon fill="none" stroke="black" points="2323.45,-221 2048.45,-221 2048.45,-185 2323.45,-185 2323.45,-221"/>
<text text-anchor="middle" x="2185.95" y="-199.3" font-family="Times,serif" font-size="14.00">ReducibleDetectorData[SampleRun]</text>
</g>
<!-- ReducibleDetectorData[SampleRun]&#45;&gt;ess.reflectometry.conversions.add_coords_DataWithScatteringCoordinates[SampleRun] -->
<g id="edge5" class="edge">
<title>ReducibleDetectorData[SampleRun]&#45;&gt;ess.reflectometry.conversions.add_coords_DataWithScatteringCoordinates[SampleRun]</title>
<path fill="none" stroke="black" d="M2323.45,-192.88C2465.12,-182.38 2681.11,-166.37 2791.38,-158.2"/>
<polygon fill="black" stroke="black" points="2791.68,-161.68 2801.39,-157.45 2791.16,-154.7 2791.68,-161.68"/>
</g>
<!-- SpecularReflectionCoordTransformGraph[SampleRun] -->
<g id="node12" class="node">
<title>SpecularReflectionCoordTransformGraph[SampleRun]</title>
<polygon fill="none" stroke="black" points="2763.45,-148 2359.45,-148 2359.45,-112 2763.45,-112 2763.45,-148"/>
<text text-anchor="middle" x="2561.45" y="-126.3" font-family="Times,serif" font-size="14.00">SpecularReflectionCoordTransformGraph[SampleRun]</text>
</g>
<!-- SpecularReflectionCoordTransformGraph[SampleRun]&#45;&gt;ess.reflectometry.conversions.add_coords_DataWithScatteringCoordinates[SampleRun] -->
<g id="edge6" class="edge">
<title>SpecularReflectionCoordTransformGraph[SampleRun]&#45;&gt;ess.reflectometry.conversions.add_coords_DataWithScatteringCoordinates[SampleRun]</title>
<path fill="none" stroke="black" d="M2763.57,-145.47C2773.22,-146.21 2782.54,-146.93 2791.34,-147.6"/>
<polygon fill="black" stroke="black" points="2791.18,-151.1 2801.42,-148.38 2791.72,-144.12 2791.18,-151.1"/>
</g>
<!-- DataWithScatteringCoordinates[SampleRun]&#45;&gt;ess.reflectometry.conversions.add_masks_MaskedData[SampleRun] -->
<g id="edge21" class="edge">
<title>DataWithScatteringCoordinates[SampleRun]&#45;&gt;ess.reflectometry.conversions.add_masks_MaskedData[SampleRun]</title>
<path fill="none" stroke="black" d="M3299.58,-170.14C3309.61,-171.16 3319.35,-172.15 3328.54,-173.09"/>
<polygon fill="black" stroke="black" points="3328.36,-176.59 3338.67,-174.12 3329.07,-169.63 3328.36,-176.59"/>
</g>
<!-- ess.amor.load.load_amor_detector_rotation_DetectorRotation[SampleRun] -->
<g id="node14" class="node">
<title>ess.amor.load.load_amor_detector_rotation_DetectorRotation[SampleRun]</title>
<ellipse fill="none" stroke="black" cx="439.64" cy="-226" rx="143.77" ry="18"/>
<text text-anchor="middle" x="439.64" y="-222.3" font-family="Times,serif" font-size="14.00">load_amor_detector_rotation</text>
</g>
<!-- DetectorRotation[SampleRun] -->
<g id="node16" class="node">
<title>DetectorRotation[SampleRun]</title>
<polygon fill="none" stroke="black" points="869.77,-244 637.77,-244 637.77,-208 869.77,-208 869.77,-244"/>
<text text-anchor="middle" x="753.77" y="-222.3" font-family="Times,serif" font-size="14.00">DetectorRotation[SampleRun]</text>
</g>
<!-- ess.amor.load.load_amor_detector_rotation_DetectorRotation[SampleRun]&#45;&gt;DetectorRotation[SampleRun] -->
<g id="edge9" class="edge">
<title>ess.amor.load.load_amor_detector_rotation_DetectorRotation[SampleRun]&#45;&gt;DetectorRotation[SampleRun]</title>
<path fill="none" stroke="black" d="M583.46,-226C598.06,-226 612.81,-226 627.2,-226"/>
<polygon fill="black" stroke="black" points="627.61,-229.5 637.61,-226 627.61,-222.5 627.61,-229.5"/>
</g>
<!-- Filename[SampleRun] -->
<g id="node15" class="node">
<title>Filename[SampleRun]</title>
<polygon fill="none" stroke="red" stroke-dasharray="5,2" points="217.5,-217 42.5,-217 42.5,-181 217.5,-181 217.5,-217"/>
<text text-anchor="middle" x="130" y="-195.3" font-family="Times,serif" font-size="14.00" fill="red">Filename[SampleRun]</text>
</g>
<!-- Filename[SampleRun]&#45;&gt;ess.amor.load.load_amor_detector_rotation_DetectorRotation[SampleRun] -->
<g id="edge8" class="edge">
<title>Filename[SampleRun]&#45;&gt;ess.amor.load.load_amor_detector_rotation_DetectorRotation[SampleRun]</title>
<path fill="none" stroke="black" d="M217.51,-206.59C246.62,-209.15 279.73,-212.05 311.3,-214.82"/>
<polygon fill="black" stroke="black" points="311.23,-218.33 321.5,-215.72 311.84,-211.36 311.23,-218.33"/>
</g>
<!-- ess.amor.load.load_detector_LoadedNeXusDetector[SampleRun] -->
<g id="node26" class="node">
<title>ess.amor.load.load_detector_LoadedNeXusDetector[SampleRun]</title>
<ellipse fill="none" stroke="black" cx="439.64" cy="-280" rx="73.39" ry="18"/>
<text text-anchor="middle" x="439.64" y="-276.3" font-family="Times,serif" font-size="14.00">load_detector</text>
</g>
<!-- Filename[SampleRun]&#45;&gt;ess.amor.load.load_detector_LoadedNeXusDetector[SampleRun] -->
<g id="edge18" class="edge">
<title>Filename[SampleRun]&#45;&gt;ess.amor.load.load_detector_LoadedNeXusDetector[SampleRun]</title>
<path fill="none" stroke="black" d="M180.69,-217.12C213.19,-228.51 256.74,-242.9 296,-253 319.07,-258.93 344.55,-264.16 367.51,-268.4"/>
<polygon fill="black" stroke="black" points="367.06,-271.88 377.52,-270.22 368.31,-264.99 367.06,-271.88"/>
</g>
<!-- ess.amor.load.amor_chopper_RawChopper[SampleRun] -->
<g id="node38" class="node">
<title>ess.amor.load.amor_chopper_RawChopper[SampleRun]</title>
<ellipse fill="none" stroke="black" cx="439.64" cy="-95" rx="76.89" ry="18"/>
<text text-anchor="middle" x="439.64" y="-91.3" font-family="Times,serif" font-size="14.00">amor_chopper</text>
</g>
<!-- Filename[SampleRun]&#45;&gt;ess.amor.load.amor_chopper_RawChopper[SampleRun] -->
<g id="edge35" class="edge">
<title>Filename[SampleRun]&#45;&gt;ess.amor.load.amor_chopper_RawChopper[SampleRun]</title>
<path fill="none" stroke="black" d="M184.59,-180.88C240.94,-161.83 329.08,-132.04 385.33,-113.02"/>
<polygon fill="black" stroke="black" points="386.75,-116.24 395.1,-109.72 384.51,-109.6 386.75,-116.24"/>
</g>
<!-- ess.amor.load.load_amor_sample_rotation_SampleRotation[SampleRun] -->
<g id="node42" class="node">
<title>ess.amor.load.load_amor_sample_rotation_SampleRotation[SampleRun]</title>
<ellipse fill="none" stroke="black" cx="439.64" cy="-172" rx="137.58" ry="18"/>
<text text-anchor="middle" x="439.64" y="-168.3" font-family="Times,serif" font-size="14.00">load_amor_sample_rotation</text>
</g>
<!-- Filename[SampleRun]&#45;&gt;ess.amor.load.load_amor_sample_rotation_SampleRotation[SampleRun] -->
<g id="edge44" class="edge">
<title>Filename[SampleRun]&#45;&gt;ess.amor.load.load_amor_sample_rotation_SampleRotation[SampleRun]</title>
<path fill="none" stroke="black" d="M217.51,-191.41C247.71,-188.76 282.22,-185.73 314.85,-182.86"/>
<polygon fill="black" stroke="black" points="315.26,-186.34 324.91,-181.98 314.65,-179.37 315.26,-186.34"/>
</g>
<!-- ess.amor.load.load_events_RawDetectorData[SampleRun] -->
<g id="node39" class="node">
<title>ess.amor.load.load_events_RawDetectorData[SampleRun]</title>
<ellipse fill="none" stroke="black" cx="1076.36" cy="-280" rx="65.79" ry="18"/>
<text text-anchor="middle" x="1076.36" y="-276.3" font-family="Times,serif" font-size="14.00">load_events</text>
</g>
<!-- DetectorRotation[SampleRun]&#45;&gt;ess.amor.load.load_events_RawDetectorData[SampleRun] -->
<g id="edge38" class="edge">
<title>DetectorRotation[SampleRun]&#45;&gt;ess.amor.load.load_events_RawDetectorData[SampleRun]</title>
<path fill="none" stroke="black" d="M861.97,-244.06C911.01,-252.32 967.52,-261.84 1010.07,-269"/>
<polygon fill="black" stroke="black" points="1009.57,-272.47 1020.02,-270.68 1010.74,-265.57 1009.57,-272.47"/>
</g>
<!-- FootprintCorrectedData[SampleRun] -->
<g id="node20" class="node">
<title>FootprintCorrectedData[SampleRun]</title>
<polygon fill="none" stroke="black" points="4252.71,-157 3971.71,-157 3971.71,-121 4252.71,-121 4252.71,-157"/>
<text text-anchor="middle" x="4112.21" y="-135.3" font-family="Times,serif" font-size="14.00">FootprintCorrectedData[SampleRun]</text>
</g>
<!-- ess.reflectometry.corrections.footprint_correction_FootprintCorrectedData[SampleRun]&#45;&gt;FootprintCorrectedData[SampleRun] -->
<g id="edge13" class="edge">
<title>ess.reflectometry.corrections.footprint_correction_FootprintCorrectedData[SampleRun]&#45;&gt;FootprintCorrectedData[SampleRun]</title>
<path fill="none" stroke="black" d="M3934.46,-133.91C3943.25,-134.16 3952.26,-134.42 3961.34,-134.68"/>
<polygon fill="black" stroke="black" points="3961.51,-138.19 3971.6,-134.98 3961.71,-131.19 3961.51,-138.19"/>
</g>
<!-- MaskedData[SampleRun] -->
<g id="node18" class="node">
<title>MaskedData[SampleRun]</title>
<polygon fill="none" stroke="black" points="3693.03,-201 3495.03,-201 3495.03,-165 3693.03,-165 3693.03,-201"/>
<text text-anchor="middle" x="3594.03" y="-179.3" font-family="Times,serif" font-size="14.00">MaskedData[SampleRun]</text>
</g>
<!-- MaskedData[SampleRun]&#45;&gt;ess.reflectometry.corrections.footprint_correction_FootprintCorrectedData[SampleRun] -->
<g id="edge10" class="edge">
<title>MaskedData[SampleRun]&#45;&gt;ess.reflectometry.corrections.footprint_correction_FootprintCorrectedData[SampleRun]</title>
<path fill="none" stroke="black" d="M3677.02,-164.96C3703.15,-159.21 3731.89,-152.89 3757.42,-147.27"/>
<polygon fill="black" stroke="black" points="3758.38,-150.64 3767.4,-145.07 3756.88,-143.81 3758.38,-150.64"/>
</g>
<!-- SampleSize[SampleRun] -->
<g id="node19" class="node">
<title>SampleSize[SampleRun]</title>
<polygon fill="none" stroke="black" points="3690.03,-93 3498.03,-93 3498.03,-57 3690.03,-57 3690.03,-93"/>
<text text-anchor="middle" x="3594.03" y="-71.3" font-family="Times,serif" font-size="14.00">SampleSize[SampleRun]</text>
</g>
<!-- SampleSize[SampleRun]&#45;&gt;ess.reflectometry.corrections.footprint_correction_FootprintCorrectedData[SampleRun] -->
<g id="edge12" class="edge">
<title>SampleSize[SampleRun]&#45;&gt;ess.reflectometry.corrections.footprint_correction_FootprintCorrectedData[SampleRun]</title>
<path fill="none" stroke="black" d="M3671.11,-93.03C3699.83,-99.83 3732.38,-107.55 3760.6,-114.23"/>
<polygon fill="black" stroke="black" points="3759.85,-117.65 3770.39,-116.55 3761.47,-110.84 3759.85,-117.65"/>
</g>
<!-- ess.reflectometry.normalize.normalization_factor_NormalizationFactor -->
<g id="node33" class="node">
<title>ess.reflectometry.normalize.normalization_factor_NormalizationFactor</title>
<ellipse fill="none" stroke="black" cx="4395.3" cy="-191" rx="106.68" ry="18"/>
<text text-anchor="middle" x="4395.3" y="-187.3" font-family="Times,serif" font-size="14.00">normalization_factor</text>
</g>
<!-- FootprintCorrectedData[SampleRun]&#45;&gt;ess.reflectometry.normalize.normalization_factor_NormalizationFactor -->
<g id="edge27" class="edge">
<title>FootprintCorrectedData[SampleRun]&#45;&gt;ess.reflectometry.normalize.normalization_factor_NormalizationFactor</title>
<path fill="none" stroke="black" d="M4210.73,-157.04C4243.92,-163.18 4280.66,-169.98 4312.5,-175.87"/>
<polygon fill="black" stroke="black" points="4312.18,-179.37 4322.65,-177.75 4313.45,-172.49 4312.18,-179.37"/>
</g>
<!-- ess.reflectometry.normalize.reflectivity_over_q_NormalizedIofQ -->
<g id="node35" class="node">
<title>ess.reflectometry.normalize.reflectivity_over_q_NormalizedIofQ</title>
<ellipse fill="none" stroke="black" cx="4834.08" cy="-143" rx="96.38" ry="18"/>
<text text-anchor="middle" x="4834.08" y="-139.3" font-family="Times,serif" font-size="14.00">reflectivity_over_q</text>
</g>
<!-- FootprintCorrectedData[SampleRun]&#45;&gt;ess.reflectometry.normalize.reflectivity_over_q_NormalizedIofQ -->
<g id="edge31" class="edge">
<title>FootprintCorrectedData[SampleRun]&#45;&gt;ess.reflectometry.normalize.reflectivity_over_q_NormalizedIofQ</title>
<path fill="none" stroke="black" d="M4252.86,-139.78C4391.89,-140.55 4602.18,-141.72 4727.75,-142.41"/>
<polygon fill="black" stroke="black" points="4727.74,-145.91 4737.76,-142.47 4727.78,-138.91 4727.74,-145.91"/>
</g>
<!-- Gravity -->
<g id="node21" class="node">
<title>Gravity</title>
<polygon fill="none" stroke="black" points="1943.45,-44 1873.45,-44 1873.45,-8 1943.45,-8 1943.45,-44"/>
<text text-anchor="middle" x="1908.45" y="-22.3" font-family="Times,serif" font-size="14.00">Gravity</text>
</g>
<!-- ess.reflectometry.conversions.specular_reflection_SpecularReflectionCoordTransformGraph[SampleRun] -->
<g id="node44" class="node">
<title>ess.reflectometry.conversions.specular_reflection_SpecularReflectionCoordTransformGraph[SampleRun]</title>
<ellipse fill="none" stroke="black" cx="2185.95" cy="-126" rx="98.58" ry="18"/>
<text text-anchor="middle" x="2185.95" y="-122.3" font-family="Times,serif" font-size="14.00">specular_reflection</text>
</g>
<!-- Gravity&#45;&gt;ess.reflectometry.conversions.specular_reflection_SpecularReflectionCoordTransformGraph[SampleRun] -->
<g id="edge49" class="edge">
<title>Gravity&#45;&gt;ess.reflectometry.conversions.specular_reflection_SpecularReflectionCoordTransformGraph[SampleRun]</title>
<path fill="none" stroke="black" d="M1943.68,-33.66C1963.9,-38.51 1989.87,-45.31 2012.45,-53 2056.76,-68.1 2105.79,-89.3 2140.21,-104.97"/>
<polygon fill="black" stroke="black" points="2138.97,-108.25 2149.52,-109.23 2141.88,-101.88 2138.97,-108.25"/>
</g>
<!-- IdealReferenceIntensity -->
<g id="node22" class="node">
<title>IdealReferenceIntensity</title>
<polygon fill="none" stroke="black" points="4206.21,-211 4018.21,-211 4018.21,-175 4206.21,-175 4206.21,-211"/>
<text text-anchor="middle" x="4112.21" y="-189.3" font-family="Times,serif" font-size="14.00">IdealReferenceIntensity</text>
</g>
<!-- IdealReferenceIntensity&#45;&gt;ess.reflectometry.normalize.normalization_factor_NormalizationFactor -->
<g id="edge28" class="edge">
<title>IdealReferenceIntensity&#45;&gt;ess.reflectometry.normalize.normalization_factor_NormalizationFactor</title>
<path fill="none" stroke="black" d="M4206.42,-192.34C4229.49,-192.17 4254.49,-191.99 4278.49,-191.82"/>
<polygon fill="black" stroke="black" points="4278.74,-195.32 4288.71,-191.75 4278.69,-188.32 4278.74,-195.32"/>
</g>
<!-- IncidentBeam[SampleRun] -->
<g id="node25" class="node">
<title>IncidentBeam[SampleRun]</title>
<polygon fill="none" stroke="black" points="2012.45,-98 1804.45,-98 1804.45,-62 2012.45,-62 2012.45,-98"/>
<text text-anchor="middle" x="1908.45" y="-76.3" font-family="Times,serif" font-size="14.00">IncidentBeam[SampleRun]</text>
</g>
<!-- ess.amor.conversions.incident_beam_IncidentBeam[SampleRun]&#45;&gt;IncidentBeam[SampleRun] -->
<g id="edge17" class="edge">
<title>ess.amor.conversions.incident_beam_IncidentBeam[SampleRun]&#45;&gt;IncidentBeam[SampleRun]</title>
<path fill="none" stroke="black" d="M1734.84,-77.23C1753.58,-77.53 1774.02,-77.86 1794.07,-78.18"/>
<polygon fill="black" stroke="black" points="1794.13,-81.68 1804.18,-78.34 1794.24,-74.68 1794.13,-81.68"/>
</g>
<!-- SamplePosition[SampleRun] -->
<g id="node24" class="node">
<title>SamplePosition[SampleRun]</title>
<polygon fill="none" stroke="black" points="1496.45,-144 1277.45,-144 1277.45,-108 1496.45,-108 1496.45,-144"/>
<text text-anchor="middle" x="1386.95" y="-122.3" font-family="Times,serif" font-size="14.00">SamplePosition[SampleRun]</text>
</g>
<!-- SamplePosition[SampleRun]&#45;&gt;ess.amor.conversions.incident_beam_IncidentBeam[SampleRun] -->
<g id="edge16" class="edge">
<title>SamplePosition[SampleRun]&#45;&gt;ess.amor.conversions.incident_beam_IncidentBeam[SampleRun]</title>
<path fill="none" stroke="black" d="M1484.7,-107.95C1517.97,-101.74 1554.57,-94.91 1585.37,-89.17"/>
<polygon fill="black" stroke="black" points="1586.38,-92.54 1595.57,-87.26 1585.1,-85.66 1586.38,-92.54"/>
</g>
<!-- SamplePosition[SampleRun]&#45;&gt;ess.reflectometry.conversions.specular_reflection_SpecularReflectionCoordTransformGraph[SampleRun] -->
<g id="edge47" class="edge">
<title>SamplePosition[SampleRun]&#45;&gt;ess.reflectometry.conversions.specular_reflection_SpecularReflectionCoordTransformGraph[SampleRun]</title>
<path fill="none" stroke="black" d="M1496.68,-126C1649.08,-126 1924.58,-126 2076.71,-126"/>
<polygon fill="black" stroke="black" points="2077,-129.5 2087,-126 2077,-122.5 2077,-129.5"/>
</g>
<!-- IncidentBeam[SampleRun]&#45;&gt;ess.reflectometry.conversions.specular_reflection_SpecularReflectionCoordTransformGraph[SampleRun] -->
<g id="edge46" class="edge">
<title>IncidentBeam[SampleRun]&#45;&gt;ess.reflectometry.conversions.specular_reflection_SpecularReflectionCoordTransformGraph[SampleRun]</title>
<path fill="none" stroke="black" d="M2012.82,-97.26C2042.33,-102.19 2074.08,-107.49 2102.19,-112.18"/>
<polygon fill="black" stroke="black" points="2101.92,-115.69 2112.36,-113.88 2103.08,-108.78 2101.92,-115.69"/>
</g>
<!-- LoadedNeXusDetector[SampleRun] -->
<g id="node28" class="node">
<title>LoadedNeXusDetector[SampleRun]</title>
<polygon fill="none" stroke="black" points="888.27,-298 619.27,-298 619.27,-262 888.27,-262 888.27,-298"/>
<text text-anchor="middle" x="753.77" y="-276.3" font-family="Times,serif" font-size="14.00">LoadedNeXusDetector[SampleRun]</text>
</g>
<!-- ess.amor.load.load_detector_LoadedNeXusDetector[SampleRun]&#45;&gt;LoadedNeXusDetector[SampleRun] -->
<g id="edge20" class="edge">
<title>ess.amor.load.load_detector_LoadedNeXusDetector[SampleRun]&#45;&gt;LoadedNeXusDetector[SampleRun]</title>
<path fill="none" stroke="black" d="M513.43,-280C542,-280 575.83,-280 608.93,-280"/>
<polygon fill="black" stroke="black" points="609.17,-283.5 619.17,-280 609.17,-276.5 609.17,-283.5"/>
</g>
<!-- NeXusDetectorName[SampleRun] -->
<g id="node27" class="node">
<title>NeXusDetectorName[SampleRun]</title>
<polygon fill="none" stroke="black" points="260,-298 0,-298 0,-262 260,-262 260,-298"/>
<text text-anchor="middle" x="130" y="-276.3" font-family="Times,serif" font-size="14.00">NeXusDetectorName[SampleRun]</text>
</g>
<!-- NeXusDetectorName[SampleRun]&#45;&gt;ess.amor.load.load_detector_LoadedNeXusDetector[SampleRun] -->
<g id="edge19" class="edge">
<title>NeXusDetectorName[SampleRun]&#45;&gt;ess.amor.load.load_detector_LoadedNeXusDetector[SampleRun]</title>
<path fill="none" stroke="black" d="M260.13,-280C292.49,-280 326.34,-280 355.77,-280"/>
<polygon fill="black" stroke="black" points="355.98,-283.5 365.98,-280 355.98,-276.5 355.98,-283.5"/>
</g>
<!-- LoadedNeXusDetector[SampleRun]&#45;&gt;ess.amor.load.load_events_RawDetectorData[SampleRun] -->
<g id="edge37" class="edge">
<title>LoadedNeXusDetector[SampleRun]&#45;&gt;ess.amor.load.load_events_RawDetectorData[SampleRun]</title>
<path fill="none" stroke="black" d="M888.41,-280C926.71,-280 967.1,-280 1000.5,-280"/>
<polygon fill="black" stroke="black" points="1000.63,-283.5 1010.63,-280 1000.63,-276.5 1000.63,-283.5"/>
</g>
<!-- ess.reflectometry.conversions.add_masks_MaskedData[SampleRun]&#45;&gt;MaskedData[SampleRun] -->
<g id="edge26" class="edge">
<title>ess.reflectometry.conversions.add_masks_MaskedData[SampleRun]&#45;&gt;MaskedData[SampleRun]</title>
<path fill="none" stroke="black" d="M3459.1,-180.94C3467.28,-181.06 3475.86,-181.2 3484.57,-181.33"/>
<polygon fill="black" stroke="black" points="3484.77,-184.83 3494.83,-181.49 3484.88,-177.83 3484.77,-184.83"/>
</g>
<!-- YIndexLimits -->
<g id="node30" class="node">
<title>YIndexLimits</title>
<polygon fill="none" stroke="black" points="3185.54,-117 3075.54,-117 3075.54,-81 3185.54,-81 3185.54,-117"/>
<text text-anchor="middle" x="3130.54" y="-95.3" font-family="Times,serif" font-size="14.00">YIndexLimits</text>
</g>
<!-- YIndexLimits&#45;&gt;ess.reflectometry.conversions.add_masks_MaskedData[SampleRun] -->
<g id="edge22" class="edge">
<title>YIndexLimits&#45;&gt;ess.reflectometry.conversions.add_masks_MaskedData[SampleRun]</title>
<path fill="none" stroke="black" d="M3185.67,-102.86C3219.19,-106.43 3262.7,-113.21 3299.54,-126 3322.18,-133.86 3345.7,-146.87 3363.88,-158.14"/>
<polygon fill="black" stroke="black" points="3362.03,-161.11 3372.35,-163.51 3365.78,-155.2 3362.03,-161.11"/>
</g>
<!-- WavelengthBins -->
<g id="node31" class="node">
<title>WavelengthBins</title>
<polygon fill="none" stroke="black" points="3196.54,-279 3064.54,-279 3064.54,-243 3196.54,-243 3196.54,-279"/>
<text text-anchor="middle" x="3130.54" y="-257.3" font-family="Times,serif" font-size="14.00">WavelengthBins</text>
</g>
<!-- WavelengthBins&#45;&gt;ess.reflectometry.conversions.add_masks_MaskedData[SampleRun] -->
<g id="edge23" class="edge">
<title>WavelengthBins&#45;&gt;ess.reflectometry.conversions.add_masks_MaskedData[SampleRun]</title>
<path fill="none" stroke="black" d="M3196.65,-255.89C3228.34,-252.06 3266.61,-245.43 3299.54,-234 3322.18,-226.14 3345.7,-213.13 3363.88,-201.86"/>
<polygon fill="black" stroke="black" points="3365.78,-204.8 3372.35,-196.49 3362.03,-198.89 3365.78,-204.8"/>
</g>
<!-- WavelengthBins&#45;&gt;ess.reflectometry.normalize.normalization_factor_NormalizationFactor -->
<g id="edge29" class="edge">
<title>WavelengthBins&#45;&gt;ess.reflectometry.normalize.normalization_factor_NormalizationFactor</title>
<path fill="none" stroke="black" d="M3196.85,-256.85C3286.23,-251.53 3451.71,-243 3593.03,-243 3593.03,-243 3593.03,-243 3833.37,-243 4020.02,-243 4067.59,-243.9 4252.71,-220 4275.69,-217.03 4300.52,-212.43 4322.87,-207.76"/>
<polygon fill="black" stroke="black" points="4323.9,-211.12 4332.95,-205.62 4322.44,-204.28 4323.9,-211.12"/>
</g>
<!-- ZIndexLimits -->
<g id="node32" class="node">
<title>ZIndexLimits</title>
<polygon fill="none" stroke="black" points="3186.04,-63 3075.04,-63 3075.04,-27 3186.04,-27 3186.04,-63"/>
<text text-anchor="middle" x="3130.54" y="-41.3" font-family="Times,serif" font-size="14.00">ZIndexLimits</text>
</g>
<!-- ZIndexLimits&#45;&gt;ess.reflectometry.conversions.add_masks_MaskedData[SampleRun] -->
<g id="edge24" class="edge">
<title>ZIndexLimits&#45;&gt;ess.reflectometry.conversions.add_masks_MaskedData[SampleRun]</title>
<path fill="none" stroke="black" d="M3186.35,-44.65C3220.72,-46.57 3264.92,-53.1 3299.54,-72 3334.71,-91.21 3363.56,-128.3 3380.34,-153.6"/>
<polygon fill="black" stroke="black" points="3377.4,-155.51 3385.76,-162.01 3383.28,-151.71 3377.4,-155.51"/>
</g>
<!-- NormalizationFactor -->
<g id="node34" class="node">
<title>NormalizationFactor</title>
<polygon fill="none" stroke="black" points="4701.89,-208 4537.89,-208 4537.89,-172 4701.89,-172 4701.89,-208"/>
<text text-anchor="middle" x="4619.89" y="-186.3" font-family="Times,serif" font-size="14.00">NormalizationFactor</text>
</g>
<!-- ess.reflectometry.normalize.normalization_factor_NormalizationFactor&#45;&gt;NormalizationFactor -->
<g id="edge30" class="edge">
<title>ess.reflectometry.normalize.normalization_factor_NormalizationFactor&#45;&gt;NormalizationFactor</title>
<path fill="none" stroke="black" d="M4502.05,-190.52C4510.58,-190.49 4519.16,-190.45 4527.58,-190.41"/>
<polygon fill="black" stroke="black" points="4527.77,-193.91 4537.76,-190.36 4527.74,-186.91 4527.77,-193.91"/>
</g>
<!-- NormalizationFactor&#45;&gt;ess.reflectometry.normalize.reflectivity_over_q_NormalizedIofQ -->
<g id="edge32" class="edge">
<title>NormalizationFactor&#45;&gt;ess.reflectometry.normalize.reflectivity_over_q_NormalizedIofQ</title>
<path fill="none" stroke="black" d="M4702.02,-172.03C4721.54,-167.7 4742.27,-163.11 4761.33,-158.89"/>
<polygon fill="black" stroke="black" points="4762.13,-162.3 4771.14,-156.72 4760.62,-155.47 4762.13,-162.3"/>
</g>
<!-- NormalizedIofQ -->
<g id="node37" class="node">
<title>NormalizedIofQ</title>
<polygon fill="none" stroke="black" points="5095.27,-161 4966.27,-161 4966.27,-125 5095.27,-125 5095.27,-161"/>
<text text-anchor="middle" x="5030.77" y="-139.3" font-family="Times,serif" font-size="14.00">NormalizedIofQ</text>
</g>
<!-- ess.reflectometry.normalize.reflectivity_over_q_NormalizedIofQ&#45;&gt;NormalizedIofQ -->
<g id="edge34" class="edge">
<title>ess.reflectometry.normalize.reflectivity_over_q_NormalizedIofQ&#45;&gt;NormalizedIofQ</title>
<path fill="none" stroke="black" d="M4930.43,-143C4939.06,-143 4947.71,-143 4956.11,-143"/>
<polygon fill="black" stroke="black" points="4956.22,-146.5 4966.22,-143 4956.22,-139.5 4956.22,-146.5"/>
</g>
<!-- QBins -->
<g id="node36" class="node">
<title>QBins</title>
<polygon fill="none" stroke="black" points="4649.39,-115 4590.39,-115 4590.39,-79 4649.39,-79 4649.39,-115"/>
<text text-anchor="middle" x="4619.89" y="-93.3" font-family="Times,serif" font-size="14.00">QBins</text>
</g>
<!-- QBins&#45;&gt;ess.reflectometry.normalize.reflectivity_over_q_NormalizedIofQ -->
<g id="edge33" class="edge">
<title>QBins&#45;&gt;ess.reflectometry.normalize.reflectivity_over_q_NormalizedIofQ</title>
<path fill="none" stroke="black" d="M4649.51,-103.2C4677.85,-109.35 4722.43,-119.01 4760.56,-127.28"/>
<polygon fill="black" stroke="black" points="4760.1,-130.76 4770.61,-129.46 4761.58,-123.92 4760.1,-130.76"/>
</g>
<!-- ess.amor.load.amor_chopper_RawChopper[SampleRun]&#45;&gt;RawChopper[SampleRun] -->
<g id="edge36" class="edge">
<title>ess.amor.load.amor_chopper_RawChopper[SampleRun]&#45;&gt;RawChopper[SampleRun]</title>
<path fill="none" stroke="black" d="M513.03,-89.67C551.79,-86.81 600.33,-83.23 643.58,-80.05"/>
<polygon fill="black" stroke="black" points="643.87,-83.53 653.58,-79.31 643.35,-76.55 643.87,-83.53"/>
</g>
<!-- RawDetectorData[SampleRun] -->
<g id="node40" class="node">
<title>RawDetectorData[SampleRun]</title>
<polygon fill="none" stroke="black" points="1504.95,-344 1268.95,-344 1268.95,-308 1504.95,-308 1504.95,-344"/>
<text text-anchor="middle" x="1386.95" y="-322.3" font-family="Times,serif" font-size="14.00">RawDetectorData[SampleRun]</text>
</g>
<!-- ess.amor.load.load_events_RawDetectorData[SampleRun]&#45;&gt;RawDetectorData[SampleRun] -->
<g id="edge39" class="edge">
<title>ess.amor.load.load_events_RawDetectorData[SampleRun]&#45;&gt;RawDetectorData[SampleRun]</title>
<path fill="none" stroke="black" d="M1134.32,-288.49C1169.3,-293.7 1215.56,-300.6 1258.86,-307.06"/>
<polygon fill="black" stroke="black" points="1258.52,-310.54 1268.92,-308.56 1259.55,-303.62 1258.52,-310.54"/>
</g>
<!-- RawDetectorData[SampleRun]&#45;&gt;ess.amor.load.compute_tof_ReducibleDetectorData[SampleRun] -->
<g id="edge40" class="edge">
<title>RawDetectorData[SampleRun]&#45;&gt;ess.amor.load.compute_tof_ReducibleDetectorData[SampleRun]</title>
<path fill="none" stroke="black" d="M1474.53,-307.99C1486.31,-305.18 1498.21,-302.15 1509.45,-299 1542.54,-289.71 1579.14,-277.22 1607.48,-267.04"/>
<polygon fill="black" stroke="black" points="1608.93,-270.24 1617.14,-263.55 1606.55,-263.66 1608.93,-270.24"/>
</g>
<!-- ess.amor.load.compute_tof_ReducibleDetectorData[SampleRun]&#45;&gt;ReducibleDetectorData[SampleRun] -->
<g id="edge43" class="edge">
<title>ess.amor.load.compute_tof_ReducibleDetectorData[SampleRun]&#45;&gt;ReducibleDetectorData[SampleRun]</title>
<path fill="none" stroke="black" d="M1721.52,-243.45C1799.49,-236.65 1934.12,-224.89 2038.24,-215.81"/>
<polygon fill="black" stroke="black" points="2038.56,-219.29 2048.22,-214.93 2037.95,-212.32 2038.56,-219.29"/>
</g>
<!-- SampleRotation[SampleRun] -->
<g id="node43" class="node">
<title>SampleRotation[SampleRun]</title>
<polygon fill="none" stroke="black" points="1768.45,-190 1545.45,-190 1545.45,-154 1768.45,-154 1768.45,-190"/>
<text text-anchor="middle" x="1656.95" y="-168.3" font-family="Times,serif" font-size="14.00">SampleRotation[SampleRun]</text>
</g>
<!-- ess.amor.load.load_amor_sample_rotation_SampleRotation[SampleRun]&#45;&gt;SampleRotation[SampleRun] -->
<g id="edge45" class="edge">
<title>ess.amor.load.load_amor_sample_rotation_SampleRotation[SampleRun]&#45;&gt;SampleRotation[SampleRun]</title>
<path fill="none" stroke="black" d="M577.69,-172C817.04,-172 1307.4,-172 1534.96,-172"/>
<polygon fill="black" stroke="black" points="1535.27,-175.5 1545.27,-172 1535.27,-168.5 1535.27,-175.5"/>
</g>
<!-- SampleRotation[SampleRun]&#45;&gt;ess.reflectometry.conversions.specular_reflection_SpecularReflectionCoordTransformGraph[SampleRun] -->
<g id="edge48" class="edge">
<title>SampleRotation[SampleRun]&#45;&gt;ess.reflectometry.conversions.specular_reflection_SpecularReflectionCoordTransformGraph[SampleRun]</title>
<path fill="none" stroke="black" d="M1768.75,-162.33C1862.74,-154.12 1996.31,-142.47 2086.58,-134.59"/>
<polygon fill="black" stroke="black" points="2086.88,-138.07 2096.54,-133.72 2086.27,-131.1 2086.88,-138.07"/>
</g>
<!-- ess.reflectometry.conversions.specular_reflection_SpecularReflectionCoordTransformGraph[SampleRun]&#45;&gt;SpecularReflectionCoordTransformGraph[SampleRun] -->
<g id="edge50" class="edge">
<title>ess.reflectometry.conversions.specular_reflection_SpecularReflectionCoordTransformGraph[SampleRun]&#45;&gt;SpecularReflectionCoordTransformGraph[SampleRun]</title>
<path fill="none" stroke="black" d="M2284.59,-127.05C2304.65,-127.26 2326.49,-127.49 2348.82,-127.73"/>
<polygon fill="black" stroke="black" points="2349.08,-131.24 2359.11,-127.84 2349.15,-124.24 2349.08,-131.24"/>
</g>
</g>
</svg>
