<?xml version="1.0" encoding="UTF-8" standalone="no"?>
<!DOCTYPE svg PUBLIC "-//W3C//DTD SVG 1.1//EN"
 "http://www.w3.org/Graphics/SVG/1.1/DTD/svg11.dtd">
<!-- Generated by graphviz version 2.43.0 (0)
 -->
<!-- Title: %3 Pages: 1 -->
<svg width="3083pt" height="549pt"
 viewBox="0.00 0.00 3083.00 548.92" xmlns="http://www.w3.org/2000/svg" xmlns:xlink="http://www.w3.org/1999/xlink">
<g id="graph0" class="graph" transform="scale(1 1) rotate(0) translate(4 544.92)">
<title>%3</title>
<polygon fill="white" stroke="transparent" points="-4,4 -4,-544.92 3079,-544.92 3079,4 -4,4"/>
<g id="clust3" class="cluster">
<title>cluster_CoordTransformationGraph</title>
<polygon fill="#f0f0ff" stroke="#f0f0ff" points="970.5,-256.06 970.5,-352.06 1194.5,-352.06 1194.5,-256.06 970.5,-256.06"/>
<text text-anchor="start" x="983.5" y="-337.86" font-family="Times,serif" font-size="14.00">CoordTransformationGraph</text>
<text text-anchor="start" x="978.5" y="-326.26" font-family="Times,serif" font-size="11.00">via:</text>
<text text-anchor="start" x="999.5" y="-326.26" font-family="Times,serif" font-style="italic" font-size="11.00">coordinate_transformation_graph</text>
</g>
<g id="clust9" class="cluster">
<title>cluster_Filename</title>
<polygon fill="#f0f0ff" stroke="#f0f0ff" points="23,-238.06 23,-324.06 149,-324.06 149,-238.06 23,-238.06"/>
<text text-anchor="middle" x="86" y="-308.86" font-family="Times,serif" font-size="14.00">Filename</text>
</g>
<g id="clust6" class="cluster">
<title>cluster_DetectorLtotal</title>
<polygon fill="#f0f0ff" stroke="#f0f0ff" points="1299.5,-102.06 1299.5,-198.06 1478.5,-198.06 1478.5,-102.06 1299.5,-102.06"/>
<text text-anchor="start" x="1336.5" y="-183.86" font-family="Times,serif" font-size="14.00">DetectorLtotal</text>
<text text-anchor="start" x="1307.5" y="-172.26" font-family="Times,serif" font-size="11.00">via:</text>
<text text-anchor="start" x="1328.5" y="-172.26" font-family="Times,serif" font-style="italic" font-size="11.00">detector_ltotal_from_raw</text>
</g>
<g id="clust7" class="cluster">
<title>cluster_DetectorRotation</title>
<polygon fill="#f0f0ff" stroke="#f0f0ff" points="459.5,-112.06 459.5,-208.06 623.5,-208.06 623.5,-112.06 459.5,-112.06"/>
<text text-anchor="start" x="479.5" y="-193.86" font-family="Times,serif" font-size="14.00">DetectorRotation</text>
<text text-anchor="start" x="467.5" y="-182.26" font-family="Times,serif" font-size="11.00">via:</text>
<text text-anchor="start" x="488.5" y="-182.26" font-family="Times,serif" font-style="italic" font-size="11.00">load_detector_rotation</text>
</g>
<g id="clust11" class="cluster">
<title>cluster_Position</title>
<polygon fill="#f0f0ff" stroke="#f0f0ff" points="444,-216.06 444,-392.06 639,-392.06 639,-216.06 444,-216.06"/>
<text text-anchor="middle" x="541.5" y="-376.86" font-family="Times,serif" font-size="14.00">Position</text>
</g>
<g id="clust12" class="cluster">
<title>cluster_ProtonCurrent</title>
<polygon fill="#f0f0ff" stroke="#f0f0ff" points="1595.5,-185.06 1595.5,-271.06 1721.5,-271.06 1721.5,-185.06 1595.5,-185.06"/>
<text text-anchor="middle" x="1658.5" y="-255.86" font-family="Times,serif" font-size="14.00">ProtonCurrent</text>
</g>
<g id="clust15" class="cluster">
<title>cluster_RawDetector</title>
<polygon fill="#f0f0ff" stroke="#f0f0ff" points="229,-238.06 229,-334.06 388,-334.06 388,-238.06 229,-238.06"/>
<text text-anchor="start" x="261.5" y="-319.86" font-family="Times,serif" font-size="14.00">RawDetector</text>
<text text-anchor="start" x="237" y="-308.26" font-family="Times,serif" font-size="11.00">via:</text>
<text text-anchor="start" x="258" y="-308.26" font-family="Times,serif" font-style="italic" font-size="11.00">load_mcstas_provider</text>
</g>
<g id="clust16" class="cluster">
<title>cluster_RawSampleRotation</title>
<polygon fill="#f0f0ff" stroke="#f0f0ff" points="461.5,-400.06 461.5,-496.06 622.5,-496.06 622.5,-400.06 461.5,-400.06"/>
<text text-anchor="start" x="469.5" y="-481.86" font-family="Times,serif" font-size="14.00">RawSampleRotation</text>
<text text-anchor="start" x="471" y="-470.26" font-family="Times,serif" font-size="11.00">via:</text>
<text text-anchor="start" x="492" y="-470.26" font-family="Times,serif" font-style="italic" font-size="11.00">load_sample_rotation</text>
</g>
<g id="clust18" class="cluster">
<title>cluster_ReducibleData</title>
<polygon fill="#f0f0ff" stroke="#f0f0ff" points="1820,-185.06 1820,-281.06 2092,-281.06 2092,-185.06 1820,-185.06"/>
<text text-anchor="start" x="1903.5" y="-266.86" font-family="Times,serif" font-size="14.00">ReducibleData</text>
<text text-anchor="start" x="1828" y="-255.26" font-family="Times,serif" font-size="11.00">via:</text>
<text text-anchor="start" x="1849" y="-255.26" font-family="Times,serif" font-style="italic" font-size="11.00">add_coords_masks_and_apply_corrections</text>
</g>
<g id="clust22" class="cluster">
<title>cluster_SampleRotationOffset</title>
<polygon fill="#f0f0ff" stroke="#f0f0ff" points="0,-442.06 0,-528.06 173,-528.06 173,-442.06 0,-442.06"/>
<text text-anchor="middle" x="86.5" y="-512.86" font-family="Times,serif" font-size="14.00">SampleRotationOffset</text>
</g>
<g id="clust23" class="cluster">
<title>cluster_SampleRotation</title>
<polygon fill="#f0f0ff" stroke="#f0f0ff" points="703,-400.06 703,-496.06 877,-496.06 877,-400.06 703,-400.06"/>
<text text-anchor="start" x="732.5" y="-481.86" font-family="Times,serif" font-size="14.00">SampleRotation</text>
<text text-anchor="start" x="711" y="-470.26" font-family="Times,serif" font-size="11.00">via:</text>
<text text-anchor="start" x="732" y="-470.26" font-family="Times,serif" font-style="italic" font-size="11.00">correct_sample_rotation</text>
</g>
<g id="clust26" class="cluster">
<title>cluster_TofDetector</title>
<polygon fill="#f0f0ff" stroke="#f0f0ff" points="1560.5,-67.06 1560.5,-163.06 1756.5,-163.06 1756.5,-67.06 1560.5,-67.06"/>
<text text-anchor="start" x="1616" y="-148.86" font-family="Times,serif" font-size="14.00">TofDetector</text>
<text text-anchor="start" x="1568.5" y="-137.26" font-family="Times,serif" font-size="11.00">via:</text>
<text text-anchor="start" x="1589.5" y="-137.26" font-family="Times,serif" font-style="italic" font-size="11.00">detector_time_of_flight_data</text>
</g>
<!-- Alpha -->
<g id="node1" class="node">
<title>Alpha</title>
<polygon fill="none" stroke="black" points="1984.5,-112.56 1927.5,-112.56 1927.5,-89.56 1984.5,-89.56 1984.5,-112.56"/>
<text text-anchor="middle" x="1956" y="-97.36" font-family="Times,serif" font-size="14.00">Alpha</text>
</g>
<!-- ReducedReference -->
<g id="node32" class="node">
<title>ReducedReference</title>
<polygon fill="none" stroke="black" points="2379.5,-178.56 2229.5,-178.56 2229.5,-145.56 2379.5,-145.56 2379.5,-178.56"/>
<text text-anchor="start" x="2237.5" y="-164.36" font-family="Times,serif" font-size="14.00">ReducedReference</text>
<text text-anchor="start" x="2245" y="-152.76" font-family="Times,serif" font-size="11.00">via:</text>
<text text-anchor="start" x="2266" y="-152.76" font-family="Times,serif" font-style="italic" font-size="11.00">reduce_reference</text>
</g>
<!-- Alpha&#45;&gt;ReducedReference -->
<g id="edge30" class="edge">
<title>Alpha:e&#45;&gt;ReducedReference:w</title>
<path fill="none" stroke="black" d="M1986,-101.06C2033.58,-101.06 2045.7,-105.09 2092,-116.06 2150.89,-130.03 2163.21,-158.7 2218.46,-161.79"/>
<polygon fill="black" stroke="black" points="2218.41,-165.29 2228.5,-162.06 2218.6,-158.29 2218.41,-165.29"/>
</g>
<!-- Sample -->
<g id="node40" class="node">
<title>Sample</title>
<polygon fill="none" stroke="black" points="2839,-166.56 2525,-166.56 2525,-133.56 2839,-133.56 2839,-166.56"/>
<text text-anchor="start" x="2655" y="-152.36" font-family="Times,serif" font-size="14.00">Sample</text>
<text text-anchor="start" x="2533" y="-140.76" font-family="Times,serif" font-size="11.00">via:</text>
<text text-anchor="start" x="2554" y="-140.76" font-family="Times,serif" font-style="italic" font-size="11.00">mask_events_where_supermirror_does_not_cover</text>
</g>
<!-- Alpha&#45;&gt;Sample -->
<g id="edge52" class="edge">
<title>Alpha:e&#45;&gt;Sample:w</title>
<path fill="none" stroke="black" d="M1986,-101.06C2193.88,-101.06 2248.57,-89.35 2453,-127.06 2482.42,-132.49 2489.9,-146.49 2514.92,-149.49"/>
<polygon fill="black" stroke="black" points="2514.82,-152.99 2525,-150.06 2515.21,-146 2514.82,-152.99"/>
</g>
<!-- BeamDivergenceLimits -->
<g id="node2" class="node">
<title>BeamDivergenceLimits</title>
<polygon fill="none" stroke="black" points="1750,-367.56 1567,-367.56 1567,-344.56 1750,-344.56 1750,-367.56"/>
<text text-anchor="middle" x="1658.5" y="-352.36" font-family="Times,serif" font-size="14.00">BeamDivergenceLimits</text>
</g>
<!-- ReducibleData[ReferenceRun] -->
<g id="node31" class="node">
<title>ReducibleData[ReferenceRun]</title>
<polygon fill="none" stroke="black" points="2011,-239.56 1901,-239.56 1901,-218.56 2011,-218.56 2011,-239.56"/>
<text text-anchor="start" x="1909" y="-225.96" font-family="Times,serif" font-size="12.00">[ReferenceRun]</text>
</g>
<!-- BeamDivergenceLimits&#45;&gt;ReducibleData[ReferenceRun] -->
<g id="edge34" class="edge">
<title>BeamDivergenceLimits:e&#45;&gt;ReducibleData[ReferenceRun]:w</title>
<path fill="none" stroke="black" stroke-width="2" d="M1751.5,-356.06C1796.01,-356.06 1811.09,-322.71 1826.91,-290.18"/>
<polygon fill="black" stroke="black" stroke-width="2" points="1830.12,-291.58 1831.41,-281.06 1823.84,-288.48 1830.12,-291.58"/>
</g>
<!-- Position[NXsource, ReferenceRun] -->
<g id="node3" class="node">
<title>Position[NXsource, ReferenceRun]</title>
<polygon fill="none" stroke="black" points="630,-360.56 453,-360.56 453,-329.56 630,-329.56 630,-360.56"/>
<text text-anchor="start" x="461" y="-347.96" font-family="Times,serif" font-size="12.00">[NXsource, ReferenceRun]</text>
<text text-anchor="start" x="472" y="-336.76" font-family="Times,serif" font-size="11.00">via:</text>
<text text-anchor="start" x="493" y="-336.76" font-family="Times,serif" font-style="italic" font-size="11.00">load_source_position</text>
</g>
<!-- CoordTransformationGraph[ReferenceRun] -->
<g id="node4" class="node">
<title>CoordTransformationGraph[ReferenceRun]</title>
<polygon fill="none" stroke="black" points="1137.5,-310.56 1027.5,-310.56 1027.5,-289.56 1137.5,-289.56 1137.5,-310.56"/>
<text text-anchor="start" x="1035.5" y="-296.96" font-family="Times,serif" font-size="12.00">[ReferenceRun]</text>
</g>
<!-- Position[NXsource, ReferenceRun]&#45;&gt;CoordTransformationGraph[ReferenceRun] -->
<g id="edge1" class="edge">
<title>Position[NXsource, ReferenceRun]:e&#45;&gt;CoordTransformationGraph[ReferenceRun]:w</title>
<path fill="none" stroke="black" d="M630.5,-345.06C665.04,-345.06 669.22,-324.28 703,-317.06 735.79,-310.06 957.03,-301.35 1016.22,-300.19"/>
<polygon fill="black" stroke="black" points="1016.54,-303.69 1026.5,-300.06 1016.46,-296.69 1016.54,-303.69"/>
</g>
<!-- DetectorLtotal[ReferenceRun] -->
<g id="node16" class="node">
<title>DetectorLtotal[ReferenceRun]</title>
<polygon fill="none" stroke="black" points="1443.5,-156.56 1333.5,-156.56 1333.5,-135.56 1443.5,-135.56 1443.5,-156.56"/>
<text text-anchor="start" x="1341.5" y="-142.96" font-family="Times,serif" font-size="12.00">[ReferenceRun]</text>
</g>
<!-- CoordTransformationGraph[ReferenceRun]&#45;&gt;DetectorLtotal[ReferenceRun] -->
<g id="edge11" class="edge">
<title>CoordTransformationGraph[ReferenceRun]:e&#45;&gt;DetectorLtotal[ReferenceRun]:w</title>
<path fill="none" stroke="black" d="M1138.5,-300.06C1173.5,-300.06 1185.76,-303.69 1216,-286.06 1282.79,-247.13 1254.43,-154.86 1322.27,-146.65"/>
<polygon fill="black" stroke="black" points="1322.72,-150.13 1332.5,-146.06 1322.32,-143.14 1322.72,-150.13"/>
</g>
<!-- CoordTransformationGraph[ReferenceRun]&#45;&gt;ReducibleData[ReferenceRun] -->
<g id="edge37" class="edge">
<title>CoordTransformationGraph[ReferenceRun]:e&#45;&gt;ReducibleData[ReferenceRun]:w</title>
<path fill="none" stroke="black" d="M1138.5,-300.06C1276,-300.06 1625.42,-371.57 1756.5,-330.06 1827.51,-307.58 1822.64,-235.91 1890,-229.52"/>
<polygon fill="black" stroke="black" points="1890.17,-233.02 1900,-229.06 1889.85,-226.02 1890.17,-233.02"/>
</g>
<!-- Reference -->
<g id="node39" class="node">
<title>Reference</title>
<polygon fill="none" stroke="black" points="2754.5,-221.56 2609.5,-221.56 2609.5,-188.56 2754.5,-188.56 2754.5,-221.56"/>
<text text-anchor="start" x="2645.5" y="-207.36" font-family="Times,serif" font-size="14.00">Reference</text>
<text text-anchor="start" x="2617.5" y="-195.76" font-family="Times,serif" font-size="11.00">via:</text>
<text text-anchor="start" x="2638.5" y="-195.76" font-family="Times,serif" font-style="italic" font-size="11.00">evaluate_reference</text>
</g>
<!-- CoordTransformationGraph[ReferenceRun]&#45;&gt;Reference -->
<g id="edge43" class="edge">
<title>CoordTransformationGraph[ReferenceRun]:e&#45;&gt;Reference:w</title>
<path fill="none" stroke="black" d="M1138.5,-300.06C1205.94,-300.06 1221.45,-315.15 1288,-326.06 1408.93,-345.9 1438.73,-354.31 1560.5,-368.06 1603.45,-372.91 1614.28,-375.06 1657.5,-375.06 1657.5,-375.06 1657.5,-375.06 1957,-375.06 2103.16,-375.06 2442.77,-212.61 2597.62,-205.32"/>
<polygon fill="black" stroke="black" points="2598.09,-208.81 2608,-205.06 2597.92,-201.81 2598.09,-208.81"/>
</g>
<!-- Position[NXsample, ReferenceRun] -->
<g id="node5" class="node">
<title>Position[NXsample, ReferenceRun]</title>
<polygon fill="none" stroke="black" points="631,-325.56 452,-325.56 452,-294.56 631,-294.56 631,-325.56"/>
<text text-anchor="start" x="460" y="-312.96" font-family="Times,serif" font-size="12.00">[NXsample, ReferenceRun]</text>
<text text-anchor="start" x="470.5" y="-301.76" font-family="Times,serif" font-size="11.00">via:</text>
<text text-anchor="start" x="491.5" y="-301.76" font-family="Times,serif" font-style="italic" font-size="11.00">load_sample_position</text>
</g>
<!-- Position[NXsample, ReferenceRun]&#45;&gt;CoordTransformationGraph[ReferenceRun] -->
<g id="edge2" class="edge">
<title>Position[NXsample, ReferenceRun]:e&#45;&gt;CoordTransformationGraph[ReferenceRun]:w</title>
<path fill="none" stroke="black" d="M632.5,-310.06C663.86,-310.06 671.65,-308.07 703,-307.06 843.23,-302.56 880.87,-300.18 1016.16,-300.07"/>
<polygon fill="black" stroke="black" points="1016.5,-303.57 1026.5,-300.06 1016.5,-296.57 1016.5,-303.57"/>
</g>
<!-- SampleRotation[ReferenceRun] -->
<g id="node6" class="node">
<title>SampleRotation[ReferenceRun]</title>
<polygon fill="none" stroke="black" points="845,-454.56 735,-454.56 735,-433.56 845,-433.56 845,-454.56"/>
<text text-anchor="start" x="743" y="-440.96" font-family="Times,serif" font-size="12.00">[ReferenceRun]</text>
</g>
<!-- SampleRotation[ReferenceRun]&#45;&gt;CoordTransformationGraph[ReferenceRun] -->
<g id="edge3" class="edge">
<title>SampleRotation[ReferenceRun]:e&#45;&gt;CoordTransformationGraph[ReferenceRun]:w</title>
<path fill="none" stroke="black" d="M846,-444.06C945.12,-444.06 925.42,-309.74 1016.41,-300.56"/>
<polygon fill="black" stroke="black" points="1016.68,-304.05 1026.5,-300.06 1016.34,-297.06 1016.68,-304.05"/>
</g>
<!-- DetectorRotation[ReferenceRun] -->
<g id="node7" class="node">
<title>DetectorRotation[ReferenceRun]</title>
<polygon fill="none" stroke="black" points="596.5,-166.56 486.5,-166.56 486.5,-145.56 596.5,-145.56 596.5,-166.56"/>
<text text-anchor="start" x="494.5" y="-152.96" font-family="Times,serif" font-size="12.00">[ReferenceRun]</text>
</g>
<!-- DetectorRotation[ReferenceRun]&#45;&gt;CoordTransformationGraph[ReferenceRun] -->
<g id="edge4" class="edge">
<title>DetectorRotation[ReferenceRun]:e&#45;&gt;CoordTransformationGraph[ReferenceRun]:w</title>
<path fill="none" stroke="black" d="M597.5,-156.06C618.32,-156.06 928.91,-280.58 949,-286.06 979.21,-294.31 989.38,-299.01 1016.24,-299.9"/>
<polygon fill="black" stroke="black" points="1016.45,-303.41 1026.5,-300.06 1016.56,-296.41 1016.45,-303.41"/>
</g>
<!-- DetectorBankSizes -->
<g id="node8" class="node">
<title>DetectorBankSizes</title>
<polygon fill="none" stroke="black" points="866,-340.56 714,-340.56 714,-317.56 866,-317.56 866,-340.56"/>
<text text-anchor="middle" x="790" y="-325.36" font-family="Times,serif" font-size="14.00">DetectorBankSizes</text>
</g>
<!-- DetectorBankSizes&#45;&gt;CoordTransformationGraph[ReferenceRun] -->
<g id="edge5" class="edge">
<title>DetectorBankSizes:e&#45;&gt;CoordTransformationGraph[ReferenceRun]:w</title>
<path fill="none" stroke="black" stroke-width="2" d="M867,-329.06C910.59,-329.06 933.45,-318.45 960.66,-310.06"/>
<polygon fill="black" stroke="black" stroke-width="2" points="961.87,-313.35 970.5,-307.21 959.92,-306.63 961.87,-313.35"/>
</g>
<!-- Position[NXsource, SampleRun] -->
<g id="node9" class="node">
<title>Position[NXsource, SampleRun]</title>
<polygon fill="none" stroke="black" points="622,-290.56 461,-290.56 461,-259.56 622,-259.56 622,-290.56"/>
<text text-anchor="start" x="469" y="-277.96" font-family="Times,serif" font-size="12.00">[NXsource, SampleRun]</text>
<text text-anchor="start" x="472" y="-266.76" font-family="Times,serif" font-size="11.00">via:</text>
<text text-anchor="start" x="493" y="-266.76" font-family="Times,serif" font-style="italic" font-size="11.00">load_source_position</text>
</g>
<!-- CoordTransformationGraph[SampleRun] -->
<g id="node10" class="node">
<title>CoordTransformationGraph[SampleRun]</title>
<polygon fill="none" stroke="black" points="1130,-285.56 1035,-285.56 1035,-264.56 1130,-264.56 1130,-285.56"/>
<text text-anchor="start" x="1043" y="-271.96" font-family="Times,serif" font-size="12.00">[SampleRun]</text>
</g>
<!-- Position[NXsource, SampleRun]&#45;&gt;CoordTransformationGraph[SampleRun] -->
<g id="edge6" class="edge">
<title>Position[NXsource, SampleRun]:e&#45;&gt;CoordTransformationGraph[SampleRun]:w</title>
<path fill="none" stroke="black" d="M623.5,-275.06C802.34,-275.06 849.54,-275.06 1023.5,-275.06"/>
<polygon fill="black" stroke="black" points="1023.5,-278.56 1033.5,-275.06 1023.5,-271.56 1023.5,-278.56"/>
</g>
<!-- DetectorLtotal[SampleRun] -->
<g id="node18" class="node">
<title>DetectorLtotal[SampleRun]</title>
<polygon fill="none" stroke="black" points="1436,-131.56 1341,-131.56 1341,-110.56 1436,-110.56 1436,-131.56"/>
<text text-anchor="start" x="1349" y="-117.96" font-family="Times,serif" font-size="12.00">[SampleRun]</text>
</g>
<!-- CoordTransformationGraph[SampleRun]&#45;&gt;DetectorLtotal[SampleRun] -->
<g id="edge13" class="edge">
<title>CoordTransformationGraph[SampleRun]:e&#45;&gt;DetectorLtotal[SampleRun]:w</title>
<path fill="none" stroke="black" d="M1131.5,-275.06C1243.04,-275.06 1225.68,-130.25 1329.42,-121.48"/>
<polygon fill="black" stroke="black" points="1329.65,-124.97 1339.5,-121.06 1329.36,-117.98 1329.65,-124.97"/>
</g>
<!-- ReducibleData[SampleRun] -->
<g id="node38" class="node">
<title>ReducibleData[SampleRun]</title>
<polygon fill="none" stroke="black" points="2003.5,-214.56 1908.5,-214.56 1908.5,-193.56 2003.5,-193.56 2003.5,-214.56"/>
<text text-anchor="start" x="1916.5" y="-200.96" font-family="Times,serif" font-size="12.00">[SampleRun]</text>
</g>
<!-- CoordTransformationGraph[SampleRun]&#45;&gt;ReducibleData[SampleRun] -->
<g id="edge40" class="edge">
<title>CoordTransformationGraph[SampleRun]:e&#45;&gt;ReducibleData[SampleRun]:w</title>
<path fill="none" stroke="black" d="M1131.5,-275.06C1137.59,-275.06 1554.44,-184.7 1560.5,-184.06 1647.14,-174.98 1669.58,-178.31 1756.5,-184.06 1820.28,-188.28 1837.72,-202.45 1896.74,-203.94"/>
<polygon fill="black" stroke="black" points="1896.96,-207.44 1907,-204.06 1897.04,-200.44 1896.96,-207.44"/>
</g>
<!-- Position[NXsample, SampleRun] -->
<g id="node11" class="node">
<title>Position[NXsample, SampleRun]</title>
<polygon fill="none" stroke="black" points="623.5,-255.56 459.5,-255.56 459.5,-224.56 623.5,-224.56 623.5,-255.56"/>
<text text-anchor="start" x="467.5" y="-242.96" font-family="Times,serif" font-size="12.00">[NXsample, SampleRun]</text>
<text text-anchor="start" x="470.5" y="-231.76" font-family="Times,serif" font-size="11.00">via:</text>
<text text-anchor="start" x="491.5" y="-231.76" font-family="Times,serif" font-style="italic" font-size="11.00">load_sample_position</text>
</g>
<!-- Position[NXsample, SampleRun]&#45;&gt;CoordTransformationGraph[SampleRun] -->
<g id="edge7" class="edge">
<title>Position[NXsample, SampleRun]:e&#45;&gt;CoordTransformationGraph[SampleRun]:w</title>
<path fill="none" stroke="black" d="M624.5,-240.06C803.56,-240.06 849.37,-273.78 1023.49,-275.03"/>
<polygon fill="black" stroke="black" points="1023.49,-278.53 1033.5,-275.06 1023.51,-271.53 1023.49,-278.53"/>
</g>
<!-- SampleRotation[SampleRun] -->
<g id="node12" class="node">
<title>SampleRotation[SampleRun]</title>
<polygon fill="none" stroke="black" points="837.5,-429.56 742.5,-429.56 742.5,-408.56 837.5,-408.56 837.5,-429.56"/>
<text text-anchor="start" x="750.5" y="-415.96" font-family="Times,serif" font-size="12.00">[SampleRun]</text>
</g>
<!-- SampleRotation[SampleRun]&#45;&gt;CoordTransformationGraph[SampleRun] -->
<g id="edge8" class="edge">
<title>SampleRotation[SampleRun]:e&#45;&gt;CoordTransformationGraph[SampleRun]:w</title>
<path fill="none" stroke="black" d="M839,-419.06C914.35,-419.06 883.62,-327.52 949,-290.06 978.99,-272.88 992.7,-274.52 1023.39,-274.98"/>
<polygon fill="black" stroke="black" points="1023.47,-278.48 1033.5,-275.06 1023.53,-271.48 1023.47,-278.48"/>
</g>
<!-- DetectorRotation[SampleRun] -->
<g id="node13" class="node">
<title>DetectorRotation[SampleRun]</title>
<polygon fill="none" stroke="black" points="589,-141.56 494,-141.56 494,-120.56 589,-120.56 589,-141.56"/>
<text text-anchor="start" x="502" y="-127.96" font-family="Times,serif" font-size="12.00">[SampleRun]</text>
</g>
<!-- DetectorRotation[SampleRun]&#45;&gt;CoordTransformationGraph[SampleRun] -->
<g id="edge9" class="edge">
<title>DetectorRotation[SampleRun]:e&#45;&gt;CoordTransformationGraph[SampleRun]:w</title>
<path fill="none" stroke="black" d="M590.5,-131.06C794.09,-131.06 825.46,-270.32 1023.33,-274.95"/>
<polygon fill="black" stroke="black" points="1023.46,-278.45 1033.5,-275.06 1023.54,-271.45 1023.46,-278.45"/>
</g>
<!-- CriticalEdge -->
<g id="node14" class="node">
<title>CriticalEdge</title>
<polygon fill="none" stroke="black" points="2009,-166.56 1903,-166.56 1903,-143.56 2009,-143.56 2009,-166.56"/>
<text text-anchor="middle" x="1956" y="-151.36" font-family="Times,serif" font-size="14.00">CriticalEdge</text>
</g>
<!-- CriticalEdge&#45;&gt;ReducedReference -->
<g id="edge28" class="edge">
<title>CriticalEdge:e&#45;&gt;ReducedReference:w</title>
<path fill="none" stroke="black" d="M2010,-155.06C2103.65,-155.06 2129.5,-161.57 2218.25,-162.04"/>
<polygon fill="black" stroke="black" points="2218.49,-165.54 2228.5,-162.06 2218.51,-158.54 2218.49,-165.54"/>
</g>
<!-- CriticalEdge&#45;&gt;Sample -->
<g id="edge50" class="edge">
<title>CriticalEdge:e&#45;&gt;Sample:w</title>
<path fill="none" stroke="black" d="M2010,-155.06C2075.04,-155.06 2091,-147.29 2156,-145.06 2287.92,-140.55 2321.08,-140.49 2453,-145.06 2481.43,-146.05 2490.83,-149.22 2514.96,-149.92"/>
<polygon fill="black" stroke="black" points="2514.95,-153.42 2525,-150.06 2515.05,-146.42 2514.95,-153.42"/>
</g>
<!-- RawDetector[ReferenceRun] -->
<g id="node15" class="node">
<title>RawDetector[ReferenceRun]</title>
<polygon fill="none" stroke="black" points="363,-292.56 253,-292.56 253,-271.56 363,-271.56 363,-292.56"/>
<text text-anchor="start" x="261" y="-278.96" font-family="Times,serif" font-size="12.00">[ReferenceRun]</text>
</g>
<!-- RawDetector[ReferenceRun]&#45;&gt;Position[NXsource, ReferenceRun] -->
<g id="edge18" class="edge">
<title>RawDetector[ReferenceRun]:e&#45;&gt;Position[NXsource, ReferenceRun]:w</title>
<path fill="none" stroke="black" d="M364,-282.06C408.51,-282.06 405.13,-335.6 442.16,-343.97"/>
<polygon fill="black" stroke="black" points="442.19,-347.49 452.5,-345.06 442.92,-340.53 442.19,-347.49"/>
</g>
<!-- RawDetector[ReferenceRun]&#45;&gt;Position[NXsample, ReferenceRun] -->
<g id="edge16" class="edge">
<title>RawDetector[ReferenceRun]:e&#45;&gt;Position[NXsample, ReferenceRun]:w</title>
<path fill="none" stroke="black" d="M364,-282.06C400.78,-282.06 408.79,-305.26 440.4,-309.43"/>
<polygon fill="black" stroke="black" points="440.3,-312.93 450.5,-310.06 440.74,-305.94 440.3,-312.93"/>
</g>
<!-- RawDetector[ReferenceRun]&#45;&gt;DetectorRotation[ReferenceRun] -->
<g id="edge14" class="edge">
<title>RawDetector[ReferenceRun]:e&#45;&gt;DetectorRotation[ReferenceRun]:w</title>
<path fill="none" stroke="black" d="M364,-282.06C438.15,-282.06 410.66,-167.6 475.27,-156.87"/>
<polygon fill="black" stroke="black" points="475.81,-160.34 485.5,-156.06 475.26,-153.36 475.81,-160.34"/>
</g>
<!-- RawDetector[ReferenceRun]&#45;&gt;DetectorLtotal[ReferenceRun] -->
<g id="edge10" class="edge">
<title>RawDetector[ReferenceRun]:e&#45;&gt;DetectorLtotal[ReferenceRun]:w</title>
<path fill="none" stroke="black" d="M364,-282.06C376.35,-282.06 380.11,-277.57 388,-268.06 435.31,-211.05 383.45,-153.75 444,-111.06 479.42,-86.09 595.68,-109.97 639,-111.06 944.05,-118.76 1022.14,-145.45 1322.19,-146.05"/>
<polygon fill="black" stroke="black" points="1322.5,-149.55 1332.5,-146.06 1322.5,-142.55 1322.5,-149.55"/>
</g>
<!-- RawSampleRotation[ReferenceRun] -->
<g id="node29" class="node">
<title>RawSampleRotation[ReferenceRun]</title>
<polygon fill="none" stroke="black" points="596.5,-454.56 486.5,-454.56 486.5,-433.56 596.5,-433.56 596.5,-454.56"/>
<text text-anchor="start" x="494.5" y="-440.96" font-family="Times,serif" font-size="12.00">[ReferenceRun]</text>
</g>
<!-- RawDetector[ReferenceRun]&#45;&gt;RawSampleRotation[ReferenceRun] -->
<g id="edge24" class="edge">
<title>RawDetector[ReferenceRun]:e&#45;&gt;RawSampleRotation[ReferenceRun]:w</title>
<path fill="none" stroke="black" d="M364,-282.06C438.77,-282.06 386.83,-381.88 444,-430.06 455.98,-440.16 462.95,-443.07 475.35,-443.83"/>
<polygon fill="black" stroke="black" points="475.42,-447.33 485.5,-444.06 475.58,-440.33 475.42,-447.33"/>
</g>
<!-- TofDetector[ReferenceRun] -->
<g id="node34" class="node">
<title>TofDetector[ReferenceRun]</title>
<polygon fill="none" stroke="black" points="1713.5,-121.56 1603.5,-121.56 1603.5,-100.56 1713.5,-100.56 1713.5,-121.56"/>
<text text-anchor="start" x="1611.5" y="-107.96" font-family="Times,serif" font-size="12.00">[ReferenceRun]</text>
</g>
<!-- RawDetector[ReferenceRun]&#45;&gt;TofDetector[ReferenceRun] -->
<g id="edge58" class="edge">
<title>RawDetector[ReferenceRun]:e&#45;&gt;TofDetector[ReferenceRun]:w</title>
<path fill="none" stroke="black" d="M364,-282.06C376.35,-282.06 380.22,-277.66 388,-268.06 437.84,-206.6 381.68,-147.82 444,-99.06 621.29,39.66 724.05,-68.74 949,-60.06 1068.91,-55.44 1372.25,-32.33 1489,-60.06 1539.34,-72.02 1546.43,-106.24 1592.41,-110.6"/>
<polygon fill="black" stroke="black" points="1592.35,-114.1 1602.5,-111.06 1592.67,-107.11 1592.35,-114.1"/>
</g>
<!-- DetectorLtotal[ReferenceRun]&#45;&gt;TofDetector[ReferenceRun] -->
<g id="edge60" class="edge">
<title>DetectorLtotal[ReferenceRun]:e&#45;&gt;TofDetector[ReferenceRun]:w</title>
<path fill="none" stroke="black" d="M1444.5,-146.06C1512.91,-146.06 1529.06,-114.4 1592.36,-111.31"/>
<polygon fill="black" stroke="black" points="1592.59,-114.8 1602.5,-111.06 1592.42,-107.8 1592.59,-114.8"/>
</g>
<!-- RawDetector[SampleRun] -->
<g id="node17" class="node">
<title>RawDetector[SampleRun]</title>
<polygon fill="none" stroke="black" points="355.5,-267.56 260.5,-267.56 260.5,-246.56 355.5,-246.56 355.5,-267.56"/>
<text text-anchor="start" x="268.5" y="-253.96" font-family="Times,serif" font-size="12.00">[SampleRun]</text>
</g>
<!-- RawDetector[SampleRun]&#45;&gt;Position[NXsource, SampleRun] -->
<g id="edge19" class="edge">
<title>RawDetector[SampleRun]:e&#45;&gt;Position[NXsource, SampleRun]:w</title>
<path fill="none" stroke="black" d="M357,-257.06C399.64,-257.06 411.46,-272.36 449.29,-274.75"/>
<polygon fill="black" stroke="black" points="449.4,-278.26 459.5,-275.06 449.61,-271.26 449.4,-278.26"/>
</g>
<!-- RawDetector[SampleRun]&#45;&gt;Position[NXsample, SampleRun] -->
<g id="edge17" class="edge">
<title>RawDetector[SampleRun]:e&#45;&gt;Position[NXsample, SampleRun]:w</title>
<path fill="none" stroke="black" d="M357,-257.06C399.17,-257.06 410.98,-242.62 448.4,-240.36"/>
<polygon fill="black" stroke="black" points="448.61,-243.85 458.5,-240.06 448.4,-236.86 448.61,-243.85"/>
</g>
<!-- RawDetector[SampleRun]&#45;&gt;DetectorRotation[SampleRun] -->
<g id="edge15" class="edge">
<title>RawDetector[SampleRun]:e&#45;&gt;DetectorRotation[SampleRun]:w</title>
<path fill="none" stroke="black" d="M357,-257.06C420.03,-257.06 391.83,-180.43 444,-145.06 459.38,-134.64 467.16,-131.88 482.12,-131.24"/>
<polygon fill="black" stroke="black" points="482.56,-134.73 492.5,-131.06 482.44,-127.73 482.56,-134.73"/>
</g>
<!-- RawDetector[SampleRun]&#45;&gt;DetectorLtotal[SampleRun] -->
<g id="edge12" class="edge">
<title>RawDetector[SampleRun]:e&#45;&gt;DetectorLtotal[SampleRun]:w</title>
<path fill="none" stroke="black" d="M357,-257.06C437.16,-257.06 374.99,-139.85 444,-99.06 518.61,-54.97 552.34,-97.7 639,-99.06 946.95,-103.9 1026.24,-120.68 1329.09,-121.06"/>
<polygon fill="black" stroke="black" points="1329.5,-124.56 1339.5,-121.06 1329.5,-117.56 1329.5,-124.56"/>
</g>
<!-- RawSampleRotation[SampleRun] -->
<g id="node30" class="node">
<title>RawSampleRotation[SampleRun]</title>
<polygon fill="none" stroke="black" points="589,-429.56 494,-429.56 494,-408.56 589,-408.56 589,-429.56"/>
<text text-anchor="start" x="502" y="-415.96" font-family="Times,serif" font-size="12.00">[SampleRun]</text>
</g>
<!-- RawDetector[SampleRun]&#45;&gt;RawSampleRotation[SampleRun] -->
<g id="edge25" class="edge">
<title>RawDetector[SampleRun]:e&#45;&gt;RawSampleRotation[SampleRun]:w</title>
<path fill="none" stroke="black" d="M357,-257.06C430.21,-257.06 441.99,-390.93 444,-393.06 458.16,-408.08 465.54,-416.26 482.19,-418.46"/>
<polygon fill="black" stroke="black" points="482.31,-421.97 492.5,-419.06 482.72,-414.98 482.31,-421.97"/>
</g>
<!-- TofDetector[SampleRun] -->
<g id="node37" class="node">
<title>TofDetector[SampleRun]</title>
<polygon fill="none" stroke="black" points="1706,-96.56 1611,-96.56 1611,-75.56 1706,-75.56 1706,-96.56"/>
<text text-anchor="start" x="1619" y="-82.96" font-family="Times,serif" font-size="12.00">[SampleRun]</text>
</g>
<!-- RawDetector[SampleRun]&#45;&gt;TofDetector[SampleRun] -->
<g id="edge62" class="edge">
<title>RawDetector[SampleRun]:e&#45;&gt;TofDetector[SampleRun]:w</title>
<path fill="none" stroke="black" d="M357,-257.06C445.05,-257.06 373.89,-132.34 444,-79.06 568.17,15.29 633.05,-15.06 789,-15.06 789,-15.06 789,-15.06 1083.5,-15.06 1263.75,-15.06 1314.48,23.03 1489,-22.06 1544.27,-36.35 1548.53,-80.46 1599.43,-85.58"/>
<polygon fill="black" stroke="black" points="1599.34,-89.08 1609.5,-86.06 1599.68,-82.08 1599.34,-89.08"/>
</g>
<!-- DetectorLtotal[SampleRun]&#45;&gt;TofDetector[SampleRun] -->
<g id="edge63" class="edge">
<title>DetectorLtotal[SampleRun]:e&#45;&gt;TofDetector[SampleRun]:w</title>
<path fill="none" stroke="black" d="M1437.5,-121.06C1512.01,-121.06 1529.93,-89.14 1599.35,-86.27"/>
<polygon fill="black" stroke="black" points="1599.57,-89.77 1609.5,-86.06 1599.43,-82.77 1599.57,-89.77"/>
</g>
<!-- DetectorSpatialResolution[SampleRun] -->
<g id="node19" class="node">
<title>DetectorSpatialResolution[SampleRun]</title>
<polygon fill="none" stroke="black" points="2453,-216.56 2156,-216.56 2156,-193.56 2453,-193.56 2453,-216.56"/>
<text text-anchor="middle" x="2304.5" y="-201.36" font-family="Times,serif" font-size="14.00">DetectorSpatialResolution[SampleRun]</text>
</g>
<!-- DetectorSpatialResolution[SampleRun]&#45;&gt;Reference -->
<g id="edge44" class="edge">
<title>DetectorSpatialResolution[SampleRun]:e&#45;&gt;Reference:w</title>
<path fill="none" stroke="black" d="M2453,-205.06C2518.39,-205.06 2537.23,-205.06 2597.89,-205.06"/>
<polygon fill="black" stroke="black" points="2598,-208.56 2608,-205.06 2598,-201.56 2598,-208.56"/>
</g>
<!-- Filename[ReferenceRun] -->
<g id="node20" class="node">
<title>Filename[ReferenceRun]</title>
<polygon fill="none" stroke="black" points="141,-292.56 31,-292.56 31,-271.56 141,-271.56 141,-292.56"/>
<text text-anchor="start" x="39" y="-278.96" font-family="Times,serif" font-size="12.00">[ReferenceRun]</text>
</g>
<!-- Filename[ReferenceRun]&#45;&gt;RawDetector[ReferenceRun] -->
<g id="edge20" class="edge">
<title>Filename[ReferenceRun]:e&#45;&gt;RawDetector[ReferenceRun]:w</title>
<path fill="none" stroke="black" d="M142,-282.06C187.36,-282.06 201.15,-282.06 241.95,-282.06"/>
<polygon fill="black" stroke="black" points="242,-285.56 252,-282.06 242,-278.56 242,-285.56"/>
</g>
<!-- Filename[SampleRun] -->
<g id="node21" class="node">
<title>Filename[SampleRun]</title>
<polygon fill="none" stroke="black" points="133.5,-267.56 38.5,-267.56 38.5,-246.56 133.5,-246.56 133.5,-267.56"/>
<text text-anchor="start" x="46.5" y="-253.96" font-family="Times,serif" font-size="12.00">[SampleRun]</text>
</g>
<!-- Filename[SampleRun]&#45;&gt;RawDetector[SampleRun] -->
<g id="edge22" class="edge">
<title>Filename[SampleRun]:e&#45;&gt;RawDetector[SampleRun]:w</title>
<path fill="none" stroke="black" d="M135,-257.06C186.56,-257.06 201.94,-257.06 248.84,-257.06"/>
<polygon fill="black" stroke="black" points="249,-260.56 259,-257.06 249,-253.56 249,-260.56"/>
</g>
<!-- MValue -->
<g id="node22" class="node">
<title>MValue</title>
<polygon fill="none" stroke="black" points="1991,-139.56 1921,-139.56 1921,-116.56 1991,-116.56 1991,-139.56"/>
<text text-anchor="middle" x="1956" y="-124.36" font-family="Times,serif" font-size="14.00">MValue</text>
</g>
<!-- MValue&#45;&gt;ReducedReference -->
<g id="edge29" class="edge">
<title>MValue:e&#45;&gt;ReducedReference:w</title>
<path fill="none" stroke="black" d="M1992,-128.06C2094.77,-128.06 2120.67,-159.91 2218.48,-161.96"/>
<polygon fill="black" stroke="black" points="2218.46,-165.46 2228.5,-162.06 2218.54,-158.46 2218.46,-165.46"/>
</g>
<!-- MValue&#45;&gt;Sample -->
<g id="edge51" class="edge">
<title>MValue:e&#45;&gt;Sample:w</title>
<path fill="none" stroke="black" d="M1992,-128.06C2196.97,-128.06 2248.63,-125.44 2453,-141.06 2481.51,-143.24 2490.71,-148.63 2514.92,-149.83"/>
<polygon fill="black" stroke="black" points="2514.92,-153.33 2525,-150.06 2515.08,-146.33 2514.92,-153.33"/>
</g>
<!-- ProtonCurrent[ReferenceRun] -->
<g id="node23" class="node">
<title>ProtonCurrent[ReferenceRun]</title>
<polygon fill="none" stroke="black" points="1713.5,-239.56 1603.5,-239.56 1603.5,-218.56 1713.5,-218.56 1713.5,-239.56"/>
<text text-anchor="start" x="1611.5" y="-225.96" font-family="Times,serif" font-size="12.00">[ReferenceRun]</text>
</g>
<!-- ProtonCurrent[ReferenceRun]&#45;&gt;ReducibleData[ReferenceRun] -->
<g id="edge36" class="edge">
<title>ProtonCurrent[ReferenceRun]:e&#45;&gt;ReducibleData[ReferenceRun]:w</title>
<path fill="none" stroke="black" d="M1714.5,-229.06C1793.4,-229.06 1815.67,-229.06 1889.71,-229.06"/>
<polygon fill="black" stroke="black" points="1890,-232.56 1900,-229.06 1890,-225.56 1890,-232.56"/>
</g>
<!-- ProtonCurrent[SampleRun] -->
<g id="node24" class="node">
<title>ProtonCurrent[SampleRun]</title>
<polygon fill="none" stroke="black" points="1706,-214.56 1611,-214.56 1611,-193.56 1706,-193.56 1706,-214.56"/>
<text text-anchor="start" x="1619" y="-200.96" font-family="Times,serif" font-size="12.00">[SampleRun]</text>
</g>
<!-- ProtonCurrent[SampleRun]&#45;&gt;ReducibleData[SampleRun] -->
<g id="edge39" class="edge">
<title>ProtonCurrent[SampleRun]:e&#45;&gt;ReducibleData[SampleRun]:w</title>
<path fill="none" stroke="black" d="M1707.5,-204.06C1792.7,-204.06 1816.5,-204.06 1896.91,-204.06"/>
<polygon fill="black" stroke="black" points="1897,-207.56 1907,-204.06 1897,-200.56 1897,-207.56"/>
</g>
<!-- PulseStrideOffset -->
<g id="node25" class="node">
<title>PulseStrideOffset</title>
<polygon fill="none" stroke="black" points="1460,-45.56 1317,-45.56 1317,-22.56 1460,-22.56 1460,-45.56"/>
<text text-anchor="middle" x="1388.5" y="-30.36" font-family="Times,serif" font-size="14.00">PulseStrideOffset</text>
</g>
<!-- PulseStrideOffset&#45;&gt;TofDetector[ReferenceRun] -->
<g id="edge61" class="edge">
<title>PulseStrideOffset:e&#45;&gt;TofDetector[ReferenceRun]:w</title>
<path fill="none" stroke="black" stroke-width="2" d="M1461.5,-34.06C1510.51,-34.06 1525.03,-70.34 1552.4,-93.09"/>
<polygon fill="black" stroke="black" stroke-width="2" points="1550.39,-95.95 1560.5,-99.11 1554.56,-90.33 1550.39,-95.95"/>
</g>
<!-- QBins -->
<g id="node26" class="node">
<title>QBins</title>
<polygon fill="none" stroke="black" points="2711.5,-248.56 2652.5,-248.56 2652.5,-225.56 2711.5,-225.56 2711.5,-248.56"/>
<text text-anchor="middle" x="2682" y="-233.36" font-family="Times,serif" font-size="14.00">QBins</text>
</g>
<!-- ReflectivityOverQ -->
<g id="node41" class="node">
<title>ReflectivityOverQ</title>
<polygon fill="none" stroke="black" points="3075,-221.56 2911,-221.56 2911,-188.56 3075,-188.56 3075,-221.56"/>
<text text-anchor="start" x="2929.5" y="-207.36" font-family="Times,serif" font-size="14.00">ReflectivityOverQ</text>
<text text-anchor="start" x="2919" y="-195.76" font-family="Times,serif" font-size="11.00">via:</text>
<text text-anchor="start" x="2940" y="-195.76" font-family="Times,serif" font-style="italic" font-size="11.00">reduce_sample_over_q</text>
</g>
<!-- QBins&#45;&gt;ReflectivityOverQ -->
<g id="edge47" class="edge">
<title>QBins:e&#45;&gt;ReflectivityOverQ:w</title>
<path fill="none" stroke="black" d="M2713,-237.06C2769.4,-237.06 2783.47,-231.89 2839,-222.06 2867.71,-216.98 2876.26,-207.55 2900.76,-205.47"/>
<polygon fill="black" stroke="black" points="2901.15,-208.96 2911,-205.06 2900.87,-201.97 2901.15,-208.96"/>
</g>
<!-- SampleRotationOffset[ReferenceRun] -->
<g id="node27" class="node">
<title>SampleRotationOffset[ReferenceRun]</title>
<polygon fill="none" stroke="black" points="141,-496.56 31,-496.56 31,-475.56 141,-475.56 141,-496.56"/>
<text text-anchor="start" x="39" y="-482.96" font-family="Times,serif" font-size="12.00">[ReferenceRun]</text>
</g>
<!-- SampleRotationOffset[ReferenceRun]&#45;&gt;SampleRotation[ReferenceRun] -->
<g id="edge54" class="edge">
<title>SampleRotationOffset[ReferenceRun]:e&#45;&gt;SampleRotation[ReferenceRun]:w</title>
<path fill="none" stroke="black" d="M142,-486.06C182.11,-486.06 189.25,-504.68 229,-510.06 409.57,-534.51 465.11,-564.54 639,-510.06 684.61,-495.77 683.09,-451.01 723.96,-444.78"/>
<polygon fill="black" stroke="black" points="724.28,-448.27 734,-444.06 723.77,-441.29 724.28,-448.27"/>
</g>
<!-- SampleRotationOffset[ReferenceRun]&#45;&gt;RawDetector[ReferenceRun] -->
<g id="edge21" class="edge">
<title>SampleRotationOffset[ReferenceRun]:e&#45;&gt;RawDetector[ReferenceRun]:w</title>
<path fill="none" stroke="black" d="M142,-486.06C241.39,-486.06 155.5,-296.15 241.86,-282.8"/>
<polygon fill="black" stroke="black" points="242.28,-286.28 252,-282.06 241.77,-279.3 242.28,-286.28"/>
</g>
<!-- SampleRotationOffset[SampleRun] -->
<g id="node28" class="node">
<title>SampleRotationOffset[SampleRun]</title>
<polygon fill="none" stroke="black" points="133.5,-471.56 38.5,-471.56 38.5,-450.56 133.5,-450.56 133.5,-471.56"/>
<text text-anchor="start" x="46.5" y="-457.96" font-family="Times,serif" font-size="12.00">[SampleRun]</text>
</g>
<!-- SampleRotationOffset[SampleRun]&#45;&gt;SampleRotation[SampleRun] -->
<g id="edge56" class="edge">
<title>SampleRotationOffset[SampleRun]:e&#45;&gt;SampleRotation[SampleRun]:w</title>
<path fill="none" stroke="black" d="M135,-461.06C247.29,-461.06 535.09,-539.62 639,-497.06 688.41,-476.83 684.69,-426.19 730.74,-419.74"/>
<polygon fill="black" stroke="black" points="731.25,-423.22 741,-419.06 730.79,-416.23 731.25,-423.22"/>
</g>
<!-- SampleRotationOffset[SampleRun]&#45;&gt;RawDetector[SampleRun] -->
<g id="edge23" class="edge">
<title>SampleRotationOffset[SampleRun]:e&#45;&gt;RawDetector[SampleRun]:w</title>
<path fill="none" stroke="black" d="M135,-461.06C237.48,-461.06 158.7,-270.77 248.79,-257.76"/>
<polygon fill="black" stroke="black" points="249.26,-261.24 259,-257.06 248.78,-254.25 249.26,-261.24"/>
</g>
<!-- RawSampleRotation[ReferenceRun]&#45;&gt;SampleRotation[ReferenceRun] -->
<g id="edge53" class="edge">
<title>RawSampleRotation[ReferenceRun]:e&#45;&gt;SampleRotation[ReferenceRun]:w</title>
<path fill="none" stroke="black" d="M597.5,-444.06C654.61,-444.06 671.4,-444.06 723.79,-444.06"/>
<polygon fill="black" stroke="black" points="724,-447.56 734,-444.06 724,-440.56 724,-447.56"/>
</g>
<!-- RawSampleRotation[SampleRun]&#45;&gt;SampleRotation[SampleRun] -->
<g id="edge55" class="edge">
<title>RawSampleRotation[SampleRun]:e&#45;&gt;SampleRotation[SampleRun]:w</title>
<path fill="none" stroke="black" d="M590.5,-419.06C653.86,-419.06 672.21,-419.06 730.82,-419.06"/>
<polygon fill="black" stroke="black" points="731,-422.56 741,-419.06 731,-415.56 731,-422.56"/>
</g>
<!-- ReducibleData[ReferenceRun]&#45;&gt;ReducedReference -->
<g id="edge26" class="edge">
<title>ReducibleData[ReferenceRun]:e&#45;&gt;ReducedReference:w</title>
<path fill="none" stroke="black" d="M2012,-229.06C2048.1,-229.06 2057.23,-224.75 2092,-215.06 2151.26,-198.55 2162.3,-165.9 2218.31,-162.37"/>
<polygon fill="black" stroke="black" points="2218.61,-165.87 2228.5,-162.06 2218.4,-158.87 2218.61,-165.87"/>
</g>
<!-- ReducedReference&#45;&gt;Reference -->
<g id="edge41" class="edge">
<title>ReducedReference:e&#45;&gt;Reference:w</title>
<path fill="none" stroke="black" d="M2380.5,-162.06C2479.88,-162.06 2503.52,-202.17 2597.73,-204.92"/>
<polygon fill="black" stroke="black" points="2597.95,-208.42 2608,-205.06 2598.05,-201.42 2597.95,-208.42"/>
</g>
<!-- ReducedReference&#45;&gt;Sample -->
<g id="edge49" class="edge">
<title>ReducedReference:e&#45;&gt;Sample:w</title>
<path fill="none" stroke="black" d="M2380.5,-162.06C2441.42,-162.06 2458.7,-151.34 2514.85,-150.17"/>
<polygon fill="black" stroke="black" points="2515.04,-153.67 2525,-150.06 2514.96,-146.67 2515.04,-153.67"/>
</g>
<!-- WavelengthBins -->
<g id="node33" class="node">
<title>WavelengthBins</title>
<polygon fill="none" stroke="black" points="1724.5,-58.56 1592.5,-58.56 1592.5,-35.56 1724.5,-35.56 1724.5,-58.56"/>
<text text-anchor="middle" x="1658.5" y="-43.36" font-family="Times,serif" font-size="14.00">WavelengthBins</text>
</g>
<!-- WavelengthBins&#45;&gt;ReducibleData[ReferenceRun] -->
<g id="edge35" class="edge">
<title>WavelengthBins:e&#45;&gt;ReducibleData[ReferenceRun]:w</title>
<path fill="none" stroke="black" stroke-width="2" d="M1725.5,-47.06C1741.66,-47.06 1745.94,-53.83 1756.5,-66.06 1801.23,-117.9 1767.29,-165.46 1812.41,-208.47"/>
<polygon fill="black" stroke="black" stroke-width="2" points="1810.15,-211.15 1820,-215.06 1814.74,-205.87 1810.15,-211.15"/>
</g>
<!-- WavelengthBins&#45;&gt;ReducedReference -->
<g id="edge27" class="edge">
<title>WavelengthBins:e&#45;&gt;ReducedReference:w</title>
<path fill="none" stroke="black" d="M1725.5,-47.06C1741.66,-47.06 1745.01,-54.7 1756.5,-66.06 1794.21,-103.34 1773.59,-141.42 1820,-167.06 1857.48,-187.77 2147.39,-164.96 2218.21,-162.31"/>
<polygon fill="black" stroke="black" points="2218.59,-165.8 2228.5,-162.06 2218.42,-158.8 2218.59,-165.8"/>
</g>
<!-- TofDetector[ReferenceRun]&#45;&gt;ReducibleData[ReferenceRun] -->
<g id="edge31" class="edge">
<title>TofDetector[ReferenceRun]:e&#45;&gt;ReducibleData[ReferenceRun]:w</title>
<path fill="none" stroke="black" d="M1714.5,-111.06C1780.34,-111.06 1761.47,-184.91 1820,-215.06 1848.83,-229.92 1861.29,-229.38 1889.71,-229.12"/>
<polygon fill="black" stroke="black" points="1890.02,-232.62 1900,-229.06 1889.98,-225.62 1890.02,-232.62"/>
</g>
<!-- YIndexLimits -->
<g id="node35" class="node">
<title>YIndexLimits</title>
<polygon fill="none" stroke="black" points="1713.5,-302.56 1603.5,-302.56 1603.5,-279.56 1713.5,-279.56 1713.5,-302.56"/>
<text text-anchor="middle" x="1658.5" y="-287.36" font-family="Times,serif" font-size="14.00">YIndexLimits</text>
</g>
<!-- YIndexLimits&#45;&gt;ReducibleData[ReferenceRun] -->
<g id="edge32" class="edge">
<title>YIndexLimits:e&#45;&gt;ReducibleData[ReferenceRun]:w</title>
<path fill="none" stroke="black" stroke-width="2" d="M1714.5,-291.06C1760.43,-291.06 1785.35,-273.75 1811.46,-257.42"/>
<polygon fill="black" stroke="black" stroke-width="2" points="1813.31,-260.39 1820,-252.18 1809.65,-254.43 1813.31,-260.39"/>
</g>
<!-- ZIndexLimits -->
<g id="node36" class="node">
<title>ZIndexLimits</title>
<polygon fill="none" stroke="black" points="1714,-329.56 1603,-329.56 1603,-306.56 1714,-306.56 1714,-329.56"/>
<text text-anchor="middle" x="1658.5" y="-314.36" font-family="Times,serif" font-size="14.00">ZIndexLimits</text>
</g>
<!-- ZIndexLimits&#45;&gt;ReducibleData[ReferenceRun] -->
<g id="edge33" class="edge">
<title>ZIndexLimits:e&#45;&gt;ReducibleData[ReferenceRun]:w</title>
<path fill="none" stroke="black" stroke-width="2" d="M1714.5,-318.06C1763.56,-318.06 1787.05,-292.44 1812.41,-268.69"/>
<polygon fill="black" stroke="black" stroke-width="2" points="1814.99,-271.08 1820,-261.74 1810.27,-265.92 1814.99,-271.08"/>
</g>
<!-- TofDetector[SampleRun]&#45;&gt;ReducibleData[SampleRun] -->
<g id="edge38" class="edge">
<title>TofDetector[SampleRun]:e&#45;&gt;ReducibleData[SampleRun]:w</title>
<path fill="none" stroke="black" d="M1707.5,-86.06C1730.15,-86.06 1737.59,-87.6 1756.5,-100.06 1793.82,-124.67 1782.83,-153.23 1820,-178.06 1850.54,-198.47 1864.13,-203.27 1896.75,-203.97"/>
<polygon fill="black" stroke="black" points="1896.97,-207.47 1907,-204.06 1897.03,-200.47 1896.97,-207.47"/>
</g>
<!-- ReducibleData[SampleRun]&#45;&gt;Reference -->
<g id="edge42" class="edge">
<title>ReducibleData[SampleRun]:e&#45;&gt;Reference:w</title>
<path fill="none" stroke="black" d="M2005,-204.06C2072.36,-204.06 2088.7,-214.17 2156,-217.06 2287.88,-222.73 2321.1,-222.16 2453,-217.06 2518.54,-214.53 2537.06,-205.99 2597.86,-205.13"/>
<polygon fill="black" stroke="black" points="2598.02,-208.63 2608,-205.06 2597.98,-201.63 2598.02,-208.63"/>
</g>
<!-- ReducibleData[SampleRun]&#45;&gt;Sample -->
<g id="edge48" class="edge">
<title>ReducibleData[SampleRun]:e&#45;&gt;Sample:w</title>
<path fill="none" stroke="black" d="M2005,-204.06C2072.29,-204.06 2088.83,-197.09 2156,-193.06 2221.95,-189.11 2388.45,-193.16 2453,-179.06 2483.02,-172.51 2489.31,-154.63 2514.7,-150.79"/>
<polygon fill="black" stroke="black" points="2515.27,-154.26 2525,-150.06 2514.78,-147.28 2515.27,-154.26"/>
</g>
<!-- Reference&#45;&gt;ReflectivityOverQ -->
<g id="edge46" class="edge">
<title>Reference:e&#45;&gt;ReflectivityOverQ:w</title>
<path fill="none" stroke="black" d="M2756,-205.06C2821.39,-205.06 2840.23,-205.06 2900.89,-205.06"/>
<polygon fill="black" stroke="black" points="2901,-208.56 2911,-205.06 2901,-201.56 2901,-208.56"/>
</g>
<!-- Sample&#45;&gt;ReflectivityOverQ -->
<g id="edge45" class="edge">
<title>Sample:e&#45;&gt;ReflectivityOverQ:w</title>
<path fill="none" stroke="black" d="M2839,-150.06C2875.49,-150.06 2871.9,-195.23 2900.88,-203.7"/>
<polygon fill="black" stroke="black" points="2900.62,-207.2 2911,-205.06 2901.56,-200.26 2900.62,-207.2"/>
</g>
<!-- TimeOfFlightLookupTableFilename -->
<g id="node42" class="node">
<title>TimeOfFlightLookupTableFilename</title>
<polygon fill="none" stroke="black" points="1216,-83.56 949,-83.56 949,-60.56 1216,-60.56 1216,-83.56"/>
<text text-anchor="middle" x="1082.5" y="-68.36" font-family="Times,serif" font-size="14.00">TimeOfFlightLookupTableFilename</text>
</g>
<!-- TimeOfFlightLookupTable -->
<g id="node43" class="node">
<title>TimeOfFlightLookupTable</title>
<polygon fill="none" stroke="black" points="1489,-93.56 1288,-93.56 1288,-60.56 1489,-60.56 1489,-93.56"/>
<text text-anchor="start" x="1296" y="-79.36" font-family="Times,serif" font-size="14.00">TimeOfFlightLookupTable</text>
<text text-anchor="start" x="1317.5" y="-67.76" font-family="Times,serif" font-size="11.00">via:</text>
<text text-anchor="start" x="1338.5" y="-67.76" font-family="Times,serif" font-style="italic" font-size="11.00">load_tof_lookup_table</text>
</g>
<!-- TimeOfFlightLookupTableFilename&#45;&gt;TimeOfFlightLookupTable -->
<g id="edge57" class="edge">
<title>TimeOfFlightLookupTableFilename:e&#45;&gt;TimeOfFlightLookupTable:w</title>
<path fill="none" stroke="black" d="M1216,-72.06C1244.44,-72.06 1253.83,-75.99 1277.96,-76.89"/>
<polygon fill="black" stroke="black" points="1277.94,-80.39 1288,-77.06 1278.06,-73.39 1277.94,-80.39"/>
</g>
<!-- TimeOfFlightLookupTable&#45;&gt;TofDetector[ReferenceRun] -->
<g id="edge59" class="edge">
<title>TimeOfFlightLookupTable:e&#45;&gt;TofDetector[ReferenceRun]:w</title>
<path fill="none" stroke="black" stroke-width="2" d="M1489,-77.06C1518.5,-77.06 1534.04,-87.73 1551.26,-97.12"/>
<polygon fill="black" stroke="black" stroke-width="2" points="1550.01,-100.41 1560.5,-101.84 1553.19,-94.17 1550.01,-100.41"/>
</g>
</g>
</svg>
