<?xml version="1.0" encoding="UTF-8" standalone="no"?>
<!DOCTYPE svg PUBLIC "-//W3C//DTD SVG 1.1//EN"
 "http://www.w3.org/Graphics/SVG/1.1/DTD/svg11.dtd">
<!-- Generated by graphviz version 2.43.0 (0)
 -->
<!-- Title: %3 Pages: 1 -->
<svg width="2210pt" height="337pt"
 viewBox="0.00 0.00 2210.00 337.00" xmlns="http://www.w3.org/2000/svg" xmlns:xlink="http://www.w3.org/1999/xlink">
<g id="graph0" class="graph" transform="scale(1 1) rotate(0) translate(4 333)">
<title>%3</title>
<polygon fill="white" stroke="transparent" points="-4,4 -4,-333 2206,-333 2206,4 -4,4"/>
<!-- Alpha -->
<g id="node1" class="node">
<title>Alpha</title>
<polygon fill="none" stroke="black" points="1460,-129 1403,-129 1403,-106 1460,-106 1460,-129"/>
<text text-anchor="middle" x="1431.5" y="-113.8" font-family="Times,serif" font-size="14.00">Alpha</text>
</g>
<!-- Sample -->
<g id="node30" class="node">
<title>Sample</title>
<polygon fill="none" stroke="black" points="1966,-172 1652,-172 1652,-139 1966,-139 1966,-172"/>
<text text-anchor="start" x="1782" y="-157.8" font-family="Times,serif" font-size="14.00">Sample</text>
<text text-anchor="start" x="1660" y="-146.2" font-family="Times,serif" font-size="11.00">via:</text>
<text text-anchor="start" x="1681" y="-146.2" font-family="Times,serif" font-style="italic" font-size="11.00">mask_events_where_supermirror_does_not_cover</text>
</g>
<!-- Alpha&#45;&gt;Sample -->
<g id="edge37" class="edge">
<title>Alpha:e&#45;&gt;Sample:w</title>
<path fill="none" stroke="black" d="M1461.5,-117.5C1514.59,-117.5 1528.16,-121.04 1580,-132.5 1609.21,-138.96 1616.86,-152.16 1641.91,-154.97"/>
<polygon fill="black" stroke="black" points="1641.83,-158.47 1652,-155.5 1642.2,-151.48 1641.83,-158.47"/>
</g>
<!-- BeamDivergenceLimits -->
<g id="node2" class="node">
<title>BeamDivergenceLimits</title>
<polygon fill="none" stroke="black" points="1190.5,-231 1007.5,-231 1007.5,-208 1190.5,-208 1190.5,-231"/>
<text text-anchor="middle" x="1099" y="-215.8" font-family="Times,serif" font-size="14.00">BeamDivergenceLimits</text>
</g>
<!-- ReducibleData[SampleRun] -->
<g id="node25" class="node">
<title>ReducibleData[SampleRun]</title>
<polygon fill="none" stroke="black" points="1567.5,-220 1295.5,-220 1295.5,-187 1567.5,-187 1567.5,-220"/>
<text text-anchor="start" x="1333" y="-205.8" font-family="Times,serif" font-size="14.00">ReducibleData[SampleRun]</text>
<text text-anchor="start" x="1303.5" y="-194.2" font-family="Times,serif" font-size="11.00">via:</text>
<text text-anchor="start" x="1324.5" y="-194.2" font-family="Times,serif" font-style="italic" font-size="11.00">add_coords_masks_and_apply_corrections</text>
</g>
<!-- BeamDivergenceLimits&#45;&gt;ReducibleData[SampleRun] -->
<g id="edge22" class="edge">
<title>BeamDivergenceLimits:e&#45;&gt;ReducibleData[SampleRun]:w</title>
<path fill="none" stroke="black" d="M1192,-219.5C1234.51,-219.5 1246.57,-205.9 1284.32,-203.78"/>
<polygon fill="black" stroke="black" points="1284.6,-207.27 1294.5,-203.5 1284.41,-200.27 1284.6,-207.27"/>
</g>
<!-- BeamSize[SampleRun] -->
<g id="node3" class="node">
<title>BeamSize[SampleRun]</title>
<polygon fill="none" stroke="black" points="880.5,-264 701.5,-264 701.5,-241 880.5,-241 880.5,-264"/>
<text text-anchor="middle" x="791" y="-248.8" font-family="Times,serif" font-size="14.00">BeamSize[SampleRun]</text>
</g>
<!-- DetectorData[SampleRun] -->
<g id="node13" class="node">
<title>DetectorData[SampleRun]</title>
<polygon fill="none" stroke="black" points="1201.5,-204 996.5,-204 996.5,-171 1201.5,-171 1201.5,-204"/>
<text text-anchor="start" x="1004.5" y="-189.8" font-family="Times,serif" font-size="14.00">DetectorData[SampleRun]</text>
<text text-anchor="start" x="1055" y="-178.2" font-family="Times,serif" font-size="11.00">via:</text>
<text text-anchor="start" x="1076" y="-178.2" font-family="Times,serif" font-style="italic" font-size="11.00">load_events</text>
</g>
<!-- BeamSize[SampleRun]&#45;&gt;DetectorData[SampleRun] -->
<g id="edge12" class="edge">
<title>BeamSize[SampleRun]:e&#45;&gt;DetectorData[SampleRun]:w</title>
<path fill="none" stroke="black" d="M882,-252.5C936.68,-252.5 937.77,-195.37 985.75,-188.23"/>
<polygon fill="black" stroke="black" points="986.27,-191.7 996,-187.5 985.78,-184.72 986.27,-191.7"/>
</g>
<!-- RawChopper[SampleRun] -->
<g id="node4" class="node">
<title>RawChopper[SampleRun]</title>
<polygon fill="none" stroke="black" points="532,-172 332,-172 332,-139 532,-139 532,-172"/>
<text text-anchor="start" x="340" y="-157.8" font-family="Times,serif" font-size="14.00">RawChopper[SampleRun]</text>
<text text-anchor="start" x="381.5" y="-146.2" font-family="Times,serif" font-size="11.00">via:</text>
<text text-anchor="start" x="402.5" y="-146.2" font-family="Times,serif" font-style="italic" font-size="11.00">amor_chopper</text>
</g>
<!-- ChopperDistance[SampleRun] -->
<g id="node5" class="node">
<title>ChopperDistance[SampleRun]</title>
<polygon fill="none" stroke="black" points="907,-172 675,-172 675,-139 907,-139 907,-172"/>
<text text-anchor="start" x="683" y="-157.8" font-family="Times,serif" font-size="14.00">ChopperDistance[SampleRun]</text>
<text text-anchor="start" x="699.5" y="-146.2" font-family="Times,serif" font-size="11.00">via:</text>
<text text-anchor="start" x="720.5" y="-146.2" font-family="Times,serif" font-style="italic" font-size="11.00">load_amor_chopper_distance</text>
</g>
<!-- RawChopper[SampleRun]&#45;&gt;ChopperDistance[SampleRun] -->
<g id="edge1" class="edge">
<title>RawChopper[SampleRun]:e&#45;&gt;ChopperDistance[SampleRun]:w</title>
<path fill="none" stroke="black" d="M533,-155.5C592.12,-155.5 609.41,-155.5 663.79,-155.5"/>
<polygon fill="black" stroke="black" points="664,-159 674,-155.5 664,-152 664,-159"/>
</g>
<!-- ChopperSeparation[SampleRun] -->
<g id="node8" class="node">
<title>ChopperSeparation[SampleRun]</title>
<polygon fill="none" stroke="black" points="915,-135 667,-135 667,-102 915,-102 915,-135"/>
<text text-anchor="start" x="675" y="-120.8" font-family="Times,serif" font-size="14.00">ChopperSeparation[SampleRun]</text>
<text text-anchor="start" x="693" y="-109.2" font-family="Times,serif" font-size="11.00">via:</text>
<text text-anchor="start" x="714" y="-109.2" font-family="Times,serif" font-style="italic" font-size="11.00">load_amor_chopper_separation</text>
</g>
<!-- RawChopper[SampleRun]&#45;&gt;ChopperSeparation[SampleRun] -->
<g id="edge2" class="edge">
<title>RawChopper[SampleRun]:e&#45;&gt;ChopperSeparation[SampleRun]:w</title>
<path fill="none" stroke="black" d="M533,-155.5C591.28,-155.5 603.87,-122.57 656.98,-118.84"/>
<polygon fill="black" stroke="black" points="657.13,-122.34 667,-118.5 656.89,-115.34 657.13,-122.34"/>
</g>
<!-- ChopperDistance[SampleRun]&#45;&gt;DetectorData[SampleRun] -->
<g id="edge9" class="edge">
<title>ChopperDistance[SampleRun]:e&#45;&gt;DetectorData[SampleRun]:w</title>
<path fill="none" stroke="black" d="M908,-155.5C945.88,-155.5 953.23,-182.01 985.62,-186.77"/>
<polygon fill="black" stroke="black" points="985.78,-190.29 996,-187.5 986.27,-183.31 985.78,-190.29"/>
</g>
<!-- ChopperFrequency[SampleRun] -->
<g id="node6" class="node">
<title>ChopperFrequency[SampleRun]</title>
<polygon fill="none" stroke="black" points="913.5,-226 668.5,-226 668.5,-203 913.5,-203 913.5,-226"/>
<text text-anchor="middle" x="791" y="-210.8" font-family="Times,serif" font-size="14.00">ChopperFrequency[SampleRun]</text>
</g>
<!-- ChopperFrequency[SampleRun]&#45;&gt;DetectorData[SampleRun] -->
<g id="edge8" class="edge">
<title>ChopperFrequency[SampleRun]:e&#45;&gt;DetectorData[SampleRun]:w</title>
<path fill="none" stroke="black" d="M915,-214.5C949.24,-214.5 956.74,-192.52 985.76,-188.22"/>
<polygon fill="black" stroke="black" points="986.27,-191.7 996,-187.5 985.78,-184.71 986.27,-191.7"/>
</g>
<!-- ChopperPhase[SampleRun] -->
<g id="node7" class="node">
<title>ChopperPhase[SampleRun]</title>
<polygon fill="none" stroke="black" points="897,-199 685,-199 685,-176 897,-176 897,-199"/>
<text text-anchor="middle" x="791" y="-183.8" font-family="Times,serif" font-size="14.00">ChopperPhase[SampleRun]</text>
</g>
<!-- ChopperPhase[SampleRun]&#45;&gt;DetectorData[SampleRun] -->
<g id="edge7" class="edge">
<title>ChopperPhase[SampleRun]:e&#45;&gt;DetectorData[SampleRun]:w</title>
<path fill="none" stroke="black" d="M898,-187.5C937.98,-187.5 950.44,-187.5 985.9,-187.5"/>
<polygon fill="black" stroke="black" points="986,-191 996,-187.5 986,-184 986,-191"/>
</g>
<!-- ChopperSeparation[SampleRun]&#45;&gt;DetectorData[SampleRun] -->
<g id="edge10" class="edge">
<title>ChopperSeparation[SampleRun]:e&#45;&gt;DetectorData[SampleRun]:w</title>
<path fill="none" stroke="black" d="M915,-118.5C958.6,-118.5 950.46,-177.14 985.97,-186.3"/>
<polygon fill="black" stroke="black" points="985.66,-189.79 996,-187.5 986.49,-182.84 985.66,-189.79"/>
</g>
<!-- GravityToggle -->
<g id="node9" class="node">
<title>GravityToggle</title>
<polygon fill="none" stroke="black" points="849.5,-329 732.5,-329 732.5,-306 849.5,-306 849.5,-329"/>
<text text-anchor="middle" x="791" y="-313.8" font-family="Times,serif" font-size="14.00">GravityToggle</text>
</g>
<!-- CoordTransformationGraph -->
<g id="node10" class="node">
<title>CoordTransformationGraph</title>
<polygon fill="none" stroke="black" points="1211,-295 987,-295 987,-262 1211,-262 1211,-295"/>
<text text-anchor="start" x="1000" y="-280.8" font-family="Times,serif" font-size="14.00">CoordTransformationGraph</text>
<text text-anchor="start" x="995" y="-269.2" font-family="Times,serif" font-size="11.00">via:</text>
<text text-anchor="start" x="1016" y="-269.2" font-family="Times,serif" font-style="italic" font-size="11.00">coordinate_transformation_graph</text>
</g>
<!-- GravityToggle&#45;&gt;CoordTransformationGraph -->
<g id="edge3" class="edge">
<title>GravityToggle:e&#45;&gt;CoordTransformationGraph:w</title>
<path fill="none" stroke="black" d="M851,-317.5C880.22,-317.5 886.89,-310.46 915,-302.5 943.9,-294.31 951.68,-281.67 976.86,-279"/>
<polygon fill="black" stroke="black" points="977.19,-282.49 987,-278.5 976.84,-275.5 977.19,-282.49"/>
</g>
<!-- CoordTransformationGraph&#45;&gt;ReducibleData[SampleRun] -->
<g id="edge25" class="edge">
<title>CoordTransformationGraph:e&#45;&gt;ReducibleData[SampleRun]:w</title>
<path fill="none" stroke="black" d="M1211,-278.5C1257.18,-278.5 1246.67,-214.22 1284.43,-204.68"/>
<polygon fill="black" stroke="black" points="1284.97,-208.14 1294.5,-203.5 1284.16,-201.19 1284.97,-208.14"/>
</g>
<!-- Reference -->
<g id="node29" class="node">
<title>Reference</title>
<polygon fill="none" stroke="black" points="1934,-220 1684,-220 1684,-187 1934,-187 1934,-220"/>
<text text-anchor="start" x="1772.5" y="-205.8" font-family="Times,serif" font-size="14.00">Reference</text>
<text text-anchor="start" x="1692" y="-194.2" font-family="Times,serif" font-size="11.00">via:</text>
<text text-anchor="start" x="1713" y="-194.2" font-family="Times,serif" font-style="italic" font-size="11.00">evaluate_reference_at_sample_coords</text>
</g>
<!-- CoordTransformationGraph&#45;&gt;Reference -->
<g id="edge29" class="edge">
<title>CoordTransformationGraph:e&#45;&gt;Reference:w</title>
<path fill="none" stroke="black" d="M1211,-278.5C1248.5,-278.5 1247.15,-245.5 1283,-234.5 1346.16,-215.11 1514.29,-227.45 1580,-220.5 1622.54,-216 1634.75,-205.35 1672.75,-203.71"/>
<polygon fill="black" stroke="black" points="1673.07,-207.21 1683,-203.5 1672.93,-200.21 1673.07,-207.21"/>
</g>
<!-- CriticalEdge -->
<g id="node11" class="node">
<title>CriticalEdge</title>
<polygon fill="none" stroke="black" points="1484.5,-102 1378.5,-102 1378.5,-79 1484.5,-79 1484.5,-102"/>
<text text-anchor="middle" x="1431.5" y="-86.8" font-family="Times,serif" font-size="14.00">CriticalEdge</text>
</g>
<!-- CriticalEdge&#45;&gt;Sample -->
<g id="edge35" class="edge">
<title>CriticalEdge:e&#45;&gt;Sample:w</title>
<path fill="none" stroke="black" d="M1485.5,-90.5C1528.03,-90.5 1540.54,-89.64 1580,-105.5 1612.62,-118.61 1613.27,-148.77 1641.71,-154.54"/>
<polygon fill="black" stroke="black" points="1641.72,-158.05 1652,-155.5 1642.37,-151.08 1641.72,-158.05"/>
</g>
<!-- NeXusComponent[NXdetector, SampleRun] -->
<g id="node12" class="node">
<title>NeXusComponent[NXdetector, SampleRun]</title>
<polygon fill="none" stroke="black" points="595,-277 269,-277 269,-244 595,-244 595,-277"/>
<text text-anchor="start" x="277" y="-262.8" font-family="Times,serif" font-size="14.00">NeXusComponent[NXdetector, SampleRun]</text>
<text text-anchor="start" x="383" y="-251.2" font-family="Times,serif" font-size="11.00">via:</text>
<text text-anchor="start" x="404" y="-251.2" font-family="Times,serif" font-style="italic" font-size="11.00">load_detector</text>
</g>
<!-- NeXusComponent[NXdetector, SampleRun]&#45;&gt;DetectorData[SampleRun] -->
<g id="edge4" class="edge">
<title>NeXusComponent[NXdetector, SampleRun]:e&#45;&gt;DetectorData[SampleRun]:w</title>
<path fill="none" stroke="black" d="M595,-260.5C666.12,-260.5 848.96,-290.88 915,-264.5 957.7,-247.44 948.19,-195.97 985.95,-188.43"/>
<polygon fill="black" stroke="black" points="986.36,-191.9 996,-187.5 985.72,-184.93 986.36,-191.9"/>
</g>
<!-- DetectorData[SampleRun]&#45;&gt;ReducibleData[SampleRun] -->
<g id="edge19" class="edge">
<title>DetectorData[SampleRun]:e&#45;&gt;ReducibleData[SampleRun]:w</title>
<path fill="none" stroke="black" d="M1202,-187.5C1240.14,-187.5 1250.98,-200.87 1284.43,-203.17"/>
<polygon fill="black" stroke="black" points="1284.39,-206.67 1294.5,-203.5 1284.62,-199.67 1284.39,-206.67"/>
</g>
<!-- DetectorRotation[SampleRun] -->
<g id="node14" class="node">
<title>DetectorRotation[SampleRun]</title>
<polygon fill="none" stroke="black" points="548,-229 316,-229 316,-196 548,-196 548,-229"/>
<text text-anchor="start" x="324" y="-214.8" font-family="Times,serif" font-size="14.00">DetectorRotation[SampleRun]</text>
<text text-anchor="start" x="340.5" y="-203.2" font-family="Times,serif" font-size="11.00">via:</text>
<text text-anchor="start" x="361.5" y="-203.2" font-family="Times,serif" font-style="italic" font-size="11.00">load_amor_detector_rotation</text>
</g>
<!-- DetectorRotation[SampleRun]&#45;&gt;DetectorData[SampleRun] -->
<g id="edge5" class="edge">
<title>DetectorRotation[SampleRun]:e&#45;&gt;DetectorData[SampleRun]:w</title>
<path fill="none" stroke="black" d="M549,-212.5C601.81,-212.5 614.28,-223.38 667,-226.5 777.03,-233 807.54,-251.02 915,-226.5 950.3,-218.44 955.33,-192.96 985.7,-188.25"/>
<polygon fill="black" stroke="black" points="986.28,-191.72 996,-187.5 985.77,-184.74 986.28,-191.72"/>
</g>
<!-- SampleRotation[SampleRun] -->
<g id="node15" class="node">
<title>SampleRotation[SampleRun]</title>
<polygon fill="none" stroke="black" points="902.5,-98 679.5,-98 679.5,-65 902.5,-65 902.5,-98"/>
<text text-anchor="start" x="687.5" y="-83.8" font-family="Times,serif" font-size="14.00">SampleRotation[SampleRun]</text>
<text text-anchor="start" x="712" y="-72.2" font-family="Times,serif" font-size="11.00">via:</text>
<text text-anchor="start" x="733" y="-72.2" font-family="Times,serif" font-style="italic" font-size="11.00">correct_sample_rotation</text>
</g>
<!-- SampleRotation[SampleRun]&#45;&gt;DetectorData[SampleRun] -->
<g id="edge6" class="edge">
<title>SampleRotation[SampleRun]:e&#45;&gt;DetectorData[SampleRun]:w</title>
<path fill="none" stroke="black" d="M903,-81.5C962,-81.5 936.79,-175.44 985.92,-186.45"/>
<polygon fill="black" stroke="black" points="985.69,-189.95 996,-187.5 986.42,-182.98 985.69,-189.95"/>
</g>
<!-- SampleSize[SampleRun] -->
<g id="node16" class="node">
<title>SampleSize[SampleRun]</title>
<polygon fill="none" stroke="black" points="887,-302 695,-302 695,-279 887,-279 887,-302"/>
<text text-anchor="middle" x="791" y="-286.8" font-family="Times,serif" font-size="14.00">SampleSize[SampleRun]</text>
</g>
<!-- SampleSize[SampleRun]&#45;&gt;DetectorData[SampleRun] -->
<g id="edge11" class="edge">
<title>SampleSize[SampleRun]:e&#45;&gt;DetectorData[SampleRun]:w</title>
<path fill="none" stroke="black" d="M888,-290.5C950.7,-290.5 932.1,-198.46 985.9,-188.39"/>
<polygon fill="black" stroke="black" points="986.35,-191.87 996,-187.5 985.73,-184.89 986.35,-191.87"/>
</g>
<!-- Filename[SampleRun] -->
<g id="node17" class="node">
<title>Filename[SampleRun]</title>
<polygon fill="none" stroke="red" stroke-dasharray="5,2" points="186,-167 11,-167 11,-144 186,-144 186,-167"/>
<text text-anchor="middle" x="98.5" y="-151.8" font-family="Times,serif" font-size="14.00" fill="red">Filename[SampleRun]</text>
</g>
<!-- Filename[SampleRun]&#45;&gt;RawChopper[SampleRun] -->
<g id="edge17" class="edge">
<title>Filename[SampleRun]:e&#45;&gt;RawChopper[SampleRun]:w</title>
<path fill="none" stroke="black" d="M187.5,-155.5C247.79,-155.5 265.34,-155.5 320.95,-155.5"/>
<polygon fill="black" stroke="black" points="321,-159 331,-155.5 321,-152 321,-159"/>
</g>
<!-- Filename[SampleRun]&#45;&gt;NeXusComponent[NXdetector, SampleRun] -->
<g id="edge14" class="edge">
<title>Filename[SampleRun]:e&#45;&gt;NeXusComponent[NXdetector, SampleRun]:w</title>
<path fill="none" stroke="black" d="M187.5,-155.5C242.88,-155.5 214.13,-247.79 259,-259.32"/>
<polygon fill="black" stroke="black" points="258.66,-262.8 269,-260.5 259.48,-255.85 258.66,-262.8"/>
</g>
<!-- Filename[SampleRun]&#45;&gt;DetectorRotation[SampleRun] -->
<g id="edge13" class="edge">
<title>Filename[SampleRun]:e&#45;&gt;DetectorRotation[SampleRun]:w</title>
<path fill="none" stroke="black" d="M187.5,-155.5C246.06,-155.5 252.36,-206.23 305,-211.97"/>
<polygon fill="black" stroke="black" points="304.83,-215.47 315,-212.5 305.2,-208.48 304.83,-215.47"/>
</g>
<!-- ProtonCurrent[SampleRun] -->
<g id="node21" class="node">
<title>ProtonCurrent[SampleRun]</title>
<polygon fill="none" stroke="black" points="538.5,-71 325.5,-71 325.5,-38 538.5,-38 538.5,-71"/>
<text text-anchor="start" x="333.5" y="-56.8" font-family="Times,serif" font-size="14.00">ProtonCurrent[SampleRun]</text>
<text text-anchor="start" x="347.5" y="-45.2" font-family="Times,serif" font-size="11.00">via:</text>
<text text-anchor="start" x="368.5" y="-45.2" font-family="Times,serif" font-style="italic" font-size="11.00">load_amor_proton_current</text>
</g>
<!-- Filename[SampleRun]&#45;&gt;ProtonCurrent[SampleRun] -->
<g id="edge16" class="edge">
<title>Filename[SampleRun]:e&#45;&gt;ProtonCurrent[SampleRun]:w</title>
<path fill="none" stroke="black" d="M187.5,-155.5C238.57,-155.5 225.8,-101.74 269,-74.5 288.21,-62.38 296.24,-56.32 314.89,-54.86"/>
<polygon fill="black" stroke="black" points="315.13,-58.35 325,-54.5 314.88,-51.35 315.13,-58.35"/>
</g>
<!-- RawSampleRotation[SampleRun] -->
<g id="node23" class="node">
<title>RawSampleRotation[SampleRun]</title>
<polygon fill="none" stroke="black" points="559,-108 305,-108 305,-75 559,-75 559,-108"/>
<text text-anchor="start" x="313" y="-93.8" font-family="Times,serif" font-size="14.00">RawSampleRotation[SampleRun]</text>
<text text-anchor="start" x="344" y="-82.2" font-family="Times,serif" font-size="11.00">via:</text>
<text text-anchor="start" x="365" y="-82.2" font-family="Times,serif" font-style="italic" font-size="11.00">load_amor_sample_rotation</text>
</g>
<!-- Filename[SampleRun]&#45;&gt;RawSampleRotation[SampleRun] -->
<g id="edge18" class="edge">
<title>Filename[SampleRun]:e&#45;&gt;RawSampleRotation[SampleRun]:w</title>
<path fill="none" stroke="black" d="M187.5,-155.5C243,-155.5 244.9,-99.02 293.91,-92.18"/>
<polygon fill="black" stroke="black" points="294.26,-95.66 304,-91.5 293.79,-88.68 294.26,-95.66"/>
</g>
<!-- DetectorSpatialResolution[SampleRun] -->
<g id="node18" class="node">
<title>DetectorSpatialResolution[SampleRun]</title>
<polygon fill="none" stroke="black" points="1580,-258 1283,-258 1283,-235 1580,-235 1580,-258"/>
<text text-anchor="middle" x="1431.5" y="-242.8" font-family="Times,serif" font-size="14.00">DetectorSpatialResolution[SampleRun]</text>
</g>
<!-- DetectorSpatialResolution[SampleRun]&#45;&gt;Reference -->
<g id="edge28" class="edge">
<title>DetectorSpatialResolution[SampleRun]:e&#45;&gt;Reference:w</title>
<path fill="none" stroke="black" d="M1580,-246.5C1626.02,-246.5 1632.61,-209.49 1672.93,-204.14"/>
<polygon fill="black" stroke="black" points="1673.24,-207.63 1683,-203.5 1672.8,-200.64 1673.24,-207.63"/>
</g>
<!-- MValue -->
<g id="node19" class="node">
<title>MValue</title>
<polygon fill="none" stroke="black" points="1466.5,-156 1396.5,-156 1396.5,-133 1466.5,-133 1466.5,-156"/>
<text text-anchor="middle" x="1431.5" y="-140.8" font-family="Times,serif" font-size="14.00">MValue</text>
</g>
<!-- MValue&#45;&gt;Sample -->
<g id="edge36" class="edge">
<title>MValue:e&#45;&gt;Sample:w</title>
<path fill="none" stroke="black" d="M1467.5,-144.5C1546.12,-144.5 1568,-154.57 1641.74,-155.44"/>
<polygon fill="black" stroke="black" points="1641.98,-158.94 1652,-155.5 1642.02,-151.94 1641.98,-158.94"/>
</g>
<!-- NeXusName[NXdetector] -->
<g id="node20" class="node">
<title>NeXusName[NXdetector]</title>
<polygon fill="none" stroke="black" points="197,-272 0,-272 0,-249 197,-249 197,-272"/>
<text text-anchor="middle" x="98.5" y="-256.8" font-family="Times,serif" font-size="14.00">NeXusName[NXdetector]</text>
</g>
<!-- NeXusName[NXdetector]&#45;&gt;NeXusComponent[NXdetector, SampleRun] -->
<g id="edge15" class="edge">
<title>NeXusName[NXdetector]:e&#45;&gt;NeXusComponent[NXdetector, SampleRun]:w</title>
<path fill="none" stroke="black" d="M197,-260.5C225.38,-260.5 234.88,-260.5 258.98,-260.5"/>
<polygon fill="black" stroke="black" points="259,-264 269,-260.5 259,-257 259,-264"/>
</g>
<!-- ProtonCurrent[SampleRun]&#45;&gt;ReducibleData[SampleRun] -->
<g id="edge24" class="edge">
<title>ProtonCurrent[SampleRun]:e&#45;&gt;ReducibleData[SampleRun]:w</title>
<path fill="none" stroke="black" d="M539,-54.5C706.17,-54.5 750.6,-34.2 915,-64.5 1052.13,-89.77 1080.87,-118.42 1211,-168.5 1245.18,-181.65 1252.98,-199.86 1284.44,-203.02"/>
<polygon fill="black" stroke="black" points="1284.35,-206.52 1294.5,-203.5 1284.68,-199.53 1284.35,-206.52"/>
</g>
<!-- QBins -->
<g id="node22" class="node">
<title>QBins</title>
<polygon fill="none" stroke="black" points="1838.5,-247 1779.5,-247 1779.5,-224 1838.5,-224 1838.5,-247"/>
<text text-anchor="middle" x="1809" y="-231.8" font-family="Times,serif" font-size="14.00">QBins</text>
</g>
<!-- ReflectivityOverQ -->
<g id="node31" class="node">
<title>ReflectivityOverQ</title>
<polygon fill="none" stroke="black" points="2202,-220 2038,-220 2038,-187 2202,-187 2202,-220"/>
<text text-anchor="start" x="2056.5" y="-205.8" font-family="Times,serif" font-size="14.00">ReflectivityOverQ</text>
<text text-anchor="start" x="2046" y="-194.2" font-family="Times,serif" font-size="11.00">via:</text>
<text text-anchor="start" x="2067" y="-194.2" font-family="Times,serif" font-style="italic" font-size="11.00">reduce_sample_over_q</text>
</g>
<!-- QBins&#45;&gt;ReflectivityOverQ -->
<g id="edge32" class="edge">
<title>QBins:e&#45;&gt;ReflectivityOverQ:w</title>
<path fill="none" stroke="black" d="M1840,-235.5C1896.4,-235.5 1910.47,-230.33 1966,-220.5 1994.71,-215.42 2003.26,-205.98 2027.76,-203.91"/>
<polygon fill="black" stroke="black" points="2028.15,-207.4 2038,-203.5 2027.87,-200.4 2028.15,-207.4"/>
</g>
<!-- RawSampleRotation[SampleRun]&#45;&gt;SampleRotation[SampleRun] -->
<g id="edge38" class="edge">
<title>RawSampleRotation[SampleRun]:e&#45;&gt;SampleRotation[SampleRun]:w</title>
<path fill="none" stroke="black" d="M560,-91.5C609.55,-91.5 624.04,-82.78 668.94,-81.63"/>
<polygon fill="black" stroke="black" points="669.04,-85.13 679,-81.5 668.96,-78.13 669.04,-85.13"/>
</g>
<!-- ReducedReference -->
<g id="node24" class="node">
<title>ReducedReference</title>
<polygon fill="none" stroke="black" points="1506.5,-183 1356.5,-183 1356.5,-160 1506.5,-160 1506.5,-183"/>
<text text-anchor="middle" x="1431.5" y="-167.8" font-family="Times,serif" font-size="14.00">ReducedReference</text>
</g>
<!-- ReducedReference&#45;&gt;Reference -->
<g id="edge26" class="edge">
<title>ReducedReference:e&#45;&gt;Reference:w</title>
<path fill="none" stroke="black" d="M1507.5,-171.5C1583.22,-171.5 1602.07,-200.69 1672.68,-203.31"/>
<polygon fill="black" stroke="black" points="1672.94,-206.82 1683,-203.5 1673.07,-199.82 1672.94,-206.82"/>
</g>
<!-- ReducedReference&#45;&gt;Sample -->
<g id="edge34" class="edge">
<title>ReducedReference:e&#45;&gt;Sample:w</title>
<path fill="none" stroke="black" d="M1507.5,-171.5C1568.58,-171.5 1585.57,-157.2 1641.83,-155.64"/>
<polygon fill="black" stroke="black" points="1642.05,-159.14 1652,-155.5 1641.95,-152.14 1642.05,-159.14"/>
</g>
<!-- ReducibleData[SampleRun]&#45;&gt;Reference -->
<g id="edge27" class="edge">
<title>ReducibleData[SampleRun]:e&#45;&gt;Reference:w</title>
<path fill="none" stroke="black" d="M1568.5,-203.5C1615.81,-203.5 1630.13,-203.5 1672.81,-203.5"/>
<polygon fill="black" stroke="black" points="1673,-207 1683,-203.5 1673,-200 1673,-207"/>
</g>
<!-- ReducibleData[SampleRun]&#45;&gt;Sample -->
<g id="edge33" class="edge">
<title>ReducibleData[SampleRun]:e&#45;&gt;Sample:w</title>
<path fill="none" stroke="black" d="M1568.5,-203.5C1607.63,-203.5 1609.23,-163.4 1641.9,-156.5"/>
<polygon fill="black" stroke="black" points="1642.39,-159.97 1652,-155.5 1641.7,-153.01 1642.39,-159.97"/>
</g>
<!-- YIndexLimits -->
<g id="node26" class="node">
<title>YIndexLimits</title>
<polygon fill="none" stroke="black" points="1154,-50 1044,-50 1044,-27 1154,-27 1154,-50"/>
<text text-anchor="middle" x="1099" y="-34.8" font-family="Times,serif" font-size="14.00">YIndexLimits</text>
</g>
<!-- YIndexLimits&#45;&gt;ReducibleData[SampleRun] -->
<g id="edge20" class="edge">
<title>YIndexLimits:e&#45;&gt;ReducibleData[SampleRun]:w</title>
<path fill="none" stroke="black" d="M1155,-38.5C1180.77,-38.5 1190.7,-37.63 1211,-53.5 1268.18,-98.19 1223.1,-193.57 1284.22,-202.78"/>
<polygon fill="black" stroke="black" points="1284.28,-206.29 1294.5,-203.5 1284.77,-199.31 1284.28,-206.29"/>
</g>
<!-- ZIndexLimits -->
<g id="node27" class="node">
<title>ZIndexLimits</title>
<polygon fill="none" stroke="black" points="1154.5,-23 1043.5,-23 1043.5,0 1154.5,0 1154.5,-23"/>
<text text-anchor="middle" x="1099" y="-7.8" font-family="Times,serif" font-size="14.00">ZIndexLimits</text>
</g>
<!-- ZIndexLimits&#45;&gt;ReducibleData[SampleRun] -->
<g id="edge21" class="edge">
<title>ZIndexLimits:e&#45;&gt;ReducibleData[SampleRun]:w</title>
<path fill="none" stroke="black" d="M1155,-11.5C1180.77,-11.5 1191.31,-9.88 1211,-26.5 1274.6,-80.21 1213.28,-193.23 1284.13,-202.85"/>
<polygon fill="black" stroke="black" points="1284.3,-206.36 1294.5,-203.5 1284.74,-199.38 1284.3,-206.36"/>
</g>
<!-- WavelengthBins -->
<g id="node28" class="node">
<title>WavelengthBins</title>
<polygon fill="none" stroke="black" points="1165,-258 1033,-258 1033,-235 1165,-235 1165,-258"/>
<text text-anchor="middle" x="1099" y="-242.8" font-family="Times,serif" font-size="14.00">WavelengthBins</text>
</g>
<!-- WavelengthBins&#45;&gt;ReducibleData[SampleRun] -->
<g id="edge23" class="edge">
<title>WavelengthBins:e&#45;&gt;ReducibleData[SampleRun]:w</title>
<path fill="none" stroke="black" d="M1166,-246.5C1222.7,-246.5 1233.15,-208.39 1284.43,-203.93"/>
<polygon fill="black" stroke="black" points="1284.66,-207.42 1294.5,-203.5 1284.36,-200.43 1284.66,-207.42"/>
</g>
<!-- Reference&#45;&gt;ReflectivityOverQ -->
<g id="edge31" class="edge">
<title>Reference:e&#45;&gt;ReflectivityOverQ:w</title>
<path fill="none" stroke="black" d="M1935,-203.5C1977.2,-203.5 1990.22,-203.5 2027.87,-203.5"/>
<polygon fill="black" stroke="black" points="2028,-207 2038,-203.5 2028,-200 2028,-207"/>
</g>
<!-- Sample&#45;&gt;ReflectivityOverQ -->
<g id="edge30" class="edge">
<title>Sample:e&#45;&gt;ReflectivityOverQ:w</title>
<path fill="none" stroke="black" d="M1966,-155.5C2000.7,-155.5 2000.09,-194.58 2027.89,-202.22"/>
<polygon fill="black" stroke="black" points="2027.64,-205.71 2038,-203.5 2028.52,-198.77 2027.64,-205.71"/>
</g>
<!-- SampleRotationOffset[SampleRun] -->
<g id="node32" class="node">
<title>SampleRotationOffset[SampleRun]</title>
<polygon fill="none" stroke="black" points="565,-135 299,-135 299,-112 565,-112 565,-135"/>
<text text-anchor="middle" x="432" y="-119.8" font-family="Times,serif" font-size="14.00">SampleRotationOffset[SampleRun]</text>
</g>
<!-- SampleRotationOffset[SampleRun]&#45;&gt;SampleRotation[SampleRun] -->
<g id="edge39" class="edge">
<title>SampleRotationOffset[SampleRun]:e&#45;&gt;SampleRotation[SampleRun]:w</title>
<path fill="none" stroke="black" d="M566,-123.5C616.02,-123.5 624.43,-86.89 668.93,-82.03"/>
<polygon fill="black" stroke="black" points="669.2,-85.52 679,-81.5 668.83,-78.53 669.2,-85.52"/>
</g>
</g>
</svg>
