<?xml version="1.0" encoding="UTF-8" standalone="no"?>
<!DOCTYPE svg PUBLIC "-//W3C//DTD SVG 1.1//EN"
 "http://www.w3.org/Graphics/SVG/1.1/DTD/svg11.dtd">
<!-- Generated by graphviz version 2.43.0 (0)
 -->
<!-- Title: %3 Pages: 1 -->
<svg width="2033pt" height="479pt"
 viewBox="0.00 0.00 2033.00 479.00" xmlns="http://www.w3.org/2000/svg" xmlns:xlink="http://www.w3.org/1999/xlink">
<g id="graph0" class="graph" transform="scale(1 1) rotate(0) translate(4 475)">
<title>%3</title>
<polygon fill="white" stroke="transparent" points="-4,4 -4,-475 2029,-475 2029,4 -4,4"/>
<g id="clust6" class="cluster">
<title>cluster_DetectorData</title>
<polygon fill="#f0f0ff" stroke="#f0f0ff" points="275,-184.5 275,-280.5 424,-280.5 424,-184.5 275,-184.5"/>
<text text-anchor="start" x="301" y="-266.3" font-family="Times,serif" font-size="14.00">DetectorData</text>
<text text-anchor="start" x="283" y="-254.7" font-family="Times,serif" font-size="11.00">via:</text>
<text text-anchor="start" x="304" y="-254.7" font-family="Times,serif" font-style="italic" font-size="11.00">load_mcstas_events</text>
</g>
<g id="clust8" class="cluster">
<title>cluster_Filename</title>
<polygon fill="#f0f0ff" stroke="#f0f0ff" points="23,-336.5 23,-422.5 149,-422.5 149,-336.5 23,-336.5"/>
<text text-anchor="middle" x="86" y="-407.3" font-family="Times,serif" font-size="14.00">Filename</text>
</g>
<g id="clust22" class="cluster">
<title>cluster_ProtonCurrent</title>
<polygon fill="#f0f0ff" stroke="#f0f0ff" points="286,-58.5 286,-144.5 412,-144.5 412,-58.5 286,-58.5"/>
<text text-anchor="middle" x="349" y="-129.3" font-family="Times,serif" font-size="14.00">ProtonCurrent</text>
</g>
<g id="clust25" class="cluster">
<title>cluster_ReducibleData</title>
<polygon fill="#f0f0ff" stroke="#f0f0ff" points="525,-147.5 525,-243.5 797,-243.5 797,-147.5 525,-147.5"/>
<text text-anchor="start" x="608.5" y="-229.3" font-family="Times,serif" font-size="14.00">ReducibleData</text>
<text text-anchor="start" x="533" y="-217.7" font-family="Times,serif" font-size="11.00">via:</text>
<text text-anchor="start" x="554" y="-217.7" font-family="Times,serif" font-style="italic" font-size="11.00">add_coords_masks_and_apply_corrections</text>
</g>
<g id="clust29" class="cluster">
<title>cluster_SampleRotationOffset</title>
<polygon fill="#f0f0ff" stroke="#f0f0ff" points="0,-184.5 0,-270.5 173,-270.5 173,-184.5 0,-184.5"/>
<text text-anchor="middle" x="86.5" y="-255.3" font-family="Times,serif" font-size="14.00">SampleRotationOffset</text>
</g>
<!-- Alpha -->
<g id="node1" class="node">
<title>Alpha</title>
<polygon fill="none" stroke="black" points="689.5,-139 632.5,-139 632.5,-116 689.5,-116 689.5,-139"/>
<text text-anchor="middle" x="661" y="-123.8" font-family="Times,serif" font-size="14.00">Alpha</text>
</g>
<!-- ReducedReference -->
<g id="node32" class="node">
<title>ReducedReference</title>
<polygon fill="none" stroke="black" points="1084.5,-130 934.5,-130 934.5,-97 1084.5,-97 1084.5,-130"/>
<text text-anchor="start" x="942.5" y="-115.8" font-family="Times,serif" font-size="14.00">ReducedReference</text>
<text text-anchor="start" x="950" y="-104.2" font-family="Times,serif" font-size="11.00">via:</text>
<text text-anchor="start" x="971" y="-104.2" font-family="Times,serif" font-style="italic" font-size="11.00">reduce_reference</text>
</g>
<!-- Alpha&#45;&gt;ReducedReference -->
<g id="edge27" class="edge">
<title>Alpha:e&#45;&gt;ReducedReference:w</title>
<path fill="none" stroke="black" d="M691,-127.5C795.48,-127.5 823.74,-114.39 923.31,-113.54"/>
<polygon fill="black" stroke="black" points="923.51,-117.04 933.5,-113.5 923.49,-110.04 923.51,-117.04"/>
</g>
<!-- Sample -->
<g id="node37" class="node">
<title>Sample</title>
<polygon fill="none" stroke="black" points="1544,-137 1230,-137 1230,-104 1544,-104 1544,-137"/>
<text text-anchor="start" x="1360" y="-122.8" font-family="Times,serif" font-size="14.00">Sample</text>
<text text-anchor="start" x="1238" y="-111.2" font-family="Times,serif" font-size="11.00">via:</text>
<text text-anchor="start" x="1259" y="-111.2" font-family="Times,serif" font-style="italic" font-size="11.00">mask_events_where_supermirror_does_not_cover</text>
</g>
<!-- Alpha&#45;&gt;Sample -->
<g id="edge48" class="edge">
<title>Alpha:e&#45;&gt;Sample:w</title>
<path fill="none" stroke="black" d="M691,-127.5C898.56,-127.5 950.93,-144.81 1158,-130.5 1186.58,-128.52 1195.68,-122.19 1219.9,-120.78"/>
<polygon fill="black" stroke="black" points="1220.1,-124.28 1230,-120.5 1219.91,-117.28 1220.1,-124.28"/>
</g>
<!-- BeamDivergenceLimits -->
<g id="node2" class="node">
<title>BeamDivergenceLimits</title>
<polygon fill="none" stroke="black" points="440.5,-176 257.5,-176 257.5,-153 440.5,-153 440.5,-176"/>
<text text-anchor="middle" x="349" y="-160.8" font-family="Times,serif" font-size="14.00">BeamDivergenceLimits</text>
</g>
<!-- ReducibleData[ReferenceRun] -->
<g id="node31" class="node">
<title>ReducibleData[ReferenceRun]</title>
<polygon fill="none" stroke="black" points="716,-177 606,-177 606,-156 716,-156 716,-177"/>
<text text-anchor="start" x="614" y="-163.4" font-family="Times,serif" font-size="12.00">[ReferenceRun]</text>
</g>
<!-- BeamDivergenceLimits&#45;&gt;ReducibleData[ReferenceRun] -->
<g id="edge31" class="edge">
<title>BeamDivergenceLimits:e&#45;&gt;ReducibleData[ReferenceRun]:w</title>
<path fill="none" stroke="black" stroke-width="2" d="M442,-164.5C473.67,-164.5 494.96,-164.88 514.94,-165.31"/>
<polygon fill="black" stroke="black" stroke-width="2" points="514.93,-168.81 525,-165.53 515.08,-161.81 514.93,-168.81"/>
</g>
<!-- Beamline -->
<g id="node3" class="node">
<title>Beamline</title>
<polygon fill="none" stroke="red" stroke-dasharray="5,2" points="1051,-285 968,-285 968,-262 1051,-262 1051,-285"/>
<text text-anchor="middle" x="1009.5" y="-269.8" font-family="Times,serif" font-size="14.00" fill="red">Beamline</text>
</g>
<!-- OrsoExperiment -->
<g id="node20" class="node">
<title>OrsoExperiment</title>
<polygon fill="none" stroke="black" points="1471,-317 1303,-317 1303,-284 1471,-284 1471,-317"/>
<text text-anchor="start" x="1328" y="-302.8" font-family="Times,serif" font-size="14.00">OrsoExperiment</text>
<text text-anchor="start" x="1311" y="-291.2" font-family="Times,serif" font-size="11.00">via:</text>
<text text-anchor="start" x="1332" y="-291.2" font-family="Times,serif" font-style="italic" font-size="11.00">parse_orso_experiment</text>
</g>
<!-- Beamline&#45;&gt;OrsoExperiment -->
<g id="edge9" class="edge">
<title>Beamline:e&#45;&gt;OrsoExperiment:w</title>
<path fill="none" stroke="black" d="M1052.5,-273.5C1160.55,-273.5 1188.73,-298.84 1291.79,-300.42"/>
<polygon fill="black" stroke="black" points="1291.97,-303.92 1302,-300.5 1292.03,-296.92 1291.97,-303.92"/>
</g>
<!-- CoordTransformationGraph -->
<g id="node4" class="node">
<title>CoordTransformationGraph</title>
<polygon fill="none" stroke="black" points="461,-349 237,-349 237,-316 461,-316 461,-349"/>
<text text-anchor="start" x="250" y="-334.8" font-family="Times,serif" font-size="14.00">CoordTransformationGraph</text>
<text text-anchor="start" x="245" y="-323.2" font-family="Times,serif" font-size="11.00">via:</text>
<text text-anchor="start" x="266" y="-323.2" font-family="Times,serif" font-style="italic" font-size="11.00">coordinate_transformation_graph</text>
</g>
<!-- CoordTransformationGraph&#45;&gt;ReducibleData[ReferenceRun] -->
<g id="edge34" class="edge">
<title>CoordTransformationGraph:e&#45;&gt;ReducibleData[ReferenceRun]:w</title>
<path fill="none" stroke="black" stroke-width="2" d="M461,-332.5C530.72,-332.5 473.84,-236.31 517.46,-187.61"/>
<polygon fill="black" stroke="black" stroke-width="2" points="520.12,-189.9 525,-180.5 515.32,-184.81 520.12,-189.9"/>
</g>
<!-- Reference -->
<g id="node36" class="node">
<title>Reference</title>
<polygon fill="none" stroke="black" points="1459.5,-201 1314.5,-201 1314.5,-168 1459.5,-168 1459.5,-201"/>
<text text-anchor="start" x="1350.5" y="-186.8" font-family="Times,serif" font-size="14.00">Reference</text>
<text text-anchor="start" x="1322.5" y="-175.2" font-family="Times,serif" font-size="11.00">via:</text>
<text text-anchor="start" x="1343.5" y="-175.2" font-family="Times,serif" font-style="italic" font-size="11.00">evaluate_reference</text>
</g>
<!-- CoordTransformationGraph&#45;&gt;Reference -->
<g id="edge39" class="edge">
<title>CoordTransformationGraph:e&#45;&gt;Reference:w</title>
<path fill="none" stroke="black" d="M461,-332.5C641.56,-332.5 683.11,-292.44 861,-261.5 1058.44,-227.16 1107.6,-185.9 1302.98,-184.53"/>
<polygon fill="black" stroke="black" points="1303.01,-188.03 1313,-184.5 1302.99,-181.03 1303.01,-188.03"/>
</g>
<!-- CriticalEdge -->
<g id="node5" class="node">
<title>CriticalEdge</title>
<polygon fill="none" stroke="black" points="714,-101 608,-101 608,-78 714,-78 714,-101"/>
<text text-anchor="middle" x="661" y="-85.8" font-family="Times,serif" font-size="14.00">CriticalEdge</text>
</g>
<!-- CriticalEdge&#45;&gt;ReducedReference -->
<g id="edge25" class="edge">
<title>CriticalEdge:e&#45;&gt;ReducedReference:w</title>
<path fill="none" stroke="black" d="M715,-89.5C809.26,-89.5 834.09,-111.84 923.47,-113.41"/>
<polygon fill="black" stroke="black" points="923.47,-116.91 933.5,-113.5 923.53,-109.91 923.47,-116.91"/>
</g>
<!-- CriticalEdge&#45;&gt;Sample -->
<g id="edge46" class="edge">
<title>CriticalEdge:e&#45;&gt;Sample:w</title>
<path fill="none" stroke="black" d="M715,-89.5C911.91,-89.5 963.88,-63.42 1158,-96.5 1187.61,-101.55 1194.83,-116.64 1219.89,-119.88"/>
<polygon fill="black" stroke="black" points="1219.81,-123.38 1230,-120.5 1220.23,-116.4 1219.81,-123.38"/>
</g>
<!-- Filename[ReferenceRun] -->
<g id="node6" class="node">
<title>Filename[ReferenceRun]</title>
<polygon fill="none" stroke="black" points="141,-366 31,-366 31,-345 141,-345 141,-366"/>
<text text-anchor="start" x="39" y="-352.4" font-family="Times,serif" font-size="12.00">[ReferenceRun]</text>
</g>
<!-- DetectorData[ReferenceRun] -->
<g id="node7" class="node">
<title>DetectorData[ReferenceRun]</title>
<polygon fill="none" stroke="black" points="404,-214 294,-214 294,-193 404,-193 404,-214"/>
<text text-anchor="start" x="302" y="-200.4" font-family="Times,serif" font-size="12.00">[ReferenceRun]</text>
</g>
<!-- Filename[ReferenceRun]&#45;&gt;DetectorData[ReferenceRun] -->
<g id="edge1" class="edge">
<title>Filename[ReferenceRun]:e&#45;&gt;DetectorData[ReferenceRun]:w</title>
<path fill="none" stroke="black" d="M142,-355.5C216.1,-355.5 176.4,-261.14 237,-218.5 255.03,-205.82 264.34,-203.86 282.78,-203.55"/>
<polygon fill="black" stroke="black" points="283.02,-207.05 293,-203.5 282.98,-200.05 283.02,-207.05"/>
</g>
<!-- OrsoMeasurement -->
<g id="node21" class="node">
<title>OrsoMeasurement</title>
<polygon fill="none" stroke="black" points="1476,-373 1298,-373 1298,-340 1476,-340 1476,-373"/>
<text text-anchor="start" x="1320.5" y="-358.8" font-family="Times,serif" font-size="14.00">OrsoMeasurement</text>
<text text-anchor="start" x="1306" y="-347.2" font-family="Times,serif" font-size="11.00">via:</text>
<text text-anchor="start" x="1327" y="-347.2" font-family="Times,serif" font-style="italic" font-size="11.00">build_orso_measurement</text>
</g>
<!-- Filename[ReferenceRun]&#45;&gt;OrsoMeasurement -->
<g id="edge17" class="edge">
<title>Filename[ReferenceRun]:e&#45;&gt;OrsoMeasurement:w</title>
<path fill="none" stroke="black" d="M142,-355.5C651.95,-355.5 781.96,-356.49 1286.9,-356.5"/>
<polygon fill="black" stroke="black" points="1287,-360 1297,-356.5 1287,-353 1287,-360"/>
</g>
<!-- DetectorData[ReferenceRun]&#45;&gt;ReducibleData[ReferenceRun] -->
<g id="edge28" class="edge">
<title>DetectorData[ReferenceRun]:e&#45;&gt;ReducibleData[ReferenceRun]:w</title>
<path fill="none" stroke="black" d="M405,-203.5C491.95,-203.5 513.04,-169.26 594.97,-166.66"/>
<polygon fill="black" stroke="black" points="595.06,-170.16 605,-166.5 594.95,-163.16 595.06,-170.16"/>
</g>
<!-- SampleRotationOffset[ReferenceRun] -->
<g id="node8" class="node">
<title>SampleRotationOffset[ReferenceRun]</title>
<polygon fill="none" stroke="black" points="141,-214 31,-214 31,-193 141,-193 141,-214"/>
<text text-anchor="start" x="39" y="-200.4" font-family="Times,serif" font-size="12.00">[ReferenceRun]</text>
</g>
<!-- SampleRotationOffset[ReferenceRun]&#45;&gt;DetectorData[ReferenceRun] -->
<g id="edge2" class="edge">
<title>SampleRotationOffset[ReferenceRun]:e&#45;&gt;DetectorData[ReferenceRun]:w</title>
<path fill="none" stroke="black" d="M142,-203.5C205.57,-203.5 223.98,-203.5 282.79,-203.5"/>
<polygon fill="black" stroke="black" points="283,-207 293,-203.5 283,-200 283,-207"/>
</g>
<!-- Filename[SampleRun] -->
<g id="node9" class="node">
<title>Filename[SampleRun]</title>
<polygon fill="none" stroke="black" points="133.5,-391 38.5,-391 38.5,-370 133.5,-370 133.5,-391"/>
<text text-anchor="start" x="46.5" y="-377.4" font-family="Times,serif" font-size="12.00">[SampleRun]</text>
</g>
<!-- DetectorData[SampleRun] -->
<g id="node10" class="node">
<title>DetectorData[SampleRun]</title>
<polygon fill="none" stroke="black" points="396.5,-239 301.5,-239 301.5,-218 396.5,-218 396.5,-239"/>
<text text-anchor="start" x="309.5" y="-225.4" font-family="Times,serif" font-size="12.00">[SampleRun]</text>
</g>
<!-- Filename[SampleRun]&#45;&gt;DetectorData[SampleRun] -->
<g id="edge3" class="edge">
<title>Filename[SampleRun]:e&#45;&gt;DetectorData[SampleRun]:w</title>
<path fill="none" stroke="black" d="M135,-380.5C231.2,-380.5 202.55,-239 289.97,-229.05"/>
<polygon fill="black" stroke="black" points="290.21,-232.54 300,-228.5 289.82,-225.55 290.21,-232.54"/>
</g>
<!-- OrsoOwner -->
<g id="node17" class="node">
<title>OrsoOwner</title>
<polygon fill="none" stroke="black" points="419,-434 279,-434 279,-401 419,-401 419,-434"/>
<text text-anchor="start" x="308" y="-419.8" font-family="Times,serif" font-size="14.00">OrsoOwner</text>
<text text-anchor="start" x="287" y="-408.2" font-family="Times,serif" font-size="11.00">via:</text>
<text text-anchor="start" x="308" y="-408.2" font-family="Times,serif" font-style="italic" font-size="11.00">parse_orso_owner</text>
</g>
<!-- Filename[SampleRun]&#45;&gt;OrsoOwner -->
<g id="edge19" class="edge">
<title>Filename[SampleRun]:e&#45;&gt;OrsoOwner:w</title>
<path fill="none" stroke="black" d="M135,-380.5C197.06,-380.5 210.91,-413.56 267.7,-417.18"/>
<polygon fill="black" stroke="black" points="267.9,-420.69 278,-417.5 268.11,-413.69 267.9,-420.69"/>
</g>
<!-- OrsoSample -->
<g id="node19" class="node">
<title>OrsoSample</title>
<polygon fill="none" stroke="black" points="421.5,-397 276.5,-397 276.5,-364 421.5,-364 421.5,-397"/>
<text text-anchor="start" x="305" y="-382.8" font-family="Times,serif" font-size="14.00">OrsoSample</text>
<text text-anchor="start" x="284.5" y="-371.2" font-family="Times,serif" font-size="11.00">via:</text>
<text text-anchor="start" x="305.5" y="-371.2" font-family="Times,serif" font-style="italic" font-size="11.00">parse_orso_sample</text>
</g>
<!-- Filename[SampleRun]&#45;&gt;OrsoSample -->
<g id="edge21" class="edge">
<title>Filename[SampleRun]:e&#45;&gt;OrsoSample:w</title>
<path fill="none" stroke="black" d="M135,-380.5C193.7,-380.5 210.87,-380.5 264.86,-380.5"/>
<polygon fill="black" stroke="black" points="265,-384 275,-380.5 265,-377 265,-384"/>
</g>
<!-- OrsoSampleFilenames -->
<g id="node27" class="node">
<title>OrsoSampleFilenames</title>
<polygon fill="none" stroke="black" points="437.5,-471 260.5,-471 260.5,-438 437.5,-438 437.5,-471"/>
<text text-anchor="start" x="268.5" y="-456.8" font-family="Times,serif" font-size="14.00">OrsoSampleFilenames</text>
<text text-anchor="start" x="296" y="-445.2" font-family="Times,serif" font-size="11.00">via:</text>
<text text-anchor="start" x="317" y="-445.2" font-family="Times,serif" font-style="italic" font-size="11.00">orso_data_files</text>
</g>
<!-- Filename[SampleRun]&#45;&gt;OrsoSampleFilenames -->
<g id="edge22" class="edge">
<title>Filename[SampleRun]:e&#45;&gt;OrsoSampleFilenames:w</title>
<path fill="none" stroke="black" d="M135,-380.5C196.03,-380.5 195.68,-446.63 250,-453.86"/>
<polygon fill="black" stroke="black" points="249.8,-457.35 260,-454.5 250.24,-450.37 249.8,-457.35"/>
</g>
<!-- ReducibleData[SampleRun] -->
<g id="node22" class="node">
<title>ReducibleData[SampleRun]</title>
<polygon fill="none" stroke="black" points="708.5,-202 613.5,-202 613.5,-181 708.5,-181 708.5,-202"/>
<text text-anchor="start" x="621.5" y="-188.4" font-family="Times,serif" font-size="12.00">[SampleRun]</text>
</g>
<!-- DetectorData[SampleRun]&#45;&gt;ReducibleData[SampleRun] -->
<g id="edge35" class="edge">
<title>DetectorData[SampleRun]:e&#45;&gt;ReducibleData[SampleRun]:w</title>
<path fill="none" stroke="black" d="M398,-228.5C491.03,-228.5 513.86,-194.13 601.83,-191.64"/>
<polygon fill="black" stroke="black" points="602.05,-195.14 612,-191.5 601.95,-188.14 602.05,-195.14"/>
</g>
<!-- SampleRotationOffset[SampleRun] -->
<g id="node11" class="node">
<title>SampleRotationOffset[SampleRun]</title>
<polygon fill="none" stroke="black" points="133.5,-239 38.5,-239 38.5,-218 133.5,-218 133.5,-239"/>
<text text-anchor="start" x="46.5" y="-225.4" font-family="Times,serif" font-size="12.00">[SampleRun]</text>
</g>
<!-- SampleRotationOffset[SampleRun]&#45;&gt;DetectorData[SampleRun] -->
<g id="edge4" class="edge">
<title>SampleRotationOffset[SampleRun]:e&#45;&gt;DetectorData[SampleRun]:w</title>
<path fill="none" stroke="black" d="M135,-228.5C204.75,-228.5 224.75,-228.5 289.64,-228.5"/>
<polygon fill="black" stroke="black" points="290,-232 300,-228.5 290,-225 290,-232"/>
</g>
<!-- DetectorSpatialResolution[SampleRun] -->
<g id="node12" class="node">
<title>DetectorSpatialResolution[SampleRun]</title>
<polygon fill="none" stroke="black" points="1158,-184 861,-184 861,-161 1158,-161 1158,-184"/>
<text text-anchor="middle" x="1009.5" y="-168.8" font-family="Times,serif" font-size="14.00">DetectorSpatialResolution[SampleRun]</text>
</g>
<!-- DetectorSpatialResolution[SampleRun]&#45;&gt;Reference -->
<g id="edge40" class="edge">
<title>DetectorSpatialResolution[SampleRun]:e&#45;&gt;Reference:w</title>
<path fill="none" stroke="black" d="M1158,-172.5C1223.59,-172.5 1242.06,-183.31 1302.86,-184.41"/>
<polygon fill="black" stroke="black" points="1302.97,-187.91 1313,-184.5 1303.03,-180.91 1302.97,-187.91"/>
</g>
<!-- MValue -->
<g id="node13" class="node">
<title>MValue</title>
<polygon fill="none" stroke="black" points="696,-74 626,-74 626,-51 696,-51 696,-74"/>
<text text-anchor="middle" x="661" y="-58.8" font-family="Times,serif" font-size="14.00">MValue</text>
</g>
<!-- MValue&#45;&gt;ReducedReference -->
<g id="edge26" class="edge">
<title>MValue:e&#45;&gt;ReducedReference:w</title>
<path fill="none" stroke="black" d="M697,-62.5C741.94,-62.5 752.98,-68.42 797,-77.5 854.97,-89.45 869.21,-110.89 923.31,-113.28"/>
<polygon fill="black" stroke="black" points="923.43,-116.78 933.5,-113.5 923.58,-109.79 923.43,-116.78"/>
</g>
<!-- MValue&#45;&gt;Sample -->
<g id="edge47" class="edge">
<title>MValue:e&#45;&gt;Sample:w</title>
<path fill="none" stroke="black" d="M697,-62.5C902.03,-62.5 960.8,-23.38 1158,-79.5 1189.82,-88.56 1192.86,-114.43 1219.85,-119.6"/>
<polygon fill="black" stroke="black" points="1219.73,-123.1 1230,-120.5 1220.35,-116.13 1219.73,-123.1"/>
</g>
<!-- Measurement -->
<g id="node14" class="node">
<title>Measurement</title>
<polygon fill="none" stroke="red" stroke-dasharray="5,2" points="1067.5,-312 951.5,-312 951.5,-289 1067.5,-289 1067.5,-312"/>
<text text-anchor="middle" x="1009.5" y="-296.8" font-family="Times,serif" font-size="14.00" fill="red">Measurement</text>
</g>
<!-- Measurement&#45;&gt;OrsoExperiment -->
<g id="edge10" class="edge">
<title>Measurement:e&#45;&gt;OrsoExperiment:w</title>
<path fill="none" stroke="black" d="M1068.5,-300.5C1168.83,-300.5 1196.41,-300.5 1291.91,-300.5"/>
<polygon fill="black" stroke="black" points="1292,-304 1302,-300.5 1292,-297 1292,-304"/>
</g>
<!-- OrsoCorrectionList -->
<g id="node15" class="node">
<title>OrsoCorrectionList</title>
<polygon fill="none" stroke="black" points="1782,-206 1618,-206 1618,-173 1782,-173 1782,-206"/>
<text text-anchor="start" x="1631.5" y="-191.8" font-family="Times,serif" font-size="14.00">OrsoCorrectionList</text>
<text text-anchor="start" x="1626" y="-180.2" font-family="Times,serif" font-size="11.00">via:</text>
<text text-anchor="start" x="1647" y="-180.2" font-family="Times,serif" font-style="italic" font-size="11.00">orso_estia_corrections</text>
</g>
<!-- OrsoIofQDataset -->
<g id="node25" class="node">
<title>OrsoIofQDataset</title>
<polygon fill="none" stroke="black" points="2025,-187 1856,-187 1856,-154 2025,-154 2025,-187"/>
<text text-anchor="start" x="1880.5" y="-172.8" font-family="Times,serif" font-size="14.00">OrsoIofQDataset</text>
<text text-anchor="start" x="1864" y="-161.2" font-family="Times,serif" font-size="11.00">via:</text>
<text text-anchor="start" x="1885" y="-161.2" font-family="Times,serif" font-style="italic" font-size="11.00">build_orso_iofq_dataset</text>
</g>
<!-- OrsoCorrectionList&#45;&gt;OrsoIofQDataset -->
<g id="edge15" class="edge">
<title>OrsoCorrectionList:e&#45;&gt;OrsoIofQDataset:w</title>
<path fill="none" stroke="black" d="M1783,-189.5C1812.86,-189.5 1820.84,-174.43 1845.92,-171.13"/>
<polygon fill="black" stroke="black" points="1846.24,-174.62 1856,-170.5 1845.8,-167.63 1846.24,-174.62"/>
</g>
<!-- OrsoCreator -->
<g id="node16" class="node">
<title>OrsoCreator</title>
<polygon fill="none" stroke="red" stroke-dasharray="5,2" points="1439.5,-100 1334.5,-100 1334.5,-77 1439.5,-77 1439.5,-100"/>
<text text-anchor="middle" x="1387" y="-84.8" font-family="Times,serif" font-size="14.00" fill="red">OrsoCreator</text>
</g>
<!-- OrsoReduction -->
<g id="node26" class="node">
<title>OrsoReduction</title>
<polygon fill="none" stroke="black" points="1777,-119 1623,-119 1623,-86 1777,-86 1777,-119"/>
<text text-anchor="start" x="1647" y="-104.8" font-family="Times,serif" font-size="14.00">OrsoReduction</text>
<text text-anchor="start" x="1631" y="-93.2" font-family="Times,serif" font-size="11.00">via:</text>
<text text-anchor="start" x="1652" y="-93.2" font-family="Times,serif" font-style="italic" font-size="11.00">build_orso_reduction</text>
</g>
<!-- OrsoCreator&#45;&gt;OrsoReduction -->
<g id="edge20" class="edge">
<title>OrsoCreator:e&#45;&gt;OrsoReduction:w</title>
<path fill="none" stroke="black" d="M1441,-88.5C1518.22,-88.5 1539.52,-101.32 1611.93,-102.42"/>
<polygon fill="black" stroke="black" points="1611.97,-105.93 1622,-102.5 1612.03,-98.93 1611.97,-105.93"/>
</g>
<!-- OrsoDataSource -->
<g id="node18" class="node">
<title>OrsoDataSource</title>
<polygon fill="none" stroke="black" points="1784,-373 1616,-373 1616,-340 1784,-340 1784,-373"/>
<text text-anchor="start" x="1641" y="-358.8" font-family="Times,serif" font-size="14.00">OrsoDataSource</text>
<text text-anchor="start" x="1624" y="-347.2" font-family="Times,serif" font-size="11.00">via:</text>
<text text-anchor="start" x="1645" y="-347.2" font-family="Times,serif" font-style="italic" font-size="11.00">build_orso_data_source</text>
</g>
<!-- OrsoOwner&#45;&gt;OrsoDataSource -->
<g id="edge5" class="edge">
<title>OrsoOwner:e&#45;&gt;OrsoDataSource:w</title>
<path fill="none" stroke="black" d="M420,-417.5C919.81,-417.5 1052.54,-472.51 1544,-381.5 1573.66,-376.01 1580.73,-360.47 1605.85,-357.13"/>
<polygon fill="black" stroke="black" points="1606.24,-360.62 1616,-356.5 1605.8,-353.63 1606.24,-360.62"/>
</g>
<!-- OrsoDataSource&#45;&gt;OrsoIofQDataset -->
<g id="edge13" class="edge">
<title>OrsoDataSource:e&#45;&gt;OrsoIofQDataset:w</title>
<path fill="none" stroke="black" d="M1784,-356.5C1868.84,-356.5 1776.05,-186.14 1845.62,-171.5"/>
<polygon fill="black" stroke="black" points="1846.38,-174.94 1856,-170.5 1845.71,-167.98 1846.38,-174.94"/>
</g>
<!-- OrsoSample&#45;&gt;OrsoDataSource -->
<g id="edge6" class="edge">
<title>OrsoSample:e&#45;&gt;OrsoDataSource:w</title>
<path fill="none" stroke="black" d="M423,-380.5C547.56,-380.5 1420.32,-388.29 1544,-373.5 1572.95,-370.04 1581.32,-359.35 1605.77,-356.97"/>
<polygon fill="black" stroke="black" points="1606.17,-360.46 1616,-356.5 1605.85,-353.46 1606.17,-360.46"/>
</g>
<!-- OrsoExperiment&#45;&gt;OrsoDataSource -->
<g id="edge7" class="edge">
<title>OrsoExperiment:e&#45;&gt;OrsoDataSource:w</title>
<path fill="none" stroke="black" d="M1472,-300.5C1537.18,-300.5 1546.49,-350.96 1606,-356.08"/>
<polygon fill="black" stroke="black" points="1605.86,-359.58 1616,-356.5 1606.16,-352.58 1605.86,-359.58"/>
</g>
<!-- OrsoMeasurement&#45;&gt;OrsoDataSource -->
<g id="edge8" class="edge">
<title>OrsoMeasurement:e&#45;&gt;OrsoDataSource:w</title>
<path fill="none" stroke="black" d="M1477,-356.5C1535.28,-356.5 1552.32,-356.5 1605.93,-356.5"/>
<polygon fill="black" stroke="black" points="1606,-360 1616,-356.5 1606,-353 1606,-360"/>
</g>
<!-- OrsoInstrument -->
<g id="node23" class="node">
<title>OrsoInstrument</title>
<polygon fill="none" stroke="black" points="1090.5,-349 928.5,-349 928.5,-316 1090.5,-316 1090.5,-349"/>
<text text-anchor="start" x="952" y="-334.8" font-family="Times,serif" font-size="14.00">OrsoInstrument</text>
<text text-anchor="start" x="936.5" y="-323.2" font-family="Times,serif" font-size="11.00">via:</text>
<text text-anchor="start" x="957.5" y="-323.2" font-family="Times,serif" font-style="italic" font-size="11.00">build_orso_instrument</text>
</g>
<!-- ReducibleData[SampleRun]&#45;&gt;OrsoInstrument -->
<g id="edge11" class="edge">
<title>ReducibleData[SampleRun]:e&#45;&gt;OrsoInstrument:w</title>
<path fill="none" stroke="black" d="M710,-191.5C796,-191.5 784.87,-272.49 861,-312.5 885.01,-325.12 894.34,-331.01 917.21,-332.25"/>
<polygon fill="black" stroke="black" points="917.42,-335.75 927.5,-332.5 917.59,-328.75 917.42,-335.75"/>
</g>
<!-- ReducibleData[SampleRun]&#45;&gt;Reference -->
<g id="edge38" class="edge">
<title>ReducibleData[SampleRun]:e&#45;&gt;Reference:w</title>
<path fill="none" stroke="black" d="M710,-191.5C974.62,-191.5 1043.25,-184.68 1302.89,-184.5"/>
<polygon fill="black" stroke="black" points="1303,-188 1313,-184.5 1303,-181 1303,-188"/>
</g>
<!-- ReducibleData[SampleRun]&#45;&gt;Sample -->
<g id="edge44" class="edge">
<title>ReducibleData[SampleRun]:e&#45;&gt;Sample:w</title>
<path fill="none" stroke="black" d="M710,-191.5C749.16,-191.5 758.81,-186.2 797,-177.5 825.93,-170.91 831.81,-163.8 861,-158.5 991.2,-134.86 1027.18,-157.44 1158,-137.5 1186.82,-133.11 1195.29,-123.14 1219.76,-120.94"/>
<polygon fill="black" stroke="black" points="1220.16,-124.42 1230,-120.5 1219.86,-117.43 1220.16,-124.42"/>
</g>
<!-- OrsoInstrument&#45;&gt;OrsoMeasurement -->
<g id="edge18" class="edge">
<title>OrsoInstrument:e&#45;&gt;OrsoMeasurement:w</title>
<path fill="none" stroke="black" d="M1091.5,-332.5C1179.95,-332.5 1203.3,-354.71 1286.79,-356.4"/>
<polygon fill="black" stroke="black" points="1286.97,-359.9 1297,-356.5 1287.04,-352.9 1286.97,-359.9"/>
</g>
<!-- ReflectivityOverQ -->
<g id="node24" class="node">
<title>ReflectivityOverQ</title>
<polygon fill="none" stroke="black" points="1782,-169 1618,-169 1618,-136 1782,-136 1782,-169"/>
<text text-anchor="start" x="1636.5" y="-154.8" font-family="Times,serif" font-size="14.00">ReflectivityOverQ</text>
<text text-anchor="start" x="1626" y="-143.2" font-family="Times,serif" font-size="11.00">via:</text>
<text text-anchor="start" x="1647" y="-143.2" font-family="Times,serif" font-style="italic" font-size="11.00">reduce_sample_over_q</text>
</g>
<!-- ReflectivityOverQ&#45;&gt;OrsoIofQDataset -->
<g id="edge12" class="edge">
<title>ReflectivityOverQ:e&#45;&gt;OrsoIofQDataset:w</title>
<path fill="none" stroke="black" d="M1783,-152.5C1812.76,-152.5 1820.91,-166.78 1845.94,-169.9"/>
<polygon fill="black" stroke="black" points="1845.81,-173.4 1856,-170.5 1846.23,-166.41 1845.81,-173.4"/>
</g>
<!-- OrsoReduction&#45;&gt;OrsoIofQDataset -->
<g id="edge14" class="edge">
<title>OrsoReduction:e&#45;&gt;OrsoIofQDataset:w</title>
<path fill="none" stroke="black" d="M1778,-102.5C1820.22,-102.5 1811.9,-159.8 1845.83,-169.2"/>
<polygon fill="black" stroke="black" points="1845.64,-172.71 1856,-170.5 1846.52,-165.76 1845.64,-172.71"/>
</g>
<!-- OrsoSampleFilenames&#45;&gt;OrsoMeasurement -->
<g id="edge16" class="edge">
<title>OrsoSampleFilenames:e&#45;&gt;OrsoMeasurement:w</title>
<path fill="none" stroke="black" d="M438,-454.5C818.88,-454.5 911.13,-358.22 1286.94,-356.52"/>
<polygon fill="black" stroke="black" points="1287.01,-360.02 1297,-356.5 1286.99,-353.02 1287.01,-360.02"/>
</g>
<!-- ProtonCurrent[ReferenceRun] -->
<g id="node28" class="node">
<title>ProtonCurrent[ReferenceRun]</title>
<polygon fill="none" stroke="black" points="404,-88 294,-88 294,-67 404,-67 404,-88"/>
<text text-anchor="start" x="302" y="-74.4" font-family="Times,serif" font-size="12.00">[ReferenceRun]</text>
</g>
<!-- ProtonCurrent[ReferenceRun]&#45;&gt;ReducibleData[ReferenceRun] -->
<g id="edge33" class="edge">
<title>ProtonCurrent[ReferenceRun]:e&#45;&gt;ReducibleData[ReferenceRun]:w</title>
<path fill="none" stroke="black" d="M405,-77.5C430.65,-77.5 437.89,-80.36 461,-91.5 493.27,-107.06 493.29,-123.84 525,-140.5 554.86,-156.19 565.53,-164.73 594.8,-166.25"/>
<polygon fill="black" stroke="black" points="594.92,-169.76 605,-166.5 595.09,-162.76 594.92,-169.76"/>
</g>
<!-- ProtonCurrent[SampleRun] -->
<g id="node29" class="node">
<title>ProtonCurrent[SampleRun]</title>
<polygon fill="none" stroke="black" points="396.5,-113 301.5,-113 301.5,-92 396.5,-92 396.5,-113"/>
<text text-anchor="start" x="309.5" y="-99.4" font-family="Times,serif" font-size="12.00">[SampleRun]</text>
</g>
<!-- ProtonCurrent[SampleRun]&#45;&gt;ReducibleData[SampleRun] -->
<g id="edge36" class="edge">
<title>ProtonCurrent[SampleRun]:e&#45;&gt;ReducibleData[SampleRun]:w</title>
<path fill="none" stroke="black" d="M398,-102.5C463.55,-102.5 463.34,-155.24 525,-177.5 558.38,-189.55 570.55,-191.26 601.68,-191.47"/>
<polygon fill="black" stroke="black" points="601.99,-194.97 612,-191.5 602.01,-187.97 601.99,-194.97"/>
</g>
<!-- QBins -->
<g id="node30" class="node">
<title>QBins</title>
<polygon fill="none" stroke="black" points="1416.5,-164 1357.5,-164 1357.5,-141 1416.5,-141 1416.5,-164"/>
<text text-anchor="middle" x="1387" y="-148.8" font-family="Times,serif" font-size="14.00">QBins</text>
</g>
<!-- QBins&#45;&gt;ReflectivityOverQ -->
<g id="edge43" class="edge">
<title>QBins:e&#45;&gt;ReflectivityOverQ:w</title>
<path fill="none" stroke="black" d="M1418,-152.5C1502.99,-152.5 1526.73,-152.5 1606.93,-152.5"/>
<polygon fill="black" stroke="black" points="1607,-156 1617,-152.5 1607,-149 1607,-156"/>
</g>
<!-- ReducibleData[ReferenceRun]&#45;&gt;ReducedReference -->
<g id="edge23" class="edge">
<title>ReducibleData[ReferenceRun]:e&#45;&gt;ReducedReference:w</title>
<path fill="none" stroke="black" d="M717,-166.5C812.58,-166.5 833.04,-117.16 923.34,-113.69"/>
<polygon fill="black" stroke="black" points="923.57,-117.19 933.5,-113.5 923.44,-110.19 923.57,-117.19"/>
</g>
<!-- ReducedReference&#45;&gt;Reference -->
<g id="edge37" class="edge">
<title>ReducedReference:e&#45;&gt;Reference:w</title>
<path fill="none" stroke="black" d="M1085.5,-113.5C1187.9,-113.5 1205.94,-179.86 1302.74,-184.27"/>
<polygon fill="black" stroke="black" points="1302.92,-187.78 1313,-184.5 1303.08,-180.78 1302.92,-187.78"/>
</g>
<!-- ReducedReference&#45;&gt;Sample -->
<g id="edge45" class="edge">
<title>ReducedReference:e&#45;&gt;Sample:w</title>
<path fill="none" stroke="black" d="M1085.5,-113.5C1146.28,-113.5 1163.82,-119.76 1219.87,-120.44"/>
<polygon fill="black" stroke="black" points="1219.98,-123.94 1230,-120.5 1220.02,-116.94 1219.98,-123.94"/>
</g>
<!-- WavelengthBins -->
<g id="node33" class="node">
<title>WavelengthBins</title>
<polygon fill="none" stroke="black" points="415,-23 283,-23 283,0 415,0 415,-23"/>
<text text-anchor="middle" x="349" y="-7.8" font-family="Times,serif" font-size="14.00">WavelengthBins</text>
</g>
<!-- WavelengthBins&#45;&gt;ReducibleData[ReferenceRun] -->
<g id="edge32" class="edge">
<title>WavelengthBins:e&#45;&gt;ReducibleData[ReferenceRun]:w</title>
<path fill="none" stroke="black" stroke-width="2" d="M416,-11.5C437.08,-11.5 444.75,-13.07 461,-26.5 505.79,-63.51 480.07,-103.66 525,-140.5 525.29,-140.74 525.59,-140.98 525.88,-141.22"/>
<polygon fill="black" stroke="black" stroke-width="2" points="523.91,-144.12 533.95,-147.5 528.21,-138.6 523.91,-144.12"/>
</g>
<!-- WavelengthBins&#45;&gt;ReducedReference -->
<g id="edge24" class="edge">
<title>WavelengthBins:e&#45;&gt;ReducedReference:w</title>
<path fill="none" stroke="black" d="M416,-11.5C437.08,-11.5 443.52,-14.72 461,-26.5 497.34,-50.99 485.48,-82.56 525,-101.5 563.63,-120.01 852.5,-114.28 923.22,-113.57"/>
<polygon fill="black" stroke="black" points="923.52,-117.07 933.5,-113.5 923.48,-110.07 923.52,-117.07"/>
</g>
<!-- YIndexLimits -->
<g id="node34" class="node">
<title>YIndexLimits</title>
<polygon fill="none" stroke="black" points="404,-50 294,-50 294,-27 404,-27 404,-50"/>
<text text-anchor="middle" x="349" y="-34.8" font-family="Times,serif" font-size="14.00">YIndexLimits</text>
</g>
<!-- YIndexLimits&#45;&gt;ReducibleData[ReferenceRun] -->
<g id="edge29" class="edge">
<title>YIndexLimits:e&#45;&gt;ReducibleData[ReferenceRun]:w</title>
<path fill="none" stroke="black" stroke-width="2" d="M405,-38.5C431.28,-38.5 439.62,-42.22 461,-57.5 498.9,-84.59 486.93,-113.66 525,-140.5 525.57,-140.9 526.13,-141.3 526.69,-141.69"/>
<polygon fill="black" stroke="black" stroke-width="2" points="524.99,-144.76 535.22,-147.5 528.93,-138.98 524.99,-144.76"/>
</g>
<!-- ZIndexLimits -->
<g id="node35" class="node">
<title>ZIndexLimits</title>
<polygon fill="none" stroke="black" points="404.5,-312 293.5,-312 293.5,-289 404.5,-289 404.5,-312"/>
<text text-anchor="middle" x="349" y="-296.8" font-family="Times,serif" font-size="14.00">ZIndexLimits</text>
</g>
<!-- ZIndexLimits&#45;&gt;ReducibleData[ReferenceRun] -->
<g id="edge30" class="edge">
<title>ZIndexLimits:e&#45;&gt;ReducibleData[ReferenceRun]:w</title>
<path fill="none" stroke="black" stroke-width="2" d="M405,-300.5C431.28,-300.5 440.34,-297.75 461,-281.5 499.83,-250.95 483.6,-215.45 516.62,-186.86"/>
<polygon fill="black" stroke="black" stroke-width="2" points="519.15,-189.33 525,-180.5 514.92,-183.76 519.15,-189.33"/>
</g>
<!-- Reference&#45;&gt;ReflectivityOverQ -->
<g id="edge42" class="edge">
<title>Reference:e&#45;&gt;ReflectivityOverQ:w</title>
<path fill="none" stroke="black" d="M1461,-184.5C1528.18,-184.5 1544.61,-155.67 1606.64,-152.74"/>
<polygon fill="black" stroke="black" points="1607.08,-156.23 1617,-152.5 1606.92,-149.23 1607.08,-156.23"/>
</g>
<!-- Sample&#45;&gt;ReflectivityOverQ -->
<g id="edge41" class="edge">
<title>Sample:e&#45;&gt;ReflectivityOverQ:w</title>
<path fill="none" stroke="black" d="M1544,-120.5C1575.69,-120.5 1580.75,-146.11 1606.82,-151.51"/>
<polygon fill="black" stroke="black" points="1606.71,-155.01 1617,-152.5 1607.39,-148.05 1606.71,-155.01"/>
</g>
</g>
</svg>
