<?xml version="1.0" encoding="UTF-8" standalone="no"?>
<!DOCTYPE svg PUBLIC "-//W3C//DTD SVG 1.1//EN"
 "http://www.w3.org/Graphics/SVG/1.1/DTD/svg11.dtd">
<!-- Generated by graphviz version 2.43.0 (0)
 -->
<!-- Title: %3 Pages: 1 -->
<svg width="2680pt" height="511pt"
 viewBox="0.00 0.00 2680.00 510.50" xmlns="http://www.w3.org/2000/svg" xmlns:xlink="http://www.w3.org/1999/xlink">
<g id="graph0" class="graph" transform="scale(1 1) rotate(0) translate(4 506.5)">
<title>%3</title>
<polygon fill="white" stroke="transparent" points="-4,4 -4,-506.5 2676,-506.5 2676,4 -4,4"/>
<g id="clust3" class="cluster">
<title>cluster_CoordTransformationGraph</title>
<polygon fill="#f0f0ff" stroke="#f0f0ff" points="703,-213.5 703,-309.5 927,-309.5 927,-213.5 703,-213.5"/>
<text text-anchor="start" x="716" y="-295.3" font-family="Times,serif" font-size="14.00">CoordTransformationGraph</text>
<text text-anchor="start" x="711" y="-283.7" font-family="Times,serif" font-size="11.00">via:</text>
<text text-anchor="start" x="732" y="-283.7" font-family="Times,serif" font-style="italic" font-size="11.00">coordinate_transformation_graph</text>
</g>
<g id="clust10" class="cluster">
<title>cluster_Filename</title>
<polygon fill="#f0f0ff" stroke="#f0f0ff" points="23,-131.5 23,-217.5 149,-217.5 149,-131.5 23,-131.5"/>
<text text-anchor="middle" x="86" y="-202.3" font-family="Times,serif" font-size="14.00">Filename</text>
</g>
<g id="clust7" class="cluster">
<title>cluster_DetectorLtotal</title>
<polygon fill="#f0f0ff" stroke="#f0f0ff" points="999,-95.5 999,-191.5 1178,-191.5 1178,-95.5 999,-95.5"/>
<text text-anchor="start" x="1036" y="-177.3" font-family="Times,serif" font-size="14.00">DetectorLtotal</text>
<text text-anchor="start" x="1007" y="-165.7" font-family="Times,serif" font-size="11.00">via:</text>
<text text-anchor="start" x="1028" y="-165.7" font-family="Times,serif" font-style="italic" font-size="11.00">detector_ltotal_from_raw</text>
</g>
<g id="clust8" class="cluster">
<title>cluster_DetectorRotation</title>
<polygon fill="#f0f0ff" stroke="#f0f0ff" points="459.5,-78.5 459.5,-174.5 623.5,-174.5 623.5,-78.5 459.5,-78.5"/>
<text text-anchor="start" x="479.5" y="-160.3" font-family="Times,serif" font-size="14.00">DetectorRotation</text>
<text text-anchor="start" x="467.5" y="-148.7" font-family="Times,serif" font-size="11.00">via:</text>
<text text-anchor="start" x="488.5" y="-148.7" font-family="Times,serif" font-style="italic" font-size="11.00">load_detector_rotation</text>
</g>
<g id="clust12" class="cluster">
<title>cluster_Position</title>
<polygon fill="#f0f0ff" stroke="#f0f0ff" points="444,-318.5 444,-494.5 639,-494.5 639,-318.5 444,-318.5"/>
<text text-anchor="middle" x="541.5" y="-479.3" font-family="Times,serif" font-size="14.00">Position</text>
</g>
<g id="clust13" class="cluster">
<title>cluster_ProtonCurrent</title>
<polygon fill="#f0f0ff" stroke="#f0f0ff" points="1284.5,-135.5 1284.5,-221.5 1410.5,-221.5 1410.5,-135.5 1284.5,-135.5"/>
<text text-anchor="middle" x="1347.5" y="-206.3" font-family="Times,serif" font-size="14.00">ProtonCurrent</text>
</g>
<g id="clust16" class="cluster">
<title>cluster_RawDetector</title>
<polygon fill="#f0f0ff" stroke="#f0f0ff" points="229,-113.5 229,-209.5 388,-209.5 388,-113.5 229,-113.5"/>
<text text-anchor="start" x="261.5" y="-195.3" font-family="Times,serif" font-size="14.00">RawDetector</text>
<text text-anchor="start" x="237" y="-183.7" font-family="Times,serif" font-size="11.00">via:</text>
<text text-anchor="start" x="258" y="-183.7" font-family="Times,serif" font-style="italic" font-size="11.00">load_mcstas_provider</text>
</g>
<g id="clust18" class="cluster">
<title>cluster_ReducibleData</title>
<polygon fill="#f0f0ff" stroke="#f0f0ff" points="1509,-205.5 1509,-301.5 1781,-301.5 1781,-205.5 1509,-205.5"/>
<text text-anchor="start" x="1592.5" y="-287.3" font-family="Times,serif" font-size="14.00">ReducibleData</text>
<text text-anchor="start" x="1517" y="-275.7" font-family="Times,serif" font-size="11.00">via:</text>
<text text-anchor="start" x="1538" y="-275.7" font-family="Times,serif" font-style="italic" font-size="11.00">add_coords_masks_and_apply_corrections</text>
</g>
<g id="clust22" class="cluster">
<title>cluster_SampleRotationOffset</title>
<polygon fill="#f0f0ff" stroke="#f0f0ff" points="0,-37.5 0,-123.5 173,-123.5 173,-37.5 0,-37.5"/>
<text text-anchor="middle" x="86.5" y="-108.3" font-family="Times,serif" font-size="14.00">SampleRotationOffset</text>
</g>
<g id="clust23" class="cluster">
<title>cluster_SampleRotation</title>
<polygon fill="#f0f0ff" stroke="#f0f0ff" points="462.5,-214.5 462.5,-310.5 620.5,-310.5 620.5,-214.5 462.5,-214.5"/>
<text text-anchor="start" x="484" y="-296.3" font-family="Times,serif" font-size="14.00">SampleRotation</text>
<text text-anchor="start" x="470.5" y="-284.7" font-family="Times,serif" font-size="11.00">via:</text>
<text text-anchor="start" x="491.5" y="-284.7" font-family="Times,serif" font-style="italic" font-size="11.00">load_sample_rotation</text>
</g>
<g id="clust24" class="cluster">
<title>cluster_TofDetector</title>
<polygon fill="#f0f0ff" stroke="#f0f0ff" points="1249.5,-31.5 1249.5,-127.5 1445.5,-127.5 1445.5,-31.5 1249.5,-31.5"/>
<text text-anchor="start" x="1305" y="-113.3" font-family="Times,serif" font-size="14.00">TofDetector</text>
<text text-anchor="start" x="1257.5" y="-101.7" font-family="Times,serif" font-size="11.00">via:</text>
<text text-anchor="start" x="1278.5" y="-101.7" font-family="Times,serif" font-style="italic" font-size="11.00">detector_time_of_flight_data</text>
</g>
<!-- Alpha -->
<g id="node1" class="node">
<title>Alpha</title>
<polygon fill="none" stroke="black" points="1673.5,-160 1616.5,-160 1616.5,-137 1673.5,-137 1673.5,-160"/>
<text text-anchor="middle" x="1645" y="-144.8" font-family="Times,serif" font-size="14.00">Alpha</text>
</g>
<!-- ReducedReference -->
<g id="node31" class="node">
<title>ReducedReference</title>
<polygon fill="none" stroke="black" points="2022.5,-209 1872.5,-209 1872.5,-176 2022.5,-176 2022.5,-209"/>
<text text-anchor="start" x="1880.5" y="-194.8" font-family="Times,serif" font-size="14.00">ReducedReference</text>
<text text-anchor="start" x="1888" y="-183.2" font-family="Times,serif" font-size="11.00">via:</text>
<text text-anchor="start" x="1909" y="-183.2" font-family="Times,serif" font-style="italic" font-size="11.00">reduce_reference</text>
</g>
<!-- Alpha&#45;&gt;ReducedReference -->
<g id="edge28" class="edge">
<title>Alpha:e&#45;&gt;ReducedReference:w</title>
<path fill="none" stroke="black" d="M1675,-148.5C1722.64,-148.5 1734.56,-153.87 1781,-164.5 1818.52,-173.08 1827.88,-189.37 1861.37,-192.11"/>
<polygon fill="black" stroke="black" points="1861.37,-195.61 1871.5,-192.5 1861.64,-188.61 1861.37,-195.61"/>
</g>
<!-- Sample -->
<g id="node39" class="node">
<title>Sample</title>
<polygon fill="none" stroke="black" points="2436,-196 2122,-196 2122,-163 2436,-163 2436,-196"/>
<text text-anchor="start" x="2252" y="-181.8" font-family="Times,serif" font-size="14.00">Sample</text>
<text text-anchor="start" x="2130" y="-170.2" font-family="Times,serif" font-size="11.00">via:</text>
<text text-anchor="start" x="2151" y="-170.2" font-family="Times,serif" font-style="italic" font-size="11.00">mask_events_where_supermirror_does_not_cover</text>
</g>
<!-- Alpha&#45;&gt;Sample -->
<g id="edge51" class="edge">
<title>Alpha:e&#45;&gt;Sample:w</title>
<path fill="none" stroke="black" d="M1675,-148.5C1841.98,-148.5 1883.64,-157.16 2050,-171.5 2078.44,-173.95 2087.74,-178.35 2111.93,-179.31"/>
<polygon fill="black" stroke="black" points="2111.94,-182.81 2122,-179.5 2112.07,-175.81 2111.94,-182.81"/>
</g>
<!-- BeamDivergenceLimits -->
<g id="node2" class="node">
<title>BeamDivergenceLimits</title>
<polygon fill="none" stroke="black" points="1439,-273 1256,-273 1256,-250 1439,-250 1439,-273"/>
<text text-anchor="middle" x="1347.5" y="-257.8" font-family="Times,serif" font-size="14.00">BeamDivergenceLimits</text>
</g>
<!-- ReducibleData[ReferenceRun] -->
<g id="node30" class="node">
<title>ReducibleData[ReferenceRun]</title>
<polygon fill="none" stroke="black" points="1700,-260 1590,-260 1590,-239 1700,-239 1700,-260"/>
<text text-anchor="start" x="1598" y="-246.4" font-family="Times,serif" font-size="12.00">[ReferenceRun]</text>
</g>
<!-- BeamDivergenceLimits&#45;&gt;ReducibleData[ReferenceRun] -->
<g id="edge32" class="edge">
<title>BeamDivergenceLimits:e&#45;&gt;ReducibleData[ReferenceRun]:w</title>
<path fill="none" stroke="black" stroke-width="2" d="M1440.5,-261.5C1465.13,-261.5 1482.83,-259.84 1498.74,-257.75"/>
<polygon fill="black" stroke="black" stroke-width="2" points="1499.58,-261.17 1509,-256.33 1498.62,-254.24 1499.58,-261.17"/>
</g>
<!-- Position[NXsource, ReferenceRun] -->
<g id="node3" class="node">
<title>Position[NXsource, ReferenceRun]</title>
<polygon fill="none" stroke="black" points="630,-463 453,-463 453,-432 630,-432 630,-463"/>
<text text-anchor="start" x="461" y="-450.4" font-family="Times,serif" font-size="12.00">[NXsource, ReferenceRun]</text>
<text text-anchor="start" x="472" y="-439.2" font-family="Times,serif" font-size="11.00">via:</text>
<text text-anchor="start" x="493" y="-439.2" font-family="Times,serif" font-style="italic" font-size="11.00">load_source_position</text>
</g>
<!-- CoordTransformationGraph[ReferenceRun] -->
<g id="node4" class="node">
<title>CoordTransformationGraph[ReferenceRun]</title>
<polygon fill="none" stroke="black" points="870,-268 760,-268 760,-247 870,-247 870,-268"/>
<text text-anchor="start" x="768" y="-254.4" font-family="Times,serif" font-size="12.00">[ReferenceRun]</text>
</g>
<!-- Position[NXsource, ReferenceRun]&#45;&gt;CoordTransformationGraph[ReferenceRun] -->
<g id="edge1" class="edge">
<title>Position[NXsource, ReferenceRun]:e&#45;&gt;CoordTransformationGraph[ReferenceRun]:w</title>
<path fill="none" stroke="black" d="M630.5,-447.5C728.86,-447.5 662.14,-270.62 748.89,-258.19"/>
<polygon fill="black" stroke="black" points="749.26,-261.67 759,-257.5 748.79,-254.69 749.26,-261.67"/>
</g>
<!-- DetectorLtotal[ReferenceRun] -->
<g id="node17" class="node">
<title>DetectorLtotal[ReferenceRun]</title>
<polygon fill="none" stroke="black" points="1143,-150 1033,-150 1033,-129 1143,-129 1143,-150"/>
<text text-anchor="start" x="1041" y="-136.4" font-family="Times,serif" font-size="12.00">[ReferenceRun]</text>
</g>
<!-- CoordTransformationGraph[ReferenceRun]&#45;&gt;DetectorLtotal[ReferenceRun] -->
<g id="edge11" class="edge">
<title>CoordTransformationGraph[ReferenceRun]:e&#45;&gt;DetectorLtotal[ReferenceRun]:w</title>
<path fill="none" stroke="black" d="M871,-257.5C896.65,-257.5 904.64,-256.09 927,-243.5 981.1,-213.04 968.05,-147.23 1021.95,-140.13"/>
<polygon fill="black" stroke="black" points="1022.24,-143.61 1032,-139.5 1021.8,-136.63 1022.24,-143.61"/>
</g>
<!-- CoordTransformationGraph[ReferenceRun]&#45;&gt;ReducibleData[ReferenceRun] -->
<g id="edge35" class="edge">
<title>CoordTransformationGraph[ReferenceRun]:e&#45;&gt;ReducibleData[ReferenceRun]:w</title>
<path fill="none" stroke="black" d="M871,-257.5C1039.26,-257.5 1081.25,-251.28 1249.5,-249.5 1396.84,-247.94 1436.28,-249.43 1578.57,-249.5"/>
<polygon fill="black" stroke="black" points="1579,-253 1589,-249.5 1579,-246 1579,-253"/>
</g>
<!-- Reference -->
<g id="node38" class="node">
<title>Reference</title>
<polygon fill="none" stroke="black" points="2351.5,-243 2206.5,-243 2206.5,-210 2351.5,-210 2351.5,-243"/>
<text text-anchor="start" x="2242.5" y="-228.8" font-family="Times,serif" font-size="14.00">Reference</text>
<text text-anchor="start" x="2214.5" y="-217.2" font-family="Times,serif" font-size="11.00">via:</text>
<text text-anchor="start" x="2235.5" y="-217.2" font-family="Times,serif" font-style="italic" font-size="11.00">evaluate_reference</text>
</g>
<!-- CoordTransformationGraph[ReferenceRun]&#45;&gt;Reference -->
<g id="edge42" class="edge">
<title>CoordTransformationGraph[ReferenceRun]:e&#45;&gt;Reference:w</title>
<path fill="none" stroke="black" d="M871,-257.5C1044.66,-257.5 1078.1,-326.58 1249.5,-354.5 1292.16,-361.45 1303.28,-361.5 1346.5,-361.5 1346.5,-361.5 1346.5,-361.5 1646,-361.5 1898.22,-361.5 1948.12,-230.04 2195,-226.57"/>
<polygon fill="black" stroke="black" points="2195.02,-230.07 2205,-226.5 2194.98,-223.07 2195.02,-230.07"/>
</g>
<!-- Position[NXsample, ReferenceRun] -->
<g id="node5" class="node">
<title>Position[NXsample, ReferenceRun]</title>
<polygon fill="none" stroke="black" points="631,-428 452,-428 452,-397 631,-397 631,-428"/>
<text text-anchor="start" x="460" y="-415.4" font-family="Times,serif" font-size="12.00">[NXsample, ReferenceRun]</text>
<text text-anchor="start" x="470.5" y="-404.2" font-family="Times,serif" font-size="11.00">via:</text>
<text text-anchor="start" x="491.5" y="-404.2" font-family="Times,serif" font-style="italic" font-size="11.00">load_sample_position</text>
</g>
<!-- Position[NXsample, ReferenceRun]&#45;&gt;CoordTransformationGraph[ReferenceRun] -->
<g id="edge2" class="edge">
<title>Position[NXsample, ReferenceRun]:e&#45;&gt;CoordTransformationGraph[ReferenceRun]:w</title>
<path fill="none" stroke="black" d="M632.5,-412.5C717.77,-412.5 674.06,-269.95 748.75,-258.26"/>
<polygon fill="black" stroke="black" points="749.29,-261.73 759,-257.5 748.77,-254.75 749.29,-261.73"/>
</g>
<!-- SampleRotation[ReferenceRun] -->
<g id="node6" class="node">
<title>SampleRotation[ReferenceRun]</title>
<polygon fill="none" stroke="black" points="596.5,-269 486.5,-269 486.5,-248 596.5,-248 596.5,-269"/>
<text text-anchor="start" x="494.5" y="-255.4" font-family="Times,serif" font-size="12.00">[ReferenceRun]</text>
</g>
<!-- SampleRotation[ReferenceRun]&#45;&gt;CoordTransformationGraph[ReferenceRun] -->
<g id="edge3" class="edge">
<title>SampleRotation[ReferenceRun]:e&#45;&gt;CoordTransformationGraph[ReferenceRun]:w</title>
<path fill="none" stroke="black" d="M597.5,-258.5C665.77,-258.5 685.34,-257.6 748.86,-257.51"/>
<polygon fill="black" stroke="black" points="749,-261.01 759,-257.5 749,-254.01 749,-261.01"/>
</g>
<!-- DetectorRotation[ReferenceRun] -->
<g id="node7" class="node">
<title>DetectorRotation[ReferenceRun]</title>
<polygon fill="none" stroke="black" points="596.5,-133 486.5,-133 486.5,-112 596.5,-112 596.5,-133"/>
<text text-anchor="start" x="494.5" y="-119.4" font-family="Times,serif" font-size="12.00">[ReferenceRun]</text>
</g>
<!-- DetectorRotation[ReferenceRun]&#45;&gt;CoordTransformationGraph[ReferenceRun] -->
<g id="edge4" class="edge">
<title>DetectorRotation[ReferenceRun]:e&#45;&gt;CoordTransformationGraph[ReferenceRun]:w</title>
<path fill="none" stroke="black" d="M597.5,-122.5C668.85,-122.5 642.15,-206.25 703,-243.5 721.63,-254.91 730.54,-257.04 748.61,-257.42"/>
<polygon fill="black" stroke="black" points="748.97,-260.92 759,-257.5 749.03,-253.92 748.97,-260.92"/>
</g>
<!-- DetectorBankSizes -->
<g id="node8" class="node">
<title>DetectorBankSizes</title>
<polygon fill="none" stroke="black" points="617.5,-206 465.5,-206 465.5,-183 617.5,-183 617.5,-206"/>
<text text-anchor="middle" x="541.5" y="-190.8" font-family="Times,serif" font-size="14.00">DetectorBankSizes</text>
</g>
<!-- DetectorBankSizes&#45;&gt;CoordTransformationGraph[ReferenceRun] -->
<g id="edge5" class="edge">
<title>DetectorBankSizes:e&#45;&gt;CoordTransformationGraph[ReferenceRun]:w</title>
<path fill="none" stroke="black" stroke-width="2" d="M618.5,-194.5C658.35,-194.5 662.34,-222.04 693.85,-239.18"/>
<polygon fill="black" stroke="black" stroke-width="2" points="692.46,-242.4 703,-243.5 695.45,-236.07 692.46,-242.4"/>
</g>
<!-- Position[NXsource, SampleRun] -->
<g id="node9" class="node">
<title>Position[NXsource, SampleRun]</title>
<polygon fill="none" stroke="black" points="622,-393 461,-393 461,-362 622,-362 622,-393"/>
<text text-anchor="start" x="469" y="-380.4" font-family="Times,serif" font-size="12.00">[NXsource, SampleRun]</text>
<text text-anchor="start" x="472" y="-369.2" font-family="Times,serif" font-size="11.00">via:</text>
<text text-anchor="start" x="493" y="-369.2" font-family="Times,serif" font-style="italic" font-size="11.00">load_source_position</text>
</g>
<!-- CoordTransformationGraph[SampleRun] -->
<g id="node10" class="node">
<title>CoordTransformationGraph[SampleRun]</title>
<polygon fill="none" stroke="black" points="862.5,-243 767.5,-243 767.5,-222 862.5,-222 862.5,-243"/>
<text text-anchor="start" x="775.5" y="-229.4" font-family="Times,serif" font-size="12.00">[SampleRun]</text>
</g>
<!-- Position[NXsource, SampleRun]&#45;&gt;CoordTransformationGraph[SampleRun] -->
<g id="edge6" class="edge">
<title>Position[NXsource, SampleRun]:e&#45;&gt;CoordTransformationGraph[SampleRun]:w</title>
<path fill="none" stroke="black" d="M623.5,-377.5C691.23,-377.5 648.71,-287.99 703,-247.5 723.19,-232.44 734.24,-232.25 755.98,-232.44"/>
<polygon fill="black" stroke="black" points="755.98,-235.94 766,-232.5 756.02,-228.94 755.98,-235.94"/>
</g>
<!-- DetectorLtotal[SampleRun] -->
<g id="node19" class="node">
<title>DetectorLtotal[SampleRun]</title>
<polygon fill="none" stroke="black" points="1135.5,-125 1040.5,-125 1040.5,-104 1135.5,-104 1135.5,-125"/>
<text text-anchor="start" x="1048.5" y="-111.4" font-family="Times,serif" font-size="12.00">[SampleRun]</text>
</g>
<!-- CoordTransformationGraph[SampleRun]&#45;&gt;DetectorLtotal[SampleRun] -->
<g id="edge13" class="edge">
<title>CoordTransformationGraph[SampleRun]:e&#45;&gt;DetectorLtotal[SampleRun]:w</title>
<path fill="none" stroke="black" d="M864,-232.5C954.33,-232.5 945.98,-123.1 1028.99,-114.98"/>
<polygon fill="black" stroke="black" points="1029.18,-118.47 1039,-114.5 1028.85,-111.48 1029.18,-118.47"/>
</g>
<!-- ReducibleData[SampleRun] -->
<g id="node37" class="node">
<title>ReducibleData[SampleRun]</title>
<polygon fill="none" stroke="black" points="1692.5,-235 1597.5,-235 1597.5,-214 1692.5,-214 1692.5,-235"/>
<text text-anchor="start" x="1605.5" y="-221.4" font-family="Times,serif" font-size="12.00">[SampleRun]</text>
</g>
<!-- CoordTransformationGraph[SampleRun]&#45;&gt;ReducibleData[SampleRun] -->
<g id="edge39" class="edge">
<title>CoordTransformationGraph[SampleRun]:e&#45;&gt;ReducibleData[SampleRun]:w</title>
<path fill="none" stroke="black" d="M864,-232.5C1185.86,-232.5 1268.87,-224.67 1585.6,-224.5"/>
<polygon fill="black" stroke="black" points="1586,-228 1596,-224.5 1586,-221 1586,-228"/>
</g>
<!-- Position[NXsample, SampleRun] -->
<g id="node11" class="node">
<title>Position[NXsample, SampleRun]</title>
<polygon fill="none" stroke="black" points="623.5,-358 459.5,-358 459.5,-327 623.5,-327 623.5,-358"/>
<text text-anchor="start" x="467.5" y="-345.4" font-family="Times,serif" font-size="12.00">[NXsample, SampleRun]</text>
<text text-anchor="start" x="470.5" y="-334.2" font-family="Times,serif" font-size="11.00">via:</text>
<text text-anchor="start" x="491.5" y="-334.2" font-family="Times,serif" font-style="italic" font-size="11.00">load_sample_position</text>
</g>
<!-- Position[NXsample, SampleRun]&#45;&gt;CoordTransformationGraph[SampleRun] -->
<g id="edge7" class="edge">
<title>Position[NXsample, SampleRun]:e&#45;&gt;CoordTransformationGraph[SampleRun]:w</title>
<path fill="none" stroke="black" d="M624.5,-342.5C679.27,-342.5 656.51,-276.45 703,-247.5 724.28,-234.25 734.45,-232.7 755.74,-232.52"/>
<polygon fill="black" stroke="black" points="756.01,-236.02 766,-232.5 755.99,-229.02 756.01,-236.02"/>
</g>
<!-- SampleRotation[SampleRun] -->
<g id="node12" class="node">
<title>SampleRotation[SampleRun]</title>
<polygon fill="none" stroke="black" points="589,-244 494,-244 494,-223 589,-223 589,-244"/>
<text text-anchor="start" x="502" y="-230.4" font-family="Times,serif" font-size="12.00">[SampleRun]</text>
</g>
<!-- SampleRotation[SampleRun]&#45;&gt;CoordTransformationGraph[SampleRun] -->
<g id="edge8" class="edge">
<title>SampleRotation[SampleRun]:e&#45;&gt;CoordTransformationGraph[SampleRun]:w</title>
<path fill="none" stroke="black" d="M590.5,-233.5C665,-233.5 686.13,-232.59 755.83,-232.51"/>
<polygon fill="black" stroke="black" points="756,-236.01 766,-232.5 756,-229.01 756,-236.01"/>
</g>
<!-- DetectorRotation[SampleRun] -->
<g id="node13" class="node">
<title>DetectorRotation[SampleRun]</title>
<polygon fill="none" stroke="black" points="589,-108 494,-108 494,-87 589,-87 589,-108"/>
<text text-anchor="start" x="502" y="-94.4" font-family="Times,serif" font-size="12.00">[SampleRun]</text>
</g>
<!-- DetectorRotation[SampleRun]&#45;&gt;CoordTransformationGraph[SampleRun] -->
<g id="edge9" class="edge">
<title>DetectorRotation[SampleRun]:e&#45;&gt;CoordTransformationGraph[SampleRun]:w</title>
<path fill="none" stroke="black" d="M590.5,-97.5C613.06,-97.5 619.52,-101.12 639,-112.5 702.92,-149.82 689.82,-225.01 755.69,-231.98"/>
<polygon fill="black" stroke="black" points="755.84,-235.49 766,-232.5 756.19,-228.5 755.84,-235.49"/>
</g>
<!-- CorrectionsToApply -->
<g id="node14" class="node">
<title>CorrectionsToApply</title>
<polygon fill="none" stroke="black" points="1426,-354 1269,-354 1269,-331 1426,-331 1426,-354"/>
<text text-anchor="middle" x="1347.5" y="-338.8" font-family="Times,serif" font-size="14.00">CorrectionsToApply</text>
</g>
<!-- CorrectionsToApply&#45;&gt;ReducibleData[ReferenceRun] -->
<g id="edge36" class="edge">
<title>CorrectionsToApply:e&#45;&gt;ReducibleData[ReferenceRun]:w</title>
<path fill="none" stroke="black" stroke-width="2" d="M1427.5,-342.5C1464.85,-342.5 1484.52,-323.58 1502.45,-302.81"/>
<polygon fill="black" stroke="black" stroke-width="2" points="1505.19,-304.99 1509,-295.11 1499.86,-300.46 1505.19,-304.99"/>
</g>
<!-- CriticalEdge -->
<g id="node15" class="node">
<title>CriticalEdge</title>
<polygon fill="none" stroke="black" points="1698,-133 1592,-133 1592,-110 1698,-110 1698,-133"/>
<text text-anchor="middle" x="1645" y="-117.8" font-family="Times,serif" font-size="14.00">CriticalEdge</text>
</g>
<!-- CriticalEdge&#45;&gt;ReducedReference -->
<g id="edge26" class="edge">
<title>CriticalEdge:e&#45;&gt;ReducedReference:w</title>
<path fill="none" stroke="black" d="M1699,-121.5C1736.13,-121.5 1746.37,-124.09 1781,-137.5 1821.46,-153.17 1824.23,-186.69 1861.29,-191.83"/>
<polygon fill="black" stroke="black" points="1861.29,-195.34 1871.5,-192.5 1861.75,-188.35 1861.29,-195.34"/>
</g>
<!-- CriticalEdge&#45;&gt;Sample -->
<g id="edge49" class="edge">
<title>CriticalEdge:e&#45;&gt;Sample:w</title>
<path fill="none" stroke="black" d="M1699,-121.5C1855.61,-121.5 1897.29,-117.8 2050,-152.5 2079.68,-159.24 2086.5,-175.39 2111.77,-178.84"/>
<polygon fill="black" stroke="black" points="2111.8,-182.35 2122,-179.5 2112.24,-175.37 2111.8,-182.35"/>
</g>
<!-- RawDetector[ReferenceRun] -->
<g id="node16" class="node">
<title>RawDetector[ReferenceRun]</title>
<polygon fill="none" stroke="black" points="363,-168 253,-168 253,-147 363,-147 363,-168"/>
<text text-anchor="start" x="261" y="-154.4" font-family="Times,serif" font-size="12.00">[ReferenceRun]</text>
</g>
<!-- RawDetector[ReferenceRun]&#45;&gt;Position[NXsource, ReferenceRun] -->
<g id="edge18" class="edge">
<title>RawDetector[ReferenceRun]:e&#45;&gt;Position[NXsource, ReferenceRun]:w</title>
<path fill="none" stroke="black" d="M364,-157.5C495.2,-157.5 327.07,-432.41 442.49,-446.91"/>
<polygon fill="black" stroke="black" points="442.31,-450.4 452.5,-447.5 442.72,-443.41 442.31,-450.4"/>
</g>
<!-- RawDetector[ReferenceRun]&#45;&gt;Position[NXsample, ReferenceRun] -->
<g id="edge16" class="edge">
<title>RawDetector[ReferenceRun]:e&#45;&gt;Position[NXsample, ReferenceRun]:w</title>
<path fill="none" stroke="black" d="M364,-157.5C480.05,-157.5 339.83,-397.29 440.37,-411.81"/>
<polygon fill="black" stroke="black" points="440.29,-415.32 450.5,-412.5 440.76,-408.33 440.29,-415.32"/>
</g>
<!-- RawDetector[ReferenceRun]&#45;&gt;SampleRotation[ReferenceRun] -->
<g id="edge52" class="edge">
<title>RawDetector[ReferenceRun]:e&#45;&gt;SampleRotation[ReferenceRun]:w</title>
<path fill="none" stroke="black" d="M364,-157.5C416.53,-157.5 399.96,-215.87 444,-244.5 457.13,-253.04 463.4,-256.9 475.49,-258.08"/>
<polygon fill="black" stroke="black" points="475.36,-261.58 485.5,-258.5 475.65,-254.59 475.36,-261.58"/>
</g>
<!-- RawDetector[ReferenceRun]&#45;&gt;DetectorRotation[ReferenceRun] -->
<g id="edge14" class="edge">
<title>RawDetector[ReferenceRun]:e&#45;&gt;DetectorRotation[ReferenceRun]:w</title>
<path fill="none" stroke="black" d="M364,-157.5C416.68,-157.5 427.98,-126.74 475.49,-122.89"/>
<polygon fill="black" stroke="black" points="475.65,-126.39 485.5,-122.5 475.37,-119.4 475.65,-126.39"/>
</g>
<!-- RawDetector[ReferenceRun]&#45;&gt;DetectorLtotal[ReferenceRun] -->
<g id="edge10" class="edge">
<title>RawDetector[ReferenceRun]:e&#45;&gt;DetectorLtotal[ReferenceRun]:w</title>
<path fill="none" stroke="black" d="M364,-157.5C376.35,-157.5 378.54,-151.43 388,-143.5 417.48,-118.79 409.09,-93.66 444,-77.5 541.83,-32.21 926.34,-131.21 1021.83,-139.02"/>
<polygon fill="black" stroke="black" points="1021.85,-142.52 1032,-139.5 1022.18,-135.53 1021.85,-142.52"/>
</g>
<!-- TofDetector[ReferenceRun] -->
<g id="node33" class="node">
<title>TofDetector[ReferenceRun]</title>
<polygon fill="none" stroke="black" points="1402.5,-86 1292.5,-86 1292.5,-65 1402.5,-65 1402.5,-86"/>
<text text-anchor="start" x="1300.5" y="-72.4" font-family="Times,serif" font-size="12.00">[ReferenceRun]</text>
</g>
<!-- RawDetector[ReferenceRun]&#45;&gt;TofDetector[ReferenceRun] -->
<g id="edge54" class="edge">
<title>RawDetector[ReferenceRun]:e&#45;&gt;TofDetector[ReferenceRun]:w</title>
<path fill="none" stroke="black" d="M364,-157.5C376.35,-157.5 378.89,-151.84 388,-143.5 419.75,-114.44 407.31,-86.99 444,-64.5 543.19,-3.7 586.97,-34.97 703,-26.5 808.28,-18.82 1075.17,-2.68 1178,-26.5 1228.08,-38.1 1235.71,-70.88 1281.47,-75.06"/>
<polygon fill="black" stroke="black" points="1281.36,-78.56 1291.5,-75.5 1281.66,-71.57 1281.36,-78.56"/>
</g>
<!-- DetectorLtotal[ReferenceRun]&#45;&gt;TofDetector[ReferenceRun] -->
<g id="edge56" class="edge">
<title>DetectorLtotal[ReferenceRun]:e&#45;&gt;TofDetector[ReferenceRun]:w</title>
<path fill="none" stroke="black" d="M1144,-139.5C1211.97,-139.5 1219.43,-81.6 1281.49,-75.94"/>
<polygon fill="black" stroke="black" points="1281.66,-79.44 1291.5,-75.5 1281.35,-72.45 1281.66,-79.44"/>
</g>
<!-- RawDetector[SampleRun] -->
<g id="node18" class="node">
<title>RawDetector[SampleRun]</title>
<polygon fill="none" stroke="black" points="355.5,-143 260.5,-143 260.5,-122 355.5,-122 355.5,-143"/>
<text text-anchor="start" x="268.5" y="-129.4" font-family="Times,serif" font-size="12.00">[SampleRun]</text>
</g>
<!-- RawDetector[SampleRun]&#45;&gt;Position[NXsource, SampleRun] -->
<g id="edge19" class="edge">
<title>RawDetector[SampleRun]:e&#45;&gt;Position[NXsource, SampleRun]:w</title>
<path fill="none" stroke="black" d="M357,-132.5C471.46,-132.5 349.32,-362.89 449.46,-376.84"/>
<polygon fill="black" stroke="black" points="449.29,-380.34 459.5,-377.5 449.75,-373.35 449.29,-380.34"/>
</g>
<!-- RawDetector[SampleRun]&#45;&gt;Position[NXsample, SampleRun] -->
<g id="edge17" class="edge">
<title>RawDetector[SampleRun]:e&#45;&gt;Position[NXsample, SampleRun]:w</title>
<path fill="none" stroke="black" d="M357,-132.5C457.02,-132.5 362.02,-327.99 448.33,-341.74"/>
<polygon fill="black" stroke="black" points="448.27,-345.24 458.5,-342.5 448.79,-338.26 448.27,-345.24"/>
</g>
<!-- RawDetector[SampleRun]&#45;&gt;SampleRotation[SampleRun] -->
<g id="edge53" class="edge">
<title>RawDetector[SampleRun]:e&#45;&gt;SampleRotation[SampleRun]:w</title>
<path fill="none" stroke="black" d="M357,-132.5C428.59,-132.5 418.57,-224.25 482.51,-232.86"/>
<polygon fill="black" stroke="black" points="482.3,-236.35 492.5,-233.5 482.75,-229.36 482.3,-236.35"/>
</g>
<!-- RawDetector[SampleRun]&#45;&gt;DetectorRotation[SampleRun] -->
<g id="edge15" class="edge">
<title>RawDetector[SampleRun]:e&#45;&gt;DetectorRotation[SampleRun]:w</title>
<path fill="none" stroke="black" d="M357,-132.5C415.68,-132.5 428.88,-101.35 482.4,-97.82"/>
<polygon fill="black" stroke="black" points="482.62,-101.32 492.5,-97.5 482.39,-94.32 482.62,-101.32"/>
</g>
<!-- RawDetector[SampleRun]&#45;&gt;DetectorLtotal[SampleRun] -->
<g id="edge12" class="edge">
<title>RawDetector[SampleRun]:e&#45;&gt;DetectorLtotal[SampleRun]:w</title>
<path fill="none" stroke="black" d="M357,-132.5C406.08,-132.5 397.6,-80.48 444,-64.5 505.89,-43.18 914.55,-80.36 927,-82.5 974.53,-90.68 985.78,-111.39 1028.95,-114.19"/>
<polygon fill="black" stroke="black" points="1028.9,-117.69 1039,-114.5 1029.11,-110.69 1028.9,-117.69"/>
</g>
<!-- TofDetector[SampleRun] -->
<g id="node36" class="node">
<title>TofDetector[SampleRun]</title>
<polygon fill="none" stroke="black" points="1395,-61 1300,-61 1300,-40 1395,-40 1395,-61"/>
<text text-anchor="start" x="1308" y="-47.4" font-family="Times,serif" font-size="12.00">[SampleRun]</text>
</g>
<!-- RawDetector[SampleRun]&#45;&gt;TofDetector[SampleRun] -->
<g id="edge58" class="edge">
<title>RawDetector[SampleRun]:e&#45;&gt;TofDetector[SampleRun]:w</title>
<path fill="none" stroke="black" d="M357,-132.5C418.29,-132.5 389.12,-52.79 444,-25.5 506.62,5.64 1021.63,5.14 1178,-16.5 1229.57,-23.64 1241.41,-47.18 1288.29,-50.18"/>
<polygon fill="black" stroke="black" points="1288.4,-53.69 1298.5,-50.5 1288.61,-46.69 1288.4,-53.69"/>
</g>
<!-- DetectorLtotal[SampleRun]&#45;&gt;TofDetector[SampleRun] -->
<g id="edge59" class="edge">
<title>DetectorLtotal[SampleRun]:e&#45;&gt;TofDetector[SampleRun]:w</title>
<path fill="none" stroke="black" d="M1137,-114.5C1210.74,-114.5 1220.51,-56.12 1288.51,-50.88"/>
<polygon fill="black" stroke="black" points="1288.64,-54.37 1298.5,-50.5 1288.38,-47.38 1288.64,-54.37"/>
</g>
<!-- DetectorSpatialResolution -->
<g id="node20" class="node">
<title>DetectorSpatialResolution</title>
<polygon fill="none" stroke="black" points="2050,-392 1845,-392 1845,-369 2050,-369 2050,-392"/>
<text text-anchor="middle" x="1947.5" y="-376.8" font-family="Times,serif" font-size="14.00">DetectorSpatialResolution</text>
</g>
<!-- DetectorSpatialResolution&#45;&gt;Reference -->
<g id="edge43" class="edge">
<title>DetectorSpatialResolution:e&#45;&gt;Reference:w</title>
<path fill="none" stroke="black" d="M2050,-380.5C2117.22,-380.5 2068.95,-288.78 2122,-247.5 2149.22,-226.32 2164.02,-226.28 2194.88,-226.46"/>
<polygon fill="black" stroke="black" points="2194.99,-229.96 2205,-226.5 2195.01,-222.96 2194.99,-229.96"/>
</g>
<!-- Filename[ReferenceRun] -->
<g id="node21" class="node">
<title>Filename[ReferenceRun]</title>
<polygon fill="none" stroke="black" points="141,-186 31,-186 31,-165 141,-165 141,-186"/>
<text text-anchor="start" x="39" y="-172.4" font-family="Times,serif" font-size="12.00">[ReferenceRun]</text>
</g>
<!-- Filename[ReferenceRun]&#45;&gt;RawDetector[ReferenceRun] -->
<g id="edge20" class="edge">
<title>Filename[ReferenceRun]:e&#45;&gt;RawDetector[ReferenceRun]:w</title>
<path fill="none" stroke="black" d="M142,-175.5C187.96,-175.5 200.68,-160.01 241.84,-157.77"/>
<polygon fill="black" stroke="black" points="242.1,-161.26 252,-157.5 241.91,-154.27 242.1,-161.26"/>
</g>
<!-- Filename[SampleRun] -->
<g id="node22" class="node">
<title>Filename[SampleRun]</title>
<polygon fill="none" stroke="black" points="133.5,-161 38.5,-161 38.5,-140 133.5,-140 133.5,-161"/>
<text text-anchor="start" x="46.5" y="-147.4" font-family="Times,serif" font-size="12.00">[SampleRun]</text>
</g>
<!-- Filename[SampleRun]&#45;&gt;RawDetector[SampleRun] -->
<g id="edge22" class="edge">
<title>Filename[SampleRun]:e&#45;&gt;RawDetector[SampleRun]:w</title>
<path fill="none" stroke="black" d="M135,-150.5C187.1,-150.5 201.51,-134.75 248.75,-132.71"/>
<polygon fill="black" stroke="black" points="249.08,-136.21 259,-132.5 248.93,-129.21 249.08,-136.21"/>
</g>
<!-- MValue -->
<g id="node23" class="node">
<title>MValue</title>
<polygon fill="none" stroke="black" points="1680,-187 1610,-187 1610,-164 1680,-164 1680,-187"/>
<text text-anchor="middle" x="1645" y="-171.8" font-family="Times,serif" font-size="14.00">MValue</text>
</g>
<!-- MValue&#45;&gt;ReducedReference -->
<g id="edge27" class="edge">
<title>MValue:e&#45;&gt;ReducedReference:w</title>
<path fill="none" stroke="black" d="M1681,-175.5C1762.52,-175.5 1784.71,-191.13 1861.36,-192.42"/>
<polygon fill="black" stroke="black" points="1861.47,-195.92 1871.5,-192.5 1861.53,-188.92 1861.47,-195.92"/>
</g>
<!-- MValue&#45;&gt;Sample -->
<g id="edge50" class="edge">
<title>MValue:e&#45;&gt;Sample:w</title>
<path fill="none" stroke="black" d="M1681,-175.5C1845,-175.5 1886.06,-170.95 2050,-175.5 2078.41,-176.29 2087.85,-178.82 2111.97,-179.39"/>
<polygon fill="black" stroke="black" points="2111.96,-182.89 2122,-179.5 2112.04,-175.89 2111.96,-182.89"/>
</g>
<!-- ProtonCurrent[ReferenceRun] -->
<g id="node24" class="node">
<title>ProtonCurrent[ReferenceRun]</title>
<polygon fill="none" stroke="black" points="1402.5,-190 1292.5,-190 1292.5,-169 1402.5,-169 1402.5,-190"/>
<text text-anchor="start" x="1300.5" y="-176.4" font-family="Times,serif" font-size="12.00">[ReferenceRun]</text>
</g>
<!-- ProtonCurrent[ReferenceRun]&#45;&gt;ReducibleData[ReferenceRun] -->
<g id="edge34" class="edge">
<title>ProtonCurrent[ReferenceRun]:e&#45;&gt;ReducibleData[ReferenceRun]:w</title>
<path fill="none" stroke="black" d="M1403.5,-179.5C1456.59,-179.5 1458.79,-218.27 1509,-235.5 1539.67,-246.03 1550.67,-248.94 1578.76,-249.42"/>
<polygon fill="black" stroke="black" points="1578.97,-252.92 1589,-249.5 1579.03,-245.92 1578.97,-252.92"/>
</g>
<!-- ProtonCurrent[SampleRun] -->
<g id="node25" class="node">
<title>ProtonCurrent[SampleRun]</title>
<polygon fill="none" stroke="black" points="1395,-165 1300,-165 1300,-144 1395,-144 1395,-165"/>
<text text-anchor="start" x="1308" y="-151.4" font-family="Times,serif" font-size="12.00">[SampleRun]</text>
</g>
<!-- ProtonCurrent[SampleRun]&#45;&gt;ReducibleData[SampleRun] -->
<g id="edge38" class="edge">
<title>ProtonCurrent[SampleRun]:e&#45;&gt;ReducibleData[SampleRun]:w</title>
<path fill="none" stroke="black" d="M1396.5,-154.5C1419.28,-154.5 1424.21,-161.42 1445.5,-169.5 1508.83,-193.54 1523.42,-221.61 1585.97,-224.29"/>
<polygon fill="black" stroke="black" points="1585.93,-227.79 1596,-224.5 1586.08,-220.79 1585.93,-227.79"/>
</g>
<!-- PulseStrideOffset -->
<g id="node26" class="node">
<title>PulseStrideOffset</title>
<polygon fill="none" stroke="black" points="1159.5,-87 1016.5,-87 1016.5,-64 1159.5,-64 1159.5,-87"/>
<text text-anchor="middle" x="1088" y="-71.8" font-family="Times,serif" font-size="14.00">PulseStrideOffset</text>
</g>
<!-- PulseStrideOffset&#45;&gt;TofDetector[ReferenceRun] -->
<g id="edge57" class="edge">
<title>PulseStrideOffset:e&#45;&gt;TofDetector[ReferenceRun]:w</title>
<path fill="none" stroke="black" stroke-width="2" d="M1161,-75.5C1196.87,-75.5 1216.1,-75.5 1239.27,-75.5"/>
<polygon fill="black" stroke="black" stroke-width="2" points="1239.5,-79 1249.5,-75.5 1239.5,-72 1239.5,-79"/>
</g>
<!-- QBins -->
<g id="node27" class="node">
<title>QBins</title>
<polygon fill="none" stroke="black" points="2308.5,-270 2249.5,-270 2249.5,-247 2308.5,-247 2308.5,-270"/>
<text text-anchor="middle" x="2279" y="-254.8" font-family="Times,serif" font-size="14.00">QBins</text>
</g>
<!-- ReflectivityOverQ -->
<g id="node40" class="node">
<title>ReflectivityOverQ</title>
<polygon fill="none" stroke="black" points="2672,-243 2508,-243 2508,-210 2672,-210 2672,-243"/>
<text text-anchor="start" x="2526.5" y="-228.8" font-family="Times,serif" font-size="14.00">ReflectivityOverQ</text>
<text text-anchor="start" x="2516" y="-217.2" font-family="Times,serif" font-size="11.00">via:</text>
<text text-anchor="start" x="2537" y="-217.2" font-family="Times,serif" font-style="italic" font-size="11.00">reduce_sample_over_q</text>
</g>
<!-- QBins&#45;&gt;ReflectivityOverQ -->
<g id="edge46" class="edge">
<title>QBins:e&#45;&gt;ReflectivityOverQ:w</title>
<path fill="none" stroke="black" d="M2310,-258.5C2366.4,-258.5 2380.47,-253.33 2436,-243.5 2464.71,-238.42 2473.26,-228.98 2497.76,-226.91"/>
<polygon fill="black" stroke="black" points="2498.15,-230.4 2508,-226.5 2497.87,-223.4 2498.15,-230.4"/>
</g>
<!-- SampleRotationOffset[ReferenceRun] -->
<g id="node28" class="node">
<title>SampleRotationOffset[ReferenceRun]</title>
<polygon fill="none" stroke="black" points="141,-92 31,-92 31,-71 141,-71 141,-92"/>
<text text-anchor="start" x="39" y="-78.4" font-family="Times,serif" font-size="12.00">[ReferenceRun]</text>
</g>
<!-- SampleRotationOffset[ReferenceRun]&#45;&gt;RawDetector[ReferenceRun] -->
<g id="edge21" class="edge">
<title>SampleRotationOffset[ReferenceRun]:e&#45;&gt;RawDetector[ReferenceRun]:w</title>
<path fill="none" stroke="black" d="M142,-81.5C197.82,-81.5 193.4,-148.58 241.93,-156.7"/>
<polygon fill="black" stroke="black" points="241.75,-160.2 252,-157.5 242.31,-153.22 241.75,-160.2"/>
</g>
<!-- SampleRotationOffset[SampleRun] -->
<g id="node29" class="node">
<title>SampleRotationOffset[SampleRun]</title>
<polygon fill="none" stroke="black" points="133.5,-67 38.5,-67 38.5,-46 133.5,-46 133.5,-67"/>
<text text-anchor="start" x="46.5" y="-53.4" font-family="Times,serif" font-size="12.00">[SampleRun]</text>
</g>
<!-- SampleRotationOffset[SampleRun]&#45;&gt;RawDetector[SampleRun] -->
<g id="edge23" class="edge">
<title>SampleRotationOffset[SampleRun]:e&#45;&gt;RawDetector[SampleRun]:w</title>
<path fill="none" stroke="black" d="M135,-56.5C196.1,-56.5 194.73,-124.41 249,-131.84"/>
<polygon fill="black" stroke="black" points="248.79,-135.34 259,-132.5 249.25,-128.35 248.79,-135.34"/>
</g>
<!-- ReducibleData[ReferenceRun]&#45;&gt;ReducedReference -->
<g id="edge24" class="edge">
<title>ReducibleData[ReferenceRun]:e&#45;&gt;ReducedReference:w</title>
<path fill="none" stroke="black" d="M1701,-249.5C1737.1,-249.5 1746.61,-246.46 1781,-235.5 1819.95,-223.09 1826.13,-197.23 1861.32,-193.07"/>
<polygon fill="black" stroke="black" points="1861.71,-196.55 1871.5,-192.5 1861.32,-189.56 1861.71,-196.55"/>
</g>
<!-- ReducedReference&#45;&gt;Reference -->
<g id="edge40" class="edge">
<title>ReducedReference:e&#45;&gt;Reference:w</title>
<path fill="none" stroke="black" d="M2023.5,-192.5C2102.04,-192.5 2121.32,-223.64 2194.77,-226.32"/>
<polygon fill="black" stroke="black" points="2194.94,-229.82 2205,-226.5 2195.06,-222.82 2194.94,-229.82"/>
</g>
<!-- ReducedReference&#45;&gt;Sample -->
<g id="edge48" class="edge">
<title>ReducedReference:e&#45;&gt;Sample:w</title>
<path fill="none" stroke="black" d="M2023.5,-192.5C2064.04,-192.5 2075.94,-181.55 2111.78,-179.75"/>
<polygon fill="black" stroke="black" points="2112.09,-183.24 2122,-179.5 2111.92,-176.24 2112.09,-183.24"/>
</g>
<!-- WavelengthBins -->
<g id="node32" class="node">
<title>WavelengthBins</title>
<polygon fill="none" stroke="black" points="1413.5,-23 1281.5,-23 1281.5,0 1413.5,0 1413.5,-23"/>
<text text-anchor="middle" x="1347.5" y="-7.8" font-family="Times,serif" font-size="14.00">WavelengthBins</text>
</g>
<!-- WavelengthBins&#45;&gt;ReducibleData[ReferenceRun] -->
<g id="edge33" class="edge">
<title>WavelengthBins:e&#45;&gt;ReducibleData[ReferenceRun]:w</title>
<path fill="none" stroke="black" stroke-width="2" d="M1414.5,-11.5C1430.66,-11.5 1435.58,-17.74 1445.5,-30.5 1501.86,-103.02 1442.18,-167.52 1501.59,-228.47"/>
<polygon fill="black" stroke="black" stroke-width="2" points="1499.34,-231.16 1509,-235.5 1504.15,-226.08 1499.34,-231.16"/>
</g>
<!-- WavelengthBins&#45;&gt;ReducedReference -->
<g id="edge25" class="edge">
<title>WavelengthBins:e&#45;&gt;ReducedReference:w</title>
<path fill="none" stroke="black" d="M1414.5,-11.5C1430.66,-11.5 1435.06,-18.17 1445.5,-30.5 1494.14,-87.94 1446.88,-144.99 1509,-187.5 1540.17,-208.83 1796.1,-194.56 1861.16,-192.69"/>
<polygon fill="black" stroke="black" points="1861.57,-196.19 1871.5,-192.5 1861.44,-189.19 1861.57,-196.19"/>
</g>
<!-- TofDetector[ReferenceRun]&#45;&gt;ReducibleData[ReferenceRun] -->
<g id="edge29" class="edge">
<title>TofDetector[ReferenceRun]:e&#45;&gt;ReducibleData[ReferenceRun]:w</title>
<path fill="none" stroke="black" d="M1403.5,-75.5C1488.68,-75.5 1438.29,-188.01 1509,-235.5 1535.92,-253.58 1549.91,-250.47 1578.65,-249.66"/>
<polygon fill="black" stroke="black" points="1579.05,-253.15 1589,-249.5 1578.95,-246.15 1579.05,-253.15"/>
</g>
<!-- YIndexLimits -->
<g id="node34" class="node">
<title>YIndexLimits</title>
<polygon fill="none" stroke="black" points="1402.5,-327 1292.5,-327 1292.5,-304 1402.5,-304 1402.5,-327"/>
<text text-anchor="middle" x="1347.5" y="-311.8" font-family="Times,serif" font-size="14.00">YIndexLimits</text>
</g>
<!-- YIndexLimits&#45;&gt;ReducibleData[ReferenceRun] -->
<g id="edge30" class="edge">
<title>YIndexLimits:e&#45;&gt;ReducibleData[ReferenceRun]:w</title>
<path fill="none" stroke="black" stroke-width="2" d="M1403.5,-315.5C1449.78,-315.5 1474.51,-297.04 1500.49,-279.65"/>
<polygon fill="black" stroke="black" stroke-width="2" points="1502.56,-282.48 1509,-274.06 1498.72,-276.62 1502.56,-282.48"/>
</g>
<!-- ZIndexLimits -->
<g id="node35" class="node">
<title>ZIndexLimits</title>
<polygon fill="none" stroke="black" points="1403,-300 1292,-300 1292,-277 1403,-277 1403,-300"/>
<text text-anchor="middle" x="1347.5" y="-284.8" font-family="Times,serif" font-size="14.00">ZIndexLimits</text>
</g>
<!-- ZIndexLimits&#45;&gt;ReducibleData[ReferenceRun] -->
<g id="edge31" class="edge">
<title>ZIndexLimits:e&#45;&gt;ReducibleData[ReferenceRun]:w</title>
<path fill="none" stroke="black" stroke-width="2" d="M1403.5,-288.5C1447.47,-288.5 1473.12,-277.88 1499.58,-267.72"/>
<polygon fill="black" stroke="black" stroke-width="2" points="1500.88,-270.97 1509,-264.16 1498.41,-264.42 1500.88,-270.97"/>
</g>
<!-- TofDetector[SampleRun]&#45;&gt;ReducibleData[SampleRun] -->
<g id="edge37" class="edge">
<title>TofDetector[SampleRun]:e&#45;&gt;ReducibleData[SampleRun]:w</title>
<path fill="none" stroke="black" d="M1396.5,-50.5C1419.28,-50.5 1428.25,-50.63 1445.5,-65.5 1495.12,-108.26 1459.23,-155.91 1509,-198.5 1536.91,-222.38 1552.65,-224.33 1585.68,-224.49"/>
<polygon fill="black" stroke="black" points="1586,-227.99 1596,-224.5 1586,-220.99 1586,-227.99"/>
</g>
<!-- ReducibleData[SampleRun]&#45;&gt;Reference -->
<g id="edge41" class="edge">
<title>ReducibleData[SampleRun]:e&#45;&gt;Reference:w</title>
<path fill="none" stroke="black" d="M1694,-224.5C1917.68,-224.5 1976.13,-226.44 2194.8,-226.5"/>
<polygon fill="black" stroke="black" points="2195,-230 2205,-226.5 2195,-223 2195,-230"/>
</g>
<!-- ReducibleData[SampleRun]&#45;&gt;Sample -->
<g id="edge47" class="edge">
<title>ReducibleData[SampleRun]:e&#45;&gt;Sample:w</title>
<path fill="none" stroke="black" d="M1694,-224.5C1733.59,-224.5 2011.35,-218.08 2050,-209.5 2080.27,-202.78 2086.26,-184.08 2112,-180.21"/>
<polygon fill="black" stroke="black" points="2112.27,-183.7 2122,-179.5 2111.78,-176.71 2112.27,-183.7"/>
</g>
<!-- Reference&#45;&gt;ReflectivityOverQ -->
<g id="edge45" class="edge">
<title>Reference:e&#45;&gt;ReflectivityOverQ:w</title>
<path fill="none" stroke="black" d="M2353,-226.5C2418.39,-226.5 2437.23,-226.5 2497.89,-226.5"/>
<polygon fill="black" stroke="black" points="2498,-230 2508,-226.5 2498,-223 2498,-230"/>
</g>
<!-- Sample&#45;&gt;ReflectivityOverQ -->
<g id="edge44" class="edge">
<title>Sample:e&#45;&gt;ReflectivityOverQ:w</title>
<path fill="none" stroke="black" d="M2436,-179.5C2470.48,-179.5 2470.24,-217.77 2497.94,-225.24"/>
<polygon fill="black" stroke="black" points="2497.64,-228.73 2508,-226.5 2498.51,-221.79 2497.64,-228.73"/>
</g>
<!-- TofLookupTable -->
<g id="node41" class="node">
<title>TofLookupTable</title>
<polygon fill="none" stroke="black" points="1167,-60 1009,-60 1009,-27 1167,-27 1167,-60"/>
<text text-anchor="start" x="1032" y="-45.8" font-family="Times,serif" font-size="14.00">TofLookupTable</text>
<text text-anchor="start" x="1017" y="-34.2" font-family="Times,serif" font-size="11.00">via:</text>
<text text-anchor="start" x="1038" y="-34.2" font-family="Times,serif" font-style="italic" font-size="11.00">load_tof_lookup_table</text>
</g>
<!-- TofLookupTable&#45;&gt;TofDetector[ReferenceRun] -->
<g id="edge55" class="edge">
<title>TofLookupTable:e&#45;&gt;TofDetector[ReferenceRun]:w</title>
<path fill="none" stroke="black" stroke-width="2" d="M1168,-43.5C1202.11,-43.5 1219.36,-55.08 1240.03,-64.31"/>
<polygon fill="black" stroke="black" stroke-width="2" points="1238.92,-67.64 1249.5,-68.21 1241.59,-61.17 1238.92,-67.64"/>
</g>
<!-- TofLookupTableFilename -->
<g id="node42" class="node">
<title>TofLookupTableFilename</title>
<polygon fill="none" stroke="black" points="912,-50 718,-50 718,-27 912,-27 912,-50"/>
<text text-anchor="middle" x="815" y="-34.8" font-family="Times,serif" font-size="14.00">TofLookupTableFilename</text>
</g>
<!-- TofLookupTableFilename&#45;&gt;TofLookupTable -->
<g id="edge60" class="edge">
<title>TofLookupTableFilename:e&#45;&gt;TofLookupTable:w</title>
<path fill="none" stroke="black" d="M913,-38.5C951.65,-38.5 963.69,-42.68 997.76,-43.4"/>
<polygon fill="black" stroke="black" points="997.96,-46.9 1008,-43.5 998.04,-39.9 997.96,-46.9"/>
</g>
</g>
</svg>
