<?xml version="1.0" encoding="UTF-8" standalone="no"?>
<!DOCTYPE svg PUBLIC "-//W3C//DTD SVG 1.1//EN"
 "http://www.w3.org/Graphics/SVG/1.1/DTD/svg11.dtd">
<!-- Generated by graphviz version 2.43.0 (0)
 -->
<!-- Title: %3 Pages: 1 -->
<svg width="2380pt" height="352pt"
 viewBox="0.00 0.00 2379.50 352.00" xmlns="http://www.w3.org/2000/svg" xmlns:xlink="http://www.w3.org/1999/xlink">
<g id="graph0" class="graph" transform="scale(1 1) rotate(0) translate(4 348)">
<title>%3</title>
<polygon fill="white" stroke="transparent" points="-4,4 -4,-348 2375.5,-348 2375.5,4 -4,4"/>
<g id="clust5" class="cluster">
<title>cluster_DetectorData</title>
<polygon fill="#f0f0ff" stroke="#f0f0ff" points="274,-189.5 274,-285.5 423,-285.5 423,-189.5 274,-189.5"/>
<text text-anchor="start" x="300" y="-271.3" font-family="Times,serif" font-size="14.00">DetectorData</text>
<text text-anchor="start" x="282" y="-259.7" font-family="Times,serif" font-size="11.00">via:</text>
<text text-anchor="start" x="303" y="-259.7" font-family="Times,serif" font-style="italic" font-size="11.00">load_mcstas_events</text>
</g>
<g id="clust7" class="cluster">
<title>cluster_Filename</title>
<polygon fill="#f0f0ff" stroke="#f0f0ff" points="15.5,-194.5 15.5,-280.5 156.5,-280.5 156.5,-194.5 15.5,-194.5"/>
<text text-anchor="middle" x="86" y="-265.3" font-family="Times,serif" font-size="14.00">Filename</text>
</g>
<g id="clust11" class="cluster">
<title>cluster_ProtonCurrent</title>
<polygon fill="#f0f0ff" stroke="#f0f0ff" points="285.5,-95.5 285.5,-181.5 411.5,-181.5 411.5,-95.5 285.5,-95.5"/>
<text text-anchor="middle" x="348.5" y="-166.3" font-family="Times,serif" font-size="14.00">ProtonCurrent</text>
</g>
<g id="clust14" class="cluster">
<title>cluster_ReducibleData</title>
<polygon fill="#f0f0ff" stroke="#f0f0ff" points="524.5,-95.5 524.5,-191.5 796.5,-191.5 796.5,-95.5 524.5,-95.5"/>
<text text-anchor="start" x="608" y="-177.3" font-family="Times,serif" font-size="14.00">ReducibleData</text>
<text text-anchor="start" x="532.5" y="-165.7" font-family="Times,serif" font-size="11.00">via:</text>
<text text-anchor="start" x="553.5" y="-165.7" font-family="Times,serif" font-style="italic" font-size="11.00">add_coords_masks_and_apply_corrections</text>
</g>
<g id="clust18" class="cluster">
<title>cluster_SampleRotationOffset</title>
<polygon fill="#f0f0ff" stroke="#f0f0ff" points="0,-100.5 0,-186.5 173,-186.5 173,-100.5 0,-100.5"/>
<text text-anchor="middle" x="86.5" y="-171.3" font-family="Times,serif" font-size="14.00">SampleRotationOffset</text>
</g>
<!-- Alpha -->
<g id="node1" class="node">
<title>Alpha</title>
<polygon fill="none" stroke="black" points="688.5,-277 631.5,-277 631.5,-254 688.5,-254 688.5,-277"/>
<text text-anchor="middle" x="660" y="-261.8" font-family="Times,serif" font-size="14.00">Alpha</text>
</g>
<!-- ReducedReference -->
<g id="node21" class="node">
<title>ReducedReference</title>
<polygon fill="none" stroke="black" points="1084,-204 934,-204 934,-171 1084,-171 1084,-204"/>
<text text-anchor="start" x="942" y="-189.8" font-family="Times,serif" font-size="14.00">ReducedReference</text>
<text text-anchor="start" x="949.5" y="-178.2" font-family="Times,serif" font-size="11.00">via:</text>
<text text-anchor="start" x="970.5" y="-178.2" font-family="Times,serif" font-style="italic" font-size="11.00">reduce_reference</text>
</g>
<!-- Alpha&#45;&gt;ReducedReference -->
<g id="edge12" class="edge">
<title>Alpha:e&#45;&gt;ReducedReference:w</title>
<path fill="none" stroke="black" d="M690,-265.5C737.8,-265.5 750.64,-263.99 796.5,-250.5 857.22,-232.63 865.43,-192.09 922.92,-187.86"/>
<polygon fill="black" stroke="black" points="923.13,-191.35 933,-187.5 922.88,-184.36 923.13,-191.35"/>
</g>
<!-- Sample(run) -->
<g id="node26" class="node">
<title>Sample(run)</title>
<polygon fill="none" stroke="black" points="1543.5,-226 1233.17,-226 1229.5,-222.33 1229.5,-193 1539.83,-193 1543.5,-196.67 1543.5,-226"/>
<polyline fill="none" stroke="black" points="1539.83,-222.33 1229.5,-222.33 "/>
<polyline fill="none" stroke="black" points="1539.83,-222.33 1539.83,-193 "/>
<polyline fill="none" stroke="black" points="1539.83,-222.33 1543.5,-226 "/>
<text text-anchor="start" x="1342" y="-211.8" font-family="Times,serif" font-size="14.00">Sample(run)</text>
<text text-anchor="start" x="1237.5" y="-200.2" font-family="Times,serif" font-size="11.00">via:</text>
<text text-anchor="start" x="1258.5" y="-200.2" font-family="Times,serif" font-style="italic" font-size="11.00">mask_events_where_supermirror_does_not_cover</text>
</g>
<!-- Alpha&#45;&gt;Sample(run) -->
<g id="edge33" class="edge">
<title>Alpha:e&#45;&gt;Sample(run):w</title>
<path fill="none" stroke="black" d="M690,-265.5C898.54,-265.5 951.37,-257.08 1157.5,-225.5 1186.23,-221.1 1194.85,-211.92 1219.28,-209.9"/>
<polygon fill="black" stroke="black" points="1219.64,-213.39 1229.5,-209.5 1219.37,-206.39 1219.64,-213.39"/>
</g>
<!-- BeamDivergenceLimits -->
<g id="node2" class="node">
<title>BeamDivergenceLimits</title>
<polygon fill="none" stroke="black" points="440,-317 257,-317 257,-294 440,-294 440,-317"/>
<text text-anchor="middle" x="348.5" y="-301.8" font-family="Times,serif" font-size="14.00">BeamDivergenceLimits</text>
</g>
<!-- ReducibleData[ReferenceRun] -->
<g id="node20" class="node">
<title>ReducibleData[ReferenceRun]</title>
<polygon fill="none" stroke="black" points="715,-150 605,-150 605,-129 715,-129 715,-150"/>
<text text-anchor="start" x="613" y="-136.4" font-family="Times,serif" font-size="12.00">[ReferenceRun]</text>
</g>
<!-- BeamDivergenceLimits&#45;&gt;ReducibleData[ReferenceRun] -->
<g id="edge16" class="edge">
<title>BeamDivergenceLimits:e&#45;&gt;ReducibleData[ReferenceRun]:w</title>
<path fill="none" stroke="black" stroke-width="2" d="M441.5,-305.5C453.44,-305.5 452.74,-295.58 460.5,-286.5 489.95,-252.03 490.52,-235.05 523.94,-198.98"/>
<polygon fill="black" stroke="black" stroke-width="2" points="526.71,-201.15 531.08,-191.5 521.65,-196.31 526.71,-201.15"/>
</g>
<!-- CoordTransformationGraph -->
<g id="node3" class="node">
<title>CoordTransformationGraph</title>
<polygon fill="none" stroke="black" points="460.5,-33 236.5,-33 236.5,0 460.5,0 460.5,-33"/>
<text text-anchor="start" x="249.5" y="-18.8" font-family="Times,serif" font-size="14.00">CoordTransformationGraph</text>
<text text-anchor="start" x="244.5" y="-7.2" font-family="Times,serif" font-size="11.00">via:</text>
<text text-anchor="start" x="265.5" y="-7.2" font-family="Times,serif" font-style="italic" font-size="11.00">coordinate_transformation_graph</text>
</g>
<!-- Reference(run) -->
<g id="node16" class="node">
<title>Reference(run)</title>
<polygon fill="none" stroke="black" points="1459,-155 1317.67,-155 1314,-151.33 1314,-122 1455.33,-122 1459,-125.67 1459,-155"/>
<polyline fill="none" stroke="black" points="1455.33,-151.33 1314,-151.33 "/>
<polyline fill="none" stroke="black" points="1455.33,-151.33 1455.33,-122 "/>
<polyline fill="none" stroke="black" points="1455.33,-151.33 1459,-155 "/>
<text text-anchor="start" x="1332.5" y="-140.8" font-family="Times,serif" font-size="14.00">Reference(run)</text>
<text text-anchor="start" x="1322" y="-129.2" font-family="Times,serif" font-size="11.00">via:</text>
<text text-anchor="start" x="1343" y="-129.2" font-family="Times,serif" font-style="italic" font-size="11.00">evaluate_reference</text>
</g>
<!-- CoordTransformationGraph&#45;&gt;Reference(run) -->
<g id="edge24" class="edge">
<title>CoordTransformationGraph:e&#45;&gt;Reference(run):w</title>
<path fill="none" stroke="black" d="M460.5,-16.5C610.28,-16.5 648,-23 796.5,-42.5 823.6,-46.06 1227.78,-127.32 1302.22,-137.46"/>
<polygon fill="black" stroke="black" points="1302.2,-140.98 1312.5,-138.5 1302.9,-134.01 1302.2,-140.98"/>
</g>
<!-- CoordTransformationGraph&#45;&gt;ReducibleData[ReferenceRun] -->
<g id="edge19" class="edge">
<title>CoordTransformationGraph:e&#45;&gt;ReducibleData[ReferenceRun]:w</title>
<path fill="none" stroke="black" stroke-width="2" d="M460.5,-16.5C513.17,-16.5 482.78,-84.13 516.79,-118.99"/>
<polygon fill="black" stroke="black" stroke-width="2" points="514.6,-121.72 524.5,-125.5 519.12,-116.37 514.6,-121.72"/>
</g>
<!-- CriticalEdge -->
<g id="node4" class="node">
<title>CriticalEdge</title>
<polygon fill="none" stroke="black" points="713,-250 607,-250 607,-227 713,-227 713,-250"/>
<text text-anchor="middle" x="660" y="-234.8" font-family="Times,serif" font-size="14.00">CriticalEdge</text>
</g>
<!-- CriticalEdge&#45;&gt;ReducedReference -->
<g id="edge10" class="edge">
<title>CriticalEdge:e&#45;&gt;ReducedReference:w</title>
<path fill="none" stroke="black" d="M714,-238.5C810.42,-238.5 831.62,-191.02 922.75,-187.68"/>
<polygon fill="black" stroke="black" points="923.06,-191.18 933,-187.5 922.94,-184.18 923.06,-191.18"/>
</g>
<!-- CriticalEdge&#45;&gt;Sample(run) -->
<g id="edge31" class="edge">
<title>CriticalEdge:e&#45;&gt;Sample(run):w</title>
<path fill="none" stroke="black" d="M714,-238.5C715.65,-238.5 1147.15,-214.06 1219.32,-210.05"/>
<polygon fill="black" stroke="black" points="1219.7,-213.54 1229.5,-209.5 1219.32,-206.55 1219.7,-213.54"/>
</g>
<!-- Filename[ReferenceRun] -->
<g id="node5" class="node">
<title>Filename[ReferenceRun]</title>
<polygon fill="none" stroke="black" points="141,-249 31,-249 31,-228 141,-228 141,-249"/>
<text text-anchor="start" x="39" y="-235.4" font-family="Times,serif" font-size="12.00">[ReferenceRun]</text>
</g>
<!-- DetectorData[ReferenceRun] -->
<g id="node6" class="node">
<title>DetectorData[ReferenceRun]</title>
<polygon fill="none" stroke="black" points="403.5,-244 293.5,-244 293.5,-223 403.5,-223 403.5,-244"/>
<text text-anchor="start" x="301.5" y="-230.4" font-family="Times,serif" font-size="12.00">[ReferenceRun]</text>
</g>
<!-- Filename[ReferenceRun]&#45;&gt;DetectorData[ReferenceRun] -->
<g id="edge1" class="edge">
<title>Filename[ReferenceRun]:e&#45;&gt;DetectorData[ReferenceRun]:w</title>
<path fill="none" stroke="black" d="M142,-238.5C205.4,-238.5 223.68,-234.01 282.32,-233.54"/>
<polygon fill="black" stroke="black" points="282.51,-237.04 292.5,-233.5 282.49,-230.04 282.51,-237.04"/>
</g>
<!-- DetectorData[ReferenceRun]&#45;&gt;ReducibleData[ReferenceRun] -->
<g id="edge13" class="edge">
<title>DetectorData[ReferenceRun]:e&#45;&gt;ReducibleData[ReferenceRun]:w</title>
<path fill="none" stroke="black" d="M404.5,-233.5C499.07,-233.5 505.62,-145.99 594,-139.84"/>
<polygon fill="black" stroke="black" points="594.12,-143.34 604,-139.5 593.89,-136.34 594.12,-143.34"/>
</g>
<!-- SampleRotationOffset[ReferenceRun] -->
<g id="node7" class="node">
<title>SampleRotationOffset[ReferenceRun]</title>
<polygon fill="none" stroke="black" points="141,-155 31,-155 31,-134 141,-134 141,-155"/>
<text text-anchor="start" x="39" y="-141.4" font-family="Times,serif" font-size="12.00">[ReferenceRun]</text>
</g>
<!-- SampleRotationOffset[ReferenceRun]&#45;&gt;DetectorData[ReferenceRun] -->
<g id="edge2" class="edge">
<title>SampleRotationOffset[ReferenceRun]:e&#45;&gt;DetectorData[ReferenceRun]:w</title>
<path fill="none" stroke="black" d="M142,-144.5C195.62,-144.5 188.4,-195.8 236.5,-219.5 256.1,-229.16 264.32,-232.52 282.18,-233.3"/>
<polygon fill="black" stroke="black" points="282.44,-236.81 292.5,-233.5 282.57,-229.81 282.44,-236.81"/>
</g>
<!-- Filename[SampleRun](run) -->
<g id="node8" class="node">
<title>Filename[SampleRun](run)</title>
<polygon fill="none" stroke="black" points="148.5,-224 25.83,-224 23.5,-221.67 23.5,-203 146.17,-203 148.5,-205.33 148.5,-224"/>
<polyline fill="none" stroke="black" points="146.17,-221.67 23.5,-221.67 "/>
<polyline fill="none" stroke="black" points="146.17,-221.67 146.17,-203 "/>
<polyline fill="none" stroke="black" points="146.17,-221.67 148.5,-224 "/>
<text text-anchor="start" x="31.5" y="-210.4" font-family="Times,serif" font-size="12.00">[SampleRun](run)</text>
</g>
<!-- DetectorData[SampleRun](run) -->
<g id="node9" class="node">
<title>DetectorData[SampleRun](run)</title>
<polygon fill="none" stroke="black" points="411,-219 288.33,-219 286,-216.67 286,-198 408.67,-198 411,-200.33 411,-219"/>
<polyline fill="none" stroke="black" points="408.67,-216.67 286,-216.67 "/>
<polyline fill="none" stroke="black" points="408.67,-216.67 408.67,-198 "/>
<polyline fill="none" stroke="black" points="408.67,-216.67 411,-219 "/>
<text text-anchor="start" x="294" y="-205.4" font-family="Times,serif" font-size="12.00">[SampleRun](run)</text>
</g>
<!-- Filename[SampleRun](run)&#45;&gt;DetectorData[SampleRun](run) -->
<g id="edge3" class="edge">
<title>Filename[SampleRun](run):e&#45;&gt;DetectorData[SampleRun](run):w</title>
<path fill="none" stroke="black" d="M150,-213.5C206.31,-213.5 222.78,-209.07 274.43,-208.55"/>
<polygon fill="black" stroke="black" points="274.52,-212.05 284.5,-208.5 274.48,-205.05 274.52,-212.05"/>
</g>
<!-- ReducibleData[SampleRun](run) -->
<g id="node25" class="node">
<title>ReducibleData[SampleRun](run)</title>
<polygon fill="none" stroke="black" points="722.5,-125 599.83,-125 597.5,-122.67 597.5,-104 720.17,-104 722.5,-106.33 722.5,-125"/>
<polyline fill="none" stroke="black" points="720.17,-122.67 597.5,-122.67 "/>
<polyline fill="none" stroke="black" points="720.17,-122.67 720.17,-104 "/>
<polyline fill="none" stroke="black" points="720.17,-122.67 722.5,-125 "/>
<text text-anchor="start" x="605.5" y="-111.4" font-family="Times,serif" font-size="12.00">[SampleRun](run)</text>
</g>
<!-- DetectorData[SampleRun](run)&#45;&gt;ReducibleData[SampleRun](run) -->
<g id="edge20" class="edge">
<title>DetectorData[SampleRun](run):e&#45;&gt;ReducibleData[SampleRun](run):w</title>
<path fill="none" stroke="black" d="M412.5,-208.5C473.41,-208.5 469.63,-155.95 524.5,-129.5 550.43,-117 561.06,-114.87 585.78,-114.55"/>
<polygon fill="black" stroke="black" points="586.02,-118.05 596,-114.5 585.98,-111.05 586.02,-118.05"/>
</g>
<!-- SampleRotationOffset[SampleRun] -->
<g id="node10" class="node">
<title>SampleRotationOffset[SampleRun]</title>
<polygon fill="none" stroke="black" points="133.5,-130 38.5,-130 38.5,-109 133.5,-109 133.5,-130"/>
<text text-anchor="start" x="46.5" y="-116.4" font-family="Times,serif" font-size="12.00">[SampleRun]</text>
</g>
<!-- SampleRotationOffset[SampleRun]&#45;&gt;DetectorData[SampleRun](run) -->
<g id="edge4" class="edge">
<title>SampleRotationOffset[SampleRun]:e&#45;&gt;DetectorData[SampleRun](run):w</title>
<path fill="none" stroke="black" d="M135,-119.5C208.7,-119.5 207.47,-200.35 274.15,-207.93"/>
<polygon fill="black" stroke="black" points="274.32,-211.45 284.5,-208.5 274.71,-204.46 274.32,-211.45"/>
</g>
<!-- DetectorSpatialResolution[SampleRun] -->
<g id="node11" class="node">
<title>DetectorSpatialResolution[SampleRun]</title>
<polygon fill="none" stroke="black" points="1157.5,-150 860.5,-150 860.5,-127 1157.5,-127 1157.5,-150"/>
<text text-anchor="middle" x="1009" y="-134.8" font-family="Times,serif" font-size="14.00">DetectorSpatialResolution[SampleRun]</text>
</g>
<!-- DetectorSpatialResolution[SampleRun]&#45;&gt;Reference(run) -->
<g id="edge25" class="edge">
<title>DetectorSpatialResolution[SampleRun]:e&#45;&gt;Reference(run):w</title>
<path fill="none" stroke="black" d="M1157.5,-138.5C1222.89,-138.5 1241.73,-138.5 1302.39,-138.5"/>
<polygon fill="black" stroke="black" points="1302.5,-142 1312.5,-138.5 1302.5,-135 1302.5,-142"/>
</g>
<!-- MValue -->
<g id="node12" class="node">
<title>MValue</title>
<polygon fill="none" stroke="black" points="695,-223 625,-223 625,-200 695,-200 695,-223"/>
<text text-anchor="middle" x="660" y="-207.8" font-family="Times,serif" font-size="14.00">MValue</text>
</g>
<!-- MValue&#45;&gt;ReducedReference -->
<g id="edge11" class="edge">
<title>MValue:e&#45;&gt;ReducedReference:w</title>
<path fill="none" stroke="black" d="M696,-211.5C798.36,-211.5 825.36,-189.07 922.71,-187.58"/>
<polygon fill="black" stroke="black" points="923.03,-191.08 933,-187.5 922.97,-184.08 923.03,-191.08"/>
</g>
<!-- MValue&#45;&gt;Sample(run) -->
<g id="edge32" class="edge">
<title>MValue:e&#45;&gt;Sample(run):w</title>
<path fill="none" stroke="black" d="M696,-211.5C929.64,-211.5 990.61,-209.56 1219.19,-209.5"/>
<polygon fill="black" stroke="black" points="1219.5,-213 1229.5,-209.5 1219.5,-206 1219.5,-213"/>
</g>
<!-- MaskedReflectivityOverQ(run) -->
<g id="node13" class="node">
<title>MaskedReflectivityOverQ(run)</title>
<polygon fill="none" stroke="black" points="2100.5,-171 1870.17,-171 1866.5,-167.33 1866.5,-138 2096.83,-138 2100.5,-141.67 2100.5,-171"/>
<polyline fill="none" stroke="black" points="2096.83,-167.33 1866.5,-167.33 "/>
<polyline fill="none" stroke="black" points="2096.83,-167.33 2096.83,-138 "/>
<polyline fill="none" stroke="black" points="2096.83,-167.33 2100.5,-171 "/>
<text text-anchor="start" x="1874.5" y="-156.8" font-family="Times,serif" font-size="14.00">MaskedReflectivityOverQ(run)</text>
<text text-anchor="start" x="1911" y="-145.2" font-family="Times,serif" font-size="11.00">via:</text>
<text text-anchor="start" x="1932" y="-145.2" font-family="Times,serif" font-style="italic" font-size="11.00">mask_noisy_reference</text>
</g>
<!-- MaskedReflectivityOverQ -->
<g id="node14" class="node">
<title>MaskedReflectivityOverQ</title>
<polygon fill="none" stroke="black" points="2371.5,-171 2172.5,-171 2172.5,-138 2371.5,-138 2371.5,-171"/>
<text text-anchor="start" x="2180.5" y="-156.8" font-family="Times,serif" font-size="14.00">MaskedReflectivityOverQ</text>
<text text-anchor="start" x="2193.5" y="-145.2" font-family="Times,serif" font-size="11.00">via:</text>
<text text-anchor="start" x="2214.5" y="-145.2" font-family="Times,serif" font-style="italic" font-size="11.00">combine_measurements</text>
</g>
<!-- MaskedReflectivityOverQ(run)&#45;&gt;MaskedReflectivityOverQ -->
<g id="edge5" class="edge">
<title>MaskedReflectivityOverQ(run):e&#45;&gt;MaskedReflectivityOverQ:w</title>
<path fill="none" stroke="black" d="M2100.5,-154.5C2128.88,-154.5 2138.38,-154.5 2162.48,-154.5"/>
<polygon fill="black" stroke="black" points="2162.5,-158 2172.5,-154.5 2162.5,-151 2162.5,-158"/>
</g>
<!-- ReflectivityOverQ(run) -->
<g id="node15" class="node">
<title>ReflectivityOverQ(run)</title>
<polygon fill="none" stroke="black" points="1794.5,-185 1619.17,-185 1615.5,-181.33 1615.5,-152 1790.83,-152 1794.5,-155.67 1794.5,-185"/>
<polyline fill="none" stroke="black" points="1790.83,-181.33 1615.5,-181.33 "/>
<polyline fill="none" stroke="black" points="1790.83,-181.33 1790.83,-152 "/>
<polyline fill="none" stroke="black" points="1790.83,-181.33 1794.5,-185 "/>
<text text-anchor="start" x="1623.5" y="-170.8" font-family="Times,serif" font-size="14.00">ReflectivityOverQ(run)</text>
<text text-anchor="start" x="1631" y="-159.2" font-family="Times,serif" font-size="11.00">via:</text>
<text text-anchor="start" x="1652" y="-159.2" font-family="Times,serif" font-style="italic" font-size="11.00">reduce_sample_over_q</text>
</g>
<!-- ReflectivityOverQ(run)&#45;&gt;MaskedReflectivityOverQ(run) -->
<g id="edge6" class="edge">
<title>ReflectivityOverQ(run):e&#45;&gt;MaskedReflectivityOverQ(run):w</title>
<path fill="none" stroke="black" d="M1794.5,-168.5C1823.41,-168.5 1832.03,-157.49 1856.34,-155"/>
<polygon fill="black" stroke="black" points="1856.68,-158.49 1866.5,-154.5 1856.34,-151.49 1856.68,-158.49"/>
</g>
<!-- Reference(run)&#45;&gt;MaskedReflectivityOverQ(run) -->
<g id="edge7" class="edge">
<title>Reference(run):e&#45;&gt;MaskedReflectivityOverQ(run):w</title>
<path fill="none" stroke="black" d="M1460.5,-138.5C1609.04,-138.5 1646.11,-143.71 1794.5,-150.5 1822.89,-151.8 1832.34,-153.94 1856.47,-154.41"/>
<polygon fill="black" stroke="black" points="1856.47,-157.91 1866.5,-154.5 1856.53,-150.91 1856.47,-157.91"/>
</g>
<!-- Reference(run)&#45;&gt;ReflectivityOverQ(run) -->
<g id="edge27" class="edge">
<title>Reference(run):e&#45;&gt;ReflectivityOverQ(run):w</title>
<path fill="none" stroke="black" d="M1460.5,-138.5C1527.1,-138.5 1543.7,-165.53 1605.23,-168.28"/>
<polygon fill="black" stroke="black" points="1605.43,-171.78 1615.5,-168.5 1605.58,-164.78 1605.43,-171.78"/>
</g>
<!-- ProtonCurrent[ReferenceRun] -->
<g id="node17" class="node">
<title>ProtonCurrent[ReferenceRun]</title>
<polygon fill="none" stroke="black" points="403.5,-150 293.5,-150 293.5,-129 403.5,-129 403.5,-150"/>
<text text-anchor="start" x="301.5" y="-136.4" font-family="Times,serif" font-size="12.00">[ReferenceRun]</text>
</g>
<!-- ProtonCurrent[ReferenceRun]&#45;&gt;ReducibleData[ReferenceRun] -->
<g id="edge18" class="edge">
<title>ProtonCurrent[ReferenceRun]:e&#45;&gt;ReducibleData[ReferenceRun]:w</title>
<path fill="none" stroke="black" d="M404.5,-139.5C489.7,-139.5 513.5,-139.5 593.91,-139.5"/>
<polygon fill="black" stroke="black" points="594,-143 604,-139.5 594,-136 594,-143"/>
</g>
<!-- ProtonCurrent[SampleRun] -->
<g id="node18" class="node">
<title>ProtonCurrent[SampleRun]</title>
<polygon fill="none" stroke="black" points="396,-125 301,-125 301,-104 396,-104 396,-125"/>
<text text-anchor="start" x="309" y="-111.4" font-family="Times,serif" font-size="12.00">[SampleRun]</text>
</g>
<!-- ProtonCurrent[SampleRun]&#45;&gt;ReducibleData[SampleRun](run) -->
<g id="edge21" class="edge">
<title>ProtonCurrent[SampleRun]:e&#45;&gt;ReducibleData[SampleRun](run):w</title>
<path fill="none" stroke="black" d="M397.5,-114.5C482.28,-114.5 505.95,-114.5 585.96,-114.5"/>
<polygon fill="black" stroke="black" points="586,-118 596,-114.5 586,-111 586,-118"/>
</g>
<!-- QBins -->
<g id="node19" class="node">
<title>QBins</title>
<polygon fill="none" stroke="black" points="1416,-182 1357,-182 1357,-159 1416,-159 1416,-182"/>
<text text-anchor="middle" x="1386.5" y="-166.8" font-family="Times,serif" font-size="14.00">QBins</text>
</g>
<!-- QBins&#45;&gt;ReflectivityOverQ(run) -->
<g id="edge28" class="edge">
<title>QBins:e&#45;&gt;ReflectivityOverQ(run):w</title>
<path fill="none" stroke="black" d="M1417.5,-170.5C1502.07,-170.5 1525.68,-168.65 1605.48,-168.51"/>
<polygon fill="black" stroke="black" points="1605.5,-172.01 1615.5,-168.5 1605.5,-165.01 1605.5,-172.01"/>
</g>
<!-- ReducibleData[ReferenceRun]&#45;&gt;ReducedReference -->
<g id="edge8" class="edge">
<title>ReducibleData[ReferenceRun]:e&#45;&gt;ReducedReference:w</title>
<path fill="none" stroke="black" d="M716,-139.5C811.3,-139.5 832.76,-184.18 922.87,-187.33"/>
<polygon fill="black" stroke="black" points="922.94,-190.83 933,-187.5 923.06,-183.83 922.94,-190.83"/>
</g>
<!-- ReducedReference&#45;&gt;Reference(run) -->
<g id="edge22" class="edge">
<title>ReducedReference:e&#45;&gt;Reference(run):w</title>
<path fill="none" stroke="black" d="M1085,-187.5C1185,-187.5 1207.61,-141.7 1302.47,-138.66"/>
<polygon fill="black" stroke="black" points="1302.56,-142.16 1312.5,-138.5 1302.45,-135.16 1302.56,-142.16"/>
</g>
<!-- ReducedReference&#45;&gt;Sample(run) -->
<g id="edge30" class="edge">
<title>ReducedReference:e&#45;&gt;Sample(run):w</title>
<path fill="none" stroke="black" d="M1085,-187.5C1146.41,-187.5 1162.79,-207.16 1219.28,-209.31"/>
<polygon fill="black" stroke="black" points="1219.44,-212.81 1229.5,-209.5 1219.57,-205.81 1219.44,-212.81"/>
</g>
<!-- WavelengthBins -->
<g id="node22" class="node">
<title>WavelengthBins</title>
<polygon fill="none" stroke="black" points="414.5,-60 282.5,-60 282.5,-37 414.5,-37 414.5,-60"/>
<text text-anchor="middle" x="348.5" y="-44.8" font-family="Times,serif" font-size="14.00">WavelengthBins</text>
</g>
<!-- WavelengthBins&#45;&gt;ReducibleData[ReferenceRun] -->
<g id="edge17" class="edge">
<title>WavelengthBins:e&#45;&gt;ReducibleData[ReferenceRun]:w</title>
<path fill="none" stroke="black" stroke-width="2" d="M415.5,-48.5C471.34,-48.5 471.73,-93.04 515.75,-120.57"/>
<polygon fill="black" stroke="black" stroke-width="2" points="514.07,-123.64 524.5,-125.5 517.5,-117.54 514.07,-123.64"/>
</g>
<!-- WavelengthBins&#45;&gt;ReducedReference -->
<g id="edge9" class="edge">
<title>WavelengthBins:e&#45;&gt;ReducedReference:w</title>
<path fill="none" stroke="black" d="M415.5,-48.5C586.06,-48.5 641.34,-23.68 796.5,-94.5 831.42,-110.44 828.67,-131.05 860.5,-152.5 887.16,-170.47 895.55,-184.4 922.93,-187.05"/>
<polygon fill="black" stroke="black" points="922.85,-190.55 933,-187.5 923.17,-183.55 922.85,-190.55"/>
</g>
<!-- YIndexLimits -->
<g id="node23" class="node">
<title>YIndexLimits</title>
<polygon fill="none" stroke="black" points="403.5,-87 293.5,-87 293.5,-64 403.5,-64 403.5,-87"/>
<text text-anchor="middle" x="348.5" y="-71.8" font-family="Times,serif" font-size="14.00">YIndexLimits</text>
</g>
<!-- YIndexLimits&#45;&gt;ReducibleData[ReferenceRun] -->
<g id="edge14" class="edge">
<title>YIndexLimits:e&#45;&gt;ReducibleData[ReferenceRun]:w</title>
<path fill="none" stroke="black" stroke-width="2" d="M404.5,-75.5C430.78,-75.5 436.18,-84.53 460.5,-94.5 486.32,-105.08 492.99,-113.56 514.89,-122.09"/>
<polygon fill="black" stroke="black" stroke-width="2" points="513.91,-125.46 524.5,-125.5 516.24,-118.86 513.91,-125.46"/>
</g>
<!-- ZIndexLimits -->
<g id="node24" class="node">
<title>ZIndexLimits</title>
<polygon fill="none" stroke="black" points="404,-344 293,-344 293,-321 404,-321 404,-344"/>
<text text-anchor="middle" x="348.5" y="-328.8" font-family="Times,serif" font-size="14.00">ZIndexLimits</text>
</g>
<!-- ZIndexLimits&#45;&gt;ReducibleData[ReferenceRun] -->
<g id="edge15" class="edge">
<title>ZIndexLimits:e&#45;&gt;ReducibleData[ReferenceRun]:w</title>
<path fill="none" stroke="black" stroke-width="2" d="M404.5,-332.5C430.27,-332.5 440.3,-333.49 460.5,-317.5 505.2,-282.12 487.32,-247.62 523.97,-199.36"/>
<polygon fill="black" stroke="black" stroke-width="2" points="526.77,-201.47 530.34,-191.5 521.33,-197.07 526.77,-201.47"/>
</g>
<!-- ReducibleData[SampleRun](run)&#45;&gt;Reference(run) -->
<g id="edge23" class="edge">
<title>ReducibleData[SampleRun](run):e&#45;&gt;Reference(run):w</title>
<path fill="none" stroke="black" d="M724,-114.5C916.73,-114.5 965.06,-115 1157.5,-125.5 1223.02,-129.08 1241.52,-137.58 1302.36,-138.43"/>
<polygon fill="black" stroke="black" points="1302.48,-141.93 1312.5,-138.5 1302.52,-134.93 1302.48,-141.93"/>
</g>
<!-- ReducibleData[SampleRun](run)&#45;&gt;Sample(run) -->
<g id="edge29" class="edge">
<title>ReducibleData[SampleRun](run):e&#45;&gt;Sample(run):w</title>
<path fill="none" stroke="black" d="M724,-114.5C756.9,-114.5 764.83,-120.58 796.5,-129.5 825.59,-137.69 830.88,-146.46 860.5,-152.5 990.05,-178.91 1030.51,-132.69 1157.5,-169.5 1189.09,-178.66 1192.49,-203.65 1219.4,-208.63"/>
<polygon fill="black" stroke="black" points="1219.24,-212.13 1229.5,-209.5 1219.84,-205.15 1219.24,-212.13"/>
</g>
<!-- Sample(run)&#45;&gt;ReflectivityOverQ(run) -->
<g id="edge26" class="edge">
<title>Sample(run):e&#45;&gt;ReflectivityOverQ(run):w</title>
<path fill="none" stroke="black" d="M1543.5,-209.5C1576.58,-209.5 1578.61,-176.41 1605.39,-169.68"/>
<polygon fill="black" stroke="black" points="1605.97,-173.14 1615.5,-168.5 1605.16,-166.19 1605.97,-173.14"/>
</g>
</g>
</svg>
