<?xml version="1.0" encoding="UTF-8" standalone="no"?>
<!DOCTYPE svg PUBLIC "-//W3C//DTD SVG 1.1//EN"
 "http://www.w3.org/Graphics/SVG/1.1/DTD/svg11.dtd">
<!-- Generated by graphviz version 2.43.0 (0)
 -->
<!-- Title: %3 Pages: 1 -->
<svg width="233pt" height="149pt"
 viewBox="0.00 0.00 233.00 149.00" xmlns="http://www.w3.org/2000/svg" xmlns:xlink="http://www.w3.org/1999/xlink">
<g id="graph0" class="graph" transform="scale(1 1) rotate(0) translate(4 145)">
<title>%3</title>
<polygon fill="white" stroke="transparent" points="-4,4 -4,-145 229,-145 229,4 -4,4"/>
<!-- source_position -->
<g id="node1" class="node">
<title>source_position</title>
<polygon fill="none" stroke="black" points="128,-141 0,-141 0,-118 128,-118 128,-141"/>
<text text-anchor="middle" x="64" y="-125.8" font-family="Times,serif" font-size="14.00">source_position</text>
</g>
<!-- Ltotal -->
<g id="node2" class="node">
<title>Ltotal</title>
<polygon fill="none" stroke="black" points="152.5,-82 93.5,-82 93.5,-59 152.5,-59 152.5,-82"/>
<text text-anchor="middle" x="123" y="-66.8" font-family="Times,serif" font-size="14.00">Ltotal</text>
</g>
<!-- source_position&#45;&gt;Ltotal -->
<g id="edge1" class="edge">
<title>source_position&#45;&gt;Ltotal</title>
<path fill="none" stroke="black" d="M75.1,-117.78C83.42,-109.74 95,-98.55 104.69,-89.19"/>
<polygon fill="black" stroke="black" points="107.19,-91.64 111.95,-82.17 102.33,-86.6 107.19,-91.64"/>
</g>
<!-- wavelength -->
<g id="node5" class="node">
<title>wavelength</title>
<polygon fill="none" stroke="black" points="209.5,-23 110.5,-23 110.5,0 209.5,0 209.5,-23"/>
<text text-anchor="middle" x="160" y="-7.8" font-family="Times,serif" font-size="14.00">wavelength</text>
</g>
<!-- Ltotal&#45;&gt;wavelength -->
<g id="edge4" class="edge">
<title>Ltotal&#45;&gt;wavelength</title>
<path fill="none" stroke="black" d="M129.96,-58.78C134.92,-51.14 141.73,-40.65 147.6,-31.6"/>
<polygon fill="black" stroke="black" points="150.56,-33.47 153.07,-23.17 144.69,-29.66 150.56,-33.47"/>
</g>
<!-- position -->
<g id="node3" class="node">
<title>position</title>
<polygon fill="none" stroke="black" points="220,-141 146,-141 146,-118 220,-118 220,-141"/>
<text text-anchor="middle" x="183" y="-125.8" font-family="Times,serif" font-size="14.00">position</text>
</g>
<!-- position&#45;&gt;Ltotal -->
<g id="edge2" class="edge">
<title>position&#45;&gt;Ltotal</title>
<path fill="none" stroke="black" d="M171.71,-117.78C163.25,-109.74 151.48,-98.55 141.62,-89.19"/>
<polygon fill="black" stroke="black" points="143.9,-86.52 134.23,-82.17 139.07,-91.6 143.9,-86.52"/>
</g>
<!-- tof -->
<g id="node4" class="node">
<title>tof</title>
<polygon fill="none" stroke="black" points="225,-82 171,-82 171,-59 225,-59 225,-82"/>
<text text-anchor="middle" x="198" y="-66.8" font-family="Times,serif" font-size="14.00">tof</text>
</g>
<!-- tof&#45;&gt;wavelength -->
<g id="edge3" class="edge">
<title>tof&#45;&gt;wavelength</title>
<path fill="none" stroke="black" d="M190.85,-58.78C185.76,-51.14 178.77,-40.65 172.73,-31.6"/>
<polygon fill="black" stroke="black" points="175.57,-29.55 167.12,-23.17 169.75,-33.44 175.57,-29.55"/>
</g>
</g>
</svg>
