<?xml version="1.0" encoding="UTF-8" standalone="no"?>
<!DOCTYPE svg PUBLIC "-//W3C//DTD SVG 1.1//EN"
 "http://www.w3.org/Graphics/SVG/1.1/DTD/svg11.dtd">
<!-- Generated by graphviz version 2.43.0 (0)
 -->
<!-- Title: %3 Pages: 1 -->
<svg width="1375pt" height="359pt"
 viewBox="0.00 0.00 1375.00 358.50" xmlns="http://www.w3.org/2000/svg" xmlns:xlink="http://www.w3.org/1999/xlink">
<g id="graph0" class="graph" transform="scale(1 1) rotate(0) translate(4 354.5)">
<title>%3</title>
<polygon fill="white" stroke="transparent" points="-4,4 -4,-354.5 1371,-354.5 1371,4 -4,4"/>
<g id="clust2" class="cluster">
<title>cluster_CoordTransformationGraph</title>
<polygon fill="#f0f0ff" stroke="#f0f0ff" points="8,-236.5 8,-342.5 308,-342.5 308,-236.5 8,-236.5"/>
<text text-anchor="middle" x="158" y="-327.3" font-family="Times,serif" font-size="14.00">CoordTransformationGraph</text>
</g>
<g id="clust3" class="cluster">
<title>cluster_Filename</title>
<polygon fill="#f0f0ff" stroke="#f0f0ff" points="95,-66.5 95,-152.5 221,-152.5 221,-66.5 95,-66.5"/>
<text text-anchor="middle" x="158" y="-137.3" font-family="Times,serif" font-size="14.00">Filename</text>
</g>
<g id="clust4" class="cluster">
<title>cluster_MonitorData</title>
<polygon fill="#f0f0ff" stroke="#f0f0ff" points="401,-162.5 401,-258.5 557,-258.5 557,-162.5 401,-162.5"/>
<text text-anchor="start" x="433.5" y="-244.3" font-family="Times,serif" font-size="14.00">MonitorData</text>
<text text-anchor="start" x="409" y="-232.7" font-family="Times,serif" font-size="11.00">via:</text>
<text text-anchor="start" x="430" y="-232.7" font-family="Times,serif" font-style="italic" font-size="11.00">load_offspec_monitor</text>
</g>
<g id="clust8" class="cluster">
<title>cluster_RawDetector</title>
<polygon fill="#f0f0ff" stroke="#f0f0ff" points="405,-58.5 405,-154.5 554,-154.5 554,-58.5 405,-58.5"/>
<text text-anchor="start" x="432.5" y="-140.3" font-family="Times,serif" font-size="14.00">RawDetector</text>
<text text-anchor="start" x="413" y="-128.7" font-family="Times,serif" font-size="11.00">via:</text>
<text text-anchor="start" x="434" y="-128.7" font-family="Times,serif" font-style="italic" font-size="11.00">load_offspec_events</text>
</g>
<g id="clust9" class="cluster">
<title>cluster_ReducibleData</title>
<polygon fill="#f0f0ff" stroke="#f0f0ff" points="650,-162.5 650,-258.5 922,-258.5 922,-162.5 650,-162.5"/>
<text text-anchor="start" x="733.5" y="-244.3" font-family="Times,serif" font-size="14.00">ReducibleData</text>
<text text-anchor="start" x="658" y="-232.7" font-family="Times,serif" font-size="11.00">via:</text>
<text text-anchor="start" x="679" y="-232.7" font-family="Times,serif" font-style="italic" font-size="11.00">add_coords_masks_and_apply_corrections</text>
</g>
<!-- BackgroundMinWavelength -->
<g id="node1" class="node">
<title>BackgroundMinWavelength</title>
<polygon fill="none" stroke="red" stroke-dasharray="5,2" points="586,-290 372,-290 372,-267 586,-267 586,-290"/>
<text text-anchor="middle" x="479" y="-274.8" font-family="Times,serif" font-size="14.00" fill="red">BackgroundMinWavelength</text>
</g>
<!-- ReducibleData[ReferenceRun] -->
<g id="node13" class="node">
<title>ReducibleData[ReferenceRun]</title>
<polygon fill="none" stroke="black" points="841,-192 731,-192 731,-171 841,-171 841,-192"/>
<text text-anchor="start" x="739" y="-178.4" font-family="Times,serif" font-size="12.00">[ReferenceRun]</text>
</g>
<!-- BackgroundMinWavelength&#45;&gt;ReducibleData[ReferenceRun] -->
<g id="edge12" class="edge">
<title>BackgroundMinWavelength:e&#45;&gt;ReducibleData[ReferenceRun]:w</title>
<path fill="none" stroke="black" stroke-width="2" d="M586,-278.5C628.62,-278.5 613.49,-229.24 641.8,-202.71"/>
<polygon fill="black" stroke="black" stroke-width="2" points="644.14,-205.33 650,-196.5 639.92,-199.75 644.14,-205.33"/>
</g>
<!-- CoordTransformationGraph[ReferenceRun] -->
<g id="node2" class="node">
<title>CoordTransformationGraph[ReferenceRun]</title>
<polygon fill="none" stroke="black" points="300,-276 16,-276 16,-245 300,-245 300,-276"/>
<text text-anchor="start" x="111" y="-263.4" font-family="Times,serif" font-size="12.00">[ReferenceRun]</text>
<text text-anchor="start" x="24" y="-252.2" font-family="Times,serif" font-size="11.00">via:</text>
<text text-anchor="start" x="45" y="-252.2" font-family="Times,serif" font-style="italic" font-size="11.00">coordinate_transformation_graph_reference</text>
</g>
<!-- MonitorData[ReferenceRun] -->
<g id="node6" class="node">
<title>MonitorData[ReferenceRun]</title>
<polygon fill="none" stroke="black" points="534,-192 424,-192 424,-171 534,-171 534,-192"/>
<text text-anchor="start" x="432" y="-178.4" font-family="Times,serif" font-size="12.00">[ReferenceRun]</text>
</g>
<!-- CoordTransformationGraph[ReferenceRun]&#45;&gt;MonitorData[ReferenceRun] -->
<g id="edge2" class="edge">
<title>CoordTransformationGraph[ReferenceRun]:e&#45;&gt;MonitorData[ReferenceRun]:w</title>
<path fill="none" stroke="black" d="M301,-260.5C343.48,-260.5 334.92,-217.23 372,-196.5 389.24,-186.86 396.78,-182.86 412.6,-181.8"/>
<polygon fill="black" stroke="black" points="413.11,-185.29 423,-181.5 412.9,-178.29 413.11,-185.29"/>
</g>
<!-- MonitorData[SampleRun] -->
<g id="node8" class="node">
<title>MonitorData[SampleRun]</title>
<polygon fill="none" stroke="black" points="526.5,-217 431.5,-217 431.5,-196 526.5,-196 526.5,-217"/>
<text text-anchor="start" x="439.5" y="-203.4" font-family="Times,serif" font-size="12.00">[SampleRun]</text>
</g>
<!-- CoordTransformationGraph[ReferenceRun]&#45;&gt;MonitorData[SampleRun] -->
<g id="edge5" class="edge">
<title>CoordTransformationGraph[ReferenceRun]:e&#45;&gt;MonitorData[SampleRun]:w</title>
<path fill="none" stroke="black" d="M301,-260.5C359.63,-260.5 367.13,-212.44 419.97,-207"/>
<polygon fill="black" stroke="black" points="420.19,-210.49 430,-206.5 419.84,-203.5 420.19,-210.49"/>
</g>
<!-- CoordTransformationGraph[ReferenceRun]&#45;&gt;ReducibleData[ReferenceRun] -->
<g id="edge14" class="edge">
<title>CoordTransformationGraph[ReferenceRun]:e&#45;&gt;ReducibleData[ReferenceRun]:w</title>
<path fill="none" stroke="black" d="M301,-260.5C335.26,-260.5 338.43,-283.7 372,-290.5 418.61,-299.94 543.96,-312.73 586,-290.5 630.68,-266.87 607.7,-224.16 650,-196.5 677.2,-178.71 690.9,-180.78 719.64,-181.38"/>
<polygon fill="black" stroke="black" points="719.96,-184.89 730,-181.5 720.04,-177.89 719.96,-184.89"/>
</g>
<!-- CoordTransformationGraph[SampleRun] -->
<g id="node3" class="node">
<title>CoordTransformationGraph[SampleRun]</title>
<polygon fill="none" stroke="black" points="293,-311 23,-311 23,-280 293,-280 293,-311"/>
<text text-anchor="start" x="118.5" y="-298.4" font-family="Times,serif" font-size="12.00">[SampleRun]</text>
<text text-anchor="start" x="31" y="-287.2" font-family="Times,serif" font-size="11.00">via:</text>
<text text-anchor="start" x="52" y="-287.2" font-family="Times,serif" font-style="italic" font-size="11.00">coordinate_transformation_graph_sample</text>
</g>
<!-- ReducibleData[SampleRun] -->
<g id="node16" class="node">
<title>ReducibleData[SampleRun]</title>
<polygon fill="none" stroke="black" points="833.5,-217 738.5,-217 738.5,-196 833.5,-196 833.5,-217"/>
<text text-anchor="start" x="746.5" y="-203.4" font-family="Times,serif" font-size="12.00">[SampleRun]</text>
</g>
<!-- CoordTransformationGraph[SampleRun]&#45;&gt;ReducibleData[SampleRun] -->
<g id="edge17" class="edge">
<title>CoordTransformationGraph[SampleRun]:e&#45;&gt;ReducibleData[SampleRun]:w</title>
<path fill="none" stroke="black" d="M294,-295.5C423.8,-295.5 461.2,-336.17 586,-300.5 658.59,-279.75 658.15,-212.89 726.83,-206.93"/>
<polygon fill="black" stroke="black" points="727.16,-210.42 737,-206.5 726.86,-203.42 727.16,-210.42"/>
</g>
<!-- Filename[ReferenceRun] -->
<g id="node4" class="node">
<title>Filename[ReferenceRun]</title>
<polygon fill="none" stroke="black" points="213,-96 103,-96 103,-75 213,-75 213,-96"/>
<text text-anchor="start" x="111" y="-82.4" font-family="Times,serif" font-size="12.00">[ReferenceRun]</text>
</g>
<!-- Filename[ReferenceRun]&#45;&gt;MonitorData[ReferenceRun] -->
<g id="edge1" class="edge">
<title>Filename[ReferenceRun]:e&#45;&gt;MonitorData[ReferenceRun]:w</title>
<path fill="none" stroke="black" d="M214,-85.5C256.24,-85.5 269.67,-81.76 308,-99.5 361.74,-124.37 360.57,-175.29 412.96,-180.98"/>
<polygon fill="black" stroke="black" points="412.83,-184.48 423,-181.5 413.19,-177.49 412.83,-184.48"/>
</g>
<!-- RawDetector[ReferenceRun] -->
<g id="node11" class="node">
<title>RawDetector[ReferenceRun]</title>
<polygon fill="none" stroke="black" points="534,-88 424,-88 424,-67 534,-67 534,-88"/>
<text text-anchor="start" x="432" y="-74.4" font-family="Times,serif" font-size="12.00">[ReferenceRun]</text>
</g>
<!-- Filename[ReferenceRun]&#45;&gt;RawDetector[ReferenceRun] -->
<g id="edge7" class="edge">
<title>Filename[ReferenceRun]:e&#45;&gt;RawDetector[ReferenceRun]:w</title>
<path fill="none" stroke="black" d="M214,-85.5C303.51,-85.5 328.23,-78.08 412.93,-77.53"/>
<polygon fill="black" stroke="black" points="413.01,-81.03 423,-77.5 412.99,-74.03 413.01,-81.03"/>
</g>
<!-- Filename[SampleRun] -->
<g id="node5" class="node">
<title>Filename[SampleRun]</title>
<polygon fill="none" stroke="black" points="205.5,-121 110.5,-121 110.5,-100 205.5,-100 205.5,-121"/>
<text text-anchor="start" x="118.5" y="-107.4" font-family="Times,serif" font-size="12.00">[SampleRun]</text>
</g>
<!-- Filename[SampleRun]&#45;&gt;MonitorData[SampleRun] -->
<g id="edge4" class="edge">
<title>Filename[SampleRun]:e&#45;&gt;MonitorData[SampleRun]:w</title>
<path fill="none" stroke="black" d="M207,-110.5C311.43,-110.5 321.53,-200.41 419.87,-206.21"/>
<polygon fill="black" stroke="black" points="419.9,-209.71 430,-206.5 420.11,-202.71 419.9,-209.71"/>
</g>
<!-- RawDetector[SampleRun] -->
<g id="node12" class="node">
<title>RawDetector[SampleRun]</title>
<polygon fill="none" stroke="black" points="526.5,-113 431.5,-113 431.5,-92 526.5,-92 526.5,-113"/>
<text text-anchor="start" x="439.5" y="-99.4" font-family="Times,serif" font-size="12.00">[SampleRun]</text>
</g>
<!-- Filename[SampleRun]&#45;&gt;RawDetector[SampleRun] -->
<g id="edge8" class="edge">
<title>Filename[SampleRun]:e&#45;&gt;RawDetector[SampleRun]:w</title>
<path fill="none" stroke="black" d="M207,-110.5C302.69,-110.5 329,-103.05 419.81,-102.53"/>
<polygon fill="black" stroke="black" points="420.01,-106.03 430,-102.5 419.99,-99.03 420.01,-106.03"/>
</g>
<!-- MonitorData[ReferenceRun]&#45;&gt;ReducibleData[ReferenceRun] -->
<g id="edge13" class="edge">
<title>MonitorData[ReferenceRun]:e&#45;&gt;ReducibleData[ReferenceRun]:w</title>
<path fill="none" stroke="black" d="M535,-181.5C618.11,-181.5 641.45,-181.5 719.66,-181.5"/>
<polygon fill="black" stroke="black" points="720,-185 730,-181.5 720,-178 720,-185"/>
</g>
<!-- NeXusName[NXmonitor] -->
<g id="node7" class="node">
<title>NeXusName[NXmonitor]</title>
<polygon fill="none" stroke="black" points="255,-205 61,-205 61,-182 255,-182 255,-205"/>
<text text-anchor="middle" x="158" y="-189.8" font-family="Times,serif" font-size="14.00">NeXusName[NXmonitor]</text>
</g>
<!-- NeXusName[NXmonitor]&#45;&gt;MonitorData[ReferenceRun] -->
<g id="edge3" class="edge">
<title>NeXusName[NXmonitor]:e&#45;&gt;MonitorData[ReferenceRun]:w</title>
<path fill="none" stroke="black" d="M256,-193.5C326.93,-193.5 346.76,-182.6 412.89,-181.58"/>
<polygon fill="black" stroke="black" points="413.03,-185.08 423,-181.5 412.97,-178.08 413.03,-185.08"/>
</g>
<!-- NeXusName[NXmonitor]&#45;&gt;MonitorData[SampleRun] -->
<g id="edge6" class="edge">
<title>NeXusName[NXmonitor]:e&#45;&gt;MonitorData[SampleRun]:w</title>
<path fill="none" stroke="black" d="M256,-193.5C330.07,-193.5 350.63,-205.36 419.89,-206.42"/>
<polygon fill="black" stroke="black" points="419.97,-209.92 430,-206.5 420.03,-202.92 419.97,-209.92"/>
</g>
<!-- MonitorData[SampleRun]&#45;&gt;ReducibleData[SampleRun] -->
<g id="edge16" class="edge">
<title>MonitorData[SampleRun]:e&#45;&gt;ReducibleData[SampleRun]:w</title>
<path fill="none" stroke="black" d="M528,-206.5C617.44,-206.5 642.29,-206.5 726.94,-206.5"/>
<polygon fill="black" stroke="black" points="727,-210 737,-206.5 727,-203 727,-210"/>
</g>
<!-- QBins -->
<g id="node9" class="node">
<title>QBins</title>
<polygon fill="none" stroke="red" stroke-dasharray="5,2" points="1088,-161 1029,-161 1029,-138 1088,-138 1088,-161"/>
<text text-anchor="middle" x="1058.5" y="-145.8" font-family="Times,serif" font-size="14.00" fill="red">QBins</text>
</g>
<!-- ReflectivityOverQ -->
<g id="node19" class="node">
<title>ReflectivityOverQ</title>
<polygon fill="none" stroke="black" points="1367,-198 1203,-198 1203,-165 1367,-165 1367,-198"/>
<text text-anchor="start" x="1221.5" y="-183.8" font-family="Times,serif" font-size="14.00">ReflectivityOverQ</text>
<text text-anchor="start" x="1211" y="-172.2" font-family="Times,serif" font-size="11.00">via:</text>
<text text-anchor="start" x="1232" y="-172.2" font-family="Times,serif" font-style="italic" font-size="11.00">reduce_sample_over_q</text>
</g>
<!-- QBins&#45;&gt;ReflectivityOverQ -->
<g id="edge23" class="edge">
<title>QBins:e&#45;&gt;ReflectivityOverQ:w</title>
<path fill="none" stroke="black" d="M1089.5,-149.5C1138.33,-149.5 1149.2,-177.27 1192.84,-181.07"/>
<polygon fill="black" stroke="black" points="1192.86,-184.58 1203,-181.5 1193.16,-177.58 1192.86,-184.58"/>
</g>
<!-- QResolution -->
<g id="node10" class="node">
<title>QResolution</title>
<polygon fill="none" stroke="red" stroke-dasharray="5,2" points="838,-290 734,-290 734,-267 838,-267 838,-290"/>
<text text-anchor="middle" x="786" y="-274.8" font-family="Times,serif" font-size="14.00" fill="red">QResolution</text>
</g>
<!-- Reference -->
<g id="node17" class="node">
<title>Reference</title>
<polygon fill="none" stroke="black" points="1131,-235 986,-235 986,-202 1131,-202 1131,-235"/>
<text text-anchor="start" x="1022" y="-220.8" font-family="Times,serif" font-size="14.00">Reference</text>
<text text-anchor="start" x="994" y="-209.2" font-family="Times,serif" font-size="11.00">via:</text>
<text text-anchor="start" x="1015" y="-209.2" font-family="Times,serif" font-style="italic" font-size="11.00">evaluate_reference</text>
</g>
<!-- QResolution&#45;&gt;Reference -->
<g id="edge20" class="edge">
<title>QResolution:e&#45;&gt;Reference:w</title>
<path fill="none" stroke="black" d="M839,-278.5C876.84,-278.5 887.11,-274.15 922,-259.5 949.62,-247.91 952.02,-224.64 975.76,-219.51"/>
<polygon fill="black" stroke="black" points="976.39,-222.97 986,-218.5 975.7,-216 976.39,-222.97"/>
</g>
<!-- RawDetector[ReferenceRun]&#45;&gt;ReducibleData[ReferenceRun] -->
<g id="edge9" class="edge">
<title>RawDetector[ReferenceRun]:e&#45;&gt;ReducibleData[ReferenceRun]:w</title>
<path fill="none" stroke="black" d="M535,-77.5C629.77,-77.5 631.76,-174.32 720,-181.12"/>
<polygon fill="black" stroke="black" points="719.88,-184.62 730,-181.5 720.14,-177.63 719.88,-184.62"/>
</g>
<!-- RawDetector[SampleRun]&#45;&gt;ReducibleData[SampleRun] -->
<g id="edge15" class="edge">
<title>RawDetector[SampleRun]:e&#45;&gt;ReducibleData[SampleRun]:w</title>
<path fill="none" stroke="black" d="M528,-102.5C595.38,-102.5 587.88,-166.41 650,-192.5 682.72,-206.24 695.42,-206.57 726.67,-206.52"/>
<polygon fill="black" stroke="black" points="727.01,-210.02 737,-206.5 726.99,-203.02 727.01,-210.02"/>
</g>
<!-- ReducibleData[ReferenceRun]&#45;&gt;Reference -->
<g id="edge18" class="edge">
<title>ReducibleData[ReferenceRun]:e&#45;&gt;Reference:w</title>
<path fill="none" stroke="black" d="M842,-181.5C878.18,-181.5 887.02,-187.26 922,-196.5 947.45,-203.22 954.33,-215.02 975.81,-217.87"/>
<polygon fill="black" stroke="black" points="975.8,-221.38 986,-218.5 976.24,-214.39 975.8,-221.38"/>
</g>
<!-- Sample -->
<g id="node18" class="node">
<title>Sample</title>
<polygon fill="none" stroke="black" points="1124,-198 993,-198 993,-165 1124,-165 1124,-198"/>
<text text-anchor="start" x="1031.5" y="-183.8" font-family="Times,serif" font-size="14.00">Sample</text>
<text text-anchor="start" x="1001" y="-172.2" font-family="Times,serif" font-size="11.00">via:</text>
<text text-anchor="start" x="1022" y="-172.2" font-family="Times,serif" font-style="italic" font-size="11.00">evaluate_sample</text>
</g>
<!-- ReducibleData[ReferenceRun]&#45;&gt;Sample -->
<g id="edge24" class="edge">
<title>ReducibleData[ReferenceRun]:e&#45;&gt;Sample:w</title>
<path fill="none" stroke="black" d="M842,-181.5C904.94,-181.5 923.17,-181.5 981.39,-181.5"/>
<polygon fill="black" stroke="black" points="981.5,-185 991.5,-181.5 981.5,-178 981.5,-185"/>
</g>
<!-- SpectrumLimits -->
<g id="node14" class="node">
<title>SpectrumLimits</title>
<polygon fill="none" stroke="red" stroke-dasharray="5,2" points="544.5,-23 413.5,-23 413.5,0 544.5,0 544.5,-23"/>
<text text-anchor="middle" x="479" y="-7.8" font-family="Times,serif" font-size="14.00" fill="red">SpectrumLimits</text>
</g>
<!-- SpectrumLimits&#45;&gt;ReducibleData[ReferenceRun] -->
<g id="edge10" class="edge">
<title>SpectrumLimits:e&#45;&gt;ReducibleData[ReferenceRun]:w</title>
<path fill="none" stroke="black" stroke-width="2" d="M546,-11.5C629.71,-11.5 628.62,-107.59 670.24,-155.29"/>
<polygon fill="black" stroke="black" stroke-width="2" points="667.81,-157.81 677.3,-162.5 672.81,-152.91 667.81,-157.81"/>
</g>
<!-- WavelengthBins -->
<g id="node15" class="node">
<title>WavelengthBins</title>
<polygon fill="none" stroke="red" stroke-dasharray="5,2" points="545,-50 413,-50 413,-27 545,-27 545,-50"/>
<text text-anchor="middle" x="479" y="-34.8" font-family="Times,serif" font-size="14.00" fill="red">WavelengthBins</text>
</g>
<!-- WavelengthBins&#45;&gt;ReducibleData[ReferenceRun] -->
<g id="edge11" class="edge">
<title>WavelengthBins:e&#45;&gt;ReducibleData[ReferenceRun]:w</title>
<path fill="none" stroke="black" stroke-width="2" d="M546,-38.5C621.37,-38.5 629.64,-114.23 668.47,-155.47"/>
<polygon fill="black" stroke="black" stroke-width="2" points="666.17,-158.12 675.82,-162.5 671.01,-153.06 666.17,-158.12"/>
</g>
<!-- ReducibleData[SampleRun]&#45;&gt;Reference -->
<g id="edge19" class="edge">
<title>ReducibleData[SampleRun]:e&#45;&gt;Reference:w</title>
<path fill="none" stroke="black" d="M835,-206.5C898.77,-206.5 916.81,-217.27 975.76,-218.4"/>
<polygon fill="black" stroke="black" points="975.97,-221.91 986,-218.5 976.03,-214.91 975.97,-221.91"/>
</g>
<!-- ReducibleData[SampleRun]&#45;&gt;Sample -->
<g id="edge25" class="edge">
<title>ReducibleData[SampleRun]:e&#45;&gt;Sample:w</title>
<path fill="none" stroke="black" d="M835,-206.5C842.6,-206.5 947.15,-187.87 981.26,-182.77"/>
<polygon fill="black" stroke="black" points="982.01,-186.21 991.5,-181.5 981.14,-179.26 982.01,-186.21"/>
</g>
<!-- Reference&#45;&gt;ReflectivityOverQ -->
<g id="edge22" class="edge">
<title>Reference:e&#45;&gt;ReflectivityOverQ:w</title>
<path fill="none" stroke="black" d="M1131,-218.5C1163.18,-218.5 1166.61,-188.89 1192.73,-182.65"/>
<polygon fill="black" stroke="black" points="1193.45,-186.09 1203,-181.5 1192.67,-179.13 1193.45,-186.09"/>
</g>
<!-- Sample&#45;&gt;ReflectivityOverQ -->
<g id="edge21" class="edge">
<title>Sample:e&#45;&gt;ReflectivityOverQ:w</title>
<path fill="none" stroke="black" d="M1125.5,-181.5C1156.31,-181.5 1166.45,-181.5 1192.9,-181.5"/>
<polygon fill="black" stroke="black" points="1193,-185 1203,-181.5 1193,-178 1193,-185"/>
</g>
</g>
</svg>
