<?xml version="1.0" encoding="UTF-8" standalone="no"?>
<!DOCTYPE svg PUBLIC "-//W3C//DTD SVG 1.1//EN"
 "http://www.w3.org/Graphics/SVG/1.1/DTD/svg11.dtd">
<!-- Generated by graphviz version 2.43.0 (0)
 -->
<!-- Title: %3 Pages: 1 -->
<svg width="1788pt" height="352pt"
 viewBox="0.00 0.00 1788.00 352.00" xmlns="http://www.w3.org/2000/svg" xmlns:xlink="http://www.w3.org/1999/xlink">
<g id="graph0" class="graph" transform="scale(1 1) rotate(0) translate(4 348)">
<title>%3</title>
<polygon fill="white" stroke="transparent" points="-4,4 -4,-348 1784,-348 1784,4 -4,4"/>
<g id="clust6" class="cluster">
<title>cluster_Filename</title>
<polygon fill="#f0f0ff" stroke="#f0f0ff" points="23,-105.5 23,-191.5 149,-191.5 149,-105.5 23,-105.5"/>
<text text-anchor="middle" x="86" y="-176.3" font-family="Times,serif" font-size="14.00">Filename</text>
</g>
<g id="clust8" class="cluster">
<title>cluster_ProtonCurrent</title>
<polygon fill="#f0f0ff" stroke="#f0f0ff" points="286,-162.5 286,-248.5 412,-248.5 412,-162.5 286,-162.5"/>
<text text-anchor="middle" x="349" y="-233.3" font-family="Times,serif" font-size="14.00">ProtonCurrent</text>
</g>
<g id="clust10" class="cluster">
<title>cluster_RawDetector</title>
<polygon fill="#f0f0ff" stroke="#f0f0ff" points="275,-58.5 275,-154.5 424,-154.5 424,-58.5 275,-58.5"/>
<text text-anchor="start" x="302.5" y="-140.3" font-family="Times,serif" font-size="14.00">RawDetector</text>
<text text-anchor="start" x="283" y="-128.7" font-family="Times,serif" font-size="11.00">via:</text>
<text text-anchor="start" x="304" y="-128.7" font-family="Times,serif" font-style="italic" font-size="11.00">load_mcstas_events</text>
</g>
<g id="clust12" class="cluster">
<title>cluster_ReducibleData</title>
<polygon fill="#f0f0ff" stroke="#f0f0ff" points="525,-162.5 525,-258.5 797,-258.5 797,-162.5 525,-162.5"/>
<text text-anchor="start" x="608.5" y="-244.3" font-family="Times,serif" font-size="14.00">ReducibleData</text>
<text text-anchor="start" x="533" y="-232.7" font-family="Times,serif" font-size="11.00">via:</text>
<text text-anchor="start" x="554" y="-232.7" font-family="Times,serif" font-style="italic" font-size="11.00">add_coords_masks_and_apply_corrections</text>
</g>
<g id="clust16" class="cluster">
<title>cluster_SampleRotationOffset</title>
<polygon fill="#f0f0ff" stroke="#f0f0ff" points="0,-11.5 0,-97.5 173,-97.5 173,-11.5 0,-11.5"/>
<text text-anchor="middle" x="86.5" y="-82.3" font-family="Times,serif" font-size="14.00">SampleRotationOffset</text>
</g>
<!-- Alpha -->
<g id="node1" class="node">
<title>Alpha</title>
<polygon fill="none" stroke="black" points="689.5,-90 632.5,-90 632.5,-67 689.5,-67 689.5,-90"/>
<text text-anchor="middle" x="661" y="-74.8" font-family="Times,serif" font-size="14.00">Alpha</text>
</g>
<!-- ReducedReference -->
<g id="node17" class="node">
<title>ReducedReference</title>
<polygon fill="none" stroke="black" points="1084.5,-161 934.5,-161 934.5,-128 1084.5,-128 1084.5,-161"/>
<text text-anchor="start" x="942.5" y="-146.8" font-family="Times,serif" font-size="14.00">ReducedReference</text>
<text text-anchor="start" x="950" y="-135.2" font-family="Times,serif" font-size="11.00">via:</text>
<text text-anchor="start" x="971" y="-135.2" font-family="Times,serif" font-style="italic" font-size="11.00">reduce_reference</text>
</g>
<!-- Alpha&#45;&gt;ReducedReference -->
<g id="edge9" class="edge">
<title>Alpha:e&#45;&gt;ReducedReference:w</title>
<path fill="none" stroke="black" d="M691,-78.5C738.64,-78.5 750.84,-82.69 797,-94.5 856.17,-109.64 867.71,-140.84 923.38,-144.2"/>
<polygon fill="black" stroke="black" points="923.4,-147.71 933.5,-144.5 923.61,-140.71 923.4,-147.71"/>
</g>
<!-- Sample -->
<g id="node23" class="node">
<title>Sample</title>
<polygon fill="none" stroke="black" points="1544,-149 1230,-149 1230,-116 1544,-116 1544,-149"/>
<text text-anchor="start" x="1360" y="-134.8" font-family="Times,serif" font-size="14.00">Sample</text>
<text text-anchor="start" x="1238" y="-123.2" font-family="Times,serif" font-size="11.00">via:</text>
<text text-anchor="start" x="1259" y="-123.2" font-family="Times,serif" font-style="italic" font-size="11.00">mask_events_where_supermirror_does_not_cover</text>
</g>
<!-- Alpha&#45;&gt;Sample -->
<g id="edge30" class="edge">
<title>Alpha:e&#45;&gt;Sample:w</title>
<path fill="none" stroke="black" d="M691,-78.5C898.88,-78.5 954.83,-60.5 1158,-104.5 1187.89,-110.97 1194.41,-128.13 1219.74,-131.8"/>
<polygon fill="black" stroke="black" points="1219.79,-135.31 1230,-132.5 1220.26,-128.33 1219.79,-135.31"/>
</g>
<!-- BeamDivergenceLimits -->
<g id="node2" class="node">
<title>BeamDivergenceLimits</title>
<polygon fill="none" stroke="black" points="440.5,-280 257.5,-280 257.5,-257 440.5,-257 440.5,-280"/>
<text text-anchor="middle" x="349" y="-264.8" font-family="Times,serif" font-size="14.00">BeamDivergenceLimits</text>
</g>
<!-- ReducibleData[ReferenceRun] -->
<g id="node16" class="node">
<title>ReducibleData[ReferenceRun]</title>
<polygon fill="none" stroke="black" points="716,-192 606,-192 606,-171 716,-171 716,-192"/>
<text text-anchor="start" x="614" y="-178.4" font-family="Times,serif" font-size="12.00">[ReferenceRun]</text>
</g>
<!-- BeamDivergenceLimits&#45;&gt;ReducibleData[ReferenceRun] -->
<g id="edge13" class="edge">
<title>BeamDivergenceLimits:e&#45;&gt;ReducibleData[ReferenceRun]:w</title>
<path fill="none" stroke="black" stroke-width="2" d="M442,-268.5C487.21,-268.5 482.16,-224.99 516.05,-201.68"/>
<polygon fill="black" stroke="black" stroke-width="2" points="518.1,-204.54 525,-196.5 514.59,-198.48 518.1,-204.54"/>
</g>
<!-- CoordTransformationGraph -->
<g id="node3" class="node">
<title>CoordTransformationGraph</title>
<polygon fill="none" stroke="black" points="461,-344 237,-344 237,-311 461,-311 461,-344"/>
<text text-anchor="start" x="250" y="-329.8" font-family="Times,serif" font-size="14.00">CoordTransformationGraph</text>
<text text-anchor="start" x="245" y="-318.2" font-family="Times,serif" font-size="11.00">via:</text>
<text text-anchor="start" x="266" y="-318.2" font-family="Times,serif" font-style="italic" font-size="11.00">coordinate_transformation_graph</text>
</g>
<!-- CoordTransformationGraph&#45;&gt;ReducibleData[ReferenceRun] -->
<g id="edge16" class="edge">
<title>CoordTransformationGraph:e&#45;&gt;ReducibleData[ReferenceRun]:w</title>
<path fill="none" stroke="black" stroke-width="2" d="M461,-327.5C522.26,-327.5 478.82,-245.52 517.44,-203.39"/>
<polygon fill="black" stroke="black" stroke-width="2" points="519.96,-205.82 525,-196.5 515.25,-200.65 519.96,-205.82"/>
</g>
<!-- Reference -->
<g id="node22" class="node">
<title>Reference</title>
<polygon fill="none" stroke="black" points="1459.5,-204 1314.5,-204 1314.5,-171 1459.5,-171 1459.5,-204"/>
<text text-anchor="start" x="1350.5" y="-189.8" font-family="Times,serif" font-size="14.00">Reference</text>
<text text-anchor="start" x="1322.5" y="-178.2" font-family="Times,serif" font-size="11.00">via:</text>
<text text-anchor="start" x="1343.5" y="-178.2" font-family="Times,serif" font-style="italic" font-size="11.00">evaluate_reference</text>
</g>
<!-- CoordTransformationGraph&#45;&gt;Reference -->
<g id="edge21" class="edge">
<title>CoordTransformationGraph:e&#45;&gt;Reference:w</title>
<path fill="none" stroke="black" d="M461,-327.5C554.03,-327.5 1177.61,-195.85 1302.77,-187.88"/>
<polygon fill="black" stroke="black" points="1303.14,-191.37 1313,-187.5 1302.88,-184.37 1303.14,-191.37"/>
</g>
<!-- CriticalEdge -->
<g id="node4" class="node">
<title>CriticalEdge</title>
<polygon fill="none" stroke="black" points="714,-144 608,-144 608,-121 714,-121 714,-144"/>
<text text-anchor="middle" x="661" y="-128.8" font-family="Times,serif" font-size="14.00">CriticalEdge</text>
</g>
<!-- CriticalEdge&#45;&gt;ReducedReference -->
<g id="edge7" class="edge">
<title>CriticalEdge:e&#45;&gt;ReducedReference:w</title>
<path fill="none" stroke="black" d="M715,-132.5C808.74,-132.5 834.41,-143.65 923.24,-144.45"/>
<polygon fill="black" stroke="black" points="923.48,-147.96 933.5,-144.5 923.52,-140.96 923.48,-147.96"/>
</g>
<!-- CriticalEdge&#45;&gt;Sample -->
<g id="edge28" class="edge">
<title>CriticalEdge:e&#45;&gt;Sample:w</title>
<path fill="none" stroke="black" d="M715,-132.5C779.93,-132.5 796.08,-128.61 861,-127.5 992.98,-125.24 1026.08,-122.92 1158,-127.5 1186.43,-128.49 1195.83,-131.65 1219.96,-132.36"/>
<polygon fill="black" stroke="black" points="1219.95,-135.86 1230,-132.5 1220.05,-128.86 1219.95,-135.86"/>
</g>
<!-- DetectorSpatialResolution[SampleRun] -->
<g id="node5" class="node">
<title>DetectorSpatialResolution[SampleRun]</title>
<polygon fill="none" stroke="black" points="1158,-199 861,-199 861,-176 1158,-176 1158,-199"/>
<text text-anchor="middle" x="1009.5" y="-183.8" font-family="Times,serif" font-size="14.00">DetectorSpatialResolution[SampleRun]</text>
</g>
<!-- DetectorSpatialResolution[SampleRun]&#45;&gt;Reference -->
<g id="edge22" class="edge">
<title>DetectorSpatialResolution[SampleRun]:e&#45;&gt;Reference:w</title>
<path fill="none" stroke="black" d="M1158,-187.5C1223.39,-187.5 1242.23,-187.5 1302.89,-187.5"/>
<polygon fill="black" stroke="black" points="1303,-191 1313,-187.5 1303,-184 1303,-191"/>
</g>
<!-- Filename[ReferenceRun] -->
<g id="node6" class="node">
<title>Filename[ReferenceRun]</title>
<polygon fill="none" stroke="black" points="141,-135 31,-135 31,-114 141,-114 141,-135"/>
<text text-anchor="start" x="39" y="-121.4" font-family="Times,serif" font-size="12.00">[ReferenceRun]</text>
</g>
<!-- RawDetector[ReferenceRun] -->
<g id="node12" class="node">
<title>RawDetector[ReferenceRun]</title>
<polygon fill="none" stroke="black" points="404,-88 294,-88 294,-67 404,-67 404,-88"/>
<text text-anchor="start" x="302" y="-74.4" font-family="Times,serif" font-size="12.00">[ReferenceRun]</text>
</g>
<!-- Filename[ReferenceRun]&#45;&gt;RawDetector[ReferenceRun] -->
<g id="edge1" class="edge">
<title>Filename[ReferenceRun]:e&#45;&gt;RawDetector[ReferenceRun]:w</title>
<path fill="none" stroke="black" d="M142,-124.5C208.72,-124.5 221.5,-82.15 282.74,-77.85"/>
<polygon fill="black" stroke="black" points="283.13,-81.34 293,-77.5 282.89,-74.34 283.13,-81.34"/>
</g>
<!-- Filename[SampleRun] -->
<g id="node7" class="node">
<title>Filename[SampleRun]</title>
<polygon fill="none" stroke="black" points="133.5,-160 38.5,-160 38.5,-139 133.5,-139 133.5,-160"/>
<text text-anchor="start" x="46.5" y="-146.4" font-family="Times,serif" font-size="12.00">[SampleRun]</text>
</g>
<!-- RawDetector[SampleRun] -->
<g id="node14" class="node">
<title>RawDetector[SampleRun]</title>
<polygon fill="none" stroke="black" points="396.5,-113 301.5,-113 301.5,-92 396.5,-92 396.5,-113"/>
<text text-anchor="start" x="309.5" y="-99.4" font-family="Times,serif" font-size="12.00">[SampleRun]</text>
</g>
<!-- Filename[SampleRun]&#45;&gt;RawDetector[SampleRun] -->
<g id="edge3" class="edge">
<title>Filename[SampleRun]:e&#45;&gt;RawDetector[SampleRun]:w</title>
<path fill="none" stroke="black" d="M135,-149.5C207.68,-149.5 222.44,-106.8 289.68,-102.8"/>
<polygon fill="black" stroke="black" points="290.11,-106.29 300,-102.5 289.9,-99.29 290.11,-106.29"/>
</g>
<!-- MValue -->
<g id="node8" class="node">
<title>MValue</title>
<polygon fill="none" stroke="black" points="696,-117 626,-117 626,-94 696,-94 696,-117"/>
<text text-anchor="middle" x="661" y="-101.8" font-family="Times,serif" font-size="14.00">MValue</text>
</g>
<!-- MValue&#45;&gt;ReducedReference -->
<g id="edge8" class="edge">
<title>MValue:e&#45;&gt;ReducedReference:w</title>
<path fill="none" stroke="black" d="M697,-105.5C800.1,-105.5 825.37,-142.03 923.45,-144.38"/>
<polygon fill="black" stroke="black" points="923.46,-147.88 933.5,-144.5 923.54,-140.88 923.46,-147.88"/>
</g>
<!-- MValue&#45;&gt;Sample -->
<g id="edge29" class="edge">
<title>MValue:e&#45;&gt;Sample:w</title>
<path fill="none" stroke="black" d="M697,-105.5C902.05,-105.5 953.64,-106.77 1158,-123.5 1186.5,-125.83 1195.71,-131.11 1219.92,-132.27"/>
<polygon fill="black" stroke="black" points="1219.92,-135.77 1230,-132.5 1220.08,-128.77 1219.92,-135.77"/>
</g>
<!-- ProtonCurrent[ReferenceRun] -->
<g id="node9" class="node">
<title>ProtonCurrent[ReferenceRun]</title>
<polygon fill="none" stroke="black" points="404,-192 294,-192 294,-171 404,-171 404,-192"/>
<text text-anchor="start" x="302" y="-178.4" font-family="Times,serif" font-size="12.00">[ReferenceRun]</text>
</g>
<!-- ProtonCurrent[ReferenceRun]&#45;&gt;ReducibleData[ReferenceRun] -->
<g id="edge15" class="edge">
<title>ProtonCurrent[ReferenceRun]:e&#45;&gt;ReducibleData[ReferenceRun]:w</title>
<path fill="none" stroke="black" d="M405,-181.5C490.42,-181.5 514.27,-181.5 594.88,-181.5"/>
<polygon fill="black" stroke="black" points="595,-185 605,-181.5 595,-178 595,-185"/>
</g>
<!-- ProtonCurrent[SampleRun] -->
<g id="node10" class="node">
<title>ProtonCurrent[SampleRun]</title>
<polygon fill="none" stroke="black" points="396.5,-217 301.5,-217 301.5,-196 396.5,-196 396.5,-217"/>
<text text-anchor="start" x="309.5" y="-203.4" font-family="Times,serif" font-size="12.00">[SampleRun]</text>
</g>
<!-- ReducibleData[SampleRun] -->
<g id="node21" class="node">
<title>ReducibleData[SampleRun]</title>
<polygon fill="none" stroke="black" points="708.5,-217 613.5,-217 613.5,-196 708.5,-196 708.5,-217"/>
<text text-anchor="start" x="621.5" y="-203.4" font-family="Times,serif" font-size="12.00">[SampleRun]</text>
</g>
<!-- ProtonCurrent[SampleRun]&#45;&gt;ReducibleData[SampleRun] -->
<g id="edge18" class="edge">
<title>ProtonCurrent[SampleRun]:e&#45;&gt;ReducibleData[SampleRun]:w</title>
<path fill="none" stroke="black" d="M398,-206.5C489.67,-206.5 515.08,-206.5 601.96,-206.5"/>
<polygon fill="black" stroke="black" points="602,-210 612,-206.5 602,-203 602,-210"/>
</g>
<!-- QBins -->
<g id="node11" class="node">
<title>QBins</title>
<polygon fill="none" stroke="black" points="1416.5,-231 1357.5,-231 1357.5,-208 1416.5,-208 1416.5,-231"/>
<text text-anchor="middle" x="1387" y="-215.8" font-family="Times,serif" font-size="14.00">QBins</text>
</g>
<!-- ReflectivityOverQ -->
<g id="node24" class="node">
<title>ReflectivityOverQ</title>
<polygon fill="none" stroke="black" points="1780,-204 1616,-204 1616,-171 1780,-171 1780,-204"/>
<text text-anchor="start" x="1634.5" y="-189.8" font-family="Times,serif" font-size="14.00">ReflectivityOverQ</text>
<text text-anchor="start" x="1624" y="-178.2" font-family="Times,serif" font-size="11.00">via:</text>
<text text-anchor="start" x="1645" y="-178.2" font-family="Times,serif" font-style="italic" font-size="11.00">reduce_sample_over_q</text>
</g>
<!-- QBins&#45;&gt;ReflectivityOverQ -->
<g id="edge25" class="edge">
<title>QBins:e&#45;&gt;ReflectivityOverQ:w</title>
<path fill="none" stroke="black" d="M1418,-219.5C1474.4,-219.5 1488.47,-214.33 1544,-204.5 1572.71,-199.42 1581.26,-189.98 1605.76,-187.91"/>
<polygon fill="black" stroke="black" points="1606.15,-191.4 1616,-187.5 1605.87,-184.4 1606.15,-191.4"/>
</g>
<!-- RawDetector[ReferenceRun]&#45;&gt;ReducibleData[ReferenceRun] -->
<g id="edge10" class="edge">
<title>RawDetector[ReferenceRun]:e&#45;&gt;ReducibleData[ReferenceRun]:w</title>
<path fill="none" stroke="black" d="M405,-77.5C430.77,-77.5 438.63,-79.71 461,-92.5 495.65,-112.32 490.89,-134.78 525,-155.5 553.83,-173.01 565.33,-180.09 594.77,-181.31"/>
<polygon fill="black" stroke="black" points="594.94,-184.81 605,-181.5 595.07,-177.81 594.94,-184.81"/>
</g>
<!-- SampleRotationOffset[ReferenceRun] -->
<g id="node13" class="node">
<title>SampleRotationOffset[ReferenceRun]</title>
<polygon fill="none" stroke="black" points="141,-41 31,-41 31,-20 141,-20 141,-41"/>
<text text-anchor="start" x="39" y="-27.4" font-family="Times,serif" font-size="12.00">[ReferenceRun]</text>
</g>
<!-- SampleRotationOffset[ReferenceRun]&#45;&gt;RawDetector[ReferenceRun] -->
<g id="edge2" class="edge">
<title>SampleRotationOffset[ReferenceRun]:e&#45;&gt;RawDetector[ReferenceRun]:w</title>
<path fill="none" stroke="black" d="M142,-30.5C208.72,-30.5 221.5,-72.85 282.74,-77.15"/>
<polygon fill="black" stroke="black" points="282.89,-80.66 293,-77.5 283.13,-73.66 282.89,-80.66"/>
</g>
<!-- RawDetector[SampleRun]&#45;&gt;ReducibleData[SampleRun] -->
<g id="edge17" class="edge">
<title>RawDetector[SampleRun]:e&#45;&gt;ReducibleData[SampleRun]:w</title>
<path fill="none" stroke="black" d="M398,-102.5C467.18,-102.5 460.96,-166.32 525,-192.5 557.85,-205.93 570.45,-206.52 601.67,-206.51"/>
<polygon fill="black" stroke="black" points="602,-210.01 612,-206.5 602,-203.01 602,-210.01"/>
</g>
<!-- SampleRotationOffset[SampleRun] -->
<g id="node15" class="node">
<title>SampleRotationOffset[SampleRun]</title>
<polygon fill="none" stroke="black" points="133.5,-66 38.5,-66 38.5,-45 133.5,-45 133.5,-66"/>
<text text-anchor="start" x="46.5" y="-52.4" font-family="Times,serif" font-size="12.00">[SampleRun]</text>
</g>
<!-- SampleRotationOffset[SampleRun]&#45;&gt;RawDetector[SampleRun] -->
<g id="edge4" class="edge">
<title>SampleRotationOffset[SampleRun]:e&#45;&gt;RawDetector[SampleRun]:w</title>
<path fill="none" stroke="black" d="M135,-55.5C207.68,-55.5 222.44,-98.2 289.68,-102.2"/>
<polygon fill="black" stroke="black" points="289.9,-105.71 300,-102.5 290.11,-98.71 289.9,-105.71"/>
</g>
<!-- ReducibleData[ReferenceRun]&#45;&gt;ReducedReference -->
<g id="edge5" class="edge">
<title>ReducibleData[ReferenceRun]:e&#45;&gt;ReducedReference:w</title>
<path fill="none" stroke="black" d="M717,-181.5C811.19,-181.5 834.29,-147.06 923.48,-144.63"/>
<polygon fill="black" stroke="black" points="923.55,-148.13 933.5,-144.5 923.45,-141.13 923.55,-148.13"/>
</g>
<!-- ReducedReference&#45;&gt;Reference -->
<g id="edge19" class="edge">
<title>ReducedReference:e&#45;&gt;Reference:w</title>
<path fill="none" stroke="black" d="M1085.5,-144.5C1184.88,-144.5 1208.52,-184.61 1302.73,-187.35"/>
<polygon fill="black" stroke="black" points="1302.95,-190.86 1313,-187.5 1303.05,-183.86 1302.95,-190.86"/>
</g>
<!-- ReducedReference&#45;&gt;Sample -->
<g id="edge27" class="edge">
<title>ReducedReference:e&#45;&gt;Sample:w</title>
<path fill="none" stroke="black" d="M1085.5,-144.5C1146.42,-144.5 1163.7,-133.78 1219.85,-132.6"/>
<polygon fill="black" stroke="black" points="1220.04,-136.1 1230,-132.5 1219.96,-129.1 1220.04,-136.1"/>
</g>
<!-- WavelengthBins -->
<g id="node18" class="node">
<title>WavelengthBins</title>
<polygon fill="none" stroke="black" points="415,-23 283,-23 283,0 415,0 415,-23"/>
<text text-anchor="middle" x="349" y="-7.8" font-family="Times,serif" font-size="14.00">WavelengthBins</text>
</g>
<!-- WavelengthBins&#45;&gt;ReducibleData[ReferenceRun] -->
<g id="edge14" class="edge">
<title>WavelengthBins:e&#45;&gt;ReducibleData[ReferenceRun]:w</title>
<path fill="none" stroke="black" stroke-width="2" d="M416,-11.5C437.08,-11.5 445.1,-12.66 461,-26.5 509.29,-68.51 476.56,-113.67 525,-155.5 525.19,-155.66 525.37,-155.82 525.56,-155.98"/>
<polygon fill="black" stroke="black" stroke-width="2" points="523.58,-158.89 533.54,-162.5 528.01,-153.47 523.58,-158.89"/>
</g>
<!-- WavelengthBins&#45;&gt;ReducedReference -->
<g id="edge6" class="edge">
<title>WavelengthBins:e&#45;&gt;ReducedReference:w</title>
<path fill="none" stroke="black" d="M416,-11.5C437.08,-11.5 444.85,-12.95 461,-26.5 506.72,-64.83 473.73,-113.98 525,-144.5 561.79,-166.4 852.31,-146.98 923.21,-144.71"/>
<polygon fill="black" stroke="black" points="923.57,-148.2 933.5,-144.5 923.43,-141.21 923.57,-148.2"/>
</g>
<!-- YIndexLimits -->
<g id="node19" class="node">
<title>YIndexLimits</title>
<polygon fill="none" stroke="black" points="404,-50 294,-50 294,-27 404,-27 404,-50"/>
<text text-anchor="middle" x="349" y="-34.8" font-family="Times,serif" font-size="14.00">YIndexLimits</text>
</g>
<!-- YIndexLimits&#45;&gt;ReducibleData[ReferenceRun] -->
<g id="edge11" class="edge">
<title>YIndexLimits:e&#45;&gt;ReducibleData[ReferenceRun]:w</title>
<path fill="none" stroke="black" stroke-width="2" d="M405,-38.5C431.28,-38.5 440.23,-41.39 461,-57.5 502.11,-89.38 483.69,-123.88 525,-155.5 525.42,-155.82 525.84,-156.14 526.25,-156.45"/>
<polygon fill="black" stroke="black" stroke-width="2" points="524.37,-159.42 534.51,-162.5 528.51,-153.77 524.37,-159.42"/>
</g>
<!-- ZIndexLimits -->
<g id="node20" class="node">
<title>ZIndexLimits</title>
<polygon fill="none" stroke="black" points="404.5,-307 293.5,-307 293.5,-284 404.5,-284 404.5,-307"/>
<text text-anchor="middle" x="349" y="-291.8" font-family="Times,serif" font-size="14.00">ZIndexLimits</text>
</g>
<!-- ZIndexLimits&#45;&gt;ReducibleData[ReferenceRun] -->
<g id="edge12" class="edge">
<title>ZIndexLimits:e&#45;&gt;ReducibleData[ReferenceRun]:w</title>
<path fill="none" stroke="black" stroke-width="2" d="M405,-295.5C430.77,-295.5 439.6,-294.85 461,-280.5 496.94,-256.4 487.05,-226.28 516.59,-202.42"/>
<polygon fill="black" stroke="black" stroke-width="2" points="518.84,-205.12 525,-196.5 514.81,-199.4 518.84,-205.12"/>
</g>
<!-- ReducibleData[SampleRun]&#45;&gt;Reference -->
<g id="edge20" class="edge">
<title>ReducibleData[SampleRun]:e&#45;&gt;Reference:w</title>
<path fill="none" stroke="black" d="M710,-206.5C909.14,-206.5 959.08,-208.75 1158,-199.5 1223.52,-196.45 1242.06,-188.38 1302.86,-187.57"/>
<polygon fill="black" stroke="black" points="1303.02,-191.07 1313,-187.5 1302.98,-184.07 1303.02,-191.07"/>
</g>
<!-- ReducibleData[SampleRun]&#45;&gt;Sample -->
<g id="edge26" class="edge">
<title>ReducibleData[SampleRun]:e&#45;&gt;Sample:w</title>
<path fill="none" stroke="black" d="M710,-206.5C749.16,-206.5 758.69,-200.65 797,-192.5 825.79,-186.38 831.91,-180 861,-175.5 991.6,-155.31 1028.9,-189.69 1158,-161.5 1188.02,-154.94 1194.31,-137.06 1219.7,-133.23"/>
<polygon fill="black" stroke="black" points="1220.27,-136.7 1230,-132.5 1219.78,-129.72 1220.27,-136.7"/>
</g>
<!-- Reference&#45;&gt;ReflectivityOverQ -->
<g id="edge24" class="edge">
<title>Reference:e&#45;&gt;ReflectivityOverQ:w</title>
<path fill="none" stroke="black" d="M1461,-187.5C1526.39,-187.5 1545.23,-187.5 1605.89,-187.5"/>
<polygon fill="black" stroke="black" points="1606,-191 1616,-187.5 1606,-184 1606,-191"/>
</g>
<!-- Sample&#45;&gt;ReflectivityOverQ -->
<g id="edge23" class="edge">
<title>Sample:e&#45;&gt;ReflectivityOverQ:w</title>
<path fill="none" stroke="black" d="M1544,-132.5C1580.49,-132.5 1576.9,-177.67 1605.88,-186.14"/>
<polygon fill="black" stroke="black" points="1605.62,-189.64 1616,-187.5 1606.56,-182.7 1605.62,-189.64"/>
</g>
</g>
</svg>
