<?xml version="1.0" encoding="UTF-8" standalone="no"?>
<!DOCTYPE svg PUBLIC "-//W3C//DTD SVG 1.1//EN"
 "http://www.w3.org/Graphics/SVG/1.1/DTD/svg11.dtd">
<!-- Generated by graphviz version 2.43.0 (0)
 -->
<!-- Title: %3 Pages: 1 -->
<svg width="2033pt" height="486pt"
 viewBox="0.00 0.00 2033.00 486.35" xmlns="http://www.w3.org/2000/svg" xmlns:xlink="http://www.w3.org/1999/xlink">
<g id="graph0" class="graph" transform="scale(1 1) rotate(0) translate(4 482.35)">
<title>%3</title>
<polygon fill="white" stroke="transparent" points="-4,4 -4,-482.35 2029,-482.35 2029,4 -4,4"/>
<g id="clust7" class="cluster">
<title>cluster_Filename</title>
<polygon fill="#f0f0ff" stroke="#f0f0ff" points="23,-349.5 23,-435.5 149,-435.5 149,-349.5 23,-349.5"/>
<text text-anchor="middle" x="86" y="-420.3" font-family="Times,serif" font-size="14.00">Filename</text>
</g>
<g id="clust21" class="cluster">
<title>cluster_ProtonCurrent</title>
<polygon fill="#f0f0ff" stroke="#f0f0ff" points="286,-31.5 286,-117.5 412,-117.5 412,-31.5 286,-31.5"/>
<text text-anchor="middle" x="349" y="-102.3" font-family="Times,serif" font-size="14.00">ProtonCurrent</text>
</g>
<g id="clust23" class="cluster">
<title>cluster_RawDetector</title>
<polygon fill="#f0f0ff" stroke="#f0f0ff" points="275,-157.5 275,-253.5 424,-253.5 424,-157.5 275,-157.5"/>
<text text-anchor="start" x="302.5" y="-239.3" font-family="Times,serif" font-size="14.00">RawDetector</text>
<text text-anchor="start" x="283" y="-227.7" font-family="Times,serif" font-size="11.00">via:</text>
<text text-anchor="start" x="304" y="-227.7" font-family="Times,serif" font-style="italic" font-size="11.00">load_mcstas_events</text>
</g>
<g id="clust25" class="cluster">
<title>cluster_ReducibleData</title>
<polygon fill="#f0f0ff" stroke="#f0f0ff" points="525,-174.5 525,-270.5 797,-270.5 797,-174.5 525,-174.5"/>
<text text-anchor="start" x="608.5" y="-256.3" font-family="Times,serif" font-size="14.00">ReducibleData</text>
<text text-anchor="start" x="533" y="-244.7" font-family="Times,serif" font-size="11.00">via:</text>
<text text-anchor="start" x="554" y="-244.7" font-family="Times,serif" font-style="italic" font-size="11.00">add_coords_masks_and_apply_corrections</text>
</g>
<g id="clust29" class="cluster">
<title>cluster_SampleRotationOffset</title>
<polygon fill="#f0f0ff" stroke="#f0f0ff" points="0,-157.5 0,-243.5 173,-243.5 173,-157.5 0,-157.5"/>
<text text-anchor="middle" x="86.5" y="-228.3" font-family="Times,serif" font-size="14.00">SampleRotationOffset</text>
</g>
<!-- Alpha -->
<g id="node1" class="node">
<title>Alpha</title>
<polygon fill="none" stroke="black" points="689.5,-156 632.5,-156 632.5,-133 689.5,-133 689.5,-156"/>
<text text-anchor="middle" x="661" y="-140.8" font-family="Times,serif" font-size="14.00">Alpha</text>
</g>
<!-- ReducedReference -->
<g id="node32" class="node">
<title>ReducedReference</title>
<polygon fill="none" stroke="black" points="1084.5,-174 934.5,-174 934.5,-141 1084.5,-141 1084.5,-174"/>
<text text-anchor="start" x="942.5" y="-159.8" font-family="Times,serif" font-size="14.00">ReducedReference</text>
<text text-anchor="start" x="950" y="-148.2" font-family="Times,serif" font-size="11.00">via:</text>
<text text-anchor="start" x="971" y="-148.2" font-family="Times,serif" font-style="italic" font-size="11.00">reduce_reference</text>
</g>
<!-- Alpha&#45;&gt;ReducedReference -->
<g id="edge27" class="edge">
<title>Alpha:e&#45;&gt;ReducedReference:w</title>
<path fill="none" stroke="black" d="M691,-144.5C795.45,-144.5 823.77,-156.68 923.31,-157.46"/>
<polygon fill="black" stroke="black" points="923.49,-160.96 933.5,-157.5 923.51,-153.96 923.49,-160.96"/>
</g>
<!-- Sample -->
<g id="node37" class="node">
<title>Sample</title>
<polygon fill="none" stroke="black" points="1544,-163 1230,-163 1230,-130 1544,-130 1544,-163"/>
<text text-anchor="start" x="1360" y="-148.8" font-family="Times,serif" font-size="14.00">Sample</text>
<text text-anchor="start" x="1238" y="-137.2" font-family="Times,serif" font-size="11.00">via:</text>
<text text-anchor="start" x="1259" y="-137.2" font-family="Times,serif" font-style="italic" font-size="11.00">mask_events_where_supermirror_does_not_cover</text>
</g>
<!-- Alpha&#45;&gt;Sample -->
<g id="edge48" class="edge">
<title>Alpha:e&#45;&gt;Sample:w</title>
<path fill="none" stroke="black" d="M691,-144.5C766.58,-144.5 785.43,-141.39 861,-140.5 992.99,-138.95 1026.11,-135.01 1158,-140.5 1186.45,-141.68 1195.81,-145.49 1219.95,-146.33"/>
<polygon fill="black" stroke="black" points="1219.94,-149.83 1230,-146.5 1220.06,-142.83 1219.94,-149.83"/>
</g>
<!-- BeamDivergenceLimits -->
<g id="node2" class="node">
<title>BeamDivergenceLimits</title>
<polygon fill="none" stroke="black" points="440.5,-149 257.5,-149 257.5,-126 440.5,-126 440.5,-149"/>
<text text-anchor="middle" x="349" y="-133.8" font-family="Times,serif" font-size="14.00">BeamDivergenceLimits</text>
</g>
<!-- ReducibleData[ReferenceRun] -->
<g id="node31" class="node">
<title>ReducibleData[ReferenceRun]</title>
<polygon fill="none" stroke="black" points="716,-229 606,-229 606,-208 716,-208 716,-229"/>
<text text-anchor="start" x="614" y="-215.4" font-family="Times,serif" font-size="12.00">[ReferenceRun]</text>
</g>
<!-- BeamDivergenceLimits&#45;&gt;ReducibleData[ReferenceRun] -->
<g id="edge31" class="edge">
<title>BeamDivergenceLimits:e&#45;&gt;ReducibleData[ReferenceRun]:w</title>
<path fill="none" stroke="black" stroke-width="2" d="M442,-137.5C485.89,-137.5 482.65,-178.13 516.18,-199.71"/>
<polygon fill="black" stroke="black" stroke-width="2" points="514.54,-202.8 525,-204.5 517.89,-196.65 514.54,-202.8"/>
</g>
<!-- Beamline[NewType] -->
<g id="node3" class="node">
<title>Beamline[NewType]</title>
<polygon fill="none" stroke="red" stroke-dasharray="5,2" points="1090,-312 929,-312 929,-289 1090,-289 1090,-312"/>
<text text-anchor="middle" x="1009.5" y="-296.8" font-family="Times,serif" font-size="14.00" fill="red">Beamline[NewType]</text>
</g>
<!-- OrsoExperiment -->
<g id="node16" class="node">
<title>OrsoExperiment</title>
<polygon fill="none" stroke="black" points="1471,-344 1303,-344 1303,-311 1471,-311 1471,-344"/>
<text text-anchor="start" x="1328" y="-329.8" font-family="Times,serif" font-size="14.00">OrsoExperiment</text>
<text text-anchor="start" x="1311" y="-318.2" font-family="Times,serif" font-size="11.00">via:</text>
<text text-anchor="start" x="1332" y="-318.2" font-family="Times,serif" font-style="italic" font-size="11.00">parse_orso_experiment</text>
</g>
<!-- Beamline[NewType]&#45;&gt;OrsoExperiment -->
<g id="edge5" class="edge">
<title>Beamline[NewType]:e&#45;&gt;OrsoExperiment:w</title>
<path fill="none" stroke="black" d="M1091.5,-300.5C1182.32,-300.5 1205.96,-325.53 1291.79,-327.39"/>
<polygon fill="black" stroke="black" points="1291.96,-330.89 1302,-327.5 1292.04,-323.89 1291.96,-330.89"/>
</g>
<!-- CoordTransformationGraph -->
<g id="node4" class="node">
<title>CoordTransformationGraph</title>
<polygon fill="none" stroke="black" points="461,-349 237,-349 237,-316 461,-316 461,-349"/>
<text text-anchor="start" x="250" y="-334.8" font-family="Times,serif" font-size="14.00">CoordTransformationGraph</text>
<text text-anchor="start" x="245" y="-323.2" font-family="Times,serif" font-size="11.00">via:</text>
<text text-anchor="start" x="266" y="-323.2" font-family="Times,serif" font-style="italic" font-size="11.00">coordinate_transformation_graph</text>
</g>
<!-- CoordTransformationGraph&#45;&gt;ReducibleData[ReferenceRun] -->
<g id="edge34" class="edge">
<title>CoordTransformationGraph:e&#45;&gt;ReducibleData[ReferenceRun]:w</title>
<path fill="none" stroke="black" stroke-width="2" d="M461,-332.5C498.5,-332.5 495.67,-300.87 525,-277.5 525.09,-277.43 525.18,-277.36 525.27,-277.28"/>
<polygon fill="black" stroke="black" stroke-width="2" points="527.82,-279.71 533.05,-270.5 523.22,-274.43 527.82,-279.71"/>
</g>
<!-- Reference -->
<g id="node36" class="node">
<title>Reference</title>
<polygon fill="none" stroke="black" points="1459.5,-227 1314.5,-227 1314.5,-194 1459.5,-194 1459.5,-227"/>
<text text-anchor="start" x="1350.5" y="-212.8" font-family="Times,serif" font-size="14.00">Reference</text>
<text text-anchor="start" x="1322.5" y="-201.2" font-family="Times,serif" font-size="11.00">via:</text>
<text text-anchor="start" x="1343.5" y="-201.2" font-family="Times,serif" font-style="italic" font-size="11.00">evaluate_reference</text>
</g>
<!-- CoordTransformationGraph&#45;&gt;Reference -->
<g id="edge39" class="edge">
<title>CoordTransformationGraph:e&#45;&gt;Reference:w</title>
<path fill="none" stroke="black" d="M461,-332.5C649,-332.5 1105.77,-214.63 1302.95,-210.61"/>
<polygon fill="black" stroke="black" points="1303.04,-214.11 1313,-210.5 1302.96,-207.11 1303.04,-214.11"/>
</g>
<!-- CriticalEdge -->
<g id="node5" class="node">
<title>CriticalEdge</title>
<polygon fill="none" stroke="black" points="714,-129 608,-129 608,-106 714,-106 714,-129"/>
<text text-anchor="middle" x="661" y="-113.8" font-family="Times,serif" font-size="14.00">CriticalEdge</text>
</g>
<!-- CriticalEdge&#45;&gt;ReducedReference -->
<g id="edge25" class="edge">
<title>CriticalEdge:e&#45;&gt;ReducedReference:w</title>
<path fill="none" stroke="black" d="M715,-117.5C810.25,-117.5 833.2,-154.74 923.37,-157.36"/>
<polygon fill="black" stroke="black" points="923.45,-160.86 933.5,-157.5 923.55,-153.86 923.45,-160.86"/>
</g>
<!-- CriticalEdge&#45;&gt;Sample -->
<g id="edge46" class="edge">
<title>CriticalEdge:e&#45;&gt;Sample:w</title>
<path fill="none" stroke="black" d="M715,-117.5C912.09,-117.5 961.62,-120.82 1158,-137.5 1186.49,-139.92 1195.71,-145.12 1219.92,-146.27"/>
<polygon fill="black" stroke="black" points="1219.92,-149.77 1230,-146.5 1220.08,-142.78 1219.92,-149.77"/>
</g>
<!-- DetectorSpatialResolution[SampleRun] -->
<g id="node6" class="node">
<title>DetectorSpatialResolution[SampleRun]</title>
<polygon fill="none" stroke="black" points="1158,-212 861,-212 861,-189 1158,-189 1158,-212"/>
<text text-anchor="middle" x="1009.5" y="-196.8" font-family="Times,serif" font-size="14.00">DetectorSpatialResolution[SampleRun]</text>
</g>
<!-- DetectorSpatialResolution[SampleRun]&#45;&gt;Reference -->
<g id="edge40" class="edge">
<title>DetectorSpatialResolution[SampleRun]:e&#45;&gt;Reference:w</title>
<path fill="none" stroke="black" d="M1158,-200.5C1223.53,-200.5 1242.11,-209.51 1302.87,-210.43"/>
<polygon fill="black" stroke="black" points="1302.97,-213.93 1313,-210.5 1303.03,-206.93 1302.97,-213.93"/>
</g>
<!-- Filename[ReferenceRun] -->
<g id="node7" class="node">
<title>Filename[ReferenceRun]</title>
<polygon fill="none" stroke="black" points="141,-379 31,-379 31,-358 141,-358 141,-379"/>
<text text-anchor="start" x="39" y="-365.4" font-family="Times,serif" font-size="12.00">[ReferenceRun]</text>
</g>
<!-- OrsoMeasurement -->
<g id="node17" class="node">
<title>OrsoMeasurement</title>
<polygon fill="none" stroke="black" points="1476,-400 1298,-400 1298,-367 1476,-367 1476,-400"/>
<text text-anchor="start" x="1320.5" y="-385.8" font-family="Times,serif" font-size="14.00">OrsoMeasurement</text>
<text text-anchor="start" x="1306" y="-374.2" font-family="Times,serif" font-size="11.00">via:</text>
<text text-anchor="start" x="1327" y="-374.2" font-family="Times,serif" font-style="italic" font-size="11.00">build_orso_measurement</text>
</g>
<!-- Filename[ReferenceRun]&#45;&gt;OrsoMeasurement -->
<g id="edge13" class="edge">
<title>Filename[ReferenceRun]:e&#45;&gt;OrsoMeasurement:w</title>
<path fill="none" stroke="black" d="M142,-368.5C184.97,-368.5 194.21,-382.48 237,-386.5 336.12,-395.81 361.44,-386.68 461,-386.5 829.2,-385.84 923.74,-383.54 1287,-383.5"/>
<polygon fill="black" stroke="black" points="1287,-387 1297,-383.5 1287,-380 1287,-387"/>
</g>
<!-- RawDetector[ReferenceRun] -->
<g id="node27" class="node">
<title>RawDetector[ReferenceRun]</title>
<polygon fill="none" stroke="black" points="404,-187 294,-187 294,-166 404,-166 404,-187"/>
<text text-anchor="start" x="302" y="-173.4" font-family="Times,serif" font-size="12.00">[ReferenceRun]</text>
</g>
<!-- Filename[ReferenceRun]&#45;&gt;RawDetector[ReferenceRun] -->
<g id="edge19" class="edge">
<title>Filename[ReferenceRun]:e&#45;&gt;RawDetector[ReferenceRun]:w</title>
<path fill="none" stroke="black" d="M142,-368.5C231.67,-368.5 166.31,-245.68 237,-190.5 254.3,-177 264.21,-176.35 282.77,-176.45"/>
<polygon fill="black" stroke="black" points="282.98,-179.95 293,-176.5 283.02,-172.95 282.98,-179.95"/>
</g>
<!-- Filename[SampleRun] -->
<g id="node8" class="node">
<title>Filename[SampleRun]</title>
<polygon fill="none" stroke="black" points="133.5,-404 38.5,-404 38.5,-383 133.5,-383 133.5,-404"/>
<text text-anchor="start" x="46.5" y="-390.4" font-family="Times,serif" font-size="12.00">[SampleRun]</text>
</g>
<!-- OrsoOwner -->
<g id="node13" class="node">
<title>OrsoOwner</title>
<polygon fill="none" stroke="black" points="419,-471 279,-471 279,-438 419,-438 419,-471"/>
<text text-anchor="start" x="308" y="-456.8" font-family="Times,serif" font-size="14.00">OrsoOwner</text>
<text text-anchor="start" x="287" y="-445.2" font-family="Times,serif" font-size="11.00">via:</text>
<text text-anchor="start" x="308" y="-445.2" font-family="Times,serif" font-style="italic" font-size="11.00">parse_orso_owner</text>
</g>
<!-- Filename[SampleRun]&#45;&gt;OrsoOwner -->
<g id="edge15" class="edge">
<title>Filename[SampleRun]:e&#45;&gt;OrsoOwner:w</title>
<path fill="none" stroke="black" d="M135,-393.5C200.59,-393.5 208.25,-448.46 267.95,-454.04"/>
<polygon fill="black" stroke="black" points="267.85,-457.54 278,-454.5 268.17,-450.55 267.85,-457.54"/>
</g>
<!-- OrsoSample -->
<g id="node15" class="node">
<title>OrsoSample</title>
<polygon fill="none" stroke="black" points="421.5,-434 276.5,-434 276.5,-401 421.5,-401 421.5,-434"/>
<text text-anchor="start" x="305" y="-419.8" font-family="Times,serif" font-size="14.00">OrsoSample</text>
<text text-anchor="start" x="284.5" y="-408.2" font-family="Times,serif" font-size="11.00">via:</text>
<text text-anchor="start" x="305.5" y="-408.2" font-family="Times,serif" font-style="italic" font-size="11.00">parse_orso_sample</text>
</g>
<!-- Filename[SampleRun]&#45;&gt;OrsoSample -->
<g id="edge17" class="edge">
<title>Filename[SampleRun]:e&#45;&gt;OrsoSample:w</title>
<path fill="none" stroke="black" d="M135,-393.5C194.55,-393.5 210.16,-414.86 264.73,-417.28"/>
<polygon fill="black" stroke="black" points="264.93,-420.78 275,-417.5 265.08,-413.78 264.93,-420.78"/>
</g>
<!-- OrsoSampleFilenames -->
<g id="node23" class="node">
<title>OrsoSampleFilenames</title>
<polygon fill="none" stroke="black" points="437.5,-386 260.5,-386 260.5,-353 437.5,-353 437.5,-386"/>
<text text-anchor="start" x="268.5" y="-371.8" font-family="Times,serif" font-size="14.00">OrsoSampleFilenames</text>
<text text-anchor="start" x="296" y="-360.2" font-family="Times,serif" font-size="11.00">via:</text>
<text text-anchor="start" x="317" y="-360.2" font-family="Times,serif" font-style="italic" font-size="11.00">orso_data_files</text>
</g>
<!-- Filename[SampleRun]&#45;&gt;OrsoSampleFilenames -->
<g id="edge18" class="edge">
<title>Filename[SampleRun]:e&#45;&gt;OrsoSampleFilenames:w</title>
<path fill="none" stroke="black" d="M135,-393.5C188.03,-393.5 201.77,-372.41 249.9,-369.77"/>
<polygon fill="black" stroke="black" points="250.1,-373.27 260,-369.5 249.91,-366.27 250.1,-373.27"/>
</g>
<!-- RawDetector[SampleRun] -->
<g id="node29" class="node">
<title>RawDetector[SampleRun]</title>
<polygon fill="none" stroke="black" points="396.5,-212 301.5,-212 301.5,-191 396.5,-191 396.5,-212"/>
<text text-anchor="start" x="309.5" y="-198.4" font-family="Times,serif" font-size="12.00">[SampleRun]</text>
</g>
<!-- Filename[SampleRun]&#45;&gt;RawDetector[SampleRun] -->
<g id="edge21" class="edge">
<title>Filename[SampleRun]:e&#45;&gt;RawDetector[SampleRun]:w</title>
<path fill="none" stroke="black" d="M135,-393.5C244,-393.5 191.07,-213.31 289.95,-202.05"/>
<polygon fill="black" stroke="black" points="290.21,-205.54 300,-201.5 289.82,-198.55 290.21,-205.54"/>
</g>
<!-- MValue -->
<g id="node9" class="node">
<title>MValue</title>
<polygon fill="none" stroke="black" points="696,-102 626,-102 626,-79 696,-79 696,-102"/>
<text text-anchor="middle" x="661" y="-86.8" font-family="Times,serif" font-size="14.00">MValue</text>
</g>
<!-- MValue&#45;&gt;ReducedReference -->
<g id="edge26" class="edge">
<title>MValue:e&#45;&gt;ReducedReference:w</title>
<path fill="none" stroke="black" d="M697,-90.5C741.94,-90.5 753.53,-94.1 797,-105.5 856.36,-121.07 867.46,-153.67 923.33,-157.19"/>
<polygon fill="black" stroke="black" points="923.4,-160.69 933.5,-157.5 923.61,-153.7 923.4,-160.69"/>
</g>
<!-- MValue&#45;&gt;Sample -->
<g id="edge47" class="edge">
<title>MValue:e&#45;&gt;Sample:w</title>
<path fill="none" stroke="black" d="M697,-90.5C902.27,-90.5 957.49,-74.55 1158,-118.5 1187.87,-125.05 1194.41,-142.14 1219.74,-145.8"/>
<polygon fill="black" stroke="black" points="1219.79,-149.31 1230,-146.5 1220.26,-142.33 1219.79,-149.31"/>
</g>
<!-- Measurement[NewType] -->
<g id="node10" class="node">
<title>Measurement[NewType]</title>
<polygon fill="none" stroke="red" stroke-dasharray="5,2" points="1106,-339 913,-339 913,-316 1106,-316 1106,-339"/>
<text text-anchor="middle" x="1009.5" y="-323.8" font-family="Times,serif" font-size="14.00" fill="red">Measurement[NewType]</text>
</g>
<!-- Measurement[NewType]&#45;&gt;OrsoExperiment -->
<g id="edge6" class="edge">
<title>Measurement[NewType]:e&#45;&gt;OrsoExperiment:w</title>
<path fill="none" stroke="black" d="M1107.5,-327.5C1190.4,-327.5 1213.67,-327.5 1291.68,-327.5"/>
<polygon fill="black" stroke="black" points="1292,-331 1302,-327.5 1292,-324 1292,-331"/>
</g>
<!-- OrsoCorrectionList -->
<g id="node11" class="node">
<title>OrsoCorrectionList</title>
<polygon fill="none" stroke="black" points="1782,-232 1618,-232 1618,-199 1782,-199 1782,-232"/>
<text text-anchor="start" x="1631.5" y="-217.8" font-family="Times,serif" font-size="14.00">OrsoCorrectionList</text>
<text text-anchor="start" x="1626" y="-206.2" font-family="Times,serif" font-size="11.00">via:</text>
<text text-anchor="start" x="1647" y="-206.2" font-family="Times,serif" font-style="italic" font-size="11.00">orso_estia_corrections</text>
</g>
<!-- OrsoIofQDataset -->
<g id="node21" class="node">
<title>OrsoIofQDataset</title>
<polygon fill="none" stroke="black" points="2025,-213 1856,-213 1856,-180 2025,-180 2025,-213"/>
<text text-anchor="start" x="1880.5" y="-198.8" font-family="Times,serif" font-size="14.00">OrsoIofQDataset</text>
<text text-anchor="start" x="1864" y="-187.2" font-family="Times,serif" font-size="11.00">via:</text>
<text text-anchor="start" x="1885" y="-187.2" font-family="Times,serif" font-style="italic" font-size="11.00">build_orso_iofq_dataset</text>
</g>
<!-- OrsoCorrectionList&#45;&gt;OrsoIofQDataset -->
<g id="edge11" class="edge">
<title>OrsoCorrectionList:e&#45;&gt;OrsoIofQDataset:w</title>
<path fill="none" stroke="black" d="M1783,-215.5C1812.86,-215.5 1820.84,-200.43 1845.92,-197.13"/>
<polygon fill="black" stroke="black" points="1846.24,-200.62 1856,-196.5 1845.8,-193.63 1846.24,-200.62"/>
</g>
<!-- OrsoCreator -->
<g id="node12" class="node">
<title>OrsoCreator</title>
<polygon fill="none" stroke="red" stroke-dasharray="5,2" points="1439.5,-126 1334.5,-126 1334.5,-103 1439.5,-103 1439.5,-126"/>
<text text-anchor="middle" x="1387" y="-110.8" font-family="Times,serif" font-size="14.00" fill="red">OrsoCreator</text>
</g>
<!-- OrsoReduction -->
<g id="node22" class="node">
<title>OrsoReduction</title>
<polygon fill="none" stroke="black" points="1777,-145 1623,-145 1623,-112 1777,-112 1777,-145"/>
<text text-anchor="start" x="1647" y="-130.8" font-family="Times,serif" font-size="14.00">OrsoReduction</text>
<text text-anchor="start" x="1631" y="-119.2" font-family="Times,serif" font-size="11.00">via:</text>
<text text-anchor="start" x="1652" y="-119.2" font-family="Times,serif" font-style="italic" font-size="11.00">build_orso_reduction</text>
</g>
<!-- OrsoCreator&#45;&gt;OrsoReduction -->
<g id="edge16" class="edge">
<title>OrsoCreator:e&#45;&gt;OrsoReduction:w</title>
<path fill="none" stroke="black" d="M1441,-114.5C1518.22,-114.5 1539.52,-127.32 1611.93,-128.42"/>
<polygon fill="black" stroke="black" points="1611.97,-131.93 1622,-128.5 1612.03,-124.93 1611.97,-131.93"/>
</g>
<!-- OrsoDataSource -->
<g id="node14" class="node">
<title>OrsoDataSource</title>
<polygon fill="none" stroke="black" points="1784,-400 1616,-400 1616,-367 1784,-367 1784,-400"/>
<text text-anchor="start" x="1641" y="-385.8" font-family="Times,serif" font-size="14.00">OrsoDataSource</text>
<text text-anchor="start" x="1624" y="-374.2" font-family="Times,serif" font-size="11.00">via:</text>
<text text-anchor="start" x="1645" y="-374.2" font-family="Times,serif" font-style="italic" font-size="11.00">build_orso_data_source</text>
</g>
<!-- OrsoOwner&#45;&gt;OrsoDataSource -->
<g id="edge1" class="edge">
<title>OrsoOwner:e&#45;&gt;OrsoDataSource:w</title>
<path fill="none" stroke="black" d="M420,-454.5C919.86,-454.5 1056.91,-527.73 1544,-415.5 1574.53,-408.47 1580.03,-388.41 1605.92,-384.26"/>
<polygon fill="black" stroke="black" points="1606.29,-387.74 1616,-383.5 1605.77,-380.76 1606.29,-387.74"/>
</g>
<!-- OrsoDataSource&#45;&gt;OrsoIofQDataset -->
<g id="edge9" class="edge">
<title>OrsoDataSource:e&#45;&gt;OrsoIofQDataset:w</title>
<path fill="none" stroke="black" d="M1784,-383.5C1869.41,-383.5 1775.32,-211.53 1846,-197.42"/>
<polygon fill="black" stroke="black" points="1846.36,-200.9 1856,-196.5 1845.72,-193.93 1846.36,-200.9"/>
</g>
<!-- OrsoSample&#45;&gt;OrsoDataSource -->
<g id="edge2" class="edge">
<title>OrsoSample:e&#45;&gt;OrsoDataSource:w</title>
<path fill="none" stroke="black" d="M423,-417.5C672.13,-417.5 1297.16,-436.2 1544,-402.5 1573.08,-398.53 1581.18,-386.66 1605.71,-384.02"/>
<polygon fill="black" stroke="black" points="1606.19,-387.5 1616,-383.5 1605.84,-380.51 1606.19,-387.5"/>
</g>
<!-- OrsoExperiment&#45;&gt;OrsoDataSource -->
<g id="edge3" class="edge">
<title>OrsoExperiment:e&#45;&gt;OrsoDataSource:w</title>
<path fill="none" stroke="black" d="M1472,-327.5C1537.18,-327.5 1546.49,-377.96 1606,-383.08"/>
<polygon fill="black" stroke="black" points="1605.86,-386.58 1616,-383.5 1606.16,-379.58 1605.86,-386.58"/>
</g>
<!-- OrsoMeasurement&#45;&gt;OrsoDataSource -->
<g id="edge4" class="edge">
<title>OrsoMeasurement:e&#45;&gt;OrsoDataSource:w</title>
<path fill="none" stroke="black" d="M1477,-383.5C1535.28,-383.5 1552.32,-383.5 1605.93,-383.5"/>
<polygon fill="black" stroke="black" points="1606,-387 1616,-383.5 1606,-380 1606,-387"/>
</g>
<!-- ReducibleData[SampleRun] -->
<g id="node18" class="node">
<title>ReducibleData[SampleRun]</title>
<polygon fill="none" stroke="black" points="708.5,-204 613.5,-204 613.5,-183 708.5,-183 708.5,-204"/>
<text text-anchor="start" x="621.5" y="-190.4" font-family="Times,serif" font-size="12.00">[SampleRun]</text>
</g>
<!-- OrsoInstrument -->
<g id="node19" class="node">
<title>OrsoInstrument</title>
<polygon fill="none" stroke="black" points="1090.5,-376 928.5,-376 928.5,-343 1090.5,-343 1090.5,-376"/>
<text text-anchor="start" x="952" y="-361.8" font-family="Times,serif" font-size="14.00">OrsoInstrument</text>
<text text-anchor="start" x="936.5" y="-350.2" font-family="Times,serif" font-size="11.00">via:</text>
<text text-anchor="start" x="957.5" y="-350.2" font-family="Times,serif" font-style="italic" font-size="11.00">build_orso_instrument</text>
</g>
<!-- ReducibleData[SampleRun]&#45;&gt;OrsoInstrument -->
<g id="edge7" class="edge">
<title>ReducibleData[SampleRun]:e&#45;&gt;OrsoInstrument:w</title>
<path fill="none" stroke="black" d="M710,-193.5C749.16,-193.5 765.57,-184.13 797,-207.5 849.32,-246.41 811.38,-297.21 861,-339.5 881.74,-357.17 893.63,-359.23 917.37,-359.47"/>
<polygon fill="black" stroke="black" points="917.49,-362.97 927.5,-359.5 917.51,-355.97 917.49,-362.97"/>
</g>
<!-- ReducibleData[SampleRun]&#45;&gt;Reference -->
<g id="edge38" class="edge">
<title>ReducibleData[SampleRun]:e&#45;&gt;Reference:w</title>
<path fill="none" stroke="black" d="M710,-193.5C777.64,-193.5 793.49,-208.27 861,-212.5 1058.07,-224.85 1110.34,-210.99 1302.83,-210.51"/>
<polygon fill="black" stroke="black" points="1303,-214.01 1313,-210.5 1303,-207.01 1303,-214.01"/>
</g>
<!-- ReducibleData[SampleRun]&#45;&gt;Sample -->
<g id="edge44" class="edge">
<title>ReducibleData[SampleRun]:e&#45;&gt;Sample:w</title>
<path fill="none" stroke="black" d="M710,-193.5C722.46,-193.5 1145.81,-177.06 1158,-174.5 1187.93,-168.23 1194.42,-150.92 1219.74,-147.21"/>
<polygon fill="black" stroke="black" points="1220.26,-150.68 1230,-146.5 1219.78,-143.7 1220.26,-150.68"/>
</g>
<!-- OrsoInstrument&#45;&gt;OrsoMeasurement -->
<g id="edge14" class="edge">
<title>OrsoInstrument:e&#45;&gt;OrsoMeasurement:w</title>
<path fill="none" stroke="black" d="M1091.5,-359.5C1179.95,-359.5 1203.3,-381.71 1286.79,-383.4"/>
<polygon fill="black" stroke="black" points="1286.97,-386.9 1297,-383.5 1287.04,-379.9 1286.97,-386.9"/>
</g>
<!-- ReflectivityOverQ -->
<g id="node20" class="node">
<title>ReflectivityOverQ</title>
<polygon fill="none" stroke="black" points="1782,-195 1618,-195 1618,-162 1782,-162 1782,-195"/>
<text text-anchor="start" x="1636.5" y="-180.8" font-family="Times,serif" font-size="14.00">ReflectivityOverQ</text>
<text text-anchor="start" x="1626" y="-169.2" font-family="Times,serif" font-size="11.00">via:</text>
<text text-anchor="start" x="1647" y="-169.2" font-family="Times,serif" font-style="italic" font-size="11.00">reduce_sample_over_q</text>
</g>
<!-- ReflectivityOverQ&#45;&gt;OrsoIofQDataset -->
<g id="edge8" class="edge">
<title>ReflectivityOverQ:e&#45;&gt;OrsoIofQDataset:w</title>
<path fill="none" stroke="black" d="M1783,-178.5C1812.76,-178.5 1820.91,-192.78 1845.94,-195.9"/>
<polygon fill="black" stroke="black" points="1845.81,-199.4 1856,-196.5 1846.23,-192.41 1845.81,-199.4"/>
</g>
<!-- OrsoReduction&#45;&gt;OrsoIofQDataset -->
<g id="edge10" class="edge">
<title>OrsoReduction:e&#45;&gt;OrsoIofQDataset:w</title>
<path fill="none" stroke="black" d="M1778,-128.5C1820.22,-128.5 1811.9,-185.8 1845.83,-195.2"/>
<polygon fill="black" stroke="black" points="1845.64,-198.71 1856,-196.5 1846.52,-191.76 1845.64,-198.71"/>
</g>
<!-- OrsoSampleFilenames&#45;&gt;OrsoMeasurement -->
<g id="edge12" class="edge">
<title>OrsoSampleFilenames:e&#45;&gt;OrsoMeasurement:w</title>
<path fill="none" stroke="black" d="M438,-369.5C626.03,-369.5 673,-373.44 861,-376.5 1051.37,-379.6 1101.45,-383.37 1286.91,-383.5"/>
<polygon fill="black" stroke="black" points="1287,-387 1297,-383.5 1287,-380 1287,-387"/>
</g>
<!-- ProtonCurrent[ReferenceRun] -->
<g id="node24" class="node">
<title>ProtonCurrent[ReferenceRun]</title>
<polygon fill="none" stroke="black" points="404,-86 294,-86 294,-65 404,-65 404,-86"/>
<text text-anchor="start" x="302" y="-72.4" font-family="Times,serif" font-size="12.00">[ReferenceRun]</text>
</g>
<!-- ProtonCurrent[ReferenceRun]&#45;&gt;ReducibleData[ReferenceRun] -->
<g id="edge33" class="edge">
<title>ProtonCurrent[ReferenceRun]:e&#45;&gt;ReducibleData[ReferenceRun]:w</title>
<path fill="none" stroke="black" d="M405,-75.5C483.3,-75.5 457.74,-164.4 525,-204.5 552.85,-221.11 566.1,-219.17 594.68,-218.61"/>
<polygon fill="black" stroke="black" points="595.04,-222.11 605,-218.5 594.96,-215.11 595.04,-222.11"/>
</g>
<!-- ProtonCurrent[SampleRun] -->
<g id="node25" class="node">
<title>ProtonCurrent[SampleRun]</title>
<polygon fill="none" stroke="black" points="396.5,-61 301.5,-61 301.5,-40 396.5,-40 396.5,-61"/>
<text text-anchor="start" x="309.5" y="-47.4" font-family="Times,serif" font-size="12.00">[SampleRun]</text>
</g>
<!-- ProtonCurrent[SampleRun]&#45;&gt;ReducibleData[SampleRun] -->
<g id="edge36" class="edge">
<title>ProtonCurrent[SampleRun]:e&#45;&gt;ReducibleData[SampleRun]:w</title>
<path fill="none" stroke="black" d="M398,-50.5C426.68,-50.5 437.6,-47.91 461,-64.5 504.97,-95.67 482.18,-134.77 525,-167.5 554.18,-189.81 568.88,-193.05 601.72,-193.45"/>
<polygon fill="black" stroke="black" points="601.98,-196.95 612,-193.5 602.02,-189.95 601.98,-196.95"/>
</g>
<!-- QBins -->
<g id="node26" class="node">
<title>QBins</title>
<polygon fill="none" stroke="black" points="1416.5,-190 1357.5,-190 1357.5,-167 1416.5,-167 1416.5,-190"/>
<text text-anchor="middle" x="1387" y="-174.8" font-family="Times,serif" font-size="14.00">QBins</text>
</g>
<!-- QBins&#45;&gt;ReflectivityOverQ -->
<g id="edge43" class="edge">
<title>QBins:e&#45;&gt;ReflectivityOverQ:w</title>
<path fill="none" stroke="black" d="M1418,-178.5C1502.99,-178.5 1526.73,-178.5 1606.93,-178.5"/>
<polygon fill="black" stroke="black" points="1607,-182 1617,-178.5 1607,-175 1607,-182"/>
</g>
<!-- RawDetector[ReferenceRun]&#45;&gt;ReducibleData[ReferenceRun] -->
<g id="edge28" class="edge">
<title>RawDetector[ReferenceRun]:e&#45;&gt;ReducibleData[ReferenceRun]:w</title>
<path fill="none" stroke="black" d="M405,-176.5C492.37,-176.5 512.67,-215.36 594.93,-218.32"/>
<polygon fill="black" stroke="black" points="594.94,-221.82 605,-218.5 595.06,-214.82 594.94,-221.82"/>
</g>
<!-- SampleRotationOffset[ReferenceRun] -->
<g id="node28" class="node">
<title>SampleRotationOffset[ReferenceRun]</title>
<polygon fill="none" stroke="black" points="141,-187 31,-187 31,-166 141,-166 141,-187"/>
<text text-anchor="start" x="39" y="-173.4" font-family="Times,serif" font-size="12.00">[ReferenceRun]</text>
</g>
<!-- SampleRotationOffset[ReferenceRun]&#45;&gt;RawDetector[ReferenceRun] -->
<g id="edge20" class="edge">
<title>SampleRotationOffset[ReferenceRun]:e&#45;&gt;RawDetector[ReferenceRun]:w</title>
<path fill="none" stroke="black" d="M142,-176.5C205.57,-176.5 223.98,-176.5 282.79,-176.5"/>
<polygon fill="black" stroke="black" points="283,-180 293,-176.5 283,-173 283,-180"/>
</g>
<!-- RawDetector[SampleRun]&#45;&gt;ReducibleData[SampleRun] -->
<g id="edge35" class="edge">
<title>RawDetector[SampleRun]:e&#45;&gt;ReducibleData[SampleRun]:w</title>
<path fill="none" stroke="black" d="M398,-201.5C489.74,-201.5 515.02,-194.07 601.96,-193.53"/>
<polygon fill="black" stroke="black" points="602.01,-197.03 612,-193.5 601.99,-190.03 602.01,-197.03"/>
</g>
<!-- SampleRotationOffset[SampleRun] -->
<g id="node30" class="node">
<title>SampleRotationOffset[SampleRun]</title>
<polygon fill="none" stroke="black" points="133.5,-212 38.5,-212 38.5,-191 133.5,-191 133.5,-212"/>
<text text-anchor="start" x="46.5" y="-198.4" font-family="Times,serif" font-size="12.00">[SampleRun]</text>
</g>
<!-- SampleRotationOffset[SampleRun]&#45;&gt;RawDetector[SampleRun] -->
<g id="edge22" class="edge">
<title>SampleRotationOffset[SampleRun]:e&#45;&gt;RawDetector[SampleRun]:w</title>
<path fill="none" stroke="black" d="M135,-201.5C204.75,-201.5 224.75,-201.5 289.64,-201.5"/>
<polygon fill="black" stroke="black" points="290,-205 300,-201.5 290,-198 290,-205"/>
</g>
<!-- ReducibleData[ReferenceRun]&#45;&gt;ReducedReference -->
<g id="edge23" class="edge">
<title>ReducibleData[ReferenceRun]:e&#45;&gt;ReducedReference:w</title>
<path fill="none" stroke="black" d="M717,-218.5C753.1,-218.5 762.05,-213.52 797,-204.5 855.73,-189.35 868.07,-160.84 923.44,-157.77"/>
<polygon fill="black" stroke="black" points="923.6,-161.27 933.5,-157.5 923.41,-154.27 923.6,-161.27"/>
</g>
<!-- ReducedReference&#45;&gt;Reference -->
<g id="edge37" class="edge">
<title>ReducedReference:e&#45;&gt;Reference:w</title>
<path fill="none" stroke="black" d="M1085.5,-157.5C1185.87,-157.5 1207.77,-207.04 1302.93,-210.33"/>
<polygon fill="black" stroke="black" points="1302.94,-213.83 1313,-210.5 1303.06,-206.83 1302.94,-213.83"/>
</g>
<!-- ReducedReference&#45;&gt;Sample -->
<g id="edge45" class="edge">
<title>ReducedReference:e&#45;&gt;Sample:w</title>
<path fill="none" stroke="black" d="M1085.5,-157.5C1146.39,-157.5 1163.73,-147.67 1219.85,-146.6"/>
<polygon fill="black" stroke="black" points="1220.03,-150.09 1230,-146.5 1219.97,-143.09 1220.03,-150.09"/>
</g>
<!-- WavelengthBins -->
<g id="node33" class="node">
<title>WavelengthBins</title>
<polygon fill="none" stroke="black" points="415,-23 283,-23 283,0 415,0 415,-23"/>
<text text-anchor="middle" x="349" y="-7.8" font-family="Times,serif" font-size="14.00">WavelengthBins</text>
</g>
<!-- WavelengthBins&#45;&gt;ReducibleData[ReferenceRun] -->
<g id="edge32" class="edge">
<title>WavelengthBins:e&#45;&gt;ReducibleData[ReferenceRun]:w</title>
<path fill="none" stroke="black" stroke-width="2" d="M416,-11.5C511.05,-11.5 453.76,-132.38 517.53,-197.6"/>
<polygon fill="black" stroke="black" stroke-width="2" points="515.28,-200.28 525,-204.5 520.03,-195.14 515.28,-200.28"/>
</g>
<!-- WavelengthBins&#45;&gt;ReducedReference -->
<g id="edge24" class="edge">
<title>WavelengthBins:e&#45;&gt;ReducedReference:w</title>
<path fill="none" stroke="black" d="M416,-11.5C437.71,-11.5 445.12,-15.7 461,-30.5 506.95,-73.32 471.51,-123.58 525,-156.5 561.47,-178.94 852.27,-159.93 923.2,-157.71"/>
<polygon fill="black" stroke="black" points="923.57,-161.2 933.5,-157.5 923.43,-154.2 923.57,-161.2"/>
</g>
<!-- YIndexLimits -->
<g id="node34" class="node">
<title>YIndexLimits</title>
<polygon fill="none" stroke="black" points="404,-312 294,-312 294,-289 404,-289 404,-312"/>
<text text-anchor="middle" x="349" y="-296.8" font-family="Times,serif" font-size="14.00">YIndexLimits</text>
</g>
<!-- YIndexLimits&#45;&gt;ReducibleData[ReferenceRun] -->
<g id="edge29" class="edge">
<title>YIndexLimits:e&#45;&gt;ReducibleData[ReferenceRun]:w</title>
<path fill="none" stroke="black" stroke-width="2" d="M405,-300.5C460.21,-300.5 486.29,-273.42 516.72,-250.38"/>
<polygon fill="black" stroke="black" stroke-width="2" points="518.99,-253.05 525,-244.33 514.86,-247.4 518.99,-253.05"/>
</g>
<!-- ZIndexLimits -->
<g id="node35" class="node">
<title>ZIndexLimits</title>
<polygon fill="none" stroke="black" points="404.5,-285 293.5,-285 293.5,-262 404.5,-262 404.5,-285"/>
<text text-anchor="middle" x="349" y="-269.8" font-family="Times,serif" font-size="14.00">ZIndexLimits</text>
</g>
<!-- ZIndexLimits&#45;&gt;ReducibleData[ReferenceRun] -->
<g id="edge30" class="edge">
<title>ZIndexLimits:e&#45;&gt;ReducibleData[ReferenceRun]:w</title>
<path fill="none" stroke="black" stroke-width="2" d="M405,-273.5C457.19,-273.5 484.84,-255.87 515.73,-240.58"/>
<polygon fill="black" stroke="black" stroke-width="2" points="517.5,-243.61 525,-236.14 514.47,-237.3 517.5,-243.61"/>
</g>
<!-- Reference&#45;&gt;ReflectivityOverQ -->
<g id="edge42" class="edge">
<title>Reference:e&#45;&gt;ReflectivityOverQ:w</title>
<path fill="none" stroke="black" d="M1461,-210.5C1528.18,-210.5 1544.61,-181.67 1606.64,-178.74"/>
<polygon fill="black" stroke="black" points="1607.08,-182.23 1617,-178.5 1606.92,-175.23 1607.08,-182.23"/>
</g>
<!-- Sample&#45;&gt;ReflectivityOverQ -->
<g id="edge41" class="edge">
<title>Sample:e&#45;&gt;ReflectivityOverQ:w</title>
<path fill="none" stroke="black" d="M1544,-146.5C1575.69,-146.5 1580.75,-172.11 1606.82,-177.51"/>
<polygon fill="black" stroke="black" points="1606.71,-181.01 1617,-178.5 1607.39,-174.05 1606.71,-181.01"/>
</g>
</g>
</svg>
