<?xml version="1.0" encoding="UTF-8" standalone="no"?>
<!DOCTYPE svg PUBLIC "-//W3C//DTD SVG 1.1//EN"
 "http://www.w3.org/Graphics/SVG/1.1/DTD/svg11.dtd">
<!-- Generated by graphviz version 2.43.0 (0)
 -->
<!-- Title: %3 Pages: 1 -->
<svg width="2190pt" height="352pt"
 viewBox="0.00 0.00 2190.00 352.00" xmlns="http://www.w3.org/2000/svg" xmlns:xlink="http://www.w3.org/1999/xlink">
<g id="graph0" class="graph" transform="scale(1 1) rotate(0) translate(4 348)">
<title>%3</title>
<polygon fill="white" stroke="transparent" points="-4,4 -4,-348 2186,-348 2186,4 -4,4"/>
<g id="clust5" class="cluster">
<title>cluster_DetectorData</title>
<polygon fill="#f0f0ff" stroke="#f0f0ff" points="292.5,-152.5 292.5,-248.5 509.5,-248.5 509.5,-152.5 292.5,-152.5"/>
<text text-anchor="start" x="352.5" y="-234.3" font-family="Times,serif" font-size="14.00">DetectorData</text>
<text text-anchor="start" x="334.5" y="-222.7" font-family="Times,serif" font-size="11.00">via:</text>
<text text-anchor="start" x="355.5" y="-222.7" font-family="Times,serif" font-style="italic" font-size="11.00">load_mcstas_events</text>
</g>
<g id="clust7" class="cluster">
<title>cluster_Filename</title>
<polygon fill="#f0f0ff" stroke="#f0f0ff" points="8,-157.5 8,-243.5 225,-243.5 225,-157.5 8,-157.5"/>
<text text-anchor="middle" x="116.5" y="-228.3" font-family="Times,serif" font-size="14.00">Filename</text>
</g>
<g id="clust9" class="cluster">
<title>cluster_ProtonCurrent</title>
<polygon fill="#f0f0ff" stroke="#f0f0ff" points="338,-58.5 338,-144.5 464,-144.5 464,-58.5 338,-58.5"/>
<text text-anchor="middle" x="401" y="-129.3" font-family="Times,serif" font-size="14.00">ProtonCurrent</text>
</g>
<g id="clust12" class="cluster">
<title>cluster_ReducibleData</title>
<polygon fill="#f0f0ff" stroke="#f0f0ff" points="577,-152.5 577,-248.5 849,-248.5 849,-152.5 577,-152.5"/>
<text text-anchor="start" x="660.5" y="-234.3" font-family="Times,serif" font-size="14.00">ReducibleData</text>
<text text-anchor="start" x="585" y="-222.7" font-family="Times,serif" font-size="11.00">via:</text>
<text text-anchor="start" x="606" y="-222.7" font-family="Times,serif" font-style="italic" font-size="11.00">add_coords_masks_and_apply_corrections</text>
</g>
<g id="clust17" class="cluster">
<title>cluster_SampleRotationOffset</title>
<polygon fill="#f0f0ff" stroke="#f0f0ff" points="30.5,-63.5 30.5,-149.5 203.5,-149.5 203.5,-63.5 30.5,-63.5"/>
<text text-anchor="middle" x="117" y="-134.3" font-family="Times,serif" font-size="14.00">SampleRotationOffset</text>
</g>
<!-- Alpha -->
<g id="node1" class="node">
<title>Alpha</title>
<polygon fill="none" stroke="black" points="741,-80 684,-80 684,-57 741,-57 741,-80"/>
<text text-anchor="middle" x="712.5" y="-64.8" font-family="Times,serif" font-size="14.00">Alpha</text>
</g>
<!-- ReducedReference -->
<g id="node17" class="node">
<title>ReducedReference</title>
<polygon fill="none" stroke="black" points="1136.5,-151 986.5,-151 986.5,-118 1136.5,-118 1136.5,-151"/>
<text text-anchor="start" x="994.5" y="-136.8" font-family="Times,serif" font-size="14.00">ReducedReference</text>
<text text-anchor="start" x="1002" y="-125.2" font-family="Times,serif" font-size="11.00">via:</text>
<text text-anchor="start" x="1023" y="-125.2" font-family="Times,serif" font-style="italic" font-size="11.00">reduce_reference</text>
</g>
<!-- Alpha&#45;&gt;ReducedReference -->
<g id="edge9" class="edge">
<title>Alpha:e&#45;&gt;ReducedReference:w</title>
<path fill="none" stroke="black" d="M742.5,-68.5C790.36,-68.5 802.62,-72.65 849,-84.5 908.17,-99.62 919.72,-130.83 975.38,-134.2"/>
<polygon fill="black" stroke="black" points="975.4,-137.71 985.5,-134.5 975.61,-130.71 975.4,-137.71"/>
</g>
<!-- Sample(sample_rotation) -->
<g id="node25" class="node">
<title>Sample(sample_rotation)</title>
<polygon fill="none" stroke="black" points="1596,-139 1285.67,-139 1282,-135.33 1282,-106 1592.33,-106 1596,-109.67 1596,-139"/>
<polyline fill="none" stroke="black" points="1592.33,-135.33 1282,-135.33 "/>
<polyline fill="none" stroke="black" points="1592.33,-135.33 1592.33,-106 "/>
<polyline fill="none" stroke="black" points="1592.33,-135.33 1596,-139 "/>
<text text-anchor="start" x="1349.5" y="-124.8" font-family="Times,serif" font-size="14.00">Sample(sample_rotation)</text>
<text text-anchor="start" x="1290" y="-113.2" font-family="Times,serif" font-size="11.00">via:</text>
<text text-anchor="start" x="1311" y="-113.2" font-family="Times,serif" font-style="italic" font-size="11.00">mask_events_where_supermirror_does_not_cover</text>
</g>
<!-- Alpha&#45;&gt;Sample(sample_rotation) -->
<g id="edge31" class="edge">
<title>Alpha:e&#45;&gt;Sample(sample_rotation):w</title>
<path fill="none" stroke="black" d="M742.5,-68.5C950.6,-68.5 1006.61,-50.46 1210,-94.5 1239.89,-100.97 1246.41,-118.13 1271.74,-121.8"/>
<polygon fill="black" stroke="black" points="1271.79,-125.31 1282,-122.5 1272.26,-118.33 1271.79,-125.31"/>
</g>
<!-- BeamDivergenceLimits -->
<g id="node2" class="node">
<title>BeamDivergenceLimits</title>
<polygon fill="none" stroke="black" points="492.5,-280 309.5,-280 309.5,-257 492.5,-257 492.5,-280"/>
<text text-anchor="middle" x="401" y="-264.8" font-family="Times,serif" font-size="14.00">BeamDivergenceLimits</text>
</g>
<!-- ReducibleData[ReferenceRun] -->
<g id="node16" class="node">
<title>ReducibleData[ReferenceRun]</title>
<polygon fill="none" stroke="black" points="767.5,-182 657.5,-182 657.5,-161 767.5,-161 767.5,-182"/>
<text text-anchor="start" x="665.5" y="-168.4" font-family="Times,serif" font-size="12.00">[ReferenceRun]</text>
</g>
<!-- BeamDivergenceLimits&#45;&gt;ReducibleData[ReferenceRun] -->
<g id="edge13" class="edge">
<title>BeamDivergenceLimits:e&#45;&gt;ReducibleData[ReferenceRun]:w</title>
<path fill="none" stroke="black" stroke-width="2" d="M494,-268.5C542.21,-268.5 532.82,-218.44 568.17,-192.05"/>
<polygon fill="black" stroke="black" stroke-width="2" points="570.4,-194.78 577,-186.5 566.67,-188.86 570.4,-194.78"/>
</g>
<!-- CoordTransformationGraph -->
<g id="node3" class="node">
<title>CoordTransformationGraph</title>
<polygon fill="none" stroke="black" points="513,-344 289,-344 289,-311 513,-311 513,-344"/>
<text text-anchor="start" x="302" y="-329.8" font-family="Times,serif" font-size="14.00">CoordTransformationGraph</text>
<text text-anchor="start" x="297" y="-318.2" font-family="Times,serif" font-size="11.00">via:</text>
<text text-anchor="start" x="318" y="-318.2" font-family="Times,serif" font-style="italic" font-size="11.00">coordinate_transformation_graph</text>
</g>
<!-- CoordTransformationGraph&#45;&gt;ReducibleData[ReferenceRun] -->
<g id="edge16" class="edge">
<title>CoordTransformationGraph:e&#45;&gt;ReducibleData[ReferenceRun]:w</title>
<path fill="none" stroke="black" stroke-width="2" d="M513,-327.5C578.33,-327.5 528.53,-238.75 569.6,-193.39"/>
<polygon fill="black" stroke="black" stroke-width="2" points="572.06,-195.87 577,-186.5 567.29,-190.75 572.06,-195.87"/>
</g>
<!-- Reference(sample_rotation) -->
<g id="node22" class="node">
<title>Reference(sample_rotation)</title>
<polygon fill="none" stroke="black" points="1546,-194 1335.67,-194 1332,-190.33 1332,-161 1542.33,-161 1546,-164.67 1546,-194"/>
<polyline fill="none" stroke="black" points="1542.33,-190.33 1332,-190.33 "/>
<polyline fill="none" stroke="black" points="1542.33,-190.33 1542.33,-161 "/>
<polyline fill="none" stroke="black" points="1542.33,-190.33 1546,-194 "/>
<text text-anchor="start" x="1340" y="-179.8" font-family="Times,serif" font-size="14.00">Reference(sample_rotation)</text>
<text text-anchor="start" x="1374.5" y="-168.2" font-family="Times,serif" font-size="11.00">via:</text>
<text text-anchor="start" x="1395.5" y="-168.2" font-family="Times,serif" font-style="italic" font-size="11.00">evaluate_reference</text>
</g>
<!-- CoordTransformationGraph&#45;&gt;Reference(sample_rotation) -->
<g id="edge21" class="edge">
<title>CoordTransformationGraph:e&#45;&gt;Reference(sample_rotation):w</title>
<path fill="none" stroke="black" d="M513,-327.5C557.13,-327.5 1220.98,-190.67 1320.78,-178.38"/>
<polygon fill="black" stroke="black" points="1321.34,-181.85 1331,-177.5 1320.74,-174.87 1321.34,-181.85"/>
</g>
<!-- CriticalEdge -->
<g id="node4" class="node">
<title>CriticalEdge</title>
<polygon fill="none" stroke="black" points="765.5,-134 659.5,-134 659.5,-111 765.5,-111 765.5,-134"/>
<text text-anchor="middle" x="712.5" y="-118.8" font-family="Times,serif" font-size="14.00">CriticalEdge</text>
</g>
<!-- CriticalEdge&#45;&gt;ReducedReference -->
<g id="edge7" class="edge">
<title>CriticalEdge:e&#45;&gt;ReducedReference:w</title>
<path fill="none" stroke="black" d="M766.5,-122.5C860.55,-122.5 886.24,-133.67 975.48,-134.46"/>
<polygon fill="black" stroke="black" points="975.48,-137.96 985.5,-134.5 975.52,-130.96 975.48,-137.96"/>
</g>
<!-- CriticalEdge&#45;&gt;Sample(sample_rotation) -->
<g id="edge29" class="edge">
<title>CriticalEdge:e&#45;&gt;Sample(sample_rotation):w</title>
<path fill="none" stroke="black" d="M766.5,-122.5C831.65,-122.5 847.86,-118.61 913,-117.5 1044.98,-115.25 1078.08,-112.92 1210,-117.5 1238.43,-118.49 1247.83,-121.65 1271.96,-122.36"/>
<polygon fill="black" stroke="black" points="1271.95,-125.86 1282,-122.5 1272.05,-118.86 1271.95,-125.86"/>
</g>
<!-- Filename[ReferenceRun] -->
<g id="node5" class="node">
<title>Filename[ReferenceRun]</title>
<polygon fill="none" stroke="black" points="171.5,-187 61.5,-187 61.5,-166 171.5,-166 171.5,-187"/>
<text text-anchor="start" x="69.5" y="-173.4" font-family="Times,serif" font-size="12.00">[ReferenceRun]</text>
</g>
<!-- DetectorData[ReferenceRun] -->
<g id="node6" class="node">
<title>DetectorData[ReferenceRun]</title>
<polygon fill="none" stroke="black" points="456,-182 346,-182 346,-161 456,-161 456,-182"/>
<text text-anchor="start" x="354" y="-168.4" font-family="Times,serif" font-size="12.00">[ReferenceRun]</text>
</g>
<!-- Filename[ReferenceRun]&#45;&gt;DetectorData[ReferenceRun] -->
<g id="edge1" class="edge">
<title>Filename[ReferenceRun]:e&#45;&gt;DetectorData[ReferenceRun]:w</title>
<path fill="none" stroke="black" d="M172.5,-176.5C245.6,-176.5 266.38,-171.96 334.58,-171.53"/>
<polygon fill="black" stroke="black" points="335.01,-175.03 345,-171.5 334.99,-168.03 335.01,-175.03"/>
</g>
<!-- DetectorData[ReferenceRun]&#45;&gt;ReducibleData[ReferenceRun] -->
<g id="edge10" class="edge">
<title>DetectorData[ReferenceRun]:e&#45;&gt;ReducibleData[ReferenceRun]:w</title>
<path fill="none" stroke="black" d="M457,-171.5C542.2,-171.5 566,-171.5 646.41,-171.5"/>
<polygon fill="black" stroke="black" points="646.5,-175 656.5,-171.5 646.5,-168 646.5,-175"/>
</g>
<!-- SampleRotationOffset[ReferenceRun] -->
<g id="node7" class="node">
<title>SampleRotationOffset[ReferenceRun]</title>
<polygon fill="none" stroke="black" points="171.5,-93 61.5,-93 61.5,-72 171.5,-72 171.5,-93"/>
<text text-anchor="start" x="69.5" y="-79.4" font-family="Times,serif" font-size="12.00">[ReferenceRun]</text>
</g>
<!-- SampleRotationOffset[ReferenceRun]&#45;&gt;DetectorData[ReferenceRun] -->
<g id="edge2" class="edge">
<title>SampleRotationOffset[ReferenceRun]:e&#45;&gt;DetectorData[ReferenceRun]:w</title>
<path fill="none" stroke="black" d="M172.5,-82.5C255.23,-82.5 258.59,-164.35 334.81,-171.06"/>
<polygon fill="black" stroke="black" points="334.86,-174.57 345,-171.5 335.16,-167.57 334.86,-174.57"/>
</g>
<!-- Filename[SampleRun](sample_rotation) -->
<g id="node8" class="node">
<title>Filename[SampleRun](sample_rotation)</title>
<polygon fill="none" stroke="black" points="217,-212 18.33,-212 16,-209.67 16,-191 214.67,-191 217,-193.33 217,-212"/>
<polyline fill="none" stroke="black" points="214.67,-209.67 16,-209.67 "/>
<polyline fill="none" stroke="black" points="214.67,-209.67 214.67,-191 "/>
<polyline fill="none" stroke="black" points="214.67,-209.67 217,-212 "/>
<text text-anchor="start" x="24" y="-198.4" font-family="Times,serif" font-size="12.00">[SampleRun](sample_rotation)</text>
</g>
<!-- DetectorData[SampleRun](sample_rotation) -->
<g id="node9" class="node">
<title>DetectorData[SampleRun](sample_rotation)</title>
<polygon fill="none" stroke="black" points="501.5,-207 302.83,-207 300.5,-204.67 300.5,-186 499.17,-186 501.5,-188.33 501.5,-207"/>
<polyline fill="none" stroke="black" points="499.17,-204.67 300.5,-204.67 "/>
<polyline fill="none" stroke="black" points="499.17,-204.67 499.17,-186 "/>
<polyline fill="none" stroke="black" points="499.17,-204.67 501.5,-207 "/>
<text text-anchor="start" x="308.5" y="-193.4" font-family="Times,serif" font-size="12.00">[SampleRun](sample_rotation)</text>
</g>
<!-- Filename[SampleRun](sample_rotation)&#45;&gt;DetectorData[SampleRun](sample_rotation) -->
<g id="edge3" class="edge">
<title>Filename[SampleRun](sample_rotation):e&#45;&gt;DetectorData[SampleRun](sample_rotation):w</title>
<path fill="none" stroke="black" d="M218.5,-201.5C250.71,-201.5 261.09,-197.46 288.86,-196.64"/>
<polygon fill="black" stroke="black" points="289.05,-200.14 299,-196.5 288.95,-193.14 289.05,-200.14"/>
</g>
<!-- ReducibleData[SampleRun](sample_rotation) -->
<g id="node21" class="node">
<title>ReducibleData[SampleRun](sample_rotation)</title>
<polygon fill="none" stroke="black" points="813,-207 614.33,-207 612,-204.67 612,-186 810.67,-186 813,-188.33 813,-207"/>
<polyline fill="none" stroke="black" points="810.67,-204.67 612,-204.67 "/>
<polyline fill="none" stroke="black" points="810.67,-204.67 810.67,-186 "/>
<polyline fill="none" stroke="black" points="810.67,-204.67 813,-207 "/>
<text text-anchor="start" x="620" y="-193.4" font-family="Times,serif" font-size="12.00">[SampleRun](sample_rotation)</text>
</g>
<!-- DetectorData[SampleRun](sample_rotation)&#45;&gt;ReducibleData[SampleRun](sample_rotation) -->
<g id="edge17" class="edge">
<title>DetectorData[SampleRun](sample_rotation):e&#45;&gt;ReducibleData[SampleRun](sample_rotation):w</title>
<path fill="none" stroke="black" d="M503,-196.5C547.23,-196.5 560.75,-196.5 600.42,-196.5"/>
<polygon fill="black" stroke="black" points="600.5,-200 610.5,-196.5 600.5,-193 600.5,-200"/>
</g>
<!-- SampleRotationOffset[SampleRun] -->
<g id="node10" class="node">
<title>SampleRotationOffset[SampleRun]</title>
<polygon fill="none" stroke="black" points="164,-118 69,-118 69,-97 164,-97 164,-118"/>
<text text-anchor="start" x="77" y="-104.4" font-family="Times,serif" font-size="12.00">[SampleRun]</text>
</g>
<!-- SampleRotationOffset[SampleRun]&#45;&gt;DetectorData[SampleRun](sample_rotation) -->
<g id="edge4" class="edge">
<title>SampleRotationOffset[SampleRun]:e&#45;&gt;DetectorData[SampleRun](sample_rotation):w</title>
<path fill="none" stroke="black" d="M165.5,-107.5C233.19,-107.5 228.41,-187.69 288.74,-195.83"/>
<polygon fill="black" stroke="black" points="288.79,-199.35 299,-196.5 289.25,-192.36 288.79,-199.35"/>
</g>
<!-- DetectorSpatialResolution[SampleRun] -->
<g id="node11" class="node">
<title>DetectorSpatialResolution[SampleRun]</title>
<polygon fill="none" stroke="black" points="1210,-189 913,-189 913,-166 1210,-166 1210,-189"/>
<text text-anchor="middle" x="1061.5" y="-173.8" font-family="Times,serif" font-size="14.00">DetectorSpatialResolution[SampleRun]</text>
</g>
<!-- DetectorSpatialResolution[SampleRun]&#45;&gt;Reference(sample_rotation) -->
<g id="edge22" class="edge">
<title>DetectorSpatialResolution[SampleRun]:e&#45;&gt;Reference(sample_rotation):w</title>
<path fill="none" stroke="black" d="M1210,-177.5C1260.21,-177.5 1275.26,-177.5 1320.8,-177.5"/>
<polygon fill="black" stroke="black" points="1321,-181 1331,-177.5 1321,-174 1321,-181"/>
</g>
<!-- MValue -->
<g id="node12" class="node">
<title>MValue</title>
<polygon fill="none" stroke="black" points="747.5,-107 677.5,-107 677.5,-84 747.5,-84 747.5,-107"/>
<text text-anchor="middle" x="712.5" y="-91.8" font-family="Times,serif" font-size="14.00">MValue</text>
</g>
<!-- MValue&#45;&gt;ReducedReference -->
<g id="edge8" class="edge">
<title>MValue:e&#45;&gt;ReducedReference:w</title>
<path fill="none" stroke="black" d="M748.5,-95.5C851.81,-95.5 877.15,-132.03 975.43,-134.38"/>
<polygon fill="black" stroke="black" points="975.46,-137.88 985.5,-134.5 975.54,-130.88 975.46,-137.88"/>
</g>
<!-- MValue&#45;&gt;Sample(sample_rotation) -->
<g id="edge30" class="edge">
<title>MValue:e&#45;&gt;Sample(sample_rotation):w</title>
<path fill="none" stroke="black" d="M748.5,-95.5C953.77,-95.5 1005.42,-96.75 1210,-113.5 1238.5,-115.83 1247.71,-121.1 1271.92,-122.27"/>
<polygon fill="black" stroke="black" points="1271.92,-125.77 1282,-122.5 1272.08,-118.77 1271.92,-125.77"/>
</g>
<!-- ProtonCurrent[ReferenceRun] -->
<g id="node13" class="node">
<title>ProtonCurrent[ReferenceRun]</title>
<polygon fill="none" stroke="black" points="456,-88 346,-88 346,-67 456,-67 456,-88"/>
<text text-anchor="start" x="354" y="-74.4" font-family="Times,serif" font-size="12.00">[ReferenceRun]</text>
</g>
<!-- ProtonCurrent[ReferenceRun]&#45;&gt;ReducibleData[ReferenceRun] -->
<g id="edge15" class="edge">
<title>ProtonCurrent[ReferenceRun]:e&#45;&gt;ReducibleData[ReferenceRun]:w</title>
<path fill="none" stroke="black" d="M457,-77.5C482.77,-77.5 490.11,-80.68 513,-92.5 545.81,-109.45 544.66,-127.67 577,-145.5 606.38,-161.7 617.2,-169.83 646.35,-171.27"/>
<polygon fill="black" stroke="black" points="646.42,-174.77 656.5,-171.5 646.58,-167.77 646.42,-174.77"/>
</g>
<!-- ProtonCurrent[SampleRun] -->
<g id="node14" class="node">
<title>ProtonCurrent[SampleRun]</title>
<polygon fill="none" stroke="black" points="448.5,-113 353.5,-113 353.5,-92 448.5,-92 448.5,-113"/>
<text text-anchor="start" x="361.5" y="-99.4" font-family="Times,serif" font-size="12.00">[SampleRun]</text>
</g>
<!-- ProtonCurrent[SampleRun]&#45;&gt;ReducibleData[SampleRun](sample_rotation) -->
<g id="edge18" class="edge">
<title>ProtonCurrent[SampleRun]:e&#45;&gt;ReducibleData[SampleRun](sample_rotation):w</title>
<path fill="none" stroke="black" d="M450,-102.5C529.11,-102.5 528.09,-188.6 600.31,-195.99"/>
<polygon fill="black" stroke="black" points="600.34,-199.5 610.5,-196.5 600.69,-192.51 600.34,-199.5"/>
</g>
<!-- QBins -->
<g id="node15" class="node">
<title>QBins</title>
<polygon fill="none" stroke="black" points="1468.5,-221 1409.5,-221 1409.5,-198 1468.5,-198 1468.5,-221"/>
<text text-anchor="middle" x="1439" y="-205.8" font-family="Times,serif" font-size="14.00">QBins</text>
</g>
<!-- ReflectivityOverQ(sample_rotation) -->
<g id="node23" class="node">
<title>ReflectivityOverQ(sample_rotation)</title>
<polygon fill="none" stroke="black" points="1937,-194 1671.67,-194 1668,-190.33 1668,-161 1933.33,-161 1937,-164.67 1937,-194"/>
<polyline fill="none" stroke="black" points="1933.33,-190.33 1668,-190.33 "/>
<polyline fill="none" stroke="black" points="1933.33,-190.33 1933.33,-161 "/>
<polyline fill="none" stroke="black" points="1933.33,-190.33 1937,-194 "/>
<text text-anchor="start" x="1676" y="-179.8" font-family="Times,serif" font-size="14.00">ReflectivityOverQ(sample_rotation)</text>
<text text-anchor="start" x="1728.5" y="-168.2" font-family="Times,serif" font-size="11.00">via:</text>
<text text-anchor="start" x="1749.5" y="-168.2" font-family="Times,serif" font-style="italic" font-size="11.00">reduce_sample_over_q</text>
</g>
<!-- QBins&#45;&gt;ReflectivityOverQ(sample_rotation) -->
<g id="edge26" class="edge">
<title>QBins:e&#45;&gt;ReflectivityOverQ(sample_rotation):w</title>
<path fill="none" stroke="black" d="M1470,-209.5C1526.4,-209.5 1540.47,-204.33 1596,-194.5 1624.71,-189.42 1633.26,-179.98 1657.76,-177.91"/>
<polygon fill="black" stroke="black" points="1658.15,-181.4 1668,-177.5 1657.87,-174.4 1658.15,-181.4"/>
</g>
<!-- ReducibleData[ReferenceRun]&#45;&gt;ReducedReference -->
<g id="edge5" class="edge">
<title>ReducibleData[ReferenceRun]:e&#45;&gt;ReducedReference:w</title>
<path fill="none" stroke="black" d="M768.5,-171.5C862.9,-171.5 886.07,-137.06 975.46,-134.63"/>
<polygon fill="black" stroke="black" points="975.55,-138.13 985.5,-134.5 975.45,-131.13 975.55,-138.13"/>
</g>
<!-- ReducedReference&#45;&gt;Reference(sample_rotation) -->
<g id="edge19" class="edge">
<title>ReducedReference:e&#45;&gt;Reference(sample_rotation):w</title>
<path fill="none" stroke="black" d="M1137.5,-134.5C1222.16,-134.5 1241.44,-174.21 1320.99,-177.31"/>
<polygon fill="black" stroke="black" points="1320.93,-180.81 1331,-177.5 1321.07,-173.81 1320.93,-180.81"/>
</g>
<!-- ReducedReference&#45;&gt;Sample(sample_rotation) -->
<g id="edge28" class="edge">
<title>ReducedReference:e&#45;&gt;Sample(sample_rotation):w</title>
<path fill="none" stroke="black" d="M1137.5,-134.5C1198.42,-134.5 1215.7,-123.78 1271.85,-122.6"/>
<polygon fill="black" stroke="black" points="1272.04,-126.1 1282,-122.5 1271.96,-119.1 1272.04,-126.1"/>
</g>
<!-- WavelengthBins -->
<g id="node18" class="node">
<title>WavelengthBins</title>
<polygon fill="none" stroke="black" points="467,-23 335,-23 335,0 467,0 467,-23"/>
<text text-anchor="middle" x="401" y="-7.8" font-family="Times,serif" font-size="14.00">WavelengthBins</text>
</g>
<!-- WavelengthBins&#45;&gt;ReducibleData[ReferenceRun] -->
<g id="edge14" class="edge">
<title>WavelengthBins:e&#45;&gt;ReducibleData[ReferenceRun]:w</title>
<path fill="none" stroke="black" stroke-width="2" d="M468,-11.5C489.08,-11.5 496.87,-12.93 513,-26.5 558.95,-65.17 530.94,-106.96 577,-145.5 577.29,-145.74 577.58,-145.98 577.86,-146.22"/>
<polygon fill="black" stroke="black" stroke-width="2" points="575.77,-149.03 585.78,-152.5 580.13,-143.55 575.77,-149.03"/>
</g>
<!-- WavelengthBins&#45;&gt;ReducedReference -->
<g id="edge6" class="edge">
<title>WavelengthBins:e&#45;&gt;ReducedReference:w</title>
<path fill="none" stroke="black" d="M468,-11.5C489.08,-11.5 496.59,-13.26 513,-26.5 556.43,-61.53 528.52,-106.88 577,-134.5 614.2,-155.7 904.36,-136.9 975.21,-134.7"/>
<polygon fill="black" stroke="black" points="975.57,-138.2 985.5,-134.5 975.43,-131.2 975.57,-138.2"/>
</g>
<!-- YIndexLimits -->
<g id="node19" class="node">
<title>YIndexLimits</title>
<polygon fill="none" stroke="black" points="456,-50 346,-50 346,-27 456,-27 456,-50"/>
<text text-anchor="middle" x="401" y="-34.8" font-family="Times,serif" font-size="14.00">YIndexLimits</text>
</g>
<!-- YIndexLimits&#45;&gt;ReducibleData[ReferenceRun] -->
<g id="edge11" class="edge">
<title>YIndexLimits:e&#45;&gt;ReducibleData[ReferenceRun]:w</title>
<path fill="none" stroke="black" stroke-width="2" d="M457,-38.5C483.28,-38.5 491.83,-41.92 513,-57.5 551.95,-86.17 537.9,-117.05 577,-145.5 577.55,-145.9 578.1,-146.3 578.64,-146.69"/>
<polygon fill="black" stroke="black" stroke-width="2" points="576.74,-149.63 586.94,-152.5 580.76,-143.9 576.74,-149.63"/>
</g>
<!-- ZIndexLimits -->
<g id="node20" class="node">
<title>ZIndexLimits</title>
<polygon fill="none" stroke="black" points="456.5,-307 345.5,-307 345.5,-284 456.5,-284 456.5,-307"/>
<text text-anchor="middle" x="401" y="-291.8" font-family="Times,serif" font-size="14.00">ZIndexLimits</text>
</g>
<!-- ZIndexLimits&#45;&gt;ReducibleData[ReferenceRun] -->
<g id="edge12" class="edge">
<title>ZIndexLimits:e&#45;&gt;ReducibleData[ReferenceRun]:w</title>
<path fill="none" stroke="black" stroke-width="2" d="M457,-295.5C482.77,-295.5 491.99,-295.42 513,-280.5 551.31,-253.3 537.16,-219.36 568.95,-192.47"/>
<polygon fill="black" stroke="black" stroke-width="2" points="571.06,-195.27 577,-186.5 566.88,-189.65 571.06,-195.27"/>
</g>
<!-- ReducibleData[SampleRun](sample_rotation)&#45;&gt;Reference(sample_rotation) -->
<g id="edge20" class="edge">
<title>ReducibleData[SampleRun](sample_rotation):e&#45;&gt;Reference(sample_rotation):w</title>
<path fill="none" stroke="black" d="M814.5,-196.5C990.31,-196.5 1034.49,-199.74 1210,-189.5 1260.37,-186.56 1275.05,-178.65 1320.75,-177.61"/>
<polygon fill="black" stroke="black" points="1321.04,-181.11 1331,-177.5 1320.96,-174.11 1321.04,-181.11"/>
</g>
<!-- ReducibleData[SampleRun](sample_rotation)&#45;&gt;Sample(sample_rotation) -->
<g id="edge27" class="edge">
<title>ReducibleData[SampleRun](sample_rotation):e&#45;&gt;Sample(sample_rotation):w</title>
<path fill="none" stroke="black" d="M814.5,-196.5C860.39,-196.5 867.81,-173.54 913,-165.5 1043.11,-142.36 1080.9,-179.69 1210,-151.5 1240.02,-144.94 1246.31,-127.06 1271.7,-123.23"/>
<polygon fill="black" stroke="black" points="1272.27,-126.7 1282,-122.5 1271.78,-119.72 1272.27,-126.7"/>
</g>
<!-- Reference(sample_rotation)&#45;&gt;ReflectivityOverQ(sample_rotation) -->
<g id="edge25" class="edge">
<title>Reference(sample_rotation):e&#45;&gt;ReflectivityOverQ(sample_rotation):w</title>
<path fill="none" stroke="black" d="M1547,-177.5C1597.21,-177.5 1612.26,-177.5 1657.8,-177.5"/>
<polygon fill="black" stroke="black" points="1658,-181 1668,-177.5 1658,-174 1658,-181"/>
</g>
<!-- ReflectivityOverQ -->
<g id="node24" class="node">
<title>ReflectivityOverQ</title>
<polygon fill="none" stroke="black" points="2182,-194 2009,-194 2009,-161 2182,-161 2182,-194"/>
<text text-anchor="start" x="2032" y="-179.8" font-family="Times,serif" font-size="14.00">ReflectivityOverQ</text>
<text text-anchor="start" x="2017" y="-168.2" font-family="Times,serif" font-size="11.00">via:</text>
<text text-anchor="start" x="2038" y="-168.2" font-family="Times,serif" font-style="italic" font-size="11.00">combine_measurements</text>
</g>
<!-- ReflectivityOverQ(sample_rotation)&#45;&gt;ReflectivityOverQ -->
<g id="edge23" class="edge">
<title>ReflectivityOverQ(sample_rotation):e&#45;&gt;ReflectivityOverQ:w</title>
<path fill="none" stroke="black" d="M1937,-177.5C1965.38,-177.5 1974.88,-177.5 1998.98,-177.5"/>
<polygon fill="black" stroke="black" points="1999,-181 2009,-177.5 1999,-174 1999,-181"/>
</g>
<!-- Sample(sample_rotation)&#45;&gt;ReflectivityOverQ(sample_rotation) -->
<g id="edge24" class="edge">
<title>Sample(sample_rotation):e&#45;&gt;ReflectivityOverQ(sample_rotation):w</title>
<path fill="none" stroke="black" d="M1596,-122.5C1632.49,-122.5 1628.9,-167.67 1657.88,-176.14"/>
<polygon fill="black" stroke="black" points="1657.62,-179.64 1668,-177.5 1658.56,-172.7 1657.62,-179.64"/>
</g>
</g>
</svg>
