<?xml version="1.0" encoding="UTF-8" standalone="no"?>
<!DOCTYPE svg PUBLIC "-//W3C//DTD SVG 1.1//EN"
 "http://www.w3.org/Graphics/SVG/1.1/DTD/svg11.dtd">
<!-- Generated by graphviz version 2.43.0 (0)
 -->
<!-- Title: %3 Pages: 1 -->
<svg width="3295pt" height="411pt"
 viewBox="0.00 0.00 3295.00 411.26" xmlns="http://www.w3.org/2000/svg" xmlns:xlink="http://www.w3.org/1999/xlink">
<g id="graph0" class="graph" transform="scale(1 1) rotate(0) translate(4 407.26)">
<title>%3</title>
<polygon fill="white" stroke="transparent" points="-4,4 -4,-407.26 3291,-407.26 3291,4 -4,4"/>
<g id="clust13" class="cluster">
<title>cluster_Filename</title>
<polygon fill="#f0f0ff" stroke="#f0f0ff" points="67,-196.25 67,-282.25 193,-282.25 193,-196.25 67,-196.25"/>
<text text-anchor="middle" x="130" y="-267.05" font-family="Times,serif" font-size="14.00">Filename</text>
</g>
<!-- Alpha -->
<g id="node1" class="node">
<title>Alpha</title>
<polygon fill="none" stroke="black" points="1580,-216.75 1523,-216.75 1523,-193.75 1580,-193.75 1580,-216.75"/>
<text text-anchor="middle" x="1551.5" y="-201.55" font-family="Times,serif" font-size="14.00">Alpha</text>
</g>
<!-- Sample -->
<g id="node42" class="node">
<title>Sample</title>
<polygon fill="none" stroke="black" points="2086,-167.75 1772,-167.75 1772,-134.75 2086,-134.75 2086,-167.75"/>
<text text-anchor="start" x="1902" y="-153.55" font-family="Times,serif" font-size="14.00">Sample</text>
<text text-anchor="start" x="1780" y="-141.95" font-family="Times,serif" font-size="11.00">via:</text>
<text text-anchor="start" x="1801" y="-141.95" font-family="Times,serif" font-style="italic" font-size="11.00">mask_events_where_supermirror_does_not_cover</text>
</g>
<!-- Alpha&#45;&gt;Sample -->
<g id="edge55" class="edge">
<title>Alpha:e&#45;&gt;Sample:w</title>
<path fill="none" stroke="black" d="M1581.5,-205.25C1634.59,-205.25 1649.46,-206.51 1700,-190.25 1731.13,-180.24 1735.06,-156.74 1761.94,-152.07"/>
<polygon fill="black" stroke="black" points="1762.32,-155.55 1772,-151.25 1761.75,-148.57 1762.32,-155.55"/>
</g>
<!-- Filename[SampleRun] -->
<g id="node2" class="node">
<title>Filename[SampleRun]</title>
<polygon fill="none" stroke="black" points="177.5,-225.75 82.5,-225.75 82.5,-204.75 177.5,-204.75 177.5,-225.75"/>
<text text-anchor="start" x="90.5" y="-212.15" font-family="Times,serif" font-size="12.00">[SampleRun]</text>
</g>
<!-- AngleCenterOfIncomingToHorizon[SampleRun] -->
<g id="node3" class="node">
<title>AngleCenterOfIncomingToHorizon[SampleRun]</title>
<polygon fill="none" stroke="black" points="703,-213.75 332,-213.75 332,-180.75 703,-180.75 703,-213.75"/>
<text text-anchor="start" x="349" y="-199.55" font-family="Times,serif" font-size="14.00">AngleCenterOfIncomingToHorizon[SampleRun]</text>
<text text-anchor="start" x="340" y="-187.95" font-family="Times,serif" font-size="11.00">via:</text>
<text text-anchor="start" x="361" y="-187.95" font-family="Times,serif" font-style="italic" font-size="11.00">load_amor_angle_from_horizon_to_center_of_incident_beam</text>
</g>
<!-- Filename[SampleRun]&#45;&gt;AngleCenterOfIncomingToHorizon[SampleRun] -->
<g id="edge1" class="edge">
<title>Filename[SampleRun]:e&#45;&gt;AngleCenterOfIncomingToHorizon[SampleRun]:w</title>
<path fill="none" stroke="black" d="M179,-215.25C243.99,-215.25 261.76,-199.04 321.96,-197.39"/>
<polygon fill="black" stroke="black" points="322.05,-200.89 332,-197.25 321.95,-193.89 322.05,-200.89"/>
</g>
<!-- RawChopper[SampleRun] -->
<g id="node6" class="node">
<title>RawChopper[SampleRun]</title>
<polygon fill="none" stroke="black" points="617.5,-176.75 417.5,-176.75 417.5,-143.75 617.5,-143.75 617.5,-176.75"/>
<text text-anchor="start" x="425.5" y="-162.55" font-family="Times,serif" font-size="14.00">RawChopper[SampleRun]</text>
<text text-anchor="start" x="467" y="-150.95" font-family="Times,serif" font-size="11.00">via:</text>
<text text-anchor="start" x="488" y="-150.95" font-family="Times,serif" font-style="italic" font-size="11.00">amor_chopper</text>
</g>
<!-- Filename[SampleRun]&#45;&gt;RawChopper[SampleRun] -->
<g id="edge25" class="edge">
<title>Filename[SampleRun]:e&#45;&gt;RawChopper[SampleRun]:w</title>
<path fill="none" stroke="black" d="M179,-215.25C283.86,-215.25 306.72,-163.74 406.29,-160.42"/>
<polygon fill="black" stroke="black" points="406.56,-163.92 416.5,-160.25 406.44,-156.92 406.56,-163.92"/>
</g>
<!-- DetectorRotation[SampleRun] -->
<g id="node14" class="node">
<title>DetectorRotation[SampleRun]</title>
<polygon fill="none" stroke="black" points="633.5,-139.75 401.5,-139.75 401.5,-106.75 633.5,-106.75 633.5,-139.75"/>
<text text-anchor="start" x="409.5" y="-125.55" font-family="Times,serif" font-size="14.00">DetectorRotation[SampleRun]</text>
<text text-anchor="start" x="426" y="-113.95" font-family="Times,serif" font-size="11.00">via:</text>
<text text-anchor="start" x="447" y="-113.95" font-family="Times,serif" font-style="italic" font-size="11.00">load_amor_detector_rotation</text>
</g>
<!-- Filename[SampleRun]&#45;&gt;DetectorRotation[SampleRun] -->
<g id="edge5" class="edge">
<title>Filename[SampleRun]:e&#45;&gt;DetectorRotation[SampleRun]:w</title>
<path fill="none" stroke="black" d="M179,-215.25C282.16,-215.25 293.26,-129.09 390.49,-123.53"/>
<polygon fill="black" stroke="black" points="390.6,-127.03 400.5,-123.25 390.41,-120.04 390.6,-127.03"/>
</g>
<!-- LoadedNeXusDetector[SampleRun] -->
<g id="node17" class="node">
<title>LoadedNeXusDetector[SampleRun]</title>
<polygon fill="none" stroke="black" points="652,-65.75 383,-65.75 383,-32.75 652,-32.75 652,-65.75"/>
<text text-anchor="start" x="391" y="-51.55" font-family="Times,serif" font-size="14.00">LoadedNeXusDetector[SampleRun]</text>
<text text-anchor="start" x="468.5" y="-39.95" font-family="Times,serif" font-size="11.00">via:</text>
<text text-anchor="start" x="489.5" y="-39.95" font-family="Times,serif" font-style="italic" font-size="11.00">load_detector</text>
</g>
<!-- Filename[SampleRun]&#45;&gt;LoadedNeXusDetector[SampleRun] -->
<g id="edge6" class="edge">
<title>Filename[SampleRun]:e&#45;&gt;LoadedNeXusDetector[SampleRun]:w</title>
<path fill="none" stroke="black" d="M179,-215.25C291.85,-215.25 266.82,-59.15 371.33,-49.7"/>
<polygon fill="black" stroke="black" points="371.66,-53.19 381.5,-49.25 371.36,-46.2 371.66,-53.19"/>
</g>
<!-- OrsoOwner -->
<g id="node21" class="node">
<title>OrsoOwner</title>
<polygon fill="none" stroke="black" points="587.5,-361.75 447.5,-361.75 447.5,-328.75 587.5,-328.75 587.5,-361.75"/>
<text text-anchor="start" x="476.5" y="-347.55" font-family="Times,serif" font-size="14.00">OrsoOwner</text>
<text text-anchor="start" x="455.5" y="-335.95" font-family="Times,serif" font-size="11.00">via:</text>
<text text-anchor="start" x="476.5" y="-335.95" font-family="Times,serif" font-style="italic" font-size="11.00">parse_orso_owner</text>
</g>
<!-- Filename[SampleRun]&#45;&gt;OrsoOwner -->
<g id="edge20" class="edge">
<title>Filename[SampleRun]:e&#45;&gt;OrsoOwner:w</title>
<path fill="none" stroke="black" d="M179,-215.25C215.61,-215.25 228.84,-211.03 260,-230.25 305.09,-258.07 286.77,-297.67 332,-325.25 373.09,-350.31 392.16,-346.04 436.35,-345.34"/>
<polygon fill="black" stroke="black" points="436.53,-348.84 446.5,-345.25 436.47,-341.84 436.53,-348.84"/>
</g>
<!-- OrsoSample -->
<g id="node23" class="node">
<title>OrsoSample</title>
<polygon fill="none" stroke="black" points="590,-324.75 445,-324.75 445,-291.75 590,-291.75 590,-324.75"/>
<text text-anchor="start" x="473.5" y="-310.55" font-family="Times,serif" font-size="14.00">OrsoSample</text>
<text text-anchor="start" x="453" y="-298.95" font-family="Times,serif" font-size="11.00">via:</text>
<text text-anchor="start" x="474" y="-298.95" font-family="Times,serif" font-style="italic" font-size="11.00">parse_orso_sample</text>
</g>
<!-- Filename[SampleRun]&#45;&gt;OrsoSample -->
<g id="edge22" class="edge">
<title>Filename[SampleRun]:e&#45;&gt;OrsoSample:w</title>
<path fill="none" stroke="black" d="M179,-215.25C215.61,-215.25 226.73,-214.97 260,-230.25 297.34,-247.41 294.61,-271.21 332,-288.25 374.59,-307.67 390.85,-308.27 433.38,-308.26"/>
<polygon fill="black" stroke="black" points="433.5,-311.76 443.5,-308.25 433.5,-304.76 433.5,-311.76"/>
</g>
<!-- OrsoExperiment -->
<g id="node24" class="node">
<title>OrsoExperiment</title>
<polygon fill="none" stroke="black" points="601.5,-287.75 433.5,-287.75 433.5,-254.75 601.5,-254.75 601.5,-287.75"/>
<text text-anchor="start" x="458.5" y="-273.55" font-family="Times,serif" font-size="14.00">OrsoExperiment</text>
<text text-anchor="start" x="441.5" y="-261.95" font-family="Times,serif" font-size="11.00">via:</text>
<text text-anchor="start" x="462.5" y="-261.95" font-family="Times,serif" font-style="italic" font-size="11.00">parse_orso_experiment</text>
</g>
<!-- Filename[SampleRun]&#45;&gt;OrsoExperiment -->
<g id="edge12" class="edge">
<title>Filename[SampleRun]:e&#45;&gt;OrsoExperiment:w</title>
<path fill="none" stroke="black" d="M179,-215.25C290.89,-215.25 315.66,-267.91 422.27,-271.1"/>
<polygon fill="black" stroke="black" points="422.45,-274.61 432.5,-271.25 422.55,-267.61 422.45,-274.61"/>
</g>
<!-- OrsoSampleFilenames -->
<g id="node30" class="node">
<title>OrsoSampleFilenames</title>
<polygon fill="none" stroke="black" points="606,-250.75 429,-250.75 429,-217.75 606,-217.75 606,-250.75"/>
<text text-anchor="start" x="437" y="-236.55" font-family="Times,serif" font-size="14.00">OrsoSampleFilenames</text>
<text text-anchor="start" x="464.5" y="-224.95" font-family="Times,serif" font-size="11.00">via:</text>
<text text-anchor="start" x="485.5" y="-224.95" font-family="Times,serif" font-style="italic" font-size="11.00">orso_data_files</text>
</g>
<!-- Filename[SampleRun]&#45;&gt;OrsoSampleFilenames -->
<g id="edge23" class="edge">
<title>Filename[SampleRun]:e&#45;&gt;OrsoSampleFilenames:w</title>
<path fill="none" stroke="black" d="M179,-215.25C286.73,-215.25 315.52,-233.09 418.32,-234.2"/>
<polygon fill="black" stroke="black" points="418.48,-237.7 428.5,-234.25 418.52,-230.7 418.48,-237.7"/>
</g>
<!-- ProtonCurrent[SampleRun] -->
<g id="node31" class="node">
<title>ProtonCurrent[SampleRun]</title>
<polygon fill="none" stroke="black" points="624,-102.75 411,-102.75 411,-69.75 624,-69.75 624,-102.75"/>
<text text-anchor="start" x="419" y="-88.55" font-family="Times,serif" font-size="14.00">ProtonCurrent[SampleRun]</text>
<text text-anchor="start" x="433" y="-76.95" font-family="Times,serif" font-size="11.00">via:</text>
<text text-anchor="start" x="454" y="-76.95" font-family="Times,serif" font-style="italic" font-size="11.00">load_amor_proton_current</text>
</g>
<!-- Filename[SampleRun]&#45;&gt;ProtonCurrent[SampleRun] -->
<g id="edge24" class="edge">
<title>Filename[SampleRun]:e&#45;&gt;ProtonCurrent[SampleRun]:w</title>
<path fill="none" stroke="black" d="M179,-215.25C262.49,-215.25 256.26,-141.38 332,-106.25 361.34,-92.65 372.26,-87.35 400.29,-86.41"/>
<polygon fill="black" stroke="black" points="400.55,-89.91 410.5,-86.25 400.45,-82.91 400.55,-89.91"/>
</g>
<!-- RawDetectorData[SampleRun] -->
<g id="node33" class="node">
<title>RawDetectorData[SampleRun]</title>
<polygon fill="none" stroke="black" points="1331,-207.75 1095,-207.75 1095,-174.75 1331,-174.75 1331,-207.75"/>
<text text-anchor="start" x="1103" y="-193.55" font-family="Times,serif" font-size="14.00">RawDetectorData[SampleRun]</text>
<text text-anchor="start" x="1169" y="-181.95" font-family="Times,serif" font-size="11.00">via:</text>
<text text-anchor="start" x="1190" y="-181.95" font-family="Times,serif" font-style="italic" font-size="11.00">load_events</text>
</g>
<!-- AngleCenterOfIncomingToHorizon[SampleRun]&#45;&gt;RawDetectorData[SampleRun] -->
<g id="edge35" class="edge">
<title>AngleCenterOfIncomingToHorizon[SampleRun]:e&#45;&gt;RawDetectorData[SampleRun]:w</title>
<path fill="none" stroke="black" d="M703,-197.25C737.84,-197.25 740.88,-221.22 775,-228.25 828.98,-239.38 969.43,-241.21 1023,-228.25 1054.28,-220.69 1058.42,-197.05 1084.7,-192.15"/>
<polygon fill="black" stroke="black" points="1085.34,-195.61 1095,-191.25 1084.73,-188.63 1085.34,-195.61"/>
</g>
<!-- BeamDivergenceLimits -->
<g id="node4" class="node">
<title>BeamDivergenceLimits</title>
<polygon fill="none" stroke="black" points="1304.5,-89.75 1121.5,-89.75 1121.5,-66.75 1304.5,-66.75 1304.5,-89.75"/>
<text text-anchor="middle" x="1213" y="-74.55" font-family="Times,serif" font-size="14.00">BeamDivergenceLimits</text>
</g>
<!-- ReducibleData[SampleRun] -->
<g id="node37" class="node">
<title>ReducibleData[SampleRun]</title>
<polygon fill="none" stroke="black" points="1687.5,-135.75 1415.5,-135.75 1415.5,-102.75 1687.5,-102.75 1687.5,-135.75"/>
<text text-anchor="start" x="1453" y="-121.55" font-family="Times,serif" font-size="14.00">ReducibleData[SampleRun]</text>
<text text-anchor="start" x="1423.5" y="-109.95" font-family="Times,serif" font-size="11.00">via:</text>
<text text-anchor="start" x="1444.5" y="-109.95" font-family="Times,serif" font-style="italic" font-size="11.00">add_coords_masks_and_apply_corrections</text>
</g>
<!-- BeamDivergenceLimits&#45;&gt;ReducibleData[SampleRun] -->
<g id="edge39" class="edge">
<title>BeamDivergenceLimits:e&#45;&gt;ReducibleData[SampleRun]:w</title>
<path fill="none" stroke="black" d="M1306,-78.25C1353.93,-78.25 1361.96,-113.69 1404.28,-118.67"/>
<polygon fill="black" stroke="black" points="1404.32,-122.18 1414.5,-119.25 1404.71,-115.19 1404.32,-122.18"/>
</g>
<!-- BeamSize[SampleRun] -->
<g id="node5" class="node">
<title>BeamSize[SampleRun]</title>
<polygon fill="none" stroke="black" points="988.5,-227.75 809.5,-227.75 809.5,-204.75 988.5,-204.75 988.5,-227.75"/>
<text text-anchor="middle" x="899" y="-212.55" font-family="Times,serif" font-size="14.00">BeamSize[SampleRun]</text>
</g>
<!-- BeamSize[SampleRun]&#45;&gt;RawDetectorData[SampleRun] -->
<g id="edge34" class="edge">
<title>BeamSize[SampleRun]:e&#45;&gt;RawDetectorData[SampleRun]:w</title>
<path fill="none" stroke="black" d="M990,-216.25C1034.41,-216.25 1045.47,-194.83 1084.93,-191.65"/>
<polygon fill="black" stroke="black" points="1085.14,-195.14 1095,-191.25 1084.87,-188.15 1085.14,-195.14"/>
</g>
<!-- ChopperDistance[SampleRun] -->
<g id="node7" class="node">
<title>ChopperDistance[SampleRun]</title>
<polygon fill="none" stroke="black" points="1015,-200.75 783,-200.75 783,-167.75 1015,-167.75 1015,-200.75"/>
<text text-anchor="start" x="791" y="-186.55" font-family="Times,serif" font-size="14.00">ChopperDistance[SampleRun]</text>
<text text-anchor="start" x="807.5" y="-174.95" font-family="Times,serif" font-size="11.00">via:</text>
<text text-anchor="start" x="828.5" y="-174.95" font-family="Times,serif" font-style="italic" font-size="11.00">load_amor_chopper_distance</text>
</g>
<!-- RawChopper[SampleRun]&#45;&gt;ChopperDistance[SampleRun] -->
<g id="edge2" class="edge">
<title>RawChopper[SampleRun]:e&#45;&gt;ChopperDistance[SampleRun]:w</title>
<path fill="none" stroke="black" d="M618.5,-160.25C688.36,-160.25 706.8,-181.97 771.63,-184.09"/>
<polygon fill="black" stroke="black" points="771.95,-187.59 782,-184.25 772.06,-180.59 771.95,-187.59"/>
</g>
<!-- ChopperSeparation[SampleRun] -->
<g id="node10" class="node">
<title>ChopperSeparation[SampleRun]</title>
<polygon fill="none" stroke="black" points="1023,-109.75 775,-109.75 775,-76.75 1023,-76.75 1023,-109.75"/>
<text text-anchor="start" x="783" y="-95.55" font-family="Times,serif" font-size="14.00">ChopperSeparation[SampleRun]</text>
<text text-anchor="start" x="801" y="-83.95" font-family="Times,serif" font-size="11.00">via:</text>
<text text-anchor="start" x="822" y="-83.95" font-family="Times,serif" font-style="italic" font-size="11.00">load_amor_chopper_separation</text>
</g>
<!-- RawChopper[SampleRun]&#45;&gt;ChopperSeparation[SampleRun] -->
<g id="edge3" class="edge">
<title>RawChopper[SampleRun]:e&#45;&gt;ChopperSeparation[SampleRun]:w</title>
<path fill="none" stroke="black" d="M618.5,-160.25C657.2,-160.25 667.45,-154.54 703,-139.25 734.48,-125.72 736.85,-99.16 764.92,-94.1"/>
<polygon fill="black" stroke="black" points="765.33,-97.58 775,-93.25 764.74,-90.6 765.33,-97.58"/>
</g>
<!-- ChopperDistance[SampleRun]&#45;&gt;RawDetectorData[SampleRun] -->
<g id="edge31" class="edge">
<title>ChopperDistance[SampleRun]:e&#45;&gt;RawDetectorData[SampleRun]:w</title>
<path fill="none" stroke="black" d="M1016,-184.25C1047.53,-184.25 1057.66,-189.86 1084.68,-191.04"/>
<polygon fill="black" stroke="black" points="1084.93,-194.54 1095,-191.25 1085.08,-187.54 1084.93,-194.54"/>
</g>
<!-- ChopperFrequency[SampleRun] -->
<g id="node8" class="node">
<title>ChopperFrequency[SampleRun]</title>
<polygon fill="none" stroke="black" points="1021.5,-163.75 776.5,-163.75 776.5,-140.75 1021.5,-140.75 1021.5,-163.75"/>
<text text-anchor="middle" x="899" y="-148.55" font-family="Times,serif" font-size="14.00">ChopperFrequency[SampleRun]</text>
</g>
<!-- ChopperFrequency[SampleRun]&#45;&gt;RawDetectorData[SampleRun] -->
<g id="edge30" class="edge">
<title>ChopperFrequency[SampleRun]:e&#45;&gt;RawDetectorData[SampleRun]:w</title>
<path fill="none" stroke="black" d="M1023,-152.25C1055.7,-152.25 1058.38,-183.73 1084.98,-190.13"/>
<polygon fill="black" stroke="black" points="1084.67,-193.62 1095,-191.25 1085.45,-186.66 1084.67,-193.62"/>
</g>
<!-- ChopperPhase[SampleRun] -->
<g id="node9" class="node">
<title>ChopperPhase[SampleRun]</title>
<polygon fill="none" stroke="black" points="1005,-136.75 793,-136.75 793,-113.75 1005,-113.75 1005,-136.75"/>
<text text-anchor="middle" x="899" y="-121.55" font-family="Times,serif" font-size="14.00">ChopperPhase[SampleRun]</text>
</g>
<!-- ChopperPhase[SampleRun]&#45;&gt;RawDetectorData[SampleRun] -->
<g id="edge29" class="edge">
<title>ChopperPhase[SampleRun]:e&#45;&gt;RawDetectorData[SampleRun]:w</title>
<path fill="none" stroke="black" d="M1006,-125.25C1051.59,-125.25 1046.84,-181.82 1084.96,-190.22"/>
<polygon fill="black" stroke="black" points="1084.69,-193.71 1095,-191.25 1085.41,-186.75 1084.69,-193.71"/>
</g>
<!-- ChopperSeparation[SampleRun]&#45;&gt;RawDetectorData[SampleRun] -->
<g id="edge32" class="edge">
<title>ChopperSeparation[SampleRun]:e&#45;&gt;RawDetectorData[SampleRun]:w</title>
<path fill="none" stroke="black" d="M1023,-93.25C1073.25,-93.25 1045.58,-177.96 1084.87,-189.87"/>
<polygon fill="black" stroke="black" points="1084.62,-193.37 1095,-191.25 1085.57,-186.43 1084.62,-193.37"/>
</g>
<!-- GravityToggle -->
<g id="node11" class="node">
<title>GravityToggle</title>
<polygon fill="none" stroke="black" points="957.5,-41.75 840.5,-41.75 840.5,-18.75 957.5,-18.75 957.5,-41.75"/>
<text text-anchor="middle" x="899" y="-26.55" font-family="Times,serif" font-size="14.00">GravityToggle</text>
</g>
<!-- CoordTransformationGraph -->
<g id="node12" class="node">
<title>CoordTransformationGraph</title>
<polygon fill="none" stroke="black" points="1325,-51.75 1101,-51.75 1101,-18.75 1325,-18.75 1325,-51.75"/>
<text text-anchor="start" x="1114" y="-37.55" font-family="Times,serif" font-size="14.00">CoordTransformationGraph</text>
<text text-anchor="start" x="1109" y="-25.95" font-family="Times,serif" font-size="11.00">via:</text>
<text text-anchor="start" x="1130" y="-25.95" font-family="Times,serif" font-style="italic" font-size="11.00">coordinate_transformation_graph</text>
</g>
<!-- GravityToggle&#45;&gt;CoordTransformationGraph -->
<g id="edge4" class="edge">
<title>GravityToggle:e&#45;&gt;CoordTransformationGraph:w</title>
<path fill="none" stroke="black" d="M959,-30.25C1018.15,-30.25 1035.38,-34.7 1089.78,-35.21"/>
<polygon fill="black" stroke="black" points="1089.98,-38.71 1100,-35.25 1090.02,-31.71 1089.98,-38.71"/>
</g>
<!-- CoordTransformationGraph&#45;&gt;ReducibleData[SampleRun] -->
<g id="edge42" class="edge">
<title>CoordTransformationGraph:e&#45;&gt;ReducibleData[SampleRun]:w</title>
<path fill="none" stroke="black" d="M1326,-35.25C1376.52,-35.25 1362.65,-108.16 1404.37,-118.13"/>
<polygon fill="black" stroke="black" points="1404.17,-121.63 1414.5,-119.25 1404.95,-114.67 1404.17,-121.63"/>
</g>
<!-- Reference -->
<g id="node41" class="node">
<title>Reference</title>
<polygon fill="none" stroke="black" points="2054,-94.75 1804,-94.75 1804,-61.75 2054,-61.75 2054,-94.75"/>
<text text-anchor="start" x="1892.5" y="-80.55" font-family="Times,serif" font-size="14.00">Reference</text>
<text text-anchor="start" x="1812" y="-68.95" font-family="Times,serif" font-size="11.00">via:</text>
<text text-anchor="start" x="1833" y="-68.95" font-family="Times,serif" font-style="italic" font-size="11.00">evaluate_reference_at_sample_coords</text>
</g>
<!-- CoordTransformationGraph&#45;&gt;Reference -->
<g id="edge47" class="edge">
<title>CoordTransformationGraph:e&#45;&gt;Reference:w</title>
<path fill="none" stroke="black" d="M1326,-35.25C1362.12,-35.25 1367.49,-54.64 1403,-61.25 1423.24,-65.02 1729.77,-76.38 1792.81,-78.05"/>
<polygon fill="black" stroke="black" points="1792.93,-81.55 1803,-78.25 1793.07,-74.55 1792.93,-81.55"/>
</g>
<!-- CriticalEdge -->
<g id="node13" class="node">
<title>CriticalEdge</title>
<polygon fill="none" stroke="black" points="1604.5,-189.75 1498.5,-189.75 1498.5,-166.75 1604.5,-166.75 1604.5,-189.75"/>
<text text-anchor="middle" x="1551.5" y="-174.55" font-family="Times,serif" font-size="14.00">CriticalEdge</text>
</g>
<!-- CriticalEdge&#45;&gt;Sample -->
<g id="edge53" class="edge">
<title>CriticalEdge:e&#45;&gt;Sample:w</title>
<path fill="none" stroke="black" d="M1605.5,-178.25C1639.98,-178.25 1720.2,-155.41 1762.01,-151.75"/>
<polygon fill="black" stroke="black" points="1762.18,-155.24 1772,-151.25 1761.84,-148.25 1762.18,-155.24"/>
</g>
<!-- DetectorRotation[SampleRun]&#45;&gt;RawDetectorData[SampleRun] -->
<g id="edge27" class="edge">
<title>DetectorRotation[SampleRun]:e&#45;&gt;RawDetectorData[SampleRun]:w</title>
<path fill="none" stroke="black" d="M634.5,-123.25C700.35,-123.25 710.14,-87.61 775,-76.25 802.14,-71.5 998.89,-62.91 1023,-76.25 1072.46,-103.64 1039.46,-180.75 1084.83,-190.28"/>
<polygon fill="black" stroke="black" points="1084.71,-193.79 1095,-191.25 1085.38,-186.82 1084.71,-193.79"/>
</g>
<!-- DetectorSpatialResolution[SampleRun] -->
<g id="node15" class="node">
<title>DetectorSpatialResolution[SampleRun]</title>
<polygon fill="none" stroke="black" points="1700,-60.75 1403,-60.75 1403,-37.75 1700,-37.75 1700,-60.75"/>
<text text-anchor="middle" x="1551.5" y="-45.55" font-family="Times,serif" font-size="14.00">DetectorSpatialResolution[SampleRun]</text>
</g>
<!-- DetectorSpatialResolution[SampleRun]&#45;&gt;Reference -->
<g id="edge46" class="edge">
<title>DetectorSpatialResolution[SampleRun]:e&#45;&gt;Reference:w</title>
<path fill="none" stroke="black" d="M1700,-49.25C1743.84,-49.25 1753.97,-73.9 1792.54,-77.75"/>
<polygon fill="black" stroke="black" points="1792.84,-81.27 1803,-78.25 1793.18,-74.28 1792.84,-81.27"/>
</g>
<!-- Filename[ReferenceRun] -->
<g id="node16" class="node">
<title>Filename[ReferenceRun]</title>
<polygon fill="none" stroke="black" points="185,-250.75 75,-250.75 75,-229.75 185,-229.75 185,-250.75"/>
<text text-anchor="start" x="83" y="-237.15" font-family="Times,serif" font-size="12.00">[ReferenceRun]</text>
</g>
<!-- OrsoMeasurement -->
<g id="node25" class="node">
<title>OrsoMeasurement</title>
<polygon fill="none" stroke="black" points="2806,-302.75 2628,-302.75 2628,-269.75 2806,-269.75 2806,-302.75"/>
<text text-anchor="start" x="2650.5" y="-288.55" font-family="Times,serif" font-size="14.00">OrsoMeasurement</text>
<text text-anchor="start" x="2636" y="-276.95" font-family="Times,serif" font-size="11.00">via:</text>
<text text-anchor="start" x="2657" y="-276.95" font-family="Times,serif" font-style="italic" font-size="11.00">build_orso_measurement</text>
</g>
<!-- Filename[ReferenceRun]&#45;&gt;OrsoMeasurement -->
<g id="edge18" class="edge">
<title>Filename[ReferenceRun]:e&#45;&gt;OrsoMeasurement:w</title>
<path fill="none" stroke="black" d="M186,-240.25C270.56,-240.25 252.69,-332.92 332,-362.25 567.96,-449.52 646.43,-369.25 898,-369.25 898,-369.25 898,-369.25 2241,-369.25 2325.78,-369.25 2524.95,-292.14 2618,-286.57"/>
<polygon fill="black" stroke="black" points="2618.12,-290.07 2628,-286.25 2617.89,-283.07 2618.12,-290.07"/>
</g>
<!-- LoadedNeXusDetector[SampleRun]&#45;&gt;RawDetectorData[SampleRun] -->
<g id="edge26" class="edge">
<title>LoadedNeXusDetector[SampleRun]:e&#45;&gt;RawDetectorData[SampleRun]:w</title>
<path fill="none" stroke="black" d="M653.5,-49.25C735.72,-49.25 952.75,-25.54 1023,-68.25 1073.95,-99.23 1036.64,-180.89 1084.94,-190.36"/>
<polygon fill="black" stroke="black" points="1084.73,-193.85 1095,-191.25 1085.35,-186.88 1084.73,-193.85"/>
</g>
<!-- NeXusDetectorName[SampleRun] -->
<g id="node18" class="node">
<title>NeXusDetectorName[SampleRun]</title>
<polygon fill="none" stroke="black" points="260,-60.75 0,-60.75 0,-37.75 260,-37.75 260,-60.75"/>
<text text-anchor="middle" x="130" y="-45.55" font-family="Times,serif" font-size="14.00">NeXusDetectorName[SampleRun]</text>
</g>
<!-- NeXusDetectorName[SampleRun]&#45;&gt;LoadedNeXusDetector[SampleRun] -->
<g id="edge7" class="edge">
<title>NeXusDetectorName[SampleRun]:e&#45;&gt;LoadedNeXusDetector[SampleRun]:w</title>
<path fill="none" stroke="black" d="M260,-49.25C310.41,-49.25 325.53,-49.25 371.25,-49.25"/>
<polygon fill="black" stroke="black" points="371.5,-52.75 381.5,-49.25 371.5,-45.75 371.5,-52.75"/>
</g>
<!-- MValue -->
<g id="node19" class="node">
<title>MValue</title>
<polygon fill="none" stroke="black" points="1586.5,-162.75 1516.5,-162.75 1516.5,-139.75 1586.5,-139.75 1586.5,-162.75"/>
<text text-anchor="middle" x="1551.5" y="-147.55" font-family="Times,serif" font-size="14.00">MValue</text>
</g>
<!-- MValue&#45;&gt;Sample -->
<g id="edge54" class="edge">
<title>MValue:e&#45;&gt;Sample:w</title>
<path fill="none" stroke="black" d="M1587.5,-151.25C1665.98,-151.25 1688.12,-151.25 1761.76,-151.25"/>
<polygon fill="black" stroke="black" points="1762,-154.75 1772,-151.25 1762,-147.75 1762,-154.75"/>
</g>
<!-- OrsoCreator -->
<g id="node20" class="node">
<title>OrsoCreator</title>
<polygon fill="none" stroke="black" points="2769.5,-173.75 2664.5,-173.75 2664.5,-150.75 2769.5,-150.75 2769.5,-173.75"/>
<text text-anchor="middle" x="2717" y="-158.55" font-family="Times,serif" font-size="14.00">OrsoCreator</text>
</g>
<!-- OrsoReduction -->
<g id="node29" class="node">
<title>OrsoReduction</title>
<polygon fill="none" stroke="black" points="3039,-178.75 2885,-178.75 2885,-145.75 3039,-145.75 3039,-178.75"/>
<text text-anchor="start" x="2909" y="-164.55" font-family="Times,serif" font-size="14.00">OrsoReduction</text>
<text text-anchor="start" x="2893" y="-152.95" font-family="Times,serif" font-size="11.00">via:</text>
<text text-anchor="start" x="2914" y="-152.95" font-family="Times,serif" font-style="italic" font-size="11.00">build_orso_reduction</text>
</g>
<!-- OrsoCreator&#45;&gt;OrsoReduction -->
<g id="edge21" class="edge">
<title>OrsoCreator:e&#45;&gt;OrsoReduction:w</title>
<path fill="none" stroke="black" d="M2771,-162.25C2817.69,-162.25 2831.83,-162.25 2873.94,-162.25"/>
<polygon fill="black" stroke="black" points="2874,-165.75 2884,-162.25 2874,-158.75 2874,-165.75"/>
</g>
<!-- OrsoDataSource -->
<g id="node22" class="node">
<title>OrsoDataSource</title>
<polygon fill="none" stroke="black" points="3046,-326.75 2878,-326.75 2878,-293.75 3046,-293.75 3046,-326.75"/>
<text text-anchor="start" x="2903" y="-312.55" font-family="Times,serif" font-size="14.00">OrsoDataSource</text>
<text text-anchor="start" x="2886" y="-300.95" font-family="Times,serif" font-size="11.00">via:</text>
<text text-anchor="start" x="2907" y="-300.95" font-family="Times,serif" font-style="italic" font-size="11.00">build_orso_data_source</text>
</g>
<!-- OrsoOwner&#45;&gt;OrsoDataSource -->
<g id="edge8" class="edge">
<title>OrsoOwner:e&#45;&gt;OrsoDataSource:w</title>
<path fill="none" stroke="black" d="M588.5,-345.25C865.63,-345.25 934.87,-338.25 1212,-338.25 1212,-338.25 1212,-338.25 2476,-338.25 2622.91,-338.25 2659.7,-332.59 2806,-319.25 2834.48,-316.66 2843.71,-311.59 2867.92,-310.47"/>
<polygon fill="black" stroke="black" points="2868.08,-313.97 2878,-310.25 2867.93,-306.97 2868.08,-313.97"/>
</g>
<!-- OrsoIofQDataset -->
<g id="node28" class="node">
<title>OrsoIofQDataset</title>
<polygon fill="none" stroke="black" points="3287,-202.75 3118,-202.75 3118,-169.75 3287,-169.75 3287,-202.75"/>
<text text-anchor="start" x="3142.5" y="-188.55" font-family="Times,serif" font-size="14.00">OrsoIofQDataset</text>
<text text-anchor="start" x="3126" y="-176.95" font-family="Times,serif" font-size="11.00">via:</text>
<text text-anchor="start" x="3147" y="-176.95" font-family="Times,serif" font-style="italic" font-size="11.00">build_orso_iofq_dataset</text>
</g>
<!-- OrsoDataSource&#45;&gt;OrsoIofQDataset -->
<g id="edge15" class="edge">
<title>OrsoDataSource:e&#45;&gt;OrsoIofQDataset:w</title>
<path fill="none" stroke="black" d="M3046,-310.25C3105.99,-310.25 3060.36,-200.36 3107.98,-187.48"/>
<polygon fill="black" stroke="black" points="3108.5,-190.94 3118,-186.25 3107.65,-184 3108.5,-190.94"/>
</g>
<!-- OrsoSample&#45;&gt;OrsoDataSource -->
<g id="edge9" class="edge">
<title>OrsoSample:e&#45;&gt;OrsoDataSource:w</title>
<path fill="none" stroke="black" d="M591.5,-308.25C673.09,-308.25 693.43,-311.49 775,-313.25 969.2,-317.46 1017.75,-320.25 1212,-320.25 1212,-320.25 1212,-320.25 2476,-320.25 2622.7,-320.25 2659.37,-317.86 2806,-313.25 2834.39,-312.36 2843.86,-310.69 2867.97,-310.33"/>
<polygon fill="black" stroke="black" points="2868.03,-313.83 2878,-310.25 2867.97,-306.83 2868.03,-313.83"/>
</g>
<!-- OrsoExperiment&#45;&gt;OrsoDataSource -->
<g id="edge10" class="edge">
<title>OrsoExperiment:e&#45;&gt;OrsoDataSource:w</title>
<path fill="none" stroke="black" d="M602.5,-271.25C680.47,-271.25 697.41,-295.49 775,-303.25 968.28,-322.59 1017.75,-310.25 1212,-310.25 1212,-310.25 1212,-310.25 2476,-310.25 2651.26,-310.25 2697.58,-310.25 2867.94,-310.25"/>
<polygon fill="black" stroke="black" points="2868,-313.75 2878,-310.25 2868,-306.75 2868,-313.75"/>
</g>
<!-- OrsoMeasurement&#45;&gt;OrsoDataSource -->
<g id="edge11" class="edge">
<title>OrsoMeasurement:e&#45;&gt;OrsoDataSource:w</title>
<path fill="none" stroke="black" d="M2806,-286.25C2836.04,-286.25 2842.93,-305.29 2867.9,-309.46"/>
<polygon fill="black" stroke="black" points="2867.76,-312.95 2878,-310.25 2868.31,-305.98 2867.76,-312.95"/>
</g>
<!-- ReflectivityOverQ -->
<g id="node26" class="node">
<title>ReflectivityOverQ</title>
<polygon fill="none" stroke="black" points="2322,-167.75 2158,-167.75 2158,-134.75 2322,-134.75 2322,-167.75"/>
<text text-anchor="start" x="2176.5" y="-153.55" font-family="Times,serif" font-size="14.00">ReflectivityOverQ</text>
<text text-anchor="start" x="2166" y="-141.95" font-family="Times,serif" font-size="11.00">via:</text>
<text text-anchor="start" x="2187" y="-141.95" font-family="Times,serif" font-style="italic" font-size="11.00">reduce_sample_over_q</text>
</g>
<!-- OrsoInstrument -->
<g id="node27" class="node">
<title>OrsoInstrument</title>
<polygon fill="none" stroke="black" points="2556,-270.75 2394,-270.75 2394,-237.75 2556,-237.75 2556,-270.75"/>
<text text-anchor="start" x="2417.5" y="-256.55" font-family="Times,serif" font-size="14.00">OrsoInstrument</text>
<text text-anchor="start" x="2402" y="-244.95" font-family="Times,serif" font-size="11.00">via:</text>
<text text-anchor="start" x="2423" y="-244.95" font-family="Times,serif" font-style="italic" font-size="11.00">build_orso_instrument</text>
</g>
<!-- ReflectivityOverQ&#45;&gt;OrsoInstrument -->
<g id="edge13" class="edge">
<title>ReflectivityOverQ:e&#45;&gt;OrsoInstrument:w</title>
<path fill="none" stroke="black" d="M2322,-151.25C2374.14,-151.25 2343,-241.03 2384.08,-252.95"/>
<polygon fill="black" stroke="black" points="2383.63,-256.42 2394,-254.25 2384.54,-249.48 2383.63,-256.42"/>
</g>
<!-- ReflectivityOverQ&#45;&gt;OrsoIofQDataset -->
<g id="edge14" class="edge">
<title>ReflectivityOverQ:e&#45;&gt;OrsoIofQDataset:w</title>
<path fill="none" stroke="black" d="M2322,-151.25C2458.42,-151.25 2491.76,-168.39 2628,-175.25 2842.16,-186.05 2898.42,-186.25 3107.91,-186.25"/>
<polygon fill="black" stroke="black" points="3108,-189.75 3118,-186.25 3108,-182.75 3108,-189.75"/>
</g>
<!-- OrsoInstrument&#45;&gt;OrsoMeasurement -->
<g id="edge19" class="edge">
<title>OrsoInstrument:e&#45;&gt;OrsoMeasurement:w</title>
<path fill="none" stroke="black" d="M2556,-254.25C2587.32,-254.25 2592.2,-279.86 2617.95,-285.26"/>
<polygon fill="black" stroke="black" points="2617.7,-288.75 2628,-286.25 2618.39,-281.79 2617.7,-288.75"/>
</g>
<!-- OrsoReduction&#45;&gt;OrsoIofQDataset -->
<g id="edge16" class="edge">
<title>OrsoReduction:e&#45;&gt;OrsoIofQDataset:w</title>
<path fill="none" stroke="black" d="M3040,-162.25C3072.59,-162.25 3080.3,-181.63 3107.84,-185.56"/>
<polygon fill="black" stroke="black" points="3107.79,-189.07 3118,-186.25 3108.26,-182.08 3107.79,-189.07"/>
</g>
<!-- OrsoSampleFilenames&#45;&gt;OrsoMeasurement -->
<g id="edge17" class="edge">
<title>OrsoSampleFilenames:e&#45;&gt;OrsoMeasurement:w</title>
<path fill="none" stroke="black" d="M606.5,-234.25C650.39,-234.25 661.77,-240.21 703,-255.25 736.99,-267.66 739.95,-284.27 775,-293.25 869.08,-317.36 1114.88,-300.25 1212,-300.25 1212,-300.25 1212,-300.25 2241,-300.25 2409.58,-300.25 2454.08,-286.82 2617.57,-286.27"/>
<polygon fill="black" stroke="black" points="2618.01,-289.77 2628,-286.25 2617.99,-282.77 2618.01,-289.77"/>
</g>
<!-- ProtonCurrent[SampleRun]&#45;&gt;ReducibleData[SampleRun] -->
<g id="edge41" class="edge">
<title>ProtonCurrent[SampleRun]:e&#45;&gt;ReducibleData[SampleRun]:w</title>
<path fill="none" stroke="black" d="M624.5,-86.25C691.87,-86.25 707.77,-72.47 775,-68.25 836.66,-64.39 1271.68,-49.02 1331,-66.25 1369.58,-77.47 1370.67,-112.46 1404.14,-118.4"/>
<polygon fill="black" stroke="black" points="1404.25,-121.92 1414.5,-119.25 1404.82,-114.94 1404.25,-121.92"/>
</g>
<!-- QBins -->
<g id="node32" class="node">
<title>QBins</title>
<polygon fill="none" stroke="black" points="1581,-33.75 1522,-33.75 1522,-10.75 1581,-10.75 1581,-33.75"/>
<text text-anchor="middle" x="1551.5" y="-18.55" font-family="Times,serif" font-size="14.00">QBins</text>
</g>
<!-- QBins&#45;&gt;ReflectivityOverQ -->
<g id="edge50" class="edge">
<title>QBins:e&#45;&gt;ReflectivityOverQ:w</title>
<path fill="none" stroke="black" d="M1582.5,-22.25C1806.88,-22.25 1888.03,46.36 2086,-59.25 2128.41,-81.88 2109.5,-141.46 2147.66,-150.18"/>
<polygon fill="black" stroke="black" points="2147.69,-153.7 2158,-151.25 2148.41,-146.74 2147.69,-153.7"/>
</g>
<!-- QBins&#45;&gt;Reference -->
<g id="edge45" class="edge">
<title>QBins:e&#45;&gt;Reference:w</title>
<path fill="none" stroke="black" d="M1582.5,-22.25C1635.15,-22.25 1649.03,-24.08 1700,-37.25 1744.26,-48.69 1752.64,-74.2 1792.96,-77.82"/>
<polygon fill="black" stroke="black" points="1792.86,-81.32 1803,-78.25 1793.16,-74.33 1792.86,-81.32"/>
</g>
<!-- RawDetectorData[SampleRun]&#45;&gt;ReducibleData[SampleRun] -->
<g id="edge36" class="edge">
<title>RawDetectorData[SampleRun]:e&#45;&gt;ReducibleData[SampleRun]:w</title>
<path fill="none" stroke="black" d="M1331,-191.25C1376.17,-191.25 1367.38,-130.06 1404.12,-120.5"/>
<polygon fill="black" stroke="black" points="1404.99,-123.92 1414.5,-119.25 1404.15,-116.97 1404.99,-123.92"/>
</g>
<!-- SampleRotation[SampleRun] -->
<g id="node34" class="node">
<title>SampleRotation[SampleRun]</title>
<polygon fill="none" stroke="black" points="1010.5,-292.75 787.5,-292.75 787.5,-269.75 1010.5,-269.75 1010.5,-292.75"/>
<text text-anchor="middle" x="899" y="-277.55" font-family="Times,serif" font-size="14.00">SampleRotation[SampleRun]</text>
</g>
<!-- SampleRotation[SampleRun]&#45;&gt;RawDetectorData[SampleRun] -->
<g id="edge28" class="edge">
<title>SampleRotation[SampleRun]:e&#45;&gt;RawDetectorData[SampleRun]:w</title>
<path fill="none" stroke="black" d="M1011,-281.25C1061.98,-281.25 1043.39,-203.14 1084.85,-192.46"/>
<polygon fill="black" stroke="black" points="1085.48,-195.91 1095,-191.25 1084.66,-188.96 1085.48,-195.91"/>
</g>
<!-- SampleSize[SampleRun] -->
<g id="node35" class="node">
<title>SampleSize[SampleRun]</title>
<polygon fill="none" stroke="black" points="995,-265.75 803,-265.75 803,-242.75 995,-242.75 995,-265.75"/>
<text text-anchor="middle" x="899" y="-250.55" font-family="Times,serif" font-size="14.00">SampleSize[SampleRun]</text>
</g>
<!-- SampleSize[SampleRun]&#45;&gt;RawDetectorData[SampleRun] -->
<g id="edge33" class="edge">
<title>SampleSize[SampleRun]:e&#45;&gt;RawDetectorData[SampleRun]:w</title>
<path fill="none" stroke="black" d="M996,-254.25C1044.49,-254.25 1043.31,-199.8 1084.81,-192.14"/>
<polygon fill="black" stroke="black" points="1085.34,-195.61 1095,-191.25 1084.73,-188.64 1085.34,-195.61"/>
</g>
<!-- ReducedReference -->
<g id="node36" class="node">
<title>ReducedReference</title>
<polygon fill="none" stroke="black" points="1626.5,-98.75 1476.5,-98.75 1476.5,-75.75 1626.5,-75.75 1626.5,-98.75"/>
<text text-anchor="middle" x="1551.5" y="-83.55" font-family="Times,serif" font-size="14.00">ReducedReference</text>
</g>
<!-- ReducedReference&#45;&gt;Reference -->
<g id="edge43" class="edge">
<title>ReducedReference:e&#45;&gt;Reference:w</title>
<path fill="none" stroke="black" d="M1627.5,-87.25C1702.09,-87.25 1723.05,-79.04 1792.82,-78.31"/>
<polygon fill="black" stroke="black" points="1793.02,-81.81 1803,-78.25 1792.98,-74.81 1793.02,-81.81"/>
</g>
<!-- ReducedReference&#45;&gt;Sample -->
<g id="edge52" class="edge">
<title>ReducedReference:e&#45;&gt;Sample:w</title>
<path fill="none" stroke="black" d="M1627.5,-87.25C1660.4,-87.25 1669.7,-89.42 1700,-102.25 1732.16,-115.88 1733.39,-144.81 1761.76,-150.33"/>
<polygon fill="black" stroke="black" points="1761.73,-153.84 1772,-151.25 1762.35,-146.87 1761.73,-153.84"/>
</g>
<!-- ReducibleData[SampleRun]&#45;&gt;Reference -->
<g id="edge44" class="edge">
<title>ReducibleData[SampleRun]:e&#45;&gt;Reference:w</title>
<path fill="none" stroke="black" d="M1688.5,-119.25C1738.96,-119.25 1747.89,-83.52 1792.83,-78.77"/>
<polygon fill="black" stroke="black" points="1793.19,-82.26 1803,-78.25 1792.83,-75.27 1793.19,-82.26"/>
</g>
<!-- ReducibleData[SampleRun]&#45;&gt;Sample -->
<g id="edge51" class="edge">
<title>ReducibleData[SampleRun]:e&#45;&gt;Sample:w</title>
<path fill="none" stroke="black" d="M1688.5,-119.25C1724.52,-119.25 1731.19,-145.54 1761.71,-150.46"/>
<polygon fill="black" stroke="black" points="1761.76,-153.98 1772,-151.25 1762.3,-147 1761.76,-153.98"/>
</g>
<!-- YIndexLimits -->
<g id="node38" class="node">
<title>YIndexLimits</title>
<polygon fill="none" stroke="black" points="1268,-170.75 1158,-170.75 1158,-147.75 1268,-147.75 1268,-170.75"/>
<text text-anchor="middle" x="1213" y="-155.55" font-family="Times,serif" font-size="14.00">YIndexLimits</text>
</g>
<!-- YIndexLimits&#45;&gt;ReducibleData[SampleRun] -->
<g id="edge37" class="edge">
<title>YIndexLimits:e&#45;&gt;ReducibleData[SampleRun]:w</title>
<path fill="none" stroke="black" d="M1269,-159.25C1332.53,-159.25 1346.08,-123.36 1404.34,-119.58"/>
<polygon fill="black" stroke="black" points="1404.62,-123.07 1414.5,-119.25 1404.39,-116.07 1404.62,-123.07"/>
</g>
<!-- ZIndexLimits -->
<g id="node39" class="node">
<title>ZIndexLimits</title>
<polygon fill="none" stroke="black" points="1268.5,-143.75 1157.5,-143.75 1157.5,-120.75 1268.5,-120.75 1268.5,-143.75"/>
<text text-anchor="middle" x="1213" y="-128.55" font-family="Times,serif" font-size="14.00">ZIndexLimits</text>
</g>
<!-- ZIndexLimits&#45;&gt;ReducibleData[SampleRun] -->
<g id="edge38" class="edge">
<title>ZIndexLimits:e&#45;&gt;ReducibleData[SampleRun]:w</title>
<path fill="none" stroke="black" d="M1269,-132.25C1330.37,-132.25 1347.72,-120.64 1404.27,-119.37"/>
<polygon fill="black" stroke="black" points="1404.54,-122.86 1414.5,-119.25 1404.46,-115.86 1404.54,-122.86"/>
</g>
<!-- WavelengthBins -->
<g id="node40" class="node">
<title>WavelengthBins</title>
<polygon fill="none" stroke="black" points="1279,-116.75 1147,-116.75 1147,-93.75 1279,-93.75 1279,-116.75"/>
<text text-anchor="middle" x="1213" y="-101.55" font-family="Times,serif" font-size="14.00">WavelengthBins</text>
</g>
<!-- WavelengthBins&#45;&gt;ReducibleData[SampleRun] -->
<g id="edge40" class="edge">
<title>WavelengthBins:e&#45;&gt;ReducibleData[SampleRun]:w</title>
<path fill="none" stroke="black" d="M1280,-105.25C1336.58,-105.25 1352.57,-117.66 1404.39,-119.12"/>
<polygon fill="black" stroke="black" points="1404.45,-122.62 1414.5,-119.25 1404.55,-115.62 1404.45,-122.62"/>
</g>
<!-- Reference&#45;&gt;ReflectivityOverQ -->
<g id="edge49" class="edge">
<title>Reference:e&#45;&gt;ReflectivityOverQ:w</title>
<path fill="none" stroke="black" d="M2055,-78.25C2107.49,-78.25 2102.81,-142.15 2147.93,-150.38"/>
<polygon fill="black" stroke="black" points="2147.74,-153.88 2158,-151.25 2148.34,-146.91 2147.74,-153.88"/>
</g>
<!-- Sample&#45;&gt;ReflectivityOverQ -->
<g id="edge48" class="edge">
<title>Sample:e&#45;&gt;ReflectivityOverQ:w</title>
<path fill="none" stroke="black" d="M2086,-151.25C2114.38,-151.25 2123.88,-151.25 2147.98,-151.25"/>
<polygon fill="black" stroke="black" points="2148,-154.75 2158,-151.25 2148,-147.75 2148,-154.75"/>
</g>
</g>
</svg>
