<?xml version="1.0" encoding="UTF-8" standalone="no"?>
<!DOCTYPE svg PUBLIC "-//W3C//DTD SVG 1.1//EN"
 "http://www.w3.org/Graphics/SVG/1.1/DTD/svg11.dtd">
<!-- Generated by graphviz version 2.43.0 (0)
 -->
<!-- Title: %3 Pages: 1 -->
<svg width="3105pt" height="601pt"
 viewBox="0.00 0.00 3105.00 600.52" xmlns="http://www.w3.org/2000/svg" xmlns:xlink="http://www.w3.org/1999/xlink">
<g id="graph0" class="graph" transform="scale(1 1) rotate(0) translate(4 596.52)">
<title>%3</title>
<polygon fill="white" stroke="transparent" points="-4,4 -4,-596.52 3101,-596.52 3101,4 -4,4"/>
<g id="clust3" class="cluster">
<title>cluster_CoordTransformationGraph</title>
<polygon fill="#f0f0ff" stroke="#f0f0ff" points="728.5,-197 728.5,-293 952.5,-293 952.5,-197 728.5,-197"/>
<text text-anchor="start" x="741.5" y="-278.8" font-family="Times,serif" font-size="14.00">CoordTransformationGraph</text>
<text text-anchor="start" x="736.5" y="-267.2" font-family="Times,serif" font-size="11.00">via:</text>
<text text-anchor="start" x="757.5" y="-267.2" font-family="Times,serif" font-style="italic" font-size="11.00">coordinate_transformation_graph</text>
</g>
<g id="clust11" class="cluster">
<title>cluster_Filename</title>
<polygon fill="#f0f0ff" stroke="#f0f0ff" points="23,-309 23,-395 149,-395 149,-309 23,-309"/>
<text text-anchor="middle" x="86" y="-379.8" font-family="Times,serif" font-size="14.00">Filename</text>
</g>
<g id="clust7" class="cluster">
<title>cluster_DetectorLtotal</title>
<polygon fill="#f0f0ff" stroke="#f0f0ff" points="1107.5,-338 1107.5,-434 1286.5,-434 1286.5,-338 1107.5,-338"/>
<text text-anchor="start" x="1144.5" y="-419.8" font-family="Times,serif" font-size="14.00">DetectorLtotal</text>
<text text-anchor="start" x="1115.5" y="-408.2" font-family="Times,serif" font-size="11.00">via:</text>
<text text-anchor="start" x="1136.5" y="-408.2" font-family="Times,serif" font-style="italic" font-size="11.00">detector_ltotal_from_raw</text>
</g>
<g id="clust8" class="cluster">
<title>cluster_DetectorRotation</title>
<polygon fill="#f0f0ff" stroke="#f0f0ff" points="459.5,-328 459.5,-424 623.5,-424 623.5,-328 459.5,-328"/>
<text text-anchor="start" x="479.5" y="-409.8" font-family="Times,serif" font-size="14.00">DetectorRotation</text>
<text text-anchor="start" x="467.5" y="-398.2" font-family="Times,serif" font-size="11.00">via:</text>
<text text-anchor="start" x="488.5" y="-398.2" font-family="Times,serif" font-style="italic" font-size="11.00">load_detector_rotation</text>
</g>
<g id="clust18" class="cluster">
<title>cluster_Position</title>
<polygon fill="#f0f0ff" stroke="#f0f0ff" points="444,-112 444,-288 639,-288 639,-112 444,-112"/>
<text text-anchor="middle" x="541.5" y="-272.8" font-family="Times,serif" font-size="14.00">Position</text>
</g>
<g id="clust19" class="cluster">
<title>cluster_ProtonCurrent</title>
<polygon fill="#f0f0ff" stroke="#f0f0ff" points="1443.5,-450 1443.5,-536 1569.5,-536 1569.5,-450 1443.5,-450"/>
<text text-anchor="middle" x="1506.5" y="-520.8" font-family="Times,serif" font-size="14.00">ProtonCurrent</text>
</g>
<g id="clust22" class="cluster">
<title>cluster_RawDetector</title>
<polygon fill="#f0f0ff" stroke="#f0f0ff" points="229,-262 229,-358 388,-358 388,-262 229,-262"/>
<text text-anchor="start" x="261.5" y="-343.8" font-family="Times,serif" font-size="14.00">RawDetector</text>
<text text-anchor="start" x="237" y="-332.2" font-family="Times,serif" font-size="11.00">via:</text>
<text text-anchor="start" x="258" y="-332.2" font-family="Times,serif" font-style="italic" font-size="11.00">load_mcstas_provider</text>
</g>
<g id="clust24" class="cluster">
<title>cluster_ReducibleData</title>
<polygon fill="#f0f0ff" stroke="#f0f0ff" points="1663,-256 1663,-352 1935,-352 1935,-256 1663,-256"/>
<text text-anchor="start" x="1746.5" y="-337.8" font-family="Times,serif" font-size="14.00">ReducibleData</text>
<text text-anchor="start" x="1671" y="-326.2" font-family="Times,serif" font-size="11.00">via:</text>
<text text-anchor="start" x="1692" y="-326.2" font-family="Times,serif" font-style="italic" font-size="11.00">add_coords_masks_and_apply_corrections</text>
</g>
<g id="clust28" class="cluster">
<title>cluster_SampleRotationOffset</title>
<polygon fill="#f0f0ff" stroke="#f0f0ff" points="0,-215 0,-301 173,-301 173,-215 0,-215"/>
<text text-anchor="middle" x="86.5" y="-285.8" font-family="Times,serif" font-size="14.00">SampleRotationOffset</text>
</g>
<g id="clust29" class="cluster">
<title>cluster_SampleRotation</title>
<polygon fill="#f0f0ff" stroke="#f0f0ff" points="462.5,-8 462.5,-104 620.5,-104 620.5,-8 462.5,-8"/>
<text text-anchor="start" x="484" y="-89.8" font-family="Times,serif" font-size="14.00">SampleRotation</text>
<text text-anchor="start" x="470.5" y="-78.2" font-family="Times,serif" font-size="11.00">via:</text>
<text text-anchor="start" x="491.5" y="-78.2" font-family="Times,serif" font-style="italic" font-size="11.00">load_sample_rotation</text>
</g>
<g id="clust31" class="cluster">
<title>cluster_WavelengthDetector</title>
<polygon fill="#f0f0ff" stroke="#f0f0ff" points="1414.5,-346 1414.5,-442 1599.5,-442 1599.5,-346 1414.5,-346"/>
<text text-anchor="start" x="1433.5" y="-427.8" font-family="Times,serif" font-size="14.00">WavelengthDetector</text>
<text text-anchor="start" x="1422.5" y="-416.2" font-family="Times,serif" font-size="11.00">via:</text>
<text text-anchor="start" x="1443.5" y="-416.2" font-family="Times,serif" font-style="italic" font-size="11.00">detector_wavelength_data</text>
</g>
<!-- Alpha -->
<g id="node1" class="node">
<title>Alpha</title>
<polygon fill="none" stroke="black" points="1827.5,-437.5 1770.5,-437.5 1770.5,-414.5 1827.5,-414.5 1827.5,-437.5"/>
<text text-anchor="middle" x="1799" y="-422.3" font-family="Times,serif" font-size="14.00">Alpha</text>
</g>
<!-- ReducedReference -->
<g id="node39" class="node">
<title>ReducedReference</title>
<polygon fill="none" stroke="black" points="2176.5,-364.5 2026.5,-364.5 2026.5,-331.5 2176.5,-331.5 2176.5,-364.5"/>
<text text-anchor="start" x="2034.5" y="-350.3" font-family="Times,serif" font-size="14.00">ReducedReference</text>
<text text-anchor="start" x="2042" y="-338.7" font-family="Times,serif" font-size="11.00">via:</text>
<text text-anchor="start" x="2063" y="-338.7" font-family="Times,serif" font-style="italic" font-size="11.00">reduce_reference</text>
</g>
<!-- Alpha&#45;&gt;ReducedReference -->
<g id="edge34" class="edge">
<title>Alpha:e&#45;&gt;ReducedReference:w</title>
<path fill="none" stroke="black" d="M1829,-426C1876.58,-426 1890.71,-428.4 1935,-411 1977.23,-394.41 1976.83,-354.54 2015.42,-348.72"/>
<polygon fill="black" stroke="black" points="2015.77,-352.2 2025.5,-348 2015.28,-345.22 2015.77,-352.2"/>
</g>
<!-- Sample -->
<g id="node46" class="node">
<title>Sample</title>
<polygon fill="none" stroke="black" points="2590,-384.5 2276,-384.5 2276,-351.5 2590,-351.5 2590,-384.5"/>
<text text-anchor="start" x="2406" y="-370.3" font-family="Times,serif" font-size="14.00">Sample</text>
<text text-anchor="start" x="2284" y="-358.7" font-family="Times,serif" font-size="11.00">via:</text>
<text text-anchor="start" x="2305" y="-358.7" font-family="Times,serif" font-style="italic" font-size="11.00">mask_events_where_supermirror_does_not_cover</text>
</g>
<!-- Alpha&#45;&gt;Sample -->
<g id="edge57" class="edge">
<title>Alpha:e&#45;&gt;Sample:w</title>
<path fill="none" stroke="black" d="M1829,-426C1996.71,-426 2038.57,-411.56 2204,-384 2232.67,-379.22 2241.33,-370.34 2265.78,-368.39"/>
<polygon fill="black" stroke="black" points="2266.14,-371.87 2276,-368 2265.88,-364.88 2266.14,-371.87"/>
</g>
<!-- BeamDivergenceLimits -->
<g id="node2" class="node">
<title>BeamDivergenceLimits</title>
<polygon fill="none" stroke="black" points="1598,-327.5 1415,-327.5 1415,-304.5 1598,-304.5 1598,-327.5"/>
<text text-anchor="middle" x="1506.5" y="-312.3" font-family="Times,serif" font-size="14.00">BeamDivergenceLimits</text>
</g>
<!-- ReducibleData[ReferenceRun] -->
<g id="node38" class="node">
<title>ReducibleData[ReferenceRun]</title>
<polygon fill="none" stroke="black" points="1854,-285.5 1744,-285.5 1744,-264.5 1854,-264.5 1854,-285.5"/>
<text text-anchor="start" x="1752" y="-271.9" font-family="Times,serif" font-size="12.00">[ReferenceRun]</text>
</g>
<!-- BeamDivergenceLimits&#45;&gt;ReducibleData[ReferenceRun] -->
<g id="edge38" class="edge">
<title>BeamDivergenceLimits:e&#45;&gt;ReducibleData[ReferenceRun]:w</title>
<path fill="none" stroke="black" stroke-width="2" d="M1599.5,-316C1626.3,-316 1632.45,-302.58 1653.4,-293.47"/>
<polygon fill="black" stroke="black" stroke-width="2" points="1654.79,-296.69 1663,-290 1652.41,-290.11 1654.79,-296.69"/>
</g>
<!-- Position[NXsource, ReferenceRun] -->
<g id="node3" class="node">
<title>Position[NXsource, ReferenceRun]</title>
<polygon fill="none" stroke="black" points="630,-186.5 453,-186.5 453,-155.5 630,-155.5 630,-186.5"/>
<text text-anchor="start" x="461" y="-173.9" font-family="Times,serif" font-size="12.00">[NXsource, ReferenceRun]</text>
<text text-anchor="start" x="472" y="-162.7" font-family="Times,serif" font-size="11.00">via:</text>
<text text-anchor="start" x="493" y="-162.7" font-family="Times,serif" font-style="italic" font-size="11.00">load_source_position</text>
</g>
<!-- CoordTransformationGraph[ReferenceRun] -->
<g id="node4" class="node">
<title>CoordTransformationGraph[ReferenceRun]</title>
<polygon fill="none" stroke="black" points="895.5,-226.5 785.5,-226.5 785.5,-205.5 895.5,-205.5 895.5,-226.5"/>
<text text-anchor="start" x="793.5" y="-212.9" font-family="Times,serif" font-size="12.00">[ReferenceRun]</text>
</g>
<!-- Position[NXsource, ReferenceRun]&#45;&gt;CoordTransformationGraph[ReferenceRun] -->
<g id="edge1" class="edge">
<title>Position[NXsource, ReferenceRun]:e&#45;&gt;CoordTransformationGraph[ReferenceRun]:w</title>
<path fill="none" stroke="black" d="M630.5,-171C698.32,-171 711.94,-211.71 774.47,-215.69"/>
<polygon fill="black" stroke="black" points="774.4,-219.19 784.5,-216 774.61,-212.19 774.4,-219.19"/>
</g>
<!-- DetectorLtotal[ReferenceRun] -->
<g id="node17" class="node">
<title>DetectorLtotal[ReferenceRun]</title>
<polygon fill="none" stroke="black" points="1251.5,-367.5 1141.5,-367.5 1141.5,-346.5 1251.5,-346.5 1251.5,-367.5"/>
<text text-anchor="start" x="1149.5" y="-353.9" font-family="Times,serif" font-size="12.00">[ReferenceRun]</text>
</g>
<!-- CoordTransformationGraph[ReferenceRun]&#45;&gt;DetectorLtotal[ReferenceRun] -->
<g id="edge11" class="edge">
<title>CoordTransformationGraph[ReferenceRun]:e&#45;&gt;DetectorLtotal[ReferenceRun]:w</title>
<path fill="none" stroke="black" d="M896.5,-216C933.33,-216 944.38,-215.96 978,-231 1058.16,-266.87 1049.93,-350.15 1130.25,-356.6"/>
<polygon fill="black" stroke="black" points="1130.37,-360.11 1140.5,-357 1130.64,-353.11 1130.37,-360.11"/>
</g>
<!-- Reference -->
<g id="node31" class="node">
<title>Reference</title>
<polygon fill="none" stroke="black" points="2505.5,-316.5 2360.5,-316.5 2360.5,-283.5 2505.5,-283.5 2505.5,-316.5"/>
<text text-anchor="start" x="2396.5" y="-302.3" font-family="Times,serif" font-size="14.00">Reference</text>
<text text-anchor="start" x="2368.5" y="-290.7" font-family="Times,serif" font-size="11.00">via:</text>
<text text-anchor="start" x="2389.5" y="-290.7" font-family="Times,serif" font-style="italic" font-size="11.00">evaluate_reference</text>
</g>
<!-- CoordTransformationGraph[ReferenceRun]&#45;&gt;Reference -->
<g id="edge48" class="edge">
<title>CoordTransformationGraph[ReferenceRun]:e&#45;&gt;Reference:w</title>
<path fill="none" stroke="black" d="M896.5,-216C930.4,-216 1471.6,-178 1505.5,-178 1505.5,-178 1505.5,-178 1800,-178 2050.82,-178 2103.29,-296.69 2348.68,-299.93"/>
<polygon fill="black" stroke="black" points="2348.98,-303.43 2359,-300 2349.02,-296.43 2348.98,-303.43"/>
</g>
<!-- CoordTransformationGraph[ReferenceRun]&#45;&gt;ReducibleData[ReferenceRun] -->
<g id="edge41" class="edge">
<title>CoordTransformationGraph[ReferenceRun]:e&#45;&gt;ReducibleData[ReferenceRun]:w</title>
<path fill="none" stroke="black" d="M896.5,-216C1052.73,-216 1445.76,-195.21 1599.5,-223 1662.73,-234.43 1674.06,-270.87 1732.74,-274.68"/>
<polygon fill="black" stroke="black" points="1732.89,-278.18 1743,-275 1733.12,-271.19 1732.89,-278.18"/>
</g>
<!-- Position[NXsample, ReferenceRun] -->
<g id="node5" class="node">
<title>Position[NXsample, ReferenceRun]</title>
<polygon fill="none" stroke="black" points="631,-151.5 452,-151.5 452,-120.5 631,-120.5 631,-151.5"/>
<text text-anchor="start" x="460" y="-138.9" font-family="Times,serif" font-size="12.00">[NXsample, ReferenceRun]</text>
<text text-anchor="start" x="470.5" y="-127.7" font-family="Times,serif" font-size="11.00">via:</text>
<text text-anchor="start" x="491.5" y="-127.7" font-family="Times,serif" font-style="italic" font-size="11.00">load_sample_position</text>
</g>
<!-- Position[NXsample, ReferenceRun]&#45;&gt;CoordTransformationGraph[ReferenceRun] -->
<g id="edge2" class="edge">
<title>Position[NXsample, ReferenceRun]:e&#45;&gt;CoordTransformationGraph[ReferenceRun]:w</title>
<path fill="none" stroke="black" d="M632.5,-136C705.26,-136 708.05,-208.68 774.26,-215.49"/>
<polygon fill="black" stroke="black" points="774.34,-219 784.5,-216 774.69,-212.01 774.34,-219"/>
</g>
<!-- SampleRotation[ReferenceRun] -->
<g id="node6" class="node">
<title>SampleRotation[ReferenceRun]</title>
<polygon fill="none" stroke="black" points="596.5,-37.5 486.5,-37.5 486.5,-16.5 596.5,-16.5 596.5,-37.5"/>
<text text-anchor="start" x="494.5" y="-23.9" font-family="Times,serif" font-size="12.00">[ReferenceRun]</text>
</g>
<!-- SampleRotation[ReferenceRun]&#45;&gt;CoordTransformationGraph[ReferenceRun] -->
<g id="edge3" class="edge">
<title>SampleRotation[ReferenceRun]:e&#45;&gt;CoordTransformationGraph[ReferenceRun]:w</title>
<path fill="none" stroke="black" d="M597.5,-27C712.09,-27 669.17,-204.73 774.22,-215.49"/>
<polygon fill="black" stroke="black" points="774.34,-219 784.5,-216 774.69,-212.01 774.34,-219"/>
</g>
<!-- DetectorRotation[ReferenceRun] -->
<g id="node7" class="node">
<title>DetectorRotation[ReferenceRun]</title>
<polygon fill="none" stroke="black" points="596.5,-357.5 486.5,-357.5 486.5,-336.5 596.5,-336.5 596.5,-357.5"/>
<text text-anchor="start" x="494.5" y="-343.9" font-family="Times,serif" font-size="12.00">[ReferenceRun]</text>
</g>
<!-- DetectorRotation[ReferenceRun]&#45;&gt;CoordTransformationGraph[ReferenceRun] -->
<g id="edge4" class="edge">
<title>DetectorRotation[ReferenceRun]:e&#45;&gt;CoordTransformationGraph[ReferenceRun]:w</title>
<path fill="none" stroke="black" d="M597.5,-347C667.19,-347 644.33,-268.6 703,-231 730.98,-213.07 744.84,-215.28 774.33,-215.89"/>
<polygon fill="black" stroke="black" points="774.46,-219.39 784.5,-216 774.54,-212.39 774.46,-219.39"/>
</g>
<!-- DetectorBankSizes -->
<g id="node8" class="node">
<title>DetectorBankSizes</title>
<polygon fill="none" stroke="black" points="617.5,-319.5 465.5,-319.5 465.5,-296.5 617.5,-296.5 617.5,-319.5"/>
<text text-anchor="middle" x="541.5" y="-304.3" font-family="Times,serif" font-size="14.00">DetectorBankSizes</text>
</g>
<!-- DetectorBankSizes&#45;&gt;CoordTransformationGraph[ReferenceRun] -->
<g id="edge5" class="edge">
<title>DetectorBankSizes:e&#45;&gt;CoordTransformationGraph[ReferenceRun]:w</title>
<path fill="none" stroke="black" stroke-width="2" d="M618.5,-308C669.31,-308 657.48,-253.58 703,-231 708.8,-228.12 713.95,-225.79 718.68,-223.91"/>
<polygon fill="black" stroke="black" stroke-width="2" points="720.23,-227.07 728.5,-220.45 717.91,-220.47 720.23,-227.07"/>
</g>
<!-- Position[NXsource, SampleRun] -->
<g id="node9" class="node">
<title>Position[NXsource, SampleRun]</title>
<polygon fill="none" stroke="black" points="622,-256.5 461,-256.5 461,-225.5 622,-225.5 622,-256.5"/>
<text text-anchor="start" x="469" y="-243.9" font-family="Times,serif" font-size="12.00">[NXsource, SampleRun]</text>
<text text-anchor="start" x="472" y="-232.7" font-family="Times,serif" font-size="11.00">via:</text>
<text text-anchor="start" x="493" y="-232.7" font-family="Times,serif" font-style="italic" font-size="11.00">load_source_position</text>
</g>
<!-- CoordTransformationGraph[SampleRun] -->
<g id="node10" class="node">
<title>CoordTransformationGraph[SampleRun]</title>
<polygon fill="none" stroke="black" points="888,-251.5 793,-251.5 793,-230.5 888,-230.5 888,-251.5"/>
<text text-anchor="start" x="801" y="-237.9" font-family="Times,serif" font-size="12.00">[SampleRun]</text>
</g>
<!-- Position[NXsource, SampleRun]&#45;&gt;CoordTransformationGraph[SampleRun] -->
<g id="edge6" class="edge">
<title>Position[NXsource, SampleRun]:e&#45;&gt;CoordTransformationGraph[SampleRun]:w</title>
<path fill="none" stroke="black" d="M623.5,-241C694.67,-241 714.96,-241 781.36,-241"/>
<polygon fill="black" stroke="black" points="781.5,-244.5 791.5,-241 781.5,-237.5 781.5,-244.5"/>
</g>
<!-- DetectorLtotal[SampleRun] -->
<g id="node19" class="node">
<title>DetectorLtotal[SampleRun]</title>
<polygon fill="none" stroke="black" points="1244,-392.5 1149,-392.5 1149,-371.5 1244,-371.5 1244,-392.5"/>
<text text-anchor="start" x="1157" y="-378.9" font-family="Times,serif" font-size="12.00">[SampleRun]</text>
</g>
<!-- CoordTransformationGraph[SampleRun]&#45;&gt;DetectorLtotal[SampleRun] -->
<g id="edge13" class="edge">
<title>CoordTransformationGraph[SampleRun]:e&#45;&gt;DetectorLtotal[SampleRun]:w</title>
<path fill="none" stroke="black" d="M889.5,-241C980.46,-241 966.43,-332.07 1050,-368 1086.92,-383.87 1101.33,-382.4 1137.31,-382.05"/>
<polygon fill="black" stroke="black" points="1137.52,-385.55 1147.5,-382 1137.48,-378.55 1137.52,-385.55"/>
</g>
<!-- ReducibleData[SampleRun] -->
<g id="node45" class="node">
<title>ReducibleData[SampleRun]</title>
<polygon fill="none" stroke="black" points="1846.5,-310.5 1751.5,-310.5 1751.5,-289.5 1846.5,-289.5 1846.5,-310.5"/>
<text text-anchor="start" x="1759.5" y="-296.9" font-family="Times,serif" font-size="12.00">[SampleRun]</text>
</g>
<!-- CoordTransformationGraph[SampleRun]&#45;&gt;ReducibleData[SampleRun] -->
<g id="edge45" class="edge">
<title>CoordTransformationGraph[SampleRun]:e&#45;&gt;ReducibleData[SampleRun]:w</title>
<path fill="none" stroke="black" d="M889.5,-241C1207.42,-241 1282.93,-357.2 1599.5,-328 1663.68,-322.08 1680.26,-302.25 1739.67,-300.18"/>
<polygon fill="black" stroke="black" points="1740.06,-303.67 1750,-300 1739.94,-296.67 1740.06,-303.67"/>
</g>
<!-- Position[NXsample, SampleRun] -->
<g id="node11" class="node">
<title>Position[NXsample, SampleRun]</title>
<polygon fill="none" stroke="black" points="623.5,-221.5 459.5,-221.5 459.5,-190.5 623.5,-190.5 623.5,-221.5"/>
<text text-anchor="start" x="467.5" y="-208.9" font-family="Times,serif" font-size="12.00">[NXsample, SampleRun]</text>
<text text-anchor="start" x="470.5" y="-197.7" font-family="Times,serif" font-size="11.00">via:</text>
<text text-anchor="start" x="491.5" y="-197.7" font-family="Times,serif" font-style="italic" font-size="11.00">load_sample_position</text>
</g>
<!-- Position[NXsample, SampleRun]&#45;&gt;CoordTransformationGraph[SampleRun] -->
<g id="edge7" class="edge">
<title>Position[NXsample, SampleRun]:e&#45;&gt;CoordTransformationGraph[SampleRun]:w</title>
<path fill="none" stroke="black" d="M624.5,-206C660.62,-206 667.67,-219.5 703,-227 738.45,-234.53 749.69,-239.95 781.45,-240.86"/>
<polygon fill="black" stroke="black" points="781.45,-244.36 791.5,-241 781.55,-237.36 781.45,-244.36"/>
</g>
<!-- SampleRotation[SampleRun] -->
<g id="node12" class="node">
<title>SampleRotation[SampleRun]</title>
<polygon fill="none" stroke="black" points="589,-62.5 494,-62.5 494,-41.5 589,-41.5 589,-62.5"/>
<text text-anchor="start" x="502" y="-48.9" font-family="Times,serif" font-size="12.00">[SampleRun]</text>
</g>
<!-- SampleRotation[SampleRun]&#45;&gt;CoordTransformationGraph[SampleRun] -->
<g id="edge8" class="edge">
<title>SampleRotation[SampleRun]:e&#45;&gt;CoordTransformationGraph[SampleRun]:w</title>
<path fill="none" stroke="black" d="M590.5,-52C624.44,-52 619.94,-82.91 639,-111 672.06,-159.73 654.8,-193.18 703,-227 732.67,-247.82 748.66,-242.34 781.31,-241.19"/>
<polygon fill="black" stroke="black" points="781.57,-244.68 791.5,-241 781.44,-237.68 781.57,-244.68"/>
</g>
<!-- DetectorRotation[SampleRun] -->
<g id="node13" class="node">
<title>DetectorRotation[SampleRun]</title>
<polygon fill="none" stroke="black" points="589,-382.5 494,-382.5 494,-361.5 589,-361.5 589,-382.5"/>
<text text-anchor="start" x="502" y="-368.9" font-family="Times,serif" font-size="12.00">[SampleRun]</text>
</g>
<!-- DetectorRotation[SampleRun]&#45;&gt;CoordTransformationGraph[SampleRun] -->
<g id="edge9" class="edge">
<title>DetectorRotation[SampleRun]:e&#45;&gt;CoordTransformationGraph[SampleRun]:w</title>
<path fill="none" stroke="black" d="M590.5,-372C693.59,-372 685.55,-249.55 781.26,-241.42"/>
<polygon fill="black" stroke="black" points="781.65,-244.91 791.5,-241 781.36,-237.92 781.65,-244.91"/>
</g>
<!-- CorrectionsToApply -->
<g id="node14" class="node">
<title>CorrectionsToApply</title>
<polygon fill="none" stroke="black" points="1585,-300.5 1428,-300.5 1428,-277.5 1585,-277.5 1585,-300.5"/>
<text text-anchor="middle" x="1506.5" y="-285.3" font-family="Times,serif" font-size="14.00">CorrectionsToApply</text>
</g>
<!-- CorrectionsToApply&#45;&gt;ReducibleData[ReferenceRun] -->
<g id="edge42" class="edge">
<title>CorrectionsToApply:e&#45;&gt;ReducibleData[ReferenceRun]:w</title>
<path fill="none" stroke="black" stroke-width="2" d="M1586.5,-289C1615.17,-289 1634.9,-286.64 1653.04,-283.86"/>
<polygon fill="black" stroke="black" stroke-width="2" points="1653.67,-287.3 1663,-282.28 1652.58,-280.39 1653.67,-287.3"/>
</g>
<!-- CriticalEdge -->
<g id="node15" class="node">
<title>CriticalEdge</title>
<polygon fill="none" stroke="black" points="1852,-410.5 1746,-410.5 1746,-387.5 1852,-387.5 1852,-410.5"/>
<text text-anchor="middle" x="1799" y="-395.3" font-family="Times,serif" font-size="14.00">CriticalEdge</text>
</g>
<!-- CriticalEdge&#45;&gt;ReducedReference -->
<g id="edge32" class="edge">
<title>CriticalEdge:e&#45;&gt;ReducedReference:w</title>
<path fill="none" stroke="black" d="M1853,-399C1890.05,-399 1899.39,-394.23 1935,-384 1973.03,-373.07 1980.98,-352.04 2015.13,-348.51"/>
<polygon fill="black" stroke="black" points="2015.68,-351.99 2025.5,-348 2015.34,-345 2015.68,-351.99"/>
</g>
<!-- CriticalEdge&#45;&gt;Sample -->
<g id="edge55" class="edge">
<title>CriticalEdge:e&#45;&gt;Sample:w</title>
<path fill="none" stroke="black" d="M1853,-399C1863.82,-399 2201.29,-372.88 2265.7,-368.59"/>
<polygon fill="black" stroke="black" points="2266.22,-372.07 2276,-368 2265.82,-365.08 2266.22,-372.07"/>
</g>
<!-- RawDetector[ReferenceRun] -->
<g id="node16" class="node">
<title>RawDetector[ReferenceRun]</title>
<polygon fill="none" stroke="black" points="363,-291.5 253,-291.5 253,-270.5 363,-270.5 363,-291.5"/>
<text text-anchor="start" x="261" y="-277.9" font-family="Times,serif" font-size="12.00">[ReferenceRun]</text>
</g>
<!-- RawDetector[ReferenceRun]&#45;&gt;Position[NXsource, ReferenceRun] -->
<g id="edge24" class="edge">
<title>RawDetector[ReferenceRun]:e&#45;&gt;Position[NXsource, ReferenceRun]:w</title>
<path fill="none" stroke="black" d="M364,-281C423.07,-281 393.75,-183.51 442.46,-172.09"/>
<polygon fill="black" stroke="black" points="442.94,-175.56 452.5,-171 442.18,-168.6 442.94,-175.56"/>
</g>
<!-- RawDetector[ReferenceRun]&#45;&gt;Position[NXsample, ReferenceRun] -->
<g id="edge22" class="edge">
<title>RawDetector[ReferenceRun]:e&#45;&gt;Position[NXsample, ReferenceRun]:w</title>
<path fill="none" stroke="black" d="M364,-281C435.38,-281 381.34,-149.81 440.47,-137"/>
<polygon fill="black" stroke="black" points="440.9,-140.48 450.5,-136 440.2,-133.51 440.9,-140.48"/>
</g>
<!-- RawDetector[ReferenceRun]&#45;&gt;SampleRotation[ReferenceRun] -->
<g id="edge58" class="edge">
<title>RawDetector[ReferenceRun]:e&#45;&gt;SampleRotation[ReferenceRun]:w</title>
<path fill="none" stroke="black" d="M364,-281C476.44,-281 364.64,-120.65 444,-41 455.06,-29.9 462.59,-27.6 475.25,-27.12"/>
<polygon fill="black" stroke="black" points="475.54,-30.62 485.5,-27 475.46,-23.62 475.54,-30.62"/>
</g>
<!-- RawDetector[ReferenceRun]&#45;&gt;DetectorRotation[ReferenceRun] -->
<g id="edge14" class="edge">
<title>RawDetector[ReferenceRun]:e&#45;&gt;DetectorRotation[ReferenceRun]:w</title>
<path fill="none" stroke="black" d="M364,-281C421.85,-281 424,-339.49 475.32,-346.35"/>
<polygon fill="black" stroke="black" points="475.3,-349.85 485.5,-347 475.74,-342.87 475.3,-349.85"/>
</g>
<!-- RawDetector[ReferenceRun]&#45;&gt;DetectorLtotal[ReferenceRun] -->
<g id="edge10" class="edge">
<title>RawDetector[ReferenceRun]:e&#45;&gt;DetectorLtotal[ReferenceRun]:w</title>
<path fill="none" stroke="black" d="M364,-281C376.58,-281 379.79,-286.47 388,-296 428.78,-343.36 391.74,-390.71 444,-425 480.23,-448.77 595.77,-427.92 639,-425 860.02,-410.08 913.95,-358.59 1130.4,-357.04"/>
<polygon fill="black" stroke="black" points="1130.51,-360.54 1140.5,-357 1130.49,-353.54 1130.51,-360.54"/>
</g>
<!-- WavelengthDetector[ReferenceRun] -->
<g id="node41" class="node">
<title>WavelengthDetector[ReferenceRun]</title>
<polygon fill="none" stroke="black" points="1561.5,-375.5 1451.5,-375.5 1451.5,-354.5 1561.5,-354.5 1561.5,-375.5"/>
<text text-anchor="start" x="1459.5" y="-361.9" font-family="Times,serif" font-size="12.00">[ReferenceRun]</text>
</g>
<!-- RawDetector[ReferenceRun]&#45;&gt;WavelengthDetector[ReferenceRun] -->
<g id="edge60" class="edge">
<title>RawDetector[ReferenceRun]:e&#45;&gt;WavelengthDetector[ReferenceRun]:w</title>
<path fill="none" stroke="black" d="M364,-281C376.58,-281 379.91,-286.37 388,-296 430.58,-346.67 389.13,-396.98 444,-434 485.4,-461.93 1295.72,-451.08 1343,-435 1393.6,-417.79 1393.7,-371.33 1440.49,-365.58"/>
<polygon fill="black" stroke="black" points="1440.72,-369.08 1450.5,-365 1440.31,-362.09 1440.72,-369.08"/>
</g>
<!-- DetectorLtotal[ReferenceRun]&#45;&gt;WavelengthDetector[ReferenceRun] -->
<g id="edge62" class="edge">
<title>DetectorLtotal[ReferenceRun]:e&#45;&gt;WavelengthDetector[ReferenceRun]:w</title>
<path fill="none" stroke="black" d="M1252.5,-357C1337.13,-357 1360.62,-364.39 1440.47,-364.96"/>
<polygon fill="black" stroke="black" points="1440.49,-368.46 1450.5,-365 1440.51,-361.46 1440.49,-368.46"/>
</g>
<!-- RawDetector[SampleRun] -->
<g id="node18" class="node">
<title>RawDetector[SampleRun]</title>
<polygon fill="none" stroke="black" points="355.5,-316.5 260.5,-316.5 260.5,-295.5 355.5,-295.5 355.5,-316.5"/>
<text text-anchor="start" x="268.5" y="-302.9" font-family="Times,serif" font-size="12.00">[SampleRun]</text>
</g>
<!-- RawDetector[SampleRun]&#45;&gt;Position[NXsource, SampleRun] -->
<g id="edge25" class="edge">
<title>RawDetector[SampleRun]:e&#45;&gt;Position[NXsource, SampleRun]:w</title>
<path fill="none" stroke="black" d="M357,-306C407.36,-306 406.01,-249.35 449.5,-241.82"/>
<polygon fill="black" stroke="black" points="449.82,-245.31 459.5,-241 449.25,-238.33 449.82,-245.31"/>
</g>
<!-- RawDetector[SampleRun]&#45;&gt;Position[NXsample, SampleRun] -->
<g id="edge23" class="edge">
<title>RawDetector[SampleRun]:e&#45;&gt;Position[NXsample, SampleRun]:w</title>
<path fill="none" stroke="black" d="M357,-306C416.62,-306 397.82,-217.38 448.24,-206.99"/>
<polygon fill="black" stroke="black" points="448.88,-210.44 458.5,-206 448.21,-203.48 448.88,-210.44"/>
</g>
<!-- RawDetector[SampleRun]&#45;&gt;SampleRotation[SampleRun] -->
<g id="edge59" class="edge">
<title>RawDetector[SampleRun]:e&#45;&gt;SampleRotation[SampleRun]:w</title>
<path fill="none" stroke="black" d="M357,-306C481.32,-306 371.17,-66.18 482.22,-52.6"/>
<polygon fill="black" stroke="black" points="482.72,-56.08 492.5,-52 482.31,-49.09 482.72,-56.08"/>
</g>
<!-- RawDetector[SampleRun]&#45;&gt;DetectorRotation[SampleRun] -->
<g id="edge15" class="edge">
<title>RawDetector[SampleRun]:e&#45;&gt;DetectorRotation[SampleRun]:w</title>
<path fill="none" stroke="black" d="M357,-306C402.05,-306 402.68,-340.05 444,-358 461.04,-365.4 467.73,-370.15 482.27,-371.56"/>
<polygon fill="black" stroke="black" points="482.36,-375.06 492.5,-372 482.66,-368.07 482.36,-375.06"/>
</g>
<!-- RawDetector[SampleRun]&#45;&gt;DetectorLtotal[SampleRun] -->
<g id="edge12" class="edge">
<title>RawDetector[SampleRun]:e&#45;&gt;DetectorLtotal[SampleRun]:w</title>
<path fill="none" stroke="black" d="M357,-306C425.79,-306 383.21,-401.82 444,-434 520.59,-474.55 552.45,-438.41 639,-434 693.06,-431.24 1054.42,-386.5 1137.35,-382.31"/>
<polygon fill="black" stroke="black" points="1137.61,-385.81 1147.5,-382 1137.4,-378.81 1137.61,-385.81"/>
</g>
<!-- WavelengthDetector[SampleRun] -->
<g id="node44" class="node">
<title>WavelengthDetector[SampleRun]</title>
<polygon fill="none" stroke="black" points="1554,-400.5 1459,-400.5 1459,-379.5 1554,-379.5 1554,-400.5"/>
<text text-anchor="start" x="1467" y="-386.9" font-family="Times,serif" font-size="12.00">[SampleRun]</text>
</g>
<!-- RawDetector[SampleRun]&#45;&gt;WavelengthDetector[SampleRun] -->
<g id="edge64" class="edge">
<title>RawDetector[SampleRun]:e&#45;&gt;WavelengthDetector[SampleRun]:w</title>
<path fill="none" stroke="black" d="M357,-306C448.67,-306 372.49,-435.65 444,-493 535.95,-566.74 585.82,-537.26 703,-550 986.2,-580.79 1088.05,-642.08 1343,-515 1407.14,-483.03 1384.69,-398.79 1447.18,-390.64"/>
<polygon fill="black" stroke="black" points="1447.73,-394.11 1457.5,-390 1447.3,-387.12 1447.73,-394.11"/>
</g>
<!-- DetectorLtotal[SampleRun]&#45;&gt;WavelengthDetector[SampleRun] -->
<g id="edge66" class="edge">
<title>DetectorLtotal[SampleRun]:e&#45;&gt;WavelengthDetector[SampleRun]:w</title>
<path fill="none" stroke="black" d="M1245.5,-382C1336.29,-382 1361.37,-389.42 1447.29,-389.97"/>
<polygon fill="black" stroke="black" points="1447.49,-393.47 1457.5,-390 1447.51,-386.47 1447.49,-393.47"/>
</g>
<!-- DetectorSpatialResolution -->
<g id="node20" class="node">
<title>DetectorSpatialResolution</title>
<polygon fill="none" stroke="black" points="2204,-170.5 1999,-170.5 1999,-147.5 2204,-147.5 2204,-170.5"/>
<text text-anchor="middle" x="2101.5" y="-155.3" font-family="Times,serif" font-size="14.00">DetectorSpatialResolution</text>
</g>
<!-- DetectorSpatialResolution&#45;&gt;Reference -->
<g id="edge49" class="edge">
<title>DetectorSpatialResolution:e&#45;&gt;Reference:w</title>
<path fill="none" stroke="black" d="M2204,-159C2293.49,-159 2268.12,-289.2 2348.64,-299.37"/>
<polygon fill="black" stroke="black" points="2348.81,-302.89 2359,-300 2349.23,-295.9 2348.81,-302.89"/>
</g>
<!-- LookupTable -->
<g id="node21" class="node">
<title>LookupTable</title>
<polygon fill="none" stroke="black" points="909.5,-495.5 771.5,-495.5 771.5,-462.5 909.5,-462.5 909.5,-495.5"/>
<text text-anchor="start" x="795" y="-481.3" font-family="Times,serif" font-size="14.00">LookupTable</text>
<text text-anchor="start" x="779.5" y="-469.7" font-family="Times,serif" font-size="11.00">via:</text>
<text text-anchor="start" x="800.5" y="-469.7" font-family="Times,serif" font-style="italic" font-size="11.00">load_lookup_table</text>
</g>
<!-- ErrorLimitedLookupTable[NXdetector] -->
<g id="node22" class="node">
<title>ErrorLimitedLookupTable[NXdetector]</title>
<polygon fill="none" stroke="black" points="1343,-512.5 1050,-512.5 1050,-479.5 1343,-479.5 1343,-512.5"/>
<text text-anchor="start" x="1058" y="-498.3" font-family="Times,serif" font-size="14.00">ErrorLimitedLookupTable[NXdetector]</text>
<text text-anchor="start" x="1074.5" y="-486.7" font-family="Times,serif" font-size="11.00">via:</text>
<text text-anchor="start" x="1095.5" y="-486.7" font-family="Times,serif" font-style="italic" font-size="11.00">mask_large_uncertainty_in_lut_detector</text>
</g>
<!-- LookupTable&#45;&gt;ErrorLimitedLookupTable[NXdetector] -->
<g id="edge16" class="edge">
<title>LookupTable:e&#45;&gt;ErrorLimitedLookupTable[NXdetector]:w</title>
<path fill="none" stroke="black" d="M910.5,-479C969.42,-479 985.74,-494.13 1039.83,-495.84"/>
<polygon fill="black" stroke="black" points="1039.95,-499.34 1050,-496 1040.06,-492.35 1039.95,-499.34"/>
</g>
<!-- ErrorLimitedLookupTable[NXdetector]&#45;&gt;WavelengthDetector[ReferenceRun] -->
<g id="edge61" class="edge">
<title>ErrorLimitedLookupTable[NXdetector]:e&#45;&gt;WavelengthDetector[ReferenceRun]:w</title>
<path fill="none" stroke="black" d="M1343,-496C1403.56,-496 1368.44,-419.32 1414.5,-380 1424.7,-371.3 1430.29,-367.08 1440.32,-365.62"/>
<polygon fill="black" stroke="black" points="1440.73,-369.1 1450.5,-365 1440.31,-362.11 1440.73,-369.1"/>
</g>
<!-- ErrorLimitedLookupTable[NXdetector]&#45;&gt;WavelengthDetector[SampleRun] -->
<g id="edge65" class="edge">
<title>ErrorLimitedLookupTable[NXdetector]:e&#45;&gt;WavelengthDetector[SampleRun]:w</title>
<path fill="none" stroke="black" d="M1343,-496C1408.69,-496 1390.44,-400.88 1447.28,-390.85"/>
<polygon fill="black" stroke="black" points="1447.83,-394.32 1457.5,-390 1447.24,-387.34 1447.83,-394.32"/>
</g>
<!-- LookupTableRelativeErrorThreshold -->
<g id="node23" class="node">
<title>LookupTableRelativeErrorThreshold</title>
<polygon fill="none" stroke="black" points="978,-549.5 703,-549.5 703,-526.5 978,-526.5 978,-549.5"/>
<text text-anchor="middle" x="840.5" y="-534.3" font-family="Times,serif" font-size="14.00">LookupTableRelativeErrorThreshold</text>
</g>
<!-- LookupTableRelativeErrorThreshold&#45;&gt;ErrorLimitedLookupTable[NXdetector] -->
<g id="edge17" class="edge">
<title>LookupTableRelativeErrorThreshold:e&#45;&gt;ErrorLimitedLookupTable[NXdetector]:w</title>
<path fill="none" stroke="black" d="M978,-538C1011.28,-538 1012.97,-504.1 1039.84,-497.21"/>
<polygon fill="black" stroke="black" points="1040.48,-500.66 1050,-496 1039.66,-493.71 1040.48,-500.66"/>
</g>
<!-- NeXusName[NXdetector] -->
<g id="node24" class="node">
<title>NeXusName[NXdetector]</title>
<polygon fill="none" stroke="black" points="939,-522.5 742,-522.5 742,-499.5 939,-499.5 939,-522.5"/>
<text text-anchor="middle" x="840.5" y="-507.3" font-family="Times,serif" font-size="14.00">NeXusName[NXdetector]</text>
</g>
<!-- NeXusName[NXdetector]&#45;&gt;ErrorLimitedLookupTable[NXdetector] -->
<g id="edge18" class="edge">
<title>NeXusName[NXdetector]:e&#45;&gt;ErrorLimitedLookupTable[NXdetector]:w</title>
<path fill="none" stroke="black" d="M940.5,-511C986.07,-511 999.05,-498.09 1039.92,-496.22"/>
<polygon fill="black" stroke="black" points="1040.08,-499.72 1050,-496 1039.92,-492.72 1040.08,-499.72"/>
</g>
<!-- Filename[ReferenceRun] -->
<g id="node25" class="node">
<title>Filename[ReferenceRun]</title>
<polygon fill="none" stroke="black" points="141,-338.5 31,-338.5 31,-317.5 141,-317.5 141,-338.5"/>
<text text-anchor="start" x="39" y="-324.9" font-family="Times,serif" font-size="12.00">[ReferenceRun]</text>
</g>
<!-- Filename[ReferenceRun]&#45;&gt;RawDetector[ReferenceRun] -->
<g id="edge26" class="edge">
<title>Filename[ReferenceRun]:e&#45;&gt;RawDetector[ReferenceRun]:w</title>
<path fill="none" stroke="black" d="M142,-328C191.53,-328 198.1,-287.21 241.76,-281.63"/>
<polygon fill="black" stroke="black" points="242.23,-285.11 252,-281 241.8,-278.12 242.23,-285.11"/>
</g>
<!-- Filename[SampleRun] -->
<g id="node26" class="node">
<title>Filename[SampleRun]</title>
<polygon fill="none" stroke="red" stroke-dasharray="5,2" points="133.5,-363.5 38.5,-363.5 38.5,-342.5 133.5,-342.5 133.5,-363.5"/>
<text text-anchor="start" x="46.5" y="-349.9" font-family="Times,serif" font-size="12.00" fill="red">[SampleRun]</text>
</g>
<!-- Filename[SampleRun]&#45;&gt;RawDetector[SampleRun] -->
<g id="edge28" class="edge">
<title>Filename[SampleRun]:e&#45;&gt;RawDetector[SampleRun]:w</title>
<path fill="none" stroke="black" d="M135,-353C190.37,-353 199.13,-311.52 248.85,-306.5"/>
<polygon fill="black" stroke="black" points="249.18,-309.98 259,-306 248.84,-302.99 249.18,-309.98"/>
</g>
<!-- LookupTableFilename -->
<g id="node27" class="node">
<title>LookupTableFilename</title>
<polygon fill="none" stroke="black" points="628,-490.5 455,-490.5 455,-467.5 628,-467.5 628,-490.5"/>
<text text-anchor="middle" x="541.5" y="-475.3" font-family="Times,serif" font-size="14.00">LookupTableFilename</text>
</g>
<!-- LookupTableFilename&#45;&gt;LookupTable -->
<g id="edge19" class="edge">
<title>LookupTableFilename:e&#45;&gt;LookupTable:w</title>
<path fill="none" stroke="black" d="M629.5,-479C688.62,-479 705.91,-479 760.29,-479"/>
<polygon fill="black" stroke="black" points="760.5,-482.5 770.5,-479 760.5,-475.5 760.5,-482.5"/>
</g>
<!-- MValue -->
<g id="node28" class="node">
<title>MValue</title>
<polygon fill="none" stroke="black" points="1834,-383.5 1764,-383.5 1764,-360.5 1834,-360.5 1834,-383.5"/>
<text text-anchor="middle" x="1799" y="-368.3" font-family="Times,serif" font-size="14.00">MValue</text>
</g>
<!-- MValue&#45;&gt;ReducedReference -->
<g id="edge33" class="edge">
<title>MValue:e&#45;&gt;ReducedReference:w</title>
<path fill="none" stroke="black" d="M1835,-372C1916.84,-372 1938.43,-349.93 2015.32,-348.12"/>
<polygon fill="black" stroke="black" points="2015.54,-351.62 2025.5,-348 2015.46,-344.62 2015.54,-351.62"/>
</g>
<!-- MValue&#45;&gt;Sample -->
<g id="edge56" class="edge">
<title>MValue:e&#45;&gt;Sample:w</title>
<path fill="none" stroke="black" d="M1835,-372C2027.56,-372 2078.22,-368.14 2265.8,-368"/>
<polygon fill="black" stroke="black" points="2266,-371.5 2276,-368 2266,-364.5 2266,-371.5"/>
</g>
<!-- ReflectivityOverQ -->
<g id="node29" class="node">
<title>ReflectivityOverQ</title>
<polygon fill="none" stroke="black" points="2826,-346.5 2662,-346.5 2662,-313.5 2826,-313.5 2826,-346.5"/>
<text text-anchor="start" x="2680.5" y="-332.3" font-family="Times,serif" font-size="14.00">ReflectivityOverQ</text>
<text text-anchor="start" x="2670" y="-320.7" font-family="Times,serif" font-size="11.00">via:</text>
<text text-anchor="start" x="2691" y="-320.7" font-family="Times,serif" font-style="italic" font-size="11.00">reduce_sample_over_q</text>
</g>
<!-- MaskedReflectivityOverQ -->
<g id="node30" class="node">
<title>MaskedReflectivityOverQ</title>
<polygon fill="none" stroke="black" points="3097,-332.5 2898,-332.5 2898,-299.5 3097,-299.5 3097,-332.5"/>
<text text-anchor="start" x="2906" y="-318.3" font-family="Times,serif" font-size="14.00">MaskedReflectivityOverQ</text>
<text text-anchor="start" x="2925" y="-306.7" font-family="Times,serif" font-size="11.00">via:</text>
<text text-anchor="start" x="2946" y="-306.7" font-family="Times,serif" font-style="italic" font-size="11.00">mask_noisy_reference</text>
</g>
<!-- ReflectivityOverQ&#45;&gt;MaskedReflectivityOverQ -->
<g id="edge20" class="edge">
<title>ReflectivityOverQ:e&#45;&gt;MaskedReflectivityOverQ:w</title>
<path fill="none" stroke="black" d="M2826,-330C2854.91,-330 2863.53,-318.99 2887.84,-316.5"/>
<polygon fill="black" stroke="black" points="2888.18,-319.99 2898,-316 2887.84,-312.99 2888.18,-319.99"/>
</g>
<!-- Reference&#45;&gt;ReflectivityOverQ -->
<g id="edge51" class="edge">
<title>Reference:e&#45;&gt;ReflectivityOverQ:w</title>
<path fill="none" stroke="black" d="M2507,-300C2573.6,-300 2590.2,-327.03 2651.73,-329.78"/>
<polygon fill="black" stroke="black" points="2651.93,-333.28 2662,-330 2652.08,-326.28 2651.93,-333.28"/>
</g>
<!-- Reference&#45;&gt;MaskedReflectivityOverQ -->
<g id="edge21" class="edge">
<title>Reference:e&#45;&gt;MaskedReflectivityOverQ:w</title>
<path fill="none" stroke="black" d="M2507,-300C2648.88,-300 2684.28,-305.4 2826,-312 2854.39,-313.32 2863.84,-315.44 2887.97,-315.91"/>
<polygon fill="black" stroke="black" points="2887.97,-319.41 2898,-316 2888.03,-312.41 2887.97,-319.41"/>
</g>
<!-- ProtonCurrent[ReferenceRun] -->
<g id="node32" class="node">
<title>ProtonCurrent[ReferenceRun]</title>
<polygon fill="none" stroke="black" points="1561.5,-479.5 1451.5,-479.5 1451.5,-458.5 1561.5,-458.5 1561.5,-479.5"/>
<text text-anchor="start" x="1459.5" y="-465.9" font-family="Times,serif" font-size="12.00">[ReferenceRun]</text>
</g>
<!-- ProtonCurrent[ReferenceRun]&#45;&gt;ReducibleData[ReferenceRun] -->
<g id="edge40" class="edge">
<title>ProtonCurrent[ReferenceRun]:e&#45;&gt;ReducibleData[ReferenceRun]:w</title>
<path fill="none" stroke="black" d="M1562.5,-469C1582.6,-469 1586.93,-458.68 1599.5,-443 1645.56,-385.56 1605.82,-336.37 1663,-290 1688.35,-269.44 1703.64,-273.77 1732.96,-274.81"/>
<polygon fill="black" stroke="black" points="1732.94,-278.31 1743,-275 1733.07,-271.31 1732.94,-278.31"/>
</g>
<!-- ProtonCurrent[SampleRun] -->
<g id="node33" class="node">
<title>ProtonCurrent[SampleRun]</title>
<polygon fill="none" stroke="black" points="1554,-504.5 1459,-504.5 1459,-483.5 1554,-483.5 1554,-504.5"/>
<text text-anchor="start" x="1467" y="-490.9" font-family="Times,serif" font-size="12.00">[SampleRun]</text>
</g>
<!-- ProtonCurrent[SampleRun]&#45;&gt;ReducibleData[SampleRun] -->
<g id="edge44" class="edge">
<title>ProtonCurrent[SampleRun]:e&#45;&gt;ReducibleData[SampleRun]:w</title>
<path fill="none" stroke="black" d="M1555.5,-494C1576.02,-494 1583.77,-493.19 1599.5,-480 1646.04,-440.98 1622.54,-404.29 1663,-359 1691.69,-326.88 1701.72,-303.84 1739.71,-300.44"/>
<polygon fill="black" stroke="black" points="1740.16,-303.92 1750,-300 1739.86,-296.93 1740.16,-303.92"/>
</g>
<!-- PulseStrideOffset -->
<g id="node34" class="node">
<title>PulseStrideOffset</title>
<polygon fill="none" stroke="black" points="1268,-475.5 1125,-475.5 1125,-452.5 1268,-452.5 1268,-475.5"/>
<text text-anchor="middle" x="1196.5" y="-460.3" font-family="Times,serif" font-size="14.00">PulseStrideOffset</text>
</g>
<!-- PulseStrideOffset&#45;&gt;WavelengthDetector[ReferenceRun] -->
<g id="edge63" class="edge">
<title>PulseStrideOffset:e&#45;&gt;WavelengthDetector[ReferenceRun]:w</title>
<path fill="none" stroke="black" stroke-width="2" d="M1269.5,-464C1302.84,-464 1313.5,-464.53 1343,-449 1378.15,-430.5 1387.36,-400.19 1406.57,-381.49"/>
<polygon fill="black" stroke="black" stroke-width="2" points="1409.02,-384 1414.5,-374.93 1404.57,-378.6 1409.02,-384"/>
</g>
<!-- QBins -->
<g id="node35" class="node">
<title>QBins</title>
<polygon fill="none" stroke="black" points="2462.5,-343.5 2403.5,-343.5 2403.5,-320.5 2462.5,-320.5 2462.5,-343.5"/>
<text text-anchor="middle" x="2433" y="-328.3" font-family="Times,serif" font-size="14.00">QBins</text>
</g>
<!-- QBins&#45;&gt;ReflectivityOverQ -->
<g id="edge52" class="edge">
<title>QBins:e&#45;&gt;ReflectivityOverQ:w</title>
<path fill="none" stroke="black" d="M2464,-332C2548.57,-332 2572.18,-330.15 2651.98,-330.01"/>
<polygon fill="black" stroke="black" points="2652,-333.51 2662,-330 2652,-326.51 2652,-333.51"/>
</g>
<!-- SampleRotationOffset[ReferenceRun] -->
<g id="node36" class="node">
<title>SampleRotationOffset[ReferenceRun]</title>
<polygon fill="none" stroke="black" points="141,-244.5 31,-244.5 31,-223.5 141,-223.5 141,-244.5"/>
<text text-anchor="start" x="39" y="-230.9" font-family="Times,serif" font-size="12.00">[ReferenceRun]</text>
</g>
<!-- SampleRotationOffset[ReferenceRun]&#45;&gt;RawDetector[ReferenceRun] -->
<g id="edge27" class="edge">
<title>SampleRotationOffset[ReferenceRun]:e&#45;&gt;RawDetector[ReferenceRun]:w</title>
<path fill="none" stroke="black" d="M142,-234C191.53,-234 198.1,-274.79 241.76,-280.37"/>
<polygon fill="black" stroke="black" points="241.8,-283.88 252,-281 242.23,-276.89 241.8,-283.88"/>
</g>
<!-- SampleRotationOffset[SampleRun] -->
<g id="node37" class="node">
<title>SampleRotationOffset[SampleRun]</title>
<polygon fill="none" stroke="black" points="133.5,-269.5 38.5,-269.5 38.5,-248.5 133.5,-248.5 133.5,-269.5"/>
<text text-anchor="start" x="46.5" y="-255.9" font-family="Times,serif" font-size="12.00">[SampleRun]</text>
</g>
<!-- SampleRotationOffset[SampleRun]&#45;&gt;RawDetector[SampleRun] -->
<g id="edge29" class="edge">
<title>SampleRotationOffset[SampleRun]:e&#45;&gt;RawDetector[SampleRun]:w</title>
<path fill="none" stroke="black" d="M135,-259C190.37,-259 199.13,-300.48 248.85,-305.5"/>
<polygon fill="black" stroke="black" points="248.84,-309.01 259,-306 249.18,-302.02 248.84,-309.01"/>
</g>
<!-- ReducibleData[ReferenceRun]&#45;&gt;ReducedReference -->
<g id="edge30" class="edge">
<title>ReducibleData[ReferenceRun]:e&#45;&gt;ReducedReference:w</title>
<path fill="none" stroke="black" d="M1855,-275C1891.18,-275 1901.37,-276.66 1935,-290 1975.94,-306.24 1977.71,-341.83 2015.16,-347.29"/>
<polygon fill="black" stroke="black" points="2015.28,-350.81 2025.5,-348 2015.76,-343.82 2015.28,-350.81"/>
</g>
<!-- ReducedReference&#45;&gt;Reference -->
<g id="edge46" class="edge">
<title>ReducedReference:e&#45;&gt;Reference:w</title>
<path fill="none" stroke="black" d="M2177.5,-348C2257.35,-348 2274.18,-304.04 2348.61,-300.26"/>
<polygon fill="black" stroke="black" points="2349.09,-303.75 2359,-300 2348.92,-296.75 2349.09,-303.75"/>
</g>
<!-- ReducedReference&#45;&gt;Sample -->
<g id="edge54" class="edge">
<title>ReducedReference:e&#45;&gt;Sample:w</title>
<path fill="none" stroke="black" d="M2177.5,-348C2218.51,-348 2229.59,-364.85 2265.68,-367.62"/>
<polygon fill="black" stroke="black" points="2265.88,-371.13 2276,-368 2266.14,-364.13 2265.88,-371.13"/>
</g>
<!-- WavelengthBins -->
<g id="node40" class="node">
<title>WavelengthBins</title>
<polygon fill="none" stroke="black" points="1572.5,-208.5 1440.5,-208.5 1440.5,-185.5 1572.5,-185.5 1572.5,-208.5"/>
<text text-anchor="middle" x="1506.5" y="-193.3" font-family="Times,serif" font-size="14.00">WavelengthBins</text>
</g>
<!-- WavelengthBins&#45;&gt;ReducibleData[ReferenceRun] -->
<g id="edge39" class="edge">
<title>WavelengthBins:e&#45;&gt;ReducibleData[ReferenceRun]:w</title>
<path fill="none" stroke="black" stroke-width="2" d="M1573.5,-197C1624.93,-197 1645.87,-227.01 1674.14,-249.8"/>
<polygon fill="black" stroke="black" stroke-width="2" points="1672.25,-252.76 1682.34,-256 1676.48,-247.18 1672.25,-252.76"/>
</g>
<!-- WavelengthBins&#45;&gt;ReducedReference -->
<g id="edge31" class="edge">
<title>WavelengthBins:e&#45;&gt;ReducedReference:w</title>
<path fill="none" stroke="black" d="M1573.5,-197C1736.22,-197 1790.6,-180 1935,-255 1982.88,-279.87 1969.9,-339.6 2015.26,-347.2"/>
<polygon fill="black" stroke="black" points="2015.26,-350.71 2025.5,-348 2015.8,-343.73 2015.26,-350.71"/>
</g>
<!-- WavelengthDetector[ReferenceRun]&#45;&gt;ReducibleData[ReferenceRun] -->
<g id="edge35" class="edge">
<title>WavelengthDetector[ReferenceRun]:e&#45;&gt;ReducibleData[ReferenceRun]:w</title>
<path fill="none" stroke="black" d="M1562.5,-365C1618.23,-365 1611.96,-312.38 1663,-290 1692.77,-276.95 1704.42,-275.24 1732.72,-275.03"/>
<polygon fill="black" stroke="black" points="1733.01,-278.53 1743,-275 1732.99,-271.53 1733.01,-278.53"/>
</g>
<!-- YIndexLimits -->
<g id="node42" class="node">
<title>YIndexLimits</title>
<polygon fill="none" stroke="black" points="1561.5,-273.5 1451.5,-273.5 1451.5,-250.5 1561.5,-250.5 1561.5,-273.5"/>
<text text-anchor="middle" x="1506.5" y="-258.3" font-family="Times,serif" font-size="14.00">YIndexLimits</text>
</g>
<!-- YIndexLimits&#45;&gt;ReducibleData[ReferenceRun] -->
<g id="edge36" class="edge">
<title>YIndexLimits:e&#45;&gt;ReducibleData[ReferenceRun]:w</title>
<path fill="none" stroke="black" stroke-width="2" d="M1562.5,-262C1602.84,-262 1627.88,-265.27 1652.97,-268.53"/>
<polygon fill="black" stroke="black" stroke-width="2" points="1652.64,-272.01 1663,-269.82 1653.53,-265.07 1652.64,-272.01"/>
</g>
<!-- ZIndexLimits -->
<g id="node43" class="node">
<title>ZIndexLimits</title>
<polygon fill="none" stroke="black" points="1562,-246.5 1451,-246.5 1451,-223.5 1562,-223.5 1562,-246.5"/>
<text text-anchor="middle" x="1506.5" y="-231.3" font-family="Times,serif" font-size="14.00">ZIndexLimits</text>
</g>
<!-- ZIndexLimits&#45;&gt;ReducibleData[ReferenceRun] -->
<g id="edge37" class="edge">
<title>ZIndexLimits:e&#45;&gt;ReducibleData[ReferenceRun]:w</title>
<path fill="none" stroke="black" stroke-width="2" d="M1562.5,-235C1603.97,-235 1628.63,-245.19 1653.45,-255.28"/>
<polygon fill="black" stroke="black" stroke-width="2" points="1652.42,-258.64 1663,-259.13 1655.03,-252.15 1652.42,-258.64"/>
</g>
<!-- WavelengthDetector[SampleRun]&#45;&gt;ReducibleData[SampleRun] -->
<g id="edge43" class="edge">
<title>WavelengthDetector[SampleRun]:e&#45;&gt;ReducibleData[SampleRun]:w</title>
<path fill="none" stroke="black" d="M1555.5,-390C1647.22,-390 1654.33,-306.56 1739.76,-300.36"/>
<polygon fill="black" stroke="black" points="1740.13,-303.85 1750,-300 1739.88,-296.86 1740.13,-303.85"/>
</g>
<!-- ReducibleData[SampleRun]&#45;&gt;Reference -->
<g id="edge47" class="edge">
<title>ReducibleData[SampleRun]:e&#45;&gt;Reference:w</title>
<path fill="none" stroke="black" d="M1848,-300C2071.67,-300 2130.13,-300 2348.8,-300"/>
<polygon fill="black" stroke="black" points="2349,-303.5 2359,-300 2349,-296.5 2349,-303.5"/>
</g>
<!-- ReducibleData[SampleRun]&#45;&gt;Sample -->
<g id="edge53" class="edge">
<title>ReducibleData[SampleRun]:e&#45;&gt;Sample:w</title>
<path fill="none" stroke="black" d="M1848,-300C1927.39,-300 2127.81,-307.69 2204,-330 2235.2,-339.14 2239.25,-362.53 2265.99,-367.19"/>
<polygon fill="black" stroke="black" points="2265.75,-370.68 2276,-368 2266.32,-363.7 2265.75,-370.68"/>
</g>
<!-- Sample&#45;&gt;ReflectivityOverQ -->
<g id="edge50" class="edge">
<title>Sample:e&#45;&gt;ReflectivityOverQ:w</title>
<path fill="none" stroke="black" d="M2590,-368C2622.51,-368 2625.51,-337.33 2652.03,-331.1"/>
<polygon fill="black" stroke="black" points="2652.44,-334.57 2662,-330 2651.68,-327.61 2652.44,-334.57"/>
</g>
</g>
</svg>
