<?xml version="1.0" encoding="UTF-8" standalone="no"?>
<!DOCTYPE svg PUBLIC "-//W3C//DTD SVG 1.1//EN"
 "http://www.w3.org/Graphics/SVG/1.1/DTD/svg11.dtd">
<!-- Generated by graphviz version 2.43.0 (0)
 -->
<!-- Title: %3 Pages: 1 -->
<svg width="2210pt" height="323pt"
 viewBox="0.00 0.00 2210.00 322.80" xmlns="http://www.w3.org/2000/svg" xmlns:xlink="http://www.w3.org/1999/xlink">
<g id="graph0" class="graph" transform="scale(1 1) rotate(0) translate(4 318.8)">
<title>%3</title>
<polygon fill="white" stroke="transparent" points="-4,4 -4,-318.8 2206,-318.8 2206,4 -4,4"/>
<!-- Alpha -->
<g id="node1" class="node">
<title>Alpha</title>
<polygon fill="none" stroke="black" points="1460,-212 1403,-212 1403,-189 1460,-189 1460,-212"/>
<text text-anchor="middle" x="1431.5" y="-196.8" font-family="Times,serif" font-size="14.00">Alpha</text>
</g>
<!-- Sample -->
<g id="node30" class="node">
<title>Sample</title>
<polygon fill="none" stroke="black" points="1966,-174 1652,-174 1652,-141 1966,-141 1966,-174"/>
<text text-anchor="start" x="1782" y="-159.8" font-family="Times,serif" font-size="14.00">Sample</text>
<text text-anchor="start" x="1660" y="-148.2" font-family="Times,serif" font-size="11.00">via:</text>
<text text-anchor="start" x="1681" y="-148.2" font-family="Times,serif" font-style="italic" font-size="11.00">mask_events_where_supermirror_does_not_cover</text>
</g>
<!-- Alpha&#45;&gt;Sample -->
<g id="edge41" class="edge">
<title>Alpha:e&#45;&gt;Sample:w</title>
<path fill="none" stroke="black" d="M1461.5,-200.5C1514.59,-200.5 1528.54,-198.55 1580,-185.5 1609.64,-177.98 1616.36,-161.65 1641.73,-158.16"/>
<polygon fill="black" stroke="black" points="1642.25,-161.64 1652,-157.5 1641.8,-154.65 1642.25,-161.64"/>
</g>
<!-- BeamDivergenceLimits -->
<g id="node2" class="node">
<title>BeamDivergenceLimits</title>
<polygon fill="none" stroke="black" points="1190.5,-84 1007.5,-84 1007.5,-61 1190.5,-61 1190.5,-84"/>
<text text-anchor="middle" x="1099" y="-68.8" font-family="Times,serif" font-size="14.00">BeamDivergenceLimits</text>
</g>
<!-- QBins -->
<g id="node19" class="node">
<title>QBins</title>
<polygon fill="none" stroke="black" points="1465,-56 1398,-56 1398,-23 1465,-23 1465,-56"/>
<text text-anchor="start" x="1410" y="-41.8" font-family="Times,serif" font-size="14.00">QBins</text>
<text text-anchor="start" x="1406" y="-30.2" font-family="Times,serif" font-size="11.00">via:</text>
<text text-anchor="start" x="1427" y="-30.2" font-family="Times,serif" font-style="italic" font-size="11.00">qgrid</text>
</g>
<!-- BeamDivergenceLimits&#45;&gt;QBins -->
<g id="edge11" class="edge">
<title>BeamDivergenceLimits:e&#45;&gt;QBins:w</title>
<path fill="none" stroke="black" d="M1192,-72.5C1280.56,-72.5 1302.78,-41.97 1386.28,-39.64"/>
<polygon fill="black" stroke="black" points="1386.55,-43.14 1396.5,-39.5 1386.45,-36.14 1386.55,-43.14"/>
</g>
<!-- ReducibleData[SampleRun] -->
<g id="node26" class="node">
<title>ReducibleData[SampleRun]</title>
<polygon fill="none" stroke="black" points="1567.5,-158 1295.5,-158 1295.5,-125 1567.5,-125 1567.5,-158"/>
<text text-anchor="start" x="1333" y="-143.8" font-family="Times,serif" font-size="14.00">ReducibleData[SampleRun]</text>
<text text-anchor="start" x="1303.5" y="-132.2" font-family="Times,serif" font-size="11.00">via:</text>
<text text-anchor="start" x="1324.5" y="-132.2" font-family="Times,serif" font-style="italic" font-size="11.00">add_coords_masks_and_apply_corrections</text>
</g>
<!-- BeamDivergenceLimits&#45;&gt;ReducibleData[SampleRun] -->
<g id="edge26" class="edge">
<title>BeamDivergenceLimits:e&#45;&gt;ReducibleData[SampleRun]:w</title>
<path fill="none" stroke="black" d="M1192,-72.5C1243.27,-72.5 1240.28,-132.64 1284.35,-140.63"/>
<polygon fill="black" stroke="black" points="1284.24,-144.13 1294.5,-141.5 1284.84,-137.16 1284.24,-144.13"/>
</g>
<!-- BeamSize[SampleRun] -->
<g id="node3" class="node">
<title>BeamSize[SampleRun]</title>
<polygon fill="none" stroke="black" points="880.5,-279 701.5,-279 701.5,-256 880.5,-256 880.5,-279"/>
<text text-anchor="middle" x="791" y="-263.8" font-family="Times,serif" font-size="14.00">BeamSize[SampleRun]</text>
</g>
<!-- RawDetector[SampleRun] -->
<g id="node22" class="node">
<title>RawDetector[SampleRun]</title>
<polygon fill="none" stroke="black" points="1200,-185 998,-185 998,-152 1200,-152 1200,-185"/>
<text text-anchor="start" x="1006" y="-170.8" font-family="Times,serif" font-size="14.00">RawDetector[SampleRun]</text>
<text text-anchor="start" x="1055" y="-159.2" font-family="Times,serif" font-size="11.00">via:</text>
<text text-anchor="start" x="1076" y="-159.2" font-family="Times,serif" font-style="italic" font-size="11.00">load_events</text>
</g>
<!-- BeamSize[SampleRun]&#45;&gt;RawDetector[SampleRun] -->
<g id="edge21" class="edge">
<title>BeamSize[SampleRun]:e&#45;&gt;RawDetector[SampleRun]:w</title>
<path fill="none" stroke="black" d="M882,-267.5C945.75,-267.5 931.47,-179.03 986.69,-169.36"/>
<polygon fill="black" stroke="black" points="987.32,-172.82 997,-168.5 986.74,-165.84 987.32,-172.82"/>
</g>
<!-- RawChopper[SampleRun] -->
<g id="node4" class="node">
<title>RawChopper[SampleRun]</title>
<polygon fill="none" stroke="black" points="532,-218 332,-218 332,-185 532,-185 532,-218"/>
<text text-anchor="start" x="340" y="-203.8" font-family="Times,serif" font-size="14.00">RawChopper[SampleRun]</text>
<text text-anchor="start" x="381.5" y="-192.2" font-family="Times,serif" font-size="11.00">via:</text>
<text text-anchor="start" x="402.5" y="-192.2" font-family="Times,serif" font-style="italic" font-size="11.00">amor_chopper</text>
</g>
<!-- ChopperDistance[SampleRun] -->
<g id="node5" class="node">
<title>ChopperDistance[SampleRun]</title>
<polygon fill="none" stroke="black" points="907,-252 675,-252 675,-219 907,-219 907,-252"/>
<text text-anchor="start" x="683" y="-237.8" font-family="Times,serif" font-size="14.00">ChopperDistance[SampleRun]</text>
<text text-anchor="start" x="699.5" y="-226.2" font-family="Times,serif" font-size="11.00">via:</text>
<text text-anchor="start" x="720.5" y="-226.2" font-family="Times,serif" font-style="italic" font-size="11.00">load_amor_chopper_distance</text>
</g>
<!-- RawChopper[SampleRun]&#45;&gt;ChopperDistance[SampleRun] -->
<g id="edge1" class="edge">
<title>RawChopper[SampleRun]:e&#45;&gt;ChopperDistance[SampleRun]:w</title>
<path fill="none" stroke="black" d="M533,-201.5C593.94,-201.5 608.06,-231.88 663.88,-235.21"/>
<polygon fill="black" stroke="black" points="663.9,-238.71 674,-235.5 664.11,-231.71 663.9,-238.71"/>
</g>
<!-- ChopperSeparation[SampleRun] -->
<g id="node8" class="node">
<title>ChopperSeparation[SampleRun]</title>
<polygon fill="none" stroke="black" points="915,-215 667,-215 667,-182 915,-182 915,-215"/>
<text text-anchor="start" x="675" y="-200.8" font-family="Times,serif" font-size="14.00">ChopperSeparation[SampleRun]</text>
<text text-anchor="start" x="693" y="-189.2" font-family="Times,serif" font-size="11.00">via:</text>
<text text-anchor="start" x="714" y="-189.2" font-family="Times,serif" font-style="italic" font-size="11.00">load_amor_chopper_separation</text>
</g>
<!-- RawChopper[SampleRun]&#45;&gt;ChopperSeparation[SampleRun] -->
<g id="edge2" class="edge">
<title>RawChopper[SampleRun]:e&#45;&gt;ChopperSeparation[SampleRun]:w</title>
<path fill="none" stroke="black" d="M533,-201.5C589.08,-201.5 605.53,-198.84 656.97,-198.53"/>
<polygon fill="black" stroke="black" points="657.01,-202.03 667,-198.5 656.99,-195.03 657.01,-202.03"/>
</g>
<!-- ChopperDistance[SampleRun]&#45;&gt;RawDetector[SampleRun] -->
<g id="edge18" class="edge">
<title>ChopperDistance[SampleRun]:e&#45;&gt;RawDetector[SampleRun]:w</title>
<path fill="none" stroke="black" d="M908,-235.5C953.84,-235.5 948.65,-178.08 986.91,-169.55"/>
<polygon fill="black" stroke="black" points="987.42,-173.02 997,-168.5 986.69,-166.06 987.42,-173.02"/>
</g>
<!-- ChopperFrequency[SampleRun] -->
<g id="node6" class="node">
<title>ChopperFrequency[SampleRun]</title>
<polygon fill="none" stroke="black" points="913.5,-178 668.5,-178 668.5,-155 913.5,-155 913.5,-178"/>
<text text-anchor="middle" x="791" y="-162.8" font-family="Times,serif" font-size="14.00">ChopperFrequency[SampleRun]</text>
</g>
<!-- ChopperFrequency[SampleRun]&#45;&gt;RawDetector[SampleRun] -->
<g id="edge17" class="edge">
<title>ChopperFrequency[SampleRun]:e&#45;&gt;RawDetector[SampleRun]:w</title>
<path fill="none" stroke="black" d="M915,-166.5C947.75,-166.5 958.42,-168.11 986.68,-168.44"/>
<polygon fill="black" stroke="black" points="986.98,-171.94 997,-168.5 987.02,-164.94 986.98,-171.94"/>
</g>
<!-- ChopperPhase[SampleRun] -->
<g id="node7" class="node">
<title>ChopperPhase[SampleRun]</title>
<polygon fill="none" stroke="black" points="897,-151 685,-151 685,-128 897,-128 897,-151"/>
<text text-anchor="middle" x="791" y="-135.8" font-family="Times,serif" font-size="14.00">ChopperPhase[SampleRun]</text>
</g>
<!-- ChopperPhase[SampleRun]&#45;&gt;RawDetector[SampleRun] -->
<g id="edge16" class="edge">
<title>ChopperPhase[SampleRun]:e&#45;&gt;RawDetector[SampleRun]:w</title>
<path fill="none" stroke="black" d="M898,-139.5C940.27,-139.5 949.77,-164.15 986.92,-168"/>
<polygon fill="black" stroke="black" points="986.84,-171.5 997,-168.5 987.19,-164.51 986.84,-171.5"/>
</g>
<!-- ChopperSeparation[SampleRun]&#45;&gt;RawDetector[SampleRun] -->
<g id="edge19" class="edge">
<title>ChopperSeparation[SampleRun]:e&#45;&gt;RawDetector[SampleRun]:w</title>
<path fill="none" stroke="black" d="M915,-198.5C950.17,-198.5 957.07,-173.86 986.94,-169.24"/>
<polygon fill="black" stroke="black" points="987.28,-172.73 997,-168.5 986.77,-165.74 987.28,-172.73"/>
</g>
<!-- GravityToggle -->
<g id="node9" class="node">
<title>GravityToggle</title>
<polygon fill="none" stroke="black" points="849.5,-60 732.5,-60 732.5,-37 849.5,-37 849.5,-60"/>
<text text-anchor="middle" x="791" y="-44.8" font-family="Times,serif" font-size="14.00">GravityToggle</text>
</g>
<!-- CoordTransformationGraph -->
<g id="node10" class="node">
<title>CoordTransformationGraph</title>
<polygon fill="none" stroke="black" points="1211,-121 987,-121 987,-88 1211,-88 1211,-121"/>
<text text-anchor="start" x="1000" y="-106.8" font-family="Times,serif" font-size="14.00">CoordTransformationGraph</text>
<text text-anchor="start" x="995" y="-95.2" font-family="Times,serif" font-size="11.00">via:</text>
<text text-anchor="start" x="1016" y="-95.2" font-family="Times,serif" font-style="italic" font-size="11.00">coordinate_transformation_graph</text>
</g>
<!-- GravityToggle&#45;&gt;CoordTransformationGraph -->
<g id="edge3" class="edge">
<title>GravityToggle:e&#45;&gt;CoordTransformationGraph:w</title>
<path fill="none" stroke="black" d="M851,-48.5C880.22,-48.5 887.8,-52.83 915,-63.5 945.8,-75.59 949.65,-99.05 976.82,-103.69"/>
<polygon fill="black" stroke="black" points="976.75,-107.2 987,-104.5 977.31,-100.22 976.75,-107.2"/>
</g>
<!-- CoordTransformationGraph&#45;&gt;ReducibleData[SampleRun] -->
<g id="edge29" class="edge">
<title>CoordTransformationGraph:e&#45;&gt;ReducibleData[SampleRun]:w</title>
<path fill="none" stroke="black" d="M1211,-104.5C1247.94,-104.5 1253.18,-135.15 1284.43,-140.66"/>
<polygon fill="black" stroke="black" points="1284.24,-144.15 1294.5,-141.5 1284.83,-137.18 1284.24,-144.15"/>
</g>
<!-- Reference -->
<g id="node29" class="node">
<title>Reference</title>
<polygon fill="none" stroke="black" points="1934,-112 1684,-112 1684,-79 1934,-79 1934,-112"/>
<text text-anchor="start" x="1772.5" y="-97.8" font-family="Times,serif" font-size="14.00">Reference</text>
<text text-anchor="start" x="1692" y="-86.2" font-family="Times,serif" font-size="11.00">via:</text>
<text text-anchor="start" x="1713" y="-86.2" font-family="Times,serif" font-style="italic" font-size="11.00">evaluate_reference_at_sample_coords</text>
</g>
<!-- CoordTransformationGraph&#45;&gt;Reference -->
<g id="edge33" class="edge">
<title>CoordTransformationGraph:e&#45;&gt;Reference:w</title>
<path fill="none" stroke="black" d="M1211,-104.5C1246.39,-104.5 1248.47,-78.24 1283,-70.5 1347.4,-56.06 1514.47,-62.66 1580,-70.5 1623.12,-75.66 1634.24,-92.55 1672.62,-95.16"/>
<polygon fill="black" stroke="black" points="1672.89,-98.67 1683,-95.5 1673.12,-91.67 1672.89,-98.67"/>
</g>
<!-- CriticalEdge -->
<g id="node11" class="node">
<title>CriticalEdge</title>
<polygon fill="none" stroke="black" points="1484.5,-185 1378.5,-185 1378.5,-162 1484.5,-162 1484.5,-185"/>
<text text-anchor="middle" x="1431.5" y="-169.8" font-family="Times,serif" font-size="14.00">CriticalEdge</text>
</g>
<!-- CriticalEdge&#45;&gt;Sample -->
<g id="edge39" class="edge">
<title>CriticalEdge:e&#45;&gt;Sample:w</title>
<path fill="none" stroke="black" d="M1485.5,-173.5C1556.36,-173.5 1575.86,-158.96 1641.91,-157.6"/>
<polygon fill="black" stroke="black" points="1642.04,-161.1 1652,-157.5 1641.97,-154.1 1642.04,-161.1"/>
</g>
<!-- Filename[SampleRun] -->
<g id="node12" class="node">
<title>Filename[SampleRun]</title>
<polygon fill="none" stroke="red" stroke-dasharray="5,2" points="186,-213 11,-213 11,-190 186,-190 186,-213"/>
<text text-anchor="middle" x="98.5" y="-197.8" font-family="Times,serif" font-size="14.00" fill="red">Filename[SampleRun]</text>
</g>
<!-- Filename[SampleRun]&#45;&gt;RawChopper[SampleRun] -->
<g id="edge12" class="edge">
<title>Filename[SampleRun]:e&#45;&gt;RawChopper[SampleRun]:w</title>
<path fill="none" stroke="black" d="M187.5,-201.5C247.79,-201.5 265.34,-201.5 320.95,-201.5"/>
<polygon fill="black" stroke="black" points="321,-205 331,-201.5 321,-198 321,-205"/>
</g>
<!-- DetectorRotation[SampleRun] -->
<g id="node13" class="node">
<title>DetectorRotation[SampleRun]</title>
<polygon fill="none" stroke="black" points="907,-33 675,-33 675,0 907,0 907,-33"/>
<text text-anchor="start" x="683" y="-18.8" font-family="Times,serif" font-size="14.00">DetectorRotation[SampleRun]</text>
<text text-anchor="start" x="699.5" y="-7.2" font-family="Times,serif" font-size="11.00">via:</text>
<text text-anchor="start" x="720.5" y="-7.2" font-family="Times,serif" font-style="italic" font-size="11.00">load_amor_detector_rotation</text>
</g>
<!-- Filename[SampleRun]&#45;&gt;DetectorRotation[SampleRun] -->
<g id="edge4" class="edge">
<title>Filename[SampleRun]:e&#45;&gt;DetectorRotation[SampleRun]:w</title>
<path fill="none" stroke="black" d="M187.5,-201.5C259.5,-201.5 208.66,-100.78 269,-61.5 417.88,35.43 490.12,-14.51 663.77,-16.44"/>
<polygon fill="black" stroke="black" points="663.98,-19.94 674,-16.5 664.02,-12.94 663.98,-19.94"/>
</g>
<!-- NeXusComponent[NXdetector, SampleRun] -->
<g id="node16" class="node">
<title>NeXusComponent[NXdetector, SampleRun]</title>
<polygon fill="none" stroke="black" points="595,-310 269,-310 269,-277 595,-277 595,-310"/>
<text text-anchor="start" x="277" y="-295.8" font-family="Times,serif" font-size="14.00">NeXusComponent[NXdetector, SampleRun]</text>
<text text-anchor="start" x="383" y="-284.2" font-family="Times,serif" font-size="11.00">via:</text>
<text text-anchor="start" x="404" y="-284.2" font-family="Times,serif" font-style="italic" font-size="11.00">load_detector</text>
</g>
<!-- Filename[SampleRun]&#45;&gt;NeXusComponent[NXdetector, SampleRun] -->
<g id="edge5" class="edge">
<title>Filename[SampleRun]:e&#45;&gt;NeXusComponent[NXdetector, SampleRun]:w</title>
<path fill="none" stroke="black" d="M187.5,-201.5C238.39,-201.5 217.78,-281.35 258.9,-292.27"/>
<polygon fill="black" stroke="black" points="258.65,-295.76 269,-293.5 259.5,-288.82 258.65,-295.76"/>
</g>
<!-- ProtonCurrent[SampleRun] -->
<g id="node18" class="node">
<title>ProtonCurrent[SampleRun]</title>
<polygon fill="none" stroke="black" points="538.5,-267 325.5,-267 325.5,-234 538.5,-234 538.5,-267"/>
<text text-anchor="start" x="333.5" y="-252.8" font-family="Times,serif" font-size="14.00">ProtonCurrent[SampleRun]</text>
<text text-anchor="start" x="347.5" y="-241.2" font-family="Times,serif" font-size="11.00">via:</text>
<text text-anchor="start" x="368.5" y="-241.2" font-family="Times,serif" font-style="italic" font-size="11.00">load_amor_proton_current</text>
</g>
<!-- Filename[SampleRun]&#45;&gt;ProtonCurrent[SampleRun] -->
<g id="edge7" class="edge">
<title>Filename[SampleRun]:e&#45;&gt;ProtonCurrent[SampleRun]:w</title>
<path fill="none" stroke="black" d="M187.5,-201.5C248.83,-201.5 259.11,-245.29 314.85,-250.08"/>
<polygon fill="black" stroke="black" points="314.86,-253.58 325,-250.5 315.15,-246.59 314.86,-253.58"/>
</g>
<!-- RawSampleRotation[SampleRun] -->
<g id="node24" class="node">
<title>RawSampleRotation[SampleRun]</title>
<polygon fill="none" stroke="black" points="559,-97 305,-97 305,-64 559,-64 559,-97"/>
<text text-anchor="start" x="313" y="-82.8" font-family="Times,serif" font-size="14.00">RawSampleRotation[SampleRun]</text>
<text text-anchor="start" x="344" y="-71.2" font-family="Times,serif" font-size="11.00">via:</text>
<text text-anchor="start" x="365" y="-71.2" font-family="Times,serif" font-style="italic" font-size="11.00">load_amor_sample_rotation</text>
</g>
<!-- Filename[SampleRun]&#45;&gt;RawSampleRotation[SampleRun] -->
<g id="edge22" class="edge">
<title>Filename[SampleRun]:e&#45;&gt;RawSampleRotation[SampleRun]:w</title>
<path fill="none" stroke="black" d="M187.5,-201.5C258.51,-201.5 232.29,-92.03 293.81,-81.34"/>
<polygon fill="black" stroke="black" points="294.32,-84.81 304,-80.5 293.75,-77.83 294.32,-84.81"/>
</g>
<!-- DetectorRotation[SampleRun]&#45;&gt;QBins -->
<g id="edge8" class="edge">
<title>DetectorRotation[SampleRun]:e&#45;&gt;QBins:w</title>
<path fill="none" stroke="black" d="M908,-16.5C1042.7,-16.5 1076.5,-16.15 1211,-23.5 1290.08,-27.82 1311.9,-38.53 1386.17,-39.44"/>
<polygon fill="black" stroke="black" points="1386.48,-42.94 1396.5,-39.5 1386.52,-35.94 1386.48,-42.94"/>
</g>
<!-- DetectorRotation[SampleRun]&#45;&gt;RawDetector[SampleRun] -->
<g id="edge14" class="edge">
<title>DetectorRotation[SampleRun]:e&#45;&gt;RawDetector[SampleRun]:w</title>
<path fill="none" stroke="black" d="M908,-16.5C982.61,-16.5 924.73,-154.58 986.92,-167.53"/>
<polygon fill="black" stroke="black" points="986.71,-171.03 997,-168.5 987.38,-164.06 986.71,-171.03"/>
</g>
<!-- DetectorSpatialResolution[SampleRun] -->
<g id="node14" class="node">
<title>DetectorSpatialResolution[SampleRun]</title>
<polygon fill="none" stroke="black" points="1580,-94 1283,-94 1283,-71 1580,-71 1580,-94"/>
<text text-anchor="middle" x="1431.5" y="-78.8" font-family="Times,serif" font-size="14.00">DetectorSpatialResolution[SampleRun]</text>
</g>
<!-- DetectorSpatialResolution[SampleRun]&#45;&gt;Reference -->
<g id="edge32" class="edge">
<title>DetectorSpatialResolution[SampleRun]:e&#45;&gt;Reference:w</title>
<path fill="none" stroke="black" d="M1580,-82.5C1622.54,-82.5 1634.97,-93.55 1672.8,-95.27"/>
<polygon fill="black" stroke="black" points="1672.93,-98.78 1683,-95.5 1673.08,-91.78 1672.93,-98.78"/>
</g>
<!-- MValue -->
<g id="node15" class="node">
<title>MValue</title>
<polygon fill="none" stroke="black" points="1466.5,-239 1396.5,-239 1396.5,-216 1466.5,-216 1466.5,-239"/>
<text text-anchor="middle" x="1431.5" y="-223.8" font-family="Times,serif" font-size="14.00">MValue</text>
</g>
<!-- MValue&#45;&gt;Sample -->
<g id="edge40" class="edge">
<title>MValue:e&#45;&gt;Sample:w</title>
<path fill="none" stroke="black" d="M1467.5,-227.5C1517.94,-227.5 1533.39,-231.79 1580,-212.5 1613.72,-198.54 1612.38,-164.71 1641.81,-158.49"/>
<polygon fill="black" stroke="black" points="1642.39,-161.95 1652,-157.5 1641.71,-154.98 1642.39,-161.95"/>
</g>
<!-- NeXusComponent[NXdetector, SampleRun]&#45;&gt;RawDetector[SampleRun] -->
<g id="edge13" class="edge">
<title>NeXusComponent[NXdetector, SampleRun]:e&#45;&gt;RawDetector[SampleRun]:w</title>
<path fill="none" stroke="black" d="M595,-293.5C737.32,-293.5 789.44,-348.51 915,-281.5 966.43,-254.05 938.83,-178.45 986.75,-169.39"/>
<polygon fill="black" stroke="black" points="987.34,-172.85 997,-168.5 986.73,-165.88 987.34,-172.85"/>
</g>
<!-- NeXusName[NXdetector] -->
<g id="node17" class="node">
<title>NeXusName[NXdetector]</title>
<polygon fill="none" stroke="black" points="197,-305 0,-305 0,-282 197,-282 197,-305"/>
<text text-anchor="middle" x="98.5" y="-289.8" font-family="Times,serif" font-size="14.00">NeXusName[NXdetector]</text>
</g>
<!-- NeXusName[NXdetector]&#45;&gt;NeXusComponent[NXdetector, SampleRun] -->
<g id="edge6" class="edge">
<title>NeXusName[NXdetector]:e&#45;&gt;NeXusComponent[NXdetector, SampleRun]:w</title>
<path fill="none" stroke="black" d="M197,-293.5C225.38,-293.5 234.88,-293.5 258.98,-293.5"/>
<polygon fill="black" stroke="black" points="259,-297 269,-293.5 259,-290 259,-297"/>
</g>
<!-- ProtonCurrent[SampleRun]&#45;&gt;ReducibleData[SampleRun] -->
<g id="edge28" class="edge">
<title>ProtonCurrent[SampleRun]:e&#45;&gt;ReducibleData[SampleRun]:w</title>
<path fill="none" stroke="black" d="M539,-250.5C597.33,-250.5 609.03,-273.02 667,-279.5 776.54,-291.75 805.42,-291.39 915,-279.5 1048.9,-264.97 1090.75,-275.17 1211,-214.5 1251.74,-193.94 1246.36,-148.88 1284.45,-142.31"/>
<polygon fill="black" stroke="black" points="1284.81,-145.79 1294.5,-141.5 1284.25,-138.81 1284.81,-145.79"/>
</g>
<!-- ReflectivityOverQ -->
<g id="node31" class="node">
<title>ReflectivityOverQ</title>
<polygon fill="none" stroke="black" points="2202,-112 2038,-112 2038,-79 2202,-79 2202,-112"/>
<text text-anchor="start" x="2056.5" y="-97.8" font-family="Times,serif" font-size="14.00">ReflectivityOverQ</text>
<text text-anchor="start" x="2046" y="-86.2" font-family="Times,serif" font-size="11.00">via:</text>
<text text-anchor="start" x="2067" y="-86.2" font-family="Times,serif" font-style="italic" font-size="11.00">reduce_sample_over_q</text>
</g>
<!-- QBins&#45;&gt;ReflectivityOverQ -->
<g id="edge36" class="edge">
<title>QBins:e&#45;&gt;ReflectivityOverQ:w</title>
<path fill="none" stroke="black" d="M1466.5,-39.5C1689.11,-39.5 1746.45,-39.72 1966,-76.5 1994.94,-81.35 2003.15,-92.54 2027.71,-95.01"/>
<polygon fill="black" stroke="black" points="2027.84,-98.52 2038,-95.5 2028.18,-91.53 2027.84,-98.52"/>
</g>
<!-- SampleRotation[SampleRun] -->
<g id="node20" class="node">
<title>SampleRotation[SampleRun]</title>
<polygon fill="none" stroke="black" points="902.5,-97 679.5,-97 679.5,-64 902.5,-64 902.5,-97"/>
<text text-anchor="start" x="687.5" y="-82.8" font-family="Times,serif" font-size="14.00">SampleRotation[SampleRun]</text>
<text text-anchor="start" x="712" y="-71.2" font-family="Times,serif" font-size="11.00">via:</text>
<text text-anchor="start" x="733" y="-71.2" font-family="Times,serif" font-style="italic" font-size="11.00">correct_sample_rotation</text>
</g>
<!-- SampleRotation[SampleRun]&#45;&gt;QBins -->
<g id="edge9" class="edge">
<title>SampleRotation[SampleRun]:e&#45;&gt;QBins:w</title>
<path fill="none" stroke="black" d="M903,-80.5C945.78,-80.5 945.6,-44.29 987,-33.5 1071.97,-11.34 1289.46,-37.53 1386.4,-39.4"/>
<polygon fill="black" stroke="black" points="1386.46,-42.9 1396.5,-39.5 1386.54,-35.9 1386.46,-42.9"/>
</g>
<!-- SampleRotation[SampleRun]&#45;&gt;RawDetector[SampleRun] -->
<g id="edge15" class="edge">
<title>SampleRotation[SampleRun]:e&#45;&gt;RawDetector[SampleRun]:w</title>
<path fill="none" stroke="black" d="M903,-80.5C956.54,-80.5 942.09,-157.52 986.86,-167.45"/>
<polygon fill="black" stroke="black" points="986.69,-170.95 997,-168.5 987.41,-163.99 986.69,-170.95"/>
</g>
<!-- WavelengthBins -->
<g id="node21" class="node">
<title>WavelengthBins</title>
<polygon fill="none" stroke="black" points="1165,-57 1033,-57 1033,-34 1165,-34 1165,-57"/>
<text text-anchor="middle" x="1099" y="-41.8" font-family="Times,serif" font-size="14.00">WavelengthBins</text>
</g>
<!-- WavelengthBins&#45;&gt;QBins -->
<g id="edge10" class="edge">
<title>WavelengthBins:e&#45;&gt;QBins:w</title>
<path fill="none" stroke="black" d="M1166,-45.5C1264.98,-45.5 1292.18,-39.9 1386.26,-39.52"/>
<polygon fill="black" stroke="black" points="1386.51,-43.02 1396.5,-39.5 1386.49,-36.02 1386.51,-43.02"/>
</g>
<!-- WavelengthBins&#45;&gt;ReducibleData[SampleRun] -->
<g id="edge27" class="edge">
<title>WavelengthBins:e&#45;&gt;ReducibleData[SampleRun]:w</title>
<path fill="none" stroke="black" d="M1166,-45.5C1187.08,-45.5 1192.98,-49.55 1211,-60.5 1252.08,-85.46 1244.26,-134.02 1284.5,-140.73"/>
<polygon fill="black" stroke="black" points="1284.26,-144.22 1294.5,-141.5 1284.8,-137.24 1284.26,-144.22"/>
</g>
<!-- RawDetector[SampleRun]&#45;&gt;ReducibleData[SampleRun] -->
<g id="edge23" class="edge">
<title>RawDetector[SampleRun]:e&#45;&gt;ReducibleData[SampleRun]:w</title>
<path fill="none" stroke="black" d="M1201,-168.5C1240.54,-168.5 1249.78,-145.94 1284.11,-142.06"/>
<polygon fill="black" stroke="black" points="1284.7,-145.54 1294.5,-141.5 1284.33,-138.55 1284.7,-145.54"/>
</g>
<!-- SampleSize[SampleRun] -->
<g id="node23" class="node">
<title>SampleSize[SampleRun]</title>
<polygon fill="none" stroke="black" points="887,-124 695,-124 695,-101 887,-101 887,-124"/>
<text text-anchor="middle" x="791" y="-108.8" font-family="Times,serif" font-size="14.00">SampleSize[SampleRun]</text>
</g>
<!-- SampleSize[SampleRun]&#45;&gt;RawDetector[SampleRun] -->
<g id="edge20" class="edge">
<title>SampleSize[SampleRun]:e&#45;&gt;RawDetector[SampleRun]:w</title>
<path fill="none" stroke="black" d="M888,-112.5C938.85,-112.5 942.29,-161.31 986.84,-167.79"/>
<polygon fill="black" stroke="black" points="986.78,-171.3 997,-168.5 987.27,-164.31 986.78,-171.3"/>
</g>
<!-- RawSampleRotation[SampleRun]&#45;&gt;SampleRotation[SampleRun] -->
<g id="edge42" class="edge">
<title>RawSampleRotation[SampleRun]:e&#45;&gt;SampleRotation[SampleRun]:w</title>
<path fill="none" stroke="black" d="M560,-80.5C609.38,-80.5 624.18,-80.5 668.97,-80.5"/>
<polygon fill="black" stroke="black" points="669,-84 679,-80.5 669,-77 669,-84"/>
</g>
<!-- ReducedReference -->
<g id="node25" class="node">
<title>ReducedReference</title>
<polygon fill="none" stroke="black" points="1506.5,-121 1356.5,-121 1356.5,-98 1506.5,-98 1506.5,-121"/>
<text text-anchor="middle" x="1431.5" y="-105.8" font-family="Times,serif" font-size="14.00">ReducedReference</text>
</g>
<!-- ReducedReference&#45;&gt;Reference -->
<g id="edge30" class="edge">
<title>ReducedReference:e&#45;&gt;Reference:w</title>
<path fill="none" stroke="black" d="M1507.5,-109.5C1582.23,-109.5 1602.93,-96.73 1672.8,-95.58"/>
<polygon fill="black" stroke="black" points="1673.03,-99.08 1683,-95.5 1672.97,-92.08 1673.03,-99.08"/>
</g>
<!-- ReducedReference&#45;&gt;Sample -->
<g id="edge38" class="edge">
<title>ReducedReference:e&#45;&gt;Sample:w</title>
<path fill="none" stroke="black" d="M1507.5,-109.5C1540.4,-109.5 1548.73,-114.25 1580,-124.5 1609.92,-134.31 1615.76,-152.98 1641.85,-156.8"/>
<polygon fill="black" stroke="black" points="1641.78,-160.31 1652,-157.5 1642.26,-153.32 1641.78,-160.31"/>
</g>
<!-- ReducibleData[SampleRun]&#45;&gt;Reference -->
<g id="edge31" class="edge">
<title>ReducibleData[SampleRun]:e&#45;&gt;Reference:w</title>
<path fill="none" stroke="black" d="M1568.5,-141.5C1619.81,-141.5 1627.33,-101.24 1672.99,-96.05"/>
<polygon fill="black" stroke="black" points="1673.21,-99.54 1683,-95.5 1672.82,-92.55 1673.21,-99.54"/>
</g>
<!-- ReducibleData[SampleRun]&#45;&gt;Sample -->
<g id="edge37" class="edge">
<title>ReducibleData[SampleRun]:e&#45;&gt;Sample:w</title>
<path fill="none" stroke="black" d="M1568.5,-141.5C1602.6,-141.5 1612.38,-154.53 1641.73,-157.07"/>
<polygon fill="black" stroke="black" points="1641.86,-160.58 1652,-157.5 1642.15,-153.59 1641.86,-160.58"/>
</g>
<!-- YIndexLimits -->
<g id="node27" class="node">
<title>YIndexLimits</title>
<polygon fill="none" stroke="black" points="1154,-148 1044,-148 1044,-125 1154,-125 1154,-148"/>
<text text-anchor="middle" x="1099" y="-132.8" font-family="Times,serif" font-size="14.00">YIndexLimits</text>
</g>
<!-- YIndexLimits&#45;&gt;ReducibleData[SampleRun] -->
<g id="edge24" class="edge">
<title>YIndexLimits:e&#45;&gt;ReducibleData[SampleRun]:w</title>
<path fill="none" stroke="black" d="M1155,-136.5C1213.53,-136.5 1230.56,-140.95 1284.39,-141.45"/>
<polygon fill="black" stroke="black" points="1284.48,-144.95 1294.5,-141.5 1284.52,-137.95 1284.48,-144.95"/>
</g>
<!-- ZIndexLimits -->
<g id="node28" class="node">
<title>ZIndexLimits</title>
<polygon fill="none" stroke="black" points="1154.5,-212 1043.5,-212 1043.5,-189 1154.5,-189 1154.5,-212"/>
<text text-anchor="middle" x="1099" y="-196.8" font-family="Times,serif" font-size="14.00">ZIndexLimits</text>
</g>
<!-- ZIndexLimits&#45;&gt;ReducibleData[SampleRun] -->
<g id="edge25" class="edge">
<title>ZIndexLimits:e&#45;&gt;ReducibleData[SampleRun]:w</title>
<path fill="none" stroke="black" d="M1155,-200.5C1180.77,-200.5 1187.01,-194.9 1211,-185.5 1246.7,-171.52 1251.85,-146.33 1284.51,-142.11"/>
<polygon fill="black" stroke="black" points="1284.73,-145.6 1294.5,-141.5 1284.31,-138.62 1284.73,-145.6"/>
</g>
<!-- Reference&#45;&gt;ReflectivityOverQ -->
<g id="edge35" class="edge">
<title>Reference:e&#45;&gt;ReflectivityOverQ:w</title>
<path fill="none" stroke="black" d="M1935,-95.5C1977.2,-95.5 1990.22,-95.5 2027.87,-95.5"/>
<polygon fill="black" stroke="black" points="2028,-99 2038,-95.5 2028,-92 2028,-99"/>
</g>
<!-- Sample&#45;&gt;ReflectivityOverQ -->
<g id="edge34" class="edge">
<title>Sample:e&#45;&gt;ReflectivityOverQ:w</title>
<path fill="none" stroke="black" d="M1966,-157.5C2004.44,-157.5 1997.57,-106.14 2027.86,-96.91"/>
<polygon fill="black" stroke="black" points="2028.58,-100.35 2038,-95.5 2027.61,-93.41 2028.58,-100.35"/>
</g>
<!-- SampleRotationOffset[SampleRun] -->
<g id="node32" class="node">
<title>SampleRotationOffset[SampleRun]</title>
<polygon fill="none" stroke="black" points="565,-124 299,-124 299,-101 565,-101 565,-124"/>
<text text-anchor="middle" x="432" y="-108.8" font-family="Times,serif" font-size="14.00">SampleRotationOffset[SampleRun]</text>
</g>
<!-- SampleRotationOffset[SampleRun]&#45;&gt;SampleRotation[SampleRun] -->
<g id="edge43" class="edge">
<title>SampleRotationOffset[SampleRun]:e&#45;&gt;SampleRotation[SampleRun]:w</title>
<path fill="none" stroke="black" d="M566,-112.5C614.63,-112.5 625.42,-84.73 668.88,-80.93"/>
<polygon fill="black" stroke="black" points="669.16,-84.42 679,-80.5 668.86,-77.43 669.16,-84.42"/>
</g>
</g>
</svg>
