<?xml version="1.0" encoding="UTF-8" standalone="no"?>
<!DOCTYPE svg PUBLIC "-//W3C//DTD SVG 1.1//EN"
 "http://www.w3.org/Graphics/SVG/1.1/DTD/svg11.dtd">
<!-- Generated by graphviz version 2.43.0 (0)
 -->
<!-- Title: %3 Pages: 1 -->
<svg width="378pt" height="267pt"
 viewBox="0.00 0.00 378.00 267.00" xmlns="http://www.w3.org/2000/svg" xmlns:xlink="http://www.w3.org/1999/xlink">
<g id="graph0" class="graph" transform="scale(1 1) rotate(0) translate(4 263)">
<title>%3</title>
<polygon fill="white" stroke="transparent" points="-4,4 -4,-263 374,-263 374,4 -4,4"/>
<!-- source_position -->
<g id="node1" class="node">
<title>source_position</title>
<polygon fill="none" stroke="black" points="128,-259 0,-259 0,-236 128,-236 128,-259"/>
<text text-anchor="middle" x="64" y="-243.8" font-family="Times,serif" font-size="14.00">source_position</text>
</g>
<!-- incident_beam -->
<g id="node2" class="node">
<title>incident_beam</title>
<polygon fill="none" stroke="black" points="187,-200 67,-200 67,-177 187,-177 187,-200"/>
<text text-anchor="middle" x="127" y="-184.8" font-family="Times,serif" font-size="14.00">incident_beam</text>
</g>
<!-- source_position&#45;&gt;incident_beam -->
<g id="edge1" class="edge">
<title>source_position&#45;&gt;incident_beam</title>
<path fill="none" stroke="black" d="M75.85,-235.78C84.83,-227.66 97.34,-216.33 107.75,-206.92"/>
<polygon fill="black" stroke="black" points="110.14,-209.48 115.2,-200.17 105.44,-204.29 110.14,-209.48"/>
</g>
<!-- L1 -->
<g id="node6" class="node">
<title>L1</title>
<polygon fill="none" stroke="black" points="137,-141 83,-141 83,-118 137,-118 137,-141"/>
<text text-anchor="middle" x="110" y="-125.8" font-family="Times,serif" font-size="14.00">L1</text>
</g>
<!-- incident_beam&#45;&gt;L1 -->
<g id="edge5" class="edge">
<title>incident_beam&#45;&gt;L1</title>
<path fill="none" stroke="black" d="M123.8,-176.78C121.64,-169.53 118.72,-159.74 116.12,-151.02"/>
<polygon fill="black" stroke="black" points="119.4,-149.76 113.18,-141.17 112.69,-151.76 119.4,-149.76"/>
</g>
<!-- two_theta -->
<g id="node8" class="node">
<title>two_theta</title>
<polygon fill="none" stroke="black" points="242.5,-141 155.5,-141 155.5,-118 242.5,-118 242.5,-141"/>
<text text-anchor="middle" x="199" y="-125.8" font-family="Times,serif" font-size="14.00">two_theta</text>
</g>
<!-- incident_beam&#45;&gt;two_theta -->
<g id="edge7" class="edge">
<title>incident_beam&#45;&gt;two_theta</title>
<path fill="none" stroke="black" d="M140.54,-176.78C150.9,-168.58 165.39,-157.11 177.35,-147.64"/>
<polygon fill="black" stroke="black" points="179.85,-150.12 185.52,-141.17 175.51,-144.64 179.85,-150.12"/>
</g>
<!-- sample_position -->
<g id="node3" class="node">
<title>sample_position</title>
<polygon fill="none" stroke="black" points="277.5,-259 146.5,-259 146.5,-236 277.5,-236 277.5,-259"/>
<text text-anchor="middle" x="212" y="-243.8" font-family="Times,serif" font-size="14.00">sample_position</text>
</g>
<!-- sample_position&#45;&gt;incident_beam -->
<g id="edge2" class="edge">
<title>sample_position&#45;&gt;incident_beam</title>
<path fill="none" stroke="black" d="M196.01,-235.78C183.43,-227.34 165.68,-215.44 151.33,-205.82"/>
<polygon fill="black" stroke="black" points="153.17,-202.84 142.92,-200.17 149.27,-208.65 153.17,-202.84"/>
</g>
<!-- scattered_beam -->
<g id="node5" class="node">
<title>scattered_beam</title>
<polygon fill="none" stroke="black" points="337,-200 207,-200 207,-177 337,-177 337,-200"/>
<text text-anchor="middle" x="272" y="-184.8" font-family="Times,serif" font-size="14.00">scattered_beam</text>
</g>
<!-- sample_position&#45;&gt;scattered_beam -->
<g id="edge4" class="edge">
<title>sample_position&#45;&gt;scattered_beam</title>
<path fill="none" stroke="black" d="M223.29,-235.78C231.75,-227.74 243.52,-216.55 253.38,-207.19"/>
<polygon fill="black" stroke="black" points="255.93,-209.6 260.77,-200.17 251.1,-204.52 255.93,-209.6"/>
</g>
<!-- position -->
<g id="node4" class="node">
<title>position</title>
<polygon fill="none" stroke="black" points="370,-259 296,-259 296,-236 370,-236 370,-259"/>
<text text-anchor="middle" x="333" y="-243.8" font-family="Times,serif" font-size="14.00">position</text>
</g>
<!-- position&#45;&gt;scattered_beam -->
<g id="edge3" class="edge">
<title>position&#45;&gt;scattered_beam</title>
<path fill="none" stroke="black" d="M321.53,-235.78C312.92,-227.74 300.95,-216.55 290.93,-207.19"/>
<polygon fill="black" stroke="black" points="293.12,-204.44 283.42,-200.17 288.34,-209.56 293.12,-204.44"/>
</g>
<!-- L2 -->
<g id="node7" class="node">
<title>L2</title>
<polygon fill="none" stroke="black" points="315,-141 261,-141 261,-118 315,-118 315,-141"/>
<text text-anchor="middle" x="288" y="-125.8" font-family="Times,serif" font-size="14.00">L2</text>
</g>
<!-- scattered_beam&#45;&gt;L2 -->
<g id="edge6" class="edge">
<title>scattered_beam&#45;&gt;L2</title>
<path fill="none" stroke="black" d="M275.01,-176.78C277.04,-169.53 279.79,-159.74 282.24,-151.02"/>
<polygon fill="black" stroke="black" points="285.67,-151.75 285,-141.17 278.93,-149.86 285.67,-151.75"/>
</g>
<!-- scattered_beam&#45;&gt;two_theta -->
<g id="edge8" class="edge">
<title>scattered_beam&#45;&gt;two_theta</title>
<path fill="none" stroke="black" d="M258.27,-176.78C247.67,-168.5 232.79,-156.89 220.6,-147.36"/>
<polygon fill="black" stroke="black" points="222.71,-144.57 212.67,-141.17 218.4,-150.09 222.71,-144.57"/>
</g>
<!-- Ltotal -->
<g id="node9" class="node">
<title>Ltotal</title>
<polygon fill="none" stroke="black" points="228.5,-82 169.5,-82 169.5,-59 228.5,-59 228.5,-82"/>
<text text-anchor="middle" x="199" y="-66.8" font-family="Times,serif" font-size="14.00">Ltotal</text>
</g>
<!-- L1&#45;&gt;Ltotal -->
<g id="edge9" class="edge">
<title>L1&#45;&gt;Ltotal</title>
<path fill="none" stroke="black" d="M126.74,-117.78C139.92,-109.34 158.5,-97.44 173.52,-87.82"/>
<polygon fill="black" stroke="black" points="175.8,-90.51 182.33,-82.17 172.03,-84.62 175.8,-90.51"/>
</g>
<!-- L2&#45;&gt;Ltotal -->
<g id="edge10" class="edge">
<title>L2&#45;&gt;Ltotal</title>
<path fill="none" stroke="black" d="M271.26,-117.78C258.08,-109.34 239.5,-97.44 224.48,-87.82"/>
<polygon fill="black" stroke="black" points="225.97,-84.62 215.67,-82.17 222.2,-90.51 225.97,-84.62"/>
</g>
<!-- wavelength -->
<g id="node11" class="node">
<title>wavelength</title>
<polygon fill="none" stroke="black" points="285.5,-23 186.5,-23 186.5,0 285.5,0 285.5,-23"/>
<text text-anchor="middle" x="236" y="-7.8" font-family="Times,serif" font-size="14.00">wavelength</text>
</g>
<!-- Ltotal&#45;&gt;wavelength -->
<g id="edge12" class="edge">
<title>Ltotal&#45;&gt;wavelength</title>
<path fill="none" stroke="black" d="M205.96,-58.78C210.92,-51.14 217.73,-40.65 223.6,-31.6"/>
<polygon fill="black" stroke="black" points="226.56,-33.47 229.07,-23.17 220.69,-29.66 226.56,-33.47"/>
</g>
<!-- tof -->
<g id="node10" class="node">
<title>tof</title>
<polygon fill="none" stroke="black" points="301,-82 247,-82 247,-59 301,-59 301,-82"/>
<text text-anchor="middle" x="274" y="-66.8" font-family="Times,serif" font-size="14.00">tof</text>
</g>
<!-- tof&#45;&gt;wavelength -->
<g id="edge11" class="edge">
<title>tof&#45;&gt;wavelength</title>
<path fill="none" stroke="black" d="M266.85,-58.78C261.76,-51.14 254.77,-40.65 248.73,-31.6"/>
<polygon fill="black" stroke="black" points="251.57,-29.55 243.12,-23.17 245.75,-33.44 251.57,-29.55"/>
</g>
</g>
</svg>
