<?xml version="1.0" encoding="UTF-8" standalone="no"?>
<!DOCTYPE svg PUBLIC "-//W3C//DTD SVG 1.1//EN"
 "http://www.w3.org/Graphics/SVG/1.1/DTD/svg11.dtd">
<!-- Generated by graphviz version 2.43.0 (0)
 -->
<!-- Title: %3 Pages: 1 -->
<svg width="4355pt" height="565pt"
 viewBox="0.00 0.00 4355.02 565.32" xmlns="http://www.w3.org/2000/svg" xmlns:xlink="http://www.w3.org/1999/xlink">
<g id="graph0" class="graph" transform="scale(1 1) rotate(0) translate(4 561.32)">
<title>%3</title>
<polygon fill="white" stroke="transparent" points="-4,4 -4,-561.32 4351.02,-561.32 4351.02,4 -4,4"/>
<!-- Alpha -->
<g id="node1" class="node">
<title>Alpha</title>
<polygon fill="none" stroke="black" points="3142.58,-242 3085.58,-242 3085.58,-206 3142.58,-206 3142.58,-242"/>
<text text-anchor="middle" x="3114.08" y="-220.3" font-family="Times,serif" font-size="14.00">Alpha</text>
</g>
<!-- ess.amor.normalization.mask_events_where_supermirror_does_not_cover_Sample -->
<g id="node43" class="node">
<title>ess.amor.normalization.mask_events_where_supermirror_does_not_cover_Sample</title>
<ellipse fill="none" stroke="black" cx="3537.76" cy="-251" rx="239.36" ry="18"/>
<text text-anchor="middle" x="3537.76" y="-247.3" font-family="Times,serif" font-size="14.00">mask_events_where_supermirror_does_not_cover</text>
</g>
<!-- Alpha&#45;&gt;ess.amor.normalization.mask_events_where_supermirror_does_not_cover_Sample -->
<g id="edge50" class="edge">
<title>Alpha&#45;&gt;ess.amor.normalization.mask_events_where_supermirror_does_not_cover_Sample</title>
<path fill="none" stroke="black" d="M3142.75,-225.77C3184.31,-228.43 3266.36,-233.69 3344.88,-238.71"/>
<polygon fill="black" stroke="black" points="3344.73,-242.21 3354.93,-239.36 3345.17,-235.23 3344.73,-242.21"/>
</g>
<!-- ess.amor.load.load_amor_angle_from_horizon_to_center_of_incident_beam_AngleCenterOfIncomingToHorizon[SampleRun] -->
<g id="node2" class="node">
<title>ess.amor.load.load_amor_angle_from_horizon_to_center_of_incident_beam_AngleCenterOfIncomingToHorizon[SampleRun]</title>
<ellipse fill="none" stroke="black" cx="581.97" cy="-391" rx="285.95" ry="18"/>
<text text-anchor="middle" x="581.97" y="-387.3" font-family="Times,serif" font-size="14.00">load_amor_angle_from_horizon_to_center_of_incident_beam</text>
</g>
<!-- AngleCenterOfIncomingToHorizon[SampleRun] -->
<g id="node4" class="node">
<title>AngleCenterOfIncomingToHorizon[SampleRun]</title>
<polygon fill="none" stroke="black" points="1561.95,-474 1208.95,-474 1208.95,-438 1561.95,-438 1561.95,-474"/>
<text text-anchor="middle" x="1385.45" y="-452.3" font-family="Times,serif" font-size="14.00">AngleCenterOfIncomingToHorizon[SampleRun]</text>
</g>
<!-- ess.amor.load.load_amor_angle_from_horizon_to_center_of_incident_beam_AngleCenterOfIncomingToHorizon[SampleRun]&#45;&gt;AngleCenterOfIncomingToHorizon[SampleRun] -->
<g id="edge2" class="edge">
<title>ess.amor.load.load_amor_angle_from_horizon_to_center_of_incident_beam_AngleCenterOfIncomingToHorizon[SampleRun]&#45;&gt;AngleCenterOfIncomingToHorizon[SampleRun]</title>
<path fill="none" stroke="black" d="M807.01,-402.12C917.34,-408.44 1052.26,-417.42 1172.95,-429 1195.76,-431.19 1219.91,-433.9 1243.41,-436.75"/>
<polygon fill="black" stroke="black" points="1243.08,-440.23 1253.44,-437.98 1243.94,-433.29 1243.08,-440.23"/>
</g>
<!-- Filename[SampleRun] -->
<g id="node3" class="node">
<title>Filename[SampleRun]</title>
<polygon fill="none" stroke="red" stroke-dasharray="5,2" points="217.5,-323 42.5,-323 42.5,-287 217.5,-287 217.5,-323"/>
<text text-anchor="middle" x="130" y="-301.3" font-family="Times,serif" font-size="14.00" fill="red">Filename[SampleRun]</text>
</g>
<!-- Filename[SampleRun]&#45;&gt;ess.amor.load.load_amor_angle_from_horizon_to_center_of_incident_beam_AngleCenterOfIncomingToHorizon[SampleRun] -->
<g id="edge1" class="edge">
<title>Filename[SampleRun]&#45;&gt;ess.amor.load.load_amor_angle_from_horizon_to_center_of_incident_beam_AngleCenterOfIncomingToHorizon[SampleRun]</title>
<path fill="none" stroke="black" d="M177.59,-323.08C210.26,-335.05 255.21,-350.13 296,-359 327.52,-365.85 361.35,-371.29 394.28,-375.58"/>
<polygon fill="black" stroke="black" points="394.11,-379.09 404.47,-376.88 395,-372.14 394.11,-379.09"/>
</g>
<!-- ess.amor.load.load_amor_detector_rotation_DetectorRotation[SampleRun] -->
<g id="node17" class="node">
<title>ess.amor.load.load_amor_detector_rotation_DetectorRotation[SampleRun]</title>
<ellipse fill="none" stroke="black" cx="581.97" cy="-269" rx="143.77" ry="18"/>
<text text-anchor="middle" x="581.97" y="-265.3" font-family="Times,serif" font-size="14.00">load_amor_detector_rotation</text>
</g>
<!-- Filename[SampleRun]&#45;&gt;ess.amor.load.load_amor_detector_rotation_DetectorRotation[SampleRun] -->
<g id="edge8" class="edge">
<title>Filename[SampleRun]&#45;&gt;ess.amor.load.load_amor_detector_rotation_DetectorRotation[SampleRun]</title>
<path fill="none" stroke="black" d="M217.76,-298.06C283.75,-292.78 375.65,-285.43 450.49,-279.44"/>
<polygon fill="black" stroke="black" points="450.77,-282.93 460.46,-278.64 450.22,-275.95 450.77,-282.93"/>
</g>
<!-- ess.amor.load.load_detector_LoadedNeXusDetector[SampleRun] -->
<g id="node20" class="node">
<title>ess.amor.load.load_detector_LoadedNeXusDetector[SampleRun]</title>
<ellipse fill="none" stroke="black" cx="581.97" cy="-447" rx="73.39" ry="18"/>
<text text-anchor="middle" x="581.97" y="-443.3" font-family="Times,serif" font-size="14.00">load_detector</text>
</g>
<!-- Filename[SampleRun]&#45;&gt;ess.amor.load.load_detector_LoadedNeXusDetector[SampleRun] -->
<g id="edge10" class="edge">
<title>Filename[SampleRun]&#45;&gt;ess.amor.load.load_detector_LoadedNeXusDetector[SampleRun]</title>
<path fill="none" stroke="black" d="M150.48,-323.28C179.58,-349.38 237.31,-396.51 296,-418 361.42,-441.95 440.58,-448.37 498.85,-449.28"/>
<polygon fill="black" stroke="black" points="499.07,-452.78 509.11,-449.38 499.15,-445.78 499.07,-452.78"/>
</g>
<!-- ess.amor.load.load_amor_proton_current_ProtonCurrent[SampleRun] -->
<g id="node24" class="node">
<title>ess.amor.load.load_amor_proton_current_ProtonCurrent[SampleRun]</title>
<ellipse fill="none" stroke="black" cx="581.97" cy="-104" rx="132.68" ry="18"/>
<text text-anchor="middle" x="581.97" y="-100.3" font-family="Times,serif" font-size="14.00">load_amor_proton_current</text>
</g>
<!-- Filename[SampleRun]&#45;&gt;ess.amor.load.load_amor_proton_current_ProtonCurrent[SampleRun] -->
<g id="edge13" class="edge">
<title>Filename[SampleRun]&#45;&gt;ess.amor.load.load_amor_proton_current_ProtonCurrent[SampleRun]</title>
<path fill="none" stroke="black" d="M147.36,-286.89C175.01,-257.45 234.03,-199.46 296,-169 350.02,-142.45 415.16,-126.55 469.52,-117.13"/>
<polygon fill="black" stroke="black" points="470.26,-120.55 479.54,-115.44 469.1,-113.65 470.26,-120.55"/>
</g>
<!-- ess.amor.load.amor_chopper_RawChopper[SampleRun] -->
<g id="node27" class="node">
<title>ess.amor.load.amor_chopper_RawChopper[SampleRun]</title>
<ellipse fill="none" stroke="black" cx="581.97" cy="-332" rx="76.89" ry="18"/>
<text text-anchor="middle" x="581.97" y="-328.3" font-family="Times,serif" font-size="14.00">amor_chopper</text>
</g>
<!-- Filename[SampleRun]&#45;&gt;ess.amor.load.amor_chopper_RawChopper[SampleRun] -->
<g id="edge15" class="edge">
<title>Filename[SampleRun]&#45;&gt;ess.amor.load.amor_chopper_RawChopper[SampleRun]</title>
<path fill="none" stroke="black" d="M217.76,-310.21C298.46,-315.05 417.89,-322.21 497.51,-326.99"/>
<polygon fill="black" stroke="black" points="497.31,-330.49 507.5,-327.59 497.73,-323.5 497.31,-330.49"/>
</g>
<!-- ess.amor.load.load_amor_sample_rotation_SampleRotation[SampleRun] -->
<g id="node44" class="node">
<title>ess.amor.load.load_amor_sample_rotation_SampleRotation[SampleRun]</title>
<ellipse fill="none" stroke="black" cx="581.97" cy="-196" rx="137.58" ry="18"/>
<text text-anchor="middle" x="581.97" y="-192.3" font-family="Times,serif" font-size="14.00">load_amor_sample_rotation</text>
</g>
<!-- Filename[SampleRun]&#45;&gt;ess.amor.load.load_amor_sample_rotation_SampleRotation[SampleRun] -->
<g id="edge52" class="edge">
<title>Filename[SampleRun]&#45;&gt;ess.amor.load.load_amor_sample_rotation_SampleRotation[SampleRun]</title>
<path fill="none" stroke="black" d="M171.25,-286.96C204.2,-272.86 252.32,-253.73 296,-242 351.36,-227.13 414.14,-216.37 466.65,-209.01"/>
<polygon fill="black" stroke="black" points="467.25,-212.46 476.68,-207.63 466.29,-205.52 467.25,-212.46"/>
</g>
<!-- ess.amor.load.load_events_RawDetectorData[SampleRun] -->
<g id="node28" class="node">
<title>ess.amor.load.load_events_RawDetectorData[SampleRun]</title>
<ellipse fill="none" stroke="black" cx="2047.68" cy="-256" rx="65.79" ry="18"/>
<text text-anchor="middle" x="2047.68" y="-252.3" font-family="Times,serif" font-size="14.00">load_events</text>
</g>
<!-- AngleCenterOfIncomingToHorizon[SampleRun]&#45;&gt;ess.amor.load.load_events_RawDetectorData[SampleRun] -->
<g id="edge26" class="edge">
<title>AngleCenterOfIncomingToHorizon[SampleRun]&#45;&gt;ess.amor.load.load_events_RawDetectorData[SampleRun]</title>
<path fill="none" stroke="black" d="M1479.92,-474C1576.13,-488.02 1728.18,-497.33 1845.95,-445 1867.21,-435.55 1865.36,-423.31 1881.95,-407 1928.86,-360.85 1985.93,-309.56 2019.1,-280.21"/>
<polygon fill="black" stroke="black" points="2021.82,-282.48 2027,-273.23 2017.19,-277.23 2021.82,-282.48"/>
</g>
<!-- BeamDivergenceLimits -->
<g id="node5" class="node">
<title>BeamDivergenceLimits</title>
<polygon fill="none" stroke="black" points="2458.92,-236 2275.92,-236 2275.92,-200 2458.92,-200 2458.92,-236"/>
<text text-anchor="middle" x="2367.42" y="-214.3" font-family="Times,serif" font-size="14.00">BeamDivergenceLimits</text>
</g>
<!-- ess.amor.workflow.add_coords_masks_and_apply_corrections_ReducibleData[SampleRun] -->
<g id="node33" class="node">
<title>ess.amor.workflow.add_coords_masks_and_apply_corrections_ReducibleData[SampleRun]</title>
<ellipse fill="none" stroke="black" cx="2725.5" cy="-276" rx="204.16" ry="18"/>
<text text-anchor="middle" x="2725.5" y="-272.3" font-family="Times,serif" font-size="14.00">add_coords_masks_and_apply_corrections</text>
</g>
<!-- BeamDivergenceLimits&#45;&gt;ess.amor.workflow.add_coords_masks_and_apply_corrections_ReducibleData[SampleRun] -->
<g id="edge31" class="edge">
<title>BeamDivergenceLimits&#45;&gt;ess.amor.workflow.add_coords_masks_and_apply_corrections_ReducibleData[SampleRun]</title>
<path fill="none" stroke="black" d="M2459.2,-232.79C2507.39,-240.64 2566.92,-250.33 2617.37,-258.55"/>
<polygon fill="black" stroke="black" points="2616.91,-262.02 2627.34,-260.17 2618.03,-255.11 2616.91,-262.02"/>
</g>
<!-- BeamSize[SampleRun] -->
<g id="node6" class="node">
<title>BeamSize[SampleRun]</title>
<polygon fill="none" stroke="black" points="1811.45,-274 1632.45,-274 1632.45,-238 1811.45,-238 1811.45,-274"/>
<text text-anchor="middle" x="1721.95" y="-252.3" font-family="Times,serif" font-size="14.00">BeamSize[SampleRun]</text>
</g>
<!-- BeamSize[SampleRun]&#45;&gt;ess.amor.load.load_events_RawDetectorData[SampleRun] -->
<g id="edge25" class="edge">
<title>BeamSize[SampleRun]&#45;&gt;ess.amor.load.load_events_RawDetectorData[SampleRun]</title>
<path fill="none" stroke="black" d="M1811.84,-256C1861.98,-256 1923.93,-256 1971.61,-256"/>
<polygon fill="black" stroke="black" points="1971.87,-259.5 1981.87,-256 1971.87,-252.5 1971.87,-259.5"/>
</g>
<!-- ess.amor.load.load_amor_chopper_distance_ChopperDistance[SampleRun] -->
<g id="node7" class="node">
<title>ess.amor.load.load_amor_chopper_distance_ChopperDistance[SampleRun]</title>
<ellipse fill="none" stroke="black" cx="1385.45" cy="-348" rx="143.77" ry="18"/>
<text text-anchor="middle" x="1385.45" y="-344.3" font-family="Times,serif" font-size="14.00">load_amor_chopper_distance</text>
</g>
<!-- ChopperDistance[SampleRun] -->
<g id="node9" class="node">
<title>ChopperDistance[SampleRun]</title>
<polygon fill="none" stroke="black" points="1837.95,-382 1605.95,-382 1605.95,-346 1837.95,-346 1837.95,-382"/>
<text text-anchor="middle" x="1721.95" y="-360.3" font-family="Times,serif" font-size="14.00">ChopperDistance[SampleRun]</text>
</g>
<!-- ess.amor.load.load_amor_chopper_distance_ChopperDistance[SampleRun]&#45;&gt;ChopperDistance[SampleRun] -->
<g id="edge4" class="edge">
<title>ess.amor.load.load_amor_chopper_distance_ChopperDistance[SampleRun]&#45;&gt;ChopperDistance[SampleRun]</title>
<path fill="none" stroke="black" d="M1520.09,-354.39C1545.05,-355.59 1571.04,-356.83 1595.72,-358.01"/>
<polygon fill="black" stroke="black" points="1595.69,-361.51 1605.84,-358.49 1596.02,-354.52 1595.69,-361.51"/>
</g>
<!-- RawChopper[SampleRun] -->
<g id="node8" class="node">
<title>RawChopper[SampleRun]</title>
<polygon fill="none" stroke="black" points="1138.45,-366 938.45,-366 938.45,-330 1138.45,-330 1138.45,-366"/>
<text text-anchor="middle" x="1038.45" y="-344.3" font-family="Times,serif" font-size="14.00">RawChopper[SampleRun]</text>
</g>
<!-- RawChopper[SampleRun]&#45;&gt;ess.amor.load.load_amor_chopper_distance_ChopperDistance[SampleRun] -->
<g id="edge3" class="edge">
<title>RawChopper[SampleRun]&#45;&gt;ess.amor.load.load_amor_chopper_distance_ChopperDistance[SampleRun]</title>
<path fill="none" stroke="black" d="M1138.77,-348C1167.69,-348 1199.98,-348 1231.4,-348"/>
<polygon fill="black" stroke="black" points="1231.56,-351.5 1241.56,-348 1231.56,-344.5 1231.56,-351.5"/>
</g>
<!-- ess.amor.load.load_amor_chopper_separation_ChopperSeparation[SampleRun] -->
<g id="node12" class="node">
<title>ess.amor.load.load_amor_chopper_separation_ChopperSeparation[SampleRun]</title>
<ellipse fill="none" stroke="black" cx="1385.45" cy="-402" rx="154.07" ry="18"/>
<text text-anchor="middle" x="1385.45" y="-398.3" font-family="Times,serif" font-size="14.00">load_amor_chopper_separation</text>
</g>
<!-- RawChopper[SampleRun]&#45;&gt;ess.amor.load.load_amor_chopper_separation_ChopperSeparation[SampleRun] -->
<g id="edge5" class="edge">
<title>RawChopper[SampleRun]&#45;&gt;ess.amor.load.load_amor_chopper_separation_ChopperSeparation[SampleRun]</title>
<path fill="none" stroke="black" d="M1138.47,-363.86C1161.6,-367.54 1186.13,-371.43 1208.95,-375 1232.27,-378.65 1257.34,-382.53 1281.02,-386.18"/>
<polygon fill="black" stroke="black" points="1280.66,-389.67 1291.08,-387.73 1281.73,-382.75 1280.66,-389.67"/>
</g>
<!-- ChopperDistance[SampleRun]&#45;&gt;ess.amor.load.load_events_RawDetectorData[SampleRun] -->
<g id="edge22" class="edge">
<title>ChopperDistance[SampleRun]&#45;&gt;ess.amor.load.load_events_RawDetectorData[SampleRun]</title>
<path fill="none" stroke="black" d="M1813.42,-345.96C1824.45,-343.23 1835.51,-340.23 1845.95,-337 1901.79,-319.74 1963.87,-293.55 2004,-275.66"/>
<polygon fill="black" stroke="black" points="2005.52,-278.81 2013.22,-271.52 2002.66,-272.43 2005.52,-278.81"/>
</g>
<!-- ChopperFrequency[SampleRun] -->
<g id="node10" class="node">
<title>ChopperFrequency[SampleRun]</title>
<polygon fill="none" stroke="black" points="1844.45,-220 1599.45,-220 1599.45,-184 1844.45,-184 1844.45,-220"/>
<text text-anchor="middle" x="1721.95" y="-198.3" font-family="Times,serif" font-size="14.00">ChopperFrequency[SampleRun]</text>
</g>
<!-- ChopperFrequency[SampleRun]&#45;&gt;ess.amor.load.load_events_RawDetectorData[SampleRun] -->
<g id="edge21" class="edge">
<title>ChopperFrequency[SampleRun]&#45;&gt;ess.amor.load.load_events_RawDetectorData[SampleRun]</title>
<path fill="none" stroke="black" d="M1831.2,-220.06C1880.89,-228.34 1938.18,-237.9 1981.19,-245.08"/>
<polygon fill="black" stroke="black" points="1980.81,-248.56 1991.25,-246.75 1981.96,-241.66 1980.81,-248.56"/>
</g>
<!-- ChopperPhase[SampleRun] -->
<g id="node11" class="node">
<title>ChopperPhase[SampleRun]</title>
<polygon fill="none" stroke="black" points="1827.95,-166 1615.95,-166 1615.95,-130 1827.95,-130 1827.95,-166"/>
<text text-anchor="middle" x="1721.95" y="-144.3" font-family="Times,serif" font-size="14.00">ChopperPhase[SampleRun]</text>
</g>
<!-- ChopperPhase[SampleRun]&#45;&gt;ess.amor.load.load_events_RawDetectorData[SampleRun] -->
<g id="edge20" class="edge">
<title>ChopperPhase[SampleRun]&#45;&gt;ess.amor.load.load_events_RawDetectorData[SampleRun]</title>
<path fill="none" stroke="black" d="M1813.42,-166.04C1824.45,-168.77 1835.51,-171.77 1845.95,-175 1901.79,-192.26 1963.87,-218.45 2004,-236.34"/>
<polygon fill="black" stroke="black" points="2002.66,-239.57 2013.22,-240.48 2005.52,-233.19 2002.66,-239.57"/>
</g>
<!-- ChopperSeparation[SampleRun] -->
<g id="node13" class="node">
<title>ChopperSeparation[SampleRun]</title>
<polygon fill="none" stroke="black" points="1845.95,-436 1597.95,-436 1597.95,-400 1845.95,-400 1845.95,-436"/>
<text text-anchor="middle" x="1721.95" y="-414.3" font-family="Times,serif" font-size="14.00">ChopperSeparation[SampleRun]</text>
</g>
<!-- ess.amor.load.load_amor_chopper_separation_ChopperSeparation[SampleRun]&#45;&gt;ChopperSeparation[SampleRun] -->
<g id="edge6" class="edge">
<title>ess.amor.load.load_amor_chopper_separation_ChopperSeparation[SampleRun]&#45;&gt;ChopperSeparation[SampleRun]</title>
<path fill="none" stroke="black" d="M1528.31,-408.79C1548.02,-409.73 1568.21,-410.69 1587.76,-411.63"/>
<polygon fill="black" stroke="black" points="1587.76,-415.13 1597.92,-412.11 1588.09,-408.14 1587.76,-415.13"/>
</g>
<!-- ChopperSeparation[SampleRun]&#45;&gt;ess.amor.load.load_events_RawDetectorData[SampleRun] -->
<g id="edge23" class="edge">
<title>ChopperSeparation[SampleRun]&#45;&gt;ess.amor.load.load_events_RawDetectorData[SampleRun]</title>
<path fill="none" stroke="black" d="M1821.36,-399.91C1829.8,-397.31 1838.11,-394.35 1845.95,-391 1913.26,-362.22 1981.98,-310.04 2018.98,-279.67"/>
<polygon fill="black" stroke="black" points="2021.35,-282.25 2026.81,-273.17 2016.88,-276.86 2021.35,-282.25"/>
</g>
<!-- ess.amor.conversions.coordinate_transformation_graph_CoordTransformationGraph -->
<g id="node14" class="node">
<title>ess.amor.conversions.coordinate_transformation_graph_CoordTransformationGraph</title>
<ellipse fill="none" stroke="black" cx="2047.68" cy="-434" rx="165.97" ry="18"/>
<text text-anchor="middle" x="2047.68" y="-430.3" font-family="Times,serif" font-size="14.00">coordinate_transformation_graph</text>
</g>
<!-- CoordTransformationGraph -->
<g id="node15" class="node">
<title>CoordTransformationGraph</title>
<polygon fill="none" stroke="black" points="2474.42,-452 2260.42,-452 2260.42,-416 2474.42,-416 2474.42,-452"/>
<text text-anchor="middle" x="2367.42" y="-430.3" font-family="Times,serif" font-size="14.00">CoordTransformationGraph</text>
</g>
<!-- ess.amor.conversions.coordinate_transformation_graph_CoordTransformationGraph&#45;&gt;CoordTransformationGraph -->
<g id="edge7" class="edge">
<title>ess.amor.conversions.coordinate_transformation_graph_CoordTransformationGraph&#45;&gt;CoordTransformationGraph</title>
<path fill="none" stroke="black" d="M2213.6,-434C2225.87,-434 2238.1,-434 2249.98,-434"/>
<polygon fill="black" stroke="black" points="2250.32,-437.5 2260.32,-434 2250.32,-430.5 2250.32,-437.5"/>
</g>
<!-- CoordTransformationGraph&#45;&gt;ess.amor.workflow.add_coords_masks_and_apply_corrections_ReducibleData[SampleRun] -->
<g id="edge34" class="edge">
<title>CoordTransformationGraph&#45;&gt;ess.amor.workflow.add_coords_masks_and_apply_corrections_ReducibleData[SampleRun]</title>
<path fill="none" stroke="black" d="M2458.29,-415.93C2467.56,-413.27 2476.75,-410.3 2485.42,-407 2561.71,-377.93 2643.74,-328.56 2689.14,-299.44"/>
<polygon fill="black" stroke="black" points="2691.22,-302.27 2697.72,-293.9 2687.42,-296.39 2691.22,-302.27"/>
</g>
<!-- ess.amor.normalization.evaluate_reference_at_sample_coords_Reference -->
<g id="node38" class="node">
<title>ess.amor.normalization.evaluate_reference_at_sample_coords_Reference</title>
<ellipse fill="none" stroke="black" cx="3537.76" cy="-386" rx="185.47" ry="18"/>
<text text-anchor="middle" x="3537.76" y="-382.3" font-family="Times,serif" font-size="14.00">evaluate_reference_at_sample_coords</text>
</g>
<!-- CoordTransformationGraph&#45;&gt;ess.amor.normalization.evaluate_reference_at_sample_coords_Reference -->
<g id="edge40" class="edge">
<title>CoordTransformationGraph&#45;&gt;ess.amor.normalization.evaluate_reference_at_sample_coords_Reference</title>
<path fill="none" stroke="black" d="M2474.51,-434.07C2642.07,-433.6 2978.17,-430.32 3262.58,-413 3309.95,-410.12 3361.79,-405.41 3407.52,-400.73"/>
<polygon fill="black" stroke="black" points="3407.89,-404.21 3417.48,-399.7 3407.17,-397.25 3407.89,-404.21"/>
</g>
<!-- CriticalEdge -->
<g id="node16" class="node">
<title>CriticalEdge</title>
<polygon fill="none" stroke="black" points="3167.08,-188 3061.08,-188 3061.08,-152 3167.08,-152 3167.08,-188"/>
<text text-anchor="middle" x="3114.08" y="-166.3" font-family="Times,serif" font-size="14.00">CriticalEdge</text>
</g>
<!-- CriticalEdge&#45;&gt;ess.amor.normalization.mask_events_where_supermirror_does_not_cover_Sample -->
<g id="edge48" class="edge">
<title>CriticalEdge&#45;&gt;ess.amor.normalization.mask_events_where_supermirror_does_not_cover_Sample</title>
<path fill="none" stroke="black" d="M3167.34,-179.39C3195.56,-184.5 3231,-191 3262.58,-197 3322.58,-208.4 3389.87,-221.65 3442.78,-232.17"/>
<polygon fill="black" stroke="black" points="3442.33,-235.65 3452.82,-234.16 3443.7,-228.78 3442.33,-235.65"/>
</g>
<!-- DetectorRotation[SampleRun] -->
<g id="node18" class="node">
<title>DetectorRotation[SampleRun]</title>
<polygon fill="none" stroke="black" points="1154.45,-247 922.45,-247 922.45,-211 1154.45,-211 1154.45,-247"/>
<text text-anchor="middle" x="1038.45" y="-225.3" font-family="Times,serif" font-size="14.00">DetectorRotation[SampleRun]</text>
</g>
<!-- ess.amor.load.load_amor_detector_rotation_DetectorRotation[SampleRun]&#45;&gt;DetectorRotation[SampleRun] -->
<g id="edge9" class="edge">
<title>ess.amor.load.load_amor_detector_rotation_DetectorRotation[SampleRun]&#45;&gt;DetectorRotation[SampleRun]</title>
<path fill="none" stroke="black" d="M700.01,-258.7C765.06,-252.97 845.99,-245.85 912.29,-240.02"/>
<polygon fill="black" stroke="black" points="912.73,-243.49 922.38,-239.13 912.11,-236.52 912.73,-243.49"/>
</g>
<!-- DetectorRotation[SampleRun]&#45;&gt;ess.amor.load.load_events_RawDetectorData[SampleRun] -->
<g id="edge18" class="edge">
<title>DetectorRotation[SampleRun]&#45;&gt;ess.amor.load.load_events_RawDetectorData[SampleRun]</title>
<path fill="none" stroke="black" d="M1082.03,-210.88C1203.85,-161.66 1563.21,-34.77 1845.95,-121 1917.09,-142.7 1985.88,-198.99 2021.51,-231.62"/>
<polygon fill="black" stroke="black" points="2019.31,-234.35 2029.02,-238.59 2024.07,-229.22 2019.31,-234.35"/>
</g>
<!-- DetectorSpatialResolution[SampleRun] -->
<g id="node19" class="node">
<title>DetectorSpatialResolution[SampleRun]</title>
<polygon fill="none" stroke="black" points="3262.58,-404 2965.58,-404 2965.58,-368 3262.58,-368 3262.58,-404"/>
<text text-anchor="middle" x="3114.08" y="-382.3" font-family="Times,serif" font-size="14.00">DetectorSpatialResolution[SampleRun]</text>
</g>
<!-- DetectorSpatialResolution[SampleRun]&#45;&gt;ess.amor.normalization.evaluate_reference_at_sample_coords_Reference -->
<g id="edge39" class="edge">
<title>DetectorSpatialResolution[SampleRun]&#45;&gt;ess.amor.normalization.evaluate_reference_at_sample_coords_Reference</title>
<path fill="none" stroke="black" d="M3262.86,-386C3288.54,-386 3315.6,-386 3342.31,-386"/>
<polygon fill="black" stroke="black" points="3342.52,-389.5 3352.52,-386 3342.52,-382.5 3342.52,-389.5"/>
</g>
<!-- LoadedNeXusDetector[SampleRun] -->
<g id="node22" class="node">
<title>LoadedNeXusDetector[SampleRun]</title>
<polygon fill="none" stroke="black" points="1172.95,-474 903.95,-474 903.95,-438 1172.95,-438 1172.95,-474"/>
<text text-anchor="middle" x="1038.45" y="-452.3" font-family="Times,serif" font-size="14.00">LoadedNeXusDetector[SampleRun]</text>
</g>
<!-- ess.amor.load.load_detector_LoadedNeXusDetector[SampleRun]&#45;&gt;LoadedNeXusDetector[SampleRun] -->
<g id="edge12" class="edge">
<title>ess.amor.load.load_detector_LoadedNeXusDetector[SampleRun]&#45;&gt;LoadedNeXusDetector[SampleRun]</title>
<path fill="none" stroke="black" d="M655.24,-448.43C719.13,-449.7 814.23,-451.58 893.58,-453.15"/>
<polygon fill="black" stroke="black" points="893.61,-456.65 903.67,-453.35 893.74,-449.65 893.61,-456.65"/>
</g>
<!-- NeXusDetectorName[SampleRun] -->
<g id="node21" class="node">
<title>NeXusDetectorName[SampleRun]</title>
<polygon fill="none" stroke="black" points="260,-465 0,-465 0,-429 260,-429 260,-465"/>
<text text-anchor="middle" x="130" y="-443.3" font-family="Times,serif" font-size="14.00">NeXusDetectorName[SampleRun]</text>
</g>
<!-- NeXusDetectorName[SampleRun]&#45;&gt;ess.amor.load.load_detector_LoadedNeXusDetector[SampleRun] -->
<g id="edge11" class="edge">
<title>NeXusDetectorName[SampleRun]&#45;&gt;ess.amor.load.load_detector_LoadedNeXusDetector[SampleRun]</title>
<path fill="none" stroke="black" d="M260.25,-447C336.94,-447 431.87,-447 498.48,-447"/>
<polygon fill="black" stroke="black" points="498.51,-450.5 508.51,-447 498.51,-443.5 498.51,-450.5"/>
</g>
<!-- LoadedNeXusDetector[SampleRun]&#45;&gt;ess.amor.load.load_events_RawDetectorData[SampleRun] -->
<g id="edge17" class="edge">
<title>LoadedNeXusDetector[SampleRun]&#45;&gt;ess.amor.load.load_events_RawDetectorData[SampleRun]</title>
<path fill="none" stroke="black" d="M1086.88,-474C1219.12,-520.93 1598.45,-633.02 1845.95,-478 1875.93,-459.22 1860.56,-435.19 1881.95,-407 1921.24,-355.21 1979.68,-306.52 2015.36,-279.07"/>
<polygon fill="black" stroke="black" points="2017.65,-281.73 2023.48,-272.88 2013.4,-276.16 2017.65,-281.73"/>
</g>
<!-- MValue -->
<g id="node23" class="node">
<title>MValue</title>
<polygon fill="none" stroke="black" points="3149.08,-134 3079.08,-134 3079.08,-98 3149.08,-98 3149.08,-134"/>
<text text-anchor="middle" x="3114.08" y="-112.3" font-family="Times,serif" font-size="14.00">MValue</text>
</g>
<!-- MValue&#45;&gt;ess.amor.normalization.mask_events_where_supermirror_does_not_cover_Sample -->
<g id="edge49" class="edge">
<title>MValue&#45;&gt;ess.amor.normalization.mask_events_where_supermirror_does_not_cover_Sample</title>
<path fill="none" stroke="black" d="M3149.2,-120.33C3179.37,-124.6 3224.41,-132.1 3262.58,-143 3344.26,-166.32 3435.32,-204.82 3489.24,-229"/>
<polygon fill="black" stroke="black" points="3487.98,-232.27 3498.54,-233.19 3490.86,-225.89 3487.98,-232.27"/>
</g>
<!-- ProtonCurrent[SampleRun] -->
<g id="node25" class="node">
<title>ProtonCurrent[SampleRun]</title>
<polygon fill="none" stroke="black" points="1491.95,-36 1278.95,-36 1278.95,0 1491.95,0 1491.95,-36"/>
<text text-anchor="middle" x="1385.45" y="-14.3" font-family="Times,serif" font-size="14.00">ProtonCurrent[SampleRun]</text>
</g>
<!-- ess.amor.load.load_amor_proton_current_ProtonCurrent[SampleRun]&#45;&gt;ProtonCurrent[SampleRun] -->
<g id="edge14" class="edge">
<title>ess.amor.load.load_amor_proton_current_ProtonCurrent[SampleRun]&#45;&gt;ProtonCurrent[SampleRun]</title>
<path fill="none" stroke="black" d="M686.52,-92.89C836.21,-76.83 1112.2,-47.21 1268.52,-30.44"/>
<polygon fill="black" stroke="black" points="1269.07,-33.9 1278.64,-29.35 1268.33,-26.94 1269.07,-33.9"/>
</g>
<!-- ProtonCurrent[SampleRun]&#45;&gt;ess.amor.workflow.add_coords_masks_and_apply_corrections_ReducibleData[SampleRun] -->
<g id="edge33" class="edge">
<title>ProtonCurrent[SampleRun]&#45;&gt;ess.amor.workflow.add_coords_masks_and_apply_corrections_ReducibleData[SampleRun]</title>
<path fill="none" stroke="black" d="M1492.28,-14.61C1692.02,-11.4 2135.9,-19.62 2485.42,-137 2565.85,-164.01 2649.17,-219.97 2693.06,-252.04"/>
<polygon fill="black" stroke="black" points="2691.17,-254.99 2701.3,-258.11 2695.33,-249.36 2691.17,-254.99"/>
</g>
<!-- QBins -->
<g id="node26" class="node">
<title>QBins</title>
<polygon fill="none" stroke="black" points="3143.58,-496 3084.58,-496 3084.58,-460 3143.58,-460 3143.58,-496"/>
<text text-anchor="middle" x="3114.08" y="-474.3" font-family="Times,serif" font-size="14.00">QBins</text>
</g>
<!-- QBins&#45;&gt;ess.amor.normalization.evaluate_reference_at_sample_coords_Reference -->
<g id="edge38" class="edge">
<title>QBins&#45;&gt;ess.amor.normalization.evaluate_reference_at_sample_coords_Reference</title>
<path fill="none" stroke="black" d="M3143.64,-471.82C3173.35,-465.39 3221.24,-455.01 3262.58,-446 3326,-432.18 3397.66,-416.5 3451.81,-404.63"/>
<polygon fill="black" stroke="black" points="3452.69,-408.02 3461.71,-402.46 3451.19,-401.18 3452.69,-408.02"/>
</g>
<!-- ess.reflectometry.normalization.reduce_sample_over_q_ReflectivityOverQ -->
<g id="node40" class="node">
<title>ess.reflectometry.normalization.reduce_sample_over_q_ReflectivityOverQ</title>
<ellipse fill="none" stroke="black" cx="4052.98" cy="-386" rx="115.08" ry="18"/>
<text text-anchor="middle" x="4052.98" y="-382.3" font-family="Times,serif" font-size="14.00">reduce_sample_over_q</text>
</g>
<!-- QBins&#45;&gt;ess.reflectometry.normalization.reduce_sample_over_q_ReflectivityOverQ -->
<g id="edge44" class="edge">
<title>QBins&#45;&gt;ess.reflectometry.normalization.reduce_sample_over_q_ReflectivityOverQ</title>
<path fill="none" stroke="black" d="M3143.77,-476.62C3246.71,-471.47 3607.01,-451.63 3901.94,-413 3924.47,-410.05 3948.76,-406.04 3971.1,-402.02"/>
<polygon fill="black" stroke="black" points="3972.01,-405.41 3981.22,-400.17 3970.75,-398.52 3972.01,-405.41"/>
</g>
<!-- ess.amor.load.amor_chopper_RawChopper[SampleRun]&#45;&gt;RawChopper[SampleRun] -->
<g id="edge16" class="edge">
<title>ess.amor.load.amor_chopper_RawChopper[SampleRun]&#45;&gt;RawChopper[SampleRun]</title>
<path fill="none" stroke="black" d="M658.02,-334.64C731.67,-337.23 844.8,-341.22 928.37,-344.16"/>
<polygon fill="black" stroke="black" points="928.3,-347.66 938.41,-344.51 928.54,-340.66 928.3,-347.66"/>
</g>
<!-- RawDetectorData[SampleRun] -->
<g id="node31" class="node">
<title>RawDetectorData[SampleRun]</title>
<polygon fill="none" stroke="black" points="2485.42,-182 2249.42,-182 2249.42,-146 2485.42,-146 2485.42,-182"/>
<text text-anchor="middle" x="2367.42" y="-160.3" font-family="Times,serif" font-size="14.00">RawDetectorData[SampleRun]</text>
</g>
<!-- ess.amor.load.load_events_RawDetectorData[SampleRun]&#45;&gt;RawDetectorData[SampleRun] -->
<g id="edge27" class="edge">
<title>ess.amor.load.load_events_RawDetectorData[SampleRun]&#45;&gt;RawDetectorData[SampleRun]</title>
<path fill="none" stroke="black" d="M2088.75,-241.9C2129.04,-227.98 2193.11,-206.58 2249.42,-191 2257.43,-188.78 2265.79,-186.6 2274.19,-184.5"/>
<polygon fill="black" stroke="black" points="2275.18,-187.86 2284.05,-182.06 2273.51,-181.06 2275.18,-187.86"/>
</g>
<!-- SampleRotation[SampleRun] -->
<g id="node29" class="node">
<title>SampleRotation[SampleRun]</title>
<polygon fill="none" stroke="black" points="1149.95,-153 926.95,-153 926.95,-117 1149.95,-117 1149.95,-153"/>
<text text-anchor="middle" x="1038.45" y="-131.3" font-family="Times,serif" font-size="14.00">SampleRotation[SampleRun]</text>
</g>
<!-- SampleRotation[SampleRun]&#45;&gt;ess.amor.load.load_events_RawDetectorData[SampleRun] -->
<g id="edge19" class="edge">
<title>SampleRotation[SampleRun]&#45;&gt;ess.amor.load.load_events_RawDetectorData[SampleRun]</title>
<path fill="none" stroke="black" d="M1094.88,-116.92C1127.66,-107.16 1170.22,-96.1 1208.95,-91 1349.3,-72.53 1712.9,-39.67 1845.95,-88 1924.51,-116.54 1993.8,-190.78 2026.59,-230.33"/>
<polygon fill="black" stroke="black" points="2023.99,-232.68 2033.02,-238.21 2029.41,-228.25 2023.99,-232.68"/>
</g>
<!-- SampleSize[SampleRun] -->
<g id="node30" class="node">
<title>SampleSize[SampleRun]</title>
<polygon fill="none" stroke="black" points="1817.95,-328 1625.95,-328 1625.95,-292 1817.95,-292 1817.95,-328"/>
<text text-anchor="middle" x="1721.95" y="-306.3" font-family="Times,serif" font-size="14.00">SampleSize[SampleRun]</text>
</g>
<!-- SampleSize[SampleRun]&#45;&gt;ess.amor.load.load_events_RawDetectorData[SampleRun] -->
<g id="edge24" class="edge">
<title>SampleSize[SampleRun]&#45;&gt;ess.amor.load.load_events_RawDetectorData[SampleRun]</title>
<path fill="none" stroke="black" d="M1818.33,-294.09C1870.63,-285.37 1934.14,-274.77 1980.9,-266.97"/>
<polygon fill="black" stroke="black" points="1981.62,-270.4 1990.91,-265.3 1980.47,-263.5 1981.62,-270.4"/>
</g>
<!-- RawDetectorData[SampleRun]&#45;&gt;ess.amor.workflow.add_coords_masks_and_apply_corrections_ReducibleData[SampleRun] -->
<g id="edge28" class="edge">
<title>RawDetectorData[SampleRun]&#45;&gt;ess.amor.workflow.add_coords_masks_and_apply_corrections_ReducibleData[SampleRun]</title>
<path fill="none" stroke="black" d="M2451.82,-182.01C2463.16,-184.82 2474.61,-187.84 2485.42,-191 2549.7,-209.78 2621.95,-236.23 2670.04,-254.62"/>
<polygon fill="black" stroke="black" points="2669.03,-257.98 2679.62,-258.3 2671.54,-251.45 2669.03,-257.98"/>
</g>
<!-- ReducedReference -->
<g id="node32" class="node">
<title>ReducedReference</title>
<polygon fill="none" stroke="black" points="3189.08,-350 3039.08,-350 3039.08,-314 3189.08,-314 3189.08,-350"/>
<text text-anchor="middle" x="3114.08" y="-328.3" font-family="Times,serif" font-size="14.00">ReducedReference</text>
</g>
<!-- ReducedReference&#45;&gt;ess.amor.normalization.evaluate_reference_at_sample_coords_Reference -->
<g id="edge36" class="edge">
<title>ReducedReference&#45;&gt;ess.amor.normalization.evaluate_reference_at_sample_coords_Reference</title>
<path fill="none" stroke="black" d="M3189.5,-341.53C3251.83,-349.51 3342.02,-361.06 3414.87,-370.39"/>
<polygon fill="black" stroke="black" points="3414.67,-373.89 3425.03,-371.69 3415.56,-366.95 3414.67,-373.89"/>
</g>
<!-- ReducedReference&#45;&gt;ess.amor.normalization.mask_events_where_supermirror_does_not_cover_Sample -->
<g id="edge47" class="edge">
<title>ReducedReference&#45;&gt;ess.amor.normalization.mask_events_where_supermirror_does_not_cover_Sample</title>
<path fill="none" stroke="black" d="M3189.4,-318.6C3212.83,-314.32 3238.8,-309.52 3262.58,-305 3322.58,-293.6 3389.87,-280.35 3442.78,-269.83"/>
<polygon fill="black" stroke="black" points="3443.7,-273.22 3452.82,-267.84 3442.33,-266.35 3443.7,-273.22"/>
</g>
<!-- ReducibleData[SampleRun] -->
<g id="node37" class="node">
<title>ReducibleData[SampleRun]</title>
<polygon fill="none" stroke="black" points="3220.58,-296 3007.58,-296 3007.58,-260 3220.58,-260 3220.58,-296"/>
<text text-anchor="middle" x="3114.08" y="-274.3" font-family="Times,serif" font-size="14.00">ReducibleData[SampleRun]</text>
</g>
<!-- ess.amor.workflow.add_coords_masks_and_apply_corrections_ReducibleData[SampleRun]&#45;&gt;ReducibleData[SampleRun] -->
<g id="edge35" class="edge">
<title>ess.amor.workflow.add_coords_masks_and_apply_corrections_ReducibleData[SampleRun]&#45;&gt;ReducibleData[SampleRun]</title>
<path fill="none" stroke="black" d="M2929.42,-277.05C2952.71,-277.17 2975.81,-277.29 2997.37,-277.4"/>
<polygon fill="black" stroke="black" points="2997.47,-280.9 3007.49,-277.45 2997.51,-273.9 2997.47,-280.9"/>
</g>
<!-- YIndexLimits -->
<g id="node34" class="node">
<title>YIndexLimits</title>
<polygon fill="none" stroke="black" points="2422.42,-398 2312.42,-398 2312.42,-362 2422.42,-362 2422.42,-398"/>
<text text-anchor="middle" x="2367.42" y="-376.3" font-family="Times,serif" font-size="14.00">YIndexLimits</text>
</g>
<!-- YIndexLimits&#45;&gt;ess.amor.workflow.add_coords_masks_and_apply_corrections_ReducibleData[SampleRun] -->
<g id="edge29" class="edge">
<title>YIndexLimits&#45;&gt;ess.amor.workflow.add_coords_masks_and_apply_corrections_ReducibleData[SampleRun]</title>
<path fill="none" stroke="black" d="M2422.54,-368.52C2442.41,-364.04 2465.02,-358.63 2485.42,-353 2547.16,-335.97 2616.76,-313.13 2664.87,-296.76"/>
<polygon fill="black" stroke="black" points="2666.17,-300.01 2674.5,-293.47 2663.91,-293.39 2666.17,-300.01"/>
</g>
<!-- ZIndexLimits -->
<g id="node35" class="node">
<title>ZIndexLimits</title>
<polygon fill="none" stroke="black" points="2422.92,-344 2311.92,-344 2311.92,-308 2422.92,-308 2422.92,-344"/>
<text text-anchor="middle" x="2367.42" y="-322.3" font-family="Times,serif" font-size="14.00">ZIndexLimits</text>
</g>
<!-- ZIndexLimits&#45;&gt;ess.amor.workflow.add_coords_masks_and_apply_corrections_ReducibleData[SampleRun] -->
<g id="edge30" class="edge">
<title>ZIndexLimits&#45;&gt;ess.amor.workflow.add_coords_masks_and_apply_corrections_ReducibleData[SampleRun]</title>
<path fill="none" stroke="black" d="M2423.28,-318.3C2471.79,-311.49 2544.23,-301.31 2605.91,-292.65"/>
<polygon fill="black" stroke="black" points="2606.69,-296.08 2616.11,-291.22 2605.72,-289.15 2606.69,-296.08"/>
</g>
<!-- WavelengthBins -->
<g id="node36" class="node">
<title>WavelengthBins</title>
<polygon fill="none" stroke="black" points="2433.42,-290 2301.42,-290 2301.42,-254 2433.42,-254 2433.42,-290"/>
<text text-anchor="middle" x="2367.42" y="-268.3" font-family="Times,serif" font-size="14.00">WavelengthBins</text>
</g>
<!-- WavelengthBins&#45;&gt;ess.amor.workflow.add_coords_masks_and_apply_corrections_ReducibleData[SampleRun] -->
<g id="edge32" class="edge">
<title>WavelengthBins&#45;&gt;ess.amor.workflow.add_coords_masks_and_apply_corrections_ReducibleData[SampleRun]</title>
<path fill="none" stroke="black" d="M2433.73,-272.73C2456.81,-272.99 2484.18,-273.3 2512.76,-273.62"/>
<polygon fill="black" stroke="black" points="2512.87,-277.12 2522.91,-273.74 2512.95,-270.12 2512.87,-277.12"/>
</g>
<!-- ReducibleData[SampleRun]&#45;&gt;ess.amor.normalization.evaluate_reference_at_sample_coords_Reference -->
<g id="edge37" class="edge">
<title>ReducibleData[SampleRun]&#45;&gt;ess.amor.normalization.evaluate_reference_at_sample_coords_Reference</title>
<path fill="none" stroke="black" d="M3220.92,-295.97C3234.98,-298.77 3249.16,-301.8 3262.58,-305 3336.25,-322.57 3419.51,-347.97 3474.75,-365.63"/>
<polygon fill="black" stroke="black" points="3473.8,-369 3484.39,-368.72 3475.94,-362.33 3473.8,-369"/>
</g>
<!-- ReducibleData[SampleRun]&#45;&gt;ess.amor.normalization.mask_events_where_supermirror_does_not_cover_Sample -->
<g id="edge46" class="edge">
<title>ReducibleData[SampleRun]&#45;&gt;ess.amor.normalization.mask_events_where_supermirror_does_not_cover_Sample</title>
<path fill="none" stroke="black" d="M3220.67,-271.24C3258.39,-268.82 3302.15,-266.02 3344.87,-263.29"/>
<polygon fill="black" stroke="black" points="3345.36,-266.76 3355.12,-262.63 3344.91,-259.78 3345.36,-266.76"/>
</g>
<!-- Reference -->
<g id="node39" class="node">
<title>Reference</title>
<polygon fill="none" stroke="black" points="3901.94,-404 3812.94,-404 3812.94,-368 3901.94,-368 3901.94,-404"/>
<text text-anchor="middle" x="3857.44" y="-382.3" font-family="Times,serif" font-size="14.00">Reference</text>
</g>
<!-- ess.amor.normalization.evaluate_reference_at_sample_coords_Reference&#45;&gt;Reference -->
<g id="edge41" class="edge">
<title>ess.amor.normalization.evaluate_reference_at_sample_coords_Reference&#45;&gt;Reference</title>
<path fill="none" stroke="black" d="M3723.1,-386C3752.17,-386 3780.08,-386 3802.78,-386"/>
<polygon fill="black" stroke="black" points="3802.83,-389.5 3812.83,-386 3802.83,-382.5 3802.83,-389.5"/>
</g>
<!-- Reference&#45;&gt;ess.reflectometry.normalization.reduce_sample_over_q_ReflectivityOverQ -->
<g id="edge43" class="edge">
<title>Reference&#45;&gt;ess.reflectometry.normalization.reduce_sample_over_q_ReflectivityOverQ</title>
<path fill="none" stroke="black" d="M3902.36,-386C3910.22,-386 3918.75,-386 3927.62,-386"/>
<polygon fill="black" stroke="black" points="3927.76,-389.5 3937.76,-386 3927.76,-382.5 3927.76,-389.5"/>
</g>
<!-- ReflectivityOverQ -->
<g id="node42" class="node">
<title>ReflectivityOverQ</title>
<polygon fill="none" stroke="black" points="4347.02,-404 4204.02,-404 4204.02,-368 4347.02,-368 4347.02,-404"/>
<text text-anchor="middle" x="4275.52" y="-382.3" font-family="Times,serif" font-size="14.00">ReflectivityOverQ</text>
</g>
<!-- ess.reflectometry.normalization.reduce_sample_over_q_ReflectivityOverQ&#45;&gt;ReflectivityOverQ -->
<g id="edge45" class="edge">
<title>ess.reflectometry.normalization.reduce_sample_over_q_ReflectivityOverQ&#45;&gt;ReflectivityOverQ</title>
<path fill="none" stroke="black" d="M4168.13,-386C4176.79,-386 4185.43,-386 4193.82,-386"/>
<polygon fill="black" stroke="black" points="4193.92,-389.5 4203.92,-386 4193.92,-382.5 4193.92,-389.5"/>
</g>
<!-- Sample -->
<g id="node41" class="node">
<title>Sample</title>
<polygon fill="none" stroke="black" points="3892.44,-323 3822.44,-323 3822.44,-287 3892.44,-287 3892.44,-323"/>
<text text-anchor="middle" x="3857.44" y="-301.3" font-family="Times,serif" font-size="14.00">Sample</text>
</g>
<!-- Sample&#45;&gt;ess.reflectometry.normalization.reduce_sample_over_q_ReflectivityOverQ -->
<g id="edge42" class="edge">
<title>Sample&#45;&gt;ess.reflectometry.normalization.reduce_sample_over_q_ReflectivityOverQ</title>
<path fill="none" stroke="black" d="M3892.6,-319.29C3923.05,-332.04 3968,-350.85 4002.41,-365.25"/>
<polygon fill="black" stroke="black" points="4001.23,-368.56 4011.81,-369.19 4003.94,-362.1 4001.23,-368.56"/>
</g>
<!-- ess.amor.normalization.mask_events_where_supermirror_does_not_cover_Sample&#45;&gt;Sample -->
<g id="edge51" class="edge">
<title>ess.amor.normalization.mask_events_where_supermirror_does_not_cover_Sample&#45;&gt;Sample</title>
<path fill="none" stroke="black" d="M3635.8,-267.5C3694.54,-277.48 3766.64,-289.74 3812.08,-297.46"/>
<polygon fill="black" stroke="black" points="3811.75,-300.95 3822.19,-299.18 3812.92,-294.05 3811.75,-300.95"/>
</g>
<!-- ess.amor.load.load_amor_sample_rotation_SampleRotation[SampleRun]&#45;&gt;SampleRotation[SampleRun] -->
<g id="edge53" class="edge">
<title>ess.amor.load.load_amor_sample_rotation_SampleRotation[SampleRun]&#45;&gt;SampleRotation[SampleRun]</title>
<path fill="none" stroke="black" d="M678.8,-183.14C747.95,-173.86 841.83,-161.26 916.19,-151.28"/>
<polygon fill="black" stroke="black" points="917.11,-154.68 926.55,-149.88 916.17,-147.75 917.11,-154.68"/>
</g>
</g>
</svg>
