<?xml version="1.0" encoding="UTF-8" standalone="no"?>
<!DOCTYPE svg PUBLIC "-//W3C//DTD SVG 1.1//EN"
 "http://www.w3.org/Graphics/SVG/1.1/DTD/svg11.dtd">
<!-- Generated by graphviz version 2.43.0 (0)
 -->
<!-- Title: %3 Pages: 1 -->
<svg width="1793pt" height="538pt"
 viewBox="0.00 0.00 1793.00 538.41" xmlns="http://www.w3.org/2000/svg" xmlns:xlink="http://www.w3.org/1999/xlink">
<g id="graph0" class="graph" transform="scale(1 1) rotate(0) translate(4 534.41)">
<title>%3</title>
<polygon fill="white" stroke="transparent" points="-4,4 -4,-534.41 1789,-534.41 1789,4 -4,4"/>
<g id="clust8" class="cluster">
<title>cluster_Filename</title>
<polygon fill="#f0f0ff" stroke="#f0f0ff" points="43.5,-340.91 43.5,-426.91 169.5,-426.91 169.5,-340.91 43.5,-340.91"/>
<text text-anchor="middle" x="106.5" y="-411.71" font-family="Times,serif" font-size="14.00">Filename</text>
</g>
<!-- Alpha -->
<g id="node1" class="node">
<title>Alpha</title>
<polygon fill="none" stroke="black" points="800,-103.41 743,-103.41 743,-80.41 800,-80.41 800,-103.41"/>
<text text-anchor="middle" x="771.5" y="-88.21" font-family="Times,serif" font-size="14.00">Alpha</text>
</g>
<!-- Sample -->
<g id="node32" class="node">
<title>Sample</title>
<polygon fill="none" stroke="black" points="1306,-108.41 992,-108.41 992,-75.41 1306,-75.41 1306,-108.41"/>
<text text-anchor="start" x="1122" y="-94.21" font-family="Times,serif" font-size="14.00">Sample</text>
<text text-anchor="start" x="1000" y="-82.61" font-family="Times,serif" font-size="11.00">via:</text>
<text text-anchor="start" x="1021" y="-82.61" font-family="Times,serif" font-style="italic" font-size="11.00">mask_events_where_supermirror_does_not_cover</text>
</g>
<!-- Alpha&#45;&gt;Sample -->
<g id="edge39" class="edge">
<title>Alpha:e&#45;&gt;Sample:w</title>
<path fill="none" stroke="black" d="M801.5,-91.91C882.69,-91.91 905.49,-91.91 981.89,-91.91"/>
<polygon fill="black" stroke="black" points="982,-95.41 992,-91.91 982,-88.41 982,-95.41"/>
</g>
<!-- BeamDivergenceLimits -->
<g id="node2" class="node">
<title>BeamDivergenceLimits</title>
<polygon fill="none" stroke="black" points="863,-307.41 680,-307.41 680,-284.41 863,-284.41 863,-307.41"/>
<text text-anchor="middle" x="771.5" y="-292.21" font-family="Times,serif" font-size="14.00">BeamDivergenceLimits</text>
</g>
<!-- QBins -->
<g id="node26" class="node">
<title>QBins</title>
<polygon fill="none" stroke="black" points="1182.5,-269.41 1115.5,-269.41 1115.5,-236.41 1182.5,-236.41 1182.5,-269.41"/>
<text text-anchor="start" x="1127.5" y="-255.21" font-family="Times,serif" font-size="14.00">QBins</text>
<text text-anchor="start" x="1123.5" y="-243.61" font-family="Times,serif" font-size="11.00">via:</text>
<text text-anchor="start" x="1144.5" y="-243.61" font-family="Times,serif" font-style="italic" font-size="11.00">qgrid</text>
</g>
<!-- BeamDivergenceLimits&#45;&gt;QBins -->
<g id="edge26" class="edge">
<title>BeamDivergenceLimits:e&#45;&gt;QBins:w</title>
<path fill="none" stroke="black" d="M864.5,-295.91C973.51,-295.91 999.86,-255.55 1103.7,-253.03"/>
<polygon fill="black" stroke="black" points="1104.04,-256.53 1114,-252.91 1103.96,-249.53 1104.04,-256.53"/>
</g>
<!-- Filename[SampleRun] -->
<g id="node3" class="node">
<title>Filename[SampleRun]</title>
<polygon fill="none" stroke="black" points="154,-395.41 59,-395.41 59,-374.41 154,-374.41 154,-395.41"/>
<text text-anchor="start" x="67" y="-381.81" font-family="Times,serif" font-size="12.00">[SampleRun]</text>
</g>
<!-- Beamline -->
<g id="node4" class="node">
<title>Beamline</title>
<polygon fill="none" stroke="black" points="506.5,-456.41 329.5,-456.41 329.5,-423.41 506.5,-423.41 506.5,-456.41"/>
<text text-anchor="start" x="384.5" y="-442.21" font-family="Times,serif" font-size="14.00">Beamline</text>
<text text-anchor="start" x="337.5" y="-430.61" font-family="Times,serif" font-size="11.00">via:</text>
<text text-anchor="start" x="358.5" y="-430.61" font-family="Times,serif" font-style="italic" font-size="11.00">load_beamline_metadata</text>
</g>
<!-- Filename[SampleRun]&#45;&gt;Beamline -->
<g id="edge1" class="edge">
<title>Filename[SampleRun]:e&#45;&gt;Beamline:w</title>
<path fill="none" stroke="black" d="M155.5,-384.91C232.92,-384.91 246.97,-435.28 318.94,-439.61"/>
<polygon fill="black" stroke="black" points="318.9,-443.11 329,-439.91 319.11,-436.12 318.9,-443.11"/>
</g>
<!-- DetectorRotation[SampleRun] -->
<g id="node8" class="node">
<title>DetectorRotation[SampleRun]</title>
<polygon fill="none" stroke="black" points="534,-297.41 302,-297.41 302,-264.41 534,-264.41 534,-297.41"/>
<text text-anchor="start" x="310" y="-283.21" font-family="Times,serif" font-size="14.00">DetectorRotation[SampleRun]</text>
<text text-anchor="start" x="326.5" y="-271.61" font-family="Times,serif" font-size="11.00">via:</text>
<text text-anchor="start" x="347.5" y="-271.61" font-family="Times,serif" font-style="italic" font-size="11.00">load_amor_detector_rotation</text>
</g>
<!-- Filename[SampleRun]&#45;&gt;DetectorRotation[SampleRun] -->
<g id="edge3" class="edge">
<title>Filename[SampleRun]:e&#45;&gt;DetectorRotation[SampleRun]:w</title>
<path fill="none" stroke="black" d="M155.5,-384.91C181.8,-384.91 190.14,-383.93 213,-370.91 258.38,-345.06 246.97,-289.03 290.77,-281.7"/>
<polygon fill="black" stroke="black" points="291.3,-285.17 301,-280.91 290.76,-278.2 291.3,-285.17"/>
</g>
<!-- Measurement -->
<g id="node12" class="node">
<title>Measurement</title>
<polygon fill="none" stroke="black" points="519.5,-419.41 316.5,-419.41 316.5,-386.41 519.5,-386.41 519.5,-419.41"/>
<text text-anchor="start" x="368" y="-405.21" font-family="Times,serif" font-size="14.00">Measurement</text>
<text text-anchor="start" x="324.5" y="-393.61" font-family="Times,serif" font-size="11.00">via:</text>
<text text-anchor="start" x="345.5" y="-393.61" font-family="Times,serif" font-style="italic" font-size="11.00">load_measurement_metadata</text>
</g>
<!-- Filename[SampleRun]&#45;&gt;Measurement -->
<g id="edge4" class="edge">
<title>Filename[SampleRun]:e&#45;&gt;Measurement:w</title>
<path fill="none" stroke="black" d="M155.5,-384.91C223.78,-384.91 242.43,-401.19 305.86,-402.78"/>
<polygon fill="black" stroke="black" points="305.96,-406.29 316,-402.91 306.04,-399.29 305.96,-406.29"/>
</g>
<!-- OrsoOwner -->
<g id="node15" class="node">
<title>OrsoOwner</title>
<polygon fill="none" stroke="black" points="488,-530.41 348,-530.41 348,-497.41 488,-497.41 488,-530.41"/>
<text text-anchor="start" x="377" y="-516.21" font-family="Times,serif" font-size="14.00">OrsoOwner</text>
<text text-anchor="start" x="356" y="-504.61" font-family="Times,serif" font-size="11.00">via:</text>
<text text-anchor="start" x="377" y="-504.61" font-family="Times,serif" font-style="italic" font-size="11.00">parse_orso_owner</text>
</g>
<!-- Filename[SampleRun]&#45;&gt;OrsoOwner -->
<g id="edge19" class="edge">
<title>Filename[SampleRun]:e&#45;&gt;OrsoOwner:w</title>
<path fill="none" stroke="black" d="M155.5,-384.91C230.73,-384.91 219.19,-457.46 285,-493.91 307.06,-506.13 315.76,-512.24 336.78,-513.61"/>
<polygon fill="black" stroke="black" points="336.9,-517.11 347,-513.91 337.11,-510.11 336.9,-517.11"/>
</g>
<!-- OrsoSample -->
<g id="node17" class="node">
<title>OrsoSample</title>
<polygon fill="none" stroke="black" points="490.5,-493.41 345.5,-493.41 345.5,-460.41 490.5,-460.41 490.5,-493.41"/>
<text text-anchor="start" x="374" y="-479.21" font-family="Times,serif" font-size="14.00">OrsoSample</text>
<text text-anchor="start" x="353.5" y="-467.61" font-family="Times,serif" font-size="11.00">via:</text>
<text text-anchor="start" x="374.5" y="-467.61" font-family="Times,serif" font-style="italic" font-size="11.00">parse_orso_sample</text>
</g>
<!-- Filename[SampleRun]&#45;&gt;OrsoSample -->
<g id="edge21" class="edge">
<title>Filename[SampleRun]:e&#45;&gt;OrsoSample:w</title>
<path fill="none" stroke="black" d="M155.5,-384.91C245.26,-384.91 250.5,-470.21 333.99,-476.54"/>
<polygon fill="black" stroke="black" points="333.88,-480.04 344,-476.91 334.14,-473.04 333.88,-480.04"/>
</g>
<!-- OrsoSampleFilenames -->
<g id="node25" class="node">
<title>OrsoSampleFilenames</title>
<polygon fill="none" stroke="black" points="506.5,-382.41 329.5,-382.41 329.5,-349.41 506.5,-349.41 506.5,-382.41"/>
<text text-anchor="start" x="337.5" y="-368.21" font-family="Times,serif" font-size="14.00">OrsoSampleFilenames</text>
<text text-anchor="start" x="365" y="-356.61" font-family="Times,serif" font-size="11.00">via:</text>
<text text-anchor="start" x="386" y="-356.61" font-family="Times,serif" font-style="italic" font-size="11.00">orso_data_files</text>
</g>
<!-- Filename[SampleRun]&#45;&gt;OrsoSampleFilenames -->
<g id="edge22" class="edge">
<title>Filename[SampleRun]:e&#45;&gt;OrsoSampleFilenames:w</title>
<path fill="none" stroke="black" d="M155.5,-384.91C229.59,-384.91 249.66,-367.58 318.89,-366.02"/>
<polygon fill="black" stroke="black" points="319.04,-369.52 329,-365.91 318.96,-362.52 319.04,-369.52"/>
</g>
<!-- RawSampleRotation[SampleRun] -->
<g id="node29" class="node">
<title>RawSampleRotation[SampleRun]</title>
<polygon fill="none" stroke="black" points="545,-260.41 291,-260.41 291,-227.41 545,-227.41 545,-260.41"/>
<text text-anchor="start" x="299" y="-246.21" font-family="Times,serif" font-size="14.00">RawSampleRotation[SampleRun]</text>
<text text-anchor="start" x="330" y="-234.61" font-family="Times,serif" font-size="11.00">via:</text>
<text text-anchor="start" x="351" y="-234.61" font-family="Times,serif" font-style="italic" font-size="11.00">load_amor_sample_rotation</text>
</g>
<!-- Filename[SampleRun]&#45;&gt;RawSampleRotation[SampleRun] -->
<g id="edge27" class="edge">
<title>Filename[SampleRun]:e&#45;&gt;RawSampleRotation[SampleRun]:w</title>
<path fill="none" stroke="black" d="M155.5,-384.91C181.8,-384.91 191.78,-386.45 213,-370.91 263.23,-334.11 228.47,-253.72 279.79,-244.73"/>
<polygon fill="black" stroke="black" points="280.31,-248.2 290,-243.91 279.75,-241.22 280.31,-248.2"/>
</g>
<!-- OrsoExperiment -->
<g id="node18" class="node">
<title>OrsoExperiment</title>
<polygon fill="none" stroke="black" points="855.5,-425.41 687.5,-425.41 687.5,-392.41 855.5,-392.41 855.5,-425.41"/>
<text text-anchor="start" x="712.5" y="-411.21" font-family="Times,serif" font-size="14.00">OrsoExperiment</text>
<text text-anchor="start" x="695.5" y="-399.61" font-family="Times,serif" font-size="11.00">via:</text>
<text text-anchor="start" x="716.5" y="-399.61" font-family="Times,serif" font-style="italic" font-size="11.00">parse_orso_experiment</text>
</g>
<!-- Beamline&#45;&gt;OrsoExperiment -->
<g id="edge9" class="edge">
<title>Beamline:e&#45;&gt;OrsoExperiment:w</title>
<path fill="none" stroke="black" d="M507,-439.91C584.48,-439.91 603.91,-411.52 676.4,-409.08"/>
<polygon fill="black" stroke="black" points="676.56,-412.57 686.5,-408.91 676.44,-405.57 676.56,-412.57"/>
</g>
<!-- GravityToggle -->
<g id="node5" class="node">
<title>GravityToggle</title>
<polygon fill="none" stroke="black" points="476.5,-196.41 359.5,-196.41 359.5,-173.41 476.5,-173.41 476.5,-196.41"/>
<text text-anchor="middle" x="418" y="-181.21" font-family="Times,serif" font-size="14.00">GravityToggle</text>
</g>
<!-- CoordTransformationGraph -->
<g id="node6" class="node">
<title>CoordTransformationGraph</title>
<polygon fill="none" stroke="black" points="883.5,-205.41 659.5,-205.41 659.5,-172.41 883.5,-172.41 883.5,-205.41"/>
<text text-anchor="start" x="672.5" y="-191.21" font-family="Times,serif" font-size="14.00">CoordTransformationGraph</text>
<text text-anchor="start" x="667.5" y="-179.61" font-family="Times,serif" font-size="11.00">via:</text>
<text text-anchor="start" x="688.5" y="-179.61" font-family="Times,serif" font-style="italic" font-size="11.00">coordinate_transformation_graph</text>
</g>
<!-- GravityToggle&#45;&gt;CoordTransformationGraph -->
<g id="edge2" class="edge">
<title>GravityToggle:e&#45;&gt;CoordTransformationGraph:w</title>
<path fill="none" stroke="black" d="M478,-184.91C554.79,-184.91 576.43,-188.57 648.48,-188.89"/>
<polygon fill="black" stroke="black" points="648.49,-192.39 658.5,-188.91 648.51,-185.39 648.49,-192.39"/>
</g>
<!-- Reference -->
<g id="node31" class="node">
<title>Reference</title>
<polygon fill="none" stroke="black" points="1274,-163.41 1024,-163.41 1024,-130.41 1274,-130.41 1274,-163.41"/>
<text text-anchor="start" x="1112.5" y="-149.21" font-family="Times,serif" font-size="14.00">Reference</text>
<text text-anchor="start" x="1032" y="-137.61" font-family="Times,serif" font-size="11.00">via:</text>
<text text-anchor="start" x="1053" y="-137.61" font-family="Times,serif" font-style="italic" font-size="11.00">evaluate_reference_at_sample_coords</text>
</g>
<!-- CoordTransformationGraph&#45;&gt;Reference -->
<g id="edge31" class="edge">
<title>CoordTransformationGraph:e&#45;&gt;Reference:w</title>
<path fill="none" stroke="black" d="M884.5,-188.91C945.31,-188.91 957.44,-151.38 1012.92,-147.27"/>
<polygon fill="black" stroke="black" points="1013.13,-150.77 1023,-146.91 1012.88,-143.77 1013.13,-150.77"/>
</g>
<!-- CriticalEdge -->
<g id="node7" class="node">
<title>CriticalEdge</title>
<polygon fill="none" stroke="black" points="824.5,-76.41 718.5,-76.41 718.5,-53.41 824.5,-53.41 824.5,-76.41"/>
<text text-anchor="middle" x="771.5" y="-61.21" font-family="Times,serif" font-size="14.00">CriticalEdge</text>
</g>
<!-- CriticalEdge&#45;&gt;Sample -->
<g id="edge37" class="edge">
<title>CriticalEdge:e&#45;&gt;Sample:w</title>
<path fill="none" stroke="black" d="M825.5,-64.91C868.03,-64.91 878.03,-73.08 920,-79.91 948.39,-84.53 957.54,-90.39 981.86,-91.66"/>
<polygon fill="black" stroke="black" points="981.92,-95.16 992,-91.91 982.09,-88.16 981.92,-95.16"/>
</g>
<!-- DetectorRotation[SampleRun]&#45;&gt;QBins -->
<g id="edge23" class="edge">
<title>DetectorRotation[SampleRun]:e&#45;&gt;QBins:w</title>
<path fill="none" stroke="black" d="M535,-280.91C706.18,-280.91 749.11,-279.83 920,-269.91 1002.86,-265.1 1025.61,-253.88 1103.67,-252.97"/>
<polygon fill="black" stroke="black" points="1104.02,-256.47 1114,-252.91 1103.98,-249.47 1104.02,-256.47"/>
</g>
<!-- DetectorSpatialResolution[SampleRun] -->
<g id="node9" class="node">
<title>DetectorSpatialResolution[SampleRun]</title>
<polygon fill="none" stroke="black" points="920,-168.41 623,-168.41 623,-145.41 920,-145.41 920,-168.41"/>
<text text-anchor="middle" x="771.5" y="-153.21" font-family="Times,serif" font-size="14.00">DetectorSpatialResolution[SampleRun]</text>
</g>
<!-- DetectorSpatialResolution[SampleRun]&#45;&gt;Reference -->
<g id="edge30" class="edge">
<title>DetectorSpatialResolution[SampleRun]:e&#45;&gt;Reference:w</title>
<path fill="none" stroke="black" d="M920,-156.91C962.4,-156.91 975.07,-148.41 1012.83,-147.08"/>
<polygon fill="black" stroke="black" points="1013.06,-150.58 1023,-146.91 1012.94,-143.58 1013.06,-150.58"/>
</g>
<!-- Filename[ReferenceRun] -->
<g id="node10" class="node">
<title>Filename[ReferenceRun]</title>
<polygon fill="none" stroke="black" points="161.5,-370.41 51.5,-370.41 51.5,-349.41 161.5,-349.41 161.5,-370.41"/>
<text text-anchor="start" x="59.5" y="-356.81" font-family="Times,serif" font-size="12.00">[ReferenceRun]</text>
</g>
<!-- OrsoMeasurement -->
<g id="node19" class="node">
<title>OrsoMeasurement</title>
<polygon fill="none" stroke="black" points="860.5,-376.41 682.5,-376.41 682.5,-343.41 860.5,-343.41 860.5,-376.41"/>
<text text-anchor="start" x="705" y="-362.21" font-family="Times,serif" font-size="14.00">OrsoMeasurement</text>
<text text-anchor="start" x="690.5" y="-350.61" font-family="Times,serif" font-size="11.00">via:</text>
<text text-anchor="start" x="711.5" y="-350.61" font-family="Times,serif" font-style="italic" font-size="11.00">build_orso_measurement</text>
</g>
<!-- Filename[ReferenceRun]&#45;&gt;OrsoMeasurement -->
<g id="edge17" class="edge">
<title>Filename[ReferenceRun]:e&#45;&gt;OrsoMeasurement:w</title>
<path fill="none" stroke="black" d="M162.5,-359.91C217.16,-359.91 230.39,-351.36 285,-348.91 403.1,-343.62 432.88,-343.94 551,-348.91 605.63,-351.21 621.42,-358.9 671.39,-359.82"/>
<polygon fill="black" stroke="black" points="671.47,-363.32 681.5,-359.91 671.53,-356.32 671.47,-363.32"/>
</g>
<!-- MValue -->
<g id="node11" class="node">
<title>MValue</title>
<polygon fill="none" stroke="black" points="806.5,-49.41 736.5,-49.41 736.5,-26.41 806.5,-26.41 806.5,-49.41"/>
<text text-anchor="middle" x="771.5" y="-34.21" font-family="Times,serif" font-size="14.00">MValue</text>
</g>
<!-- MValue&#45;&gt;Sample -->
<g id="edge38" class="edge">
<title>MValue:e&#45;&gt;Sample:w</title>
<path fill="none" stroke="black" d="M807.5,-37.91C857.94,-37.91 872.03,-37.31 920,-52.91 951.09,-63.02 955.06,-86.44 981.93,-91.1"/>
<polygon fill="black" stroke="black" points="981.75,-94.59 992,-91.91 982.31,-87.62 981.75,-94.59"/>
</g>
<!-- Measurement&#45;&gt;OrsoExperiment -->
<g id="edge10" class="edge">
<title>Measurement:e&#45;&gt;OrsoExperiment:w</title>
<path fill="none" stroke="black" d="M520,-402.91C590.58,-402.91 610.6,-408.36 676.44,-408.87"/>
<polygon fill="black" stroke="black" points="676.49,-412.37 686.5,-408.91 676.51,-405.37 676.49,-412.37"/>
</g>
<!-- OrsoCorrectionList -->
<g id="node13" class="node">
<title>OrsoCorrectionList</title>
<polygon fill="none" stroke="black" points="1544,-211.41 1378,-211.41 1378,-178.41 1544,-178.41 1544,-211.41"/>
<text text-anchor="start" x="1392.5" y="-197.21" font-family="Times,serif" font-size="14.00">OrsoCorrectionList</text>
<text text-anchor="start" x="1386" y="-185.61" font-family="Times,serif" font-size="11.00">via:</text>
<text text-anchor="start" x="1407" y="-185.61" font-family="Times,serif" font-style="italic" font-size="11.00">orso_amor_corrections</text>
</g>
<!-- OrsoIofQDataset -->
<g id="node23" class="node">
<title>OrsoIofQDataset</title>
<polygon fill="none" stroke="black" points="1785,-175.41 1616,-175.41 1616,-142.41 1785,-142.41 1785,-175.41"/>
<text text-anchor="start" x="1640.5" y="-161.21" font-family="Times,serif" font-size="14.00">OrsoIofQDataset</text>
<text text-anchor="start" x="1624" y="-149.61" font-family="Times,serif" font-size="11.00">via:</text>
<text text-anchor="start" x="1645" y="-149.61" font-family="Times,serif" font-style="italic" font-size="11.00">build_orso_iofq_dataset</text>
</g>
<!-- OrsoCorrectionList&#45;&gt;OrsoIofQDataset -->
<g id="edge15" class="edge">
<title>OrsoCorrectionList:e&#45;&gt;OrsoIofQDataset:w</title>
<path fill="none" stroke="black" d="M1544,-194.91C1576,-194.91 1579.74,-166.1 1605.78,-160.03"/>
<polygon fill="black" stroke="black" points="1606.44,-163.47 1616,-158.91 1605.68,-156.52 1606.44,-163.47"/>
</g>
<!-- OrsoCreator -->
<g id="node14" class="node">
<title>OrsoCreator</title>
<polygon fill="none" stroke="black" points="1201.5,-71.41 1096.5,-71.41 1096.5,-48.41 1201.5,-48.41 1201.5,-71.41"/>
<text text-anchor="middle" x="1149" y="-56.21" font-family="Times,serif" font-size="14.00">OrsoCreator</text>
</g>
<!-- OrsoReduction -->
<g id="node24" class="node">
<title>OrsoReduction</title>
<polygon fill="none" stroke="black" points="1538,-106.41 1384,-106.41 1384,-73.41 1538,-73.41 1538,-106.41"/>
<text text-anchor="start" x="1408" y="-92.21" font-family="Times,serif" font-size="14.00">OrsoReduction</text>
<text text-anchor="start" x="1392" y="-80.61" font-family="Times,serif" font-size="11.00">via:</text>
<text text-anchor="start" x="1413" y="-80.61" font-family="Times,serif" font-style="italic" font-size="11.00">build_orso_reduction</text>
</g>
<!-- OrsoCreator&#45;&gt;OrsoReduction -->
<g id="edge20" class="edge">
<title>OrsoCreator:e&#45;&gt;OrsoReduction:w</title>
<path fill="none" stroke="black" d="M1203,-59.91C1249.26,-59.91 1260.39,-67.15 1306,-74.91 1336.75,-80.14 1346.2,-88.01 1372.81,-89.62"/>
<polygon fill="black" stroke="black" points="1372.9,-93.12 1383,-89.91 1373.1,-86.12 1372.9,-93.12"/>
</g>
<!-- OrsoDataSource -->
<g id="node16" class="node">
<title>OrsoDataSource</title>
<polygon fill="none" stroke="black" points="1233,-425.41 1065,-425.41 1065,-392.41 1233,-392.41 1233,-425.41"/>
<text text-anchor="start" x="1090" y="-411.21" font-family="Times,serif" font-size="14.00">OrsoDataSource</text>
<text text-anchor="start" x="1073" y="-399.61" font-family="Times,serif" font-size="11.00">via:</text>
<text text-anchor="start" x="1094" y="-399.61" font-family="Times,serif" font-style="italic" font-size="11.00">build_orso_data_source</text>
</g>
<!-- OrsoOwner&#45;&gt;OrsoDataSource -->
<g id="edge5" class="edge">
<title>OrsoOwner:e&#45;&gt;OrsoDataSource:w</title>
<path fill="none" stroke="black" d="M489,-513.91C682.46,-513.91 731.14,-494.86 920,-452.91 981.88,-439.16 995.69,-411.98 1053.86,-409.15"/>
<polygon fill="black" stroke="black" points="1054.09,-412.64 1064,-408.91 1053.92,-405.65 1054.09,-412.64"/>
</g>
<!-- OrsoDataSource&#45;&gt;OrsoIofQDataset -->
<g id="edge13" class="edge">
<title>OrsoDataSource:e&#45;&gt;OrsoIofQDataset:w</title>
<path fill="none" stroke="black" d="M1234,-408.91C1354.98,-408.91 1274.64,-240.78 1378,-177.91 1380.5,-176.39 1560.69,-162.8 1605.86,-159.59"/>
<polygon fill="black" stroke="black" points="1606.26,-163.07 1616,-158.91 1605.79,-156.09 1606.26,-163.07"/>
</g>
<!-- OrsoSample&#45;&gt;OrsoDataSource -->
<g id="edge6" class="edge">
<title>OrsoSample:e&#45;&gt;OrsoDataSource:w</title>
<path fill="none" stroke="black" d="M492,-476.91C683.46,-476.91 729.97,-451.32 920,-427.91 980.57,-420.45 997.62,-410.11 1053.83,-409.01"/>
<polygon fill="black" stroke="black" points="1054.03,-412.5 1064,-408.91 1053.97,-405.5 1054.03,-412.5"/>
</g>
<!-- OrsoExperiment&#45;&gt;OrsoDataSource -->
<g id="edge7" class="edge">
<title>OrsoExperiment:e&#45;&gt;OrsoDataSource:w</title>
<path fill="none" stroke="black" d="M856.5,-408.91C945.21,-408.91 969.92,-408.91 1053.76,-408.91"/>
<polygon fill="black" stroke="black" points="1054,-412.41 1064,-408.91 1054,-405.41 1054,-412.41"/>
</g>
<!-- OrsoMeasurement&#45;&gt;OrsoDataSource -->
<g id="edge8" class="edge">
<title>OrsoMeasurement:e&#45;&gt;OrsoDataSource:w</title>
<path fill="none" stroke="black" d="M861.5,-359.91C950.66,-359.91 970.01,-405.34 1053.99,-408.71"/>
<polygon fill="black" stroke="black" points="1053.93,-412.21 1064,-408.91 1054.07,-405.21 1053.93,-412.21"/>
</g>
<!-- ReducibleData[SampleRun] -->
<g id="node20" class="node">
<title>ReducibleData[SampleRun]</title>
<polygon fill="none" stroke="black" points="213,-149.41 0,-149.41 0,-126.41 213,-126.41 213,-149.41"/>
<text text-anchor="middle" x="106.5" y="-134.21" font-family="Times,serif" font-size="14.00">ReducibleData[SampleRun]</text>
</g>
<!-- OrsoInstrument -->
<g id="node21" class="node">
<title>OrsoInstrument</title>
<polygon fill="none" stroke="black" points="499,-334.41 337,-334.41 337,-301.41 499,-301.41 499,-334.41"/>
<text text-anchor="start" x="360.5" y="-320.21" font-family="Times,serif" font-size="14.00">OrsoInstrument</text>
<text text-anchor="start" x="345" y="-308.61" font-family="Times,serif" font-size="11.00">via:</text>
<text text-anchor="start" x="366" y="-308.61" font-family="Times,serif" font-style="italic" font-size="11.00">build_orso_instrument</text>
</g>
<!-- ReducibleData[SampleRun]&#45;&gt;OrsoInstrument -->
<g id="edge11" class="edge">
<title>ReducibleData[SampleRun]:e&#45;&gt;OrsoInstrument:w</title>
<path fill="none" stroke="black" d="M213,-137.91C290.57,-137.91 229.21,-243.01 285,-296.91 299.88,-311.28 308.51,-316.35 325.56,-317.58"/>
<polygon fill="black" stroke="black" points="325.9,-321.1 336,-317.91 326.11,-314.1 325.9,-321.1"/>
</g>
<!-- ReducibleData[SampleRun]&#45;&gt;Reference -->
<g id="edge29" class="edge">
<title>ReducibleData[SampleRun]:e&#45;&gt;Reference:w</title>
<path fill="none" stroke="black" d="M213,-137.91C527.24,-137.91 605.8,-140.3 920,-144.91 962.2,-145.53 975.22,-146.7 1012.87,-146.89"/>
<polygon fill="black" stroke="black" points="1012.99,-150.39 1023,-146.91 1013.01,-143.39 1012.99,-150.39"/>
</g>
<!-- ReducibleData[SampleRun]&#45;&gt;Sample -->
<g id="edge35" class="edge">
<title>ReducibleData[SampleRun]:e&#45;&gt;Sample:w</title>
<path fill="none" stroke="black" d="M213,-137.91C401.9,-137.91 435.78,-51.02 623,-25.91 753.83,-8.36 796.98,21.94 920,-25.91 956.98,-40.29 950.24,-83.52 981.96,-90.85"/>
<polygon fill="black" stroke="black" points="981.69,-94.34 992,-91.91 982.42,-87.38 981.69,-94.34"/>
</g>
<!-- OrsoInstrument&#45;&gt;OrsoMeasurement -->
<g id="edge18" class="edge">
<title>OrsoInstrument:e&#45;&gt;OrsoMeasurement:w</title>
<path fill="none" stroke="black" d="M500,-317.91C579.24,-317.91 597.21,-356.38 671.19,-359.68"/>
<polygon fill="black" stroke="black" points="671.43,-363.19 681.5,-359.91 671.58,-356.19 671.43,-363.19"/>
</g>
<!-- ReflectivityOverQ -->
<g id="node22" class="node">
<title>ReflectivityOverQ</title>
<polygon fill="none" stroke="black" points="1543,-163.41 1379,-163.41 1379,-130.41 1543,-130.41 1543,-163.41"/>
<text text-anchor="start" x="1397.5" y="-149.21" font-family="Times,serif" font-size="14.00">ReflectivityOverQ</text>
<text text-anchor="start" x="1387" y="-137.61" font-family="Times,serif" font-size="11.00">via:</text>
<text text-anchor="start" x="1408" y="-137.61" font-family="Times,serif" font-style="italic" font-size="11.00">reduce_sample_over_q</text>
</g>
<!-- ReflectivityOverQ&#45;&gt;OrsoIofQDataset -->
<g id="edge12" class="edge">
<title>ReflectivityOverQ:e&#45;&gt;OrsoIofQDataset:w</title>
<path fill="none" stroke="black" d="M1544,-146.91C1572.77,-146.91 1581.62,-156.34 1605.88,-158.48"/>
<polygon fill="black" stroke="black" points="1605.86,-161.98 1616,-158.91 1606.16,-154.99 1605.86,-161.98"/>
</g>
<!-- OrsoReduction&#45;&gt;OrsoIofQDataset -->
<g id="edge14" class="edge">
<title>OrsoReduction:e&#45;&gt;OrsoIofQDataset:w</title>
<path fill="none" stroke="black" d="M1539,-89.91C1581.18,-89.91 1572.08,-148.05 1605.85,-157.59"/>
<polygon fill="black" stroke="black" points="1605.63,-161.09 1616,-158.91 1606.53,-154.15 1605.63,-161.09"/>
</g>
<!-- OrsoSampleFilenames&#45;&gt;OrsoMeasurement -->
<g id="edge16" class="edge">
<title>OrsoSampleFilenames:e&#45;&gt;OrsoMeasurement:w</title>
<path fill="none" stroke="black" d="M507,-365.91C581.12,-365.91 602.05,-360.44 671.38,-359.94"/>
<polygon fill="black" stroke="black" points="671.51,-363.44 681.5,-359.91 671.49,-356.44 671.51,-363.44"/>
</g>
<!-- QBins&#45;&gt;ReflectivityOverQ -->
<g id="edge34" class="edge">
<title>QBins:e&#45;&gt;ReflectivityOverQ:w</title>
<path fill="none" stroke="black" d="M1184,-252.91C1278.8,-252.91 1279.8,-154.23 1368,-147.29"/>
<polygon fill="black" stroke="black" points="1368.14,-150.79 1378,-146.91 1367.87,-143.79 1368.14,-150.79"/>
</g>
<!-- SampleRotation[SampleRun] -->
<g id="node27" class="node">
<title>SampleRotation[SampleRun]</title>
<polygon fill="none" stroke="black" points="883,-269.41 660,-269.41 660,-236.41 883,-236.41 883,-269.41"/>
<text text-anchor="start" x="668" y="-255.21" font-family="Times,serif" font-size="14.00">SampleRotation[SampleRun]</text>
<text text-anchor="start" x="692.5" y="-243.61" font-family="Times,serif" font-size="11.00">via:</text>
<text text-anchor="start" x="713.5" y="-243.61" font-family="Times,serif" font-style="italic" font-size="11.00">correct_sample_rotation</text>
</g>
<!-- SampleRotation[SampleRun]&#45;&gt;QBins -->
<g id="edge24" class="edge">
<title>SampleRotation[SampleRun]:e&#45;&gt;QBins:w</title>
<path fill="none" stroke="black" d="M883.5,-252.91C982.44,-252.91 1009.72,-252.91 1103.76,-252.91"/>
<polygon fill="black" stroke="black" points="1104,-256.41 1114,-252.91 1104,-249.41 1104,-256.41"/>
</g>
<!-- WavelengthBins -->
<g id="node28" class="node">
<title>WavelengthBins</title>
<polygon fill="none" stroke="black" points="837.5,-232.41 705.5,-232.41 705.5,-209.41 837.5,-209.41 837.5,-232.41"/>
<text text-anchor="middle" x="771.5" y="-217.21" font-family="Times,serif" font-size="14.00">WavelengthBins</text>
</g>
<!-- WavelengthBins&#45;&gt;QBins -->
<g id="edge25" class="edge">
<title>WavelengthBins:e&#45;&gt;QBins:w</title>
<path fill="none" stroke="black" d="M838.5,-220.91C958.28,-220.91 989.02,-251.12 1103.75,-252.83"/>
<polygon fill="black" stroke="black" points="1103.97,-256.33 1114,-252.91 1104.03,-249.33 1103.97,-256.33"/>
</g>
<!-- RawSampleRotation[SampleRun]&#45;&gt;SampleRotation[SampleRun] -->
<g id="edge40" class="edge">
<title>RawSampleRotation[SampleRun]:e&#45;&gt;SampleRotation[SampleRun]:w</title>
<path fill="none" stroke="black" d="M546,-243.91C593.04,-243.91 606.98,-251.69 649.37,-252.78"/>
<polygon fill="black" stroke="black" points="649.46,-256.28 659.5,-252.91 649.54,-249.28 649.46,-256.28"/>
</g>
<!-- ReducedReference -->
<g id="node30" class="node">
<title>ReducedReference</title>
<polygon fill="none" stroke="black" points="846.5,-130.41 696.5,-130.41 696.5,-107.41 846.5,-107.41 846.5,-130.41"/>
<text text-anchor="middle" x="771.5" y="-115.21" font-family="Times,serif" font-size="14.00">ReducedReference</text>
</g>
<!-- ReducedReference&#45;&gt;Reference -->
<g id="edge28" class="edge">
<title>ReducedReference:e&#45;&gt;Reference:w</title>
<path fill="none" stroke="black" d="M847.5,-118.91C922.94,-118.91 942.31,-144.45 1012.72,-146.74"/>
<polygon fill="black" stroke="black" points="1012.95,-150.25 1023,-146.91 1013.06,-143.25 1012.95,-150.25"/>
</g>
<!-- ReducedReference&#45;&gt;Sample -->
<g id="edge36" class="edge">
<title>ReducedReference:e&#45;&gt;Sample:w</title>
<path fill="none" stroke="black" d="M847.5,-118.91C909.26,-118.91 925,-94.78 981.73,-92.14"/>
<polygon fill="black" stroke="black" points="982.08,-95.63 992,-91.91 981.92,-88.64 982.08,-95.63"/>
</g>
<!-- Reference&#45;&gt;ReflectivityOverQ -->
<g id="edge33" class="edge">
<title>Reference:e&#45;&gt;ReflectivityOverQ:w</title>
<path fill="none" stroke="black" d="M1275,-146.91C1317.2,-146.91 1330.22,-146.91 1367.87,-146.91"/>
<polygon fill="black" stroke="black" points="1368,-150.41 1378,-146.91 1368,-143.41 1368,-150.41"/>
</g>
<!-- Sample&#45;&gt;ReflectivityOverQ -->
<g id="edge32" class="edge">
<title>Sample:e&#45;&gt;ReflectivityOverQ:w</title>
<path fill="none" stroke="black" d="M1306,-91.91C1342.49,-91.91 1338.9,-137.08 1367.88,-145.55"/>
<polygon fill="black" stroke="black" points="1367.62,-149.05 1378,-146.91 1368.56,-142.11 1367.62,-149.05"/>
</g>
<!-- SampleRotationOffset[SampleRun] -->
<g id="node33" class="node">
<title>SampleRotationOffset[SampleRun]</title>
<polygon fill="none" stroke="black" points="551,-223.41 285,-223.41 285,-200.41 551,-200.41 551,-223.41"/>
<text text-anchor="middle" x="418" y="-208.21" font-family="Times,serif" font-size="14.00">SampleRotationOffset[SampleRun]</text>
</g>
<!-- SampleRotationOffset[SampleRun]&#45;&gt;SampleRotation[SampleRun] -->
<g id="edge41" class="edge">
<title>SampleRotationOffset[SampleRun]:e&#45;&gt;SampleRotation[SampleRun]:w</title>
<path fill="none" stroke="black" d="M551,-211.91C598.93,-211.91 606.96,-247.35 649.28,-252.33"/>
<polygon fill="black" stroke="black" points="649.32,-255.84 659.5,-252.91 649.71,-248.85 649.32,-255.84"/>
</g>
</g>
</svg>
