<?xml version="1.0" encoding="UTF-8" standalone="no"?>
<!DOCTYPE svg PUBLIC "-//W3C//DTD SVG 1.1//EN"
 "http://www.w3.org/Graphics/SVG/1.1/DTD/svg11.dtd">
<!-- Generated by graphviz version 2.43.0 (0)
 -->
<!-- Title: %3 Pages: 1 -->
<svg width="2112pt" height="735pt"
 viewBox="0.00 0.00 2112.00 734.89" xmlns="http://www.w3.org/2000/svg" xmlns:xlink="http://www.w3.org/1999/xlink">
<g id="graph0" class="graph" transform="scale(1 1) rotate(0) translate(4 730.89)">
<title>%3</title>
<polygon fill="white" stroke="transparent" points="-4,4 -4,-730.89 2108,-730.89 2108,4 -4,4"/>
<g id="clust11" class="cluster">
<title>cluster_DetectorRotation</title>
<polygon fill="#f0f0ff" stroke="#f0f0ff" points="610,-432.39 610,-528.39 809,-528.39 809,-432.39 610,-432.39"/>
<text text-anchor="start" x="647.5" y="-514.19" font-family="Times,serif" font-size="14.00">DetectorRotation</text>
<text text-anchor="start" x="618" y="-502.59" font-family="Times,serif" font-size="11.00">via:</text>
<text text-anchor="start" x="639" y="-502.59" font-family="Times,serif" font-style="italic" font-size="11.00">load_amor_detector_rotation</text>
</g>
<g id="clust13" class="cluster">
<title>cluster_Filename</title>
<polygon fill="#f0f0ff" stroke="#f0f0ff" points="43.5,-509.39 43.5,-595.39 169.5,-595.39 169.5,-509.39 43.5,-509.39"/>
<text text-anchor="middle" x="106.5" y="-580.19" font-family="Times,serif" font-size="14.00">Filename</text>
</g>
<g id="clust30" class="cluster">
<title>cluster_RawSampleRotation</title>
<polygon fill="#f0f0ff" stroke="#f0f0ff" points="298.5,-373.39 298.5,-469.39 490.5,-469.39 490.5,-373.39 298.5,-373.39"/>
<text text-anchor="start" x="322" y="-455.19" font-family="Times,serif" font-size="14.00">RawSampleRotation</text>
<text text-anchor="start" x="306.5" y="-443.59" font-family="Times,serif" font-size="11.00">via:</text>
<text text-anchor="start" x="327.5" y="-443.59" font-family="Times,serif" font-style="italic" font-size="11.00">load_amor_sample_rotation</text>
</g>
<g id="clust36" class="cluster">
<title>cluster_SampleRotationOffset</title>
<polygon fill="#f0f0ff" stroke="#f0f0ff" points="308.5,-279.39 308.5,-365.39 481.5,-365.39 481.5,-279.39 308.5,-279.39"/>
<text text-anchor="middle" x="395" y="-350.19" font-family="Times,serif" font-size="14.00">SampleRotationOffset</text>
</g>
<g id="clust37" class="cluster">
<title>cluster_SampleRotation</title>
<polygon fill="#f0f0ff" stroke="#f0f0ff" points="622,-328.39 622,-424.39 796,-424.39 796,-328.39 622,-328.39"/>
<text text-anchor="start" x="651.5" y="-410.19" font-family="Times,serif" font-size="14.00">SampleRotation</text>
<text text-anchor="start" x="630" y="-398.59" font-family="Times,serif" font-size="11.00">via:</text>
<text text-anchor="start" x="651" y="-398.59" font-family="Times,serif" font-style="italic" font-size="11.00">correct_sample_rotation</text>
</g>
<!-- Alpha -->
<g id="node1" class="node">
<title>Alpha</title>
<polygon fill="none" stroke="black" points="1105,-102.89 1048,-102.89 1048,-79.89 1105,-79.89 1105,-102.89"/>
<text text-anchor="middle" x="1076.5" y="-87.69" font-family="Times,serif" font-size="14.00">Alpha</text>
</g>
<!-- Sample -->
<g id="node42" class="node">
<title>Sample</title>
<polygon fill="none" stroke="black" points="1625,-107.89 1311,-107.89 1311,-74.89 1625,-74.89 1625,-107.89"/>
<text text-anchor="start" x="1441" y="-93.69" font-family="Times,serif" font-size="14.00">Sample</text>
<text text-anchor="start" x="1319" y="-82.09" font-family="Times,serif" font-size="11.00">via:</text>
<text text-anchor="start" x="1340" y="-82.09" font-family="Times,serif" font-style="italic" font-size="11.00">mask_events_where_supermirror_does_not_cover</text>
</g>
<!-- Alpha&#45;&gt;Sample -->
<g id="edge52" class="edge">
<title>Alpha:e&#45;&gt;Sample:w</title>
<path fill="none" stroke="black" d="M1106.5,-91.39C1193.93,-91.39 1218.28,-91.39 1300.9,-91.39"/>
<polygon fill="black" stroke="black" points="1301,-94.89 1311,-91.39 1301,-87.89 1301,-94.89"/>
</g>
<!-- BeamDivergenceLimits -->
<g id="node2" class="node">
<title>BeamDivergenceLimits</title>
<polygon fill="none" stroke="black" points="800.5,-586.89 617.5,-586.89 617.5,-563.89 800.5,-563.89 800.5,-586.89"/>
<text text-anchor="middle" x="709" y="-571.69" font-family="Times,serif" font-size="14.00">BeamDivergenceLimits</text>
</g>
<!-- QBins -->
<g id="node35" class="node">
<title>QBins</title>
<polygon fill="none" stroke="black" points="1110,-492.89 1043,-492.89 1043,-459.89 1110,-459.89 1110,-492.89"/>
<text text-anchor="start" x="1055" y="-478.69" font-family="Times,serif" font-size="14.00">QBins</text>
<text text-anchor="start" x="1051" y="-467.09" font-family="Times,serif" font-size="11.00">via:</text>
<text text-anchor="start" x="1072" y="-467.09" font-family="Times,serif" font-style="italic" font-size="11.00">qgrid</text>
</g>
<!-- BeamDivergenceLimits&#45;&gt;QBins -->
<g id="edge37" class="edge">
<title>BeamDivergenceLimits:e&#45;&gt;QBins:w</title>
<path fill="none" stroke="black" d="M802,-575.39C913.69,-575.39 925.67,-482.3 1031.32,-476.66"/>
<polygon fill="black" stroke="black" points="1031.6,-480.16 1041.5,-476.39 1031.41,-473.16 1031.6,-480.16"/>
</g>
<!-- BeamSize[ReferenceRun] -->
<g id="node3" class="node">
<title>BeamSize[ReferenceRun]</title>
<polygon fill="none" stroke="black" points="808,-319.89 610,-319.89 610,-296.89 808,-296.89 808,-319.89"/>
<text text-anchor="middle" x="709" y="-304.69" font-family="Times,serif" font-size="14.00">BeamSize[ReferenceRun]</text>
</g>
<!-- CoordTransformationGraph[ReferenceRun] -->
<g id="node12" class="node">
<title>CoordTransformationGraph[ReferenceRun]</title>
<polygon fill="none" stroke="black" points="1239,-247.89 914,-247.89 914,-214.89 1239,-214.89 1239,-247.89"/>
<text text-anchor="start" x="922" y="-233.69" font-family="Times,serif" font-size="14.00">CoordTransformationGraph[ReferenceRun]</text>
<text text-anchor="start" x="972.5" y="-222.09" font-family="Times,serif" font-size="11.00">via:</text>
<text text-anchor="start" x="993.5" y="-222.09" font-family="Times,serif" font-style="italic" font-size="11.00">coordinate_transformation_graph</text>
</g>
<!-- BeamSize[ReferenceRun]&#45;&gt;CoordTransformationGraph[ReferenceRun] -->
<g id="edge12" class="edge">
<title>BeamSize[ReferenceRun]:e&#45;&gt;CoordTransformationGraph[ReferenceRun]:w</title>
<path fill="none" stroke="black" d="M809,-308.39C863.25,-308.39 857.2,-240.72 903.92,-232.26"/>
<polygon fill="black" stroke="black" points="904.34,-235.74 914,-231.39 903.74,-228.76 904.34,-235.74"/>
</g>
<!-- Filename[SampleRun] -->
<g id="node4" class="node">
<title>Filename[SampleRun]</title>
<polygon fill="none" stroke="black" points="154,-563.89 59,-563.89 59,-542.89 154,-542.89 154,-563.89"/>
<text text-anchor="start" x="67" y="-550.29" font-family="Times,serif" font-size="12.00">[SampleRun]</text>
</g>
<!-- Beamline[NewType] -->
<g id="node5" class="node">
<title>Beamline[NewType]</title>
<polygon fill="none" stroke="black" points="483,-689.89 306,-689.89 306,-656.89 483,-656.89 483,-689.89"/>
<text text-anchor="start" x="322" y="-675.69" font-family="Times,serif" font-size="14.00">Beamline[NewType]</text>
<text text-anchor="start" x="314" y="-664.09" font-family="Times,serif" font-size="11.00">via:</text>
<text text-anchor="start" x="335" y="-664.09" font-family="Times,serif" font-style="italic" font-size="11.00">load_beamline_metadata</text>
</g>
<!-- Filename[SampleRun]&#45;&gt;Beamline[NewType] -->
<g id="edge1" class="edge">
<title>Filename[SampleRun]:e&#45;&gt;Beamline[NewType]:w</title>
<path fill="none" stroke="black" d="M155.5,-553.39C237.37,-553.39 221.65,-663.75 295.52,-672.81"/>
<polygon fill="black" stroke="black" points="295.31,-676.3 305.5,-673.39 295.72,-669.31 295.31,-676.3"/>
</g>
<!-- DetectorRotation[SampleRun] -->
<g id="node18" class="node">
<title>DetectorRotation[SampleRun]</title>
<polygon fill="none" stroke="black" points="756.5,-486.89 661.5,-486.89 661.5,-465.89 756.5,-465.89 756.5,-486.89"/>
<text text-anchor="start" x="669.5" y="-473.29" font-family="Times,serif" font-size="12.00">[SampleRun]</text>
</g>
<!-- Filename[SampleRun]&#45;&gt;DetectorRotation[SampleRun] -->
<g id="edge14" class="edge">
<title>Filename[SampleRun]:e&#45;&gt;DetectorRotation[SampleRun]:w</title>
<path fill="none" stroke="black" d="M155.5,-553.39C194.39,-553.39 465.79,-528.59 504,-521.39 571.45,-508.69 586.44,-479.44 649.84,-476.62"/>
<polygon fill="black" stroke="black" points="650.08,-480.11 660,-476.39 649.93,-473.11 650.08,-480.11"/>
</g>
<!-- Measurement[NewType] -->
<g id="node21" class="node">
<title>Measurement[NewType]</title>
<polygon fill="none" stroke="black" points="496,-652.89 293,-652.89 293,-619.89 496,-619.89 496,-652.89"/>
<text text-anchor="start" x="306" y="-638.69" font-family="Times,serif" font-size="14.00">Measurement[NewType]</text>
<text text-anchor="start" x="301" y="-627.09" font-family="Times,serif" font-size="11.00">via:</text>
<text text-anchor="start" x="322" y="-627.09" font-family="Times,serif" font-style="italic" font-size="11.00">load_measurement_metadata</text>
</g>
<!-- Filename[SampleRun]&#45;&gt;Measurement[NewType] -->
<g id="edge15" class="edge">
<title>Filename[SampleRun]:e&#45;&gt;Measurement[NewType]:w</title>
<path fill="none" stroke="black" d="M155.5,-553.39C223.08,-553.39 221.66,-628.18 282.23,-635.77"/>
<polygon fill="black" stroke="black" points="282.31,-639.29 292.5,-636.39 282.73,-632.3 282.31,-639.29"/>
</g>
<!-- OrsoOwner -->
<g id="node24" class="node">
<title>OrsoOwner</title>
<polygon fill="none" stroke="black" points="464.5,-726.89 324.5,-726.89 324.5,-693.89 464.5,-693.89 464.5,-726.89"/>
<text text-anchor="start" x="353.5" y="-712.69" font-family="Times,serif" font-size="14.00">OrsoOwner</text>
<text text-anchor="start" x="332.5" y="-701.09" font-family="Times,serif" font-size="11.00">via:</text>
<text text-anchor="start" x="353.5" y="-701.09" font-family="Times,serif" font-style="italic" font-size="11.00">parse_orso_owner</text>
</g>
<!-- Filename[SampleRun]&#45;&gt;OrsoOwner -->
<g id="edge30" class="edge">
<title>Filename[SampleRun]:e&#45;&gt;OrsoOwner:w</title>
<path fill="none" stroke="black" d="M155.5,-553.39C254.2,-553.39 223.63,-699.85 313.5,-709.86"/>
<polygon fill="black" stroke="black" points="313.33,-713.35 323.5,-710.39 313.7,-706.36 313.33,-713.35"/>
</g>
<!-- OrsoSample -->
<g id="node26" class="node">
<title>OrsoSample</title>
<polygon fill="none" stroke="black" points="467,-615.89 322,-615.89 322,-582.89 467,-582.89 467,-615.89"/>
<text text-anchor="start" x="350.5" y="-601.69" font-family="Times,serif" font-size="14.00">OrsoSample</text>
<text text-anchor="start" x="330" y="-590.09" font-family="Times,serif" font-size="11.00">via:</text>
<text text-anchor="start" x="351" y="-590.09" font-family="Times,serif" font-style="italic" font-size="11.00">parse_orso_sample</text>
</g>
<!-- Filename[SampleRun]&#45;&gt;OrsoSample -->
<g id="edge32" class="edge">
<title>Filename[SampleRun]:e&#45;&gt;OrsoSample:w</title>
<path fill="none" stroke="black" d="M155.5,-553.39C228.06,-553.39 243.04,-595.18 310.2,-599.1"/>
<polygon fill="black" stroke="black" points="310.4,-602.61 320.5,-599.39 310.6,-595.61 310.4,-602.61"/>
</g>
<!-- OrsoSampleFilenames -->
<g id="node34" class="node">
<title>OrsoSampleFilenames</title>
<polygon fill="none" stroke="black" points="483,-578.89 306,-578.89 306,-545.89 483,-545.89 483,-578.89"/>
<text text-anchor="start" x="314" y="-564.69" font-family="Times,serif" font-size="14.00">OrsoSampleFilenames</text>
<text text-anchor="start" x="341.5" y="-553.09" font-family="Times,serif" font-size="11.00">via:</text>
<text text-anchor="start" x="362.5" y="-553.09" font-family="Times,serif" font-style="italic" font-size="11.00">orso_data_files</text>
</g>
<!-- Filename[SampleRun]&#45;&gt;OrsoSampleFilenames -->
<g id="edge33" class="edge">
<title>Filename[SampleRun]:e&#45;&gt;OrsoSampleFilenames:w</title>
<path fill="none" stroke="black" d="M155.5,-553.39C218.76,-553.39 236.84,-561.47 295.34,-562.32"/>
<polygon fill="black" stroke="black" points="295.48,-565.82 305.5,-562.39 295.53,-558.82 295.48,-565.82"/>
</g>
<!-- RawSampleRotation[SampleRun] -->
<g id="node39" class="node">
<title>RawSampleRotation[SampleRun]</title>
<polygon fill="none" stroke="black" points="442,-427.89 347,-427.89 347,-406.89 442,-406.89 442,-427.89"/>
<text text-anchor="start" x="355" y="-414.29" font-family="Times,serif" font-size="12.00">[SampleRun]</text>
</g>
<!-- Filename[SampleRun]&#45;&gt;RawSampleRotation[SampleRun] -->
<g id="edge40" class="edge">
<title>Filename[SampleRun]:e&#45;&gt;RawSampleRotation[SampleRun]:w</title>
<path fill="none" stroke="black" d="M155.5,-553.39C181.8,-553.39 189.81,-551.81 213,-539.39 280.4,-503.31 266.9,-424.87 335.29,-417.89"/>
<polygon fill="black" stroke="black" points="335.68,-421.38 345.5,-417.39 335.34,-414.39 335.68,-421.38"/>
</g>
<!-- OrsoExperiment -->
<g id="node27" class="node">
<title>OrsoExperiment</title>
<polygon fill="none" stroke="black" points="793,-671.89 625,-671.89 625,-638.89 793,-638.89 793,-671.89"/>
<text text-anchor="start" x="650" y="-657.69" font-family="Times,serif" font-size="14.00">OrsoExperiment</text>
<text text-anchor="start" x="633" y="-646.09" font-family="Times,serif" font-size="11.00">via:</text>
<text text-anchor="start" x="654" y="-646.09" font-family="Times,serif" font-style="italic" font-size="11.00">parse_orso_experiment</text>
</g>
<!-- Beamline[NewType]&#45;&gt;OrsoExperiment -->
<g id="edge20" class="edge">
<title>Beamline[NewType]:e&#45;&gt;OrsoExperiment:w</title>
<path fill="none" stroke="black" d="M483.5,-673.39C542.89,-673.39 559.24,-657.38 613.75,-655.56"/>
<polygon fill="black" stroke="black" points="614.06,-659.06 624,-655.39 613.94,-652.06 614.06,-659.06"/>
</g>
<!-- RawChopper[ReferenceRun] -->
<g id="node6" class="node">
<title>RawChopper[ReferenceRun]</title>
<polygon fill="none" stroke="black" points="504,-270.89 285,-270.89 285,-237.89 504,-237.89 504,-270.89"/>
<text text-anchor="start" x="293" y="-256.69" font-family="Times,serif" font-size="14.00">RawChopper[ReferenceRun]</text>
<text text-anchor="start" x="344" y="-245.09" font-family="Times,serif" font-size="11.00">via:</text>
<text text-anchor="start" x="365" y="-245.09" font-family="Times,serif" font-style="italic" font-size="11.00">amor_chopper</text>
</g>
<!-- ChopperDistance[ReferenceRun] -->
<g id="node7" class="node">
<title>ChopperDistance[ReferenceRun]</title>
<polygon fill="none" stroke="black" points="834.5,-292.89 583.5,-292.89 583.5,-259.89 834.5,-259.89 834.5,-292.89"/>
<text text-anchor="start" x="591.5" y="-278.69" font-family="Times,serif" font-size="14.00">ChopperDistance[ReferenceRun]</text>
<text text-anchor="start" x="617.5" y="-267.09" font-family="Times,serif" font-size="11.00">via:</text>
<text text-anchor="start" x="638.5" y="-267.09" font-family="Times,serif" font-style="italic" font-size="11.00">load_amor_chopper_distance</text>
</g>
<!-- RawChopper[ReferenceRun]&#45;&gt;ChopperDistance[ReferenceRun] -->
<g id="edge2" class="edge">
<title>RawChopper[ReferenceRun]:e&#45;&gt;ChopperDistance[ReferenceRun]:w</title>
<path fill="none" stroke="black" d="M504,-254.39C536.75,-254.39 545,-272.15 572.77,-275.76"/>
<polygon fill="black" stroke="black" points="572.8,-279.27 583,-276.39 573.24,-272.28 572.8,-279.27"/>
</g>
<!-- ChopperSeparation[ReferenceRun] -->
<g id="node10" class="node">
<title>ChopperSeparation[ReferenceRun]</title>
<polygon fill="none" stroke="black" points="842,-201.89 576,-201.89 576,-168.89 842,-168.89 842,-201.89"/>
<text text-anchor="start" x="584" y="-187.69" font-family="Times,serif" font-size="14.00">ChopperSeparation[ReferenceRun]</text>
<text text-anchor="start" x="611" y="-176.09" font-family="Times,serif" font-size="11.00">via:</text>
<text text-anchor="start" x="632" y="-176.09" font-family="Times,serif" font-style="italic" font-size="11.00">load_amor_chopper_separation</text>
</g>
<!-- RawChopper[ReferenceRun]&#45;&gt;ChopperSeparation[ReferenceRun] -->
<g id="edge3" class="edge">
<title>RawChopper[ReferenceRun]:e&#45;&gt;ChopperSeparation[ReferenceRun]:w</title>
<path fill="none" stroke="black" d="M504,-254.39C544.51,-254.39 534.09,-196.74 565.85,-186.84"/>
<polygon fill="black" stroke="black" points="566.59,-190.27 576,-185.39 565.61,-183.33 566.59,-190.27"/>
</g>
<!-- ChopperDistance[ReferenceRun]&#45;&gt;CoordTransformationGraph[ReferenceRun] -->
<g id="edge9" class="edge">
<title>ChopperDistance[ReferenceRun]:e&#45;&gt;CoordTransformationGraph[ReferenceRun]:w</title>
<path fill="none" stroke="black" d="M835,-276.39C871.62,-276.39 873.56,-239.44 903.68,-232.51"/>
<polygon fill="black" stroke="black" points="904.43,-235.95 914,-231.39 903.68,-228.99 904.43,-235.95"/>
</g>
<!-- ChopperFrequency[ReferenceRun] -->
<g id="node8" class="node">
<title>ChopperFrequency[ReferenceRun]</title>
<polygon fill="none" stroke="black" points="841,-255.89 577,-255.89 577,-232.89 841,-232.89 841,-255.89"/>
<text text-anchor="middle" x="709" y="-240.69" font-family="Times,serif" font-size="14.00">ChopperFrequency[ReferenceRun]</text>
</g>
<!-- ChopperFrequency[ReferenceRun]&#45;&gt;CoordTransformationGraph[ReferenceRun] -->
<g id="edge8" class="edge">
<title>ChopperFrequency[ReferenceRun]:e&#45;&gt;CoordTransformationGraph[ReferenceRun]:w</title>
<path fill="none" stroke="black" d="M842,-244.39C870.83,-244.39 879.58,-234.17 903.86,-231.86"/>
<polygon fill="black" stroke="black" points="904.17,-235.35 914,-231.39 903.85,-228.35 904.17,-235.35"/>
</g>
<!-- ChopperPhase[ReferenceRun] -->
<g id="node9" class="node">
<title>ChopperPhase[ReferenceRun]</title>
<polygon fill="none" stroke="black" points="824.5,-228.89 593.5,-228.89 593.5,-205.89 824.5,-205.89 824.5,-228.89"/>
<text text-anchor="middle" x="709" y="-213.69" font-family="Times,serif" font-size="14.00">ChopperPhase[ReferenceRun]</text>
</g>
<!-- ChopperPhase[ReferenceRun]&#45;&gt;CoordTransformationGraph[ReferenceRun] -->
<g id="edge7" class="edge">
<title>ChopperPhase[ReferenceRun]:e&#45;&gt;CoordTransformationGraph[ReferenceRun]:w</title>
<path fill="none" stroke="black" d="M825,-217.39C861.44,-217.39 872.1,-228.99 903.92,-231.08"/>
<polygon fill="black" stroke="black" points="903.89,-234.58 914,-231.39 904.12,-227.58 903.89,-234.58"/>
</g>
<!-- ChopperSeparation[ReferenceRun]&#45;&gt;CoordTransformationGraph[ReferenceRun] -->
<g id="edge10" class="edge">
<title>ChopperSeparation[ReferenceRun]:e&#45;&gt;CoordTransformationGraph[ReferenceRun]:w</title>
<path fill="none" stroke="black" d="M842,-185.39C876.27,-185.39 876.4,-222.85 904,-230.16"/>
<polygon fill="black" stroke="black" points="903.65,-233.65 914,-231.39 904.5,-226.7 903.65,-233.65"/>
</g>
<!-- GravityToggle -->
<g id="node11" class="node">
<title>GravityToggle</title>
<polygon fill="none" stroke="black" points="767.5,-164.89 650.5,-164.89 650.5,-141.89 767.5,-141.89 767.5,-164.89"/>
<text text-anchor="middle" x="709" y="-149.69" font-family="Times,serif" font-size="14.00">GravityToggle</text>
</g>
<!-- GravityToggle&#45;&gt;CoordTransformationGraph[ReferenceRun] -->
<g id="edge4" class="edge">
<title>GravityToggle:e&#45;&gt;CoordTransformationGraph[ReferenceRun]:w</title>
<path fill="none" stroke="black" d="M769,-153.39C802.12,-153.39 812.33,-153.67 842,-168.39 876.66,-185.6 872.65,-223.67 903.71,-230.38"/>
<polygon fill="black" stroke="black" points="903.7,-233.89 914,-231.39 904.39,-226.93 903.7,-233.89"/>
</g>
<!-- Reference -->
<g id="node41" class="node">
<title>Reference</title>
<polygon fill="none" stroke="black" points="1593,-162.89 1343,-162.89 1343,-129.89 1593,-129.89 1593,-162.89"/>
<text text-anchor="start" x="1431.5" y="-148.69" font-family="Times,serif" font-size="14.00">Reference</text>
<text text-anchor="start" x="1351" y="-137.09" font-family="Times,serif" font-size="11.00">via:</text>
<text text-anchor="start" x="1372" y="-137.09" font-family="Times,serif" font-style="italic" font-size="11.00">evaluate_reference_at_sample_coords</text>
</g>
<!-- CoordTransformationGraph[ReferenceRun]&#45;&gt;Reference -->
<g id="edge44" class="edge">
<title>CoordTransformationGraph[ReferenceRun]:e&#45;&gt;Reference:w</title>
<path fill="none" stroke="black" d="M1239,-231.39C1294.76,-231.39 1284.27,-156.38 1332.01,-147.29"/>
<polygon fill="black" stroke="black" points="1332.35,-150.78 1342,-146.39 1331.73,-143.8 1332.35,-150.78"/>
</g>
<!-- DetectorRotation[ReferenceRun] -->
<g id="node13" class="node">
<title>DetectorRotation[ReferenceRun]</title>
<polygon fill="none" stroke="black" points="764,-461.89 654,-461.89 654,-440.89 764,-440.89 764,-461.89"/>
<text text-anchor="start" x="662" y="-448.29" font-family="Times,serif" font-size="12.00">[ReferenceRun]</text>
</g>
<!-- DetectorRotation[ReferenceRun]&#45;&gt;CoordTransformationGraph[ReferenceRun] -->
<g id="edge5" class="edge">
<title>DetectorRotation[ReferenceRun]:e&#45;&gt;CoordTransformationGraph[ReferenceRun]:w</title>
<path fill="none" stroke="black" d="M765,-451.39C801.12,-451.39 816.08,-450.55 842,-425.39 905.28,-363.96 828.83,-241.94 903.56,-232.04"/>
<polygon fill="black" stroke="black" points="904.23,-235.5 914,-231.39 903.8,-228.52 904.23,-235.5"/>
</g>
<!-- SampleRotation[ReferenceRun] -->
<g id="node14" class="node">
<title>SampleRotation[ReferenceRun]</title>
<polygon fill="none" stroke="black" points="764,-357.89 654,-357.89 654,-336.89 764,-336.89 764,-357.89"/>
<text text-anchor="start" x="662" y="-344.29" font-family="Times,serif" font-size="12.00">[ReferenceRun]</text>
</g>
<!-- SampleRotation[ReferenceRun]&#45;&gt;CoordTransformationGraph[ReferenceRun] -->
<g id="edge6" class="edge">
<title>SampleRotation[ReferenceRun]:e&#45;&gt;CoordTransformationGraph[ReferenceRun]:w</title>
<path fill="none" stroke="black" d="M765,-347.39C800.98,-347.39 812.46,-342.94 842,-322.39 881.2,-295.13 865.33,-240.35 903.68,-232.37"/>
<polygon fill="black" stroke="black" points="904.38,-235.82 914,-231.39 903.71,-228.85 904.38,-235.82"/>
</g>
<!-- SampleSize[ReferenceRun] -->
<g id="node15" class="node">
<title>SampleSize[ReferenceRun]</title>
<polygon fill="none" stroke="black" points="814.5,-137.89 603.5,-137.89 603.5,-114.89 814.5,-114.89 814.5,-137.89"/>
<text text-anchor="middle" x="709" y="-122.69" font-family="Times,serif" font-size="14.00">SampleSize[ReferenceRun]</text>
</g>
<!-- SampleSize[ReferenceRun]&#45;&gt;CoordTransformationGraph[ReferenceRun] -->
<g id="edge11" class="edge">
<title>SampleSize[ReferenceRun]:e&#45;&gt;CoordTransformationGraph[ReferenceRun]:w</title>
<path fill="none" stroke="black" d="M816,-126.39C876.22,-126.39 853.23,-219.84 904.02,-230.42"/>
<polygon fill="black" stroke="black" points="903.71,-233.91 914,-231.39 904.39,-226.94 903.71,-233.91"/>
</g>
<!-- CriticalEdge -->
<g id="node16" class="node">
<title>CriticalEdge</title>
<polygon fill="none" stroke="black" points="1129.5,-75.89 1023.5,-75.89 1023.5,-52.89 1129.5,-52.89 1129.5,-75.89"/>
<text text-anchor="middle" x="1076.5" y="-60.69" font-family="Times,serif" font-size="14.00">CriticalEdge</text>
</g>
<!-- CriticalEdge&#45;&gt;Sample -->
<g id="edge50" class="edge">
<title>CriticalEdge:e&#45;&gt;Sample:w</title>
<path fill="none" stroke="black" d="M1130.5,-64.39C1179.18,-64.39 1190.87,-72.06 1239,-79.39 1267.44,-83.73 1276.55,-89.81 1300.86,-91.13"/>
<polygon fill="black" stroke="black" points="1300.91,-94.64 1311,-91.39 1301.09,-87.64 1300.91,-94.64"/>
</g>
<!-- Filename[ReferenceRun] -->
<g id="node17" class="node">
<title>Filename[ReferenceRun]</title>
<polygon fill="none" stroke="black" points="161.5,-538.89 51.5,-538.89 51.5,-517.89 161.5,-517.89 161.5,-538.89"/>
<text text-anchor="start" x="59.5" y="-525.29" font-family="Times,serif" font-size="12.00">[ReferenceRun]</text>
</g>
<!-- Filename[ReferenceRun]&#45;&gt;RawChopper[ReferenceRun] -->
<g id="edge38" class="edge">
<title>Filename[ReferenceRun]:e&#45;&gt;RawChopper[ReferenceRun]:w</title>
<path fill="none" stroke="black" d="M162.5,-528.39C292.25,-528.39 159.29,-269.17 274.67,-255"/>
<polygon fill="black" stroke="black" points="275.22,-258.47 285,-254.39 274.81,-251.48 275.22,-258.47"/>
</g>
<!-- Filename[ReferenceRun]&#45;&gt;DetectorRotation[ReferenceRun] -->
<g id="edge13" class="edge">
<title>Filename[ReferenceRun]:e&#45;&gt;DetectorRotation[ReferenceRun]:w</title>
<path fill="none" stroke="black" d="M162.5,-528.39C181.5,-528.39 485.88,-517.08 504,-511.39 540,-500.09 540.89,-480.23 576,-466.39 605.02,-454.96 615.84,-451.98 642.75,-451.48"/>
<polygon fill="black" stroke="black" points="643.03,-454.98 653,-451.39 642.97,-447.98 643.03,-454.98"/>
</g>
<!-- OrsoMeasurement -->
<g id="node28" class="node">
<title>OrsoMeasurement</title>
<polygon fill="none" stroke="black" points="798,-623.89 620,-623.89 620,-590.89 798,-590.89 798,-623.89"/>
<text text-anchor="start" x="642.5" y="-609.69" font-family="Times,serif" font-size="14.00">OrsoMeasurement</text>
<text text-anchor="start" x="628" y="-598.09" font-family="Times,serif" font-size="11.00">via:</text>
<text text-anchor="start" x="649" y="-598.09" font-family="Times,serif" font-style="italic" font-size="11.00">build_orso_measurement</text>
</g>
<!-- Filename[ReferenceRun]&#45;&gt;OrsoMeasurement -->
<g id="edge28" class="edge">
<title>Filename[ReferenceRun]:e&#45;&gt;OrsoMeasurement:w</title>
<path fill="none" stroke="black" d="M162.5,-528.39C238.47,-528.39 431.26,-522.48 504,-544.39 556.31,-560.15 560.39,-601.74 608.72,-606.87"/>
<polygon fill="black" stroke="black" points="608.84,-610.38 619,-607.39 609.19,-603.39 608.84,-610.38"/>
</g>
<!-- RawSampleRotation[ReferenceRun] -->
<g id="node38" class="node">
<title>RawSampleRotation[ReferenceRun]</title>
<polygon fill="none" stroke="black" points="449.5,-402.89 339.5,-402.89 339.5,-381.89 449.5,-381.89 449.5,-402.89"/>
<text text-anchor="start" x="347.5" y="-389.29" font-family="Times,serif" font-size="12.00">[ReferenceRun]</text>
</g>
<!-- Filename[ReferenceRun]&#45;&gt;RawSampleRotation[ReferenceRun] -->
<g id="edge39" class="edge">
<title>Filename[ReferenceRun]:e&#45;&gt;RawSampleRotation[ReferenceRun]:w</title>
<path fill="none" stroke="black" d="M162.5,-528.39C239.03,-528.39 218.83,-445.84 285,-407.39 303.02,-396.93 311.14,-393.45 328.07,-392.61"/>
<polygon fill="black" stroke="black" points="328.58,-396.1 338.5,-392.39 328.43,-389.1 328.58,-396.1"/>
</g>
<!-- DetectorRotation[SampleRun]&#45;&gt;QBins -->
<g id="edge34" class="edge">
<title>DetectorRotation[SampleRun]:e&#45;&gt;QBins:w</title>
<path fill="none" stroke="black" d="M758,-476.39C880.55,-476.39 913.71,-476.39 1031.37,-476.39"/>
<polygon fill="black" stroke="black" points="1031.5,-479.89 1041.5,-476.39 1031.5,-472.89 1031.5,-479.89"/>
</g>
<!-- DetectorSpatialResolution -->
<g id="node19" class="node">
<title>DetectorSpatialResolution</title>
<polygon fill="none" stroke="black" points="1179,-167.89 974,-167.89 974,-144.89 1179,-144.89 1179,-167.89"/>
<text text-anchor="middle" x="1076.5" y="-152.69" font-family="Times,serif" font-size="14.00">DetectorSpatialResolution</text>
</g>
<!-- DetectorSpatialResolution&#45;&gt;Reference -->
<g id="edge43" class="edge">
<title>DetectorSpatialResolution:e&#45;&gt;Reference:w</title>
<path fill="none" stroke="black" d="M1179.5,-156.39C1248.33,-156.39 1267.77,-147.35 1331.78,-146.46"/>
<polygon fill="black" stroke="black" points="1332.02,-149.96 1342,-146.39 1331.98,-142.96 1332.02,-149.96"/>
</g>
<!-- MValue -->
<g id="node20" class="node">
<title>MValue</title>
<polygon fill="none" stroke="black" points="1111.5,-48.89 1041.5,-48.89 1041.5,-25.89 1111.5,-25.89 1111.5,-48.89"/>
<text text-anchor="middle" x="1076.5" y="-33.69" font-family="Times,serif" font-size="14.00">MValue</text>
</g>
<!-- MValue&#45;&gt;Sample -->
<g id="edge51" class="edge">
<title>MValue:e&#45;&gt;Sample:w</title>
<path fill="none" stroke="black" d="M1112.5,-37.39C1169.12,-37.39 1185.03,-35.27 1239,-52.39 1270.17,-62.28 1274.07,-85.88 1300.94,-90.58"/>
<polygon fill="black" stroke="black" points="1300.75,-94.07 1311,-91.39 1301.32,-87.09 1300.75,-94.07"/>
</g>
<!-- Measurement[NewType]&#45;&gt;OrsoExperiment -->
<g id="edge21" class="edge">
<title>Measurement[NewType]:e&#45;&gt;OrsoExperiment:w</title>
<path fill="none" stroke="black" d="M496.5,-636.39C550.21,-636.39 564.92,-653.09 613.76,-655.18"/>
<polygon fill="black" stroke="black" points="613.93,-658.69 624,-655.39 614.08,-651.69 613.93,-658.69"/>
</g>
<!-- OrsoCorrectionList -->
<g id="node22" class="node">
<title>OrsoCorrectionList</title>
<polygon fill="none" stroke="black" points="1863,-220.89 1697,-220.89 1697,-187.89 1863,-187.89 1863,-220.89"/>
<text text-anchor="start" x="1711.5" y="-206.69" font-family="Times,serif" font-size="14.00">OrsoCorrectionList</text>
<text text-anchor="start" x="1705" y="-195.09" font-family="Times,serif" font-size="11.00">via:</text>
<text text-anchor="start" x="1726" y="-195.09" font-family="Times,serif" font-style="italic" font-size="11.00">orso_amor_corrections</text>
</g>
<!-- OrsoIofQDataset -->
<g id="node32" class="node">
<title>OrsoIofQDataset</title>
<polygon fill="none" stroke="black" points="2104,-184.89 1935,-184.89 1935,-151.89 2104,-151.89 2104,-184.89"/>
<text text-anchor="start" x="1959.5" y="-170.69" font-family="Times,serif" font-size="14.00">OrsoIofQDataset</text>
<text text-anchor="start" x="1943" y="-159.09" font-family="Times,serif" font-size="11.00">via:</text>
<text text-anchor="start" x="1964" y="-159.09" font-family="Times,serif" font-style="italic" font-size="11.00">build_orso_iofq_dataset</text>
</g>
<!-- OrsoCorrectionList&#45;&gt;OrsoIofQDataset -->
<g id="edge26" class="edge">
<title>OrsoCorrectionList:e&#45;&gt;OrsoIofQDataset:w</title>
<path fill="none" stroke="black" d="M1863,-204.39C1895,-204.39 1898.74,-175.59 1924.78,-169.51"/>
<polygon fill="black" stroke="black" points="1925.44,-172.96 1935,-168.39 1924.68,-166 1925.44,-172.96"/>
</g>
<!-- OrsoCreator -->
<g id="node23" class="node">
<title>OrsoCreator</title>
<polygon fill="none" stroke="black" points="1520.5,-70.89 1415.5,-70.89 1415.5,-47.89 1520.5,-47.89 1520.5,-70.89"/>
<text text-anchor="middle" x="1468" y="-55.69" font-family="Times,serif" font-size="14.00">OrsoCreator</text>
</g>
<!-- OrsoReduction -->
<g id="node33" class="node">
<title>OrsoReduction</title>
<polygon fill="none" stroke="black" points="1857,-110.89 1703,-110.89 1703,-77.89 1857,-77.89 1857,-110.89"/>
<text text-anchor="start" x="1727" y="-96.69" font-family="Times,serif" font-size="14.00">OrsoReduction</text>
<text text-anchor="start" x="1711" y="-85.09" font-family="Times,serif" font-size="11.00">via:</text>
<text text-anchor="start" x="1732" y="-85.09" font-family="Times,serif" font-style="italic" font-size="11.00">build_orso_reduction</text>
</g>
<!-- OrsoCreator&#45;&gt;OrsoReduction -->
<g id="edge31" class="edge">
<title>OrsoCreator:e&#45;&gt;OrsoReduction:w</title>
<path fill="none" stroke="black" d="M1522,-59.39C1568.26,-59.39 1579.66,-65.23 1625,-74.39 1656,-80.66 1664.86,-91.72 1691.69,-93.98"/>
<polygon fill="black" stroke="black" points="1691.87,-97.49 1702,-94.39 1692.15,-90.5 1691.87,-97.49"/>
</g>
<!-- OrsoDataSource -->
<g id="node25" class="node">
<title>OrsoDataSource</title>
<polygon fill="none" stroke="black" points="1160.5,-647.89 992.5,-647.89 992.5,-614.89 1160.5,-614.89 1160.5,-647.89"/>
<text text-anchor="start" x="1017.5" y="-633.69" font-family="Times,serif" font-size="14.00">OrsoDataSource</text>
<text text-anchor="start" x="1000.5" y="-622.09" font-family="Times,serif" font-size="11.00">via:</text>
<text text-anchor="start" x="1021.5" y="-622.09" font-family="Times,serif" font-style="italic" font-size="11.00">build_orso_data_source</text>
</g>
<!-- OrsoOwner&#45;&gt;OrsoDataSource -->
<g id="edge16" class="edge">
<title>OrsoOwner:e&#45;&gt;OrsoDataSource:w</title>
<path fill="none" stroke="black" d="M465.5,-710.39C633.6,-710.39 676.86,-705.76 842,-674.39 906.47,-662.15 920.96,-634.41 981.39,-631.62"/>
<polygon fill="black" stroke="black" points="981.58,-635.12 991.5,-631.39 981.42,-628.12 981.58,-635.12"/>
</g>
<!-- OrsoDataSource&#45;&gt;OrsoIofQDataset -->
<g id="edge24" class="edge">
<title>OrsoDataSource:e&#45;&gt;OrsoIofQDataset:w</title>
<path fill="none" stroke="black" d="M1161.5,-631.39C1470.67,-631.39 1410.58,-303.78 1697,-187.39 1719.46,-178.27 1877.55,-169.95 1924.81,-168.59"/>
<polygon fill="black" stroke="black" points="1925.07,-172.09 1935,-168.39 1924.93,-165.09 1925.07,-172.09"/>
</g>
<!-- OrsoSample&#45;&gt;OrsoDataSource -->
<g id="edge17" class="edge">
<title>OrsoSample:e&#45;&gt;OrsoDataSource:w</title>
<path fill="none" stroke="black" d="M468.5,-599.39C517.55,-599.39 527.32,-618.39 576,-624.39 755.9,-646.57 805,-631.96 981.36,-631.41"/>
<polygon fill="black" stroke="black" points="981.51,-634.91 991.5,-631.39 981.49,-627.91 981.51,-634.91"/>
</g>
<!-- OrsoExperiment&#45;&gt;OrsoDataSource -->
<g id="edge18" class="edge">
<title>OrsoExperiment:e&#45;&gt;OrsoDataSource:w</title>
<path fill="none" stroke="black" d="M794,-655.39C878.97,-655.39 901.36,-633.23 981.44,-631.5"/>
<polygon fill="black" stroke="black" points="981.54,-635 991.5,-631.39 981.46,-628 981.54,-635"/>
</g>
<!-- OrsoMeasurement&#45;&gt;OrsoDataSource -->
<g id="edge19" class="edge">
<title>OrsoMeasurement:e&#45;&gt;OrsoDataSource:w</title>
<path fill="none" stroke="black" d="M799,-607.39C881.68,-607.39 903.52,-629.47 981.22,-631.28"/>
<polygon fill="black" stroke="black" points="981.46,-634.78 991.5,-631.39 981.54,-627.78 981.46,-634.78"/>
</g>
<!-- ReducibleData[SampleRun] -->
<g id="node29" class="node">
<title>ReducibleData[SampleRun]</title>
<polygon fill="none" stroke="black" points="213,-118.89 0,-118.89 0,-95.89 213,-95.89 213,-118.89"/>
<text text-anchor="middle" x="106.5" y="-103.69" font-family="Times,serif" font-size="14.00">ReducibleData[SampleRun]</text>
</g>
<!-- OrsoInstrument -->
<g id="node30" class="node">
<title>OrsoInstrument</title>
<polygon fill="none" stroke="black" points="475.5,-510.89 313.5,-510.89 313.5,-477.89 475.5,-477.89 475.5,-510.89"/>
<text text-anchor="start" x="337" y="-496.69" font-family="Times,serif" font-size="14.00">OrsoInstrument</text>
<text text-anchor="start" x="321.5" y="-485.09" font-family="Times,serif" font-size="11.00">via:</text>
<text text-anchor="start" x="342.5" y="-485.09" font-family="Times,serif" font-style="italic" font-size="11.00">build_orso_instrument</text>
</g>
<!-- ReducibleData[SampleRun]&#45;&gt;OrsoInstrument -->
<g id="edge22" class="edge">
<title>ReducibleData[SampleRun]:e&#45;&gt;OrsoInstrument:w</title>
<path fill="none" stroke="black" d="M213,-107.39C386.95,-107.39 145.21,-478.68 302.11,-493.91"/>
<polygon fill="black" stroke="black" points="302.35,-497.43 312.5,-494.39 302.67,-490.44 302.35,-497.43"/>
</g>
<!-- ReducibleData[SampleRun]&#45;&gt;Reference -->
<g id="edge42" class="edge">
<title>ReducibleData[SampleRun]:e&#45;&gt;Reference:w</title>
<path fill="none" stroke="black" d="M213,-107.39C492.57,-107.39 564.27,-82.34 842,-114.39 874.56,-118.15 881.49,-126.21 914,-130.39 958.62,-136.14 1258.82,-145.32 1331.72,-146.31"/>
<polygon fill="black" stroke="black" points="1331.97,-149.81 1342,-146.39 1332.03,-142.81 1331.97,-149.81"/>
</g>
<!-- ReducibleData[SampleRun]&#45;&gt;Sample -->
<g id="edge48" class="edge">
<title>ReducibleData[SampleRun]:e&#45;&gt;Sample:w</title>
<path fill="none" stroke="black" d="M213,-107.39C291.42,-107.39 835.71,-29.96 914,-25.39 1058.2,-16.99 1104.38,26.97 1239,-25.39 1275.98,-39.78 1269.24,-83.01 1300.96,-90.33"/>
<polygon fill="black" stroke="black" points="1300.69,-93.82 1311,-91.39 1301.42,-86.86 1300.69,-93.82"/>
</g>
<!-- OrsoInstrument&#45;&gt;OrsoMeasurement -->
<g id="edge29" class="edge">
<title>OrsoInstrument:e&#45;&gt;OrsoMeasurement:w</title>
<path fill="none" stroke="black" d="M476.5,-494.39C553.7,-494.39 539.69,-597.47 608.69,-606.73"/>
<polygon fill="black" stroke="black" points="608.8,-610.24 619,-607.39 609.25,-603.26 608.8,-610.24"/>
</g>
<!-- ReflectivityOverQ -->
<g id="node31" class="node">
<title>ReflectivityOverQ</title>
<polygon fill="none" stroke="black" points="1862,-167.89 1698,-167.89 1698,-134.89 1862,-134.89 1862,-167.89"/>
<text text-anchor="start" x="1716.5" y="-153.69" font-family="Times,serif" font-size="14.00">ReflectivityOverQ</text>
<text text-anchor="start" x="1706" y="-142.09" font-family="Times,serif" font-size="11.00">via:</text>
<text text-anchor="start" x="1727" y="-142.09" font-family="Times,serif" font-style="italic" font-size="11.00">reduce_sample_over_q</text>
</g>
<!-- ReflectivityOverQ&#45;&gt;OrsoIofQDataset -->
<g id="edge23" class="edge">
<title>ReflectivityOverQ:e&#45;&gt;OrsoIofQDataset:w</title>
<path fill="none" stroke="black" d="M1863,-151.39C1892.16,-151.39 1900.36,-164.76 1924.77,-167.79"/>
<polygon fill="black" stroke="black" points="1924.81,-171.3 1935,-168.39 1925.22,-164.31 1924.81,-171.3"/>
</g>
<!-- OrsoReduction&#45;&gt;OrsoIofQDataset -->
<g id="edge25" class="edge">
<title>OrsoReduction:e&#45;&gt;OrsoIofQDataset:w</title>
<path fill="none" stroke="black" d="M1858,-94.39C1901.76,-94.39 1889.94,-157.28 1925.01,-167.11"/>
<polygon fill="black" stroke="black" points="1924.64,-170.59 1935,-168.39 1925.53,-163.65 1924.64,-170.59"/>
</g>
<!-- OrsoSampleFilenames&#45;&gt;OrsoMeasurement -->
<g id="edge27" class="edge">
<title>OrsoSampleFilenames:e&#45;&gt;OrsoMeasurement:w</title>
<path fill="none" stroke="black" d="M483.5,-562.39C543.36,-562.39 554.39,-602.44 608.73,-606.98"/>
<polygon fill="black" stroke="black" points="608.87,-610.49 619,-607.39 609.15,-603.49 608.87,-610.49"/>
</g>
<!-- QBins&#45;&gt;ReflectivityOverQ -->
<g id="edge47" class="edge">
<title>QBins:e&#45;&gt;ReflectivityOverQ:w</title>
<path fill="none" stroke="black" d="M1111.5,-476.39C1271.25,-476.39 1171.85,-255.87 1311,-177.39 1341.42,-160.24 1590.27,-167.05 1625,-163.39 1653.61,-160.38 1662.59,-153.28 1686.87,-151.71"/>
<polygon fill="black" stroke="black" points="1687.11,-155.2 1697,-151.39 1686.9,-148.2 1687.11,-155.2"/>
</g>
<!-- SampleRotation[SampleRun] -->
<g id="node36" class="node">
<title>SampleRotation[SampleRun]</title>
<polygon fill="none" stroke="black" points="756.5,-382.89 661.5,-382.89 661.5,-361.89 756.5,-361.89 756.5,-382.89"/>
<text text-anchor="start" x="669.5" y="-369.29" font-family="Times,serif" font-size="12.00">[SampleRun]</text>
</g>
<!-- SampleRotation[SampleRun]&#45;&gt;QBins -->
<g id="edge35" class="edge">
<title>SampleRotation[SampleRun]:e&#45;&gt;QBins:w</title>
<path fill="none" stroke="black" d="M758,-372.39C888.67,-372.39 906.41,-470.98 1031.13,-476.18"/>
<polygon fill="black" stroke="black" points="1031.43,-479.69 1041.5,-476.39 1031.57,-472.69 1031.43,-479.69"/>
</g>
<!-- WavelengthBins -->
<g id="node37" class="node">
<title>WavelengthBins</title>
<polygon fill="none" stroke="black" points="775,-559.89 643,-559.89 643,-536.89 775,-536.89 775,-559.89"/>
<text text-anchor="middle" x="709" y="-544.69" font-family="Times,serif" font-size="14.00">WavelengthBins</text>
</g>
<!-- WavelengthBins&#45;&gt;QBins -->
<g id="edge36" class="edge">
<title>WavelengthBins:e&#45;&gt;QBins:w</title>
<path fill="none" stroke="black" d="M776,-548.39C894.8,-548.39 917.97,-480.41 1031.35,-476.56"/>
<polygon fill="black" stroke="black" points="1031.56,-480.06 1041.5,-476.39 1031.44,-473.06 1031.56,-480.06"/>
</g>
<!-- RawSampleRotation[ReferenceRun]&#45;&gt;SampleRotation[ReferenceRun] -->
<g id="edge53" class="edge">
<title>RawSampleRotation[ReferenceRun]:e&#45;&gt;SampleRotation[ReferenceRun]:w</title>
<path fill="none" stroke="black" d="M450.5,-392.39C539.18,-392.39 559.32,-350.76 642.78,-347.59"/>
<polygon fill="black" stroke="black" points="643.07,-351.08 653,-347.39 642.94,-344.08 643.07,-351.08"/>
</g>
<!-- RawSampleRotation[SampleRun]&#45;&gt;SampleRotation[SampleRun] -->
<g id="edge55" class="edge">
<title>RawSampleRotation[SampleRun]:e&#45;&gt;SampleRotation[SampleRun]:w</title>
<path fill="none" stroke="black" d="M443.5,-417.39C538.32,-417.39 560.22,-375.5 649.92,-372.56"/>
<polygon fill="black" stroke="black" points="650.06,-376.06 660,-372.39 649.94,-369.06 650.06,-376.06"/>
</g>
<!-- ReducedReference -->
<g id="node40" class="node">
<title>ReducedReference</title>
<polygon fill="none" stroke="black" points="1151.5,-129.89 1001.5,-129.89 1001.5,-106.89 1151.5,-106.89 1151.5,-129.89"/>
<text text-anchor="middle" x="1076.5" y="-114.69" font-family="Times,serif" font-size="14.00">ReducedReference</text>
</g>
<!-- ReducedReference&#45;&gt;Reference -->
<g id="edge41" class="edge">
<title>ReducedReference:e&#45;&gt;Reference:w</title>
<path fill="none" stroke="black" d="M1152.5,-118.39C1234.14,-118.39 1255.18,-144.14 1331.85,-146.26"/>
<polygon fill="black" stroke="black" points="1331.95,-149.76 1342,-146.39 1332.05,-142.76 1331.95,-149.76"/>
</g>
<!-- ReducedReference&#45;&gt;Sample -->
<g id="edge49" class="edge">
<title>ReducedReference:e&#45;&gt;Sample:w</title>
<path fill="none" stroke="black" d="M1152.5,-118.39C1220.47,-118.39 1237.89,-93.97 1300.92,-91.58"/>
<polygon fill="black" stroke="black" points="1301.07,-95.08 1311,-91.39 1300.94,-88.08 1301.07,-95.08"/>
</g>
<!-- Reference&#45;&gt;ReflectivityOverQ -->
<g id="edge46" class="edge">
<title>Reference:e&#45;&gt;ReflectivityOverQ:w</title>
<path fill="none" stroke="black" d="M1594,-146.39C1636.25,-146.39 1649.19,-150.64 1686.86,-151.31"/>
<polygon fill="black" stroke="black" points="1686.97,-154.81 1697,-151.39 1687.03,-147.81 1686.97,-154.81"/>
</g>
<!-- Sample&#45;&gt;ReflectivityOverQ -->
<g id="edge45" class="edge">
<title>Sample:e&#45;&gt;ReflectivityOverQ:w</title>
<path fill="none" stroke="black" d="M1625,-91.39C1662.91,-91.39 1656.95,-141.1 1686.98,-150.03"/>
<polygon fill="black" stroke="black" points="1686.62,-153.51 1697,-151.39 1687.56,-146.58 1686.62,-153.51"/>
</g>
<!-- SampleRotationOffset[ReferenceRun] -->
<g id="node43" class="node">
<title>SampleRotationOffset[ReferenceRun]</title>
<polygon fill="none" stroke="black" points="449.5,-308.89 339.5,-308.89 339.5,-287.89 449.5,-287.89 449.5,-308.89"/>
<text text-anchor="start" x="347.5" y="-295.29" font-family="Times,serif" font-size="12.00">[ReferenceRun]</text>
</g>
<!-- SampleRotationOffset[ReferenceRun]&#45;&gt;SampleRotation[ReferenceRun] -->
<g id="edge54" class="edge">
<title>SampleRotationOffset[ReferenceRun]:e&#45;&gt;SampleRotation[ReferenceRun]:w</title>
<path fill="none" stroke="black" d="M450.5,-298.39C539.66,-298.39 559.01,-343.83 642.99,-347.2"/>
<polygon fill="black" stroke="black" points="642.93,-350.7 653,-347.39 643.07,-343.7 642.93,-350.7"/>
</g>
<!-- SampleRotationOffset[SampleRun] -->
<g id="node44" class="node">
<title>SampleRotationOffset[SampleRun]</title>
<polygon fill="none" stroke="black" points="442,-333.89 347,-333.89 347,-312.89 442,-312.89 442,-333.89"/>
<text text-anchor="start" x="355" y="-320.29" font-family="Times,serif" font-size="12.00">[SampleRun]</text>
</g>
<!-- SampleRotationOffset[SampleRun]&#45;&gt;SampleRotation[SampleRun] -->
<g id="edge56" class="edge">
<title>SampleRotationOffset[SampleRun]:e&#45;&gt;SampleRotation[SampleRun]:w</title>
<path fill="none" stroke="black" d="M443.5,-323.39C504.41,-323.39 516.45,-345.6 576,-358.39 609.39,-365.57 620.1,-371.2 649.68,-372.23"/>
<polygon fill="black" stroke="black" points="649.94,-375.73 660,-372.39 650.06,-368.73 649.94,-375.73"/>
</g>
</g>
</svg>
