<?xml version="1.0" encoding="UTF-8" standalone="no"?>
<!DOCTYPE svg PUBLIC "-//W3C//DTD SVG 1.1//EN"
 "http://www.w3.org/Graphics/SVG/1.1/DTD/svg11.dtd">
<!-- Generated by graphviz version 2.43.0 (0)
 -->
<!-- Title: %3 Pages: 1 -->
<svg width="2837pt" height="511pt"
 viewBox="0.00 0.00 2837.00 510.50" xmlns="http://www.w3.org/2000/svg" xmlns:xlink="http://www.w3.org/1999/xlink">
<g id="graph0" class="graph" transform="scale(1 1) rotate(0) translate(4 506.5)">
<title>%3</title>
<polygon fill="white" stroke="transparent" points="-4,4 -4,-506.5 2833,-506.5 2833,4 -4,4"/>
<g id="clust3" class="cluster">
<title>cluster_CoordTransformationGraph</title>
<polygon fill="#f0f0ff" stroke="#f0f0ff" points="724.5,-213.5 724.5,-309.5 948.5,-309.5 948.5,-213.5 724.5,-213.5"/>
<text text-anchor="start" x="737.5" y="-295.3" font-family="Times,serif" font-size="14.00">CoordTransformationGraph</text>
<text text-anchor="start" x="732.5" y="-283.7" font-family="Times,serif" font-size="11.00">via:</text>
<text text-anchor="start" x="753.5" y="-283.7" font-family="Times,serif" font-style="italic" font-size="11.00">coordinate_transformation_graph</text>
</g>
<g id="clust10" class="cluster">
<title>cluster_Filename</title>
<polygon fill="#f0f0ff" stroke="#f0f0ff" points="23,-131.5 23,-217.5 149,-217.5 149,-131.5 23,-131.5"/>
<text text-anchor="middle" x="86" y="-202.3" font-family="Times,serif" font-size="14.00">Filename</text>
</g>
<g id="clust7" class="cluster">
<title>cluster_DetectorLtotal</title>
<polygon fill="#f0f0ff" stroke="#f0f0ff" points="1053.5,-95.5 1053.5,-191.5 1232.5,-191.5 1232.5,-95.5 1053.5,-95.5"/>
<text text-anchor="start" x="1090.5" y="-177.3" font-family="Times,serif" font-size="14.00">DetectorLtotal</text>
<text text-anchor="start" x="1061.5" y="-165.7" font-family="Times,serif" font-size="11.00">via:</text>
<text text-anchor="start" x="1082.5" y="-165.7" font-family="Times,serif" font-style="italic" font-size="11.00">detector_ltotal_from_raw</text>
</g>
<g id="clust8" class="cluster">
<title>cluster_DetectorRotation</title>
<polygon fill="#f0f0ff" stroke="#f0f0ff" points="459.5,-78.5 459.5,-174.5 623.5,-174.5 623.5,-78.5 459.5,-78.5"/>
<text text-anchor="start" x="479.5" y="-160.3" font-family="Times,serif" font-size="14.00">DetectorRotation</text>
<text text-anchor="start" x="467.5" y="-148.7" font-family="Times,serif" font-size="11.00">via:</text>
<text text-anchor="start" x="488.5" y="-148.7" font-family="Times,serif" font-style="italic" font-size="11.00">load_detector_rotation</text>
</g>
<g id="clust12" class="cluster">
<title>cluster_Position</title>
<polygon fill="#f0f0ff" stroke="#f0f0ff" points="444,-318.5 444,-494.5 639,-494.5 639,-318.5 444,-318.5"/>
<text text-anchor="middle" x="541.5" y="-479.3" font-family="Times,serif" font-size="14.00">Position</text>
</g>
<g id="clust13" class="cluster">
<title>cluster_ProtonCurrent</title>
<polygon fill="#f0f0ff" stroke="#f0f0ff" points="1349.5,-135.5 1349.5,-221.5 1475.5,-221.5 1475.5,-135.5 1349.5,-135.5"/>
<text text-anchor="middle" x="1412.5" y="-206.3" font-family="Times,serif" font-size="14.00">ProtonCurrent</text>
</g>
<g id="clust16" class="cluster">
<title>cluster_RawDetector</title>
<polygon fill="#f0f0ff" stroke="#f0f0ff" points="229,-113.5 229,-209.5 388,-209.5 388,-113.5 229,-113.5"/>
<text text-anchor="start" x="261.5" y="-195.3" font-family="Times,serif" font-size="14.00">RawDetector</text>
<text text-anchor="start" x="237" y="-183.7" font-family="Times,serif" font-size="11.00">via:</text>
<text text-anchor="start" x="258" y="-183.7" font-family="Times,serif" font-style="italic" font-size="11.00">load_mcstas_provider</text>
</g>
<g id="clust18" class="cluster">
<title>cluster_ReducibleData</title>
<polygon fill="#f0f0ff" stroke="#f0f0ff" points="1574,-205.5 1574,-301.5 1846,-301.5 1846,-205.5 1574,-205.5"/>
<text text-anchor="start" x="1657.5" y="-287.3" font-family="Times,serif" font-size="14.00">ReducibleData</text>
<text text-anchor="start" x="1582" y="-275.7" font-family="Times,serif" font-size="11.00">via:</text>
<text text-anchor="start" x="1603" y="-275.7" font-family="Times,serif" font-style="italic" font-size="11.00">add_coords_masks_and_apply_corrections</text>
</g>
<g id="clust22" class="cluster">
<title>cluster_SampleRotationOffset</title>
<polygon fill="#f0f0ff" stroke="#f0f0ff" points="0,-37.5 0,-123.5 173,-123.5 173,-37.5 0,-37.5"/>
<text text-anchor="middle" x="86.5" y="-108.3" font-family="Times,serif" font-size="14.00">SampleRotationOffset</text>
</g>
<g id="clust23" class="cluster">
<title>cluster_SampleRotation</title>
<polygon fill="#f0f0ff" stroke="#f0f0ff" points="462.5,-214.5 462.5,-310.5 620.5,-310.5 620.5,-214.5 462.5,-214.5"/>
<text text-anchor="start" x="484" y="-296.3" font-family="Times,serif" font-size="14.00">SampleRotation</text>
<text text-anchor="start" x="470.5" y="-284.7" font-family="Times,serif" font-size="11.00">via:</text>
<text text-anchor="start" x="491.5" y="-284.7" font-family="Times,serif" font-style="italic" font-size="11.00">load_sample_rotation</text>
</g>
<g id="clust26" class="cluster">
<title>cluster_TofDetector</title>
<polygon fill="#f0f0ff" stroke="#f0f0ff" points="1314.5,-31.5 1314.5,-127.5 1510.5,-127.5 1510.5,-31.5 1314.5,-31.5"/>
<text text-anchor="start" x="1370" y="-113.3" font-family="Times,serif" font-size="14.00">TofDetector</text>
<text text-anchor="start" x="1322.5" y="-101.7" font-family="Times,serif" font-size="11.00">via:</text>
<text text-anchor="start" x="1343.5" y="-101.7" font-family="Times,serif" font-style="italic" font-size="11.00">detector_time_of_flight_data</text>
</g>
<!-- Alpha -->
<g id="node1" class="node">
<title>Alpha</title>
<polygon fill="none" stroke="black" points="1738.5,-160 1681.5,-160 1681.5,-137 1738.5,-137 1738.5,-160"/>
<text text-anchor="middle" x="1710" y="-144.8" font-family="Times,serif" font-size="14.00">Alpha</text>
</g>
<!-- ReducedReference -->
<g id="node31" class="node">
<title>ReducedReference</title>
<polygon fill="none" stroke="black" points="2133.5,-209 1983.5,-209 1983.5,-176 2133.5,-176 2133.5,-209"/>
<text text-anchor="start" x="1991.5" y="-194.8" font-family="Times,serif" font-size="14.00">ReducedReference</text>
<text text-anchor="start" x="1999" y="-183.2" font-family="Times,serif" font-size="11.00">via:</text>
<text text-anchor="start" x="2020" y="-183.2" font-family="Times,serif" font-style="italic" font-size="11.00">reduce_reference</text>
</g>
<!-- Alpha&#45;&gt;ReducedReference -->
<g id="edge28" class="edge">
<title>Alpha:e&#45;&gt;ReducedReference:w</title>
<path fill="none" stroke="black" d="M1740,-148.5C1787.64,-148.5 1799.09,-156.15 1846,-164.5 1903.52,-174.73 1918.88,-190.58 1972.42,-192.34"/>
<polygon fill="black" stroke="black" points="1972.45,-195.84 1982.5,-192.5 1972.56,-188.84 1972.45,-195.84"/>
</g>
<!-- Sample -->
<g id="node39" class="node">
<title>Sample</title>
<polygon fill="none" stroke="black" points="2593,-196 2279,-196 2279,-163 2593,-163 2593,-196"/>
<text text-anchor="start" x="2409" y="-181.8" font-family="Times,serif" font-size="14.00">Sample</text>
<text text-anchor="start" x="2287" y="-170.2" font-family="Times,serif" font-size="11.00">via:</text>
<text text-anchor="start" x="2308" y="-170.2" font-family="Times,serif" font-style="italic" font-size="11.00">mask_events_where_supermirror_does_not_cover</text>
</g>
<!-- Alpha&#45;&gt;Sample -->
<g id="edge51" class="edge">
<title>Alpha:e&#45;&gt;Sample:w</title>
<path fill="none" stroke="black" d="M1740,-148.5C1947.81,-148.5 1999.86,-154.91 2207,-171.5 2235.46,-173.78 2244.74,-178.31 2268.93,-179.3"/>
<polygon fill="black" stroke="black" points="2268.93,-182.8 2279,-179.5 2269.07,-175.81 2268.93,-182.8"/>
</g>
<!-- BeamDivergenceLimits -->
<g id="node2" class="node">
<title>BeamDivergenceLimits</title>
<polygon fill="none" stroke="black" points="1504,-273 1321,-273 1321,-250 1504,-250 1504,-273"/>
<text text-anchor="middle" x="1412.5" y="-257.8" font-family="Times,serif" font-size="14.00">BeamDivergenceLimits</text>
</g>
<!-- ReducibleData[ReferenceRun] -->
<g id="node30" class="node">
<title>ReducibleData[ReferenceRun]</title>
<polygon fill="none" stroke="black" points="1765,-260 1655,-260 1655,-239 1765,-239 1765,-260"/>
<text text-anchor="start" x="1663" y="-246.4" font-family="Times,serif" font-size="12.00">[ReferenceRun]</text>
</g>
<!-- BeamDivergenceLimits&#45;&gt;ReducibleData[ReferenceRun] -->
<g id="edge32" class="edge">
<title>BeamDivergenceLimits:e&#45;&gt;ReducibleData[ReferenceRun]:w</title>
<path fill="none" stroke="black" stroke-width="2" d="M1505.5,-261.5C1530.13,-261.5 1547.83,-259.84 1563.74,-257.75"/>
<polygon fill="black" stroke="black" stroke-width="2" points="1564.58,-261.17 1574,-256.33 1563.62,-254.24 1564.58,-261.17"/>
</g>
<!-- Position[NXsource, ReferenceRun] -->
<g id="node3" class="node">
<title>Position[NXsource, ReferenceRun]</title>
<polygon fill="none" stroke="black" points="630,-463 453,-463 453,-432 630,-432 630,-463"/>
<text text-anchor="start" x="461" y="-450.4" font-family="Times,serif" font-size="12.00">[NXsource, ReferenceRun]</text>
<text text-anchor="start" x="472" y="-439.2" font-family="Times,serif" font-size="11.00">via:</text>
<text text-anchor="start" x="493" y="-439.2" font-family="Times,serif" font-style="italic" font-size="11.00">load_source_position</text>
</g>
<!-- CoordTransformationGraph[ReferenceRun] -->
<g id="node4" class="node">
<title>CoordTransformationGraph[ReferenceRun]</title>
<polygon fill="none" stroke="black" points="891.5,-268 781.5,-268 781.5,-247 891.5,-247 891.5,-268"/>
<text text-anchor="start" x="789.5" y="-254.4" font-family="Times,serif" font-size="12.00">[ReferenceRun]</text>
</g>
<!-- Position[NXsource, ReferenceRun]&#45;&gt;CoordTransformationGraph[ReferenceRun] -->
<g id="edge1" class="edge">
<title>Position[NXsource, ReferenceRun]:e&#45;&gt;CoordTransformationGraph[ReferenceRun]:w</title>
<path fill="none" stroke="black" d="M630.5,-447.5C734.52,-447.5 677.05,-269.91 770.34,-258.11"/>
<polygon fill="black" stroke="black" points="770.73,-261.6 780.5,-257.5 770.31,-254.61 770.73,-261.6"/>
</g>
<!-- DetectorLtotal[ReferenceRun] -->
<g id="node17" class="node">
<title>DetectorLtotal[ReferenceRun]</title>
<polygon fill="none" stroke="black" points="1197.5,-150 1087.5,-150 1087.5,-129 1197.5,-129 1197.5,-150"/>
<text text-anchor="start" x="1095.5" y="-136.4" font-family="Times,serif" font-size="12.00">[ReferenceRun]</text>
</g>
<!-- CoordTransformationGraph[ReferenceRun]&#45;&gt;DetectorLtotal[ReferenceRun] -->
<g id="edge11" class="edge">
<title>CoordTransformationGraph[ReferenceRun]:e&#45;&gt;DetectorLtotal[ReferenceRun]:w</title>
<path fill="none" stroke="black" d="M892.5,-257.5C927.5,-257.5 938.54,-258.84 970,-243.5 1029.09,-214.68 1018.49,-147.14 1076.2,-140.1"/>
<polygon fill="black" stroke="black" points="1076.72,-143.57 1086.5,-139.5 1076.31,-136.58 1076.72,-143.57"/>
</g>
<!-- CoordTransformationGraph[ReferenceRun]&#45;&gt;ReducibleData[ReferenceRun] -->
<g id="edge35" class="edge">
<title>CoordTransformationGraph[ReferenceRun]:e&#45;&gt;ReducibleData[ReferenceRun]:w</title>
<path fill="none" stroke="black" d="M892.5,-257.5C1080.09,-257.5 1126.92,-251.28 1314.5,-249.5 1461.85,-248.1 1501.28,-249.43 1643.57,-249.5"/>
<polygon fill="black" stroke="black" points="1644,-253 1654,-249.5 1644,-246 1644,-253"/>
</g>
<!-- Reference -->
<g id="node38" class="node">
<title>Reference</title>
<polygon fill="none" stroke="black" points="2508.5,-243 2363.5,-243 2363.5,-210 2508.5,-210 2508.5,-243"/>
<text text-anchor="start" x="2399.5" y="-228.8" font-family="Times,serif" font-size="14.00">Reference</text>
<text text-anchor="start" x="2371.5" y="-217.2" font-family="Times,serif" font-size="11.00">via:</text>
<text text-anchor="start" x="2392.5" y="-217.2" font-family="Times,serif" font-style="italic" font-size="11.00">evaluate_reference</text>
</g>
<!-- CoordTransformationGraph[ReferenceRun]&#45;&gt;Reference -->
<g id="edge42" class="edge">
<title>CoordTransformationGraph[ReferenceRun]:e&#45;&gt;Reference:w</title>
<path fill="none" stroke="black" d="M892.5,-257.5C1127.75,-257.5 1176.25,-361.5 1411.5,-361.5 1411.5,-361.5 1411.5,-361.5 1711,-361.5 2003.03,-361.5 2065.07,-229.65 2351.71,-226.56"/>
<polygon fill="black" stroke="black" points="2352.02,-230.05 2362,-226.5 2351.98,-223.05 2352.02,-230.05"/>
</g>
<!-- Position[NXsample, ReferenceRun] -->
<g id="node5" class="node">
<title>Position[NXsample, ReferenceRun]</title>
<polygon fill="none" stroke="black" points="631,-428 452,-428 452,-397 631,-397 631,-428"/>
<text text-anchor="start" x="460" y="-415.4" font-family="Times,serif" font-size="12.00">[NXsample, ReferenceRun]</text>
<text text-anchor="start" x="470.5" y="-404.2" font-family="Times,serif" font-size="11.00">via:</text>
<text text-anchor="start" x="491.5" y="-404.2" font-family="Times,serif" font-style="italic" font-size="11.00">load_sample_position</text>
</g>
<!-- Position[NXsample, ReferenceRun]&#45;&gt;CoordTransformationGraph[ReferenceRun] -->
<g id="edge2" class="edge">
<title>Position[NXsample, ReferenceRun]:e&#45;&gt;CoordTransformationGraph[ReferenceRun]:w</title>
<path fill="none" stroke="black" d="M632.5,-412.5C724.21,-412.5 688.22,-268.79 770.45,-258.12"/>
<polygon fill="black" stroke="black" points="770.74,-261.61 780.5,-257.5 770.3,-254.63 770.74,-261.61"/>
</g>
<!-- SampleRotation[ReferenceRun] -->
<g id="node6" class="node">
<title>SampleRotation[ReferenceRun]</title>
<polygon fill="none" stroke="black" points="596.5,-269 486.5,-269 486.5,-248 596.5,-248 596.5,-269"/>
<text text-anchor="start" x="494.5" y="-255.4" font-family="Times,serif" font-size="12.00">[ReferenceRun]</text>
</g>
<!-- SampleRotation[ReferenceRun]&#45;&gt;CoordTransformationGraph[ReferenceRun] -->
<g id="edge3" class="edge">
<title>SampleRotation[ReferenceRun]:e&#45;&gt;CoordTransformationGraph[ReferenceRun]:w</title>
<path fill="none" stroke="black" d="M597.5,-258.5C675.34,-258.5 697.31,-257.58 770.34,-257.51"/>
<polygon fill="black" stroke="black" points="770.5,-261.01 780.5,-257.5 770.5,-254.01 770.5,-261.01"/>
</g>
<!-- DetectorRotation[ReferenceRun] -->
<g id="node7" class="node">
<title>DetectorRotation[ReferenceRun]</title>
<polygon fill="none" stroke="black" points="596.5,-133 486.5,-133 486.5,-112 596.5,-112 596.5,-133"/>
<text text-anchor="start" x="494.5" y="-119.4" font-family="Times,serif" font-size="12.00">[ReferenceRun]</text>
</g>
<!-- DetectorRotation[ReferenceRun]&#45;&gt;CoordTransformationGraph[ReferenceRun] -->
<g id="edge4" class="edge">
<title>DetectorRotation[ReferenceRun]:e&#45;&gt;CoordTransformationGraph[ReferenceRun]:w</title>
<path fill="none" stroke="black" d="M597.5,-122.5C668.85,-122.5 640.95,-208.28 703,-243.5 730.23,-258.95 742.75,-257.96 770.14,-257.58"/>
<polygon fill="black" stroke="black" points="770.53,-261.08 780.5,-257.5 770.47,-254.08 770.53,-261.08"/>
</g>
<!-- DetectorBankSizes -->
<g id="node8" class="node">
<title>DetectorBankSizes</title>
<polygon fill="none" stroke="black" points="617.5,-206 465.5,-206 465.5,-183 617.5,-183 617.5,-206"/>
<text text-anchor="middle" x="541.5" y="-190.8" font-family="Times,serif" font-size="14.00">DetectorBankSizes</text>
</g>
<!-- DetectorBankSizes&#45;&gt;CoordTransformationGraph[ReferenceRun] -->
<g id="edge5" class="edge">
<title>DetectorBankSizes:e&#45;&gt;CoordTransformationGraph[ReferenceRun]:w</title>
<path fill="none" stroke="black" stroke-width="2" d="M618.5,-194.5C661.91,-194.5 662.25,-228.53 703,-243.5 707.34,-245.1 711.28,-246.51 714.92,-247.77"/>
<polygon fill="black" stroke="black" stroke-width="2" points="713.91,-251.13 724.5,-250.92 716.1,-244.47 713.91,-251.13"/>
</g>
<!-- Position[NXsource, SampleRun] -->
<g id="node9" class="node">
<title>Position[NXsource, SampleRun]</title>
<polygon fill="none" stroke="black" points="622,-393 461,-393 461,-362 622,-362 622,-393"/>
<text text-anchor="start" x="469" y="-380.4" font-family="Times,serif" font-size="12.00">[NXsource, SampleRun]</text>
<text text-anchor="start" x="472" y="-369.2" font-family="Times,serif" font-size="11.00">via:</text>
<text text-anchor="start" x="493" y="-369.2" font-family="Times,serif" font-style="italic" font-size="11.00">load_source_position</text>
</g>
<!-- CoordTransformationGraph[SampleRun] -->
<g id="node10" class="node">
<title>CoordTransformationGraph[SampleRun]</title>
<polygon fill="none" stroke="black" points="884,-243 789,-243 789,-222 884,-222 884,-243"/>
<text text-anchor="start" x="797" y="-229.4" font-family="Times,serif" font-size="12.00">[SampleRun]</text>
</g>
<!-- Position[NXsource, SampleRun]&#45;&gt;CoordTransformationGraph[SampleRun] -->
<g id="edge6" class="edge">
<title>Position[NXsource, SampleRun]:e&#45;&gt;CoordTransformationGraph[SampleRun]:w</title>
<path fill="none" stroke="black" d="M623.5,-377.5C691.23,-377.5 647.56,-286.39 703,-247.5 731.3,-227.65 746.38,-231.46 777.35,-232.35"/>
<polygon fill="black" stroke="black" points="777.45,-235.85 787.5,-232.5 777.55,-228.85 777.45,-235.85"/>
</g>
<!-- DetectorLtotal[SampleRun] -->
<g id="node19" class="node">
<title>DetectorLtotal[SampleRun]</title>
<polygon fill="none" stroke="black" points="1190,-125 1095,-125 1095,-104 1190,-104 1190,-125"/>
<text text-anchor="start" x="1103" y="-111.4" font-family="Times,serif" font-size="12.00">[SampleRun]</text>
</g>
<!-- CoordTransformationGraph[SampleRun]&#45;&gt;DetectorLtotal[SampleRun] -->
<g id="edge13" class="edge">
<title>CoordTransformationGraph[SampleRun]:e&#45;&gt;DetectorLtotal[SampleRun]:w</title>
<path fill="none" stroke="black" d="M885.5,-232.5C988.26,-232.5 987.4,-122.21 1083.27,-114.88"/>
<polygon fill="black" stroke="black" points="1083.64,-118.37 1093.5,-114.5 1083.38,-111.38 1083.64,-118.37"/>
</g>
<!-- ReducibleData[SampleRun] -->
<g id="node37" class="node">
<title>ReducibleData[SampleRun]</title>
<polygon fill="none" stroke="black" points="1757.5,-235 1662.5,-235 1662.5,-214 1757.5,-214 1757.5,-235"/>
<text text-anchor="start" x="1670.5" y="-221.4" font-family="Times,serif" font-size="12.00">[SampleRun]</text>
</g>
<!-- CoordTransformationGraph[SampleRun]&#45;&gt;ReducibleData[SampleRun] -->
<g id="edge39" class="edge">
<title>CoordTransformationGraph[SampleRun]:e&#45;&gt;ReducibleData[SampleRun]:w</title>
<path fill="none" stroke="black" d="M885.5,-232.5C1226.82,-232.5 1314.61,-224.66 1650.98,-224.5"/>
<polygon fill="black" stroke="black" points="1651,-228 1661,-224.5 1651,-221 1651,-228"/>
</g>
<!-- Position[NXsample, SampleRun] -->
<g id="node11" class="node">
<title>Position[NXsample, SampleRun]</title>
<polygon fill="none" stroke="black" points="623.5,-358 459.5,-358 459.5,-327 623.5,-327 623.5,-358"/>
<text text-anchor="start" x="467.5" y="-345.4" font-family="Times,serif" font-size="12.00">[NXsample, SampleRun]</text>
<text text-anchor="start" x="470.5" y="-334.2" font-family="Times,serif" font-size="11.00">via:</text>
<text text-anchor="start" x="491.5" y="-334.2" font-family="Times,serif" font-style="italic" font-size="11.00">load_sample_position</text>
</g>
<!-- Position[NXsample, SampleRun]&#45;&gt;CoordTransformationGraph[SampleRun] -->
<g id="edge7" class="edge">
<title>Position[NXsample, SampleRun]:e&#45;&gt;CoordTransformationGraph[SampleRun]:w</title>
<path fill="none" stroke="black" d="M624.5,-342.5C679.27,-342.5 655.69,-275.09 703,-247.5 732.86,-230.09 746.67,-231.92 777.39,-232.41"/>
<polygon fill="black" stroke="black" points="777.47,-235.91 787.5,-232.5 777.53,-228.91 777.47,-235.91"/>
</g>
<!-- SampleRotation[SampleRun] -->
<g id="node12" class="node">
<title>SampleRotation[SampleRun]</title>
<polygon fill="none" stroke="black" points="589,-244 494,-244 494,-223 589,-223 589,-244"/>
<text text-anchor="start" x="502" y="-230.4" font-family="Times,serif" font-size="12.00">[SampleRun]</text>
</g>
<!-- SampleRotation[SampleRun]&#45;&gt;CoordTransformationGraph[SampleRun] -->
<g id="edge8" class="edge">
<title>SampleRotation[SampleRun]:e&#45;&gt;CoordTransformationGraph[SampleRun]:w</title>
<path fill="none" stroke="black" d="M590.5,-233.5C674.47,-233.5 698.04,-232.58 777.05,-232.5"/>
<polygon fill="black" stroke="black" points="777.5,-236 787.5,-232.5 777.5,-229 777.5,-236"/>
</g>
<!-- DetectorRotation[SampleRun] -->
<g id="node13" class="node">
<title>DetectorRotation[SampleRun]</title>
<polygon fill="none" stroke="black" points="589,-108 494,-108 494,-87 589,-87 589,-108"/>
<text text-anchor="start" x="502" y="-94.4" font-family="Times,serif" font-size="12.00">[SampleRun]</text>
</g>
<!-- DetectorRotation[SampleRun]&#45;&gt;CoordTransformationGraph[SampleRun] -->
<g id="edge9" class="edge">
<title>DetectorRotation[SampleRun]:e&#45;&gt;CoordTransformationGraph[SampleRun]:w</title>
<path fill="none" stroke="black" d="M590.5,-97.5C693.12,-97.5 682.24,-223.68 777.32,-232.06"/>
<polygon fill="black" stroke="black" points="777.36,-235.57 787.5,-232.5 777.66,-228.57 777.36,-235.57"/>
</g>
<!-- CorrectionsToApply -->
<g id="node14" class="node">
<title>CorrectionsToApply</title>
<polygon fill="none" stroke="black" points="1491,-354 1334,-354 1334,-331 1491,-331 1491,-354"/>
<text text-anchor="middle" x="1412.5" y="-338.8" font-family="Times,serif" font-size="14.00">CorrectionsToApply</text>
</g>
<!-- CorrectionsToApply&#45;&gt;ReducibleData[ReferenceRun] -->
<g id="edge36" class="edge">
<title>CorrectionsToApply:e&#45;&gt;ReducibleData[ReferenceRun]:w</title>
<path fill="none" stroke="black" stroke-width="2" d="M1492.5,-342.5C1529.85,-342.5 1549.52,-323.58 1567.45,-302.81"/>
<polygon fill="black" stroke="black" stroke-width="2" points="1570.19,-304.99 1574,-295.11 1564.86,-300.46 1570.19,-304.99"/>
</g>
<!-- CriticalEdge -->
<g id="node15" class="node">
<title>CriticalEdge</title>
<polygon fill="none" stroke="black" points="1763,-133 1657,-133 1657,-110 1763,-110 1763,-133"/>
<text text-anchor="middle" x="1710" y="-117.8" font-family="Times,serif" font-size="14.00">CriticalEdge</text>
</g>
<!-- CriticalEdge&#45;&gt;ReducedReference -->
<g id="edge26" class="edge">
<title>CriticalEdge:e&#45;&gt;ReducedReference:w</title>
<path fill="none" stroke="black" d="M1764,-121.5C1801.13,-121.5 1810.4,-126.96 1846,-137.5 1905.29,-155.05 1916.01,-188.57 1972.26,-192.18"/>
<polygon fill="black" stroke="black" points="1972.4,-195.69 1982.5,-192.5 1972.61,-188.69 1972.4,-195.69"/>
</g>
<!-- CriticalEdge&#45;&gt;Sample -->
<g id="edge49" class="edge">
<title>CriticalEdge:e&#45;&gt;Sample:w</title>
<path fill="none" stroke="black" d="M1764,-121.5C1961.28,-121.5 2014.87,-104.72 2207,-149.5 2237.2,-156.54 2243.24,-174.99 2269,-178.8"/>
<polygon fill="black" stroke="black" points="2268.78,-182.3 2279,-179.5 2269.27,-175.31 2268.78,-182.3"/>
</g>
<!-- RawDetector[ReferenceRun] -->
<g id="node16" class="node">
<title>RawDetector[ReferenceRun]</title>
<polygon fill="none" stroke="black" points="363,-168 253,-168 253,-147 363,-147 363,-168"/>
<text text-anchor="start" x="261" y="-154.4" font-family="Times,serif" font-size="12.00">[ReferenceRun]</text>
</g>
<!-- RawDetector[ReferenceRun]&#45;&gt;Position[NXsource, ReferenceRun] -->
<g id="edge18" class="edge">
<title>RawDetector[ReferenceRun]:e&#45;&gt;Position[NXsource, ReferenceRun]:w</title>
<path fill="none" stroke="black" d="M364,-157.5C495.2,-157.5 327.07,-432.41 442.49,-446.91"/>
<polygon fill="black" stroke="black" points="442.31,-450.4 452.5,-447.5 442.72,-443.41 442.31,-450.4"/>
</g>
<!-- RawDetector[ReferenceRun]&#45;&gt;Position[NXsample, ReferenceRun] -->
<g id="edge16" class="edge">
<title>RawDetector[ReferenceRun]:e&#45;&gt;Position[NXsample, ReferenceRun]:w</title>
<path fill="none" stroke="black" d="M364,-157.5C480.05,-157.5 339.83,-397.29 440.37,-411.81"/>
<polygon fill="black" stroke="black" points="440.29,-415.32 450.5,-412.5 440.76,-408.33 440.29,-415.32"/>
</g>
<!-- RawDetector[ReferenceRun]&#45;&gt;SampleRotation[ReferenceRun] -->
<g id="edge52" class="edge">
<title>RawDetector[ReferenceRun]:e&#45;&gt;SampleRotation[ReferenceRun]:w</title>
<path fill="none" stroke="black" d="M364,-157.5C416.53,-157.5 399.96,-215.87 444,-244.5 457.13,-253.04 463.4,-256.9 475.49,-258.08"/>
<polygon fill="black" stroke="black" points="475.36,-261.58 485.5,-258.5 475.65,-254.59 475.36,-261.58"/>
</g>
<!-- RawDetector[ReferenceRun]&#45;&gt;DetectorRotation[ReferenceRun] -->
<g id="edge14" class="edge">
<title>RawDetector[ReferenceRun]:e&#45;&gt;DetectorRotation[ReferenceRun]:w</title>
<path fill="none" stroke="black" d="M364,-157.5C416.68,-157.5 427.98,-126.74 475.49,-122.89"/>
<polygon fill="black" stroke="black" points="475.65,-126.39 485.5,-122.5 475.37,-119.4 475.65,-126.39"/>
</g>
<!-- RawDetector[ReferenceRun]&#45;&gt;DetectorLtotal[ReferenceRun] -->
<g id="edge10" class="edge">
<title>RawDetector[ReferenceRun]:e&#45;&gt;DetectorLtotal[ReferenceRun]:w</title>
<path fill="none" stroke="black" d="M364,-157.5C376.35,-157.5 378.54,-151.43 388,-143.5 417.48,-118.79 409.09,-93.66 444,-77.5 483.32,-59.29 595.77,-74.52 639,-77.5 835.89,-91.07 884.08,-137.86 1076.34,-139.46"/>
<polygon fill="black" stroke="black" points="1076.49,-142.96 1086.5,-139.5 1076.51,-135.96 1076.49,-142.96"/>
</g>
<!-- TofDetector[ReferenceRun] -->
<g id="node33" class="node">
<title>TofDetector[ReferenceRun]</title>
<polygon fill="none" stroke="black" points="1467.5,-86 1357.5,-86 1357.5,-65 1467.5,-65 1467.5,-86"/>
<text text-anchor="start" x="1365.5" y="-72.4" font-family="Times,serif" font-size="12.00">[ReferenceRun]</text>
</g>
<!-- RawDetector[ReferenceRun]&#45;&gt;TofDetector[ReferenceRun] -->
<g id="edge55" class="edge">
<title>RawDetector[ReferenceRun]:e&#45;&gt;TofDetector[ReferenceRun]:w</title>
<path fill="none" stroke="black" d="M364,-157.5C376.35,-157.5 378.81,-151.75 388,-143.5 419.21,-115.46 408.15,-89.3 444,-67.5 543.58,-6.94 586.81,-35.64 703,-26.5 762.82,-21.79 1184.55,-12.96 1243,-26.5 1293.08,-38.1 1300.71,-70.88 1346.47,-75.06"/>
<polygon fill="black" stroke="black" points="1346.36,-78.56 1356.5,-75.5 1346.66,-71.57 1346.36,-78.56"/>
</g>
<!-- DetectorLtotal[ReferenceRun]&#45;&gt;TofDetector[ReferenceRun] -->
<g id="edge57" class="edge">
<title>DetectorLtotal[ReferenceRun]:e&#45;&gt;TofDetector[ReferenceRun]:w</title>
<path fill="none" stroke="black" d="M1198.5,-139.5C1270.71,-139.5 1279.98,-81.36 1346.29,-75.91"/>
<polygon fill="black" stroke="black" points="1346.65,-79.4 1356.5,-75.5 1346.37,-72.4 1346.65,-79.4"/>
</g>
<!-- RawDetector[SampleRun] -->
<g id="node18" class="node">
<title>RawDetector[SampleRun]</title>
<polygon fill="none" stroke="black" points="355.5,-143 260.5,-143 260.5,-122 355.5,-122 355.5,-143"/>
<text text-anchor="start" x="268.5" y="-129.4" font-family="Times,serif" font-size="12.00">[SampleRun]</text>
</g>
<!-- RawDetector[SampleRun]&#45;&gt;Position[NXsource, SampleRun] -->
<g id="edge19" class="edge">
<title>RawDetector[SampleRun]:e&#45;&gt;Position[NXsource, SampleRun]:w</title>
<path fill="none" stroke="black" d="M357,-132.5C471.46,-132.5 349.32,-362.89 449.46,-376.84"/>
<polygon fill="black" stroke="black" points="449.29,-380.34 459.5,-377.5 449.75,-373.35 449.29,-380.34"/>
</g>
<!-- RawDetector[SampleRun]&#45;&gt;Position[NXsample, SampleRun] -->
<g id="edge17" class="edge">
<title>RawDetector[SampleRun]:e&#45;&gt;Position[NXsample, SampleRun]:w</title>
<path fill="none" stroke="black" d="M357,-132.5C457.02,-132.5 362.02,-327.99 448.33,-341.74"/>
<polygon fill="black" stroke="black" points="448.27,-345.24 458.5,-342.5 448.79,-338.26 448.27,-345.24"/>
</g>
<!-- RawDetector[SampleRun]&#45;&gt;SampleRotation[SampleRun] -->
<g id="edge53" class="edge">
<title>RawDetector[SampleRun]:e&#45;&gt;SampleRotation[SampleRun]:w</title>
<path fill="none" stroke="black" d="M357,-132.5C428.59,-132.5 418.57,-224.25 482.51,-232.86"/>
<polygon fill="black" stroke="black" points="482.3,-236.35 492.5,-233.5 482.75,-229.36 482.3,-236.35"/>
</g>
<!-- RawDetector[SampleRun]&#45;&gt;DetectorRotation[SampleRun] -->
<g id="edge15" class="edge">
<title>RawDetector[SampleRun]:e&#45;&gt;DetectorRotation[SampleRun]:w</title>
<path fill="none" stroke="black" d="M357,-132.5C415.68,-132.5 428.88,-101.35 482.4,-97.82"/>
<polygon fill="black" stroke="black" points="482.62,-101.32 492.5,-97.5 482.39,-94.32 482.62,-101.32"/>
</g>
<!-- RawDetector[SampleRun]&#45;&gt;DetectorLtotal[SampleRun] -->
<g id="edge12" class="edge">
<title>RawDetector[SampleRun]:e&#45;&gt;DetectorLtotal[SampleRun]:w</title>
<path fill="none" stroke="black" d="M357,-132.5C405.27,-132.5 398.2,-82.72 444,-67.5 503.27,-47.8 906.61,-72.96 970,-82.5 1022.57,-90.41 1035.28,-111.61 1083.38,-114.23"/>
<polygon fill="black" stroke="black" points="1083.41,-117.74 1093.5,-114.5 1083.6,-110.74 1083.41,-117.74"/>
</g>
<!-- TofDetector[SampleRun] -->
<g id="node36" class="node">
<title>TofDetector[SampleRun]</title>
<polygon fill="none" stroke="black" points="1460,-61 1365,-61 1365,-40 1460,-40 1460,-61"/>
<text text-anchor="start" x="1373" y="-47.4" font-family="Times,serif" font-size="12.00">[SampleRun]</text>
</g>
<!-- RawDetector[SampleRun]&#45;&gt;TofDetector[SampleRun] -->
<g id="edge59" class="edge">
<title>RawDetector[SampleRun]:e&#45;&gt;TofDetector[SampleRun]:w</title>
<path fill="none" stroke="black" d="M357,-132.5C417.95,-132.5 389.26,-53.3 444,-26.5 547.42,24.13 587.86,-21.23 703,-19.5 942.97,-15.9 1005.02,12.56 1243,-18.5 1294.4,-25.21 1306.59,-47.37 1353.33,-50.2"/>
<polygon fill="black" stroke="black" points="1353.4,-53.71 1363.5,-50.5 1353.61,-46.71 1353.4,-53.71"/>
</g>
<!-- DetectorLtotal[SampleRun]&#45;&gt;TofDetector[SampleRun] -->
<g id="edge60" class="edge">
<title>DetectorLtotal[SampleRun]:e&#45;&gt;TofDetector[SampleRun]:w</title>
<path fill="none" stroke="black" d="M1191.5,-114.5C1269.56,-114.5 1281.04,-55.88 1353.38,-50.84"/>
<polygon fill="black" stroke="black" points="1353.62,-54.34 1363.5,-50.5 1353.39,-47.34 1353.62,-54.34"/>
</g>
<!-- DetectorSpatialResolution[SampleRun] -->
<g id="node20" class="node">
<title>DetectorSpatialResolution[SampleRun]</title>
<polygon fill="none" stroke="black" points="2207,-392 1910,-392 1910,-369 2207,-369 2207,-392"/>
<text text-anchor="middle" x="2058.5" y="-376.8" font-family="Times,serif" font-size="14.00">DetectorSpatialResolution[SampleRun]</text>
</g>
<!-- DetectorSpatialResolution[SampleRun]&#45;&gt;Reference -->
<g id="edge43" class="edge">
<title>DetectorSpatialResolution[SampleRun]:e&#45;&gt;Reference:w</title>
<path fill="none" stroke="black" d="M2207,-380.5C2274.22,-380.5 2225.95,-288.78 2279,-247.5 2306.22,-226.32 2321.02,-226.28 2351.88,-226.46"/>
<polygon fill="black" stroke="black" points="2351.99,-229.96 2362,-226.5 2352.01,-222.96 2351.99,-229.96"/>
</g>
<!-- Filename[ReferenceRun] -->
<g id="node21" class="node">
<title>Filename[ReferenceRun]</title>
<polygon fill="none" stroke="black" points="141,-186 31,-186 31,-165 141,-165 141,-186"/>
<text text-anchor="start" x="39" y="-172.4" font-family="Times,serif" font-size="12.00">[ReferenceRun]</text>
</g>
<!-- Filename[ReferenceRun]&#45;&gt;RawDetector[ReferenceRun] -->
<g id="edge20" class="edge">
<title>Filename[ReferenceRun]:e&#45;&gt;RawDetector[ReferenceRun]:w</title>
<path fill="none" stroke="black" d="M142,-175.5C187.96,-175.5 200.68,-160.01 241.84,-157.77"/>
<polygon fill="black" stroke="black" points="242.1,-161.26 252,-157.5 241.91,-154.27 242.1,-161.26"/>
</g>
<!-- Filename[SampleRun] -->
<g id="node22" class="node">
<title>Filename[SampleRun]</title>
<polygon fill="none" stroke="black" points="133.5,-161 38.5,-161 38.5,-140 133.5,-140 133.5,-161"/>
<text text-anchor="start" x="46.5" y="-147.4" font-family="Times,serif" font-size="12.00">[SampleRun]</text>
</g>
<!-- Filename[SampleRun]&#45;&gt;RawDetector[SampleRun] -->
<g id="edge22" class="edge">
<title>Filename[SampleRun]:e&#45;&gt;RawDetector[SampleRun]:w</title>
<path fill="none" stroke="black" d="M135,-150.5C187.1,-150.5 201.51,-134.75 248.75,-132.71"/>
<polygon fill="black" stroke="black" points="249.08,-136.21 259,-132.5 248.93,-129.21 249.08,-136.21"/>
</g>
<!-- MValue -->
<g id="node23" class="node">
<title>MValue</title>
<polygon fill="none" stroke="black" points="1745,-187 1675,-187 1675,-164 1745,-164 1745,-187"/>
<text text-anchor="middle" x="1710" y="-171.8" font-family="Times,serif" font-size="14.00">MValue</text>
</g>
<!-- MValue&#45;&gt;ReducedReference -->
<g id="edge27" class="edge">
<title>MValue:e&#45;&gt;ReducedReference:w</title>
<path fill="none" stroke="black" d="M1746,-175.5C1847.88,-175.5 1875.32,-191.39 1972.26,-192.45"/>
<polygon fill="black" stroke="black" points="1972.48,-195.95 1982.5,-192.5 1972.52,-188.95 1972.48,-195.95"/>
</g>
<!-- MValue&#45;&gt;Sample -->
<g id="edge50" class="edge">
<title>MValue:e&#45;&gt;Sample:w</title>
<path fill="none" stroke="black" d="M1746,-175.5C1950.89,-175.5 2002.19,-169.82 2207,-175.5 2235.41,-176.29 2244.85,-178.82 2268.97,-179.39"/>
<polygon fill="black" stroke="black" points="2268.96,-182.89 2279,-179.5 2269.04,-175.89 2268.96,-182.89"/>
</g>
<!-- ProtonCurrent[ReferenceRun] -->
<g id="node24" class="node">
<title>ProtonCurrent[ReferenceRun]</title>
<polygon fill="none" stroke="black" points="1467.5,-190 1357.5,-190 1357.5,-169 1467.5,-169 1467.5,-190"/>
<text text-anchor="start" x="1365.5" y="-176.4" font-family="Times,serif" font-size="12.00">[ReferenceRun]</text>
</g>
<!-- ProtonCurrent[ReferenceRun]&#45;&gt;ReducibleData[ReferenceRun] -->
<g id="edge34" class="edge">
<title>ProtonCurrent[ReferenceRun]:e&#45;&gt;ReducibleData[ReferenceRun]:w</title>
<path fill="none" stroke="black" d="M1468.5,-179.5C1521.59,-179.5 1523.79,-218.27 1574,-235.5 1604.67,-246.03 1615.67,-248.94 1643.76,-249.42"/>
<polygon fill="black" stroke="black" points="1643.97,-252.92 1654,-249.5 1644.03,-245.92 1643.97,-252.92"/>
</g>
<!-- ProtonCurrent[SampleRun] -->
<g id="node25" class="node">
<title>ProtonCurrent[SampleRun]</title>
<polygon fill="none" stroke="black" points="1460,-165 1365,-165 1365,-144 1460,-144 1460,-165"/>
<text text-anchor="start" x="1373" y="-151.4" font-family="Times,serif" font-size="12.00">[SampleRun]</text>
</g>
<!-- ProtonCurrent[SampleRun]&#45;&gt;ReducibleData[SampleRun] -->
<g id="edge38" class="edge">
<title>ProtonCurrent[SampleRun]:e&#45;&gt;ReducibleData[SampleRun]:w</title>
<path fill="none" stroke="black" d="M1461.5,-154.5C1484.28,-154.5 1489.21,-161.42 1510.5,-169.5 1573.83,-193.54 1588.42,-221.61 1650.97,-224.29"/>
<polygon fill="black" stroke="black" points="1650.93,-227.79 1661,-224.5 1651.08,-220.79 1650.93,-227.79"/>
</g>
<!-- PulseStrideOffset -->
<g id="node26" class="node">
<title>PulseStrideOffset</title>
<polygon fill="none" stroke="black" points="1214,-87 1071,-87 1071,-64 1214,-64 1214,-87"/>
<text text-anchor="middle" x="1142.5" y="-71.8" font-family="Times,serif" font-size="14.00">PulseStrideOffset</text>
</g>
<!-- PulseStrideOffset&#45;&gt;TofDetector[ReferenceRun] -->
<g id="edge58" class="edge">
<title>PulseStrideOffset:e&#45;&gt;TofDetector[ReferenceRun]:w</title>
<path fill="none" stroke="black" stroke-width="2" d="M1215.5,-75.5C1256.38,-75.5 1277.26,-75.5 1304.24,-75.5"/>
<polygon fill="black" stroke="black" stroke-width="2" points="1304.5,-79 1314.5,-75.5 1304.5,-72 1304.5,-79"/>
</g>
<!-- QBins -->
<g id="node27" class="node">
<title>QBins</title>
<polygon fill="none" stroke="black" points="2465.5,-270 2406.5,-270 2406.5,-247 2465.5,-247 2465.5,-270"/>
<text text-anchor="middle" x="2436" y="-254.8" font-family="Times,serif" font-size="14.00">QBins</text>
</g>
<!-- ReflectivityOverQ -->
<g id="node40" class="node">
<title>ReflectivityOverQ</title>
<polygon fill="none" stroke="black" points="2829,-243 2665,-243 2665,-210 2829,-210 2829,-243"/>
<text text-anchor="start" x="2683.5" y="-228.8" font-family="Times,serif" font-size="14.00">ReflectivityOverQ</text>
<text text-anchor="start" x="2673" y="-217.2" font-family="Times,serif" font-size="11.00">via:</text>
<text text-anchor="start" x="2694" y="-217.2" font-family="Times,serif" font-style="italic" font-size="11.00">reduce_sample_over_q</text>
</g>
<!-- QBins&#45;&gt;ReflectivityOverQ -->
<g id="edge46" class="edge">
<title>QBins:e&#45;&gt;ReflectivityOverQ:w</title>
<path fill="none" stroke="black" d="M2467,-258.5C2523.4,-258.5 2537.47,-253.33 2593,-243.5 2621.71,-238.42 2630.26,-228.98 2654.76,-226.91"/>
<polygon fill="black" stroke="black" points="2655.15,-230.4 2665,-226.5 2654.87,-223.4 2655.15,-230.4"/>
</g>
<!-- SampleRotationOffset[ReferenceRun] -->
<g id="node28" class="node">
<title>SampleRotationOffset[ReferenceRun]</title>
<polygon fill="none" stroke="black" points="141,-92 31,-92 31,-71 141,-71 141,-92"/>
<text text-anchor="start" x="39" y="-78.4" font-family="Times,serif" font-size="12.00">[ReferenceRun]</text>
</g>
<!-- SampleRotationOffset[ReferenceRun]&#45;&gt;RawDetector[ReferenceRun] -->
<g id="edge21" class="edge">
<title>SampleRotationOffset[ReferenceRun]:e&#45;&gt;RawDetector[ReferenceRun]:w</title>
<path fill="none" stroke="black" d="M142,-81.5C197.82,-81.5 193.4,-148.58 241.93,-156.7"/>
<polygon fill="black" stroke="black" points="241.75,-160.2 252,-157.5 242.31,-153.22 241.75,-160.2"/>
</g>
<!-- SampleRotationOffset[SampleRun] -->
<g id="node29" class="node">
<title>SampleRotationOffset[SampleRun]</title>
<polygon fill="none" stroke="black" points="133.5,-67 38.5,-67 38.5,-46 133.5,-46 133.5,-67"/>
<text text-anchor="start" x="46.5" y="-53.4" font-family="Times,serif" font-size="12.00">[SampleRun]</text>
</g>
<!-- SampleRotationOffset[SampleRun]&#45;&gt;RawDetector[SampleRun] -->
<g id="edge23" class="edge">
<title>SampleRotationOffset[SampleRun]:e&#45;&gt;RawDetector[SampleRun]:w</title>
<path fill="none" stroke="black" d="M135,-56.5C196.1,-56.5 194.73,-124.41 249,-131.84"/>
<polygon fill="black" stroke="black" points="248.79,-135.34 259,-132.5 249.25,-128.35 248.79,-135.34"/>
</g>
<!-- ReducibleData[ReferenceRun]&#45;&gt;ReducedReference -->
<g id="edge24" class="edge">
<title>ReducibleData[ReferenceRun]:e&#45;&gt;ReducedReference:w</title>
<path fill="none" stroke="black" d="M1766,-249.5C1802.1,-249.5 1810.93,-244.05 1846,-235.5 1904.29,-221.28 1917.47,-195.62 1972.18,-192.76"/>
<polygon fill="black" stroke="black" points="1972.59,-196.25 1982.5,-192.5 1972.41,-189.25 1972.59,-196.25"/>
</g>
<!-- ReducedReference&#45;&gt;Reference -->
<g id="edge40" class="edge">
<title>ReducedReference:e&#45;&gt;Reference:w</title>
<path fill="none" stroke="black" d="M2134.5,-192.5C2233.24,-192.5 2258.1,-224.22 2351.79,-226.38"/>
<polygon fill="black" stroke="black" points="2351.96,-229.89 2362,-226.5 2352.04,-222.89 2351.96,-229.89"/>
</g>
<!-- ReducedReference&#45;&gt;Sample -->
<g id="edge48" class="edge">
<title>ReducedReference:e&#45;&gt;Sample:w</title>
<path fill="none" stroke="black" d="M2134.5,-192.5C2195.46,-192.5 2212.67,-180.88 2268.84,-179.61"/>
<polygon fill="black" stroke="black" points="2269.04,-183.11 2279,-179.5 2268.96,-176.11 2269.04,-183.11"/>
</g>
<!-- WavelengthBins -->
<g id="node32" class="node">
<title>WavelengthBins</title>
<polygon fill="none" stroke="black" points="1478.5,-23 1346.5,-23 1346.5,0 1478.5,0 1478.5,-23"/>
<text text-anchor="middle" x="1412.5" y="-7.8" font-family="Times,serif" font-size="14.00">WavelengthBins</text>
</g>
<!-- WavelengthBins&#45;&gt;ReducibleData[ReferenceRun] -->
<g id="edge33" class="edge">
<title>WavelengthBins:e&#45;&gt;ReducibleData[ReferenceRun]:w</title>
<path fill="none" stroke="black" stroke-width="2" d="M1479.5,-11.5C1495.66,-11.5 1500.58,-17.74 1510.5,-30.5 1566.86,-103.02 1507.18,-167.52 1566.59,-228.47"/>
<polygon fill="black" stroke="black" stroke-width="2" points="1564.34,-231.16 1574,-235.5 1569.15,-226.08 1564.34,-231.16"/>
</g>
<!-- WavelengthBins&#45;&gt;ReducedReference -->
<g id="edge25" class="edge">
<title>WavelengthBins:e&#45;&gt;ReducedReference:w</title>
<path fill="none" stroke="black" d="M1479.5,-11.5C1495.66,-11.5 1500.06,-18.17 1510.5,-30.5 1559.14,-87.94 1511.85,-145.04 1574,-187.5 1609.36,-211.66 1901.14,-194.69 1972.19,-192.69"/>
<polygon fill="black" stroke="black" points="1972.56,-196.18 1982.5,-192.5 1972.44,-189.18 1972.56,-196.18"/>
</g>
<!-- TofDetector[ReferenceRun]&#45;&gt;ReducibleData[ReferenceRun] -->
<g id="edge29" class="edge">
<title>TofDetector[ReferenceRun]:e&#45;&gt;ReducibleData[ReferenceRun]:w</title>
<path fill="none" stroke="black" d="M1468.5,-75.5C1553.68,-75.5 1503.29,-188.01 1574,-235.5 1600.92,-253.58 1614.91,-250.47 1643.65,-249.66"/>
<polygon fill="black" stroke="black" points="1644.05,-253.15 1654,-249.5 1643.95,-246.15 1644.05,-253.15"/>
</g>
<!-- YIndexLimits -->
<g id="node34" class="node">
<title>YIndexLimits</title>
<polygon fill="none" stroke="black" points="1467.5,-327 1357.5,-327 1357.5,-304 1467.5,-304 1467.5,-327"/>
<text text-anchor="middle" x="1412.5" y="-311.8" font-family="Times,serif" font-size="14.00">YIndexLimits</text>
</g>
<!-- YIndexLimits&#45;&gt;ReducibleData[ReferenceRun] -->
<g id="edge30" class="edge">
<title>YIndexLimits:e&#45;&gt;ReducibleData[ReferenceRun]:w</title>
<path fill="none" stroke="black" stroke-width="2" d="M1468.5,-315.5C1514.78,-315.5 1539.51,-297.04 1565.49,-279.65"/>
<polygon fill="black" stroke="black" stroke-width="2" points="1567.56,-282.48 1574,-274.06 1563.72,-276.62 1567.56,-282.48"/>
</g>
<!-- ZIndexLimits -->
<g id="node35" class="node">
<title>ZIndexLimits</title>
<polygon fill="none" stroke="black" points="1468,-300 1357,-300 1357,-277 1468,-277 1468,-300"/>
<text text-anchor="middle" x="1412.5" y="-284.8" font-family="Times,serif" font-size="14.00">ZIndexLimits</text>
</g>
<!-- ZIndexLimits&#45;&gt;ReducibleData[ReferenceRun] -->
<g id="edge31" class="edge">
<title>ZIndexLimits:e&#45;&gt;ReducibleData[ReferenceRun]:w</title>
<path fill="none" stroke="black" stroke-width="2" d="M1468.5,-288.5C1512.47,-288.5 1538.12,-277.88 1564.58,-267.72"/>
<polygon fill="black" stroke="black" stroke-width="2" points="1565.88,-270.97 1574,-264.16 1563.41,-264.42 1565.88,-270.97"/>
</g>
<!-- TofDetector[SampleRun]&#45;&gt;ReducibleData[SampleRun] -->
<g id="edge37" class="edge">
<title>TofDetector[SampleRun]:e&#45;&gt;ReducibleData[SampleRun]:w</title>
<path fill="none" stroke="black" d="M1461.5,-50.5C1484.28,-50.5 1493.25,-50.63 1510.5,-65.5 1560.12,-108.26 1524.23,-155.91 1574,-198.5 1601.91,-222.38 1617.65,-224.33 1650.68,-224.49"/>
<polygon fill="black" stroke="black" points="1651,-227.99 1661,-224.5 1651,-220.99 1651,-227.99"/>
</g>
<!-- ReducibleData[SampleRun]&#45;&gt;Reference -->
<g id="edge41" class="edge">
<title>ReducibleData[SampleRun]:e&#45;&gt;Reference:w</title>
<path fill="none" stroke="black" d="M1759,-224.5C2023.6,-224.5 2092.27,-226.45 2351.89,-226.5"/>
<polygon fill="black" stroke="black" points="2352,-230 2362,-226.5 2352,-223 2352,-230"/>
</g>
<!-- ReducibleData[SampleRun]&#45;&gt;Sample -->
<g id="edge47" class="edge">
<title>ReducibleData[SampleRun]:e&#45;&gt;Sample:w</title>
<path fill="none" stroke="black" d="M1759,-224.5C1808.81,-224.5 2158.33,-220.08 2207,-209.5 2237.3,-202.91 2243.27,-184.1 2269,-180.21"/>
<polygon fill="black" stroke="black" points="2269.27,-183.7 2279,-179.5 2268.78,-176.72 2269.27,-183.7"/>
</g>
<!-- Reference&#45;&gt;ReflectivityOverQ -->
<g id="edge45" class="edge">
<title>Reference:e&#45;&gt;ReflectivityOverQ:w</title>
<path fill="none" stroke="black" d="M2510,-226.5C2575.39,-226.5 2594.23,-226.5 2654.89,-226.5"/>
<polygon fill="black" stroke="black" points="2655,-230 2665,-226.5 2655,-223 2655,-230"/>
</g>
<!-- Sample&#45;&gt;ReflectivityOverQ -->
<g id="edge44" class="edge">
<title>Sample:e&#45;&gt;ReflectivityOverQ:w</title>
<path fill="none" stroke="black" d="M2593,-179.5C2627.48,-179.5 2627.24,-217.77 2654.94,-225.24"/>
<polygon fill="black" stroke="black" points="2654.64,-228.73 2665,-226.5 2655.51,-221.79 2654.64,-228.73"/>
</g>
<!-- TimeOfFlightLookupTableFilename -->
<g id="node41" class="node">
<title>TimeOfFlightLookupTableFilename</title>
<polygon fill="none" stroke="black" points="970,-50 703,-50 703,-27 970,-27 970,-50"/>
<text text-anchor="middle" x="836.5" y="-34.8" font-family="Times,serif" font-size="14.00">TimeOfFlightLookupTableFilename</text>
</g>
<!-- TimeOfFlightLookupTable -->
<g id="node42" class="node">
<title>TimeOfFlightLookupTable</title>
<polygon fill="none" stroke="black" points="1243,-60 1042,-60 1042,-27 1243,-27 1243,-60"/>
<text text-anchor="start" x="1050" y="-45.8" font-family="Times,serif" font-size="14.00">TimeOfFlightLookupTable</text>
<text text-anchor="start" x="1071.5" y="-34.2" font-family="Times,serif" font-size="11.00">via:</text>
<text text-anchor="start" x="1092.5" y="-34.2" font-family="Times,serif" font-style="italic" font-size="11.00">load_tof_lookup_table</text>
</g>
<!-- TimeOfFlightLookupTableFilename&#45;&gt;TimeOfFlightLookupTable -->
<g id="edge54" class="edge">
<title>TimeOfFlightLookupTableFilename:e&#45;&gt;TimeOfFlightLookupTable:w</title>
<path fill="none" stroke="black" d="M970,-38.5C998.44,-38.5 1007.83,-42.43 1031.96,-43.32"/>
<polygon fill="black" stroke="black" points="1031.94,-46.82 1042,-43.5 1032.06,-39.82 1031.94,-46.82"/>
</g>
<!-- TimeOfFlightLookupTable&#45;&gt;TofDetector[ReferenceRun] -->
<g id="edge56" class="edge">
<title>TimeOfFlightLookupTable:e&#45;&gt;TofDetector[ReferenceRun]:w</title>
<path fill="none" stroke="black" stroke-width="2" d="M1243,-43.5C1272.34,-43.5 1287.97,-53.52 1305.24,-62.35"/>
<polygon fill="black" stroke="black" stroke-width="2" points="1303.97,-65.63 1314.5,-66.8 1307,-59.32 1303.97,-65.63"/>
</g>
</g>
</svg>
