<?xml version="1.0" encoding="UTF-8" standalone="no"?>
<!DOCTYPE svg PUBLIC "-//W3C//DTD SVG 1.1//EN"
 "http://www.w3.org/Graphics/SVG/1.1/DTD/svg11.dtd">
<!-- Generated by graphviz version 2.43.0 (0)
 -->
<!-- Title: %3 Pages: 1 -->
<svg width="2723pt" height="380pt"
 viewBox="0.00 0.00 2723.00 379.97" xmlns="http://www.w3.org/2000/svg" xmlns:xlink="http://www.w3.org/1999/xlink">
<g id="graph0" class="graph" transform="scale(1 1) rotate(0) translate(4 375.97)">
<title>%3</title>
<polygon fill="white" stroke="transparent" points="-4,4 -4,-375.97 2719,-375.97 2719,4 -4,4"/>
<g id="clust12" class="cluster">
<title>cluster_Filename</title>
<polygon fill="#f0f0ff" stroke="#f0f0ff" points="67,-214.5 67,-300.5 193,-300.5 193,-214.5 67,-214.5"/>
<text text-anchor="middle" x="130" y="-285.3" font-family="Times,serif" font-size="14.00">Filename</text>
</g>
<!-- Alpha -->
<g id="node1" class="node">
<title>Alpha</title>
<polygon fill="none" stroke="black" points="1478,-168 1421,-168 1421,-145 1478,-145 1478,-168"/>
<text text-anchor="middle" x="1449.5" y="-152.8" font-family="Times,serif" font-size="14.00">Alpha</text>
</g>
<!-- Sample -->
<g id="node42" class="node">
<title>Sample</title>
<polygon fill="none" stroke="black" points="1984,-188 1670,-188 1670,-155 1984,-155 1984,-188"/>
<text text-anchor="start" x="1800" y="-173.8" font-family="Times,serif" font-size="14.00">Sample</text>
<text text-anchor="start" x="1678" y="-162.2" font-family="Times,serif" font-size="11.00">via:</text>
<text text-anchor="start" x="1699" y="-162.2" font-family="Times,serif" font-style="italic" font-size="11.00">mask_events_where_supermirror_does_not_cover</text>
</g>
<!-- Alpha&#45;&gt;Sample -->
<g id="edge53" class="edge">
<title>Alpha:e&#45;&gt;Sample:w</title>
<path fill="none" stroke="black" d="M1479.5,-156.5C1560.95,-156.5 1583.27,-170.29 1659.87,-171.43"/>
<polygon fill="black" stroke="black" points="1659.97,-174.93 1670,-171.5 1660.03,-167.93 1659.97,-174.93"/>
</g>
<!-- BeamDivergenceLimits -->
<g id="node2" class="node">
<title>BeamDivergenceLimits</title>
<polygon fill="none" stroke="black" points="1202.5,-292 1019.5,-292 1019.5,-269 1202.5,-269 1202.5,-292"/>
<text text-anchor="middle" x="1111" y="-276.8" font-family="Times,serif" font-size="14.00">BeamDivergenceLimits</text>
</g>
<!-- ReducibleData[SampleRun] -->
<g id="node26" class="node">
<title>ReducibleData[SampleRun]</title>
<polygon fill="none" stroke="black" points="1585.5,-243 1313.5,-243 1313.5,-210 1585.5,-210 1585.5,-243"/>
<text text-anchor="start" x="1351" y="-228.8" font-family="Times,serif" font-size="14.00">ReducibleData[SampleRun]</text>
<text text-anchor="start" x="1321.5" y="-217.2" font-family="Times,serif" font-size="11.00">via:</text>
<text text-anchor="start" x="1342.5" y="-217.2" font-family="Times,serif" font-style="italic" font-size="11.00">add_coords_masks_and_apply_corrections</text>
</g>
<!-- BeamDivergenceLimits&#45;&gt;ReducibleData[SampleRun] -->
<g id="edge38" class="edge">
<title>BeamDivergenceLimits:e&#45;&gt;ReducibleData[SampleRun]:w</title>
<path fill="none" stroke="black" d="M1204,-280.5C1254.29,-280.5 1258.3,-233.43 1302.44,-227.18"/>
<polygon fill="black" stroke="black" points="1302.76,-230.67 1312.5,-226.5 1302.29,-223.69 1302.76,-230.67"/>
</g>
<!-- BeamSize[SampleRun] -->
<g id="node3" class="node">
<title>BeamSize[SampleRun]</title>
<polygon fill="none" stroke="black" points="886.5,-115 707.5,-115 707.5,-92 886.5,-92 886.5,-115"/>
<text text-anchor="middle" x="797" y="-99.8" font-family="Times,serif" font-size="14.00">BeamSize[SampleRun]</text>
</g>
<!-- RawDetectorData[SampleRun] -->
<g id="node34" class="node">
<title>RawDetectorData[SampleRun]</title>
<polygon fill="none" stroke="black" points="1229,-158 993,-158 993,-125 1229,-125 1229,-158"/>
<text text-anchor="start" x="1001" y="-143.8" font-family="Times,serif" font-size="14.00">RawDetectorData[SampleRun]</text>
<text text-anchor="start" x="1067" y="-132.2" font-family="Times,serif" font-size="11.00">via:</text>
<text text-anchor="start" x="1088" y="-132.2" font-family="Times,serif" font-style="italic" font-size="11.00">load_events</text>
</g>
<!-- BeamSize[SampleRun]&#45;&gt;RawDetectorData[SampleRun] -->
<g id="edge34" class="edge">
<title>BeamSize[SampleRun]:e&#45;&gt;RawDetectorData[SampleRun]:w</title>
<path fill="none" stroke="black" d="M888,-103.5C934.04,-103.5 942.31,-136.21 982.9,-140.93"/>
<polygon fill="black" stroke="black" points="982.82,-144.43 993,-141.5 983.21,-137.45 982.82,-144.43"/>
</g>
<!-- RawChopper[SampleRun] -->
<g id="node4" class="node">
<title>RawChopper[SampleRun]</title>
<polygon fill="none" stroke="black" points="566.5,-176 366.5,-176 366.5,-143 566.5,-143 566.5,-176"/>
<text text-anchor="start" x="374.5" y="-161.8" font-family="Times,serif" font-size="14.00">RawChopper[SampleRun]</text>
<text text-anchor="start" x="416" y="-150.2" font-family="Times,serif" font-size="11.00">via:</text>
<text text-anchor="start" x="437" y="-150.2" font-family="Times,serif" font-style="italic" font-size="11.00">amor_chopper</text>
</g>
<!-- ChopperDistance[SampleRun] -->
<g id="node5" class="node">
<title>ChopperDistance[SampleRun]</title>
<polygon fill="none" stroke="black" points="913,-227 681,-227 681,-194 913,-194 913,-227"/>
<text text-anchor="start" x="689" y="-212.8" font-family="Times,serif" font-size="14.00">ChopperDistance[SampleRun]</text>
<text text-anchor="start" x="705.5" y="-201.2" font-family="Times,serif" font-size="11.00">via:</text>
<text text-anchor="start" x="726.5" y="-201.2" font-family="Times,serif" font-style="italic" font-size="11.00">load_amor_chopper_distance</text>
</g>
<!-- RawChopper[SampleRun]&#45;&gt;ChopperDistance[SampleRun] -->
<g id="edge1" class="edge">
<title>RawChopper[SampleRun]:e&#45;&gt;ChopperDistance[SampleRun]:w</title>
<path fill="none" stroke="black" d="M567.5,-159.5C618.86,-159.5 624.54,-204.14 670.01,-209.89"/>
<polygon fill="black" stroke="black" points="669.81,-213.39 680,-210.5 670.23,-206.4 669.81,-213.39"/>
</g>
<!-- ChopperSeparation[SampleRun] -->
<g id="node8" class="node">
<title>ChopperSeparation[SampleRun]</title>
<polygon fill="none" stroke="black" points="921,-190 673,-190 673,-157 921,-157 921,-190"/>
<text text-anchor="start" x="681" y="-175.8" font-family="Times,serif" font-size="14.00">ChopperSeparation[SampleRun]</text>
<text text-anchor="start" x="699" y="-164.2" font-family="Times,serif" font-size="11.00">via:</text>
<text text-anchor="start" x="720" y="-164.2" font-family="Times,serif" font-style="italic" font-size="11.00">load_amor_chopper_separation</text>
</g>
<!-- RawChopper[SampleRun]&#45;&gt;ChopperSeparation[SampleRun] -->
<g id="edge2" class="edge">
<title>RawChopper[SampleRun]:e&#45;&gt;ChopperSeparation[SampleRun]:w</title>
<path fill="none" stroke="black" d="M567.5,-159.5C611.1,-159.5 623.77,-171.4 662.55,-173.26"/>
<polygon fill="black" stroke="black" points="662.92,-176.77 673,-173.5 663.08,-169.77 662.92,-176.77"/>
</g>
<!-- ChopperDistance[SampleRun]&#45;&gt;RawDetectorData[SampleRun] -->
<g id="edge31" class="edge">
<title>ChopperDistance[SampleRun]:e&#45;&gt;RawDetectorData[SampleRun]:w</title>
<path fill="none" stroke="black" d="M914,-210.5C956.79,-210.5 948.31,-152.36 982.69,-142.82"/>
<polygon fill="black" stroke="black" points="983.52,-146.24 993,-141.5 982.64,-139.3 983.52,-146.24"/>
</g>
<!-- ChopperFrequency[SampleRun] -->
<g id="node6" class="node">
<title>ChopperFrequency[SampleRun]</title>
<polygon fill="none" stroke="black" points="919.5,-88 674.5,-88 674.5,-65 919.5,-65 919.5,-88"/>
<text text-anchor="middle" x="797" y="-72.8" font-family="Times,serif" font-size="14.00">ChopperFrequency[SampleRun]</text>
</g>
<!-- ChopperFrequency[SampleRun]&#45;&gt;RawDetectorData[SampleRun] -->
<g id="edge30" class="edge">
<title>ChopperFrequency[SampleRun]:e&#45;&gt;RawDetectorData[SampleRun]:w</title>
<path fill="none" stroke="black" d="M921,-76.5C960.41,-76.5 951.91,-130.81 983.08,-140.14"/>
<polygon fill="black" stroke="black" points="982.62,-143.61 993,-141.5 983.57,-136.68 982.62,-143.61"/>
</g>
<!-- ChopperPhase[SampleRun] -->
<g id="node7" class="node">
<title>ChopperPhase[SampleRun]</title>
<polygon fill="none" stroke="black" points="903,-61 691,-61 691,-38 903,-38 903,-61"/>
<text text-anchor="middle" x="797" y="-45.8" font-family="Times,serif" font-size="14.00">ChopperPhase[SampleRun]</text>
</g>
<!-- ChopperPhase[SampleRun]&#45;&gt;RawDetectorData[SampleRun] -->
<g id="edge29" class="edge">
<title>ChopperPhase[SampleRun]:e&#45;&gt;RawDetectorData[SampleRun]:w</title>
<path fill="none" stroke="black" d="M904,-49.5C957.22,-49.5 938.96,-130.02 982.97,-140.4"/>
<polygon fill="black" stroke="black" points="982.68,-143.89 993,-141.5 983.44,-136.93 982.68,-143.89"/>
</g>
<!-- ChopperSeparation[SampleRun]&#45;&gt;RawDetectorData[SampleRun] -->
<g id="edge32" class="edge">
<title>ChopperSeparation[SampleRun]:e&#45;&gt;RawDetectorData[SampleRun]:w</title>
<path fill="none" stroke="black" d="M921,-173.5C952.32,-173.5 957.2,-147.89 982.95,-142.49"/>
<polygon fill="black" stroke="black" points="983.39,-145.97 993,-141.5 982.7,-139 983.39,-145.97"/>
</g>
<!-- GravityToggle -->
<g id="node9" class="node">
<title>GravityToggle</title>
<polygon fill="none" stroke="black" points="855.5,-23 738.5,-23 738.5,0 855.5,0 855.5,-23"/>
<text text-anchor="middle" x="797" y="-7.8" font-family="Times,serif" font-size="14.00">GravityToggle</text>
</g>
<!-- CoordTransformationGraph -->
<g id="node10" class="node">
<title>CoordTransformationGraph</title>
<polygon fill="none" stroke="black" points="1223,-121 999,-121 999,-88 1223,-88 1223,-121"/>
<text text-anchor="start" x="1012" y="-106.8" font-family="Times,serif" font-size="14.00">CoordTransformationGraph</text>
<text text-anchor="start" x="1007" y="-95.2" font-family="Times,serif" font-size="11.00">via:</text>
<text text-anchor="start" x="1028" y="-95.2" font-family="Times,serif" font-style="italic" font-size="11.00">coordinate_transformation_graph</text>
</g>
<!-- GravityToggle&#45;&gt;CoordTransformationGraph -->
<g id="edge3" class="edge">
<title>GravityToggle:e&#45;&gt;CoordTransformationGraph:w</title>
<path fill="none" stroke="black" d="M857,-11.5C886.22,-11.5 895.52,-12.21 921,-26.5 960.17,-48.46 951.16,-96.22 987.68,-103.55"/>
<polygon fill="black" stroke="black" points="987.72,-107.07 998,-104.5 988.36,-100.1 987.72,-107.07"/>
</g>
<!-- CoordTransformationGraph&#45;&gt;ReducibleData[SampleRun] -->
<g id="edge41" class="edge">
<title>CoordTransformationGraph:e&#45;&gt;ReducibleData[SampleRun]:w</title>
<path fill="none" stroke="black" d="M1224,-104.5C1287.32,-104.5 1250.15,-213.52 1302.48,-225.45"/>
<polygon fill="black" stroke="black" points="1302.19,-228.93 1312.5,-226.5 1302.92,-221.97 1302.19,-228.93"/>
</g>
<!-- Reference -->
<g id="node41" class="node">
<title>Reference</title>
<polygon fill="none" stroke="black" points="1952,-229 1702,-229 1702,-196 1952,-196 1952,-229"/>
<text text-anchor="start" x="1790.5" y="-214.8" font-family="Times,serif" font-size="14.00">Reference</text>
<text text-anchor="start" x="1710" y="-203.2" font-family="Times,serif" font-size="11.00">via:</text>
<text text-anchor="start" x="1731" y="-203.2" font-family="Times,serif" font-style="italic" font-size="11.00">evaluate_reference_at_sample_coords</text>
</g>
<!-- CoordTransformationGraph&#45;&gt;Reference -->
<g id="edge45" class="edge">
<title>CoordTransformationGraph:e&#45;&gt;Reference:w</title>
<path fill="none" stroke="black" d="M1224,-104.5C1276.98,-104.5 1253.42,-172.19 1301,-195.5 1310.15,-199.98 1628.84,-210.52 1690.85,-212.26"/>
<polygon fill="black" stroke="black" points="1690.92,-215.76 1701,-212.5 1691.09,-208.76 1690.92,-215.76"/>
</g>
<!-- CriticalEdge -->
<g id="node11" class="node">
<title>CriticalEdge</title>
<polygon fill="none" stroke="black" points="1502.5,-141 1396.5,-141 1396.5,-118 1502.5,-118 1502.5,-141"/>
<text text-anchor="middle" x="1449.5" y="-125.8" font-family="Times,serif" font-size="14.00">CriticalEdge</text>
</g>
<!-- CriticalEdge&#45;&gt;Sample -->
<g id="edge51" class="edge">
<title>CriticalEdge:e&#45;&gt;Sample:w</title>
<path fill="none" stroke="black" d="M1503.5,-129.5C1546.03,-129.5 1556.88,-133.65 1598,-144.5 1627.43,-152.27 1634.44,-167.62 1659.77,-170.88"/>
<polygon fill="black" stroke="black" points="1659.81,-174.39 1670,-171.5 1660.23,-167.4 1659.81,-174.39"/>
</g>
<!-- Filename[SampleRun] -->
<g id="node12" class="node">
<title>Filename[SampleRun]</title>
<polygon fill="none" stroke="black" points="177.5,-244 82.5,-244 82.5,-223 177.5,-223 177.5,-244"/>
<text text-anchor="start" x="90.5" y="-230.4" font-family="Times,serif" font-size="12.00">[SampleRun]</text>
</g>
<!-- Filename[SampleRun]&#45;&gt;RawChopper[SampleRun] -->
<g id="edge25" class="edge">
<title>Filename[SampleRun]:e&#45;&gt;RawChopper[SampleRun]:w</title>
<path fill="none" stroke="black" d="M179,-233.5C264.69,-233.5 275.56,-165.17 355.41,-159.83"/>
<polygon fill="black" stroke="black" points="355.62,-163.33 365.5,-159.5 355.39,-156.33 355.62,-163.33"/>
</g>
<!-- DetectorRotation[SampleRun] -->
<g id="node13" class="node">
<title>DetectorRotation[SampleRun]</title>
<polygon fill="none" stroke="black" points="582.5,-139 350.5,-139 350.5,-106 582.5,-106 582.5,-139"/>
<text text-anchor="start" x="358.5" y="-124.8" font-family="Times,serif" font-size="14.00">DetectorRotation[SampleRun]</text>
<text text-anchor="start" x="375" y="-113.2" font-family="Times,serif" font-size="11.00">via:</text>
<text text-anchor="start" x="396" y="-113.2" font-family="Times,serif" font-style="italic" font-size="11.00">load_amor_detector_rotation</text>
</g>
<!-- Filename[SampleRun]&#45;&gt;DetectorRotation[SampleRun] -->
<g id="edge4" class="edge">
<title>Filename[SampleRun]:e&#45;&gt;DetectorRotation[SampleRun]:w</title>
<path fill="none" stroke="black" d="M179,-233.5C265.89,-233.5 259.73,-131 339.35,-122.99"/>
<polygon fill="black" stroke="black" points="339.68,-126.48 349.5,-122.5 339.34,-119.49 339.68,-126.48"/>
</g>
<!-- LoadedNeXusDetector[SampleRun] -->
<g id="node16" class="node">
<title>LoadedNeXusDetector[SampleRun]</title>
<polygon fill="none" stroke="black" points="601,-75 332,-75 332,-42 601,-42 601,-75"/>
<text text-anchor="start" x="340" y="-60.8" font-family="Times,serif" font-size="14.00">LoadedNeXusDetector[SampleRun]</text>
<text text-anchor="start" x="417.5" y="-49.2" font-family="Times,serif" font-size="11.00">via:</text>
<text text-anchor="start" x="438.5" y="-49.2" font-family="Times,serif" font-style="italic" font-size="11.00">load_detector</text>
</g>
<!-- Filename[SampleRun]&#45;&gt;LoadedNeXusDetector[SampleRun] -->
<g id="edge5" class="edge">
<title>Filename[SampleRun]:e&#45;&gt;LoadedNeXusDetector[SampleRun]:w</title>
<path fill="none" stroke="black" d="M179,-233.5C278.78,-233.5 232.17,-70.26 321.94,-59.1"/>
<polygon fill="black" stroke="black" points="322.23,-62.59 332,-58.5 321.81,-55.6 322.23,-62.59"/>
</g>
<!-- OrsoOwner -->
<g id="node21" class="node">
<title>OrsoOwner</title>
<polygon fill="none" stroke="black" points="536.5,-361 396.5,-361 396.5,-328 536.5,-328 536.5,-361"/>
<text text-anchor="start" x="425.5" y="-346.8" font-family="Times,serif" font-size="14.00">OrsoOwner</text>
<text text-anchor="start" x="404.5" y="-335.2" font-family="Times,serif" font-size="11.00">via:</text>
<text text-anchor="start" x="425.5" y="-335.2" font-family="Times,serif" font-style="italic" font-size="11.00">parse_orso_owner</text>
</g>
<!-- Filename[SampleRun]&#45;&gt;OrsoOwner -->
<g id="edge20" class="edge">
<title>Filename[SampleRun]:e&#45;&gt;OrsoOwner:w</title>
<path fill="none" stroke="black" d="M179,-233.5C215.61,-233.5 227.83,-231.02 260,-248.5 300.88,-270.72 292.55,-299.83 332,-324.5 353.95,-338.23 363.45,-343.24 385.31,-344.28"/>
<polygon fill="black" stroke="black" points="385.43,-347.79 395.5,-344.5 385.58,-340.79 385.43,-347.79"/>
</g>
<!-- OrsoSample -->
<g id="node23" class="node">
<title>OrsoSample</title>
<polygon fill="none" stroke="black" points="539,-324 394,-324 394,-291 539,-291 539,-324"/>
<text text-anchor="start" x="422.5" y="-309.8" font-family="Times,serif" font-size="14.00">OrsoSample</text>
<text text-anchor="start" x="402" y="-298.2" font-family="Times,serif" font-size="11.00">via:</text>
<text text-anchor="start" x="423" y="-298.2" font-family="Times,serif" font-style="italic" font-size="11.00">parse_orso_sample</text>
</g>
<!-- Filename[SampleRun]&#45;&gt;OrsoSample -->
<g id="edge22" class="edge">
<title>Filename[SampleRun]:e&#45;&gt;OrsoSample:w</title>
<path fill="none" stroke="black" d="M179,-233.5C215.61,-233.5 225.48,-236.3 260,-248.5 317.45,-268.81 327.08,-303.44 382.42,-307.17"/>
<polygon fill="black" stroke="black" points="382.39,-310.67 392.5,-307.5 382.62,-303.68 382.39,-310.67"/>
</g>
<!-- OrsoExperiment -->
<g id="node24" class="node">
<title>OrsoExperiment</title>
<polygon fill="none" stroke="black" points="550.5,-287 382.5,-287 382.5,-254 550.5,-254 550.5,-287"/>
<text text-anchor="start" x="407.5" y="-272.8" font-family="Times,serif" font-size="14.00">OrsoExperiment</text>
<text text-anchor="start" x="390.5" y="-261.2" font-family="Times,serif" font-size="11.00">via:</text>
<text text-anchor="start" x="411.5" y="-261.2" font-family="Times,serif" font-style="italic" font-size="11.00">parse_orso_experiment</text>
</g>
<!-- Filename[SampleRun]&#45;&gt;OrsoExperiment -->
<g id="edge11" class="edge">
<title>Filename[SampleRun]:e&#45;&gt;OrsoExperiment:w</title>
<path fill="none" stroke="black" d="M179,-233.5C267.01,-233.5 288.42,-267.74 371.35,-270.34"/>
<polygon fill="black" stroke="black" points="371.45,-273.84 381.5,-270.5 371.56,-266.85 371.45,-273.84"/>
</g>
<!-- OrsoSampleFilenames -->
<g id="node31" class="node">
<title>OrsoSampleFilenames</title>
<polygon fill="none" stroke="black" points="555,-250 378,-250 378,-217 555,-217 555,-250"/>
<text text-anchor="start" x="386" y="-235.8" font-family="Times,serif" font-size="14.00">OrsoSampleFilenames</text>
<text text-anchor="start" x="413.5" y="-224.2" font-family="Times,serif" font-size="11.00">via:</text>
<text text-anchor="start" x="434.5" y="-224.2" font-family="Times,serif" font-style="italic" font-size="11.00">orso_data_files</text>
</g>
<!-- Filename[SampleRun]&#45;&gt;OrsoSampleFilenames -->
<g id="edge23" class="edge">
<title>Filename[SampleRun]:e&#45;&gt;OrsoSampleFilenames:w</title>
<path fill="none" stroke="black" d="M179,-233.5C263.78,-233.5 287.45,-233.5 367.46,-233.5"/>
<polygon fill="black" stroke="black" points="367.5,-237 377.5,-233.5 367.5,-230 367.5,-237"/>
</g>
<!-- ProtonCurrent[SampleRun] -->
<g id="node32" class="node">
<title>ProtonCurrent[SampleRun]</title>
<polygon fill="none" stroke="black" points="573,-213 360,-213 360,-180 573,-180 573,-213"/>
<text text-anchor="start" x="368" y="-198.8" font-family="Times,serif" font-size="14.00">ProtonCurrent[SampleRun]</text>
<text text-anchor="start" x="382" y="-187.2" font-family="Times,serif" font-size="11.00">via:</text>
<text text-anchor="start" x="403" y="-187.2" font-family="Times,serif" font-style="italic" font-size="11.00">load_amor_proton_current</text>
</g>
<!-- Filename[SampleRun]&#45;&gt;ProtonCurrent[SampleRun] -->
<g id="edge24" class="edge">
<title>Filename[SampleRun]:e&#45;&gt;ProtonCurrent[SampleRun]:w</title>
<path fill="none" stroke="black" d="M179,-233.5C257.37,-233.5 276.05,-199.61 349.29,-196.7"/>
<polygon fill="black" stroke="black" points="349.57,-200.19 359.5,-196.5 349.43,-193.2 349.57,-200.19"/>
</g>
<!-- DetectorRotation[SampleRun]&#45;&gt;RawDetectorData[SampleRun] -->
<g id="edge27" class="edge">
<title>DetectorRotation[SampleRun]:e&#45;&gt;RawDetectorData[SampleRun]:w</title>
<path fill="none" stroke="black" d="M583.5,-122.5C733.53,-122.5 771.62,-115.58 921,-129.5 949.64,-132.17 958.59,-139.54 982.87,-141.18"/>
<polygon fill="black" stroke="black" points="982.89,-144.68 993,-141.5 983.12,-137.68 982.89,-144.68"/>
</g>
<!-- DetectorSpatialResolution[SampleRun] -->
<g id="node14" class="node">
<title>DetectorSpatialResolution[SampleRun]</title>
<polygon fill="none" stroke="black" points="1598,-270 1301,-270 1301,-247 1598,-247 1598,-270"/>
<text text-anchor="middle" x="1449.5" y="-254.8" font-family="Times,serif" font-size="14.00">DetectorSpatialResolution[SampleRun]</text>
</g>
<!-- DetectorSpatialResolution[SampleRun]&#45;&gt;Reference -->
<g id="edge44" class="edge">
<title>DetectorSpatialResolution[SampleRun]:e&#45;&gt;Reference:w</title>
<path fill="none" stroke="black" d="M1598,-258.5C1644.51,-258.5 1650.22,-218.91 1690.84,-213.19"/>
<polygon fill="black" stroke="black" points="1691.26,-216.67 1701,-212.5 1690.79,-209.68 1691.26,-216.67"/>
</g>
<!-- Filename[ReferenceRun] -->
<g id="node15" class="node">
<title>Filename[ReferenceRun]</title>
<polygon fill="none" stroke="black" points="185,-269 75,-269 75,-248 185,-248 185,-269"/>
<text text-anchor="start" x="83" y="-255.4" font-family="Times,serif" font-size="12.00">[ReferenceRun]</text>
</g>
<!-- OrsoMeasurement -->
<g id="node25" class="node">
<title>OrsoMeasurement</title>
<polygon fill="none" stroke="black" points="2234,-317 2056,-317 2056,-284 2234,-284 2234,-317"/>
<text text-anchor="start" x="2078.5" y="-302.8" font-family="Times,serif" font-size="14.00">OrsoMeasurement</text>
<text text-anchor="start" x="2064" y="-291.2" font-family="Times,serif" font-size="11.00">via:</text>
<text text-anchor="start" x="2085" y="-291.2" font-family="Times,serif" font-style="italic" font-size="11.00">build_orso_measurement</text>
</g>
<!-- Filename[ReferenceRun]&#45;&gt;OrsoMeasurement -->
<g id="edge18" class="edge">
<title>Filename[ReferenceRun]:e&#45;&gt;OrsoMeasurement:w</title>
<path fill="none" stroke="black" d="M186,-258.5C265.41,-258.5 256.31,-337.49 332,-361.5 454.19,-400.26 1026.64,-314.5 1110,-314.5 1110,-314.5 1110,-314.5 1450.5,-314.5 1687.65,-314.5 1747.01,-313.3 1984,-304.5 2012.4,-303.45 2021.85,-301.12 2045.97,-300.6"/>
<polygon fill="black" stroke="black" points="2046.04,-304.1 2056,-300.5 2045.96,-297.1 2046.04,-304.1"/>
</g>
<!-- LoadedNeXusDetector[SampleRun]&#45;&gt;RawDetectorData[SampleRun] -->
<g id="edge26" class="edge">
<title>LoadedNeXusDetector[SampleRun]:e&#45;&gt;RawDetectorData[SampleRun]:w</title>
<path fill="none" stroke="black" d="M601,-58.5C634.33,-58.5 640,-42.21 673,-37.5 727.56,-29.71 872.18,-11.92 921,-37.5 967.49,-61.86 940.93,-131.38 982.94,-140.51"/>
<polygon fill="black" stroke="black" points="982.7,-144 993,-141.5 983.39,-137.03 982.7,-144"/>
</g>
<!-- NeXusDetectorName[SampleRun] -->
<g id="node17" class="node">
<title>NeXusDetectorName[SampleRun]</title>
<polygon fill="none" stroke="black" points="260,-70 0,-70 0,-47 260,-47 260,-70"/>
<text text-anchor="middle" x="130" y="-54.8" font-family="Times,serif" font-size="14.00">NeXusDetectorName[SampleRun]</text>
</g>
<!-- NeXusDetectorName[SampleRun]&#45;&gt;LoadedNeXusDetector[SampleRun] -->
<g id="edge6" class="edge">
<title>NeXusDetectorName[SampleRun]:e&#45;&gt;LoadedNeXusDetector[SampleRun]:w</title>
<path fill="none" stroke="black" d="M260,-58.5C288.38,-58.5 297.88,-58.5 321.98,-58.5"/>
<polygon fill="black" stroke="black" points="322,-62 332,-58.5 322,-55 322,-62"/>
</g>
<!-- MValue -->
<g id="node18" class="node">
<title>MValue</title>
<polygon fill="none" stroke="black" points="1484.5,-114 1414.5,-114 1414.5,-91 1484.5,-91 1484.5,-114"/>
<text text-anchor="middle" x="1449.5" y="-98.8" font-family="Times,serif" font-size="14.00">MValue</text>
</g>
<!-- MValue&#45;&gt;Sample -->
<g id="edge52" class="edge">
<title>MValue:e&#45;&gt;Sample:w</title>
<path fill="none" stroke="black" d="M1485.5,-102.5C1535.94,-102.5 1551.31,-98.41 1598,-117.5 1631.56,-131.22 1630.57,-164.42 1659.87,-170.53"/>
<polygon fill="black" stroke="black" points="1659.71,-174.03 1670,-171.5 1660.38,-167.06 1659.71,-174.03"/>
</g>
<!-- OrsoCorrectionList -->
<g id="node19" class="node">
<title>OrsoCorrectionList</title>
<polygon fill="none" stroke="black" points="2473,-366 2307,-366 2307,-333 2473,-333 2473,-366"/>
<text text-anchor="start" x="2321.5" y="-351.8" font-family="Times,serif" font-size="14.00">OrsoCorrectionList</text>
<text text-anchor="start" x="2315" y="-340.2" font-family="Times,serif" font-size="11.00">via:</text>
<text text-anchor="start" x="2336" y="-340.2" font-family="Times,serif" font-style="italic" font-size="11.00">orso_amor_corrections</text>
</g>
<!-- OrsoIofQDataset -->
<g id="node29" class="node">
<title>OrsoIofQDataset</title>
<polygon fill="none" stroke="black" points="2715,-303 2546,-303 2546,-270 2715,-270 2715,-303"/>
<text text-anchor="start" x="2570.5" y="-288.8" font-family="Times,serif" font-size="14.00">OrsoIofQDataset</text>
<text text-anchor="start" x="2554" y="-277.2" font-family="Times,serif" font-size="11.00">via:</text>
<text text-anchor="start" x="2575" y="-277.2" font-family="Times,serif" font-style="italic" font-size="11.00">build_orso_iofq_dataset</text>
</g>
<!-- OrsoCorrectionList&#45;&gt;OrsoIofQDataset -->
<g id="edge16" class="edge">
<title>OrsoCorrectionList:e&#45;&gt;OrsoIofQDataset:w</title>
<path fill="none" stroke="black" d="M2474,-349.5C2512.7,-349.5 2505.37,-297.31 2535.8,-287.93"/>
<polygon fill="black" stroke="black" points="2536.59,-291.36 2546,-286.5 2535.61,-284.43 2536.59,-291.36"/>
</g>
<!-- OrsoCreator -->
<g id="node20" class="node">
<title>OrsoCreator</title>
<polygon fill="none" stroke="black" points="2197.5,-224 2092.5,-224 2092.5,-201 2197.5,-201 2197.5,-224"/>
<text text-anchor="middle" x="2145" y="-208.8" font-family="Times,serif" font-size="14.00">OrsoCreator</text>
</g>
<!-- OrsoReduction -->
<g id="node30" class="node">
<title>OrsoReduction</title>
<polygon fill="none" stroke="black" points="2467,-247 2313,-247 2313,-214 2467,-214 2467,-247"/>
<text text-anchor="start" x="2337" y="-232.8" font-family="Times,serif" font-size="14.00">OrsoReduction</text>
<text text-anchor="start" x="2321" y="-221.2" font-family="Times,serif" font-size="11.00">via:</text>
<text text-anchor="start" x="2342" y="-221.2" font-family="Times,serif" font-style="italic" font-size="11.00">build_orso_reduction</text>
</g>
<!-- OrsoCreator&#45;&gt;OrsoReduction -->
<g id="edge21" class="edge">
<title>OrsoCreator:e&#45;&gt;OrsoReduction:w</title>
<path fill="none" stroke="black" d="M2199,-212.5C2246.28,-212.5 2259.36,-228.06 2301.83,-230.25"/>
<polygon fill="black" stroke="black" points="2301.92,-233.75 2312,-230.5 2302.09,-226.75 2301.92,-233.75"/>
</g>
<!-- OrsoDataSource -->
<g id="node22" class="node">
<title>OrsoDataSource</title>
<polygon fill="none" stroke="black" points="2474,-329 2306,-329 2306,-296 2474,-296 2474,-329"/>
<text text-anchor="start" x="2331" y="-314.8" font-family="Times,serif" font-size="14.00">OrsoDataSource</text>
<text text-anchor="start" x="2314" y="-303.2" font-family="Times,serif" font-size="11.00">via:</text>
<text text-anchor="start" x="2335" y="-303.2" font-family="Times,serif" font-style="italic" font-size="11.00">build_orso_data_source</text>
</g>
<!-- OrsoOwner&#45;&gt;OrsoDataSource -->
<g id="edge7" class="edge">
<title>OrsoOwner:e&#45;&gt;OrsoDataSource:w</title>
<path fill="none" stroke="black" d="M537.5,-344.5C791.94,-344.5 855.56,-344.5 1110,-344.5 1110,-344.5 1110,-344.5 1828,-344.5 2008.48,-344.5 2056.14,-367.16 2234,-336.5 2263.6,-331.4 2270.83,-316.35 2295.89,-313.12"/>
<polygon fill="black" stroke="black" points="2296.23,-316.6 2306,-312.5 2295.81,-309.61 2296.23,-316.6"/>
</g>
<!-- OrsoDataSource&#45;&gt;OrsoIofQDataset -->
<g id="edge14" class="edge">
<title>OrsoDataSource:e&#45;&gt;OrsoIofQDataset:w</title>
<path fill="none" stroke="black" d="M2474,-312.5C2504.3,-312.5 2510.75,-291.88 2535.84,-287.37"/>
<polygon fill="black" stroke="black" points="2536.33,-290.84 2546,-286.5 2535.74,-283.86 2536.33,-290.84"/>
</g>
<!-- OrsoSample&#45;&gt;OrsoDataSource -->
<g id="edge8" class="edge">
<title>OrsoSample:e&#45;&gt;OrsoDataSource:w</title>
<path fill="none" stroke="black" d="M540.5,-307.5C600.06,-307.5 613.65,-322.57 673,-327.5 866.58,-343.59 915.75,-334.5 1110,-334.5 1110,-334.5 1110,-334.5 1828,-334.5 2008.47,-334.5 2054.65,-347.55 2234,-327.5 2262.8,-324.28 2271.44,-314.98 2295.81,-312.91"/>
<polygon fill="black" stroke="black" points="2296.15,-316.4 2306,-312.5 2295.87,-309.4 2296.15,-316.4"/>
</g>
<!-- OrsoExperiment&#45;&gt;OrsoDataSource -->
<g id="edge9" class="edge">
<title>OrsoExperiment:e&#45;&gt;OrsoDataSource:w</title>
<path fill="none" stroke="black" d="M551.5,-270.5C605.76,-270.5 618.99,-277.24 673,-282.5 867.2,-301.42 914.88,-324.5 1110,-324.5 1110,-324.5 1110,-324.5 1828,-324.5 2008.47,-324.5 2053.7,-325.31 2234,-317.5 2262.42,-316.27 2271.83,-313.29 2295.96,-312.63"/>
<polygon fill="black" stroke="black" points="2296.05,-316.13 2306,-312.5 2295.96,-309.13 2296.05,-316.13"/>
</g>
<!-- OrsoMeasurement&#45;&gt;OrsoDataSource -->
<g id="edge10" class="edge">
<title>OrsoMeasurement:e&#45;&gt;OrsoDataSource:w</title>
<path fill="none" stroke="black" d="M2234,-300.5C2262.77,-300.5 2271.62,-309.94 2295.88,-312.07"/>
<polygon fill="black" stroke="black" points="2295.86,-315.58 2306,-312.5 2296.16,-308.58 2295.86,-315.58"/>
</g>
<!-- OrsoInstrument -->
<g id="node27" class="node">
<title>OrsoInstrument</title>
<polygon fill="none" stroke="black" points="1908,-293 1746,-293 1746,-260 1908,-260 1908,-293"/>
<text text-anchor="start" x="1769.5" y="-278.8" font-family="Times,serif" font-size="14.00">OrsoInstrument</text>
<text text-anchor="start" x="1754" y="-267.2" font-family="Times,serif" font-size="11.00">via:</text>
<text text-anchor="start" x="1775" y="-267.2" font-family="Times,serif" font-style="italic" font-size="11.00">build_orso_instrument</text>
</g>
<!-- ReducibleData[SampleRun]&#45;&gt;OrsoInstrument -->
<g id="edge12" class="edge">
<title>ReducibleData[SampleRun]:e&#45;&gt;OrsoInstrument:w</title>
<path fill="none" stroke="black" d="M1586.5,-226.5C1625.93,-226.5 1632.36,-244.74 1670,-256.5 1699.46,-265.7 1708.62,-274.44 1734.92,-276.19"/>
<polygon fill="black" stroke="black" points="1734.9,-279.69 1745,-276.5 1735.11,-272.69 1734.9,-279.69"/>
</g>
<!-- ReducibleData[SampleRun]&#45;&gt;Reference -->
<g id="edge43" class="edge">
<title>ReducibleData[SampleRun]:e&#45;&gt;Reference:w</title>
<path fill="none" stroke="black" d="M1586.5,-226.5C1634.16,-226.5 1647.86,-214.4 1690.74,-212.7"/>
<polygon fill="black" stroke="black" points="1691.07,-216.19 1701,-212.5 1690.93,-209.19 1691.07,-216.19"/>
</g>
<!-- ReducibleData[SampleRun]&#45;&gt;Sample -->
<g id="edge49" class="edge">
<title>ReducibleData[SampleRun]:e&#45;&gt;Sample:w</title>
<path fill="none" stroke="black" d="M1586.5,-226.5C1627.29,-226.5 1626.11,-180.15 1660.01,-172.55"/>
<polygon fill="black" stroke="black" points="1660.42,-176.03 1670,-171.5 1659.69,-169.06 1660.42,-176.03"/>
</g>
<!-- OrsoInstrument&#45;&gt;OrsoMeasurement -->
<g id="edge19" class="edge">
<title>OrsoInstrument:e&#45;&gt;OrsoMeasurement:w</title>
<path fill="none" stroke="black" d="M1909,-276.5C1971.71,-276.5 1988.12,-298.04 2045.94,-300.31"/>
<polygon fill="black" stroke="black" points="2045.93,-303.81 2056,-300.5 2046.07,-296.81 2045.93,-303.81"/>
</g>
<!-- ReflectivityOverQ -->
<g id="node28" class="node">
<title>ReflectivityOverQ</title>
<polygon fill="none" stroke="black" points="2227,-261 2063,-261 2063,-228 2227,-228 2227,-261"/>
<text text-anchor="start" x="2081.5" y="-246.8" font-family="Times,serif" font-size="14.00">ReflectivityOverQ</text>
<text text-anchor="start" x="2071" y="-235.2" font-family="Times,serif" font-size="11.00">via:</text>
<text text-anchor="start" x="2092" y="-235.2" font-family="Times,serif" font-style="italic" font-size="11.00">reduce_sample_over_q</text>
</g>
<!-- ReflectivityOverQ&#45;&gt;OrsoIofQDataset -->
<g id="edge13" class="edge">
<title>ReflectivityOverQ:e&#45;&gt;OrsoIofQDataset:w</title>
<path fill="none" stroke="black" d="M2228,-244.5C2296.08,-244.5 2459.17,-282.81 2535.78,-286.25"/>
<polygon fill="black" stroke="black" points="2535.92,-289.76 2546,-286.5 2536.09,-282.76 2535.92,-289.76"/>
</g>
<!-- OrsoReduction&#45;&gt;OrsoIofQDataset -->
<g id="edge15" class="edge">
<title>OrsoReduction:e&#45;&gt;OrsoIofQDataset:w</title>
<path fill="none" stroke="black" d="M2468,-230.5C2507.01,-230.5 2504.22,-277.29 2536.04,-285.33"/>
<polygon fill="black" stroke="black" points="2535.66,-288.81 2546,-286.5 2536.48,-281.86 2535.66,-288.81"/>
</g>
<!-- OrsoSampleFilenames&#45;&gt;OrsoMeasurement -->
<g id="edge17" class="edge">
<title>OrsoSampleFilenames:e&#45;&gt;OrsoMeasurement:w</title>
<path fill="none" stroke="black" d="M555.5,-233.5C609.29,-233.5 619.98,-253.44 673,-262.5 865.17,-295.34 915.04,-300.5 1110,-300.5 1110,-300.5 1110,-300.5 1450.5,-300.5 1716.19,-300.5 1785.15,-300.5 2045.85,-300.5"/>
<polygon fill="black" stroke="black" points="2046,-304 2056,-300.5 2046,-297 2046,-304"/>
</g>
<!-- ProtonCurrent[SampleRun]&#45;&gt;ReducibleData[SampleRun] -->
<g id="edge40" class="edge">
<title>ProtonCurrent[SampleRun]:e&#45;&gt;ReducibleData[SampleRun]:w</title>
<path fill="none" stroke="black" d="M573.5,-196.5C624.69,-196.5 623.58,-241.15 673,-254.5 732.64,-270.61 1168.03,-264.45 1229,-254.5 1264.01,-248.79 1271.99,-230.43 1302.32,-227.04"/>
<polygon fill="black" stroke="black" points="1302.7,-230.53 1312.5,-226.5 1302.33,-223.54 1302.7,-230.53"/>
</g>
<!-- QBins -->
<g id="node33" class="node">
<title>QBins</title>
<polygon fill="none" stroke="black" points="1856.5,-256 1797.5,-256 1797.5,-233 1856.5,-233 1856.5,-256"/>
<text text-anchor="middle" x="1827" y="-240.8" font-family="Times,serif" font-size="14.00">QBins</text>
</g>
<!-- QBins&#45;&gt;ReflectivityOverQ -->
<g id="edge48" class="edge">
<title>QBins:e&#45;&gt;ReflectivityOverQ:w</title>
<path fill="none" stroke="black" d="M1858,-244.5C1945.21,-244.5 1969.51,-244.5 2051.93,-244.5"/>
<polygon fill="black" stroke="black" points="2052,-248 2062,-244.5 2052,-241 2052,-248"/>
</g>
<!-- RawDetectorData[SampleRun]&#45;&gt;ReducibleData[SampleRun] -->
<g id="edge35" class="edge">
<title>RawDetectorData[SampleRun]:e&#45;&gt;ReducibleData[SampleRun]:w</title>
<path fill="none" stroke="black" d="M1229,-141.5C1278.23,-141.5 1262.32,-214.97 1302.39,-225.3"/>
<polygon fill="black" stroke="black" points="1302.16,-228.79 1312.5,-226.5 1302.98,-221.84 1302.16,-228.79"/>
</g>
<!-- SampleRotation[SampleRun] -->
<g id="node35" class="node">
<title>SampleRotation[SampleRun]</title>
<polygon fill="none" stroke="black" points="908.5,-254 685.5,-254 685.5,-231 908.5,-231 908.5,-254"/>
<text text-anchor="middle" x="797" y="-238.8" font-family="Times,serif" font-size="14.00">SampleRotation[SampleRun]</text>
</g>
<!-- SampleRotation[SampleRun]&#45;&gt;RawDetectorData[SampleRun] -->
<g id="edge28" class="edge">
<title>SampleRotation[SampleRun]:e&#45;&gt;RawDetectorData[SampleRun]:w</title>
<path fill="none" stroke="black" d="M909,-242.5C963.62,-242.5 938.46,-154.1 982.8,-142.7"/>
<polygon fill="black" stroke="black" points="983.48,-146.15 993,-141.5 982.66,-139.2 983.48,-146.15"/>
</g>
<!-- SampleSize[SampleRun] -->
<g id="node36" class="node">
<title>SampleSize[SampleRun]</title>
<polygon fill="none" stroke="black" points="893,-153 701,-153 701,-130 893,-130 893,-153"/>
<text text-anchor="middle" x="797" y="-137.8" font-family="Times,serif" font-size="14.00">SampleSize[SampleRun]</text>
</g>
<!-- SampleSize[SampleRun]&#45;&gt;RawDetectorData[SampleRun] -->
<g id="edge33" class="edge">
<title>SampleSize[SampleRun]:e&#45;&gt;RawDetectorData[SampleRun]:w</title>
<path fill="none" stroke="black" d="M894,-141.5C934.39,-141.5 946.97,-141.5 982.8,-141.5"/>
<polygon fill="black" stroke="black" points="983,-145 993,-141.5 983,-138 983,-145"/>
</g>
<!-- ReducedReference -->
<g id="node37" class="node">
<title>ReducedReference</title>
<polygon fill="none" stroke="black" points="1524.5,-195 1374.5,-195 1374.5,-172 1524.5,-172 1524.5,-195"/>
<text text-anchor="middle" x="1449.5" y="-179.8" font-family="Times,serif" font-size="14.00">ReducedReference</text>
</g>
<!-- ReducedReference&#45;&gt;Reference -->
<g id="edge42" class="edge">
<title>ReducedReference:e&#45;&gt;Reference:w</title>
<path fill="none" stroke="black" d="M1525.5,-183.5C1601.01,-183.5 1620.26,-209.95 1690.71,-212.33"/>
<polygon fill="black" stroke="black" points="1690.94,-215.83 1701,-212.5 1691.06,-208.83 1690.94,-215.83"/>
</g>
<!-- ReducedReference&#45;&gt;Sample -->
<g id="edge50" class="edge">
<title>ReducedReference:e&#45;&gt;Sample:w</title>
<path fill="none" stroke="black" d="M1525.5,-183.5C1586.42,-183.5 1603.7,-172.78 1659.85,-171.6"/>
<polygon fill="black" stroke="black" points="1660.04,-175.1 1670,-171.5 1659.96,-168.1 1660.04,-175.1"/>
</g>
<!-- YIndexLimits -->
<g id="node38" class="node">
<title>YIndexLimits</title>
<polygon fill="none" stroke="black" points="1166,-254 1056,-254 1056,-231 1166,-231 1166,-254"/>
<text text-anchor="middle" x="1111" y="-238.8" font-family="Times,serif" font-size="14.00">YIndexLimits</text>
</g>
<!-- YIndexLimits&#45;&gt;ReducibleData[SampleRun] -->
<g id="edge36" class="edge">
<title>YIndexLimits:e&#45;&gt;ReducibleData[SampleRun]:w</title>
<path fill="none" stroke="black" d="M1167,-242.5C1228.5,-242.5 1245.61,-228.2 1302.26,-226.64"/>
<polygon fill="black" stroke="black" points="1302.55,-230.13 1312.5,-226.5 1302.45,-223.14 1302.55,-230.13"/>
</g>
<!-- ZIndexLimits -->
<g id="node39" class="node">
<title>ZIndexLimits</title>
<polygon fill="none" stroke="black" points="1166.5,-227 1055.5,-227 1055.5,-204 1166.5,-204 1166.5,-227"/>
<text text-anchor="middle" x="1111" y="-211.8" font-family="Times,serif" font-size="14.00">ZIndexLimits</text>
</g>
<!-- ZIndexLimits&#45;&gt;ReducibleData[SampleRun] -->
<g id="edge37" class="edge">
<title>ZIndexLimits:e&#45;&gt;ReducibleData[SampleRun]:w</title>
<path fill="none" stroke="black" d="M1167,-215.5C1228.3,-215.5 1245.77,-225.33 1302.28,-226.4"/>
<polygon fill="black" stroke="black" points="1302.47,-229.91 1312.5,-226.5 1302.53,-222.91 1302.47,-229.91"/>
</g>
<!-- WavelengthBins -->
<g id="node40" class="node">
<title>WavelengthBins</title>
<polygon fill="none" stroke="black" points="1177,-200 1045,-200 1045,-177 1177,-177 1177,-200"/>
<text text-anchor="middle" x="1111" y="-184.8" font-family="Times,serif" font-size="14.00">WavelengthBins</text>
</g>
<!-- WavelengthBins&#45;&gt;ReducibleData[SampleRun] -->
<g id="edge39" class="edge">
<title>WavelengthBins:e&#45;&gt;ReducibleData[SampleRun]:w</title>
<path fill="none" stroke="black" d="M1178,-188.5C1236.6,-188.5 1249.05,-222.32 1302.43,-226.15"/>
<polygon fill="black" stroke="black" points="1302.38,-229.65 1312.5,-226.5 1302.63,-222.65 1302.38,-229.65"/>
</g>
<!-- Reference&#45;&gt;ReflectivityOverQ -->
<g id="edge47" class="edge">
<title>Reference:e&#45;&gt;ReflectivityOverQ:w</title>
<path fill="none" stroke="black" d="M1953,-212.5C1999.94,-212.5 2010.17,-240.16 2051.95,-244.05"/>
<polygon fill="black" stroke="black" points="2051.85,-247.55 2062,-244.5 2052.17,-240.55 2051.85,-247.55"/>
</g>
<!-- Sample&#45;&gt;ReflectivityOverQ -->
<g id="edge46" class="edge">
<title>Sample:e&#45;&gt;ReflectivityOverQ:w</title>
<path fill="none" stroke="black" d="M1984,-171.5C2027.77,-171.5 2016.78,-233.54 2051.99,-243.23"/>
<polygon fill="black" stroke="black" points="2051.64,-246.72 2062,-244.5 2052.52,-239.77 2051.64,-246.72"/>
</g>
</g>
</svg>
