<?xml version="1.0" encoding="UTF-8" standalone="no"?>
<!DOCTYPE svg PUBLIC "-//W3C//DTD SVG 1.1//EN"
 "http://www.w3.org/Graphics/SVG/1.1/DTD/svg11.dtd">
<!-- Generated by graphviz version 2.43.0 (0)
 -->
<!-- Title: %3 Pages: 1 -->
<svg width="2148pt" height="884pt"
 viewBox="0.00 0.00 2148.00 883.50" xmlns="http://www.w3.org/2000/svg" xmlns:xlink="http://www.w3.org/1999/xlink">
<g id="graph0" class="graph" transform="scale(1 1) rotate(0) translate(4 879.5)">
<title>%3</title>
<polygon fill="white" stroke="transparent" points="-4,4 -4,-879.5 2144,-879.5 2144,4 -4,4"/>
<g id="clust3" class="cluster">
<title>cluster_BeamSize</title>
<polygon fill="#f0f0ff" stroke="#f0f0ff" points="710,-155.5 710,-241.5 836,-241.5 836,-155.5 710,-155.5"/>
<text text-anchor="middle" x="773" y="-226.3" font-family="Times,serif" font-size="14.00">BeamSize</text>
</g>
<g id="clust4" class="cluster">
<title>cluster_ChopperDistance</title>
<polygon fill="#f0f0ff" stroke="#f0f0ff" points="674,-51.5 674,-147.5 873,-147.5 873,-51.5 674,-51.5"/>
<text text-anchor="start" x="711.5" y="-133.3" font-family="Times,serif" font-size="14.00">ChopperDistance</text>
<text text-anchor="start" x="682" y="-121.7" font-family="Times,serif" font-size="11.00">via:</text>
<text text-anchor="start" x="703" y="-121.7" font-family="Times,serif" font-style="italic" font-size="11.00">load_amor_chopper_distance</text>
</g>
<g id="clust5" class="cluster">
<title>cluster_ChopperFrequency</title>
<polygon fill="#f0f0ff" stroke="#f0f0ff" points="697,-573.5 697,-659.5 850,-659.5 850,-573.5 697,-573.5"/>
<text text-anchor="middle" x="773.5" y="-644.3" font-family="Times,serif" font-size="14.00">ChopperFrequency</text>
</g>
<g id="clust6" class="cluster">
<title>cluster_ChopperPhase</title>
<polygon fill="#f0f0ff" stroke="#f0f0ff" points="710,-479.5 710,-565.5 836,-565.5 836,-479.5 710,-479.5"/>
<text text-anchor="middle" x="773" y="-550.3" font-family="Times,serif" font-size="14.00">ChopperPhase</text>
</g>
<g id="clust7" class="cluster">
<title>cluster_ChopperSeparation</title>
<polygon fill="#f0f0ff" stroke="#f0f0ff" points="667,-375.5 667,-471.5 879,-471.5 879,-375.5 667,-375.5"/>
<text text-anchor="start" x="703.5" y="-457.3" font-family="Times,serif" font-size="14.00">ChopperSeparation</text>
<text text-anchor="start" x="675" y="-445.7" font-family="Times,serif" font-size="11.00">via:</text>
<text text-anchor="start" x="696" y="-445.7" font-family="Times,serif" font-style="italic" font-size="11.00">load_amor_chopper_separation</text>
</g>
<g id="clust8" class="cluster">
<title>cluster_CoordTransformationGraph</title>
<polygon fill="#f0f0ff" stroke="#f0f0ff" points="950.5,-375.5 950.5,-471.5 1174.5,-471.5 1174.5,-375.5 950.5,-375.5"/>
<text text-anchor="start" x="963.5" y="-457.3" font-family="Times,serif" font-size="14.00">CoordTransformationGraph</text>
<text text-anchor="start" x="958.5" y="-445.7" font-family="Times,serif" font-size="11.00">via:</text>
<text text-anchor="start" x="979.5" y="-445.7" font-family="Times,serif" font-style="italic" font-size="11.00">coordinate_transformation_graph</text>
</g>
<g id="clust10" class="cluster">
<title>cluster_DetectorRotation</title>
<polygon fill="#f0f0ff" stroke="#f0f0ff" points="674,-667.5 674,-763.5 873,-763.5 873,-667.5 674,-667.5"/>
<text text-anchor="start" x="711.5" y="-749.3" font-family="Times,serif" font-size="14.00">DetectorRotation</text>
<text text-anchor="start" x="682" y="-737.7" font-family="Times,serif" font-size="11.00">via:</text>
<text text-anchor="start" x="703" y="-737.7" font-family="Times,serif" font-style="italic" font-size="11.00">load_amor_detector_rotation</text>
</g>
<g id="clust12" class="cluster">
<title>cluster_Filename</title>
<polygon fill="#f0f0ff" stroke="#f0f0ff" points="35.5,-429.5 35.5,-515.5 161.5,-515.5 161.5,-429.5 35.5,-429.5"/>
<text text-anchor="middle" x="98.5" y="-500.3" font-family="Times,serif" font-size="14.00">Filename</text>
</g>
<g id="clust19" class="cluster">
<title>cluster_RawChopper</title>
<polygon fill="#f0f0ff" stroke="#f0f0ff" points="369,-375.5 369,-471.5 495,-471.5 495,-375.5 369,-375.5"/>
<text text-anchor="start" x="386" y="-457.3" font-family="Times,serif" font-size="14.00">RawChopper</text>
<text text-anchor="start" x="381.5" y="-445.7" font-family="Times,serif" font-size="11.00">via:</text>
<text text-anchor="start" x="402.5" y="-445.7" font-family="Times,serif" font-style="italic" font-size="11.00">amor_chopper</text>
</g>
<g id="clust21" class="cluster">
<title>cluster_RawSampleRotation</title>
<polygon fill="#f0f0ff" stroke="#f0f0ff" points="336,-647.5 336,-743.5 528,-743.5 528,-647.5 336,-647.5"/>
<text text-anchor="start" x="359.5" y="-729.3" font-family="Times,serif" font-size="14.00">RawSampleRotation</text>
<text text-anchor="start" x="344" y="-717.7" font-family="Times,serif" font-size="11.00">via:</text>
<text text-anchor="start" x="365" y="-717.7" font-family="Times,serif" font-style="italic" font-size="11.00">load_amor_sample_rotation</text>
</g>
<g id="clust27" class="cluster">
<title>cluster_SampleRotationOffset</title>
<polygon fill="#f0f0ff" stroke="#f0f0ff" points="346,-771.5 346,-857.5 519,-857.5 519,-771.5 346,-771.5"/>
<text text-anchor="middle" x="432.5" y="-842.3" font-family="Times,serif" font-size="14.00">SampleRotationOffset</text>
</g>
<g id="clust28" class="cluster">
<title>cluster_SampleRotation</title>
<polygon fill="#f0f0ff" stroke="#f0f0ff" points="686,-771.5 686,-867.5 860,-867.5 860,-771.5 686,-771.5"/>
<text text-anchor="start" x="715.5" y="-853.3" font-family="Times,serif" font-size="14.00">SampleRotation</text>
<text text-anchor="start" x="694" y="-841.7" font-family="Times,serif" font-size="11.00">via:</text>
<text text-anchor="start" x="715" y="-841.7" font-family="Times,serif" font-style="italic" font-size="11.00">correct_sample_rotation</text>
</g>
<g id="clust29" class="cluster">
<title>cluster_SampleSize</title>
<polygon fill="#f0f0ff" stroke="#f0f0ff" points="710,-249.5 710,-335.5 836,-335.5 836,-249.5 710,-249.5"/>
<text text-anchor="middle" x="773" y="-320.3" font-family="Times,serif" font-size="14.00">SampleSize</text>
</g>
<!-- Alpha -->
<g id="node1" class="node">
<title>Alpha</title>
<polygon fill="none" stroke="black" points="1410.5,-274 1353.5,-274 1353.5,-251 1410.5,-251 1410.5,-274"/>
<text text-anchor="middle" x="1382" y="-258.8" font-family="Times,serif" font-size="14.00">Alpha</text>
</g>
<!-- Sample -->
<g id="node42" class="node">
<title>Sample</title>
<polygon fill="none" stroke="black" points="1904,-356 1590,-356 1590,-323 1904,-323 1904,-356"/>
<text text-anchor="start" x="1720" y="-341.8" font-family="Times,serif" font-size="14.00">Sample</text>
<text text-anchor="start" x="1598" y="-330.2" font-family="Times,serif" font-size="11.00">via:</text>
<text text-anchor="start" x="1619" y="-330.2" font-family="Times,serif" font-style="italic" font-size="11.00">mask_events_where_supermirror_does_not_cover</text>
</g>
<!-- Alpha&#45;&gt;Sample -->
<g id="edge54" class="edge">
<title>Alpha:e&#45;&gt;Sample:w</title>
<path fill="none" stroke="black" d="M1412,-262.5C1459.64,-262.5 1474.62,-258.8 1518,-278.5 1552.76,-294.29 1549.15,-331.87 1579.84,-338.49"/>
<polygon fill="black" stroke="black" points="1579.7,-342 1590,-339.5 1580.39,-335.03 1579.7,-342"/>
</g>
<!-- BeamDivergenceLimits -->
<g id="node2" class="node">
<title>BeamDivergenceLimits</title>
<polygon fill="none" stroke="black" points="1154,-503 971,-503 971,-480 1154,-480 1154,-503"/>
<text text-anchor="middle" x="1062.5" y="-487.8" font-family="Times,serif" font-size="14.00">BeamDivergenceLimits</text>
</g>
<!-- QBins -->
<g id="node32" class="node">
<title>QBins</title>
<polygon fill="none" stroke="black" points="1415.5,-535 1348.5,-535 1348.5,-502 1415.5,-502 1415.5,-535"/>
<text text-anchor="start" x="1360.5" y="-520.8" font-family="Times,serif" font-size="14.00">QBins</text>
<text text-anchor="start" x="1356.5" y="-509.2" font-family="Times,serif" font-size="11.00">via:</text>
<text text-anchor="start" x="1377.5" y="-509.2" font-family="Times,serif" font-style="italic" font-size="11.00">qgrid</text>
</g>
<!-- BeamDivergenceLimits&#45;&gt;QBins -->
<g id="edge30" class="edge">
<title>BeamDivergenceLimits:e&#45;&gt;QBins:w</title>
<path fill="none" stroke="black" d="M1155.5,-491.5C1237.93,-491.5 1259.33,-516.33 1336.75,-518.37"/>
<polygon fill="black" stroke="black" points="1336.96,-521.87 1347,-518.5 1337.05,-514.87 1336.96,-521.87"/>
</g>
<!-- ReducibleData[SampleRun] -->
<g id="node38" class="node">
<title>ReducibleData[SampleRun]</title>
<polygon fill="none" stroke="black" points="1518,-365 1246,-365 1246,-332 1518,-332 1518,-365"/>
<text text-anchor="start" x="1283.5" y="-350.8" font-family="Times,serif" font-size="14.00">ReducibleData[SampleRun]</text>
<text text-anchor="start" x="1254" y="-339.2" font-family="Times,serif" font-size="11.00">via:</text>
<text text-anchor="start" x="1275" y="-339.2" font-family="Times,serif" font-style="italic" font-size="11.00">add_coords_masks_and_apply_corrections</text>
</g>
<!-- BeamDivergenceLimits&#45;&gt;ReducibleData[SampleRun] -->
<g id="edge39" class="edge">
<title>BeamDivergenceLimits:e&#45;&gt;ReducibleData[SampleRun]:w</title>
<path fill="none" stroke="black" d="M1155.5,-491.5C1227.04,-491.5 1176.32,-362.12 1235.92,-349.49"/>
<polygon fill="black" stroke="black" points="1236.39,-352.96 1246,-348.5 1235.71,-345.99 1236.39,-352.96"/>
</g>
<!-- BeamSize[ReferenceRun] -->
<g id="node3" class="node">
<title>BeamSize[ReferenceRun]</title>
<polygon fill="none" stroke="black" points="828,-210 718,-210 718,-189 828,-189 828,-210"/>
<text text-anchor="start" x="726" y="-196.4" font-family="Times,serif" font-size="12.00">[ReferenceRun]</text>
</g>
<!-- CoordTransformationGraph[ReferenceRun] -->
<g id="node16" class="node">
<title>CoordTransformationGraph[ReferenceRun]</title>
<polygon fill="none" stroke="black" points="1117.5,-430 1007.5,-430 1007.5,-409 1117.5,-409 1117.5,-430"/>
<text text-anchor="start" x="1015.5" y="-416.4" font-family="Times,serif" font-size="12.00">[ReferenceRun]</text>
</g>
<!-- BeamSize[ReferenceRun]&#45;&gt;CoordTransformationGraph[ReferenceRun] -->
<g id="edge13" class="edge">
<title>BeamSize[ReferenceRun]:e&#45;&gt;CoordTransformationGraph[ReferenceRun]:w</title>
<path fill="none" stroke="black" d="M829,-199.5C860.11,-199.5 861.14,-223.02 879,-248.5 923.01,-311.28 891.57,-356.45 950.5,-405.5 967.37,-419.54 977.58,-419.8 996.25,-419.59"/>
<polygon fill="black" stroke="black" points="996.53,-423.08 1006.5,-419.5 996.47,-416.09 996.53,-423.08"/>
</g>
<!-- BeamSize[SampleRun] -->
<g id="node4" class="node">
<title>BeamSize[SampleRun]</title>
<polygon fill="none" stroke="black" points="820.5,-185 725.5,-185 725.5,-164 820.5,-164 820.5,-185"/>
<text text-anchor="start" x="733.5" y="-171.4" font-family="Times,serif" font-size="12.00">[SampleRun]</text>
</g>
<!-- CoordTransformationGraph[SampleRun] -->
<g id="node21" class="node">
<title>CoordTransformationGraph[SampleRun]</title>
<polygon fill="none" stroke="black" points="1110,-405 1015,-405 1015,-384 1110,-384 1110,-405"/>
<text text-anchor="start" x="1023" y="-391.4" font-family="Times,serif" font-size="12.00">[SampleRun]</text>
</g>
<!-- BeamSize[SampleRun]&#45;&gt;CoordTransformationGraph[SampleRun] -->
<g id="edge21" class="edge">
<title>BeamSize[SampleRun]:e&#45;&gt;CoordTransformationGraph[SampleRun]:w</title>
<path fill="none" stroke="black" d="M822,-174.5C848.2,-174.5 859.27,-172.26 879,-189.5 941.65,-244.24 894.01,-301.42 950.5,-362.5 969.32,-382.85 979.54,-392.21 1003.28,-394.12"/>
<polygon fill="black" stroke="black" points="1003.38,-397.63 1013.5,-394.5 1003.64,-390.63 1003.38,-397.63"/>
</g>
<!-- RawChopper[ReferenceRun] -->
<g id="node5" class="node">
<title>RawChopper[ReferenceRun]</title>
<polygon fill="none" stroke="black" points="487,-430 377,-430 377,-409 487,-409 487,-430"/>
<text text-anchor="start" x="385" y="-416.4" font-family="Times,serif" font-size="12.00">[ReferenceRun]</text>
</g>
<!-- ChopperDistance[ReferenceRun] -->
<g id="node6" class="node">
<title>ChopperDistance[ReferenceRun]</title>
<polygon fill="none" stroke="black" points="828,-106 718,-106 718,-85 828,-85 828,-106"/>
<text text-anchor="start" x="726" y="-92.4" font-family="Times,serif" font-size="12.00">[ReferenceRun]</text>
</g>
<!-- RawChopper[ReferenceRun]&#45;&gt;ChopperDistance[ReferenceRun] -->
<g id="edge1" class="edge">
<title>RawChopper[ReferenceRun]:e&#45;&gt;ChopperDistance[ReferenceRun]:w</title>
<path fill="none" stroke="black" d="M488,-419.5C535.96,-419.5 558.65,-436.79 595,-405.5 704.47,-311.26 575.54,-105.85 706.66,-95.88"/>
<polygon fill="black" stroke="black" points="707.13,-99.36 717,-95.5 706.88,-92.37 707.13,-99.36"/>
</g>
<!-- ChopperSeparation[ReferenceRun] -->
<g id="node13" class="node">
<title>ChopperSeparation[ReferenceRun]</title>
<polygon fill="none" stroke="black" points="828,-430 718,-430 718,-409 828,-409 828,-430"/>
<text text-anchor="start" x="726" y="-416.4" font-family="Times,serif" font-size="12.00">[ReferenceRun]</text>
</g>
<!-- RawChopper[ReferenceRun]&#45;&gt;ChopperSeparation[ReferenceRun] -->
<g id="edge3" class="edge">
<title>RawChopper[ReferenceRun]:e&#45;&gt;ChopperSeparation[ReferenceRun]:w</title>
<path fill="none" stroke="black" d="M488,-419.5C586.3,-419.5 613.39,-419.5 706.83,-419.5"/>
<polygon fill="black" stroke="black" points="707,-423 717,-419.5 707,-416 707,-423"/>
</g>
<!-- ChopperDistance[ReferenceRun]&#45;&gt;CoordTransformationGraph[ReferenceRun] -->
<g id="edge10" class="edge">
<title>ChopperDistance[ReferenceRun]:e&#45;&gt;CoordTransformationGraph[ReferenceRun]:w</title>
<path fill="none" stroke="black" d="M829,-95.5C863.37,-95.5 862.82,-124.18 879,-154.5 933.62,-256.83 867.16,-324.83 950.5,-405.5 966.34,-420.83 977.37,-420.15 996.44,-419.66"/>
<polygon fill="black" stroke="black" points="996.56,-423.16 1006.5,-419.5 996.45,-416.16 996.56,-423.16"/>
</g>
<!-- RawChopper[SampleRun] -->
<g id="node7" class="node">
<title>RawChopper[SampleRun]</title>
<polygon fill="none" stroke="black" points="479.5,-405 384.5,-405 384.5,-384 479.5,-384 479.5,-405"/>
<text text-anchor="start" x="392.5" y="-391.4" font-family="Times,serif" font-size="12.00">[SampleRun]</text>
</g>
<!-- ChopperDistance[SampleRun] -->
<g id="node8" class="node">
<title>ChopperDistance[SampleRun]</title>
<polygon fill="none" stroke="black" points="820.5,-81 725.5,-81 725.5,-60 820.5,-60 820.5,-81"/>
<text text-anchor="start" x="733.5" y="-67.4" font-family="Times,serif" font-size="12.00">[SampleRun]</text>
</g>
<!-- RawChopper[SampleRun]&#45;&gt;ChopperDistance[SampleRun] -->
<g id="edge2" class="edge">
<title>RawChopper[SampleRun]:e&#45;&gt;ChopperDistance[SampleRun]:w</title>
<path fill="none" stroke="black" d="M481,-394.5C548.11,-394.5 557.5,-351.15 595,-295.5 650.14,-213.68 594.73,-152.68 667,-85.5 683.49,-70.17 694.39,-70.11 713.75,-70.4"/>
<polygon fill="black" stroke="black" points="713.97,-73.9 724,-70.5 714.04,-66.9 713.97,-73.9"/>
</g>
<!-- ChopperSeparation[SampleRun] -->
<g id="node14" class="node">
<title>ChopperSeparation[SampleRun]</title>
<polygon fill="none" stroke="black" points="820.5,-405 725.5,-405 725.5,-384 820.5,-384 820.5,-405"/>
<text text-anchor="start" x="733.5" y="-391.4" font-family="Times,serif" font-size="12.00">[SampleRun]</text>
</g>
<!-- RawChopper[SampleRun]&#45;&gt;ChopperSeparation[SampleRun] -->
<g id="edge4" class="edge">
<title>RawChopper[SampleRun]:e&#45;&gt;ChopperSeparation[SampleRun]:w</title>
<path fill="none" stroke="black" d="M481,-394.5C585.52,-394.5 614.18,-394.5 713.81,-394.5"/>
<polygon fill="black" stroke="black" points="714,-398 724,-394.5 714,-391 714,-398"/>
</g>
<!-- ChopperDistance[SampleRun]&#45;&gt;CoordTransformationGraph[SampleRun] -->
<g id="edge18" class="edge">
<title>ChopperDistance[SampleRun]:e&#45;&gt;CoordTransformationGraph[SampleRun]:w</title>
<path fill="none" stroke="black" d="M822,-70.5C848.2,-70.5 860.52,-66.93 879,-85.5 968.69,-175.62 870.88,-263.37 950.5,-362.5 967.86,-384.12 979.19,-392.51 1003.22,-394.18"/>
<polygon fill="black" stroke="black" points="1003.39,-397.68 1013.5,-394.5 1003.62,-390.69 1003.39,-397.68"/>
</g>
<!-- ChopperFrequency[ReferenceRun] -->
<g id="node9" class="node">
<title>ChopperFrequency[ReferenceRun]</title>
<polygon fill="none" stroke="black" points="828,-628 718,-628 718,-607 828,-607 828,-628"/>
<text text-anchor="start" x="726" y="-614.4" font-family="Times,serif" font-size="12.00">[ReferenceRun]</text>
</g>
<!-- ChopperFrequency[ReferenceRun]&#45;&gt;CoordTransformationGraph[ReferenceRun] -->
<g id="edge9" class="edge">
<title>ChopperFrequency[ReferenceRun]:e&#45;&gt;CoordTransformationGraph[ReferenceRun]:w</title>
<path fill="none" stroke="black" d="M829,-617.5C852.08,-617.5 860.8,-617.69 879,-603.5 954.63,-544.54 910.49,-428.3 996.29,-419.97"/>
<polygon fill="black" stroke="black" points="996.67,-423.46 1006.5,-419.5 996.35,-416.47 996.67,-423.46"/>
</g>
<!-- ChopperFrequency[SampleRun] -->
<g id="node10" class="node">
<title>ChopperFrequency[SampleRun]</title>
<polygon fill="none" stroke="black" points="820.5,-603 725.5,-603 725.5,-582 820.5,-582 820.5,-603"/>
<text text-anchor="start" x="733.5" y="-589.4" font-family="Times,serif" font-size="12.00">[SampleRun]</text>
</g>
<!-- ChopperFrequency[SampleRun]&#45;&gt;CoordTransformationGraph[SampleRun] -->
<g id="edge17" class="edge">
<title>ChopperFrequency[SampleRun]:e&#45;&gt;CoordTransformationGraph[SampleRun]:w</title>
<path fill="none" stroke="black" d="M822,-592.5C849.84,-592.5 859.32,-586.19 879,-566.5 933.2,-512.27 891.3,-458.22 950.5,-409.5 969.95,-393.5 981.56,-394.01 1003.44,-394.39"/>
<polygon fill="black" stroke="black" points="1003.46,-397.89 1013.5,-394.5 1003.54,-390.9 1003.46,-397.89"/>
</g>
<!-- ChopperPhase[ReferenceRun] -->
<g id="node11" class="node">
<title>ChopperPhase[ReferenceRun]</title>
<polygon fill="none" stroke="black" points="828,-534 718,-534 718,-513 828,-513 828,-534"/>
<text text-anchor="start" x="726" y="-520.4" font-family="Times,serif" font-size="12.00">[ReferenceRun]</text>
</g>
<!-- ChopperPhase[ReferenceRun]&#45;&gt;CoordTransformationGraph[ReferenceRun] -->
<g id="edge8" class="edge">
<title>ChopperPhase[ReferenceRun]:e&#45;&gt;CoordTransformationGraph[ReferenceRun]:w</title>
<path fill="none" stroke="black" d="M829,-523.5C916.86,-523.5 915.34,-427.47 996.22,-419.96"/>
<polygon fill="black" stroke="black" points="996.67,-423.45 1006.5,-419.5 996.35,-416.45 996.67,-423.45"/>
</g>
<!-- ChopperPhase[SampleRun] -->
<g id="node12" class="node">
<title>ChopperPhase[SampleRun]</title>
<polygon fill="none" stroke="black" points="820.5,-509 725.5,-509 725.5,-488 820.5,-488 820.5,-509"/>
<text text-anchor="start" x="733.5" y="-495.4" font-family="Times,serif" font-size="12.00">[SampleRun]</text>
</g>
<!-- ChopperPhase[SampleRun]&#45;&gt;CoordTransformationGraph[SampleRun] -->
<g id="edge16" class="edge">
<title>ChopperPhase[SampleRun]:e&#45;&gt;CoordTransformationGraph[SampleRun]:w</title>
<path fill="none" stroke="black" d="M822,-498.5C891.47,-498.5 888.82,-441.46 950.5,-409.5 972.76,-397.97 982.2,-395.14 1003.29,-394.61"/>
<polygon fill="black" stroke="black" points="1003.54,-398.11 1013.5,-394.5 1003.46,-391.11 1003.54,-398.11"/>
</g>
<!-- ChopperSeparation[ReferenceRun]&#45;&gt;CoordTransformationGraph[ReferenceRun] -->
<g id="edge11" class="edge">
<title>ChopperSeparation[ReferenceRun]:e&#45;&gt;CoordTransformationGraph[ReferenceRun]:w</title>
<path fill="none" stroke="black" d="M829,-419.5C904.35,-419.5 925.72,-419.5 996.22,-419.5"/>
<polygon fill="black" stroke="black" points="996.5,-423 1006.5,-419.5 996.5,-416 996.5,-423"/>
</g>
<!-- ChopperSeparation[SampleRun]&#45;&gt;CoordTransformationGraph[SampleRun] -->
<g id="edge19" class="edge">
<title>ChopperSeparation[SampleRun]:e&#45;&gt;CoordTransformationGraph[SampleRun]:w</title>
<path fill="none" stroke="black" d="M822,-394.5C903.62,-394.5 926.54,-394.5 1003.34,-394.5"/>
<polygon fill="black" stroke="black" points="1003.5,-398 1013.5,-394.5 1003.5,-391 1003.5,-398"/>
</g>
<!-- GravityToggle -->
<g id="node15" class="node">
<title>GravityToggle</title>
<polygon fill="none" stroke="black" points="831.5,-367 714.5,-367 714.5,-344 831.5,-344 831.5,-367"/>
<text text-anchor="middle" x="773" y="-351.8" font-family="Times,serif" font-size="14.00">GravityToggle</text>
</g>
<!-- GravityToggle&#45;&gt;CoordTransformationGraph[ReferenceRun] -->
<g id="edge5" class="edge">
<title>GravityToggle:e&#45;&gt;CoordTransformationGraph[ReferenceRun]:w</title>
<path fill="none" stroke="black" stroke-width="2" d="M833,-355.5C886.87,-355.5 909.35,-383 941.6,-401.95"/>
<polygon fill="black" stroke="black" stroke-width="2" points="940.05,-405.09 950.5,-406.79 943.39,-398.94 940.05,-405.09"/>
</g>
<!-- Reference -->
<g id="node41" class="node">
<title>Reference</title>
<polygon fill="none" stroke="black" points="1872,-406 1622,-406 1622,-373 1872,-373 1872,-406"/>
<text text-anchor="start" x="1710.5" y="-391.8" font-family="Times,serif" font-size="14.00">Reference</text>
<text text-anchor="start" x="1630" y="-380.2" font-family="Times,serif" font-size="11.00">via:</text>
<text text-anchor="start" x="1651" y="-380.2" font-family="Times,serif" font-style="italic" font-size="11.00">evaluate_reference_at_sample_coords</text>
</g>
<!-- CoordTransformationGraph[ReferenceRun]&#45;&gt;Reference -->
<g id="edge46" class="edge">
<title>CoordTransformationGraph[ReferenceRun]:e&#45;&gt;Reference:w</title>
<path fill="none" stroke="black" d="M1118.5,-419.5C1296.06,-419.5 1342.22,-444.58 1518,-419.5 1561.7,-413.27 1571.9,-392.86 1611.01,-389.87"/>
<polygon fill="black" stroke="black" points="1611.14,-393.37 1621,-389.5 1610.88,-386.37 1611.14,-393.37"/>
</g>
<!-- DetectorRotation[ReferenceRun] -->
<g id="node17" class="node">
<title>DetectorRotation[ReferenceRun]</title>
<polygon fill="none" stroke="black" points="828,-722 718,-722 718,-701 828,-701 828,-722"/>
<text text-anchor="start" x="726" y="-708.4" font-family="Times,serif" font-size="12.00">[ReferenceRun]</text>
</g>
<!-- DetectorRotation[ReferenceRun]&#45;&gt;CoordTransformationGraph[ReferenceRun] -->
<g id="edge6" class="edge">
<title>DetectorRotation[ReferenceRun]:e&#45;&gt;CoordTransformationGraph[ReferenceRun]:w</title>
<path fill="none" stroke="black" d="M829,-711.5C945.79,-711.5 890.71,-578.82 950.5,-478.5 967.13,-450.6 969.9,-425.21 996.51,-420.34"/>
<polygon fill="black" stroke="black" points="996.83,-423.82 1006.5,-419.5 996.24,-416.85 996.83,-423.82"/>
</g>
<!-- SampleRotation[ReferenceRun] -->
<g id="node18" class="node">
<title>SampleRotation[ReferenceRun]</title>
<polygon fill="none" stroke="black" points="828,-826 718,-826 718,-805 828,-805 828,-826"/>
<text text-anchor="start" x="726" y="-812.4" font-family="Times,serif" font-size="12.00">[ReferenceRun]</text>
</g>
<!-- SampleRotation[ReferenceRun]&#45;&gt;CoordTransformationGraph[ReferenceRun] -->
<g id="edge7" class="edge">
<title>SampleRotation[ReferenceRun]:e&#45;&gt;CoordTransformationGraph[ReferenceRun]:w</title>
<path fill="none" stroke="black" d="M829,-815.5C1018.39,-815.5 821.02,-433.68 996.43,-419.88"/>
<polygon fill="black" stroke="black" points="996.64,-423.38 1006.5,-419.5 996.37,-416.38 996.64,-423.38"/>
</g>
<!-- SampleSize[ReferenceRun] -->
<g id="node19" class="node">
<title>SampleSize[ReferenceRun]</title>
<polygon fill="none" stroke="black" points="828,-304 718,-304 718,-283 828,-283 828,-304"/>
<text text-anchor="start" x="726" y="-290.4" font-family="Times,serif" font-size="12.00">[ReferenceRun]</text>
</g>
<!-- SampleSize[ReferenceRun]&#45;&gt;CoordTransformationGraph[ReferenceRun] -->
<g id="edge12" class="edge">
<title>SampleSize[ReferenceRun]:e&#45;&gt;CoordTransformationGraph[ReferenceRun]:w</title>
<path fill="none" stroke="black" d="M829,-293.5C902.44,-293.5 885.87,-370.62 950.5,-405.5 969.73,-415.88 978.21,-418.73 996.15,-419.35"/>
<polygon fill="black" stroke="black" points="996.45,-422.86 1006.5,-419.5 996.55,-415.86 996.45,-422.86"/>
</g>
<!-- DetectorRotation[SampleRun] -->
<g id="node20" class="node">
<title>DetectorRotation[SampleRun]</title>
<polygon fill="none" stroke="black" points="820.5,-697 725.5,-697 725.5,-676 820.5,-676 820.5,-697"/>
<text text-anchor="start" x="733.5" y="-683.4" font-family="Times,serif" font-size="12.00">[SampleRun]</text>
</g>
<!-- DetectorRotation[SampleRun]&#45;&gt;CoordTransformationGraph[SampleRun] -->
<g id="edge14" class="edge">
<title>DetectorRotation[SampleRun]:e&#45;&gt;CoordTransformationGraph[SampleRun]:w</title>
<path fill="none" stroke="black" d="M822,-686.5C957.71,-686.5 852.46,-503.34 950.5,-409.5 968.69,-392.09 981.25,-393.66 1003.38,-394.33"/>
<polygon fill="black" stroke="black" points="1003.44,-397.83 1013.5,-394.5 1003.56,-390.83 1003.44,-397.83"/>
</g>
<!-- DetectorRotation[SampleRun]&#45;&gt;QBins -->
<g id="edge27" class="edge">
<title>DetectorRotation[SampleRun]:e&#45;&gt;QBins:w</title>
<path fill="none" stroke="black" d="M822,-686.5C1063.52,-686.5 1100.98,-523.22 1336.72,-518.6"/>
<polygon fill="black" stroke="black" points="1337.03,-522.1 1347,-518.5 1336.97,-515.1 1337.03,-522.1"/>
</g>
<!-- CoordTransformationGraph[SampleRun]&#45;&gt;ReducibleData[SampleRun] -->
<g id="edge42" class="edge">
<title>CoordTransformationGraph[SampleRun]:e&#45;&gt;ReducibleData[SampleRun]:w</title>
<path fill="none" stroke="black" d="M1111.5,-394.5C1171.1,-394.5 1181.72,-353.56 1235.77,-348.93"/>
<polygon fill="black" stroke="black" points="1236.15,-352.41 1246,-348.5 1235.86,-345.42 1236.15,-352.41"/>
</g>
<!-- SampleRotation[SampleRun] -->
<g id="node22" class="node">
<title>SampleRotation[SampleRun]</title>
<polygon fill="none" stroke="black" points="820.5,-801 725.5,-801 725.5,-780 820.5,-780 820.5,-801"/>
<text text-anchor="start" x="733.5" y="-787.4" font-family="Times,serif" font-size="12.00">[SampleRun]</text>
</g>
<!-- SampleRotation[SampleRun]&#45;&gt;CoordTransformationGraph[SampleRun] -->
<g id="edge15" class="edge">
<title>SampleRotation[SampleRun]:e&#45;&gt;CoordTransformationGraph[SampleRun]:w</title>
<path fill="none" stroke="black" d="M822,-790.5C1012.65,-790.5 867.62,-495.33 950.5,-409.5 967.99,-391.38 981.07,-393.49 1003.35,-394.3"/>
<polygon fill="black" stroke="black" points="1003.43,-397.8 1013.5,-394.5 1003.57,-390.8 1003.43,-397.8"/>
</g>
<!-- SampleRotation[SampleRun]&#45;&gt;QBins -->
<g id="edge28" class="edge">
<title>SampleRotation[SampleRun]:e&#45;&gt;QBins:w</title>
<path fill="none" stroke="black" d="M822,-790.5C835.3,-790.5 897.67,-760.41 1174.5,-613.5 1248.64,-574.15 1258.73,-522.91 1336.62,-518.77"/>
<polygon fill="black" stroke="black" points="1337.09,-522.26 1347,-518.5 1336.91,-515.26 1337.09,-522.26"/>
</g>
<!-- SampleSize[SampleRun] -->
<g id="node23" class="node">
<title>SampleSize[SampleRun]</title>
<polygon fill="none" stroke="black" points="820.5,-279 725.5,-279 725.5,-258 820.5,-258 820.5,-279"/>
<text text-anchor="start" x="733.5" y="-265.4" font-family="Times,serif" font-size="12.00">[SampleRun]</text>
</g>
<!-- SampleSize[SampleRun]&#45;&gt;CoordTransformationGraph[SampleRun] -->
<g id="edge20" class="edge">
<title>SampleSize[SampleRun]:e&#45;&gt;CoordTransformationGraph[SampleRun]:w</title>
<path fill="none" stroke="black" d="M822,-268.5C848.2,-268.5 856.62,-269.89 879,-283.5 942.12,-321.88 936.69,-387.94 1003.16,-394.04"/>
<polygon fill="black" stroke="black" points="1003.36,-397.56 1013.5,-394.5 1003.66,-390.56 1003.36,-397.56"/>
</g>
<!-- CriticalEdge -->
<g id="node24" class="node">
<title>CriticalEdge</title>
<polygon fill="none" stroke="black" points="1435,-328 1329,-328 1329,-305 1435,-305 1435,-328"/>
<text text-anchor="middle" x="1382" y="-312.8" font-family="Times,serif" font-size="14.00">CriticalEdge</text>
</g>
<!-- CriticalEdge&#45;&gt;Sample -->
<g id="edge52" class="edge">
<title>CriticalEdge:e&#45;&gt;Sample:w</title>
<path fill="none" stroke="black" d="M1436,-316.5C1501.69,-316.5 1519.07,-337.22 1579.86,-339.33"/>
<polygon fill="black" stroke="black" points="1579.94,-342.83 1590,-339.5 1580.06,-335.83 1579.94,-342.83"/>
</g>
<!-- Filename[ReferenceRun] -->
<g id="node25" class="node">
<title>Filename[ReferenceRun]</title>
<polygon fill="none" stroke="black" points="153.5,-484 43.5,-484 43.5,-463 153.5,-463 153.5,-484"/>
<text text-anchor="start" x="51.5" y="-470.4" font-family="Times,serif" font-size="12.00">[ReferenceRun]</text>
</g>
<!-- Filename[ReferenceRun]&#45;&gt;RawChopper[ReferenceRun] -->
<g id="edge31" class="edge">
<title>Filename[ReferenceRun]:e&#45;&gt;RawChopper[ReferenceRun]:w</title>
<path fill="none" stroke="black" d="M154.5,-473.5C252.36,-473.5 273.29,-423.13 365.89,-419.68"/>
<polygon fill="black" stroke="black" points="366.07,-423.18 376,-419.5 365.94,-416.18 366.07,-423.18"/>
</g>
<!-- Filename[ReferenceRun]&#45;&gt;DetectorRotation[ReferenceRun] -->
<g id="edge22" class="edge">
<title>Filename[ReferenceRun]:e&#45;&gt;DetectorRotation[ReferenceRun]:w</title>
<path fill="none" stroke="black" d="M154.5,-473.5C207.08,-473.5 548.73,-621.51 595,-646.5 645.89,-673.99 654.64,-707.33 706.75,-711.14"/>
<polygon fill="black" stroke="black" points="706.88,-714.65 717,-711.5 707.13,-707.65 706.88,-714.65"/>
</g>
<!-- RawSampleRotation[ReferenceRun] -->
<g id="node35" class="node">
<title>RawSampleRotation[ReferenceRun]</title>
<polygon fill="none" stroke="black" points="487,-702 377,-702 377,-681 487,-681 487,-702"/>
<text text-anchor="start" x="385" y="-688.4" font-family="Times,serif" font-size="12.00">[ReferenceRun]</text>
</g>
<!-- Filename[ReferenceRun]&#45;&gt;RawSampleRotation[ReferenceRun] -->
<g id="edge34" class="edge">
<title>Filename[ReferenceRun]:e&#45;&gt;RawSampleRotation[ReferenceRun]:w</title>
<path fill="none" stroke="black" d="M154.5,-473.5C258.47,-473.5 182.88,-619.25 269,-677.5 305.78,-702.38 325.06,-693.19 365.77,-691.69"/>
<polygon fill="black" stroke="black" points="366.07,-695.19 376,-691.5 365.94,-688.19 366.07,-695.19"/>
</g>
<!-- Filename[SampleRun] -->
<g id="node26" class="node">
<title>Filename[SampleRun]</title>
<polygon fill="none" stroke="red" stroke-dasharray="5,2" points="146,-459 51,-459 51,-438 146,-438 146,-459"/>
<text text-anchor="start" x="59" y="-445.4" font-family="Times,serif" font-size="12.00" fill="red">[SampleRun]</text>
</g>
<!-- Filename[SampleRun]&#45;&gt;RawChopper[SampleRun] -->
<g id="edge32" class="edge">
<title>Filename[SampleRun]:e&#45;&gt;RawChopper[SampleRun]:w</title>
<path fill="none" stroke="black" d="M147.5,-448.5C204.21,-448.5 213.66,-421.92 269,-409.5 315.36,-399.1 329.88,-395.07 372.76,-394.56"/>
<polygon fill="black" stroke="black" points="373.02,-398.06 383,-394.5 372.98,-391.06 373.02,-398.06"/>
</g>
<!-- Filename[SampleRun]&#45;&gt;DetectorRotation[SampleRun] -->
<g id="edge23" class="edge">
<title>Filename[SampleRun]:e&#45;&gt;DetectorRotation[SampleRun]:w</title>
<path fill="none" stroke="black" d="M147.5,-448.5C202.54,-448.5 214.62,-463.97 269,-472.5 341.05,-483.8 535.63,-468.14 595,-510.5 655.2,-553.45 614.2,-608.72 667,-660.5 684.24,-677.41 693.5,-684.54 713.82,-686.14"/>
<polygon fill="black" stroke="black" points="713.88,-689.64 724,-686.5 714.13,-682.65 713.88,-689.64"/>
</g>
<!-- NeXusComponent[NXdetector, SampleRun] -->
<g id="node29" class="node">
<title>NeXusComponent[NXdetector, SampleRun]</title>
<polygon fill="none" stroke="black" points="595,-108 269,-108 269,-75 595,-75 595,-108"/>
<text text-anchor="start" x="277" y="-93.8" font-family="Times,serif" font-size="14.00">NeXusComponent[NXdetector, SampleRun]</text>
<text text-anchor="start" x="383" y="-82.2" font-family="Times,serif" font-size="11.00">via:</text>
<text text-anchor="start" x="404" y="-82.2" font-family="Times,serif" font-style="italic" font-size="11.00">load_detector</text>
</g>
<!-- Filename[SampleRun]&#45;&gt;NeXusComponent[NXdetector, SampleRun] -->
<g id="edge24" class="edge">
<title>Filename[SampleRun]:e&#45;&gt;NeXusComponent[NXdetector, SampleRun]:w</title>
<path fill="none" stroke="black" d="M147.5,-448.5C311.5,-448.5 110.4,-106.68 258.72,-91.99"/>
<polygon fill="black" stroke="black" points="259.18,-95.47 269,-91.5 258.85,-88.48 259.18,-95.47"/>
</g>
<!-- ProtonCurrent[SampleRun] -->
<g id="node31" class="node">
<title>ProtonCurrent[SampleRun]</title>
<polygon fill="none" stroke="black" points="538.5,-293 325.5,-293 325.5,-260 538.5,-260 538.5,-293"/>
<text text-anchor="start" x="333.5" y="-278.8" font-family="Times,serif" font-size="14.00">ProtonCurrent[SampleRun]</text>
<text text-anchor="start" x="347.5" y="-267.2" font-family="Times,serif" font-size="11.00">via:</text>
<text text-anchor="start" x="368.5" y="-267.2" font-family="Times,serif" font-style="italic" font-size="11.00">load_amor_proton_current</text>
</g>
<!-- Filename[SampleRun]&#45;&gt;ProtonCurrent[SampleRun] -->
<g id="edge26" class="edge">
<title>Filename[SampleRun]:e&#45;&gt;ProtonCurrent[SampleRun]:w</title>
<path fill="none" stroke="black" d="M147.5,-448.5C253.81,-448.5 217.71,-287.41 314.84,-277.02"/>
<polygon fill="black" stroke="black" points="315.19,-280.51 325,-276.5 314.83,-273.52 315.19,-280.51"/>
</g>
<!-- RawSampleRotation[SampleRun] -->
<g id="node36" class="node">
<title>RawSampleRotation[SampleRun]</title>
<polygon fill="none" stroke="black" points="479.5,-677 384.5,-677 384.5,-656 479.5,-656 479.5,-677"/>
<text text-anchor="start" x="392.5" y="-663.4" font-family="Times,serif" font-size="12.00">[SampleRun]</text>
</g>
<!-- Filename[SampleRun]&#45;&gt;RawSampleRotation[SampleRun] -->
<g id="edge35" class="edge">
<title>Filename[SampleRun]:e&#45;&gt;RawSampleRotation[SampleRun]:w</title>
<path fill="none" stroke="black" d="M147.5,-448.5C286.65,-448.5 242.69,-655.99 372.89,-666.12"/>
<polygon fill="black" stroke="black" points="372.87,-669.62 383,-666.5 373.14,-662.62 372.87,-669.62"/>
</g>
<!-- DetectorSpatialResolution -->
<g id="node27" class="node">
<title>DetectorSpatialResolution</title>
<polygon fill="none" stroke="black" points="1484.5,-419 1279.5,-419 1279.5,-396 1484.5,-396 1484.5,-419"/>
<text text-anchor="middle" x="1382" y="-403.8" font-family="Times,serif" font-size="14.00">DetectorSpatialResolution</text>
</g>
<!-- DetectorSpatialResolution&#45;&gt;Reference -->
<g id="edge45" class="edge">
<title>DetectorSpatialResolution:e&#45;&gt;Reference:w</title>
<path fill="none" stroke="black" d="M1485,-407.5C1542.4,-407.5 1558.22,-391.55 1610.75,-389.68"/>
<polygon fill="black" stroke="black" points="1611.06,-393.17 1621,-389.5 1610.94,-386.17 1611.06,-393.17"/>
</g>
<!-- MValue -->
<g id="node28" class="node">
<title>MValue</title>
<polygon fill="none" stroke="black" points="1417,-301 1347,-301 1347,-278 1417,-278 1417,-301"/>
<text text-anchor="middle" x="1382" y="-285.8" font-family="Times,serif" font-size="14.00">MValue</text>
</g>
<!-- MValue&#45;&gt;Sample -->
<g id="edge53" class="edge">
<title>MValue:e&#45;&gt;Sample:w</title>
<path fill="none" stroke="black" d="M1418,-289.5C1463.01,-289.5 1475,-292.2 1518,-305.5 1548.24,-314.85 1553.68,-334.68 1579.82,-338.76"/>
<polygon fill="black" stroke="black" points="1579.77,-342.26 1590,-339.5 1580.28,-335.28 1579.77,-342.26"/>
</g>
<!-- RawDetector[SampleRun] -->
<g id="node34" class="node">
<title>RawDetector[SampleRun]</title>
<polygon fill="none" stroke="black" points="874,-33 672,-33 672,0 874,0 874,-33"/>
<text text-anchor="start" x="680" y="-18.8" font-family="Times,serif" font-size="14.00">RawDetector[SampleRun]</text>
<text text-anchor="start" x="729" y="-7.2" font-family="Times,serif" font-size="11.00">via:</text>
<text text-anchor="start" x="750" y="-7.2" font-family="Times,serif" font-style="italic" font-size="11.00">load_events</text>
</g>
<!-- NeXusComponent[NXdetector, SampleRun]&#45;&gt;RawDetector[SampleRun] -->
<g id="edge33" class="edge">
<title>NeXusComponent[NXdetector, SampleRun]:e&#45;&gt;RawDetector[SampleRun]:w</title>
<path fill="none" stroke="black" d="M595,-91.5C638.75,-91.5 626.09,-27.76 661.03,-17.8"/>
<polygon fill="black" stroke="black" points="661.54,-21.27 671,-16.5 660.63,-14.32 661.54,-21.27"/>
</g>
<!-- NeXusName[NXdetector] -->
<g id="node30" class="node">
<title>NeXusName[NXdetector]</title>
<polygon fill="none" stroke="black" points="197,-103 0,-103 0,-80 197,-80 197,-103"/>
<text text-anchor="middle" x="98.5" y="-87.8" font-family="Times,serif" font-size="14.00">NeXusName[NXdetector]</text>
</g>
<!-- NeXusName[NXdetector]&#45;&gt;NeXusComponent[NXdetector, SampleRun] -->
<g id="edge25" class="edge">
<title>NeXusName[NXdetector]:e&#45;&gt;NeXusComponent[NXdetector, SampleRun]:w</title>
<path fill="none" stroke="black" d="M197,-91.5C225.38,-91.5 234.88,-91.5 258.98,-91.5"/>
<polygon fill="black" stroke="black" points="259,-95 269,-91.5 259,-88 259,-95"/>
</g>
<!-- ProtonCurrent[SampleRun]&#45;&gt;ReducibleData[SampleRun] -->
<g id="edge41" class="edge">
<title>ProtonCurrent[SampleRun]:e&#45;&gt;ReducibleData[SampleRun]:w</title>
<path fill="none" stroke="black" d="M539,-276.5C654.44,-276.5 567.27,-108.63 667,-50.5 707.7,-26.78 834.6,-34.74 879,-50.5 974.91,-84.54 1130.82,-332.29 1235.99,-347.74"/>
<polygon fill="black" stroke="black" points="1235.77,-351.24 1246,-348.5 1236.29,-344.26 1235.77,-351.24"/>
</g>
<!-- ReflectivityOverQ -->
<g id="node43" class="node">
<title>ReflectivityOverQ</title>
<polygon fill="none" stroke="black" points="2140,-406 1976,-406 1976,-373 2140,-373 2140,-406"/>
<text text-anchor="start" x="1994.5" y="-391.8" font-family="Times,serif" font-size="14.00">ReflectivityOverQ</text>
<text text-anchor="start" x="1984" y="-380.2" font-family="Times,serif" font-size="11.00">via:</text>
<text text-anchor="start" x="2005" y="-380.2" font-family="Times,serif" font-style="italic" font-size="11.00">reduce_sample_over_q</text>
</g>
<!-- QBins&#45;&gt;ReflectivityOverQ -->
<g id="edge49" class="edge">
<title>QBins:e&#45;&gt;ReflectivityOverQ:w</title>
<path fill="none" stroke="black" d="M1417,-518.5C1638.9,-518.5 1688.47,-461.26 1904,-408.5 1932.5,-401.52 1941.05,-391.98 1965.69,-389.91"/>
<polygon fill="black" stroke="black" points="1966.15,-393.39 1976,-389.5 1965.87,-386.4 1966.15,-393.39"/>
</g>
<!-- WavelengthBins -->
<g id="node33" class="node">
<title>WavelengthBins</title>
<polygon fill="none" stroke="black" points="1128.5,-530 996.5,-530 996.5,-507 1128.5,-507 1128.5,-530"/>
<text text-anchor="middle" x="1062.5" y="-514.8" font-family="Times,serif" font-size="14.00">WavelengthBins</text>
</g>
<!-- WavelengthBins&#45;&gt;QBins -->
<g id="edge29" class="edge">
<title>WavelengthBins:e&#45;&gt;QBins:w</title>
<path fill="none" stroke="black" d="M1129.5,-518.5C1222.67,-518.5 1248.49,-518.5 1336.8,-518.5"/>
<polygon fill="black" stroke="black" points="1337,-522 1347,-518.5 1337,-515 1337,-522"/>
</g>
<!-- WavelengthBins&#45;&gt;ReducibleData[SampleRun] -->
<g id="edge40" class="edge">
<title>WavelengthBins:e&#45;&gt;ReducibleData[SampleRun]:w</title>
<path fill="none" stroke="black" d="M1129.5,-518.5C1150.58,-518.5 1158.79,-517.56 1174.5,-503.5 1228.26,-455.37 1175.8,-358.57 1235.84,-349.23"/>
<polygon fill="black" stroke="black" points="1236.28,-352.71 1246,-348.5 1235.78,-345.72 1236.28,-352.71"/>
</g>
<!-- RawDetector[SampleRun]&#45;&gt;ReducibleData[SampleRun] -->
<g id="edge36" class="edge">
<title>RawDetector[SampleRun]:e&#45;&gt;ReducibleData[SampleRun]:w</title>
<path fill="none" stroke="black" d="M875,-16.5C908.7,-16.5 916.9,-20.89 950.5,-23.5 975.36,-25.43 1155.49,-21.37 1174.5,-37.5 1279.9,-126.93 1113.05,-337.45 1235.81,-348.08"/>
<polygon fill="black" stroke="black" points="1235.86,-351.59 1246,-348.5 1236.15,-344.59 1235.86,-351.59"/>
</g>
<!-- RawSampleRotation[ReferenceRun]&#45;&gt;SampleRotation[ReferenceRun] -->
<g id="edge55" class="edge">
<title>RawSampleRotation[ReferenceRun]:e&#45;&gt;SampleRotation[ReferenceRun]:w</title>
<path fill="none" stroke="black" d="M488,-691.5C600.24,-691.5 601.3,-808.11 706.81,-815.17"/>
<polygon fill="black" stroke="black" points="706.89,-818.67 717,-815.5 707.12,-811.67 706.89,-818.67"/>
</g>
<!-- RawSampleRotation[SampleRun]&#45;&gt;SampleRotation[SampleRun] -->
<g id="edge57" class="edge">
<title>RawSampleRotation[SampleRun]:e&#45;&gt;SampleRotation[SampleRun]:w</title>
<path fill="none" stroke="black" d="M481,-666.5C532.1,-666.5 550,-657.29 595,-681.5 658,-715.39 649.91,-783.7 714,-790.03"/>
<polygon fill="black" stroke="black" points="713.85,-793.52 724,-790.5 714.18,-786.53 713.85,-793.52"/>
</g>
<!-- ReducedReference -->
<g id="node37" class="node">
<title>ReducedReference</title>
<polygon fill="none" stroke="black" points="1457,-392 1307,-392 1307,-369 1457,-369 1457,-392"/>
<text text-anchor="middle" x="1382" y="-376.8" font-family="Times,serif" font-size="14.00">ReducedReference</text>
</g>
<!-- ReducedReference&#45;&gt;Reference -->
<g id="edge43" class="edge">
<title>ReducedReference:e&#45;&gt;Reference:w</title>
<path fill="none" stroke="black" d="M1458,-380.5C1527.01,-380.5 1546.57,-388.64 1610.75,-389.44"/>
<polygon fill="black" stroke="black" points="1610.98,-392.94 1621,-389.5 1611.02,-385.94 1610.98,-392.94"/>
</g>
<!-- ReducedReference&#45;&gt;Sample -->
<g id="edge51" class="edge">
<title>ReducedReference:e&#45;&gt;Sample:w</title>
<path fill="none" stroke="black" d="M1458,-380.5C1485.49,-380.5 1491.71,-373.51 1518,-365.5 1546.99,-356.67 1554.46,-342.94 1579.79,-340.05"/>
<polygon fill="black" stroke="black" points="1580.2,-343.53 1590,-339.5 1579.83,-336.54 1580.2,-343.53"/>
</g>
<!-- ReducibleData[SampleRun]&#45;&gt;Reference -->
<g id="edge44" class="edge">
<title>ReducibleData[SampleRun]:e&#45;&gt;Reference:w</title>
<path fill="none" stroke="black" d="M1518,-348.5C1563.71,-348.5 1570.85,-383.79 1610.99,-388.89"/>
<polygon fill="black" stroke="black" points="1610.81,-392.38 1621,-389.5 1611.23,-385.4 1610.81,-392.38"/>
</g>
<!-- ReducibleData[SampleRun]&#45;&gt;Sample -->
<g id="edge50" class="edge">
<title>ReducibleData[SampleRun]:e&#45;&gt;Sample:w</title>
<path fill="none" stroke="black" d="M1518,-348.5C1546.6,-348.5 1555.73,-341.42 1579.92,-339.82"/>
<polygon fill="black" stroke="black" points="1580.12,-343.32 1590,-339.5 1579.89,-336.32 1580.12,-343.32"/>
</g>
<!-- YIndexLimits -->
<g id="node39" class="node">
<title>YIndexLimits</title>
<polygon fill="none" stroke="black" points="1117.5,-23 1007.5,-23 1007.5,0 1117.5,0 1117.5,-23"/>
<text text-anchor="middle" x="1062.5" y="-7.8" font-family="Times,serif" font-size="14.00">YIndexLimits</text>
</g>
<!-- YIndexLimits&#45;&gt;ReducibleData[SampleRun] -->
<g id="edge37" class="edge">
<title>YIndexLimits:e&#45;&gt;ReducibleData[SampleRun]:w</title>
<path fill="none" stroke="black" d="M1118.5,-11.5C1144.27,-11.5 1156.68,-7.89 1174.5,-26.5 1273.42,-129.79 1107.86,-338.01 1235.83,-348.12"/>
<polygon fill="black" stroke="black" points="1235.88,-351.62 1246,-348.5 1236.14,-344.63 1235.88,-351.62"/>
</g>
<!-- ZIndexLimits -->
<g id="node40" class="node">
<title>ZIndexLimits</title>
<polygon fill="none" stroke="black" points="1118,-360 1007,-360 1007,-337 1118,-337 1118,-360"/>
<text text-anchor="middle" x="1062.5" y="-344.8" font-family="Times,serif" font-size="14.00">ZIndexLimits</text>
</g>
<!-- ZIndexLimits&#45;&gt;ReducibleData[SampleRun] -->
<g id="edge38" class="edge">
<title>ZIndexLimits:e&#45;&gt;ReducibleData[SampleRun]:w</title>
<path fill="none" stroke="black" d="M1118.5,-348.5C1171.62,-348.5 1187.4,-348.5 1235.85,-348.5"/>
<polygon fill="black" stroke="black" points="1236,-352 1246,-348.5 1236,-345 1236,-352"/>
</g>
<!-- Reference&#45;&gt;ReflectivityOverQ -->
<g id="edge48" class="edge">
<title>Reference:e&#45;&gt;ReflectivityOverQ:w</title>
<path fill="none" stroke="black" d="M1873,-389.5C1915.2,-389.5 1928.22,-389.5 1965.87,-389.5"/>
<polygon fill="black" stroke="black" points="1966,-393 1976,-389.5 1966,-386 1966,-393"/>
</g>
<!-- Sample&#45;&gt;ReflectivityOverQ -->
<g id="edge47" class="edge">
<title>Sample:e&#45;&gt;ReflectivityOverQ:w</title>
<path fill="none" stroke="black" d="M1904,-339.5C1939.15,-339.5 1937.77,-380.21 1965.79,-388.16"/>
<polygon fill="black" stroke="black" points="1965.63,-391.67 1976,-389.5 1966.54,-384.73 1965.63,-391.67"/>
</g>
<!-- SampleRotationOffset[ReferenceRun] -->
<g id="node44" class="node">
<title>SampleRotationOffset[ReferenceRun]</title>
<polygon fill="none" stroke="black" points="487,-826 377,-826 377,-805 487,-805 487,-826"/>
<text text-anchor="start" x="385" y="-812.4" font-family="Times,serif" font-size="12.00">[ReferenceRun]</text>
</g>
<!-- SampleRotationOffset[ReferenceRun]&#45;&gt;SampleRotation[ReferenceRun] -->
<g id="edge56" class="edge">
<title>SampleRotationOffset[ReferenceRun]:e&#45;&gt;SampleRotation[ReferenceRun]:w</title>
<path fill="none" stroke="black" d="M488,-815.5C586.3,-815.5 613.39,-815.5 706.83,-815.5"/>
<polygon fill="black" stroke="black" points="707,-819 717,-815.5 707,-812 707,-819"/>
</g>
<!-- SampleRotationOffset[SampleRun] -->
<g id="node45" class="node">
<title>SampleRotationOffset[SampleRun]</title>
<polygon fill="none" stroke="black" points="479.5,-801 384.5,-801 384.5,-780 479.5,-780 479.5,-801"/>
<text text-anchor="start" x="392.5" y="-787.4" font-family="Times,serif" font-size="12.00">[SampleRun]</text>
</g>
<!-- SampleRotationOffset[SampleRun]&#45;&gt;SampleRotation[SampleRun] -->
<g id="edge58" class="edge">
<title>SampleRotationOffset[SampleRun]:e&#45;&gt;SampleRotation[SampleRun]:w</title>
<path fill="none" stroke="black" d="M481,-790.5C585.52,-790.5 614.18,-790.5 713.81,-790.5"/>
<polygon fill="black" stroke="black" points="714,-794 724,-790.5 714,-787 714,-794"/>
</g>
</g>
</svg>
