<?xml version="1.0" encoding="UTF-8" standalone="no"?>
<!DOCTYPE svg PUBLIC "-//W3C//DTD SVG 1.1//EN"
 "http://www.w3.org/Graphics/SVG/1.1/DTD/svg11.dtd">
<!-- Generated by graphviz version 2.43.0 (0)
 -->
<!-- Title: %3 Pages: 1 -->
<svg width="2376pt" height="592pt"
 viewBox="0.00 0.00 2376.00 591.50" xmlns="http://www.w3.org/2000/svg" xmlns:xlink="http://www.w3.org/1999/xlink">
<g id="graph0" class="graph" transform="scale(1 1) rotate(0) translate(4 587.5)">
<title>%3</title>
<polygon fill="white" stroke="transparent" points="-4,4 -4,-587.5 2372,-587.5 2372,4 -4,4"/>
<g id="clust6" class="cluster">
<title>cluster_DetectorData</title>
<polygon fill="#f0f0ff" stroke="#f0f0ff" points="307,-429 307,-525 456,-525 456,-429 307,-429"/>
<text text-anchor="start" x="333" y="-510.8" font-family="Times,serif" font-size="14.00">DetectorData</text>
<text text-anchor="start" x="315" y="-499.2" font-family="Times,serif" font-size="11.00">via:</text>
<text text-anchor="start" x="336" y="-499.2" font-family="Times,serif" font-style="italic" font-size="11.00">load_mcstas_events</text>
</g>
<g id="clust8" class="cluster">
<title>cluster_Filename</title>
<polygon fill="#f0f0ff" stroke="#f0f0ff" points="35.5,-196 35.5,-282 161.5,-282 161.5,-196 35.5,-196"/>
<text text-anchor="middle" x="98.5" y="-266.8" font-family="Times,serif" font-size="14.00">Filename</text>
</g>
<g id="clust7" class="cluster">
<title>cluster_DetectorSpatialResolution</title>
<polygon fill="#f0f0ff" stroke="#f0f0ff" points="893,-358 893,-444 1098,-444 1098,-358 893,-358"/>
<text text-anchor="middle" x="995.5" y="-428.8" font-family="Times,serif" font-size="14.00">DetectorSpatialResolution</text>
</g>
<g id="clust23" class="cluster">
<title>cluster_ProtonCurrent</title>
<polygon fill="#f0f0ff" stroke="#f0f0ff" points="318,-303 318,-389 444,-389 444,-303 318,-303"/>
<text text-anchor="middle" x="381" y="-373.8" font-family="Times,serif" font-size="14.00">ProtonCurrent</text>
</g>
<g id="clust26" class="cluster">
<title>cluster_RawSampleRotation</title>
<polygon fill="#f0f0ff" stroke="#f0f0ff" points="18.5,-8 18.5,-94 179.5,-94 179.5,-8 18.5,-8"/>
<text text-anchor="middle" x="99" y="-78.8" font-family="Times,serif" font-size="14.00">RawSampleRotation</text>
</g>
<g id="clust28" class="cluster">
<title>cluster_ReducibleData</title>
<polygon fill="#f0f0ff" stroke="#f0f0ff" points="557,-341 557,-437 829,-437 829,-341 557,-341"/>
<text text-anchor="start" x="640.5" y="-422.8" font-family="Times,serif" font-size="14.00">ReducibleData</text>
<text text-anchor="start" x="565" y="-411.2" font-family="Times,serif" font-size="11.00">via:</text>
<text text-anchor="start" x="586" y="-411.2" font-family="Times,serif" font-style="italic" font-size="11.00">add_coords_masks_and_apply_corrections</text>
</g>
<g id="clust34" class="cluster">
<title>cluster_SampleRotationOffset</title>
<polygon fill="#f0f0ff" stroke="#f0f0ff" points="12.5,-102 12.5,-188 185.5,-188 185.5,-102 12.5,-102"/>
<text text-anchor="middle" x="99" y="-172.8" font-family="Times,serif" font-size="14.00">SampleRotationOffset</text>
</g>
<g id="clust35" class="cluster">
<title>cluster_SampleRotation</title>
<polygon fill="#f0f0ff" stroke="#f0f0ff" points="294,-8 294,-104 468,-104 468,-8 294,-8"/>
<text text-anchor="start" x="323.5" y="-89.8" font-family="Times,serif" font-size="14.00">SampleRotation</text>
<text text-anchor="start" x="302" y="-78.2" font-family="Times,serif" font-size="11.00">via:</text>
<text text-anchor="start" x="323" y="-78.2" font-family="Times,serif" font-style="italic" font-size="11.00">correct_sample_rotation</text>
</g>
<!-- Alpha -->
<g id="node1" class="node">
<title>Alpha</title>
<polygon fill="none" stroke="black" points="721.5,-537.5 664.5,-537.5 664.5,-514.5 721.5,-514.5 721.5,-537.5"/>
<text text-anchor="middle" x="693" y="-522.3" font-family="Times,serif" font-size="14.00">Alpha</text>
</g>
<!-- ReducedReference -->
<g id="node39" class="node">
<title>ReducedReference</title>
<polygon fill="none" stroke="black" points="1070,-515.5 920,-515.5 920,-482.5 1070,-482.5 1070,-515.5"/>
<text text-anchor="start" x="928" y="-501.3" font-family="Times,serif" font-size="14.00">ReducedReference</text>
<text text-anchor="start" x="935.5" y="-489.7" font-family="Times,serif" font-size="11.00">via:</text>
<text text-anchor="start" x="956.5" y="-489.7" font-family="Times,serif" font-style="italic" font-size="11.00">reduce_reference</text>
</g>
<!-- Alpha&#45;&gt;ReducedReference -->
<g id="edge31" class="edge">
<title>Alpha:e&#45;&gt;ReducedReference:w</title>
<path fill="none" stroke="black" d="M723,-526C763.88,-526 860.15,-502.66 908.82,-499.38"/>
<polygon fill="black" stroke="black" points="909.14,-502.87 919,-499 908.88,-495.88 909.14,-502.87"/>
</g>
<!-- Sample -->
<g id="node46" class="node">
<title>Sample</title>
<polygon fill="none" stroke="black" points="1484,-533.5 1170,-533.5 1170,-500.5 1484,-500.5 1484,-533.5"/>
<text text-anchor="start" x="1300" y="-519.3" font-family="Times,serif" font-size="14.00">Sample</text>
<text text-anchor="start" x="1178" y="-507.7" font-family="Times,serif" font-size="11.00">via:</text>
<text text-anchor="start" x="1199" y="-507.7" font-family="Times,serif" font-style="italic" font-size="11.00">mask_events_where_supermirror_does_not_cover</text>
</g>
<!-- Alpha&#45;&gt;Sample -->
<g id="edge59" class="edge">
<title>Alpha:e&#45;&gt;Sample:w</title>
<path fill="none" stroke="black" d="M723,-526C889.67,-526 931.66,-536.36 1098,-526 1126.54,-524.22 1135.72,-518.52 1159.92,-517.25"/>
<polygon fill="black" stroke="black" points="1160.09,-520.75 1170,-517 1159.92,-513.75 1160.09,-520.75"/>
</g>
<!-- BeamDivergenceLimits -->
<g id="node2" class="node">
<title>BeamDivergenceLimits</title>
<polygon fill="none" stroke="black" points="472.5,-420.5 289.5,-420.5 289.5,-397.5 472.5,-397.5 472.5,-420.5"/>
<text text-anchor="middle" x="381" y="-405.3" font-family="Times,serif" font-size="14.00">BeamDivergenceLimits</text>
</g>
<!-- ReducibleData[ReferenceRun] -->
<g id="node38" class="node">
<title>ReducibleData[ReferenceRun]</title>
<polygon fill="none" stroke="black" points="748,-395.5 638,-395.5 638,-374.5 748,-374.5 748,-395.5"/>
<text text-anchor="start" x="646" y="-381.9" font-family="Times,serif" font-size="12.00">[ReferenceRun]</text>
</g>
<!-- BeamDivergenceLimits&#45;&gt;ReducibleData[ReferenceRun] -->
<g id="edge35" class="edge">
<title>BeamDivergenceLimits:e&#45;&gt;ReducibleData[ReferenceRun]:w</title>
<path fill="none" stroke="black" stroke-width="2" d="M474,-409C506.17,-409 527.4,-404.37 547.3,-399.17"/>
<polygon fill="black" stroke="black" stroke-width="2" points="548.24,-402.55 557,-396.6 546.44,-395.78 548.24,-402.55"/>
</g>
<!-- Beamline -->
<g id="node3" class="node">
<title>Beamline</title>
<polygon fill="none" stroke="red" stroke-dasharray="5,2" points="1036.5,-169.5 953.5,-169.5 953.5,-146.5 1036.5,-146.5 1036.5,-169.5"/>
<text text-anchor="middle" x="995" y="-154.3" font-family="Times,serif" font-size="14.00" fill="red">Beamline</text>
</g>
<!-- OrsoExperiment -->
<g id="node22" class="node">
<title>OrsoExperiment</title>
<polygon fill="none" stroke="black" points="1411,-179.5 1243,-179.5 1243,-146.5 1411,-146.5 1411,-179.5"/>
<text text-anchor="start" x="1268" y="-165.3" font-family="Times,serif" font-size="14.00">OrsoExperiment</text>
<text text-anchor="start" x="1251" y="-153.7" font-family="Times,serif" font-size="11.00">via:</text>
<text text-anchor="start" x="1272" y="-153.7" font-family="Times,serif" font-style="italic" font-size="11.00">parse_orso_experiment</text>
</g>
<!-- Beamline&#45;&gt;OrsoExperiment -->
<g id="edge9" class="edge">
<title>Beamline:e&#45;&gt;OrsoExperiment:w</title>
<path fill="none" stroke="black" d="M1038,-158C1125.24,-158 1149.48,-162.63 1231.93,-162.98"/>
<polygon fill="black" stroke="black" points="1231.99,-166.48 1242,-163 1232.01,-159.48 1231.99,-166.48"/>
</g>
<!-- CoordTransformationGraph -->
<g id="node4" class="node">
<title>CoordTransformationGraph</title>
<polygon fill="none" stroke="black" points="493,-267.5 269,-267.5 269,-234.5 493,-234.5 493,-267.5"/>
<text text-anchor="start" x="282" y="-253.3" font-family="Times,serif" font-size="14.00">CoordTransformationGraph</text>
<text text-anchor="start" x="277" y="-241.7" font-family="Times,serif" font-size="11.00">via:</text>
<text text-anchor="start" x="298" y="-241.7" font-family="Times,serif" font-style="italic" font-size="11.00">coordinate_transformation_graph</text>
</g>
<!-- Reference -->
<g id="node34" class="node">
<title>Reference</title>
<polygon fill="none" stroke="black" points="1399.5,-457.5 1254.5,-457.5 1254.5,-424.5 1399.5,-424.5 1399.5,-457.5"/>
<text text-anchor="start" x="1290.5" y="-443.3" font-family="Times,serif" font-size="14.00">Reference</text>
<text text-anchor="start" x="1262.5" y="-431.7" font-family="Times,serif" font-size="11.00">via:</text>
<text text-anchor="start" x="1283.5" y="-431.7" font-family="Times,serif" font-style="italic" font-size="11.00">evaluate_reference</text>
</g>
<!-- CoordTransformationGraph&#45;&gt;Reference -->
<g id="edge43" class="edge">
<title>CoordTransformationGraph:e&#45;&gt;Reference:w</title>
<path fill="none" stroke="black" d="M493,-251C627.67,-251 984.57,-213.41 1098,-286 1155.27,-322.66 1116.22,-379.38 1170,-421 1197.19,-442.05 1212.1,-441.37 1242.9,-441.06"/>
<polygon fill="black" stroke="black" points="1243.02,-444.56 1253,-441 1242.98,-437.56 1243.02,-444.56"/>
</g>
<!-- CoordTransformationGraph&#45;&gt;ReducibleData[ReferenceRun] -->
<g id="edge38" class="edge">
<title>CoordTransformationGraph:e&#45;&gt;ReducibleData[ReferenceRun]:w</title>
<path fill="none" stroke="black" stroke-width="2" d="M493,-251C549.9,-251 513.01,-325.92 549.33,-364.29"/>
<polygon fill="black" stroke="black" stroke-width="2" points="547.17,-367.05 557,-371 551.78,-361.78 547.17,-367.05"/>
</g>
<!-- CriticalEdge -->
<g id="node5" class="node">
<title>CriticalEdge</title>
<polygon fill="none" stroke="black" points="746,-510.5 640,-510.5 640,-487.5 746,-487.5 746,-510.5"/>
<text text-anchor="middle" x="693" y="-495.3" font-family="Times,serif" font-size="14.00">CriticalEdge</text>
</g>
<!-- CriticalEdge&#45;&gt;ReducedReference -->
<g id="edge29" class="edge">
<title>CriticalEdge:e&#45;&gt;ReducedReference:w</title>
<path fill="none" stroke="black" d="M747,-499C819.86,-499 840.64,-499 908.62,-499"/>
<polygon fill="black" stroke="black" points="909,-502.5 919,-499 909,-495.5 909,-502.5"/>
</g>
<!-- CriticalEdge&#45;&gt;Sample -->
<g id="edge57" class="edge">
<title>CriticalEdge:e&#45;&gt;Sample:w</title>
<path fill="none" stroke="black" d="M747,-499C812.33,-499 827.79,-512.1 893,-516 1012.41,-523.14 1045.06,-517.35 1159.76,-517.01"/>
<polygon fill="black" stroke="black" points="1160.01,-520.51 1170,-517 1159.99,-513.51 1160.01,-520.51"/>
</g>
<!-- Filename[ReferenceRun] -->
<g id="node6" class="node">
<title>Filename[ReferenceRun]</title>
<polygon fill="none" stroke="black" points="153.5,-250.5 43.5,-250.5 43.5,-229.5 153.5,-229.5 153.5,-250.5"/>
<text text-anchor="start" x="51.5" y="-236.9" font-family="Times,serif" font-size="12.00">[ReferenceRun]</text>
</g>
<!-- DetectorData[ReferenceRun] -->
<g id="node7" class="node">
<title>DetectorData[ReferenceRun]</title>
<polygon fill="none" stroke="black" points="436,-483.5 326,-483.5 326,-462.5 436,-462.5 436,-483.5"/>
<text text-anchor="start" x="334" y="-469.9" font-family="Times,serif" font-size="12.00">[ReferenceRun]</text>
</g>
<!-- Filename[ReferenceRun]&#45;&gt;DetectorData[ReferenceRun] -->
<g id="edge1" class="edge">
<title>Filename[ReferenceRun]:e&#45;&gt;DetectorData[ReferenceRun]:w</title>
<path fill="none" stroke="black" d="M154.5,-240C183.33,-240 181.75,-264.54 197,-289 240.41,-358.63 206.64,-405.67 269,-459 285.75,-473.33 296.12,-473.37 314.99,-473.1"/>
<polygon fill="black" stroke="black" points="315.03,-476.6 325,-473 314.97,-469.6 315.03,-476.6"/>
</g>
<!-- OrsoMeasurement -->
<g id="node23" class="node">
<title>OrsoMeasurement</title>
<polygon fill="none" stroke="black" points="1416,-225.5 1238,-225.5 1238,-192.5 1416,-192.5 1416,-225.5"/>
<text text-anchor="start" x="1260.5" y="-211.3" font-family="Times,serif" font-size="14.00">OrsoMeasurement</text>
<text text-anchor="start" x="1246" y="-199.7" font-family="Times,serif" font-size="11.00">via:</text>
<text text-anchor="start" x="1267" y="-199.7" font-family="Times,serif" font-style="italic" font-size="11.00">build_orso_measurement</text>
</g>
<!-- Filename[ReferenceRun]&#45;&gt;OrsoMeasurement -->
<g id="edge17" class="edge">
<title>Filename[ReferenceRun]:e&#45;&gt;OrsoMeasurement:w</title>
<path fill="none" stroke="black" d="M154.5,-240C174.39,-240 178.32,-232.83 197,-226 229.4,-214.15 235.13,-203.56 269,-197 366.74,-178.06 393.45,-196.2 493,-197 820.31,-199.64 904.57,-208.81 1226.9,-209"/>
<polygon fill="black" stroke="black" points="1227,-212.5 1237,-209 1227,-205.5 1227,-212.5"/>
</g>
<!-- DetectorData[ReferenceRun]&#45;&gt;ReducibleData[ReferenceRun] -->
<g id="edge32" class="edge">
<title>DetectorData[ReferenceRun]:e&#45;&gt;ReducibleData[ReferenceRun]:w</title>
<path fill="none" stroke="black" d="M437,-473C530.6,-473 539.35,-391.24 626.82,-385.34"/>
<polygon fill="black" stroke="black" points="627.12,-388.83 637,-385 626.89,-381.83 627.12,-388.83"/>
</g>
<!-- SampleRotationOffset[ReferenceRun] -->
<g id="node8" class="node">
<title>SampleRotationOffset[ReferenceRun]</title>
<polygon fill="none" stroke="black" points="153.5,-156.5 43.5,-156.5 43.5,-135.5 153.5,-135.5 153.5,-156.5"/>
<text text-anchor="start" x="51.5" y="-142.9" font-family="Times,serif" font-size="12.00">[ReferenceRun]</text>
</g>
<!-- SampleRotationOffset[ReferenceRun]&#45;&gt;DetectorData[ReferenceRun] -->
<g id="edge2" class="edge">
<title>SampleRotationOffset[ReferenceRun]:e&#45;&gt;DetectorData[ReferenceRun]:w</title>
<path fill="none" stroke="black" d="M154.5,-146C183.33,-146 183.42,-169.57 197,-195 254.28,-302.29 182.09,-373.92 269,-459 284.75,-474.42 295.84,-473.68 314.93,-473.16"/>
<polygon fill="black" stroke="black" points="315.06,-476.66 325,-473 314.94,-469.66 315.06,-476.66"/>
</g>
<!-- SampleRotation[ReferenceRun] -->
<g id="node48" class="node">
<title>SampleRotation[ReferenceRun]</title>
<polygon fill="none" stroke="black" points="436,-62.5 326,-62.5 326,-41.5 436,-41.5 436,-62.5"/>
<text text-anchor="start" x="334" y="-48.9" font-family="Times,serif" font-size="12.00">[ReferenceRun]</text>
</g>
<!-- SampleRotationOffset[ReferenceRun]&#45;&gt;SampleRotation[ReferenceRun] -->
<g id="edge61" class="edge">
<title>SampleRotationOffset[ReferenceRun]:e&#45;&gt;SampleRotation[ReferenceRun]:w</title>
<path fill="none" stroke="black" d="M154.5,-146C237.48,-146 238.53,-59.55 314.79,-52.46"/>
<polygon fill="black" stroke="black" points="315.17,-55.95 325,-52 314.85,-48.96 315.17,-55.95"/>
</g>
<!-- Filename[SampleRun] -->
<g id="node9" class="node">
<title>Filename[SampleRun]</title>
<polygon fill="none" stroke="red" stroke-dasharray="5,2" points="146,-225.5 51,-225.5 51,-204.5 146,-204.5 146,-225.5"/>
<text text-anchor="start" x="59" y="-211.9" font-family="Times,serif" font-size="12.00" fill="red">[SampleRun]</text>
</g>
<!-- DetectorData[SampleRun] -->
<g id="node10" class="node">
<title>DetectorData[SampleRun]</title>
<polygon fill="none" stroke="black" points="428.5,-458.5 333.5,-458.5 333.5,-437.5 428.5,-437.5 428.5,-458.5"/>
<text text-anchor="start" x="341.5" y="-444.9" font-family="Times,serif" font-size="12.00">[SampleRun]</text>
</g>
<!-- Filename[SampleRun]&#45;&gt;DetectorData[SampleRun] -->
<g id="edge3" class="edge">
<title>Filename[SampleRun]:e&#45;&gt;DetectorData[SampleRun]:w</title>
<path fill="none" stroke="black" d="M147.5,-215C170.49,-215 180.24,-214.26 197,-230 263.74,-292.67 204.94,-357.6 269,-423 287.53,-441.91 298.88,-446.89 321.81,-447.82"/>
<polygon fill="black" stroke="black" points="321.94,-451.32 332,-448 322.06,-444.32 321.94,-451.32"/>
</g>
<!-- OrsoOwner -->
<g id="node19" class="node">
<title>OrsoOwner</title>
<polygon fill="none" stroke="black" points="451,-182.5 311,-182.5 311,-149.5 451,-149.5 451,-182.5"/>
<text text-anchor="start" x="340" y="-168.3" font-family="Times,serif" font-size="14.00">OrsoOwner</text>
<text text-anchor="start" x="319" y="-156.7" font-family="Times,serif" font-size="11.00">via:</text>
<text text-anchor="start" x="340" y="-156.7" font-family="Times,serif" font-style="italic" font-size="11.00">parse_orso_owner</text>
</g>
<!-- Filename[SampleRun]&#45;&gt;OrsoOwner -->
<g id="edge19" class="edge">
<title>Filename[SampleRun]:e&#45;&gt;OrsoOwner:w</title>
<path fill="none" stroke="black" d="M147.5,-215C219.4,-215 233.34,-170.49 299.8,-166.31"/>
<polygon fill="black" stroke="black" points="300.11,-169.81 310,-166 299.9,-162.81 300.11,-169.81"/>
</g>
<!-- OrsoSample -->
<g id="node21" class="node">
<title>OrsoSample</title>
<polygon fill="none" stroke="black" points="453.5,-145.5 308.5,-145.5 308.5,-112.5 453.5,-112.5 453.5,-145.5"/>
<text text-anchor="start" x="337" y="-131.3" font-family="Times,serif" font-size="14.00">OrsoSample</text>
<text text-anchor="start" x="316.5" y="-119.7" font-family="Times,serif" font-size="11.00">via:</text>
<text text-anchor="start" x="337.5" y="-119.7" font-family="Times,serif" font-style="italic" font-size="11.00">parse_orso_sample</text>
</g>
<!-- Filename[SampleRun]&#45;&gt;OrsoSample -->
<g id="edge21" class="edge">
<title>Filename[SampleRun]:e&#45;&gt;OrsoSample:w</title>
<path fill="none" stroke="black" d="M147.5,-215C224.42,-215 226.44,-136.55 296.63,-129.51"/>
<polygon fill="black" stroke="black" points="297.18,-132.98 307,-129 296.84,-125.99 297.18,-132.98"/>
</g>
<!-- OrsoSampleFilenames -->
<g id="node29" class="node">
<title>OrsoSampleFilenames</title>
<polygon fill="none" stroke="black" points="469.5,-230.5 292.5,-230.5 292.5,-197.5 469.5,-197.5 469.5,-230.5"/>
<text text-anchor="start" x="300.5" y="-216.3" font-family="Times,serif" font-size="14.00">OrsoSampleFilenames</text>
<text text-anchor="start" x="328" y="-204.7" font-family="Times,serif" font-size="11.00">via:</text>
<text text-anchor="start" x="349" y="-204.7" font-family="Times,serif" font-style="italic" font-size="11.00">orso_data_files</text>
</g>
<!-- Filename[SampleRun]&#45;&gt;OrsoSampleFilenames -->
<g id="edge22" class="edge">
<title>Filename[SampleRun]:e&#45;&gt;OrsoSampleFilenames:w</title>
<path fill="none" stroke="black" d="M147.5,-215C208.21,-215 225.88,-214.11 281.88,-214.01"/>
<polygon fill="black" stroke="black" points="282,-217.51 292,-214 282,-210.51 282,-217.51"/>
</g>
<!-- ReducibleData[SampleRun] -->
<g id="node24" class="node">
<title>ReducibleData[SampleRun]</title>
<polygon fill="none" stroke="black" points="740.5,-370.5 645.5,-370.5 645.5,-349.5 740.5,-349.5 740.5,-370.5"/>
<text text-anchor="start" x="653.5" y="-356.9" font-family="Times,serif" font-size="12.00">[SampleRun]</text>
</g>
<!-- DetectorData[SampleRun]&#45;&gt;ReducibleData[SampleRun] -->
<g id="edge39" class="edge">
<title>DetectorData[SampleRun]:e&#45;&gt;ReducibleData[SampleRun]:w</title>
<path fill="none" stroke="black" d="M430,-448C495.1,-448 497.22,-400.78 557,-375 589.65,-360.92 602.35,-360.04 633.65,-360"/>
<polygon fill="black" stroke="black" points="634,-363.5 644,-360 634,-356.5 634,-363.5"/>
</g>
<!-- SampleRotationOffset[SampleRun] -->
<g id="node11" class="node">
<title>SampleRotationOffset[SampleRun]</title>
<polygon fill="none" stroke="black" points="146,-131.5 51,-131.5 51,-110.5 146,-110.5 146,-131.5"/>
<text text-anchor="start" x="59" y="-117.9" font-family="Times,serif" font-size="12.00">[SampleRun]</text>
</g>
<!-- SampleRotationOffset[SampleRun]&#45;&gt;DetectorData[SampleRun] -->
<g id="edge4" class="edge">
<title>SampleRotationOffset[SampleRun]:e&#45;&gt;DetectorData[SampleRun]:w</title>
<path fill="none" stroke="black" d="M147.5,-121C292.18,-121 173.67,-314.17 269,-423 286.45,-442.92 298.62,-447.14 321.77,-447.87"/>
<polygon fill="black" stroke="black" points="321.95,-451.37 332,-448 322.05,-444.37 321.95,-451.37"/>
</g>
<!-- SampleRotation[SampleRun] -->
<g id="node49" class="node">
<title>SampleRotation[SampleRun]</title>
<polygon fill="none" stroke="black" points="428.5,-37.5 333.5,-37.5 333.5,-16.5 428.5,-16.5 428.5,-37.5"/>
<text text-anchor="start" x="341.5" y="-23.9" font-family="Times,serif" font-size="12.00">[SampleRun]</text>
</g>
<!-- SampleRotationOffset[SampleRun]&#45;&gt;SampleRotation[SampleRun] -->
<g id="edge63" class="edge">
<title>SampleRotationOffset[SampleRun]:e&#45;&gt;SampleRotation[SampleRun]:w</title>
<path fill="none" stroke="black" d="M147.5,-121C211.91,-121 210.56,-69.09 269,-42 291.75,-31.45 300.83,-27.9 321.82,-27.16"/>
<polygon fill="black" stroke="black" points="322.06,-30.65 332,-27 321.95,-23.66 322.06,-30.65"/>
</g>
<!-- DetectorSpatialResolution[ReferenceRun] -->
<g id="node12" class="node">
<title>DetectorSpatialResolution[ReferenceRun]</title>
<polygon fill="none" stroke="black" points="1050,-412.5 940,-412.5 940,-391.5 1050,-391.5 1050,-412.5"/>
<text text-anchor="start" x="948" y="-398.9" font-family="Times,serif" font-size="12.00">[ReferenceRun]</text>
</g>
<!-- DetectorSpatialResolution[SampleRun] -->
<g id="node13" class="node">
<title>DetectorSpatialResolution[SampleRun]</title>
<polygon fill="none" stroke="black" points="1042.5,-387.5 947.5,-387.5 947.5,-366.5 1042.5,-366.5 1042.5,-387.5"/>
<text text-anchor="start" x="955.5" y="-373.9" font-family="Times,serif" font-size="12.00">[SampleRun]</text>
</g>
<!-- DetectorSpatialResolution[SampleRun]&#45;&gt;Reference -->
<g id="edge44" class="edge">
<title>DetectorSpatialResolution[SampleRun]:e&#45;&gt;Reference:w</title>
<path fill="none" stroke="black" d="M1044,-377C1068.91,-377 1074.41,-384 1098,-392 1163.08,-414.07 1179.22,-438.49 1242.82,-440.82"/>
<polygon fill="black" stroke="black" points="1242.94,-444.32 1253,-441 1243.06,-437.32 1242.94,-444.32"/>
</g>
<!-- MValue -->
<g id="node14" class="node">
<title>MValue</title>
<polygon fill="none" stroke="black" points="728,-564.5 658,-564.5 658,-541.5 728,-541.5 728,-564.5"/>
<text text-anchor="middle" x="693" y="-549.3" font-family="Times,serif" font-size="14.00">MValue</text>
</g>
<!-- MValue&#45;&gt;ReducedReference -->
<g id="edge30" class="edge">
<title>MValue:e&#45;&gt;ReducedReference:w</title>
<path fill="none" stroke="black" d="M729,-553C773.94,-553 785.79,-550.37 829,-538 867.31,-527.03 874.36,-503.53 908.58,-499.57"/>
<polygon fill="black" stroke="black" points="909.21,-503.04 919,-499 908.82,-496.05 909.21,-503.04"/>
</g>
<!-- MValue&#45;&gt;Sample -->
<g id="edge58" class="edge">
<title>MValue:e&#45;&gt;Sample:w</title>
<path fill="none" stroke="black" d="M729,-553C893.27,-553 935.14,-553.48 1098,-532 1126.74,-528.21 1135.42,-519.35 1159.81,-517.39"/>
<polygon fill="black" stroke="black" points="1160.14,-520.88 1170,-517 1159.87,-513.88 1160.14,-520.88"/>
</g>
<!-- Measurement -->
<g id="node15" class="node">
<title>Measurement</title>
<polygon fill="none" stroke="red" stroke-dasharray="5,2" points="1053,-196.5 937,-196.5 937,-173.5 1053,-173.5 1053,-196.5"/>
<text text-anchor="middle" x="995" y="-181.3" font-family="Times,serif" font-size="14.00" fill="red">Measurement</text>
</g>
<!-- Measurement&#45;&gt;OrsoExperiment -->
<g id="edge10" class="edge">
<title>Measurement:e&#45;&gt;OrsoExperiment:w</title>
<path fill="none" stroke="black" d="M1054,-185C1134.68,-185 1156.15,-164.77 1231.96,-163.11"/>
<polygon fill="black" stroke="black" points="1232.04,-166.61 1242,-163 1231.96,-159.61 1232.04,-166.61"/>
</g>
<!-- NeXusName[NXdetector] -->
<g id="node16" class="node">
<title>NeXusName[NXdetector]</title>
<polygon fill="none" stroke="black" points="197,-313.5 0,-313.5 0,-290.5 197,-290.5 197,-313.5"/>
<text text-anchor="middle" x="98.5" y="-298.3" font-family="Times,serif" font-size="14.00">NeXusName[NXdetector]</text>
</g>
<!-- OrsoCorrectionList -->
<g id="node17" class="node">
<title>OrsoCorrectionList</title>
<polygon fill="none" stroke="black" points="1757,-212.5 1593,-212.5 1593,-179.5 1757,-179.5 1757,-212.5"/>
<text text-anchor="start" x="1606.5" y="-198.3" font-family="Times,serif" font-size="14.00">OrsoCorrectionList</text>
<text text-anchor="start" x="1601" y="-186.7" font-family="Times,serif" font-size="11.00">via:</text>
<text text-anchor="start" x="1622" y="-186.7" font-family="Times,serif" font-style="italic" font-size="11.00">orso_estia_corrections</text>
</g>
<!-- OrsoIofQDataset -->
<g id="node27" class="node">
<title>OrsoIofQDataset</title>
<polygon fill="none" stroke="black" points="2058,-194.5 1889,-194.5 1889,-161.5 2058,-161.5 2058,-194.5"/>
<text text-anchor="start" x="1913.5" y="-180.3" font-family="Times,serif" font-size="14.00">OrsoIofQDataset</text>
<text text-anchor="start" x="1897" y="-168.7" font-family="Times,serif" font-size="11.00">via:</text>
<text text-anchor="start" x="1918" y="-168.7" font-family="Times,serif" font-style="italic" font-size="11.00">build_orso_iofq_dataset</text>
</g>
<!-- OrsoCorrectionList&#45;&gt;OrsoIofQDataset -->
<g id="edge15" class="edge">
<title>OrsoCorrectionList:e&#45;&gt;OrsoIofQDataset:w</title>
<path fill="none" stroke="black" d="M1758,-196C1813,-196 1828.16,-180.11 1878.34,-178.19"/>
<polygon fill="black" stroke="black" points="1878.57,-181.69 1888.5,-178 1878.44,-174.69 1878.57,-181.69"/>
</g>
<!-- OrsoCreator -->
<g id="node18" class="node">
<title>OrsoCreator</title>
<polygon fill="none" stroke="red" stroke-dasharray="5,2" points="1379.5,-121.5 1274.5,-121.5 1274.5,-98.5 1379.5,-98.5 1379.5,-121.5"/>
<text text-anchor="middle" x="1327" y="-106.3" font-family="Times,serif" font-size="14.00" fill="red">OrsoCreator</text>
</g>
<!-- OrsoReduction -->
<g id="node28" class="node">
<title>OrsoReduction</title>
<polygon fill="none" stroke="black" points="1752,-130.5 1598,-130.5 1598,-97.5 1752,-97.5 1752,-130.5"/>
<text text-anchor="start" x="1622" y="-116.3" font-family="Times,serif" font-size="14.00">OrsoReduction</text>
<text text-anchor="start" x="1606" y="-104.7" font-family="Times,serif" font-size="11.00">via:</text>
<text text-anchor="start" x="1627" y="-104.7" font-family="Times,serif" font-style="italic" font-size="11.00">build_orso_reduction</text>
</g>
<!-- OrsoCreator&#45;&gt;OrsoReduction -->
<g id="edge20" class="edge">
<title>OrsoCreator:e&#45;&gt;OrsoReduction:w</title>
<path fill="none" stroke="black" d="M1381,-110C1473.55,-110 1499.16,-113.72 1586.87,-113.98"/>
<polygon fill="black" stroke="black" points="1586.99,-117.48 1597,-114 1587.01,-110.48 1586.99,-117.48"/>
</g>
<!-- OrsoDataSource -->
<g id="node20" class="node">
<title>OrsoDataSource</title>
<polygon fill="none" stroke="black" points="1759,-175.5 1591,-175.5 1591,-142.5 1759,-142.5 1759,-175.5"/>
<text text-anchor="start" x="1616" y="-161.3" font-family="Times,serif" font-size="14.00">OrsoDataSource</text>
<text text-anchor="start" x="1599" y="-149.7" font-family="Times,serif" font-size="11.00">via:</text>
<text text-anchor="start" x="1620" y="-149.7" font-family="Times,serif" font-style="italic" font-size="11.00">build_orso_data_source</text>
</g>
<!-- OrsoOwner&#45;&gt;OrsoDataSource -->
<g id="edge5" class="edge">
<title>OrsoOwner:e&#45;&gt;OrsoDataSource:w</title>
<path fill="none" stroke="black" d="M452,-166C648.2,-166 696.85,-150.45 893,-146 1155.6,-140.05 1221.82,-129.98 1484,-146 1527.67,-148.67 1540.57,-157.46 1579.51,-158.82"/>
<polygon fill="black" stroke="black" points="1579.94,-162.33 1590,-159 1580.06,-155.33 1579.94,-162.33"/>
</g>
<!-- OrsoDataSource&#45;&gt;OrsoIofQDataset -->
<g id="edge13" class="edge">
<title>OrsoDataSource:e&#45;&gt;OrsoIofQDataset:w</title>
<path fill="none" stroke="black" d="M1760,-159C1814.24,-159 1829.03,-175.77 1878.49,-177.8"/>
<polygon fill="black" stroke="black" points="1878.43,-181.3 1888.5,-178 1878.57,-174.3 1878.43,-181.3"/>
</g>
<!-- OrsoSample&#45;&gt;OrsoDataSource -->
<g id="edge6" class="edge">
<title>OrsoSample:e&#45;&gt;OrsoDataSource:w</title>
<path fill="none" stroke="black" d="M455,-129C683.67,-129 1256.72,-110.84 1484,-136 1528.36,-140.91 1540.12,-156.44 1579.87,-158.72"/>
<polygon fill="black" stroke="black" points="1579.91,-162.22 1590,-159 1580.1,-155.22 1579.91,-162.22"/>
</g>
<!-- OrsoExperiment&#45;&gt;OrsoDataSource -->
<g id="edge7" class="edge">
<title>OrsoExperiment:e&#45;&gt;OrsoDataSource:w</title>
<path fill="none" stroke="black" d="M1412,-163C1487.58,-163 1508.98,-159.35 1579.68,-159.02"/>
<polygon fill="black" stroke="black" points="1580.01,-162.52 1590,-159 1579.99,-155.52 1580.01,-162.52"/>
</g>
<!-- OrsoMeasurement&#45;&gt;OrsoDataSource -->
<g id="edge8" class="edge">
<title>OrsoMeasurement:e&#45;&gt;OrsoDataSource:w</title>
<path fill="none" stroke="black" d="M1417,-209C1493.44,-209 1508.67,-163.39 1579.61,-159.29"/>
<polygon fill="black" stroke="black" points="1580.1,-162.78 1590,-159 1579.91,-155.78 1580.1,-162.78"/>
</g>
<!-- OrsoInstrument -->
<g id="node25" class="node">
<title>OrsoInstrument</title>
<polygon fill="none" stroke="black" points="1076,-320.5 914,-320.5 914,-287.5 1076,-287.5 1076,-320.5"/>
<text text-anchor="start" x="937.5" y="-306.3" font-family="Times,serif" font-size="14.00">OrsoInstrument</text>
<text text-anchor="start" x="922" y="-294.7" font-family="Times,serif" font-size="11.00">via:</text>
<text text-anchor="start" x="943" y="-294.7" font-family="Times,serif" font-style="italic" font-size="11.00">build_orso_instrument</text>
</g>
<!-- ReducibleData[SampleRun]&#45;&gt;OrsoInstrument -->
<g id="edge11" class="edge">
<title>ReducibleData[SampleRun]:e&#45;&gt;OrsoInstrument:w</title>
<path fill="none" stroke="black" d="M742,-360C818.38,-360 831.9,-308.92 902.63,-304.33"/>
<polygon fill="black" stroke="black" points="903.12,-307.82 913,-304 902.89,-300.82 903.12,-307.82"/>
</g>
<!-- QThetaFigure -->
<g id="node33" class="node">
<title>QThetaFigure</title>
<polygon fill="none" stroke="black" points="1765,-459.5 1585,-459.5 1585,-426.5 1765,-426.5 1765,-459.5"/>
<text text-anchor="start" x="1625" y="-445.3" font-family="Times,serif" font-size="14.00">QThetaFigure</text>
<text text-anchor="start" x="1593" y="-433.7" font-family="Times,serif" font-size="11.00">via:</text>
<text text-anchor="start" x="1614" y="-433.7" font-family="Times,serif" font-style="italic" font-size="11.00">q_theta_diagnostic_figure</text>
</g>
<!-- ReducibleData[SampleRun]&#45;&gt;QThetaFigure -->
<g id="edge23" class="edge">
<title>ReducibleData[SampleRun]:e&#45;&gt;QThetaFigure:w</title>
<path fill="none" stroke="black" d="M742,-360C781.24,-360 795.21,-355.05 829,-375 868.21,-398.15 852.07,-435.05 893,-455 906.91,-461.78 1464.73,-459.44 1484,-458 1525.14,-454.93 1537.15,-444.86 1573.6,-443.22"/>
<polygon fill="black" stroke="black" points="1574.08,-446.71 1584,-443 1573.93,-439.72 1574.08,-446.71"/>
</g>
<!-- ReducibleData[SampleRun]&#45;&gt;Reference -->
<g id="edge42" class="edge">
<title>ReducibleData[SampleRun]:e&#45;&gt;Reference:w</title>
<path fill="none" stroke="black" d="M742,-360C781.24,-360 794.57,-356.17 829,-375 865.99,-395.23 854.43,-428 893,-445 963.28,-475.97 1156.65,-443.79 1242.8,-441.17"/>
<polygon fill="black" stroke="black" points="1243.06,-444.66 1253,-441 1242.94,-437.66 1243.06,-444.66"/>
</g>
<!-- WavelengthThetaFigure -->
<g id="node43" class="node">
<title>WavelengthThetaFigure</title>
<polygon fill="none" stroke="black" points="1794,-422.5 1556,-422.5 1556,-389.5 1794,-389.5 1794,-422.5"/>
<text text-anchor="start" x="1589" y="-408.3" font-family="Times,serif" font-size="14.00">WavelengthThetaFigure</text>
<text text-anchor="start" x="1564" y="-396.7" font-family="Times,serif" font-size="11.00">via:</text>
<text text-anchor="start" x="1585" y="-396.7" font-family="Times,serif" font-style="italic" font-size="11.00">wavelength_theta_diagnostic_figure</text>
</g>
<!-- ReducibleData[SampleRun]&#45;&gt;WavelengthThetaFigure -->
<g id="edge64" class="edge">
<title>ReducibleData[SampleRun]:e&#45;&gt;WavelengthThetaFigure:w</title>
<path fill="none" stroke="black" d="M742,-360C809.49,-360 825.61,-347.56 893,-344 1024.15,-337.07 1360.88,-298.29 1484,-344 1520.03,-357.38 1515.14,-397.76 1545.8,-404.91"/>
<polygon fill="black" stroke="black" points="1545.69,-408.42 1556,-406 1546.43,-401.46 1545.69,-408.42"/>
</g>
<!-- ReducibleData[SampleRun]&#45;&gt;Sample -->
<g id="edge55" class="edge">
<title>ReducibleData[SampleRun]:e&#45;&gt;Sample:w</title>
<path fill="none" stroke="black" d="M742,-360C781.24,-360 795.95,-353.85 829,-375 871.26,-402.05 849.41,-443.15 893,-468 932.67,-490.61 1053.88,-470.25 1098,-482 1128.76,-490.19 1133.63,-511.73 1159.78,-516.19"/>
<polygon fill="black" stroke="black" points="1159.75,-519.7 1170,-517 1160.31,-512.72 1159.75,-519.7"/>
</g>
<!-- OrsoInstrument&#45;&gt;OrsoMeasurement -->
<g id="edge18" class="edge">
<title>OrsoInstrument:e&#45;&gt;OrsoMeasurement:w</title>
<path fill="none" stroke="black" d="M1077,-304C1156.15,-304 1154.6,-216.99 1226.81,-209.51"/>
<polygon fill="black" stroke="black" points="1227.19,-213 1237,-209 1226.84,-206.01 1227.19,-213"/>
</g>
<!-- ReflectivityOverQ -->
<g id="node26" class="node">
<title>ReflectivityOverQ</title>
<polygon fill="none" stroke="black" points="1757,-496.5 1593,-496.5 1593,-463.5 1757,-463.5 1757,-496.5"/>
<text text-anchor="start" x="1611.5" y="-482.3" font-family="Times,serif" font-size="14.00">ReflectivityOverQ</text>
<text text-anchor="start" x="1601" y="-470.7" font-family="Times,serif" font-size="11.00">via:</text>
<text text-anchor="start" x="1622" y="-470.7" font-family="Times,serif" font-style="italic" font-size="11.00">reduce_sample_over_q</text>
</g>
<!-- ReflectivityOverQ&#45;&gt;OrsoIofQDataset -->
<g id="edge12" class="edge">
<title>ReflectivityOverQ:e&#45;&gt;OrsoIofQDataset:w</title>
<path fill="none" stroke="black" d="M1758,-480C1900.65,-480 1750.01,-192.57 1878.33,-178.53"/>
<polygon fill="black" stroke="black" points="1878.7,-182.02 1888.5,-178 1878.33,-175.03 1878.7,-182.02"/>
</g>
<!-- ReflectivityDiagnosticsView -->
<g id="node44" class="node">
<title>ReflectivityDiagnosticsView</title>
<polygon fill="none" stroke="black" points="2368,-477.5 2153,-477.5 2153,-444.5 2368,-444.5 2368,-477.5"/>
<text text-anchor="start" x="2161" y="-463.3" font-family="Times,serif" font-size="14.00">ReflectivityDiagnosticsView</text>
<text text-anchor="start" x="2205" y="-451.7" font-family="Times,serif" font-size="11.00">via:</text>
<text text-anchor="start" x="2226" y="-451.7" font-family="Times,serif" font-style="italic" font-size="11.00">diagnostic_view</text>
</g>
<!-- ReflectivityOverQ&#45;&gt;ReflectivityDiagnosticsView -->
<g id="edge48" class="edge">
<title>ReflectivityOverQ:e&#45;&gt;ReflectivityDiagnosticsView:w</title>
<path fill="none" stroke="black" d="M1758,-480C1930.33,-480 1975.49,-461.73 2142.85,-461.02"/>
<polygon fill="black" stroke="black" points="2143.01,-464.52 2153,-461 2142.99,-457.52 2143.01,-464.52"/>
</g>
<!-- OrsoReduction&#45;&gt;OrsoIofQDataset -->
<g id="edge14" class="edge">
<title>OrsoReduction:e&#45;&gt;OrsoIofQDataset:w</title>
<path fill="none" stroke="black" d="M1753,-114C1816.09,-114 1821.48,-171.43 1878.48,-177.48"/>
<polygon fill="black" stroke="black" points="1878.33,-180.98 1888.5,-178 1878.69,-173.99 1878.33,-180.98"/>
</g>
<!-- OrsoSampleFilenames&#45;&gt;OrsoMeasurement -->
<g id="edge16" class="edge">
<title>OrsoSampleFilenames:e&#45;&gt;OrsoMeasurement:w</title>
<path fill="none" stroke="black" d="M470,-214C807.4,-214 894.33,-209.1 1226.59,-209"/>
<polygon fill="black" stroke="black" points="1227,-212.5 1237,-209 1227,-205.5 1227,-212.5"/>
</g>
<!-- ProtonCurrent[ReferenceRun] -->
<g id="node30" class="node">
<title>ProtonCurrent[ReferenceRun]</title>
<polygon fill="none" stroke="black" points="436,-357.5 326,-357.5 326,-336.5 436,-336.5 436,-357.5"/>
<text text-anchor="start" x="334" y="-343.9" font-family="Times,serif" font-size="12.00">[ReferenceRun]</text>
</g>
<!-- ProtonCurrent[ReferenceRun]&#45;&gt;ReducibleData[ReferenceRun] -->
<g id="edge37" class="edge">
<title>ProtonCurrent[ReferenceRun]:e&#45;&gt;ReducibleData[ReferenceRun]:w</title>
<path fill="none" stroke="black" d="M437,-347C524.03,-347 544.97,-382.16 626.97,-384.84"/>
<polygon fill="black" stroke="black" points="626.95,-388.34 637,-385 627.06,-381.34 626.95,-388.34"/>
</g>
<!-- ProtonCurrent[SampleRun] -->
<g id="node31" class="node">
<title>ProtonCurrent[SampleRun]</title>
<polygon fill="none" stroke="black" points="428.5,-332.5 333.5,-332.5 333.5,-311.5 428.5,-311.5 428.5,-332.5"/>
<text text-anchor="start" x="341.5" y="-318.9" font-family="Times,serif" font-size="12.00">[SampleRun]</text>
</g>
<!-- ProtonCurrent[SampleRun]&#45;&gt;ReducibleData[SampleRun] -->
<g id="edge40" class="edge">
<title>ProtonCurrent[SampleRun]:e&#45;&gt;ReducibleData[SampleRun]:w</title>
<path fill="none" stroke="black" d="M430,-322C523.11,-322 545.8,-357.3 633.82,-359.85"/>
<polygon fill="black" stroke="black" points="633.95,-363.36 644,-360 634.05,-356.36 633.95,-363.36"/>
</g>
<!-- QBins -->
<g id="node32" class="node">
<title>QBins</title>
<polygon fill="none" stroke="black" points="1356.5,-495.5 1297.5,-495.5 1297.5,-472.5 1356.5,-472.5 1356.5,-495.5"/>
<text text-anchor="middle" x="1327" y="-480.3" font-family="Times,serif" font-size="14.00">QBins</text>
</g>
<!-- QBins&#45;&gt;ReflectivityOverQ -->
<g id="edge51" class="edge">
<title>QBins:e&#45;&gt;ReflectivityOverQ:w</title>
<path fill="none" stroke="black" d="M1358,-484C1458.56,-484 1486.17,-480.26 1581.89,-480.01"/>
<polygon fill="black" stroke="black" points="1582,-483.51 1592,-480 1582,-476.51 1582,-483.51"/>
</g>
<!-- QBins&#45;&gt;QThetaFigure -->
<g id="edge26" class="edge">
<title>QBins:e&#45;&gt;QThetaFigure:w</title>
<path fill="none" stroke="black" d="M1358,-484C1414.4,-484 1428.58,-479.45 1484,-469 1525.6,-461.15 1536.46,-445.68 1573.88,-443.31"/>
<polygon fill="black" stroke="black" points="1574.11,-446.8 1584,-443 1573.9,-439.81 1574.11,-446.8"/>
</g>
<!-- QThetaFigure&#45;&gt;ReflectivityDiagnosticsView -->
<g id="edge47" class="edge">
<title>QThetaFigure:e&#45;&gt;ReflectivityDiagnosticsView:w</title>
<path fill="none" stroke="black" d="M1766,-443C1934.65,-443 1979.01,-460.27 2142.57,-460.98"/>
<polygon fill="black" stroke="black" points="2142.99,-464.48 2153,-461 2143.01,-457.48 2142.99,-464.48"/>
</g>
<!-- Reference&#45;&gt;ReflectivityOverQ -->
<g id="edge50" class="edge">
<title>Reference:e&#45;&gt;ReflectivityOverQ:w</title>
<path fill="none" stroke="black" d="M1401,-441C1484.09,-441 1503.79,-476.87 1581.68,-479.81"/>
<polygon fill="black" stroke="black" points="1581.94,-483.31 1592,-480 1582.07,-476.32 1581.94,-483.31"/>
</g>
<!-- Reference&#45;&gt;QThetaFigure -->
<g id="edge24" class="edge">
<title>Reference:e&#45;&gt;QThetaFigure:w</title>
<path fill="none" stroke="black" d="M1401,-441C1478.84,-441 1500.8,-442.83 1573.84,-442.99"/>
<polygon fill="black" stroke="black" points="1574,-446.49 1584,-443 1574,-439.49 1574,-446.49"/>
</g>
<!-- Reference&#45;&gt;WavelengthThetaFigure -->
<g id="edge65" class="edge">
<title>Reference:e&#45;&gt;WavelengthThetaFigure:w</title>
<path fill="none" stroke="black" d="M1401,-441C1468.04,-441 1483.83,-409.46 1545.67,-406.26"/>
<polygon fill="black" stroke="black" points="1546.09,-409.75 1556,-406 1545.91,-402.75 1546.09,-409.75"/>
</g>
<!-- ReflectivityOverZW -->
<g id="node47" class="node">
<title>ReflectivityOverZW</title>
<polygon fill="none" stroke="black" points="1761.5,-533.5 1588.5,-533.5 1588.5,-500.5 1761.5,-500.5 1761.5,-533.5"/>
<text text-anchor="start" x="1605" y="-519.3" font-family="Times,serif" font-size="14.00">ReflectivityOverZW</text>
<text text-anchor="start" x="1596.5" y="-507.7" font-family="Times,serif" font-size="11.00">via:</text>
<text text-anchor="start" x="1617.5" y="-507.7" font-family="Times,serif" font-style="italic" font-size="11.00">reduce_sample_over_zw</text>
</g>
<!-- Reference&#45;&gt;ReflectivityOverZW -->
<g id="edge53" class="edge">
<title>Reference:e&#45;&gt;ReflectivityOverZW:w</title>
<path fill="none" stroke="black" d="M1401,-441C1440.22,-441 1447.62,-456.33 1484,-471 1527.14,-488.4 1535.73,-513.11 1576.78,-516.59"/>
<polygon fill="black" stroke="black" points="1576.87,-520.09 1587,-517 1577.15,-513.1 1576.87,-520.09"/>
</g>
<!-- ThetaBins[SampleRun] -->
<g id="node35" class="node">
<title>ThetaBins[SampleRun]</title>
<polygon fill="none" stroke="red" stroke-dasharray="5,2" points="1417.5,-418.5 1236.5,-418.5 1236.5,-395.5 1417.5,-395.5 1417.5,-418.5"/>
<text text-anchor="middle" x="1327" y="-403.3" font-family="Times,serif" font-size="14.00" fill="red">ThetaBins[SampleRun]</text>
</g>
<!-- ThetaBins[SampleRun]&#45;&gt;QThetaFigure -->
<g id="edge25" class="edge">
<title>ThetaBins[SampleRun]:e&#45;&gt;QThetaFigure:w</title>
<path fill="none" stroke="black" d="M1419,-407C1490.54,-407 1507.41,-439.7 1573.83,-442.77"/>
<polygon fill="black" stroke="black" points="1573.92,-446.27 1584,-443 1574.08,-439.27 1573.92,-446.27"/>
</g>
<!-- ThetaBins[SampleRun]&#45;&gt;WavelengthThetaFigure -->
<g id="edge67" class="edge">
<title>ThetaBins[SampleRun]:e&#45;&gt;WavelengthThetaFigure:w</title>
<path fill="none" stroke="black" d="M1419,-407C1476.32,-407 1493.17,-406.11 1545.75,-406.01"/>
<polygon fill="black" stroke="black" points="1546,-409.51 1556,-406 1546,-402.51 1546,-409.51"/>
</g>
<!-- RawSampleRotation[ReferenceRun] -->
<g id="node36" class="node">
<title>RawSampleRotation[ReferenceRun]</title>
<polygon fill="none" stroke="red" stroke-dasharray="5,2" points="153.5,-62.5 43.5,-62.5 43.5,-41.5 153.5,-41.5 153.5,-62.5"/>
<text text-anchor="start" x="51.5" y="-48.9" font-family="Times,serif" font-size="12.00" fill="red">[ReferenceRun]</text>
</g>
<!-- RawSampleRotation[ReferenceRun]&#45;&gt;SampleRotation[ReferenceRun] -->
<g id="edge60" class="edge">
<title>RawSampleRotation[ReferenceRun]:e&#45;&gt;SampleRotation[ReferenceRun]:w</title>
<path fill="none" stroke="black" d="M154.5,-52C226.73,-52 247.32,-52 314.71,-52"/>
<polygon fill="black" stroke="black" points="315,-55.5 325,-52 315,-48.5 315,-55.5"/>
</g>
<!-- RawSampleRotation[SampleRun] -->
<g id="node37" class="node">
<title>RawSampleRotation[SampleRun]</title>
<polygon fill="none" stroke="red" stroke-dasharray="5,2" points="146,-37.5 51,-37.5 51,-16.5 146,-16.5 146,-37.5"/>
<text text-anchor="start" x="59" y="-23.9" font-family="Times,serif" font-size="12.00" fill="red">[SampleRun]</text>
</g>
<!-- RawSampleRotation[SampleRun]&#45;&gt;SampleRotation[SampleRun] -->
<g id="edge62" class="edge">
<title>RawSampleRotation[SampleRun]:e&#45;&gt;SampleRotation[SampleRun]:w</title>
<path fill="none" stroke="black" d="M147.5,-27C225.98,-27 248.12,-27 321.76,-27"/>
<polygon fill="black" stroke="black" points="322,-30.5 332,-27 322,-23.5 322,-30.5"/>
</g>
<!-- ReducibleData[ReferenceRun]&#45;&gt;ReducedReference -->
<g id="edge27" class="edge">
<title>ReducibleData[ReferenceRun]:e&#45;&gt;ReducedReference:w</title>
<path fill="none" stroke="black" d="M749,-385C836.42,-385 828.8,-490.27 908.8,-498.49"/>
<polygon fill="black" stroke="black" points="908.84,-502 919,-499 909.19,-495.01 908.84,-502"/>
</g>
<!-- ReducedReference&#45;&gt;Reference -->
<g id="edge41" class="edge">
<title>ReducedReference:e&#45;&gt;Reference:w</title>
<path fill="none" stroke="black" d="M1071,-499C1152.41,-499 1166.98,-445.66 1242.91,-441.28"/>
<polygon fill="black" stroke="black" points="1243.1,-444.78 1253,-441 1242.91,-437.78 1243.1,-444.78"/>
</g>
<!-- ReducedReference&#45;&gt;Sample -->
<g id="edge56" class="edge">
<title>ReducedReference:e&#45;&gt;Sample:w</title>
<path fill="none" stroke="black" d="M1071,-499C1112.05,-499 1123.47,-514.17 1159.67,-516.66"/>
<polygon fill="black" stroke="black" points="1159.89,-520.17 1170,-517 1160.12,-513.17 1159.89,-520.17"/>
</g>
<!-- WavelengthBins -->
<g id="node40" class="node">
<title>WavelengthBins</title>
<polygon fill="none" stroke="black" points="447,-583.5 315,-583.5 315,-560.5 447,-560.5 447,-583.5"/>
<text text-anchor="middle" x="381" y="-568.3" font-family="Times,serif" font-size="14.00">WavelengthBins</text>
</g>
<!-- WavelengthBins&#45;&gt;ReducibleData[ReferenceRun] -->
<g id="edge36" class="edge">
<title>WavelengthBins:e&#45;&gt;ReducibleData[ReferenceRun]:w</title>
<path fill="none" stroke="black" stroke-width="2" d="M448,-572C520.91,-572 530.81,-500.81 555.46,-446.28"/>
<polygon fill="black" stroke="black" stroke-width="2" points="558.74,-447.53 559.9,-437 552.43,-444.51 558.74,-447.53"/>
</g>
<!-- WavelengthBins&#45;&gt;ReducedReference -->
<g id="edge28" class="edge">
<title>WavelengthBins:e&#45;&gt;ReducedReference:w</title>
<path fill="none" stroke="black" d="M448,-572C469.08,-572 475.32,-568.48 493,-557 528.35,-534.04 518.43,-504 557,-487 667.62,-438.25 708.38,-478.99 829,-487 865.65,-489.43 876.71,-497.38 908.83,-498.79"/>
<polygon fill="black" stroke="black" points="908.93,-502.29 919,-499 909.08,-495.29 908.93,-502.29"/>
</g>
<!-- WavelengthBins&#45;&gt;WavelengthThetaFigure -->
<g id="edge66" class="edge">
<title>WavelengthBins:e&#45;&gt;WavelengthThetaFigure:w</title>
<path fill="none" stroke="black" d="M448,-572C469.08,-572 476.22,-569.76 493,-557 533.53,-526.2 513.15,-487.87 557,-462 661.53,-400.34 722.21,-495.66 829,-438 869.37,-416.2 851.71,-377 893,-357 934,-337.14 1052.5,-354.82 1098,-357 1270.15,-365.23 1313.12,-371.6 1484,-394 1512.52,-397.74 1521.57,-404.28 1545.87,-405.72"/>
<polygon fill="black" stroke="black" points="1545.91,-409.22 1556,-406 1546.1,-402.22 1545.91,-409.22"/>
</g>
<!-- WavelengthBins&#45;&gt;ReflectivityOverZW -->
<g id="edge54" class="edge">
<title>WavelengthBins:e&#45;&gt;ReflectivityOverZW:w</title>
<path fill="none" stroke="black" d="M448,-572C617.36,-572 659.72,-570.3 829,-565 1120.25,-555.88 1194.47,-568.95 1484,-536 1526.64,-531.15 1538.64,-519.09 1576.72,-517.24"/>
<polygon fill="black" stroke="black" points="1577.08,-520.73 1587,-517 1576.92,-513.74 1577.08,-520.73"/>
</g>
<!-- YIndexLimits -->
<g id="node41" class="node">
<title>YIndexLimits</title>
<polygon fill="none" stroke="black" points="436,-294.5 326,-294.5 326,-271.5 436,-271.5 436,-294.5"/>
<text text-anchor="middle" x="381" y="-279.3" font-family="Times,serif" font-size="14.00">YIndexLimits</text>
</g>
<!-- YIndexLimits&#45;&gt;ReducibleData[ReferenceRun] -->
<g id="edge33" class="edge">
<title>YIndexLimits:e&#45;&gt;ReducibleData[ReferenceRun]:w</title>
<path fill="none" stroke="black" stroke-width="2" d="M437,-283C463.28,-283 470.94,-287.71 493,-302 525.08,-322.79 521.29,-346.53 548.46,-365.71"/>
<polygon fill="black" stroke="black" stroke-width="2" points="546.65,-368.71 557,-371 550.34,-362.76 546.65,-368.71"/>
</g>
<!-- ZIndexLimits -->
<g id="node42" class="node">
<title>ZIndexLimits</title>
<polygon fill="none" stroke="black" points="436.5,-556.5 325.5,-556.5 325.5,-533.5 436.5,-533.5 436.5,-556.5"/>
<text text-anchor="middle" x="381" y="-541.3" font-family="Times,serif" font-size="14.00">ZIndexLimits</text>
</g>
<!-- ZIndexLimits&#45;&gt;ReducibleData[ReferenceRun] -->
<g id="edge34" class="edge">
<title>ZIndexLimits:e&#45;&gt;ReducibleData[ReferenceRun]:w</title>
<path fill="none" stroke="black" stroke-width="2" d="M437,-545C506.41,-545 523.21,-485.52 551.56,-439.09"/>
<polygon fill="black" stroke="black" stroke-width="2" points="554.56,-440.9 557,-430.59 548.66,-437.12 554.56,-440.9"/>
</g>
<!-- WavelengthThetaFigure&#45;&gt;ReflectivityDiagnosticsView -->
<g id="edge45" class="edge">
<title>WavelengthThetaFigure:e&#45;&gt;ReflectivityDiagnosticsView:w</title>
<path fill="none" stroke="black" d="M1794,-406C1922.67,-406 1954.45,-420.74 2081,-444 2109.67,-449.27 2118.26,-458.56 2142.76,-460.6"/>
<polygon fill="black" stroke="black" points="2142.87,-464.1 2153,-461 2143.15,-457.11 2142.87,-464.1"/>
</g>
<!-- WavelengthZIndexFigure -->
<g id="node45" class="node">
<title>WavelengthZIndexFigure</title>
<polygon fill="none" stroke="black" points="2081,-526.5 1866,-526.5 1866,-493.5 2081,-493.5 2081,-526.5"/>
<text text-anchor="start" x="1883" y="-512.3" font-family="Times,serif" font-size="14.00">WavelengthZIndexFigure</text>
<text text-anchor="start" x="1874" y="-500.7" font-family="Times,serif" font-size="11.00">via:</text>
<text text-anchor="start" x="1895" y="-500.7" font-family="Times,serif" font-style="italic" font-size="11.00">wavelength_z_diagnostic_figure</text>
</g>
<!-- WavelengthZIndexFigure&#45;&gt;ReflectivityDiagnosticsView -->
<g id="edge46" class="edge">
<title>WavelengthZIndexFigure:e&#45;&gt;ReflectivityDiagnosticsView:w</title>
<path fill="none" stroke="black" d="M2081,-510C2115.93,-510 2114.93,-470.1 2142.84,-462.31"/>
<polygon fill="black" stroke="black" points="2143.53,-465.75 2153,-461 2142.63,-458.81 2143.53,-465.75"/>
</g>
<!-- Sample&#45;&gt;ReflectivityOverQ -->
<g id="edge49" class="edge">
<title>Sample:e&#45;&gt;ReflectivityOverQ:w</title>
<path fill="none" stroke="black" d="M1484,-517C1531.17,-517 1540.13,-485.02 1581.92,-480.52"/>
<polygon fill="black" stroke="black" points="1582.19,-484.01 1592,-480 1581.83,-477.02 1582.19,-484.01"/>
</g>
<!-- Sample&#45;&gt;ReflectivityOverZW -->
<g id="edge52" class="edge">
<title>Sample:e&#45;&gt;ReflectivityOverZW:w</title>
<path fill="none" stroke="black" d="M1484,-517C1526.2,-517 1539.22,-517 1576.87,-517"/>
<polygon fill="black" stroke="black" points="1577,-520.5 1587,-517 1577,-513.5 1577,-520.5"/>
</g>
<!-- ReflectivityOverZW&#45;&gt;WavelengthZIndexFigure -->
<g id="edge68" class="edge">
<title>ReflectivityOverZW:e&#45;&gt;WavelengthZIndexFigure:w</title>
<path fill="none" stroke="black" d="M1763,-517C1805.3,-517 1818.15,-511.05 1855.85,-510.12"/>
<polygon fill="black" stroke="black" points="1856.04,-513.62 1866,-510 1855.96,-506.62 1856.04,-513.62"/>
</g>
</g>
</svg>
