<?xml version="1.0" encoding="UTF-8" standalone="no"?>
<!DOCTYPE svg PUBLIC "-//W3C//DTD SVG 1.1//EN"
 "http://www.w3.org/Graphics/SVG/1.1/DTD/svg11.dtd">
<!-- Generated by graphviz version 2.43.0 (0)
 -->
<!-- Title: %3 Pages: 1 -->
<svg width="2705pt" height="501pt"
 viewBox="0.00 0.00 2705.00 501.49" xmlns="http://www.w3.org/2000/svg" xmlns:xlink="http://www.w3.org/1999/xlink">
<g id="graph0" class="graph" transform="scale(1 1) rotate(0) translate(4 497.49)">
<title>%3</title>
<polygon fill="white" stroke="transparent" points="-4,4 -4,-497.49 2701,-497.49 2701,4 -4,4"/>
<g id="clust14" class="cluster">
<title>cluster_Filename</title>
<polygon fill="#f0f0ff" stroke="#f0f0ff" points="35.5,-262.5 35.5,-348.5 161.5,-348.5 161.5,-262.5 35.5,-262.5"/>
<text text-anchor="middle" x="98.5" y="-333.3" font-family="Times,serif" font-size="14.00">Filename</text>
</g>
<!-- Alpha -->
<g id="node1" class="node">
<title>Alpha</title>
<polygon fill="none" stroke="black" points="1460,-274 1403,-274 1403,-251 1460,-251 1460,-274"/>
<text text-anchor="middle" x="1431.5" y="-258.8" font-family="Times,serif" font-size="14.00">Alpha</text>
</g>
<!-- Sample -->
<g id="node45" class="node">
<title>Sample</title>
<polygon fill="none" stroke="black" points="1966,-252 1652,-252 1652,-219 1966,-219 1966,-252"/>
<text text-anchor="start" x="1782" y="-237.8" font-family="Times,serif" font-size="14.00">Sample</text>
<text text-anchor="start" x="1660" y="-226.2" font-family="Times,serif" font-size="11.00">via:</text>
<text text-anchor="start" x="1681" y="-226.2" font-family="Times,serif" font-style="italic" font-size="11.00">mask_events_where_supermirror_does_not_cover</text>
</g>
<!-- Alpha&#45;&gt;Sample -->
<g id="edge57" class="edge">
<title>Alpha:e&#45;&gt;Sample:w</title>
<path fill="none" stroke="black" d="M1461.5,-262.5C1514.64,-262.5 1527.4,-254.07 1580,-246.5 1608.41,-242.41 1617.6,-236.92 1641.88,-235.73"/>
<polygon fill="black" stroke="black" points="1642.08,-239.23 1652,-235.5 1641.92,-232.23 1642.08,-239.23"/>
</g>
<!-- BeamDivergenceLimits -->
<g id="node2" class="node">
<title>BeamDivergenceLimits</title>
<polygon fill="none" stroke="black" points="1190.5,-150 1007.5,-150 1007.5,-127 1190.5,-127 1190.5,-150"/>
<text text-anchor="middle" x="1099" y="-134.8" font-family="Times,serif" font-size="14.00">BeamDivergenceLimits</text>
</g>
<!-- ReducibleData[SampleRun] -->
<g id="node31" class="node">
<title>ReducibleData[SampleRun]</title>
<polygon fill="none" stroke="black" points="1567.5,-155 1295.5,-155 1295.5,-122 1567.5,-122 1567.5,-155"/>
<text text-anchor="start" x="1333" y="-140.8" font-family="Times,serif" font-size="14.00">ReducibleData[SampleRun]</text>
<text text-anchor="start" x="1303.5" y="-129.2" font-family="Times,serif" font-size="11.00">via:</text>
<text text-anchor="start" x="1324.5" y="-129.2" font-family="Times,serif" font-style="italic" font-size="11.00">add_coords_masks_and_apply_corrections</text>
</g>
<!-- BeamDivergenceLimits&#45;&gt;ReducibleData[SampleRun] -->
<g id="edge42" class="edge">
<title>BeamDivergenceLimits:e&#45;&gt;ReducibleData[SampleRun]:w</title>
<path fill="none" stroke="black" d="M1192,-138.5C1234,-138.5 1246.96,-138.5 1284.42,-138.5"/>
<polygon fill="black" stroke="black" points="1284.5,-142 1294.5,-138.5 1284.5,-135 1284.5,-142"/>
</g>
<!-- BeamSize[SampleRun] -->
<g id="node3" class="node">
<title>BeamSize[SampleRun]</title>
<polygon fill="none" stroke="black" points="880.5,-179 701.5,-179 701.5,-156 880.5,-156 880.5,-179"/>
<text text-anchor="middle" x="791" y="-163.8" font-family="Times,serif" font-size="14.00">BeamSize[SampleRun]</text>
</g>
<!-- DetectorData[SampleRun] -->
<g id="node15" class="node">
<title>DetectorData[SampleRun]</title>
<polygon fill="none" stroke="black" points="1201.5,-187 996.5,-187 996.5,-154 1201.5,-154 1201.5,-187"/>
<text text-anchor="start" x="1004.5" y="-172.8" font-family="Times,serif" font-size="14.00">DetectorData[SampleRun]</text>
<text text-anchor="start" x="1055" y="-161.2" font-family="Times,serif" font-size="11.00">via:</text>
<text text-anchor="start" x="1076" y="-161.2" font-family="Times,serif" font-style="italic" font-size="11.00">load_events</text>
</g>
<!-- BeamSize[SampleRun]&#45;&gt;DetectorData[SampleRun] -->
<g id="edge13" class="edge">
<title>BeamSize[SampleRun]:e&#45;&gt;DetectorData[SampleRun]:w</title>
<path fill="none" stroke="black" d="M882,-167.5C929.12,-167.5 943.35,-170.09 985.85,-170.46"/>
<polygon fill="black" stroke="black" points="985.99,-173.96 996,-170.5 986.01,-166.96 985.99,-173.96"/>
</g>
<!-- Filename[SampleRun] -->
<g id="node4" class="node">
<title>Filename[SampleRun]</title>
<polygon fill="none" stroke="black" points="146,-292 51,-292 51,-271 146,-271 146,-292"/>
<text text-anchor="start" x="59" y="-278.4" font-family="Times,serif" font-size="12.00">[SampleRun]</text>
</g>
<!-- Beamline -->
<g id="node5" class="node">
<title>Beamline</title>
<polygon fill="none" stroke="black" points="520.5,-372 343.5,-372 343.5,-339 520.5,-339 520.5,-372"/>
<text text-anchor="start" x="398.5" y="-357.8" font-family="Times,serif" font-size="14.00">Beamline</text>
<text text-anchor="start" x="351.5" y="-346.2" font-family="Times,serif" font-size="11.00">via:</text>
<text text-anchor="start" x="372.5" y="-346.2" font-family="Times,serif" font-style="italic" font-size="11.00">load_beamline_metadata</text>
</g>
<!-- Filename[SampleRun]&#45;&gt;Beamline -->
<g id="edge1" class="edge">
<title>Filename[SampleRun]:e&#45;&gt;Beamline:w</title>
<path fill="none" stroke="black" d="M147.5,-281.5C170.49,-281.5 175.79,-287.65 197,-296.5 258.31,-322.08 271.72,-352.26 332.78,-355.26"/>
<polygon fill="black" stroke="black" points="332.92,-358.76 343,-355.5 333.09,-351.76 332.92,-358.76"/>
</g>
<!-- RawChopper[SampleRun] -->
<g id="node6" class="node">
<title>RawChopper[SampleRun]</title>
<polygon fill="none" stroke="black" points="532,-160 332,-160 332,-127 532,-127 532,-160"/>
<text text-anchor="start" x="340" y="-145.8" font-family="Times,serif" font-size="14.00">RawChopper[SampleRun]</text>
<text text-anchor="start" x="381.5" y="-134.2" font-family="Times,serif" font-size="11.00">via:</text>
<text text-anchor="start" x="402.5" y="-134.2" font-family="Times,serif" font-style="italic" font-size="11.00">amor_chopper</text>
</g>
<!-- Filename[SampleRun]&#45;&gt;RawChopper[SampleRun] -->
<g id="edge37" class="edge">
<title>Filename[SampleRun]:e&#45;&gt;RawChopper[SampleRun]:w</title>
<path fill="none" stroke="black" d="M147.5,-281.5C222.78,-281.5 204.49,-202.29 269,-163.5 290.61,-150.5 299.65,-144.97 320.76,-143.76"/>
<polygon fill="black" stroke="black" points="321.09,-147.26 331,-143.5 320.91,-140.26 321.09,-147.26"/>
</g>
<!-- NeXusComponent[NXdetector, SampleRun] -->
<g id="node14" class="node">
<title>NeXusComponent[NXdetector, SampleRun]</title>
<polygon fill="none" stroke="black" points="595,-86 269,-86 269,-53 595,-53 595,-86"/>
<text text-anchor="start" x="277" y="-71.8" font-family="Times,serif" font-size="14.00">NeXusComponent[NXdetector, SampleRun]</text>
<text text-anchor="start" x="383" y="-60.2" font-family="Times,serif" font-size="11.00">via:</text>
<text text-anchor="start" x="404" y="-60.2" font-family="Times,serif" font-style="italic" font-size="11.00">load_detector</text>
</g>
<!-- Filename[SampleRun]&#45;&gt;NeXusComponent[NXdetector, SampleRun] -->
<g id="edge16" class="edge">
<title>Filename[SampleRun]:e&#45;&gt;NeXusComponent[NXdetector, SampleRun]:w</title>
<path fill="none" stroke="black" d="M147.5,-281.5C252.49,-281.5 166.53,-83.34 258.84,-70.19"/>
<polygon fill="black" stroke="black" points="259.26,-73.67 269,-69.5 258.79,-66.68 259.26,-73.67"/>
</g>
<!-- DetectorRotation[SampleRun] -->
<g id="node16" class="node">
<title>DetectorRotation[SampleRun]</title>
<polygon fill="none" stroke="black" points="548,-123 316,-123 316,-90 548,-90 548,-123"/>
<text text-anchor="start" x="324" y="-108.8" font-family="Times,serif" font-size="14.00">DetectorRotation[SampleRun]</text>
<text text-anchor="start" x="340.5" y="-97.2" font-family="Times,serif" font-size="11.00">via:</text>
<text text-anchor="start" x="361.5" y="-97.2" font-family="Times,serif" font-style="italic" font-size="11.00">load_amor_detector_rotation</text>
</g>
<!-- Filename[SampleRun]&#45;&gt;DetectorRotation[SampleRun] -->
<g id="edge14" class="edge">
<title>Filename[SampleRun]:e&#45;&gt;DetectorRotation[SampleRun]:w</title>
<path fill="none" stroke="black" d="M147.5,-281.5C251.59,-281.5 210.34,-117.93 304.78,-107.07"/>
<polygon fill="black" stroke="black" points="305.21,-110.55 315,-106.5 304.82,-103.56 305.21,-110.55"/>
</g>
<!-- Measurement -->
<g id="node22" class="node">
<title>Measurement</title>
<polygon fill="none" stroke="black" points="533.5,-335 330.5,-335 330.5,-302 533.5,-302 533.5,-335"/>
<text text-anchor="start" x="382" y="-320.8" font-family="Times,serif" font-size="14.00">Measurement</text>
<text text-anchor="start" x="338.5" y="-309.2" font-family="Times,serif" font-size="11.00">via:</text>
<text text-anchor="start" x="359.5" y="-309.2" font-family="Times,serif" font-style="italic" font-size="11.00">load_measurement_metadata</text>
</g>
<!-- Filename[SampleRun]&#45;&gt;Measurement -->
<g id="edge15" class="edge">
<title>Filename[SampleRun]:e&#45;&gt;Measurement:w</title>
<path fill="none" stroke="black" d="M147.5,-281.5C226.71,-281.5 245.66,-315.39 319.69,-318.3"/>
<polygon fill="black" stroke="black" points="319.93,-321.81 330,-318.5 320.07,-314.81 319.93,-321.81"/>
</g>
<!-- OrsoOwner -->
<g id="node26" class="node">
<title>OrsoOwner</title>
<polygon fill="none" stroke="black" points="502,-446 362,-446 362,-413 502,-413 502,-446"/>
<text text-anchor="start" x="391" y="-431.8" font-family="Times,serif" font-size="14.00">OrsoOwner</text>
<text text-anchor="start" x="370" y="-420.2" font-family="Times,serif" font-size="11.00">via:</text>
<text text-anchor="start" x="391" y="-420.2" font-family="Times,serif" font-style="italic" font-size="11.00">parse_orso_owner</text>
</g>
<!-- Filename[SampleRun]&#45;&gt;OrsoOwner -->
<g id="edge32" class="edge">
<title>Filename[SampleRun]:e&#45;&gt;OrsoOwner:w</title>
<path fill="none" stroke="black" d="M147.5,-281.5C170.49,-281.5 178.68,-282.61 197,-296.5 244.45,-332.49 220.15,-375.45 269,-409.5 300.38,-431.37 316.3,-429.97 350.76,-429.57"/>
<polygon fill="black" stroke="black" points="351.02,-433.07 361,-429.5 350.98,-426.07 351.02,-433.07"/>
</g>
<!-- OrsoSample -->
<g id="node28" class="node">
<title>OrsoSample</title>
<polygon fill="none" stroke="black" points="504.5,-409 359.5,-409 359.5,-376 504.5,-376 504.5,-409"/>
<text text-anchor="start" x="388" y="-394.8" font-family="Times,serif" font-size="14.00">OrsoSample</text>
<text text-anchor="start" x="367.5" y="-383.2" font-family="Times,serif" font-size="11.00">via:</text>
<text text-anchor="start" x="388.5" y="-383.2" font-family="Times,serif" font-style="italic" font-size="11.00">parse_orso_sample</text>
</g>
<!-- Filename[SampleRun]&#45;&gt;OrsoSample -->
<g id="edge34" class="edge">
<title>Filename[SampleRun]:e&#45;&gt;OrsoSample:w</title>
<path fill="none" stroke="black" d="M147.5,-281.5C170.49,-281.5 177.44,-284.42 197,-296.5 236.59,-320.95 228.55,-349.51 269,-372.5 301.08,-390.73 314.91,-392.34 347.7,-392.49"/>
<polygon fill="black" stroke="black" points="348,-395.99 358,-392.5 348,-388.99 348,-395.99"/>
</g>
<!-- OrsoSampleFilenames -->
<g id="node36" class="node">
<title>OrsoSampleFilenames</title>
<polygon fill="none" stroke="black" points="520.5,-298 343.5,-298 343.5,-265 520.5,-265 520.5,-298"/>
<text text-anchor="start" x="351.5" y="-283.8" font-family="Times,serif" font-size="14.00">OrsoSampleFilenames</text>
<text text-anchor="start" x="379" y="-272.2" font-family="Times,serif" font-size="11.00">via:</text>
<text text-anchor="start" x="400" y="-272.2" font-family="Times,serif" font-style="italic" font-size="11.00">orso_data_files</text>
</g>
<!-- Filename[SampleRun]&#45;&gt;OrsoSampleFilenames -->
<g id="edge35" class="edge">
<title>Filename[SampleRun]:e&#45;&gt;OrsoSampleFilenames:w</title>
<path fill="none" stroke="black" d="M147.5,-281.5C230.83,-281.5 254.22,-281.5 332.63,-281.5"/>
<polygon fill="black" stroke="black" points="333,-285 343,-281.5 333,-278 333,-285"/>
</g>
<!-- ProtonCurrent[SampleRun] -->
<g id="node37" class="node">
<title>ProtonCurrent[SampleRun]</title>
<polygon fill="none" stroke="black" points="538.5,-261 325.5,-261 325.5,-228 538.5,-228 538.5,-261"/>
<text text-anchor="start" x="333.5" y="-246.8" font-family="Times,serif" font-size="14.00">ProtonCurrent[SampleRun]</text>
<text text-anchor="start" x="347.5" y="-235.2" font-family="Times,serif" font-size="11.00">via:</text>
<text text-anchor="start" x="368.5" y="-235.2" font-family="Times,serif" font-style="italic" font-size="11.00">load_amor_proton_current</text>
</g>
<!-- Filename[SampleRun]&#45;&gt;ProtonCurrent[SampleRun] -->
<g id="edge36" class="edge">
<title>Filename[SampleRun]:e&#45;&gt;ProtonCurrent[SampleRun]:w</title>
<path fill="none" stroke="black" d="M147.5,-281.5C224.62,-281.5 242.89,-247.61 314.96,-244.7"/>
<polygon fill="black" stroke="black" points="315.07,-248.2 325,-244.5 314.93,-241.2 315.07,-248.2"/>
</g>
<!-- RawSampleRotation[SampleRun] -->
<g id="node39" class="node">
<title>RawSampleRotation[SampleRun]</title>
<polygon fill="none" stroke="black" points="559,-197 305,-197 305,-164 559,-164 559,-197"/>
<text text-anchor="start" x="313" y="-182.8" font-family="Times,serif" font-size="14.00">RawSampleRotation[SampleRun]</text>
<text text-anchor="start" x="344" y="-171.2" font-family="Times,serif" font-size="11.00">via:</text>
<text text-anchor="start" x="365" y="-171.2" font-family="Times,serif" font-style="italic" font-size="11.00">load_amor_sample_rotation</text>
</g>
<!-- Filename[SampleRun]&#45;&gt;RawSampleRotation[SampleRun] -->
<g id="edge38" class="edge">
<title>Filename[SampleRun]:e&#45;&gt;RawSampleRotation[SampleRun]:w</title>
<path fill="none" stroke="black" d="M147.5,-281.5C226.73,-281.5 221.83,-188.99 293.82,-181.04"/>
<polygon fill="black" stroke="black" points="294.2,-184.53 304,-180.5 293.83,-177.54 294.2,-184.53"/>
</g>
<!-- OrsoExperiment -->
<g id="node29" class="node">
<title>OrsoExperiment</title>
<polygon fill="none" stroke="black" points="875,-335 707,-335 707,-302 875,-302 875,-335"/>
<text text-anchor="start" x="732" y="-320.8" font-family="Times,serif" font-size="14.00">OrsoExperiment</text>
<text text-anchor="start" x="715" y="-309.2" font-family="Times,serif" font-size="11.00">via:</text>
<text text-anchor="start" x="736" y="-309.2" font-family="Times,serif" font-style="italic" font-size="11.00">parse_orso_experiment</text>
</g>
<!-- Beamline&#45;&gt;OrsoExperiment -->
<g id="edge22" class="edge">
<title>Beamline:e&#45;&gt;OrsoExperiment:w</title>
<path fill="none" stroke="black" d="M521,-355.5C601.25,-355.5 620.54,-321.61 695.55,-318.7"/>
<polygon fill="black" stroke="black" points="696.07,-322.19 706,-318.5 695.94,-315.19 696.07,-322.19"/>
</g>
<!-- ChopperDistance[SampleRun] -->
<g id="node7" class="node">
<title>ChopperDistance[SampleRun]</title>
<polygon fill="none" stroke="black" points="907,-98 675,-98 675,-65 907,-65 907,-98"/>
<text text-anchor="start" x="683" y="-83.8" font-family="Times,serif" font-size="14.00">ChopperDistance[SampleRun]</text>
<text text-anchor="start" x="699.5" y="-72.2" font-family="Times,serif" font-size="11.00">via:</text>
<text text-anchor="start" x="720.5" y="-72.2" font-family="Times,serif" font-style="italic" font-size="11.00">load_amor_chopper_distance</text>
</g>
<!-- RawChopper[SampleRun]&#45;&gt;ChopperDistance[SampleRun] -->
<g id="edge2" class="edge">
<title>RawChopper[SampleRun]:e&#45;&gt;ChopperDistance[SampleRun]:w</title>
<path fill="none" stroke="black" d="M533,-143.5C562.09,-143.5 568.23,-133.9 595,-122.5 627.98,-108.45 633.58,-86.19 663.78,-82.14"/>
<polygon fill="black" stroke="black" points="664.24,-85.62 674,-81.5 663.8,-78.63 664.24,-85.62"/>
</g>
<!-- ChopperSeparation[SampleRun] -->
<g id="node10" class="node">
<title>ChopperSeparation[SampleRun]</title>
<polygon fill="none" stroke="black" points="915,-227 667,-227 667,-194 915,-194 915,-227"/>
<text text-anchor="start" x="675" y="-212.8" font-family="Times,serif" font-size="14.00">ChopperSeparation[SampleRun]</text>
<text text-anchor="start" x="693" y="-201.2" font-family="Times,serif" font-size="11.00">via:</text>
<text text-anchor="start" x="714" y="-201.2" font-family="Times,serif" font-style="italic" font-size="11.00">load_amor_chopper_separation</text>
</g>
<!-- RawChopper[SampleRun]&#45;&gt;ChopperSeparation[SampleRun] -->
<g id="edge3" class="edge">
<title>RawChopper[SampleRun]:e&#45;&gt;ChopperSeparation[SampleRun]:w</title>
<path fill="none" stroke="black" d="M533,-143.5C561.95,-143.5 568.87,-151.03 595,-163.5 626.12,-178.35 628.59,-204.67 656.85,-209.67"/>
<polygon fill="black" stroke="black" points="656.75,-213.17 667,-210.5 657.32,-206.19 656.75,-213.17"/>
</g>
<!-- ChopperDistance[SampleRun]&#45;&gt;DetectorData[SampleRun] -->
<g id="edge10" class="edge">
<title>ChopperDistance[SampleRun]:e&#45;&gt;DetectorData[SampleRun]:w</title>
<path fill="none" stroke="black" d="M908,-81.5C959.93,-81.5 943.11,-159.07 985.92,-169.37"/>
<polygon fill="black" stroke="black" points="985.67,-172.87 996,-170.5 986.45,-165.91 985.67,-172.87"/>
</g>
<!-- ChopperFrequency[SampleRun] -->
<g id="node8" class="node">
<title>ChopperFrequency[SampleRun]</title>
<polygon fill="none" stroke="black" points="913.5,-152 668.5,-152 668.5,-129 913.5,-129 913.5,-152"/>
<text text-anchor="middle" x="791" y="-136.8" font-family="Times,serif" font-size="14.00">ChopperFrequency[SampleRun]</text>
</g>
<!-- ChopperFrequency[SampleRun]&#45;&gt;DetectorData[SampleRun] -->
<g id="edge9" class="edge">
<title>ChopperFrequency[SampleRun]:e&#45;&gt;DetectorData[SampleRun]:w</title>
<path fill="none" stroke="black" d="M915,-140.5C949.64,-140.5 956.46,-164.93 985.67,-169.7"/>
<polygon fill="black" stroke="black" points="985.76,-173.22 996,-170.5 986.3,-166.24 985.76,-173.22"/>
</g>
<!-- ChopperPhase[SampleRun] -->
<g id="node9" class="node">
<title>ChopperPhase[SampleRun]</title>
<polygon fill="none" stroke="black" points="897,-125 685,-125 685,-102 897,-102 897,-125"/>
<text text-anchor="middle" x="791" y="-109.8" font-family="Times,serif" font-size="14.00">ChopperPhase[SampleRun]</text>
</g>
<!-- ChopperPhase[SampleRun]&#45;&gt;DetectorData[SampleRun] -->
<g id="edge8" class="edge">
<title>ChopperPhase[SampleRun]:e&#45;&gt;DetectorData[SampleRun]:w</title>
<path fill="none" stroke="black" d="M898,-113.5C944.75,-113.5 945.74,-162.56 985.87,-169.65"/>
<polygon fill="black" stroke="black" points="985.74,-173.15 996,-170.5 986.33,-166.18 985.74,-173.15"/>
</g>
<!-- ChopperSeparation[SampleRun]&#45;&gt;DetectorData[SampleRun] -->
<g id="edge11" class="edge">
<title>ChopperSeparation[SampleRun]:e&#45;&gt;DetectorData[SampleRun]:w</title>
<path fill="none" stroke="black" d="M915,-210.5C951.39,-210.5 955.37,-177.65 985.68,-171.49"/>
<polygon fill="black" stroke="black" points="986.38,-174.94 996,-170.5 985.71,-167.97 986.38,-174.94"/>
</g>
<!-- GravityToggle -->
<g id="node11" class="node">
<title>GravityToggle</title>
<polygon fill="none" stroke="black" points="849.5,-23 732.5,-23 732.5,0 849.5,0 849.5,-23"/>
<text text-anchor="middle" x="791" y="-7.8" font-family="Times,serif" font-size="14.00">GravityToggle</text>
</g>
<!-- CoordTransformationGraph -->
<g id="node12" class="node">
<title>CoordTransformationGraph</title>
<polygon fill="none" stroke="black" points="1211,-42 987,-42 987,-9 1211,-9 1211,-42"/>
<text text-anchor="start" x="1000" y="-27.8" font-family="Times,serif" font-size="14.00">CoordTransformationGraph</text>
<text text-anchor="start" x="995" y="-16.2" font-family="Times,serif" font-size="11.00">via:</text>
<text text-anchor="start" x="1016" y="-16.2" font-family="Times,serif" font-style="italic" font-size="11.00">coordinate_transformation_graph</text>
</g>
<!-- GravityToggle&#45;&gt;CoordTransformationGraph -->
<g id="edge4" class="edge">
<title>GravityToggle:e&#45;&gt;CoordTransformationGraph:w</title>
<path fill="none" stroke="black" d="M851,-11.5C908.2,-11.5 924.38,-23.91 976.78,-25.36"/>
<polygon fill="black" stroke="black" points="976.95,-28.86 987,-25.5 977.05,-21.86 976.95,-28.86"/>
</g>
<!-- CoordTransformationGraph&#45;&gt;ReducibleData[SampleRun] -->
<g id="edge45" class="edge">
<title>CoordTransformationGraph:e&#45;&gt;ReducibleData[SampleRun]:w</title>
<path fill="none" stroke="black" d="M1211,-25.5C1269.79,-25.5 1236.55,-125.65 1284.55,-137.38"/>
<polygon fill="black" stroke="black" points="1284.17,-140.86 1294.5,-138.5 1284.95,-133.9 1284.17,-140.86"/>
</g>
<!-- Reference -->
<g id="node44" class="node">
<title>Reference</title>
<polygon fill="none" stroke="black" points="1934,-151 1684,-151 1684,-118 1934,-118 1934,-151"/>
<text text-anchor="start" x="1772.5" y="-136.8" font-family="Times,serif" font-size="14.00">Reference</text>
<text text-anchor="start" x="1692" y="-125.2" font-family="Times,serif" font-size="11.00">via:</text>
<text text-anchor="start" x="1713" y="-125.2" font-family="Times,serif" font-style="italic" font-size="11.00">evaluate_reference_at_sample_coords</text>
</g>
<!-- CoordTransformationGraph&#45;&gt;Reference -->
<g id="edge49" class="edge">
<title>CoordTransformationGraph:e&#45;&gt;Reference:w</title>
<path fill="none" stroke="black" d="M1211,-25.5C1377.68,-25.5 1419.97,-45.89 1580,-92.5 1624.04,-105.32 1632.47,-130.5 1672.93,-134.07"/>
<polygon fill="black" stroke="black" points="1672.86,-137.57 1683,-134.5 1673.16,-130.58 1672.86,-137.57"/>
</g>
<!-- CriticalEdge -->
<g id="node13" class="node">
<title>CriticalEdge</title>
<polygon fill="none" stroke="black" points="1484.5,-247 1378.5,-247 1378.5,-224 1484.5,-224 1484.5,-247"/>
<text text-anchor="middle" x="1431.5" y="-231.8" font-family="Times,serif" font-size="14.00">CriticalEdge</text>
</g>
<!-- CriticalEdge&#45;&gt;Sample -->
<g id="edge55" class="edge">
<title>CriticalEdge:e&#45;&gt;Sample:w</title>
<path fill="none" stroke="black" d="M1485.5,-235.5C1556.03,-235.5 1576.14,-235.5 1641.95,-235.5"/>
<polygon fill="black" stroke="black" points="1642,-239 1652,-235.5 1642,-232 1642,-239"/>
</g>
<!-- NeXusComponent[NXdetector, SampleRun]&#45;&gt;DetectorData[SampleRun] -->
<g id="edge5" class="edge">
<title>NeXusComponent[NXdetector, SampleRun]:e&#45;&gt;DetectorData[SampleRun]:w</title>
<path fill="none" stroke="black" d="M595,-69.5C653.43,-69.5 615.6,-151.71 667,-179.5 715.48,-205.71 859.97,-182.55 915,-179.5 947.49,-177.7 957.74,-171.87 985.76,-170.7"/>
<polygon fill="black" stroke="black" points="986.07,-174.2 996,-170.5 985.93,-167.2 986.07,-174.2"/>
</g>
<!-- DetectorData[SampleRun]&#45;&gt;ReducibleData[SampleRun] -->
<g id="edge39" class="edge">
<title>DetectorData[SampleRun]:e&#45;&gt;ReducibleData[SampleRun]:w</title>
<path fill="none" stroke="black" d="M1202,-170.5C1241.76,-170.5 1249.77,-143.76 1284.08,-139.17"/>
<polygon fill="black" stroke="black" points="1284.74,-142.63 1294.5,-138.5 1284.3,-135.65 1284.74,-142.63"/>
</g>
<!-- DetectorRotation[SampleRun]&#45;&gt;DetectorData[SampleRun] -->
<g id="edge6" class="edge">
<title>DetectorRotation[SampleRun]:e&#45;&gt;DetectorData[SampleRun]:w</title>
<path fill="none" stroke="black" d="M549,-106.5C604.67,-106.5 612.14,-73.97 667,-64.5 721.31,-55.12 865.6,-40.08 915,-64.5 964.83,-89.13 940.31,-160.74 985.9,-169.6"/>
<polygon fill="black" stroke="black" points="985.73,-173.1 996,-170.5 986.35,-166.12 985.73,-173.1"/>
</g>
<!-- SampleRotation[SampleRun] -->
<g id="node17" class="node">
<title>SampleRotation[SampleRun]</title>
<polygon fill="none" stroke="black" points="902.5,-264 679.5,-264 679.5,-231 902.5,-231 902.5,-264"/>
<text text-anchor="start" x="687.5" y="-249.8" font-family="Times,serif" font-size="14.00">SampleRotation[SampleRun]</text>
<text text-anchor="start" x="712" y="-238.2" font-family="Times,serif" font-size="11.00">via:</text>
<text text-anchor="start" x="733" y="-238.2" font-family="Times,serif" font-style="italic" font-size="11.00">correct_sample_rotation</text>
</g>
<!-- SampleRotation[SampleRun]&#45;&gt;DetectorData[SampleRun] -->
<g id="edge7" class="edge">
<title>SampleRotation[SampleRun]:e&#45;&gt;DetectorData[SampleRun]:w</title>
<path fill="none" stroke="black" d="M903,-247.5C952.99,-247.5 943.98,-180.67 985.9,-171.53"/>
<polygon fill="black" stroke="black" points="986.41,-175 996,-170.5 985.7,-168.03 986.41,-175"/>
</g>
<!-- SampleSize[SampleRun] -->
<g id="node18" class="node">
<title>SampleSize[SampleRun]</title>
<polygon fill="none" stroke="black" points="887,-50 695,-50 695,-27 887,-27 887,-50"/>
<text text-anchor="middle" x="791" y="-34.8" font-family="Times,serif" font-size="14.00">SampleSize[SampleRun]</text>
</g>
<!-- SampleSize[SampleRun]&#45;&gt;DetectorData[SampleRun] -->
<g id="edge12" class="edge">
<title>SampleSize[SampleRun]:e&#45;&gt;DetectorData[SampleRun]:w</title>
<path fill="none" stroke="black" d="M888,-38.5C960.1,-38.5 924.17,-157.92 985.72,-169.59"/>
<polygon fill="black" stroke="black" points="985.73,-173.1 996,-170.5 986.35,-166.13 985.73,-173.1"/>
</g>
<!-- DetectorSpatialResolution[SampleRun] -->
<g id="node19" class="node">
<title>DetectorSpatialResolution[SampleRun]</title>
<polygon fill="none" stroke="black" points="1580,-118 1283,-118 1283,-95 1580,-95 1580,-118"/>
<text text-anchor="middle" x="1431.5" y="-102.8" font-family="Times,serif" font-size="14.00">DetectorSpatialResolution[SampleRun]</text>
</g>
<!-- DetectorSpatialResolution[SampleRun]&#45;&gt;Reference -->
<g id="edge48" class="edge">
<title>DetectorSpatialResolution[SampleRun]:e&#45;&gt;Reference:w</title>
<path fill="none" stroke="black" d="M1580,-106.5C1623.73,-106.5 1634.05,-130.3 1672.56,-134.01"/>
<polygon fill="black" stroke="black" points="1672.85,-137.53 1683,-134.5 1673.17,-130.54 1672.85,-137.53"/>
</g>
<!-- Filename[ReferenceRun] -->
<g id="node20" class="node">
<title>Filename[ReferenceRun]</title>
<polygon fill="none" stroke="black" points="153.5,-317 43.5,-317 43.5,-296 153.5,-296 153.5,-317"/>
<text text-anchor="start" x="51.5" y="-303.4" font-family="Times,serif" font-size="12.00">[ReferenceRun]</text>
</g>
<!-- OrsoMeasurement -->
<g id="node30" class="node">
<title>OrsoMeasurement</title>
<polygon fill="none" stroke="black" points="2216,-302 2038,-302 2038,-269 2216,-269 2216,-302"/>
<text text-anchor="start" x="2060.5" y="-287.8" font-family="Times,serif" font-size="14.00">OrsoMeasurement</text>
<text text-anchor="start" x="2046" y="-276.2" font-family="Times,serif" font-size="11.00">via:</text>
<text text-anchor="start" x="2067" y="-276.2" font-family="Times,serif" font-style="italic" font-size="11.00">build_orso_measurement</text>
</g>
<!-- Filename[ReferenceRun]&#45;&gt;OrsoMeasurement -->
<g id="edge30" class="edge">
<title>Filename[ReferenceRun]:e&#45;&gt;OrsoMeasurement:w</title>
<path fill="none" stroke="black" d="M154.5,-306.5C234.88,-306.5 196.6,-411.58 269,-446.5 477.59,-547.09 558.42,-453.5 790,-453.5 790,-453.5 790,-453.5 1100,-453.5 1308.45,-453.5 1810.24,-290.71 2027.85,-285.62"/>
<polygon fill="black" stroke="black" points="2028.04,-289.12 2038,-285.5 2027.96,-282.12 2028.04,-289.12"/>
</g>
<!-- MValue -->
<g id="node21" class="node">
<title>MValue</title>
<polygon fill="none" stroke="black" points="1466.5,-220 1396.5,-220 1396.5,-197 1466.5,-197 1466.5,-220"/>
<text text-anchor="middle" x="1431.5" y="-204.8" font-family="Times,serif" font-size="14.00">MValue</text>
</g>
<!-- MValue&#45;&gt;Sample -->
<g id="edge56" class="edge">
<title>MValue:e&#45;&gt;Sample:w</title>
<path fill="none" stroke="black" d="M1467.5,-208.5C1517.94,-208.5 1530.12,-216.02 1580,-223.5 1608.45,-227.77 1617.55,-233.9 1641.86,-235.24"/>
<polygon fill="black" stroke="black" points="1641.91,-238.74 1652,-235.5 1642.09,-231.74 1641.91,-238.74"/>
</g>
<!-- Measurement&#45;&gt;OrsoExperiment -->
<g id="edge23" class="edge">
<title>Measurement:e&#45;&gt;OrsoExperiment:w</title>
<path fill="none" stroke="black" d="M534,-318.5C606.86,-318.5 627.64,-318.5 695.62,-318.5"/>
<polygon fill="black" stroke="black" points="696,-322 706,-318.5 696,-315 696,-322"/>
</g>
<!-- NeXusName[NXdetector] -->
<g id="node23" class="node">
<title>NeXusName[NXdetector]</title>
<polygon fill="none" stroke="black" points="197,-81 0,-81 0,-58 197,-58 197,-81"/>
<text text-anchor="middle" x="98.5" y="-65.8" font-family="Times,serif" font-size="14.00">NeXusName[NXdetector]</text>
</g>
<!-- NeXusName[NXdetector]&#45;&gt;NeXusComponent[NXdetector, SampleRun] -->
<g id="edge17" class="edge">
<title>NeXusName[NXdetector]:e&#45;&gt;NeXusComponent[NXdetector, SampleRun]:w</title>
<path fill="none" stroke="black" d="M197,-69.5C225.38,-69.5 234.88,-69.5 258.98,-69.5"/>
<polygon fill="black" stroke="black" points="259,-73 269,-69.5 259,-66 259,-73"/>
</g>
<!-- OrsoCorrectionList -->
<g id="node24" class="node">
<title>OrsoCorrectionList</title>
<polygon fill="none" stroke="black" points="2455,-354 2289,-354 2289,-321 2455,-321 2455,-354"/>
<text text-anchor="start" x="2303.5" y="-339.8" font-family="Times,serif" font-size="14.00">OrsoCorrectionList</text>
<text text-anchor="start" x="2297" y="-328.2" font-family="Times,serif" font-size="11.00">via:</text>
<text text-anchor="start" x="2318" y="-328.2" font-family="Times,serif" font-style="italic" font-size="11.00">orso_amor_corrections</text>
</g>
<!-- OrsoIofQDataset -->
<g id="node34" class="node">
<title>OrsoIofQDataset</title>
<polygon fill="none" stroke="black" points="2697,-298 2528,-298 2528,-265 2697,-265 2697,-298"/>
<text text-anchor="start" x="2552.5" y="-283.8" font-family="Times,serif" font-size="14.00">OrsoIofQDataset</text>
<text text-anchor="start" x="2536" y="-272.2" font-family="Times,serif" font-size="11.00">via:</text>
<text text-anchor="start" x="2557" y="-272.2" font-family="Times,serif" font-style="italic" font-size="11.00">build_orso_iofq_dataset</text>
</g>
<!-- OrsoCorrectionList&#45;&gt;OrsoIofQDataset -->
<g id="edge28" class="edge">
<title>OrsoCorrectionList:e&#45;&gt;OrsoIofQDataset:w</title>
<path fill="none" stroke="black" d="M2456,-337.5C2492.74,-337.5 2488.73,-291.51 2517.82,-282.88"/>
<polygon fill="black" stroke="black" points="2518.56,-286.32 2528,-281.5 2517.62,-279.38 2518.56,-286.32"/>
</g>
<!-- OrsoCreator -->
<g id="node25" class="node">
<title>OrsoCreator</title>
<polygon fill="none" stroke="black" points="2179.5,-215 2074.5,-215 2074.5,-192 2179.5,-192 2179.5,-215"/>
<text text-anchor="middle" x="2127" y="-199.8" font-family="Times,serif" font-size="14.00">OrsoCreator</text>
</g>
<!-- OrsoReduction -->
<g id="node35" class="node">
<title>OrsoReduction</title>
<polygon fill="none" stroke="black" points="2449,-247 2295,-247 2295,-214 2449,-214 2449,-247"/>
<text text-anchor="start" x="2319" y="-232.8" font-family="Times,serif" font-size="14.00">OrsoReduction</text>
<text text-anchor="start" x="2303" y="-221.2" font-family="Times,serif" font-size="11.00">via:</text>
<text text-anchor="start" x="2324" y="-221.2" font-family="Times,serif" font-style="italic" font-size="11.00">build_orso_reduction</text>
</g>
<!-- OrsoCreator&#45;&gt;OrsoReduction -->
<g id="edge33" class="edge">
<title>OrsoCreator:e&#45;&gt;OrsoReduction:w</title>
<path fill="none" stroke="black" d="M2181,-203.5C2229.11,-203.5 2240.84,-226.93 2283.97,-230.14"/>
<polygon fill="black" stroke="black" points="2283.88,-233.64 2294,-230.5 2284.13,-226.64 2283.88,-233.64"/>
</g>
<!-- OrsoDataSource -->
<g id="node27" class="node">
<title>OrsoDataSource</title>
<polygon fill="none" stroke="black" points="2456,-317 2288,-317 2288,-284 2456,-284 2456,-317"/>
<text text-anchor="start" x="2313" y="-302.8" font-family="Times,serif" font-size="14.00">OrsoDataSource</text>
<text text-anchor="start" x="2296" y="-291.2" font-family="Times,serif" font-size="11.00">via:</text>
<text text-anchor="start" x="2317" y="-291.2" font-family="Times,serif" font-style="italic" font-size="11.00">build_orso_data_source</text>
</g>
<!-- OrsoOwner&#45;&gt;OrsoDataSource -->
<g id="edge18" class="edge">
<title>OrsoOwner:e&#45;&gt;OrsoDataSource:w</title>
<path fill="none" stroke="black" d="M503,-429.5C767.52,-429.5 833.48,-443.5 1098,-443.5 1098,-443.5 1098,-443.5 1810,-443.5 1997.18,-443.5 2039.4,-393.55 2216,-331.5 2245.4,-321.17 2251.94,-304.52 2277.93,-301.12"/>
<polygon fill="black" stroke="black" points="2278.23,-304.6 2288,-300.5 2277.8,-297.62 2278.23,-304.6"/>
</g>
<!-- OrsoDataSource&#45;&gt;OrsoIofQDataset -->
<g id="edge26" class="edge">
<title>OrsoDataSource:e&#45;&gt;OrsoIofQDataset:w</title>
<path fill="none" stroke="black" d="M2456,-300.5C2485.35,-300.5 2493.24,-285.56 2517.72,-282.18"/>
<polygon fill="black" stroke="black" points="2518.25,-285.65 2528,-281.5 2517.79,-278.66 2518.25,-285.65"/>
</g>
<!-- OrsoSample&#45;&gt;OrsoDataSource -->
<g id="edge19" class="edge">
<title>OrsoSample:e&#45;&gt;OrsoDataSource:w</title>
<path fill="none" stroke="black" d="M506,-392.5C769.35,-392.5 834.65,-367.5 1098,-367.5 1098,-367.5 1098,-367.5 1810,-367.5 1992.15,-367.5 2035.74,-337.7 2216,-311.5 2244.41,-307.37 2253.59,-301.92 2277.88,-300.73"/>
<polygon fill="black" stroke="black" points="2278.08,-304.23 2288,-300.5 2277.92,-297.23 2278.08,-304.23"/>
</g>
<!-- OrsoExperiment&#45;&gt;OrsoDataSource -->
<g id="edge20" class="edge">
<title>OrsoExperiment:e&#45;&gt;OrsoDataSource:w</title>
<path fill="none" stroke="black" d="M876,-318.5C1122.45,-318.5 1184.05,-315.5 1430.5,-315.5 1430.5,-315.5 1430.5,-315.5 1810,-315.5 1990.51,-315.5 2035.64,-311.95 2216,-304.5 2244.39,-303.33 2253.85,-301.09 2277.97,-300.6"/>
<polygon fill="black" stroke="black" points="2278.03,-304.1 2288,-300.5 2277.97,-297.1 2278.03,-304.1"/>
</g>
<!-- OrsoMeasurement&#45;&gt;OrsoDataSource -->
<g id="edge21" class="edge">
<title>OrsoMeasurement:e&#45;&gt;OrsoDataSource:w</title>
<path fill="none" stroke="black" d="M2216,-285.5C2244.98,-285.5 2253.48,-297.29 2277.82,-299.97"/>
<polygon fill="black" stroke="black" points="2277.83,-303.47 2288,-300.5 2278.2,-296.48 2277.83,-303.47"/>
</g>
<!-- OrsoInstrument -->
<g id="node32" class="node">
<title>OrsoInstrument</title>
<polygon fill="none" stroke="black" points="1890,-215 1728,-215 1728,-182 1890,-182 1890,-215"/>
<text text-anchor="start" x="1751.5" y="-200.8" font-family="Times,serif" font-size="14.00">OrsoInstrument</text>
<text text-anchor="start" x="1736" y="-189.2" font-family="Times,serif" font-size="11.00">via:</text>
<text text-anchor="start" x="1757" y="-189.2" font-family="Times,serif" font-style="italic" font-size="11.00">build_orso_instrument</text>
</g>
<!-- ReducibleData[SampleRun]&#45;&gt;OrsoInstrument -->
<g id="edge24" class="edge">
<title>ReducibleData[SampleRun]:e&#45;&gt;OrsoInstrument:w</title>
<path fill="none" stroke="black" d="M1568.5,-138.5C1609.46,-138.5 1613.59,-163.26 1652,-177.5 1681.03,-188.26 1690.44,-196.57 1716.88,-198.21"/>
<polygon fill="black" stroke="black" points="1716.9,-201.71 1727,-198.5 1717.11,-194.71 1716.9,-201.71"/>
</g>
<!-- ReducibleData[SampleRun]&#45;&gt;Reference -->
<g id="edge47" class="edge">
<title>ReducibleData[SampleRun]:e&#45;&gt;Reference:w</title>
<path fill="none" stroke="black" d="M1568.5,-138.5C1615.84,-138.5 1630.11,-135.04 1672.8,-134.56"/>
<polygon fill="black" stroke="black" points="1673.02,-138.06 1683,-134.5 1672.98,-131.06 1673.02,-138.06"/>
</g>
<!-- ReducibleData[SampleRun]&#45;&gt;Sample -->
<g id="edge53" class="edge">
<title>ReducibleData[SampleRun]:e&#45;&gt;Sample:w</title>
<path fill="none" stroke="black" d="M1568.5,-138.5C1621.72,-138.5 1598.66,-223.4 1642.04,-234.34"/>
<polygon fill="black" stroke="black" points="1641.66,-237.82 1652,-235.5 1642.47,-230.87 1641.66,-237.82"/>
</g>
<!-- OrsoInstrument&#45;&gt;OrsoMeasurement -->
<g id="edge31" class="edge">
<title>OrsoInstrument:e&#45;&gt;OrsoMeasurement:w</title>
<path fill="none" stroke="black" d="M1891,-198.5C1925.5,-198.5 1935.81,-201.81 1966,-218.5 2000.97,-237.83 1995.65,-277.8 2027.86,-284.53"/>
<polygon fill="black" stroke="black" points="2027.71,-288.03 2038,-285.5 2028.38,-281.06 2027.71,-288.03"/>
</g>
<!-- ReflectivityOverQ -->
<g id="node33" class="node">
<title>ReflectivityOverQ</title>
<polygon fill="none" stroke="black" points="2209,-252 2045,-252 2045,-219 2209,-219 2209,-252"/>
<text text-anchor="start" x="2063.5" y="-237.8" font-family="Times,serif" font-size="14.00">ReflectivityOverQ</text>
<text text-anchor="start" x="2053" y="-226.2" font-family="Times,serif" font-size="11.00">via:</text>
<text text-anchor="start" x="2074" y="-226.2" font-family="Times,serif" font-style="italic" font-size="11.00">reduce_sample_over_q</text>
</g>
<!-- ReflectivityOverQ&#45;&gt;OrsoIofQDataset -->
<g id="edge25" class="edge">
<title>ReflectivityOverQ:e&#45;&gt;OrsoIofQDataset:w</title>
<path fill="none" stroke="black" d="M2210,-235.5C2245.14,-235.5 2253.25,-243.22 2288,-248.5 2391.02,-264.16 2418.58,-280.42 2517.84,-281.45"/>
<polygon fill="black" stroke="black" points="2517.98,-284.95 2528,-281.5 2518.02,-277.95 2517.98,-284.95"/>
</g>
<!-- OrsoReduction&#45;&gt;OrsoIofQDataset -->
<g id="edge27" class="edge">
<title>OrsoReduction:e&#45;&gt;OrsoIofQDataset:w</title>
<path fill="none" stroke="black" d="M2450,-230.5C2487.7,-230.5 2487.08,-272.75 2517.89,-280.34"/>
<polygon fill="black" stroke="black" points="2517.67,-283.84 2528,-281.5 2518.46,-276.88 2517.67,-283.84"/>
</g>
<!-- OrsoSampleFilenames&#45;&gt;OrsoMeasurement -->
<g id="edge29" class="edge">
<title>OrsoSampleFilenames:e&#45;&gt;OrsoMeasurement:w</title>
<path fill="none" stroke="black" d="M521,-281.5C777.45,-281.5 841.55,-283.5 1098,-283.5 1098,-283.5 1098,-283.5 1432.5,-283.5 1698.2,-283.5 1767.15,-285.45 2027.85,-285.5"/>
<polygon fill="black" stroke="black" points="2028,-289 2038,-285.5 2028,-282 2028,-289"/>
</g>
<!-- ProtonCurrent[SampleRun]&#45;&gt;ReducibleData[SampleRun] -->
<g id="edge44" class="edge">
<title>ProtonCurrent[SampleRun]:e&#45;&gt;ReducibleData[SampleRun]:w</title>
<path fill="none" stroke="black" d="M539,-244.5C596.58,-244.5 609.59,-260.04 667,-264.5 776.89,-273.03 805.65,-278.31 915,-264.5 1049.75,-247.48 1085.66,-240.82 1211,-188.5 1247.49,-173.27 1250.9,-144.11 1284.25,-139.21"/>
<polygon fill="black" stroke="black" points="1284.76,-142.68 1294.5,-138.5 1284.28,-135.7 1284.76,-142.68"/>
</g>
<!-- QBins -->
<g id="node38" class="node">
<title>QBins</title>
<polygon fill="none" stroke="black" points="1838.5,-178 1779.5,-178 1779.5,-155 1838.5,-155 1838.5,-178"/>
<text text-anchor="middle" x="1809" y="-162.8" font-family="Times,serif" font-size="14.00">QBins</text>
</g>
<!-- QBins&#45;&gt;ReflectivityOverQ -->
<g id="edge52" class="edge">
<title>QBins:e&#45;&gt;ReflectivityOverQ:w</title>
<path fill="none" stroke="black" d="M1840,-166.5C1896.4,-166.5 1913.26,-161.53 1966,-181.5 2001.89,-195.09 2002.13,-228.67 2033.68,-234.6"/>
<polygon fill="black" stroke="black" points="2033.73,-238.12 2044,-235.5 2034.34,-231.14 2033.73,-238.12"/>
</g>
<!-- RawSampleRotation[SampleRun]&#45;&gt;SampleRotation[SampleRun] -->
<g id="edge58" class="edge">
<title>RawSampleRotation[SampleRun]:e&#45;&gt;SampleRotation[SampleRun]:w</title>
<path fill="none" stroke="black" d="M560,-180.5C617.14,-180.5 618.37,-239.88 668.96,-246.84"/>
<polygon fill="black" stroke="black" points="668.79,-250.33 679,-247.5 669.25,-243.35 668.79,-250.33"/>
</g>
<!-- ReducedReference -->
<g id="node40" class="node">
<title>ReducedReference</title>
<polygon fill="none" stroke="black" points="1506.5,-189 1356.5,-189 1356.5,-166 1506.5,-166 1506.5,-189"/>
<text text-anchor="middle" x="1431.5" y="-173.8" font-family="Times,serif" font-size="14.00">ReducedReference</text>
</g>
<!-- ReducedReference&#45;&gt;Reference -->
<g id="edge46" class="edge">
<title>ReducedReference:e&#45;&gt;Reference:w</title>
<path fill="none" stroke="black" d="M1507.5,-177.5C1584.36,-177.5 1601.29,-138.12 1673,-134.73"/>
<polygon fill="black" stroke="black" points="1673.08,-138.23 1683,-134.5 1672.92,-131.23 1673.08,-138.23"/>
</g>
<!-- ReducedReference&#45;&gt;Sample -->
<g id="edge54" class="edge">
<title>ReducedReference:e&#45;&gt;Sample:w</title>
<path fill="none" stroke="black" d="M1507.5,-177.5C1540.6,-177.5 1549.19,-182.41 1580,-194.5 1610.8,-206.59 1614.65,-230.05 1641.82,-234.69"/>
<polygon fill="black" stroke="black" points="1641.75,-238.2 1652,-235.5 1642.31,-231.22 1641.75,-238.2"/>
</g>
<!-- YIndexLimits -->
<g id="node41" class="node">
<title>YIndexLimits</title>
<polygon fill="none" stroke="black" points="1154,-123 1044,-123 1044,-100 1154,-100 1154,-123"/>
<text text-anchor="middle" x="1099" y="-107.8" font-family="Times,serif" font-size="14.00">YIndexLimits</text>
</g>
<!-- YIndexLimits&#45;&gt;ReducibleData[SampleRun] -->
<g id="edge40" class="edge">
<title>YIndexLimits:e&#45;&gt;ReducibleData[SampleRun]:w</title>
<path fill="none" stroke="black" d="M1155,-111.5C1214.57,-111.5 1229.69,-135.53 1284.23,-138.25"/>
<polygon fill="black" stroke="black" points="1284.42,-141.76 1294.5,-138.5 1284.59,-134.76 1284.42,-141.76"/>
</g>
<!-- ZIndexLimits -->
<g id="node42" class="node">
<title>ZIndexLimits</title>
<polygon fill="none" stroke="black" points="1154.5,-96 1043.5,-96 1043.5,-73 1154.5,-73 1154.5,-96"/>
<text text-anchor="middle" x="1099" y="-80.8" font-family="Times,serif" font-size="14.00">ZIndexLimits</text>
</g>
<!-- ZIndexLimits&#45;&gt;ReducibleData[SampleRun] -->
<g id="edge41" class="edge">
<title>ZIndexLimits:e&#45;&gt;ReducibleData[SampleRun]:w</title>
<path fill="none" stroke="black" d="M1155,-84.5C1180.77,-84.5 1186.79,-90.68 1211,-99.5 1246.03,-112.26 1252.53,-134.1 1284.3,-137.92"/>
<polygon fill="black" stroke="black" points="1284.32,-141.43 1294.5,-138.5 1284.71,-134.44 1284.32,-141.43"/>
</g>
<!-- WavelengthBins -->
<g id="node43" class="node">
<title>WavelengthBins</title>
<polygon fill="none" stroke="black" points="1165,-69 1033,-69 1033,-46 1165,-46 1165,-69"/>
<text text-anchor="middle" x="1099" y="-53.8" font-family="Times,serif" font-size="14.00">WavelengthBins</text>
</g>
<!-- WavelengthBins&#45;&gt;ReducibleData[SampleRun] -->
<g id="edge43" class="edge">
<title>WavelengthBins:e&#45;&gt;ReducibleData[SampleRun]:w</title>
<path fill="none" stroke="black" d="M1166,-57.5C1187.08,-57.5 1192.45,-62.48 1211,-72.5 1249.37,-93.23 1247.76,-131.83 1284.33,-137.73"/>
<polygon fill="black" stroke="black" points="1284.27,-141.24 1294.5,-138.5 1284.79,-134.26 1284.27,-141.24"/>
</g>
<!-- Reference&#45;&gt;ReflectivityOverQ -->
<g id="edge51" class="edge">
<title>Reference:e&#45;&gt;ReflectivityOverQ:w</title>
<path fill="none" stroke="black" d="M1935,-134.5C1997.43,-134.5 1980.21,-224.76 2033.94,-234.63"/>
<polygon fill="black" stroke="black" points="2033.73,-238.12 2044,-235.5 2034.34,-231.15 2033.73,-238.12"/>
</g>
<!-- Sample&#45;&gt;ReflectivityOverQ -->
<g id="edge50" class="edge">
<title>Sample:e&#45;&gt;ReflectivityOverQ:w</title>
<path fill="none" stroke="black" d="M1966,-235.5C1997.01,-235.5 2007.22,-235.5 2033.84,-235.5"/>
<polygon fill="black" stroke="black" points="2034,-239 2044,-235.5 2034,-232 2034,-239"/>
</g>
<!-- SampleRotationOffset[SampleRun] -->
<g id="node46" class="node">
<title>SampleRotationOffset[SampleRun]</title>
<polygon fill="none" stroke="black" points="565,-224 299,-224 299,-201 565,-201 565,-224"/>
<text text-anchor="middle" x="432" y="-208.8" font-family="Times,serif" font-size="14.00">SampleRotationOffset[SampleRun]</text>
</g>
<!-- SampleRotationOffset[SampleRun]&#45;&gt;SampleRotation[SampleRun] -->
<g id="edge59" class="edge">
<title>SampleRotationOffset[SampleRun]:e&#45;&gt;SampleRotation[SampleRun]:w</title>
<path fill="none" stroke="black" d="M566,-212.5C614.98,-212.5 625.14,-242.88 668.82,-247.03"/>
<polygon fill="black" stroke="black" points="668.85,-250.54 679,-247.5 669.17,-243.54 668.85,-250.54"/>
</g>
</g>
</svg>
