<?xml version="1.0" encoding="UTF-8" standalone="no"?>
<!DOCTYPE svg PUBLIC "-//W3C//DTD SVG 1.1//EN"
 "http://www.w3.org/Graphics/SVG/1.1/DTD/svg11.dtd">
<!-- Generated by graphviz version 2.43.0 (0)
 -->
<!-- Title: %3 Pages: 1 -->
<svg width="2173pt" height="884pt"
 viewBox="0.00 0.00 2173.00 883.50" xmlns="http://www.w3.org/2000/svg" xmlns:xlink="http://www.w3.org/1999/xlink">
<g id="graph0" class="graph" transform="scale(1 1) rotate(0) translate(4 879.5)">
<title>%3</title>
<polygon fill="white" stroke="transparent" points="-4,4 -4,-879.5 2169,-879.5 2169,4 -4,4"/>
<g id="clust3" class="cluster">
<title>cluster_BeamSize</title>
<polygon fill="#f0f0ff" stroke="#f0f0ff" points="710,-155.5 710,-241.5 836,-241.5 836,-155.5 710,-155.5"/>
<text text-anchor="middle" x="773" y="-226.3" font-family="Times,serif" font-size="14.00">BeamSize</text>
</g>
<g id="clust4" class="cluster">
<title>cluster_ChopperDistance</title>
<polygon fill="#f0f0ff" stroke="#f0f0ff" points="674,-51.5 674,-147.5 873,-147.5 873,-51.5 674,-51.5"/>
<text text-anchor="start" x="711.5" y="-133.3" font-family="Times,serif" font-size="14.00">ChopperDistance</text>
<text text-anchor="start" x="682" y="-121.7" font-family="Times,serif" font-size="11.00">via:</text>
<text text-anchor="start" x="703" y="-121.7" font-family="Times,serif" font-style="italic" font-size="11.00">load_amor_chopper_distance</text>
</g>
<g id="clust5" class="cluster">
<title>cluster_ChopperFrequency</title>
<polygon fill="#f0f0ff" stroke="#f0f0ff" points="697,-573.5 697,-659.5 850,-659.5 850,-573.5 697,-573.5"/>
<text text-anchor="middle" x="773.5" y="-644.3" font-family="Times,serif" font-size="14.00">ChopperFrequency</text>
</g>
<g id="clust6" class="cluster">
<title>cluster_ChopperPhase</title>
<polygon fill="#f0f0ff" stroke="#f0f0ff" points="710,-479.5 710,-565.5 836,-565.5 836,-479.5 710,-479.5"/>
<text text-anchor="middle" x="773" y="-550.3" font-family="Times,serif" font-size="14.00">ChopperPhase</text>
</g>
<g id="clust7" class="cluster">
<title>cluster_ChopperSeparation</title>
<polygon fill="#f0f0ff" stroke="#f0f0ff" points="667,-375.5 667,-471.5 879,-471.5 879,-375.5 667,-375.5"/>
<text text-anchor="start" x="703.5" y="-457.3" font-family="Times,serif" font-size="14.00">ChopperSeparation</text>
<text text-anchor="start" x="675" y="-445.7" font-family="Times,serif" font-size="11.00">via:</text>
<text text-anchor="start" x="696" y="-445.7" font-family="Times,serif" font-style="italic" font-size="11.00">load_amor_chopper_separation</text>
</g>
<g id="clust8" class="cluster">
<title>cluster_CoordTransformationGraph</title>
<polygon fill="#f0f0ff" stroke="#f0f0ff" points="950.5,-375.5 950.5,-471.5 1174.5,-471.5 1174.5,-375.5 950.5,-375.5"/>
<text text-anchor="start" x="963.5" y="-457.3" font-family="Times,serif" font-size="14.00">CoordTransformationGraph</text>
<text text-anchor="start" x="958.5" y="-445.7" font-family="Times,serif" font-size="11.00">via:</text>
<text text-anchor="start" x="979.5" y="-445.7" font-family="Times,serif" font-style="italic" font-size="11.00">coordinate_transformation_graph</text>
</g>
<g id="clust10" class="cluster">
<title>cluster_DetectorRotation</title>
<polygon fill="#f0f0ff" stroke="#f0f0ff" points="674,-667.5 674,-763.5 873,-763.5 873,-667.5 674,-667.5"/>
<text text-anchor="start" x="711.5" y="-749.3" font-family="Times,serif" font-size="14.00">DetectorRotation</text>
<text text-anchor="start" x="682" y="-737.7" font-family="Times,serif" font-size="11.00">via:</text>
<text text-anchor="start" x="703" y="-737.7" font-family="Times,serif" font-style="italic" font-size="11.00">load_amor_detector_rotation</text>
</g>
<g id="clust12" class="cluster">
<title>cluster_Filename</title>
<polygon fill="#f0f0ff" stroke="#f0f0ff" points="35.5,-429.5 35.5,-515.5 161.5,-515.5 161.5,-429.5 35.5,-429.5"/>
<text text-anchor="middle" x="98.5" y="-500.3" font-family="Times,serif" font-size="14.00">Filename</text>
</g>
<g id="clust19" class="cluster">
<title>cluster_RawChopper</title>
<polygon fill="#f0f0ff" stroke="#f0f0ff" points="369,-375.5 369,-471.5 495,-471.5 495,-375.5 369,-375.5"/>
<text text-anchor="start" x="386" y="-457.3" font-family="Times,serif" font-size="14.00">RawChopper</text>
<text text-anchor="start" x="381.5" y="-445.7" font-family="Times,serif" font-size="11.00">via:</text>
<text text-anchor="start" x="402.5" y="-445.7" font-family="Times,serif" font-style="italic" font-size="11.00">amor_chopper</text>
</g>
<g id="clust21" class="cluster">
<title>cluster_RawSampleRotation</title>
<polygon fill="#f0f0ff" stroke="#f0f0ff" points="336,-647.5 336,-743.5 528,-743.5 528,-647.5 336,-647.5"/>
<text text-anchor="start" x="359.5" y="-729.3" font-family="Times,serif" font-size="14.00">RawSampleRotation</text>
<text text-anchor="start" x="344" y="-717.7" font-family="Times,serif" font-size="11.00">via:</text>
<text text-anchor="start" x="365" y="-717.7" font-family="Times,serif" font-style="italic" font-size="11.00">load_amor_sample_rotation</text>
</g>
<g id="clust27" class="cluster">
<title>cluster_SampleRotationOffset</title>
<polygon fill="#f0f0ff" stroke="#f0f0ff" points="346,-771.5 346,-857.5 519,-857.5 519,-771.5 346,-771.5"/>
<text text-anchor="middle" x="432.5" y="-842.3" font-family="Times,serif" font-size="14.00">SampleRotationOffset</text>
</g>
<g id="clust28" class="cluster">
<title>cluster_SampleRotation</title>
<polygon fill="#f0f0ff" stroke="#f0f0ff" points="686,-771.5 686,-867.5 860,-867.5 860,-771.5 686,-771.5"/>
<text text-anchor="start" x="715.5" y="-853.3" font-family="Times,serif" font-size="14.00">SampleRotation</text>
<text text-anchor="start" x="694" y="-841.7" font-family="Times,serif" font-size="11.00">via:</text>
<text text-anchor="start" x="715" y="-841.7" font-family="Times,serif" font-style="italic" font-size="11.00">correct_sample_rotation</text>
</g>
<g id="clust29" class="cluster">
<title>cluster_SampleSize</title>
<polygon fill="#f0f0ff" stroke="#f0f0ff" points="710,-249.5 710,-335.5 836,-335.5 836,-249.5 710,-249.5"/>
<text text-anchor="middle" x="773" y="-320.3" font-family="Times,serif" font-size="14.00">SampleSize</text>
</g>
<!-- Alpha -->
<g id="node1" class="node">
<title>Alpha</title>
<polygon fill="none" stroke="black" points="1423,-274 1366,-274 1366,-251 1423,-251 1423,-274"/>
<text text-anchor="middle" x="1394.5" y="-258.8" font-family="Times,serif" font-size="14.00">Alpha</text>
</g>
<!-- Sample -->
<g id="node42" class="node">
<title>Sample</title>
<polygon fill="none" stroke="black" points="1929,-356 1615,-356 1615,-323 1929,-323 1929,-356"/>
<text text-anchor="start" x="1745" y="-341.8" font-family="Times,serif" font-size="14.00">Sample</text>
<text text-anchor="start" x="1623" y="-330.2" font-family="Times,serif" font-size="11.00">via:</text>
<text text-anchor="start" x="1644" y="-330.2" font-family="Times,serif" font-style="italic" font-size="11.00">mask_events_where_supermirror_does_not_cover</text>
</g>
<!-- Alpha&#45;&gt;Sample -->
<g id="edge54" class="edge">
<title>Alpha:e&#45;&gt;Sample:w</title>
<path fill="none" stroke="black" d="M1424.5,-262.5C1477.64,-262.5 1494.44,-256.9 1543,-278.5 1577.88,-294.01 1574.17,-331.82 1604.84,-338.49"/>
<polygon fill="black" stroke="black" points="1604.7,-341.99 1615,-339.5 1605.4,-335.02 1604.7,-341.99"/>
</g>
<!-- BeamDivergenceLimits -->
<g id="node2" class="node">
<title>BeamDivergenceLimits</title>
<polygon fill="none" stroke="black" points="1154,-503 971,-503 971,-480 1154,-480 1154,-503"/>
<text text-anchor="middle" x="1062.5" y="-487.8" font-family="Times,serif" font-size="14.00">BeamDivergenceLimits</text>
</g>
<!-- QBins -->
<g id="node32" class="node">
<title>QBins</title>
<polygon fill="none" stroke="black" points="1428,-535 1361,-535 1361,-502 1428,-502 1428,-535"/>
<text text-anchor="start" x="1373" y="-520.8" font-family="Times,serif" font-size="14.00">QBins</text>
<text text-anchor="start" x="1369" y="-509.2" font-family="Times,serif" font-size="11.00">via:</text>
<text text-anchor="start" x="1390" y="-509.2" font-family="Times,serif" font-style="italic" font-size="11.00">qgrid</text>
</g>
<!-- BeamDivergenceLimits&#45;&gt;QBins -->
<g id="edge30" class="edge">
<title>BeamDivergenceLimits:e&#45;&gt;QBins:w</title>
<path fill="none" stroke="black" d="M1155.5,-491.5C1243.47,-491.5 1266.33,-516.48 1349.35,-518.39"/>
<polygon fill="black" stroke="black" points="1349.46,-521.89 1359.5,-518.5 1349.54,-514.89 1349.46,-521.89"/>
</g>
<!-- ReducibleData[SampleRun] -->
<g id="node38" class="node">
<title>ReducibleData[SampleRun]</title>
<polygon fill="none" stroke="black" points="1530.5,-365 1258.5,-365 1258.5,-332 1530.5,-332 1530.5,-365"/>
<text text-anchor="start" x="1296" y="-350.8" font-family="Times,serif" font-size="14.00">ReducibleData[SampleRun]</text>
<text text-anchor="start" x="1266.5" y="-339.2" font-family="Times,serif" font-size="11.00">via:</text>
<text text-anchor="start" x="1287.5" y="-339.2" font-family="Times,serif" font-style="italic" font-size="11.00">add_coords_masks_and_apply_corrections</text>
</g>
<!-- BeamDivergenceLimits&#45;&gt;ReducibleData[SampleRun] -->
<g id="edge39" class="edge">
<title>BeamDivergenceLimits:e&#45;&gt;ReducibleData[SampleRun]:w</title>
<path fill="none" stroke="black" d="M1155.5,-491.5C1229.91,-491.5 1184.22,-361.59 1247.37,-349.41"/>
<polygon fill="black" stroke="black" points="1247.85,-352.88 1257.5,-348.5 1247.23,-345.91 1247.85,-352.88"/>
</g>
<!-- BeamSize[ReferenceRun] -->
<g id="node3" class="node">
<title>BeamSize[ReferenceRun]</title>
<polygon fill="none" stroke="black" points="828,-210 718,-210 718,-189 828,-189 828,-210"/>
<text text-anchor="start" x="726" y="-196.4" font-family="Times,serif" font-size="12.00">[ReferenceRun]</text>
</g>
<!-- CoordTransformationGraph[ReferenceRun] -->
<g id="node16" class="node">
<title>CoordTransformationGraph[ReferenceRun]</title>
<polygon fill="none" stroke="black" points="1117.5,-430 1007.5,-430 1007.5,-409 1117.5,-409 1117.5,-430"/>
<text text-anchor="start" x="1015.5" y="-416.4" font-family="Times,serif" font-size="12.00">[ReferenceRun]</text>
</g>
<!-- BeamSize[ReferenceRun]&#45;&gt;CoordTransformationGraph[ReferenceRun] -->
<g id="edge13" class="edge">
<title>BeamSize[ReferenceRun]:e&#45;&gt;CoordTransformationGraph[ReferenceRun]:w</title>
<path fill="none" stroke="black" d="M829,-199.5C860.11,-199.5 861.14,-223.02 879,-248.5 923.01,-311.28 891.57,-356.45 950.5,-405.5 967.37,-419.54 977.58,-419.8 996.25,-419.59"/>
<polygon fill="black" stroke="black" points="996.53,-423.08 1006.5,-419.5 996.47,-416.09 996.53,-423.08"/>
</g>
<!-- BeamSize[SampleRun] -->
<g id="node4" class="node">
<title>BeamSize[SampleRun]</title>
<polygon fill="none" stroke="black" points="820.5,-185 725.5,-185 725.5,-164 820.5,-164 820.5,-185"/>
<text text-anchor="start" x="733.5" y="-171.4" font-family="Times,serif" font-size="12.00">[SampleRun]</text>
</g>
<!-- CoordTransformationGraph[SampleRun] -->
<g id="node21" class="node">
<title>CoordTransformationGraph[SampleRun]</title>
<polygon fill="none" stroke="black" points="1110,-405 1015,-405 1015,-384 1110,-384 1110,-405"/>
<text text-anchor="start" x="1023" y="-391.4" font-family="Times,serif" font-size="12.00">[SampleRun]</text>
</g>
<!-- BeamSize[SampleRun]&#45;&gt;CoordTransformationGraph[SampleRun] -->
<g id="edge21" class="edge">
<title>BeamSize[SampleRun]:e&#45;&gt;CoordTransformationGraph[SampleRun]:w</title>
<path fill="none" stroke="black" d="M822,-174.5C848.2,-174.5 859.27,-172.26 879,-189.5 941.65,-244.24 894.01,-301.42 950.5,-362.5 969.32,-382.85 979.54,-392.21 1003.28,-394.12"/>
<polygon fill="black" stroke="black" points="1003.38,-397.63 1013.5,-394.5 1003.64,-390.63 1003.38,-397.63"/>
</g>
<!-- RawChopper[ReferenceRun] -->
<g id="node5" class="node">
<title>RawChopper[ReferenceRun]</title>
<polygon fill="none" stroke="black" points="487,-430 377,-430 377,-409 487,-409 487,-430"/>
<text text-anchor="start" x="385" y="-416.4" font-family="Times,serif" font-size="12.00">[ReferenceRun]</text>
</g>
<!-- ChopperDistance[ReferenceRun] -->
<g id="node6" class="node">
<title>ChopperDistance[ReferenceRun]</title>
<polygon fill="none" stroke="black" points="828,-106 718,-106 718,-85 828,-85 828,-106"/>
<text text-anchor="start" x="726" y="-92.4" font-family="Times,serif" font-size="12.00">[ReferenceRun]</text>
</g>
<!-- RawChopper[ReferenceRun]&#45;&gt;ChopperDistance[ReferenceRun] -->
<g id="edge1" class="edge">
<title>RawChopper[ReferenceRun]:e&#45;&gt;ChopperDistance[ReferenceRun]:w</title>
<path fill="none" stroke="black" d="M488,-419.5C535.96,-419.5 558.65,-436.79 595,-405.5 704.47,-311.26 575.54,-105.85 706.66,-95.88"/>
<polygon fill="black" stroke="black" points="707.13,-99.36 717,-95.5 706.88,-92.37 707.13,-99.36"/>
</g>
<!-- ChopperSeparation[ReferenceRun] -->
<g id="node13" class="node">
<title>ChopperSeparation[ReferenceRun]</title>
<polygon fill="none" stroke="black" points="828,-430 718,-430 718,-409 828,-409 828,-430"/>
<text text-anchor="start" x="726" y="-416.4" font-family="Times,serif" font-size="12.00">[ReferenceRun]</text>
</g>
<!-- RawChopper[ReferenceRun]&#45;&gt;ChopperSeparation[ReferenceRun] -->
<g id="edge3" class="edge">
<title>RawChopper[ReferenceRun]:e&#45;&gt;ChopperSeparation[ReferenceRun]:w</title>
<path fill="none" stroke="black" d="M488,-419.5C586.3,-419.5 613.39,-419.5 706.83,-419.5"/>
<polygon fill="black" stroke="black" points="707,-423 717,-419.5 707,-416 707,-423"/>
</g>
<!-- ChopperDistance[ReferenceRun]&#45;&gt;CoordTransformationGraph[ReferenceRun] -->
<g id="edge10" class="edge">
<title>ChopperDistance[ReferenceRun]:e&#45;&gt;CoordTransformationGraph[ReferenceRun]:w</title>
<path fill="none" stroke="black" d="M829,-95.5C863.37,-95.5 862.82,-124.18 879,-154.5 933.62,-256.83 867.16,-324.83 950.5,-405.5 966.34,-420.83 977.37,-420.15 996.44,-419.66"/>
<polygon fill="black" stroke="black" points="996.56,-423.16 1006.5,-419.5 996.45,-416.16 996.56,-423.16"/>
</g>
<!-- RawChopper[SampleRun] -->
<g id="node7" class="node">
<title>RawChopper[SampleRun]</title>
<polygon fill="none" stroke="black" points="479.5,-405 384.5,-405 384.5,-384 479.5,-384 479.5,-405"/>
<text text-anchor="start" x="392.5" y="-391.4" font-family="Times,serif" font-size="12.00">[SampleRun]</text>
</g>
<!-- ChopperDistance[SampleRun] -->
<g id="node8" class="node">
<title>ChopperDistance[SampleRun]</title>
<polygon fill="none" stroke="black" points="820.5,-81 725.5,-81 725.5,-60 820.5,-60 820.5,-81"/>
<text text-anchor="start" x="733.5" y="-67.4" font-family="Times,serif" font-size="12.00">[SampleRun]</text>
</g>
<!-- RawChopper[SampleRun]&#45;&gt;ChopperDistance[SampleRun] -->
<g id="edge2" class="edge">
<title>RawChopper[SampleRun]:e&#45;&gt;ChopperDistance[SampleRun]:w</title>
<path fill="none" stroke="black" d="M481,-394.5C548.11,-394.5 557.5,-351.15 595,-295.5 650.14,-213.68 594.73,-152.68 667,-85.5 683.49,-70.17 694.39,-70.11 713.75,-70.4"/>
<polygon fill="black" stroke="black" points="713.97,-73.9 724,-70.5 714.04,-66.9 713.97,-73.9"/>
</g>
<!-- ChopperSeparation[SampleRun] -->
<g id="node14" class="node">
<title>ChopperSeparation[SampleRun]</title>
<polygon fill="none" stroke="black" points="820.5,-405 725.5,-405 725.5,-384 820.5,-384 820.5,-405"/>
<text text-anchor="start" x="733.5" y="-391.4" font-family="Times,serif" font-size="12.00">[SampleRun]</text>
</g>
<!-- RawChopper[SampleRun]&#45;&gt;ChopperSeparation[SampleRun] -->
<g id="edge4" class="edge">
<title>RawChopper[SampleRun]:e&#45;&gt;ChopperSeparation[SampleRun]:w</title>
<path fill="none" stroke="black" d="M481,-394.5C585.52,-394.5 614.18,-394.5 713.81,-394.5"/>
<polygon fill="black" stroke="black" points="714,-398 724,-394.5 714,-391 714,-398"/>
</g>
<!-- ChopperDistance[SampleRun]&#45;&gt;CoordTransformationGraph[SampleRun] -->
<g id="edge18" class="edge">
<title>ChopperDistance[SampleRun]:e&#45;&gt;CoordTransformationGraph[SampleRun]:w</title>
<path fill="none" stroke="black" d="M822,-70.5C848.2,-70.5 860.52,-66.93 879,-85.5 968.69,-175.62 870.88,-263.37 950.5,-362.5 967.86,-384.12 979.19,-392.51 1003.22,-394.18"/>
<polygon fill="black" stroke="black" points="1003.39,-397.68 1013.5,-394.5 1003.62,-390.69 1003.39,-397.68"/>
</g>
<!-- ChopperFrequency[ReferenceRun] -->
<g id="node9" class="node">
<title>ChopperFrequency[ReferenceRun]</title>
<polygon fill="none" stroke="black" points="828,-628 718,-628 718,-607 828,-607 828,-628"/>
<text text-anchor="start" x="726" y="-614.4" font-family="Times,serif" font-size="12.00">[ReferenceRun]</text>
</g>
<!-- ChopperFrequency[ReferenceRun]&#45;&gt;CoordTransformationGraph[ReferenceRun] -->
<g id="edge9" class="edge">
<title>ChopperFrequency[ReferenceRun]:e&#45;&gt;CoordTransformationGraph[ReferenceRun]:w</title>
<path fill="none" stroke="black" d="M829,-617.5C852.08,-617.5 860.8,-617.69 879,-603.5 954.63,-544.54 910.49,-428.3 996.29,-419.97"/>
<polygon fill="black" stroke="black" points="996.67,-423.46 1006.5,-419.5 996.35,-416.47 996.67,-423.46"/>
</g>
<!-- ChopperFrequency[SampleRun] -->
<g id="node10" class="node">
<title>ChopperFrequency[SampleRun]</title>
<polygon fill="none" stroke="black" points="820.5,-603 725.5,-603 725.5,-582 820.5,-582 820.5,-603"/>
<text text-anchor="start" x="733.5" y="-589.4" font-family="Times,serif" font-size="12.00">[SampleRun]</text>
</g>
<!-- ChopperFrequency[SampleRun]&#45;&gt;CoordTransformationGraph[SampleRun] -->
<g id="edge17" class="edge">
<title>ChopperFrequency[SampleRun]:e&#45;&gt;CoordTransformationGraph[SampleRun]:w</title>
<path fill="none" stroke="black" d="M822,-592.5C849.84,-592.5 859.32,-586.19 879,-566.5 933.2,-512.27 891.3,-458.22 950.5,-409.5 969.95,-393.5 981.56,-394.01 1003.44,-394.39"/>
<polygon fill="black" stroke="black" points="1003.46,-397.89 1013.5,-394.5 1003.54,-390.9 1003.46,-397.89"/>
</g>
<!-- ChopperPhase[ReferenceRun] -->
<g id="node11" class="node">
<title>ChopperPhase[ReferenceRun]</title>
<polygon fill="none" stroke="black" points="828,-534 718,-534 718,-513 828,-513 828,-534"/>
<text text-anchor="start" x="726" y="-520.4" font-family="Times,serif" font-size="12.00">[ReferenceRun]</text>
</g>
<!-- ChopperPhase[ReferenceRun]&#45;&gt;CoordTransformationGraph[ReferenceRun] -->
<g id="edge8" class="edge">
<title>ChopperPhase[ReferenceRun]:e&#45;&gt;CoordTransformationGraph[ReferenceRun]:w</title>
<path fill="none" stroke="black" d="M829,-523.5C916.86,-523.5 915.34,-427.47 996.22,-419.96"/>
<polygon fill="black" stroke="black" points="996.67,-423.45 1006.5,-419.5 996.35,-416.45 996.67,-423.45"/>
</g>
<!-- ChopperPhase[SampleRun] -->
<g id="node12" class="node">
<title>ChopperPhase[SampleRun]</title>
<polygon fill="none" stroke="black" points="820.5,-509 725.5,-509 725.5,-488 820.5,-488 820.5,-509"/>
<text text-anchor="start" x="733.5" y="-495.4" font-family="Times,serif" font-size="12.00">[SampleRun]</text>
</g>
<!-- ChopperPhase[SampleRun]&#45;&gt;CoordTransformationGraph[SampleRun] -->
<g id="edge16" class="edge">
<title>ChopperPhase[SampleRun]:e&#45;&gt;CoordTransformationGraph[SampleRun]:w</title>
<path fill="none" stroke="black" d="M822,-498.5C891.47,-498.5 888.82,-441.46 950.5,-409.5 972.76,-397.97 982.2,-395.14 1003.29,-394.61"/>
<polygon fill="black" stroke="black" points="1003.54,-398.11 1013.5,-394.5 1003.46,-391.11 1003.54,-398.11"/>
</g>
<!-- ChopperSeparation[ReferenceRun]&#45;&gt;CoordTransformationGraph[ReferenceRun] -->
<g id="edge11" class="edge">
<title>ChopperSeparation[ReferenceRun]:e&#45;&gt;CoordTransformationGraph[ReferenceRun]:w</title>
<path fill="none" stroke="black" d="M829,-419.5C904.35,-419.5 925.72,-419.5 996.22,-419.5"/>
<polygon fill="black" stroke="black" points="996.5,-423 1006.5,-419.5 996.5,-416 996.5,-423"/>
</g>
<!-- ChopperSeparation[SampleRun]&#45;&gt;CoordTransformationGraph[SampleRun] -->
<g id="edge19" class="edge">
<title>ChopperSeparation[SampleRun]:e&#45;&gt;CoordTransformationGraph[SampleRun]:w</title>
<path fill="none" stroke="black" d="M822,-394.5C903.62,-394.5 926.54,-394.5 1003.34,-394.5"/>
<polygon fill="black" stroke="black" points="1003.5,-398 1013.5,-394.5 1003.5,-391 1003.5,-398"/>
</g>
<!-- GravityToggle -->
<g id="node15" class="node">
<title>GravityToggle</title>
<polygon fill="none" stroke="black" points="831.5,-367 714.5,-367 714.5,-344 831.5,-344 831.5,-367"/>
<text text-anchor="middle" x="773" y="-351.8" font-family="Times,serif" font-size="14.00">GravityToggle</text>
</g>
<!-- GravityToggle&#45;&gt;CoordTransformationGraph[ReferenceRun] -->
<g id="edge5" class="edge">
<title>GravityToggle:e&#45;&gt;CoordTransformationGraph[ReferenceRun]:w</title>
<path fill="none" stroke="black" stroke-width="2" d="M833,-355.5C886.87,-355.5 909.35,-383 941.6,-401.95"/>
<polygon fill="black" stroke="black" stroke-width="2" points="940.05,-405.09 950.5,-406.79 943.39,-398.94 940.05,-405.09"/>
</g>
<!-- Reference -->
<g id="node41" class="node">
<title>Reference</title>
<polygon fill="none" stroke="black" points="1897,-406 1647,-406 1647,-373 1897,-373 1897,-406"/>
<text text-anchor="start" x="1735.5" y="-391.8" font-family="Times,serif" font-size="14.00">Reference</text>
<text text-anchor="start" x="1655" y="-380.2" font-family="Times,serif" font-size="11.00">via:</text>
<text text-anchor="start" x="1676" y="-380.2" font-family="Times,serif" font-style="italic" font-size="11.00">evaluate_reference_at_sample_coords</text>
</g>
<!-- CoordTransformationGraph[ReferenceRun]&#45;&gt;Reference -->
<g id="edge46" class="edge">
<title>CoordTransformationGraph[ReferenceRun]:e&#45;&gt;Reference:w</title>
<path fill="none" stroke="black" d="M1118.5,-419.5C1307.17,-419.5 1356.22,-446.15 1543,-419.5 1586.7,-413.27 1596.9,-392.86 1636.01,-389.87"/>
<polygon fill="black" stroke="black" points="1636.14,-393.37 1646,-389.5 1635.88,-386.37 1636.14,-393.37"/>
</g>
<!-- DetectorRotation[ReferenceRun] -->
<g id="node17" class="node">
<title>DetectorRotation[ReferenceRun]</title>
<polygon fill="none" stroke="black" points="828,-722 718,-722 718,-701 828,-701 828,-722"/>
<text text-anchor="start" x="726" y="-708.4" font-family="Times,serif" font-size="12.00">[ReferenceRun]</text>
</g>
<!-- DetectorRotation[ReferenceRun]&#45;&gt;CoordTransformationGraph[ReferenceRun] -->
<g id="edge6" class="edge">
<title>DetectorRotation[ReferenceRun]:e&#45;&gt;CoordTransformationGraph[ReferenceRun]:w</title>
<path fill="none" stroke="black" d="M829,-711.5C945.79,-711.5 890.71,-578.82 950.5,-478.5 967.13,-450.6 969.9,-425.21 996.51,-420.34"/>
<polygon fill="black" stroke="black" points="996.83,-423.82 1006.5,-419.5 996.24,-416.85 996.83,-423.82"/>
</g>
<!-- SampleRotation[ReferenceRun] -->
<g id="node18" class="node">
<title>SampleRotation[ReferenceRun]</title>
<polygon fill="none" stroke="black" points="828,-826 718,-826 718,-805 828,-805 828,-826"/>
<text text-anchor="start" x="726" y="-812.4" font-family="Times,serif" font-size="12.00">[ReferenceRun]</text>
</g>
<!-- SampleRotation[ReferenceRun]&#45;&gt;CoordTransformationGraph[ReferenceRun] -->
<g id="edge7" class="edge">
<title>SampleRotation[ReferenceRun]:e&#45;&gt;CoordTransformationGraph[ReferenceRun]:w</title>
<path fill="none" stroke="black" d="M829,-815.5C1018.39,-815.5 821.02,-433.68 996.43,-419.88"/>
<polygon fill="black" stroke="black" points="996.64,-423.38 1006.5,-419.5 996.37,-416.38 996.64,-423.38"/>
</g>
<!-- SampleSize[ReferenceRun] -->
<g id="node19" class="node">
<title>SampleSize[ReferenceRun]</title>
<polygon fill="none" stroke="black" points="828,-304 718,-304 718,-283 828,-283 828,-304"/>
<text text-anchor="start" x="726" y="-290.4" font-family="Times,serif" font-size="12.00">[ReferenceRun]</text>
</g>
<!-- SampleSize[ReferenceRun]&#45;&gt;CoordTransformationGraph[ReferenceRun] -->
<g id="edge12" class="edge">
<title>SampleSize[ReferenceRun]:e&#45;&gt;CoordTransformationGraph[ReferenceRun]:w</title>
<path fill="none" stroke="black" d="M829,-293.5C902.44,-293.5 885.87,-370.62 950.5,-405.5 969.73,-415.88 978.21,-418.73 996.15,-419.35"/>
<polygon fill="black" stroke="black" points="996.45,-422.86 1006.5,-419.5 996.55,-415.86 996.45,-422.86"/>
</g>
<!-- DetectorRotation[SampleRun] -->
<g id="node20" class="node">
<title>DetectorRotation[SampleRun]</title>
<polygon fill="none" stroke="black" points="820.5,-697 725.5,-697 725.5,-676 820.5,-676 820.5,-697"/>
<text text-anchor="start" x="733.5" y="-683.4" font-family="Times,serif" font-size="12.00">[SampleRun]</text>
</g>
<!-- DetectorRotation[SampleRun]&#45;&gt;CoordTransformationGraph[SampleRun] -->
<g id="edge14" class="edge">
<title>DetectorRotation[SampleRun]:e&#45;&gt;CoordTransformationGraph[SampleRun]:w</title>
<path fill="none" stroke="black" d="M822,-686.5C957.71,-686.5 852.46,-503.34 950.5,-409.5 968.69,-392.09 981.25,-393.66 1003.38,-394.33"/>
<polygon fill="black" stroke="black" points="1003.44,-397.83 1013.5,-394.5 1003.56,-390.83 1003.44,-397.83"/>
</g>
<!-- DetectorRotation[SampleRun]&#45;&gt;QBins -->
<g id="edge27" class="edge">
<title>DetectorRotation[SampleRun]:e&#45;&gt;QBins:w</title>
<path fill="none" stroke="black" d="M822,-686.5C1068.86,-686.5 1108.16,-523.06 1349.35,-518.59"/>
<polygon fill="black" stroke="black" points="1349.53,-522.09 1359.5,-518.5 1349.47,-515.09 1349.53,-522.09"/>
</g>
<!-- CoordTransformationGraph[SampleRun]&#45;&gt;ReducibleData[SampleRun] -->
<g id="edge42" class="edge">
<title>CoordTransformationGraph[SampleRun]:e&#45;&gt;ReducibleData[SampleRun]:w</title>
<path fill="none" stroke="black" d="M1111.5,-394.5C1175.95,-394.5 1188.26,-353.22 1247.2,-348.87"/>
<polygon fill="black" stroke="black" points="1247.63,-352.36 1257.5,-348.5 1247.38,-345.36 1247.63,-352.36"/>
</g>
<!-- SampleRotation[SampleRun] -->
<g id="node22" class="node">
<title>SampleRotation[SampleRun]</title>
<polygon fill="none" stroke="black" points="820.5,-801 725.5,-801 725.5,-780 820.5,-780 820.5,-801"/>
<text text-anchor="start" x="733.5" y="-787.4" font-family="Times,serif" font-size="12.00">[SampleRun]</text>
</g>
<!-- SampleRotation[SampleRun]&#45;&gt;CoordTransformationGraph[SampleRun] -->
<g id="edge15" class="edge">
<title>SampleRotation[SampleRun]:e&#45;&gt;CoordTransformationGraph[SampleRun]:w</title>
<path fill="none" stroke="black" d="M822,-790.5C1012.65,-790.5 867.62,-495.33 950.5,-409.5 967.99,-391.38 981.07,-393.49 1003.35,-394.3"/>
<polygon fill="black" stroke="black" points="1003.43,-397.8 1013.5,-394.5 1003.57,-390.8 1003.43,-397.8"/>
</g>
<!-- SampleRotation[SampleRun]&#45;&gt;QBins -->
<g id="edge28" class="edge">
<title>SampleRotation[SampleRun]:e&#45;&gt;QBins:w</title>
<path fill="none" stroke="black" d="M822,-790.5C849.84,-790.5 853.9,-776.55 879,-764.5 1011.6,-700.86 1043.7,-682.76 1174.5,-615.5 1254,-574.62 1265.85,-522.53 1349.5,-518.72"/>
<polygon fill="black" stroke="black" points="1349.58,-522.22 1359.5,-518.5 1349.42,-515.22 1349.58,-522.22"/>
</g>
<!-- SampleSize[SampleRun] -->
<g id="node23" class="node">
<title>SampleSize[SampleRun]</title>
<polygon fill="none" stroke="black" points="820.5,-279 725.5,-279 725.5,-258 820.5,-258 820.5,-279"/>
<text text-anchor="start" x="733.5" y="-265.4" font-family="Times,serif" font-size="12.00">[SampleRun]</text>
</g>
<!-- SampleSize[SampleRun]&#45;&gt;CoordTransformationGraph[SampleRun] -->
<g id="edge20" class="edge">
<title>SampleSize[SampleRun]:e&#45;&gt;CoordTransformationGraph[SampleRun]:w</title>
<path fill="none" stroke="black" d="M822,-268.5C848.2,-268.5 856.62,-269.89 879,-283.5 942.12,-321.88 936.69,-387.94 1003.16,-394.04"/>
<polygon fill="black" stroke="black" points="1003.36,-397.56 1013.5,-394.5 1003.66,-390.56 1003.36,-397.56"/>
</g>
<!-- CriticalEdge -->
<g id="node24" class="node">
<title>CriticalEdge</title>
<polygon fill="none" stroke="black" points="1447.5,-328 1341.5,-328 1341.5,-305 1447.5,-305 1447.5,-328"/>
<text text-anchor="middle" x="1394.5" y="-312.8" font-family="Times,serif" font-size="14.00">CriticalEdge</text>
</g>
<!-- CriticalEdge&#45;&gt;Sample -->
<g id="edge52" class="edge">
<title>CriticalEdge:e&#45;&gt;Sample:w</title>
<path fill="none" stroke="black" d="M1448.5,-316.5C1519.7,-316.5 1538.57,-337.39 1604.86,-339.35"/>
<polygon fill="black" stroke="black" points="1604.95,-342.85 1615,-339.5 1605.05,-335.86 1604.95,-342.85"/>
</g>
<!-- Filename[ReferenceRun] -->
<g id="node25" class="node">
<title>Filename[ReferenceRun]</title>
<polygon fill="none" stroke="black" points="153.5,-484 43.5,-484 43.5,-463 153.5,-463 153.5,-484"/>
<text text-anchor="start" x="51.5" y="-470.4" font-family="Times,serif" font-size="12.00">[ReferenceRun]</text>
</g>
<!-- Filename[ReferenceRun]&#45;&gt;RawChopper[ReferenceRun] -->
<g id="edge31" class="edge">
<title>Filename[ReferenceRun]:e&#45;&gt;RawChopper[ReferenceRun]:w</title>
<path fill="none" stroke="black" d="M154.5,-473.5C252.36,-473.5 273.29,-423.13 365.89,-419.68"/>
<polygon fill="black" stroke="black" points="366.07,-423.18 376,-419.5 365.94,-416.18 366.07,-423.18"/>
</g>
<!-- Filename[ReferenceRun]&#45;&gt;DetectorRotation[ReferenceRun] -->
<g id="edge22" class="edge">
<title>Filename[ReferenceRun]:e&#45;&gt;DetectorRotation[ReferenceRun]:w</title>
<path fill="none" stroke="black" d="M154.5,-473.5C207.08,-473.5 548.73,-621.51 595,-646.5 645.89,-673.99 654.64,-707.33 706.75,-711.14"/>
<polygon fill="black" stroke="black" points="706.88,-714.65 717,-711.5 707.13,-707.65 706.88,-714.65"/>
</g>
<!-- RawSampleRotation[ReferenceRun] -->
<g id="node35" class="node">
<title>RawSampleRotation[ReferenceRun]</title>
<polygon fill="none" stroke="black" points="487,-702 377,-702 377,-681 487,-681 487,-702"/>
<text text-anchor="start" x="385" y="-688.4" font-family="Times,serif" font-size="12.00">[ReferenceRun]</text>
</g>
<!-- Filename[ReferenceRun]&#45;&gt;RawSampleRotation[ReferenceRun] -->
<g id="edge34" class="edge">
<title>Filename[ReferenceRun]:e&#45;&gt;RawSampleRotation[ReferenceRun]:w</title>
<path fill="none" stroke="black" d="M154.5,-473.5C258.47,-473.5 182.88,-619.25 269,-677.5 305.78,-702.38 325.06,-693.19 365.77,-691.69"/>
<polygon fill="black" stroke="black" points="366.07,-695.19 376,-691.5 365.94,-688.19 366.07,-695.19"/>
</g>
<!-- Filename[SampleRun] -->
<g id="node26" class="node">
<title>Filename[SampleRun]</title>
<polygon fill="none" stroke="red" stroke-dasharray="5,2" points="146,-459 51,-459 51,-438 146,-438 146,-459"/>
<text text-anchor="start" x="59" y="-445.4" font-family="Times,serif" font-size="12.00" fill="red">[SampleRun]</text>
</g>
<!-- Filename[SampleRun]&#45;&gt;RawChopper[SampleRun] -->
<g id="edge32" class="edge">
<title>Filename[SampleRun]:e&#45;&gt;RawChopper[SampleRun]:w</title>
<path fill="none" stroke="black" d="M147.5,-448.5C204.21,-448.5 213.66,-421.92 269,-409.5 315.36,-399.1 329.88,-395.07 372.76,-394.56"/>
<polygon fill="black" stroke="black" points="373.02,-398.06 383,-394.5 372.98,-391.06 373.02,-398.06"/>
</g>
<!-- Filename[SampleRun]&#45;&gt;DetectorRotation[SampleRun] -->
<g id="edge23" class="edge">
<title>Filename[SampleRun]:e&#45;&gt;DetectorRotation[SampleRun]:w</title>
<path fill="none" stroke="black" d="M147.5,-448.5C202.54,-448.5 214.62,-463.97 269,-472.5 341.05,-483.8 535.63,-468.14 595,-510.5 655.2,-553.45 614.2,-608.72 667,-660.5 684.24,-677.41 693.5,-684.54 713.82,-686.14"/>
<polygon fill="black" stroke="black" points="713.88,-689.64 724,-686.5 714.13,-682.65 713.88,-689.64"/>
</g>
<!-- NeXusComponent[NXdetector, SampleRun] -->
<g id="node29" class="node">
<title>NeXusComponent[NXdetector, SampleRun]</title>
<polygon fill="none" stroke="black" points="595,-108 269,-108 269,-75 595,-75 595,-108"/>
<text text-anchor="start" x="277" y="-93.8" font-family="Times,serif" font-size="14.00">NeXusComponent[NXdetector, SampleRun]</text>
<text text-anchor="start" x="383" y="-82.2" font-family="Times,serif" font-size="11.00">via:</text>
<text text-anchor="start" x="404" y="-82.2" font-family="Times,serif" font-style="italic" font-size="11.00">load_detector</text>
</g>
<!-- Filename[SampleRun]&#45;&gt;NeXusComponent[NXdetector, SampleRun] -->
<g id="edge24" class="edge">
<title>Filename[SampleRun]:e&#45;&gt;NeXusComponent[NXdetector, SampleRun]:w</title>
<path fill="none" stroke="black" d="M147.5,-448.5C311.5,-448.5 110.4,-106.68 258.72,-91.99"/>
<polygon fill="black" stroke="black" points="259.18,-95.47 269,-91.5 258.85,-88.48 259.18,-95.47"/>
</g>
<!-- ProtonCurrent[SampleRun] -->
<g id="node31" class="node">
<title>ProtonCurrent[SampleRun]</title>
<polygon fill="none" stroke="black" points="538.5,-293 325.5,-293 325.5,-260 538.5,-260 538.5,-293"/>
<text text-anchor="start" x="333.5" y="-278.8" font-family="Times,serif" font-size="14.00">ProtonCurrent[SampleRun]</text>
<text text-anchor="start" x="347.5" y="-267.2" font-family="Times,serif" font-size="11.00">via:</text>
<text text-anchor="start" x="368.5" y="-267.2" font-family="Times,serif" font-style="italic" font-size="11.00">load_amor_proton_current</text>
</g>
<!-- Filename[SampleRun]&#45;&gt;ProtonCurrent[SampleRun] -->
<g id="edge26" class="edge">
<title>Filename[SampleRun]:e&#45;&gt;ProtonCurrent[SampleRun]:w</title>
<path fill="none" stroke="black" d="M147.5,-448.5C253.81,-448.5 217.71,-287.41 314.84,-277.02"/>
<polygon fill="black" stroke="black" points="315.19,-280.51 325,-276.5 314.83,-273.52 315.19,-280.51"/>
</g>
<!-- RawSampleRotation[SampleRun] -->
<g id="node36" class="node">
<title>RawSampleRotation[SampleRun]</title>
<polygon fill="none" stroke="black" points="479.5,-677 384.5,-677 384.5,-656 479.5,-656 479.5,-677"/>
<text text-anchor="start" x="392.5" y="-663.4" font-family="Times,serif" font-size="12.00">[SampleRun]</text>
</g>
<!-- Filename[SampleRun]&#45;&gt;RawSampleRotation[SampleRun] -->
<g id="edge35" class="edge">
<title>Filename[SampleRun]:e&#45;&gt;RawSampleRotation[SampleRun]:w</title>
<path fill="none" stroke="black" d="M147.5,-448.5C286.65,-448.5 242.69,-655.99 372.89,-666.12"/>
<polygon fill="black" stroke="black" points="372.87,-669.62 383,-666.5 373.14,-662.62 372.87,-669.62"/>
</g>
<!-- DetectorSpatialResolution[SampleRun] -->
<g id="node27" class="node">
<title>DetectorSpatialResolution[SampleRun]</title>
<polygon fill="none" stroke="black" points="1543,-419 1246,-419 1246,-396 1543,-396 1543,-419"/>
<text text-anchor="middle" x="1394.5" y="-403.8" font-family="Times,serif" font-size="14.00">DetectorSpatialResolution[SampleRun]</text>
</g>
<!-- DetectorSpatialResolution[SampleRun]&#45;&gt;Reference -->
<g id="edge45" class="edge">
<title>DetectorSpatialResolution[SampleRun]:e&#45;&gt;Reference:w</title>
<path fill="none" stroke="black" d="M1543,-407.5C1585.84,-407.5 1597.73,-392.2 1635.74,-389.81"/>
<polygon fill="black" stroke="black" points="1636.11,-393.3 1646,-389.5 1635.9,-386.31 1636.11,-393.3"/>
</g>
<!-- MValue -->
<g id="node28" class="node">
<title>MValue</title>
<polygon fill="none" stroke="black" points="1429.5,-301 1359.5,-301 1359.5,-278 1429.5,-278 1429.5,-301"/>
<text text-anchor="middle" x="1394.5" y="-285.8" font-family="Times,serif" font-size="14.00">MValue</text>
</g>
<!-- MValue&#45;&gt;Sample -->
<g id="edge53" class="edge">
<title>MValue:e&#45;&gt;Sample:w</title>
<path fill="none" stroke="black" d="M1430.5,-289.5C1481,-289.5 1494.62,-291 1543,-305.5 1573.32,-314.59 1578.69,-334.62 1604.82,-338.75"/>
<polygon fill="black" stroke="black" points="1604.77,-342.25 1615,-339.5 1605.28,-335.27 1604.77,-342.25"/>
</g>
<!-- RawDetector[SampleRun] -->
<g id="node34" class="node">
<title>RawDetector[SampleRun]</title>
<polygon fill="none" stroke="black" points="874,-33 672,-33 672,0 874,0 874,-33"/>
<text text-anchor="start" x="680" y="-18.8" font-family="Times,serif" font-size="14.00">RawDetector[SampleRun]</text>
<text text-anchor="start" x="729" y="-7.2" font-family="Times,serif" font-size="11.00">via:</text>
<text text-anchor="start" x="750" y="-7.2" font-family="Times,serif" font-style="italic" font-size="11.00">load_events</text>
</g>
<!-- NeXusComponent[NXdetector, SampleRun]&#45;&gt;RawDetector[SampleRun] -->
<g id="edge33" class="edge">
<title>NeXusComponent[NXdetector, SampleRun]:e&#45;&gt;RawDetector[SampleRun]:w</title>
<path fill="none" stroke="black" d="M595,-91.5C638.75,-91.5 626.09,-27.76 661.03,-17.8"/>
<polygon fill="black" stroke="black" points="661.54,-21.27 671,-16.5 660.63,-14.32 661.54,-21.27"/>
</g>
<!-- NeXusName[NXdetector] -->
<g id="node30" class="node">
<title>NeXusName[NXdetector]</title>
<polygon fill="none" stroke="black" points="197,-103 0,-103 0,-80 197,-80 197,-103"/>
<text text-anchor="middle" x="98.5" y="-87.8" font-family="Times,serif" font-size="14.00">NeXusName[NXdetector]</text>
</g>
<!-- NeXusName[NXdetector]&#45;&gt;NeXusComponent[NXdetector, SampleRun] -->
<g id="edge25" class="edge">
<title>NeXusName[NXdetector]:e&#45;&gt;NeXusComponent[NXdetector, SampleRun]:w</title>
<path fill="none" stroke="black" d="M197,-91.5C225.38,-91.5 234.88,-91.5 258.98,-91.5"/>
<polygon fill="black" stroke="black" points="259,-95 269,-91.5 259,-88 259,-95"/>
</g>
<!-- ProtonCurrent[SampleRun]&#45;&gt;ReducibleData[SampleRun] -->
<g id="edge41" class="edge">
<title>ProtonCurrent[SampleRun]:e&#45;&gt;ReducibleData[SampleRun]:w</title>
<path fill="none" stroke="black" d="M539,-276.5C654.44,-276.5 567.27,-108.63 667,-50.5 707.7,-26.78 834.48,-35.08 879,-50.5 1078.05,-119.45 1044.56,-341.2 1247.34,-348.32"/>
<polygon fill="black" stroke="black" points="1247.44,-351.83 1257.5,-348.5 1247.56,-344.83 1247.44,-351.83"/>
</g>
<!-- ReflectivityOverQ -->
<g id="node43" class="node">
<title>ReflectivityOverQ</title>
<polygon fill="none" stroke="black" points="2165,-406 2001,-406 2001,-373 2165,-373 2165,-406"/>
<text text-anchor="start" x="2019.5" y="-391.8" font-family="Times,serif" font-size="14.00">ReflectivityOverQ</text>
<text text-anchor="start" x="2009" y="-380.2" font-family="Times,serif" font-size="11.00">via:</text>
<text text-anchor="start" x="2030" y="-380.2" font-family="Times,serif" font-style="italic" font-size="11.00">reduce_sample_over_q</text>
</g>
<!-- QBins&#45;&gt;ReflectivityOverQ -->
<g id="edge49" class="edge">
<title>QBins:e&#45;&gt;ReflectivityOverQ:w</title>
<path fill="none" stroke="black" d="M1429.5,-518.5C1656.82,-518.5 1708.06,-461.96 1929,-408.5 1957.52,-401.6 1966.05,-392 1990.69,-389.91"/>
<polygon fill="black" stroke="black" points="1991.15,-393.4 2001,-389.5 1990.87,-386.4 1991.15,-393.4"/>
</g>
<!-- WavelengthBins -->
<g id="node33" class="node">
<title>WavelengthBins</title>
<polygon fill="none" stroke="black" points="1128.5,-530 996.5,-530 996.5,-507 1128.5,-507 1128.5,-530"/>
<text text-anchor="middle" x="1062.5" y="-514.8" font-family="Times,serif" font-size="14.00">WavelengthBins</text>
</g>
<!-- WavelengthBins&#45;&gt;QBins -->
<g id="edge29" class="edge">
<title>WavelengthBins:e&#45;&gt;QBins:w</title>
<path fill="none" stroke="black" d="M1129.5,-518.5C1228.23,-518.5 1255.44,-518.5 1349.28,-518.5"/>
<polygon fill="black" stroke="black" points="1349.5,-522 1359.5,-518.5 1349.5,-515 1349.5,-522"/>
</g>
<!-- WavelengthBins&#45;&gt;ReducibleData[SampleRun] -->
<g id="edge40" class="edge">
<title>WavelengthBins:e&#45;&gt;ReducibleData[SampleRun]:w</title>
<path fill="none" stroke="black" d="M1129.5,-518.5C1150.58,-518.5 1158.39,-517.1 1174.5,-503.5 1231.41,-455.45 1184.25,-358.19 1247.36,-349.17"/>
<polygon fill="black" stroke="black" points="1247.75,-352.65 1257.5,-348.5 1247.29,-345.67 1247.75,-352.65"/>
</g>
<!-- RawDetector[SampleRun]&#45;&gt;ReducibleData[SampleRun] -->
<g id="edge36" class="edge">
<title>RawDetector[SampleRun]:e&#45;&gt;ReducibleData[SampleRun]:w</title>
<path fill="none" stroke="black" d="M875,-16.5C908.7,-16.5 916.9,-20.89 950.5,-23.5 975.36,-25.43 1155.36,-21.51 1174.5,-37.5 1281.49,-126.91 1122.88,-337.45 1247.2,-348.08"/>
<polygon fill="black" stroke="black" points="1247.37,-351.59 1257.5,-348.5 1247.65,-344.6 1247.37,-351.59"/>
</g>
<!-- RawSampleRotation[ReferenceRun]&#45;&gt;SampleRotation[ReferenceRun] -->
<g id="edge55" class="edge">
<title>RawSampleRotation[ReferenceRun]:e&#45;&gt;SampleRotation[ReferenceRun]:w</title>
<path fill="none" stroke="black" d="M488,-691.5C600.24,-691.5 601.3,-808.11 706.81,-815.17"/>
<polygon fill="black" stroke="black" points="706.89,-818.67 717,-815.5 707.12,-811.67 706.89,-818.67"/>
</g>
<!-- RawSampleRotation[SampleRun]&#45;&gt;SampleRotation[SampleRun] -->
<g id="edge57" class="edge">
<title>RawSampleRotation[SampleRun]:e&#45;&gt;SampleRotation[SampleRun]:w</title>
<path fill="none" stroke="black" d="M481,-666.5C532.1,-666.5 550,-657.29 595,-681.5 658,-715.39 649.91,-783.7 714,-790.03"/>
<polygon fill="black" stroke="black" points="713.85,-793.52 724,-790.5 714.18,-786.53 713.85,-793.52"/>
</g>
<!-- ReducedReference -->
<g id="node37" class="node">
<title>ReducedReference</title>
<polygon fill="none" stroke="black" points="1469.5,-392 1319.5,-392 1319.5,-369 1469.5,-369 1469.5,-392"/>
<text text-anchor="middle" x="1394.5" y="-376.8" font-family="Times,serif" font-size="14.00">ReducedReference</text>
</g>
<!-- ReducedReference&#45;&gt;Reference -->
<g id="edge43" class="edge">
<title>ReducedReference:e&#45;&gt;Reference:w</title>
<path fill="none" stroke="black" d="M1470.5,-380.5C1545.09,-380.5 1566.05,-388.71 1635.82,-389.45"/>
<polygon fill="black" stroke="black" points="1635.98,-392.95 1646,-389.5 1636.02,-385.95 1635.98,-392.95"/>
</g>
<!-- ReducedReference&#45;&gt;Sample -->
<g id="edge51" class="edge">
<title>ReducedReference:e&#45;&gt;Sample:w</title>
<path fill="none" stroke="black" d="M1470.5,-380.5C1503.4,-380.5 1511.33,-374.44 1543,-365.5 1572.16,-357.26 1579.5,-343.07 1604.8,-340.07"/>
<polygon fill="black" stroke="black" points="1605.21,-343.55 1615,-339.5 1604.82,-336.56 1605.21,-343.55"/>
</g>
<!-- ReducibleData[SampleRun]&#45;&gt;Reference -->
<g id="edge44" class="edge">
<title>ReducibleData[SampleRun]:e&#45;&gt;Reference:w</title>
<path fill="none" stroke="black" d="M1531.5,-348.5C1581.96,-348.5 1590.89,-384.24 1635.83,-388.98"/>
<polygon fill="black" stroke="black" points="1635.83,-392.49 1646,-389.5 1636.19,-385.5 1635.83,-392.49"/>
</g>
<!-- ReducibleData[SampleRun]&#45;&gt;Sample -->
<g id="edge50" class="edge">
<title>ReducibleData[SampleRun]:e&#45;&gt;Sample:w</title>
<path fill="none" stroke="black" d="M1531.5,-348.5C1565.18,-348.5 1575.67,-341.17 1604.83,-339.74"/>
<polygon fill="black" stroke="black" points="1605.09,-343.24 1615,-339.5 1604.92,-336.24 1605.09,-343.24"/>
</g>
<!-- YIndexLimits -->
<g id="node39" class="node">
<title>YIndexLimits</title>
<polygon fill="none" stroke="black" points="1117.5,-23 1007.5,-23 1007.5,0 1117.5,0 1117.5,-23"/>
<text text-anchor="middle" x="1062.5" y="-7.8" font-family="Times,serif" font-size="14.00">YIndexLimits</text>
</g>
<!-- YIndexLimits&#45;&gt;ReducibleData[SampleRun] -->
<g id="edge37" class="edge">
<title>YIndexLimits:e&#45;&gt;ReducibleData[SampleRun]:w</title>
<path fill="none" stroke="black" d="M1118.5,-11.5C1144.27,-11.5 1156.55,-8.02 1174.5,-26.5 1274.95,-129.93 1117.74,-338.02 1247.23,-348.12"/>
<polygon fill="black" stroke="black" points="1247.38,-351.63 1257.5,-348.5 1247.64,-344.63 1247.38,-351.63"/>
</g>
<!-- ZIndexLimits -->
<g id="node40" class="node">
<title>ZIndexLimits</title>
<polygon fill="none" stroke="black" points="1118,-360 1007,-360 1007,-337 1118,-337 1118,-360"/>
<text text-anchor="middle" x="1062.5" y="-344.8" font-family="Times,serif" font-size="14.00">ZIndexLimits</text>
</g>
<!-- ZIndexLimits&#45;&gt;ReducibleData[SampleRun] -->
<g id="edge38" class="edge">
<title>ZIndexLimits:e&#45;&gt;ReducibleData[SampleRun]:w</title>
<path fill="none" stroke="black" d="M1118.5,-348.5C1176.78,-348.5 1193.82,-348.5 1247.43,-348.5"/>
<polygon fill="black" stroke="black" points="1247.5,-352 1257.5,-348.5 1247.5,-345 1247.5,-352"/>
</g>
<!-- Reference&#45;&gt;ReflectivityOverQ -->
<g id="edge48" class="edge">
<title>Reference:e&#45;&gt;ReflectivityOverQ:w</title>
<path fill="none" stroke="black" d="M1898,-389.5C1940.2,-389.5 1953.22,-389.5 1990.87,-389.5"/>
<polygon fill="black" stroke="black" points="1991,-393 2001,-389.5 1991,-386 1991,-393"/>
</g>
<!-- Sample&#45;&gt;ReflectivityOverQ -->
<g id="edge47" class="edge">
<title>Sample:e&#45;&gt;ReflectivityOverQ:w</title>
<path fill="none" stroke="black" d="M1929,-339.5C1964.15,-339.5 1962.77,-380.21 1990.79,-388.16"/>
<polygon fill="black" stroke="black" points="1990.63,-391.67 2001,-389.5 1991.54,-384.73 1990.63,-391.67"/>
</g>
<!-- SampleRotationOffset[ReferenceRun] -->
<g id="node44" class="node">
<title>SampleRotationOffset[ReferenceRun]</title>
<polygon fill="none" stroke="black" points="487,-826 377,-826 377,-805 487,-805 487,-826"/>
<text text-anchor="start" x="385" y="-812.4" font-family="Times,serif" font-size="12.00">[ReferenceRun]</text>
</g>
<!-- SampleRotationOffset[ReferenceRun]&#45;&gt;SampleRotation[ReferenceRun] -->
<g id="edge56" class="edge">
<title>SampleRotationOffset[ReferenceRun]:e&#45;&gt;SampleRotation[ReferenceRun]:w</title>
<path fill="none" stroke="black" d="M488,-815.5C586.3,-815.5 613.39,-815.5 706.83,-815.5"/>
<polygon fill="black" stroke="black" points="707,-819 717,-815.5 707,-812 707,-819"/>
</g>
<!-- SampleRotationOffset[SampleRun] -->
<g id="node45" class="node">
<title>SampleRotationOffset[SampleRun]</title>
<polygon fill="none" stroke="black" points="479.5,-801 384.5,-801 384.5,-780 479.5,-780 479.5,-801"/>
<text text-anchor="start" x="392.5" y="-787.4" font-family="Times,serif" font-size="12.00">[SampleRun]</text>
</g>
<!-- SampleRotationOffset[SampleRun]&#45;&gt;SampleRotation[SampleRun] -->
<g id="edge58" class="edge">
<title>SampleRotationOffset[SampleRun]:e&#45;&gt;SampleRotation[SampleRun]:w</title>
<path fill="none" stroke="black" d="M481,-790.5C585.52,-790.5 614.18,-790.5 713.81,-790.5"/>
<polygon fill="black" stroke="black" points="714,-794 724,-790.5 714,-787 714,-794"/>
</g>
</g>
</svg>
