<?xml version="1.0" encoding="UTF-8" standalone="no"?>
<!DOCTYPE svg PUBLIC "-//W3C//DTD SVG 1.1//EN"
 "http://www.w3.org/Graphics/SVG/1.1/DTD/svg11.dtd">
<!-- Generated by graphviz version 2.43.0 (0)
 -->
<!-- Title: %3 Pages: 1 -->
<svg width="2210pt" height="315pt"
 viewBox="0.00 0.00 2210.00 314.93" xmlns="http://www.w3.org/2000/svg" xmlns:xlink="http://www.w3.org/1999/xlink">
<g id="graph0" class="graph" transform="scale(1 1) rotate(0) translate(4 310.93)">
<title>%3</title>
<polygon fill="white" stroke="transparent" points="-4,4 -4,-310.93 2206,-310.93 2206,4 -4,4"/>
<!-- Alpha -->
<g id="node1" class="node">
<title>Alpha</title>
<polygon fill="none" stroke="black" points="1460,-268.93 1403,-268.93 1403,-245.93 1460,-245.93 1460,-268.93"/>
<text text-anchor="middle" x="1431.5" y="-253.73" font-family="Times,serif" font-size="14.00">Alpha</text>
</g>
<!-- Sample -->
<g id="node30" class="node">
<title>Sample</title>
<polygon fill="none" stroke="black" points="1966,-209.93 1652,-209.93 1652,-176.93 1966,-176.93 1966,-209.93"/>
<text text-anchor="start" x="1782" y="-195.73" font-family="Times,serif" font-size="14.00">Sample</text>
<text text-anchor="start" x="1660" y="-184.13" font-family="Times,serif" font-size="11.00">via:</text>
<text text-anchor="start" x="1681" y="-184.13" font-family="Times,serif" font-style="italic" font-size="11.00">mask_events_where_supermirror_does_not_cover</text>
</g>
<!-- Alpha&#45;&gt;Sample -->
<g id="edge41" class="edge">
<title>Alpha:e&#45;&gt;Sample:w</title>
<path fill="none" stroke="black" d="M1461.5,-257.43C1514.59,-257.43 1530.35,-261.22 1580,-242.43 1612.67,-230.07 1613.49,-200.12 1641.78,-194.39"/>
<polygon fill="black" stroke="black" points="1642.37,-197.85 1652,-193.43 1641.72,-190.88 1642.37,-197.85"/>
</g>
<!-- BeamDivergenceLimits -->
<g id="node2" class="node">
<title>BeamDivergenceLimits</title>
<polygon fill="none" stroke="black" points="1190.5,-112.93 1007.5,-112.93 1007.5,-89.93 1190.5,-89.93 1190.5,-112.93"/>
<text text-anchor="middle" x="1099" y="-97.73" font-family="Times,serif" font-size="14.00">BeamDivergenceLimits</text>
</g>
<!-- QBins -->
<g id="node22" class="node">
<title>QBins</title>
<polygon fill="none" stroke="black" points="1465,-85.93 1398,-85.93 1398,-52.93 1465,-52.93 1465,-85.93"/>
<text text-anchor="start" x="1410" y="-71.73" font-family="Times,serif" font-size="14.00">QBins</text>
<text text-anchor="start" x="1406" y="-60.13" font-family="Times,serif" font-size="11.00">via:</text>
<text text-anchor="start" x="1427" y="-60.13" font-family="Times,serif" font-style="italic" font-size="11.00">qgrid</text>
</g>
<!-- BeamDivergenceLimits&#45;&gt;QBins -->
<g id="edge20" class="edge">
<title>BeamDivergenceLimits:e&#45;&gt;QBins:w</title>
<path fill="none" stroke="black" d="M1192,-101.43C1280.49,-101.43 1302.84,-71.83 1386.29,-69.57"/>
<polygon fill="black" stroke="black" points="1386.55,-73.07 1396.5,-69.43 1386.45,-66.07 1386.55,-73.07"/>
</g>
<!-- ReducibleData[SampleRun] -->
<g id="node26" class="node">
<title>ReducibleData[SampleRun]</title>
<polygon fill="none" stroke="black" points="1567.5,-176.93 1295.5,-176.93 1295.5,-143.93 1567.5,-143.93 1567.5,-176.93"/>
<text text-anchor="start" x="1333" y="-162.73" font-family="Times,serif" font-size="14.00">ReducibleData[SampleRun]</text>
<text text-anchor="start" x="1303.5" y="-151.13" font-family="Times,serif" font-size="11.00">via:</text>
<text text-anchor="start" x="1324.5" y="-151.13" font-family="Times,serif" font-style="italic" font-size="11.00">add_coords_masks_and_apply_corrections</text>
</g>
<!-- BeamDivergenceLimits&#45;&gt;ReducibleData[SampleRun] -->
<g id="edge26" class="edge">
<title>BeamDivergenceLimits:e&#45;&gt;ReducibleData[SampleRun]:w</title>
<path fill="none" stroke="black" d="M1192,-101.43C1240.97,-101.43 1242.04,-152.64 1284.46,-159.65"/>
<polygon fill="black" stroke="black" points="1284.26,-163.14 1294.5,-160.43 1284.81,-156.16 1284.26,-163.14"/>
</g>
<!-- BeamSize[SampleRun] -->
<g id="node3" class="node">
<title>BeamSize[SampleRun]</title>
<polygon fill="none" stroke="black" points="880.5,-279.93 701.5,-279.93 701.5,-256.93 880.5,-256.93 880.5,-279.93"/>
<text text-anchor="middle" x="791" y="-264.73" font-family="Times,serif" font-size="14.00">BeamSize[SampleRun]</text>
</g>
<!-- DetectorData[SampleRun] -->
<g id="node13" class="node">
<title>DetectorData[SampleRun]</title>
<polygon fill="none" stroke="black" points="1201.5,-203.93 996.5,-203.93 996.5,-170.93 1201.5,-170.93 1201.5,-203.93"/>
<text text-anchor="start" x="1004.5" y="-189.73" font-family="Times,serif" font-size="14.00">DetectorData[SampleRun]</text>
<text text-anchor="start" x="1055" y="-178.13" font-family="Times,serif" font-size="11.00">via:</text>
<text text-anchor="start" x="1076" y="-178.13" font-family="Times,serif" font-style="italic" font-size="11.00">load_events</text>
</g>
<!-- BeamSize[SampleRun]&#45;&gt;DetectorData[SampleRun] -->
<g id="edge12" class="edge">
<title>BeamSize[SampleRun]:e&#45;&gt;DetectorData[SampleRun]:w</title>
<path fill="none" stroke="black" d="M882,-268.43C940.51,-268.43 934.81,-196.65 985.79,-188.24"/>
<polygon fill="black" stroke="black" points="986.3,-191.71 996,-187.43 985.76,-184.73 986.3,-191.71"/>
</g>
<!-- RawChopper[SampleRun] -->
<g id="node4" class="node">
<title>RawChopper[SampleRun]</title>
<polygon fill="none" stroke="black" points="532,-179.93 332,-179.93 332,-146.93 532,-146.93 532,-179.93"/>
<text text-anchor="start" x="340" y="-165.73" font-family="Times,serif" font-size="14.00">RawChopper[SampleRun]</text>
<text text-anchor="start" x="381.5" y="-154.13" font-family="Times,serif" font-size="11.00">via:</text>
<text text-anchor="start" x="402.5" y="-154.13" font-family="Times,serif" font-style="italic" font-size="11.00">amor_chopper</text>
</g>
<!-- ChopperDistance[SampleRun] -->
<g id="node5" class="node">
<title>ChopperDistance[SampleRun]</title>
<polygon fill="none" stroke="black" points="907,-113.93 675,-113.93 675,-80.93 907,-80.93 907,-113.93"/>
<text text-anchor="start" x="683" y="-99.73" font-family="Times,serif" font-size="14.00">ChopperDistance[SampleRun]</text>
<text text-anchor="start" x="699.5" y="-88.13" font-family="Times,serif" font-size="11.00">via:</text>
<text text-anchor="start" x="720.5" y="-88.13" font-family="Times,serif" font-style="italic" font-size="11.00">load_amor_chopper_distance</text>
</g>
<!-- RawChopper[SampleRun]&#45;&gt;ChopperDistance[SampleRun] -->
<g id="edge1" class="edge">
<title>RawChopper[SampleRun]:e&#45;&gt;ChopperDistance[SampleRun]:w</title>
<path fill="none" stroke="black" d="M533,-163.43C598.68,-163.43 604.37,-103.97 663.96,-97.93"/>
<polygon fill="black" stroke="black" points="664.18,-101.42 674,-97.43 663.84,-94.43 664.18,-101.42"/>
</g>
<!-- ChopperSeparation[SampleRun] -->
<g id="node8" class="node">
<title>ChopperSeparation[SampleRun]</title>
<polygon fill="none" stroke="black" points="915,-231.93 667,-231.93 667,-198.93 915,-198.93 915,-231.93"/>
<text text-anchor="start" x="675" y="-217.73" font-family="Times,serif" font-size="14.00">ChopperSeparation[SampleRun]</text>
<text text-anchor="start" x="693" y="-206.13" font-family="Times,serif" font-size="11.00">via:</text>
<text text-anchor="start" x="714" y="-206.13" font-family="Times,serif" font-style="italic" font-size="11.00">load_amor_chopper_separation</text>
</g>
<!-- RawChopper[SampleRun]&#45;&gt;ChopperSeparation[SampleRun] -->
<g id="edge2" class="edge">
<title>RawChopper[SampleRun]:e&#45;&gt;ChopperSeparation[SampleRun]:w</title>
<path fill="none" stroke="black" d="M533,-163.43C593.26,-163.43 602.23,-209.71 656.68,-214.95"/>
<polygon fill="black" stroke="black" points="656.85,-218.46 667,-215.43 657.17,-211.47 656.85,-218.46"/>
</g>
<!-- ChopperDistance[SampleRun]&#45;&gt;DetectorData[SampleRun] -->
<g id="edge9" class="edge">
<title>ChopperDistance[SampleRun]:e&#45;&gt;DetectorData[SampleRun]:w</title>
<path fill="none" stroke="black" d="M908,-97.43C960.23,-97.43 942.88,-175.88 985.86,-186.3"/>
<polygon fill="black" stroke="black" points="985.67,-189.8 996,-187.43 986.45,-182.84 985.67,-189.8"/>
</g>
<!-- ChopperFrequency[SampleRun] -->
<g id="node6" class="node">
<title>ChopperFrequency[SampleRun]</title>
<polygon fill="none" stroke="black" points="913.5,-194.93 668.5,-194.93 668.5,-171.93 913.5,-171.93 913.5,-194.93"/>
<text text-anchor="middle" x="791" y="-179.73" font-family="Times,serif" font-size="14.00">ChopperFrequency[SampleRun]</text>
</g>
<!-- ChopperFrequency[SampleRun]&#45;&gt;DetectorData[SampleRun] -->
<g id="edge8" class="edge">
<title>ChopperFrequency[SampleRun]:e&#45;&gt;DetectorData[SampleRun]:w</title>
<path fill="none" stroke="black" d="M915,-183.43C947.38,-183.43 957.87,-186.66 985.8,-187.32"/>
<polygon fill="black" stroke="black" points="985.96,-190.82 996,-187.43 986.04,-183.82 985.96,-190.82"/>
</g>
<!-- ChopperPhase[SampleRun] -->
<g id="node7" class="node">
<title>ChopperPhase[SampleRun]</title>
<polygon fill="none" stroke="black" points="897,-167.93 685,-167.93 685,-144.93 897,-144.93 897,-167.93"/>
<text text-anchor="middle" x="791" y="-152.73" font-family="Times,serif" font-size="14.00">ChopperPhase[SampleRun]</text>
</g>
<!-- ChopperPhase[SampleRun]&#45;&gt;DetectorData[SampleRun] -->
<g id="edge7" class="edge">
<title>ChopperPhase[SampleRun]:e&#45;&gt;DetectorData[SampleRun]:w</title>
<path fill="none" stroke="black" d="M898,-156.43C940.11,-156.43 949.04,-182.78 985.97,-186.9"/>
<polygon fill="black" stroke="black" points="985.83,-190.39 996,-187.43 986.2,-183.4 985.83,-190.39"/>
</g>
<!-- ChopperSeparation[SampleRun]&#45;&gt;DetectorData[SampleRun] -->
<g id="edge10" class="edge">
<title>ChopperSeparation[SampleRun]:e&#45;&gt;DetectorData[SampleRun]:w</title>
<path fill="none" stroke="black" d="M915,-215.43C949.37,-215.43 956.65,-192.64 985.73,-188.18"/>
<polygon fill="black" stroke="black" points="986.28,-191.65 996,-187.43 985.77,-184.67 986.28,-191.65"/>
</g>
<!-- GravityToggle -->
<g id="node9" class="node">
<title>GravityToggle</title>
<polygon fill="none" stroke="black" points="849.5,-306.93 732.5,-306.93 732.5,-283.93 849.5,-283.93 849.5,-306.93"/>
<text text-anchor="middle" x="791" y="-291.73" font-family="Times,serif" font-size="14.00">GravityToggle</text>
</g>
<!-- CoordTransformationGraph -->
<g id="node10" class="node">
<title>CoordTransformationGraph</title>
<polygon fill="none" stroke="black" points="1211,-279.93 987,-279.93 987,-246.93 1211,-246.93 1211,-279.93"/>
<text text-anchor="start" x="1000" y="-265.73" font-family="Times,serif" font-size="14.00">CoordTransformationGraph</text>
<text text-anchor="start" x="995" y="-254.13" font-family="Times,serif" font-size="11.00">via:</text>
<text text-anchor="start" x="1016" y="-254.13" font-family="Times,serif" font-style="italic" font-size="11.00">coordinate_transformation_graph</text>
</g>
<!-- GravityToggle&#45;&gt;CoordTransformationGraph -->
<g id="edge3" class="edge">
<title>GravityToggle:e&#45;&gt;CoordTransformationGraph:w</title>
<path fill="none" stroke="black" d="M851,-295.43C909.58,-295.43 923.41,-266.96 976.91,-263.73"/>
<polygon fill="black" stroke="black" points="977.11,-267.23 987,-263.43 976.9,-260.23 977.11,-267.23"/>
</g>
<!-- CoordTransformationGraph&#45;&gt;ReducibleData[SampleRun] -->
<g id="edge29" class="edge">
<title>CoordTransformationGraph:e&#45;&gt;ReducibleData[SampleRun]:w</title>
<path fill="none" stroke="black" d="M1211,-263.43C1266.25,-263.43 1239.5,-172.91 1284.5,-161.59"/>
<polygon fill="black" stroke="black" points="1284.97,-165.06 1294.5,-160.43 1284.16,-158.11 1284.97,-165.06"/>
</g>
<!-- Reference -->
<g id="node29" class="node">
<title>Reference</title>
<polygon fill="none" stroke="black" points="1934,-153.93 1684,-153.93 1684,-120.93 1934,-120.93 1934,-153.93"/>
<text text-anchor="start" x="1772.5" y="-139.73" font-family="Times,serif" font-size="14.00">Reference</text>
<text text-anchor="start" x="1692" y="-128.13" font-family="Times,serif" font-size="11.00">via:</text>
<text text-anchor="start" x="1713" y="-128.13" font-family="Times,serif" font-style="italic" font-size="11.00">evaluate_reference_at_sample_coords</text>
</g>
<!-- CoordTransformationGraph&#45;&gt;Reference -->
<g id="edge33" class="edge">
<title>CoordTransformationGraph:e&#45;&gt;Reference:w</title>
<path fill="none" stroke="black" d="M1211,-263.43C1256.25,-263.43 1241.61,-209.73 1283,-191.43 1343.43,-164.72 1515.36,-191.13 1580,-177.43 1624.57,-167.99 1632.83,-141.64 1673,-137.88"/>
<polygon fill="black" stroke="black" points="1673.17,-141.38 1683,-137.43 1672.85,-134.39 1673.17,-141.38"/>
</g>
<!-- CriticalEdge -->
<g id="node11" class="node">
<title>CriticalEdge</title>
<polygon fill="none" stroke="black" points="1484.5,-241.93 1378.5,-241.93 1378.5,-218.93 1484.5,-218.93 1484.5,-241.93"/>
<text text-anchor="middle" x="1431.5" y="-226.73" font-family="Times,serif" font-size="14.00">CriticalEdge</text>
</g>
<!-- CriticalEdge&#45;&gt;Sample -->
<g id="edge39" class="edge">
<title>CriticalEdge:e&#45;&gt;Sample:w</title>
<path fill="none" stroke="black" d="M1485.5,-230.43C1528.03,-230.43 1538.56,-225 1580,-215.43 1609.04,-208.73 1616.92,-196.52 1641.94,-193.93"/>
<polygon fill="black" stroke="black" points="1642.18,-197.42 1652,-193.43 1641.84,-190.43 1642.18,-197.42"/>
</g>
<!-- NeXusComponent[NXdetector, SampleRun] -->
<g id="node12" class="node">
<title>NeXusComponent[NXdetector, SampleRun]</title>
<polygon fill="none" stroke="black" points="595,-262.93 269,-262.93 269,-229.93 595,-229.93 595,-262.93"/>
<text text-anchor="start" x="277" y="-248.73" font-family="Times,serif" font-size="14.00">NeXusComponent[NXdetector, SampleRun]</text>
<text text-anchor="start" x="383" y="-237.13" font-family="Times,serif" font-size="11.00">via:</text>
<text text-anchor="start" x="404" y="-237.13" font-family="Times,serif" font-style="italic" font-size="11.00">load_detector</text>
</g>
<!-- NeXusComponent[NXdetector, SampleRun]&#45;&gt;DetectorData[SampleRun] -->
<g id="edge4" class="edge">
<title>NeXusComponent[NXdetector, SampleRun]:e&#45;&gt;DetectorData[SampleRun]:w</title>
<path fill="none" stroke="black" d="M595,-246.43C737.32,-246.43 778.28,-273.99 915,-234.43 951.39,-223.91 954.16,-193.61 985.74,-188.25"/>
<polygon fill="black" stroke="black" points="986.31,-191.72 996,-187.43 985.75,-184.74 986.31,-191.72"/>
</g>
<!-- DetectorData[SampleRun]&#45;&gt;ReducibleData[SampleRun] -->
<g id="edge23" class="edge">
<title>DetectorData[SampleRun]:e&#45;&gt;ReducibleData[SampleRun]:w</title>
<path fill="none" stroke="black" d="M1202,-187.43C1241.15,-187.43 1250.23,-164.88 1284.21,-161"/>
<polygon fill="black" stroke="black" points="1284.71,-164.48 1294.5,-160.43 1284.32,-157.49 1284.71,-164.48"/>
</g>
<!-- DetectorRotation[SampleRun] -->
<g id="node14" class="node">
<title>DetectorRotation[SampleRun]</title>
<polygon fill="none" stroke="black" points="907,-39.93 675,-39.93 675,-6.93 907,-6.93 907,-39.93"/>
<text text-anchor="start" x="683" y="-25.73" font-family="Times,serif" font-size="14.00">DetectorRotation[SampleRun]</text>
<text text-anchor="start" x="699.5" y="-14.13" font-family="Times,serif" font-size="11.00">via:</text>
<text text-anchor="start" x="720.5" y="-14.13" font-family="Times,serif" font-style="italic" font-size="11.00">load_amor_detector_rotation</text>
</g>
<!-- DetectorRotation[SampleRun]&#45;&gt;DetectorData[SampleRun] -->
<g id="edge5" class="edge">
<title>DetectorRotation[SampleRun]:e&#45;&gt;DetectorData[SampleRun]:w</title>
<path fill="none" stroke="black" d="M908,-23.43C987,-23.43 919.91,-173.03 985.79,-186.47"/>
<polygon fill="black" stroke="black" points="985.72,-189.98 996,-187.43 986.37,-183.01 985.72,-189.98"/>
</g>
<!-- DetectorRotation[SampleRun]&#45;&gt;QBins -->
<g id="edge17" class="edge">
<title>DetectorRotation[SampleRun]:e&#45;&gt;QBins:w</title>
<path fill="none" stroke="black" d="M908,-23.43C1122.66,-23.43 1176.75,-68.01 1386.4,-69.4"/>
<polygon fill="black" stroke="black" points="1386.49,-72.9 1396.5,-69.43 1386.51,-65.9 1386.49,-72.9"/>
</g>
<!-- SampleRotation[SampleRun] -->
<g id="node15" class="node">
<title>SampleRotation[SampleRun]</title>
<polygon fill="none" stroke="black" points="902.5,-76.93 679.5,-76.93 679.5,-43.93 902.5,-43.93 902.5,-76.93"/>
<text text-anchor="start" x="687.5" y="-62.73" font-family="Times,serif" font-size="14.00">SampleRotation[SampleRun]</text>
<text text-anchor="start" x="712" y="-51.13" font-family="Times,serif" font-size="11.00">via:</text>
<text text-anchor="start" x="733" y="-51.13" font-family="Times,serif" font-style="italic" font-size="11.00">correct_sample_rotation</text>
</g>
<!-- SampleRotation[SampleRun]&#45;&gt;DetectorData[SampleRun] -->
<g id="edge6" class="edge">
<title>SampleRotation[SampleRun]:e&#45;&gt;DetectorData[SampleRun]:w</title>
<path fill="none" stroke="black" d="M903,-60.43C969.27,-60.43 930.66,-174.39 985.87,-186.41"/>
<polygon fill="black" stroke="black" points="985.7,-189.91 996,-187.43 986.4,-182.95 985.7,-189.91"/>
</g>
<!-- SampleRotation[SampleRun]&#45;&gt;QBins -->
<g id="edge18" class="edge">
<title>SampleRotation[SampleRun]:e&#45;&gt;QBins:w</title>
<path fill="none" stroke="black" d="M903,-60.43C1039.89,-60.43 1074.14,-59.41 1211,-62.43 1289.94,-64.18 1312.12,-69 1386.2,-69.41"/>
<polygon fill="black" stroke="black" points="1386.49,-72.91 1396.5,-69.43 1386.51,-65.91 1386.49,-72.91"/>
</g>
<!-- SampleSize[SampleRun] -->
<g id="node16" class="node">
<title>SampleSize[SampleRun]</title>
<polygon fill="none" stroke="black" points="887,-140.93 695,-140.93 695,-117.93 887,-117.93 887,-140.93"/>
<text text-anchor="middle" x="791" y="-125.73" font-family="Times,serif" font-size="14.00">SampleSize[SampleRun]</text>
</g>
<!-- SampleSize[SampleRun]&#45;&gt;DetectorData[SampleRun] -->
<g id="edge11" class="edge">
<title>SampleSize[SampleRun]:e&#45;&gt;DetectorData[SampleRun]:w</title>
<path fill="none" stroke="black" d="M888,-129.43C938.87,-129.43 941.4,-179.99 985.85,-186.7"/>
<polygon fill="black" stroke="black" points="985.77,-190.21 996,-187.43 986.28,-183.22 985.77,-190.21"/>
</g>
<!-- Filename[SampleRun] -->
<g id="node17" class="node">
<title>Filename[SampleRun]</title>
<polygon fill="none" stroke="red" stroke-dasharray="5,2" points="186,-174.93 11,-174.93 11,-151.93 186,-151.93 186,-174.93"/>
<text text-anchor="middle" x="98.5" y="-159.73" font-family="Times,serif" font-size="14.00" fill="red">Filename[SampleRun]</text>
</g>
<!-- Filename[SampleRun]&#45;&gt;RawChopper[SampleRun] -->
<g id="edge21" class="edge">
<title>Filename[SampleRun]:e&#45;&gt;RawChopper[SampleRun]:w</title>
<path fill="none" stroke="black" d="M187.5,-163.43C247.79,-163.43 265.34,-163.43 320.95,-163.43"/>
<polygon fill="black" stroke="black" points="321,-166.93 331,-163.43 321,-159.93 321,-166.93"/>
</g>
<!-- Filename[SampleRun]&#45;&gt;NeXusComponent[NXdetector, SampleRun] -->
<g id="edge14" class="edge">
<title>Filename[SampleRun]:e&#45;&gt;NeXusComponent[NXdetector, SampleRun]:w</title>
<path fill="none" stroke="black" d="M187.5,-163.43C235.36,-163.43 220.15,-234.57 258.64,-245.13"/>
<polygon fill="black" stroke="black" points="258.64,-248.66 269,-246.43 259.52,-241.71 258.64,-248.66"/>
</g>
<!-- Filename[SampleRun]&#45;&gt;DetectorRotation[SampleRun] -->
<g id="edge13" class="edge">
<title>Filename[SampleRun]:e&#45;&gt;DetectorRotation[SampleRun]:w</title>
<path fill="none" stroke="black" d="M187.5,-163.43C250.87,-163.43 213.68,-77.35 269,-46.43 423.39,39.83 491.11,-21.02 663.82,-23.37"/>
<polygon fill="black" stroke="black" points="663.98,-26.87 674,-23.43 664.02,-19.87 663.98,-26.87"/>
</g>
<!-- ProtonCurrent[SampleRun] -->
<g id="node21" class="node">
<title>ProtonCurrent[SampleRun]</title>
<polygon fill="none" stroke="black" points="538.5,-222.93 325.5,-222.93 325.5,-189.93 538.5,-189.93 538.5,-222.93"/>
<text text-anchor="start" x="333.5" y="-208.73" font-family="Times,serif" font-size="14.00">ProtonCurrent[SampleRun]</text>
<text text-anchor="start" x="347.5" y="-197.13" font-family="Times,serif" font-size="11.00">via:</text>
<text text-anchor="start" x="368.5" y="-197.13" font-family="Times,serif" font-style="italic" font-size="11.00">load_amor_proton_current</text>
</g>
<!-- Filename[SampleRun]&#45;&gt;ProtonCurrent[SampleRun] -->
<g id="edge16" class="edge">
<title>Filename[SampleRun]:e&#45;&gt;ProtonCurrent[SampleRun]:w</title>
<path fill="none" stroke="black" d="M187.5,-163.43C248.03,-163.43 259.77,-201.86 314.97,-206.06"/>
<polygon fill="black" stroke="black" points="314.88,-209.56 325,-206.43 315.14,-202.57 314.88,-209.56"/>
</g>
<!-- RawSampleRotation[SampleRun] -->
<g id="node24" class="node">
<title>RawSampleRotation[SampleRun]</title>
<polygon fill="none" stroke="black" points="559,-131.93 305,-131.93 305,-98.93 559,-98.93 559,-131.93"/>
<text text-anchor="start" x="313" y="-117.73" font-family="Times,serif" font-size="14.00">RawSampleRotation[SampleRun]</text>
<text text-anchor="start" x="344" y="-106.13" font-family="Times,serif" font-size="11.00">via:</text>
<text text-anchor="start" x="365" y="-106.13" font-family="Times,serif" font-style="italic" font-size="11.00">load_amor_sample_rotation</text>
</g>
<!-- Filename[SampleRun]&#45;&gt;RawSampleRotation[SampleRun] -->
<g id="edge22" class="edge">
<title>Filename[SampleRun]:e&#45;&gt;RawSampleRotation[SampleRun]:w</title>
<path fill="none" stroke="black" d="M187.5,-163.43C239.89,-163.43 247.21,-121.42 293.79,-116.01"/>
<polygon fill="black" stroke="black" points="294.21,-119.49 304,-115.43 293.82,-112.5 294.21,-119.49"/>
</g>
<!-- DetectorSpatialResolution[SampleRun] -->
<g id="node18" class="node">
<title>DetectorSpatialResolution[SampleRun]</title>
<polygon fill="none" stroke="black" points="1580,-112.93 1283,-112.93 1283,-89.93 1580,-89.93 1580,-112.93"/>
<text text-anchor="middle" x="1431.5" y="-97.73" font-family="Times,serif" font-size="14.00">DetectorSpatialResolution[SampleRun]</text>
</g>
<!-- DetectorSpatialResolution[SampleRun]&#45;&gt;Reference -->
<g id="edge32" class="edge">
<title>DetectorSpatialResolution[SampleRun]:e&#45;&gt;Reference:w</title>
<path fill="none" stroke="black" d="M1580,-101.43C1624.89,-101.43 1633.38,-132.29 1672.87,-136.87"/>
<polygon fill="black" stroke="black" points="1672.82,-140.37 1683,-137.43 1673.21,-133.38 1672.82,-140.37"/>
</g>
<!-- MValue -->
<g id="node19" class="node">
<title>MValue</title>
<polygon fill="none" stroke="black" points="1466.5,-214.93 1396.5,-214.93 1396.5,-191.93 1466.5,-191.93 1466.5,-214.93"/>
<text text-anchor="middle" x="1431.5" y="-199.73" font-family="Times,serif" font-size="14.00">MValue</text>
</g>
<!-- MValue&#45;&gt;Sample -->
<g id="edge40" class="edge">
<title>MValue:e&#45;&gt;Sample:w</title>
<path fill="none" stroke="black" d="M1467.5,-203.43C1546.09,-203.43 1568.02,-194.28 1641.75,-193.49"/>
<polygon fill="black" stroke="black" points="1642.02,-196.99 1652,-193.43 1641.98,-189.99 1642.02,-196.99"/>
</g>
<!-- NeXusName[NXdetector] -->
<g id="node20" class="node">
<title>NeXusName[NXdetector]</title>
<polygon fill="none" stroke="black" points="197,-257.93 0,-257.93 0,-234.93 197,-234.93 197,-257.93"/>
<text text-anchor="middle" x="98.5" y="-242.73" font-family="Times,serif" font-size="14.00">NeXusName[NXdetector]</text>
</g>
<!-- NeXusName[NXdetector]&#45;&gt;NeXusComponent[NXdetector, SampleRun] -->
<g id="edge15" class="edge">
<title>NeXusName[NXdetector]:e&#45;&gt;NeXusComponent[NXdetector, SampleRun]:w</title>
<path fill="none" stroke="black" d="M197,-246.43C225.38,-246.43 234.88,-246.43 258.98,-246.43"/>
<polygon fill="black" stroke="black" points="259,-249.93 269,-246.43 259,-242.93 259,-249.93"/>
</g>
<!-- ProtonCurrent[SampleRun]&#45;&gt;ReducibleData[SampleRun] -->
<g id="edge28" class="edge">
<title>ProtonCurrent[SampleRun]:e&#45;&gt;ReducibleData[SampleRun]:w</title>
<path fill="none" stroke="black" d="M539,-206.43C597.05,-206.43 609.24,-226.63 667,-232.43 787.42,-244.54 1095.22,-241.69 1211,-206.43 1248.05,-195.15 1251.73,-166.06 1284.45,-161.15"/>
<polygon fill="black" stroke="black" points="1284.77,-164.63 1294.5,-160.43 1284.28,-157.65 1284.77,-164.63"/>
</g>
<!-- ReflectivityOverQ -->
<g id="node31" class="node">
<title>ReflectivityOverQ</title>
<polygon fill="none" stroke="black" points="2202,-153.93 2038,-153.93 2038,-120.93 2202,-120.93 2202,-153.93"/>
<text text-anchor="start" x="2056.5" y="-139.73" font-family="Times,serif" font-size="14.00">ReflectivityOverQ</text>
<text text-anchor="start" x="2046" y="-128.13" font-family="Times,serif" font-size="11.00">via:</text>
<text text-anchor="start" x="2067" y="-128.13" font-family="Times,serif" font-style="italic" font-size="11.00">reduce_sample_over_q</text>
</g>
<!-- QBins&#45;&gt;ReflectivityOverQ -->
<g id="edge36" class="edge">
<title>QBins:e&#45;&gt;ReflectivityOverQ:w</title>
<path fill="none" stroke="black" d="M1466.5,-69.43C1689.57,-69.43 1746.45,-78.96 1966,-118.43 1994.88,-123.63 2003.13,-134.55 2027.71,-136.96"/>
<polygon fill="black" stroke="black" points="2027.85,-140.47 2038,-137.43 2028.17,-133.48 2027.85,-140.47"/>
</g>
<!-- WavelengthBins -->
<g id="node23" class="node">
<title>WavelengthBins</title>
<polygon fill="none" stroke="black" points="1165,-85.93 1033,-85.93 1033,-62.93 1165,-62.93 1165,-85.93"/>
<text text-anchor="middle" x="1099" y="-70.73" font-family="Times,serif" font-size="14.00">WavelengthBins</text>
</g>
<!-- WavelengthBins&#45;&gt;QBins -->
<g id="edge19" class="edge">
<title>WavelengthBins:e&#45;&gt;QBins:w</title>
<path fill="none" stroke="black" d="M1166,-74.43C1264.97,-74.43 1292.19,-69.77 1386.26,-69.45"/>
<polygon fill="black" stroke="black" points="1386.51,-72.95 1396.5,-69.43 1386.49,-65.95 1386.51,-72.95"/>
</g>
<!-- WavelengthBins&#45;&gt;ReducibleData[SampleRun] -->
<g id="edge27" class="edge">
<title>WavelengthBins:e&#45;&gt;ReducibleData[SampleRun]:w</title>
<path fill="none" stroke="black" d="M1166,-74.43C1187.08,-74.43 1192.63,-79.08 1211,-89.43 1250.12,-111.48 1246.68,-153.22 1284.06,-159.61"/>
<polygon fill="black" stroke="black" points="1284.25,-163.13 1294.5,-160.43 1284.81,-156.15 1284.25,-163.13"/>
</g>
<!-- RawSampleRotation[SampleRun]&#45;&gt;SampleRotation[SampleRun] -->
<g id="edge42" class="edge">
<title>RawSampleRotation[SampleRun]:e&#45;&gt;SampleRotation[SampleRun]:w</title>
<path fill="none" stroke="black" d="M560,-115.43C614.74,-115.43 620.23,-66.89 669.01,-61.02"/>
<polygon fill="black" stroke="black" points="669.22,-64.51 679,-60.43 668.81,-57.52 669.22,-64.51"/>
</g>
<!-- ReducedReference -->
<g id="node25" class="node">
<title>ReducedReference</title>
<polygon fill="none" stroke="black" points="1506.5,-139.93 1356.5,-139.93 1356.5,-116.93 1506.5,-116.93 1506.5,-139.93"/>
<text text-anchor="middle" x="1431.5" y="-124.73" font-family="Times,serif" font-size="14.00">ReducedReference</text>
</g>
<!-- ReducedReference&#45;&gt;Reference -->
<g id="edge30" class="edge">
<title>ReducedReference:e&#45;&gt;Reference:w</title>
<path fill="none" stroke="black" d="M1507.5,-128.43C1582.09,-128.43 1603.05,-136.64 1672.82,-137.38"/>
<polygon fill="black" stroke="black" points="1672.98,-140.88 1683,-137.43 1673.02,-133.88 1672.98,-140.88"/>
</g>
<!-- ReducedReference&#45;&gt;Sample -->
<g id="edge38" class="edge">
<title>ReducedReference:e&#45;&gt;Sample:w</title>
<path fill="none" stroke="black" d="M1507.5,-128.43C1540.4,-128.43 1549.76,-130.45 1580,-143.43 1612.3,-157.3 1613.21,-186.85 1641.7,-192.49"/>
<polygon fill="black" stroke="black" points="1641.72,-196.01 1652,-193.43 1642.36,-189.04 1641.72,-196.01"/>
</g>
<!-- ReducibleData[SampleRun]&#45;&gt;Reference -->
<g id="edge31" class="edge">
<title>ReducibleData[SampleRun]:e&#45;&gt;Reference:w</title>
<path fill="none" stroke="black" d="M1568.5,-160.43C1616.86,-160.43 1629.44,-140.47 1672.91,-137.74"/>
<polygon fill="black" stroke="black" points="1673.11,-141.24 1683,-137.43 1672.9,-134.24 1673.11,-141.24"/>
</g>
<!-- ReducibleData[SampleRun]&#45;&gt;Sample -->
<g id="edge37" class="edge">
<title>ReducibleData[SampleRun]:e&#45;&gt;Sample:w</title>
<path fill="none" stroke="black" d="M1568.5,-160.43C1604.66,-160.43 1611.09,-187.54 1641.67,-192.62"/>
<polygon fill="black" stroke="black" points="1641.76,-196.14 1652,-193.43 1642.31,-189.16 1641.76,-196.14"/>
</g>
<!-- YIndexLimits -->
<g id="node27" class="node">
<title>YIndexLimits</title>
<polygon fill="none" stroke="black" points="1154,-166.93 1044,-166.93 1044,-143.93 1154,-143.93 1154,-166.93"/>
<text text-anchor="middle" x="1099" y="-151.73" font-family="Times,serif" font-size="14.00">YIndexLimits</text>
</g>
<!-- YIndexLimits&#45;&gt;ReducibleData[SampleRun] -->
<g id="edge24" class="edge">
<title>YIndexLimits:e&#45;&gt;ReducibleData[SampleRun]:w</title>
<path fill="none" stroke="black" d="M1155,-155.43C1213.53,-155.43 1230.56,-159.88 1284.39,-160.39"/>
<polygon fill="black" stroke="black" points="1284.48,-163.89 1294.5,-160.43 1284.52,-156.89 1284.48,-163.89"/>
</g>
<!-- ZIndexLimits -->
<g id="node28" class="node">
<title>ZIndexLimits</title>
<polygon fill="none" stroke="black" points="1154.5,-139.93 1043.5,-139.93 1043.5,-116.93 1154.5,-116.93 1154.5,-139.93"/>
<text text-anchor="middle" x="1099" y="-124.73" font-family="Times,serif" font-size="14.00">ZIndexLimits</text>
</g>
<!-- ZIndexLimits&#45;&gt;ReducibleData[SampleRun] -->
<g id="edge25" class="edge">
<title>ZIndexLimits:e&#45;&gt;ReducibleData[SampleRun]:w</title>
<path fill="none" stroke="black" d="M1155,-128.43C1215.01,-128.43 1229.33,-156.91 1284.17,-160.14"/>
<polygon fill="black" stroke="black" points="1284.4,-163.65 1294.5,-160.43 1284.6,-156.65 1284.4,-163.65"/>
</g>
<!-- Reference&#45;&gt;ReflectivityOverQ -->
<g id="edge35" class="edge">
<title>Reference:e&#45;&gt;ReflectivityOverQ:w</title>
<path fill="none" stroke="black" d="M1935,-137.43C1977.2,-137.43 1990.22,-137.43 2027.87,-137.43"/>
<polygon fill="black" stroke="black" points="2028,-140.93 2038,-137.43 2028,-133.93 2028,-140.93"/>
</g>
<!-- Sample&#45;&gt;ReflectivityOverQ -->
<g id="edge34" class="edge">
<title>Sample:e&#45;&gt;ReflectivityOverQ:w</title>
<path fill="none" stroke="black" d="M1966,-193.43C2002.74,-193.43 1998.73,-147.44 2027.82,-138.82"/>
<polygon fill="black" stroke="black" points="2028.56,-142.25 2038,-137.43 2027.62,-135.31 2028.56,-142.25"/>
</g>
<!-- SampleRotationOffset[SampleRun] -->
<g id="node32" class="node">
<title>SampleRotationOffset[SampleRun]</title>
<polygon fill="none" stroke="black" points="565,-71.93 299,-71.93 299,-48.93 565,-48.93 565,-71.93"/>
<text text-anchor="middle" x="432" y="-56.73" font-family="Times,serif" font-size="14.00">SampleRotationOffset[SampleRun]</text>
</g>
<!-- SampleRotationOffset[SampleRun]&#45;&gt;SampleRotation[SampleRun] -->
<g id="edge43" class="edge">
<title>SampleRotationOffset[SampleRun]:e&#45;&gt;SampleRotation[SampleRun]:w</title>
<path fill="none" stroke="black" d="M566,-60.43C612.69,-60.43 626.83,-60.43 668.94,-60.43"/>
<polygon fill="black" stroke="black" points="669,-63.93 679,-60.43 669,-56.93 669,-63.93"/>
</g>
</g>
</svg>
