<?xml version="1.0" encoding="UTF-8" standalone="no"?>
<!DOCTYPE svg PUBLIC "-//W3C//DTD SVG 1.1//EN"
 "http://www.w3.org/Graphics/SVG/1.1/DTD/svg11.dtd">
<!-- Generated by graphviz version 2.43.0 (0)
 -->
<!-- Title: %3 Pages: 1 -->
<svg width="2330pt" height="278pt"
 viewBox="0.00 0.00 2330.00 278.00" xmlns="http://www.w3.org/2000/svg" xmlns:xlink="http://www.w3.org/1999/xlink">
<g id="graph0" class="graph" transform="scale(1 1) rotate(0) translate(4 274)">
<title>%3</title>
<polygon fill="white" stroke="transparent" points="-4,4 -4,-274 2326,-274 2326,4 -4,4"/>
<!-- Alpha -->
<g id="node1" class="node">
<title>Alpha</title>
<polygon fill="none" stroke="black" points="1580,-206 1523,-206 1523,-183 1580,-183 1580,-206"/>
<text text-anchor="middle" x="1551.5" y="-190.8" font-family="Times,serif" font-size="14.00">Alpha</text>
</g>
<!-- Sample -->
<g id="node30" class="node">
<title>Sample</title>
<polygon fill="none" stroke="black" points="2086,-170 1772,-170 1772,-137 2086,-137 2086,-170"/>
<text text-anchor="start" x="1902" y="-155.8" font-family="Times,serif" font-size="14.00">Sample</text>
<text text-anchor="start" x="1780" y="-144.2" font-family="Times,serif" font-size="11.00">via:</text>
<text text-anchor="start" x="1801" y="-144.2" font-family="Times,serif" font-style="italic" font-size="11.00">mask_events_where_supermirror_does_not_cover</text>
</g>
<!-- Alpha&#45;&gt;Sample -->
<g id="edge39" class="edge">
<title>Alpha:e&#45;&gt;Sample:w</title>
<path fill="none" stroke="black" d="M1581.5,-194.5C1634.59,-194.5 1648.39,-191.92 1700,-179.5 1729.46,-172.41 1736.57,-157.33 1761.81,-154.11"/>
<polygon fill="black" stroke="black" points="1762.23,-157.59 1772,-153.5 1761.81,-150.6 1762.23,-157.59"/>
</g>
<!-- Filename[SampleRun] -->
<g id="node2" class="node">
<title>Filename[SampleRun]</title>
<polygon fill="none" stroke="red" stroke-dasharray="5,2" points="217.5,-121 42.5,-121 42.5,-98 217.5,-98 217.5,-121"/>
<text text-anchor="middle" x="130" y="-105.8" font-family="Times,serif" font-size="14.00" fill="red">Filename[SampleRun]</text>
</g>
<!-- AngleCenterOfIncomingToHorizon[SampleRun] -->
<g id="node3" class="node">
<title>AngleCenterOfIncomingToHorizon[SampleRun]</title>
<polygon fill="none" stroke="black" points="703,-70 332,-70 332,-37 703,-37 703,-70"/>
<text text-anchor="start" x="349" y="-55.8" font-family="Times,serif" font-size="14.00">AngleCenterOfIncomingToHorizon[SampleRun]</text>
<text text-anchor="start" x="340" y="-44.2" font-family="Times,serif" font-size="11.00">via:</text>
<text text-anchor="start" x="361" y="-44.2" font-family="Times,serif" font-style="italic" font-size="11.00">load_amor_angle_from_horizon_to_center_of_incident_beam</text>
</g>
<!-- Filename[SampleRun]&#45;&gt;AngleCenterOfIncomingToHorizon[SampleRun] -->
<g id="edge1" class="edge">
<title>Filename[SampleRun]:e&#45;&gt;AngleCenterOfIncomingToHorizon[SampleRun]:w</title>
<path fill="none" stroke="black" d="M219,-109.5C271.44,-109.5 275.6,-60.49 321.82,-54.17"/>
<polygon fill="black" stroke="black" points="322.25,-57.65 332,-53.5 321.79,-50.66 322.25,-57.65"/>
</g>
<!-- RawChopper[SampleRun] -->
<g id="node6" class="node">
<title>RawChopper[SampleRun]</title>
<polygon fill="none" stroke="black" points="617.5,-181 417.5,-181 417.5,-148 617.5,-148 617.5,-181"/>
<text text-anchor="start" x="425.5" y="-166.8" font-family="Times,serif" font-size="14.00">RawChopper[SampleRun]</text>
<text text-anchor="start" x="467" y="-155.2" font-family="Times,serif" font-size="11.00">via:</text>
<text text-anchor="start" x="488" y="-155.2" font-family="Times,serif" font-style="italic" font-size="11.00">amor_chopper</text>
</g>
<!-- Filename[SampleRun]&#45;&gt;RawChopper[SampleRun] -->
<g id="edge9" class="edge">
<title>Filename[SampleRun]:e&#45;&gt;RawChopper[SampleRun]:w</title>
<path fill="none" stroke="black" d="M219,-109.5C306.65,-109.5 324.11,-160.39 406.41,-164.27"/>
<polygon fill="black" stroke="black" points="406.42,-167.77 416.5,-164.5 406.58,-160.77 406.42,-167.77"/>
</g>
<!-- DetectorRotation[SampleRun] -->
<g id="node14" class="node">
<title>DetectorRotation[SampleRun]</title>
<polygon fill="none" stroke="black" points="633.5,-144 401.5,-144 401.5,-111 633.5,-111 633.5,-144"/>
<text text-anchor="start" x="409.5" y="-129.8" font-family="Times,serif" font-size="14.00">DetectorRotation[SampleRun]</text>
<text text-anchor="start" x="426" y="-118.2" font-family="Times,serif" font-size="11.00">via:</text>
<text text-anchor="start" x="447" y="-118.2" font-family="Times,serif" font-style="italic" font-size="11.00">load_amor_detector_rotation</text>
</g>
<!-- Filename[SampleRun]&#45;&gt;DetectorRotation[SampleRun] -->
<g id="edge5" class="edge">
<title>Filename[SampleRun]:e&#45;&gt;DetectorRotation[SampleRun]:w</title>
<path fill="none" stroke="black" d="M219,-109.5C296.58,-109.5 317.66,-125.99 390.38,-127.4"/>
<polygon fill="black" stroke="black" points="390.47,-130.9 400.5,-127.5 390.53,-123.9 390.47,-130.9"/>
</g>
<!-- LoadedNeXusDetector[SampleRun] -->
<g id="node16" class="node">
<title>LoadedNeXusDetector[SampleRun]</title>
<polygon fill="none" stroke="black" points="652,-237 383,-237 383,-204 652,-204 652,-237"/>
<text text-anchor="start" x="391" y="-222.8" font-family="Times,serif" font-size="14.00">LoadedNeXusDetector[SampleRun]</text>
<text text-anchor="start" x="468.5" y="-211.2" font-family="Times,serif" font-size="11.00">via:</text>
<text text-anchor="start" x="489.5" y="-211.2" font-family="Times,serif" font-style="italic" font-size="11.00">load_detector</text>
</g>
<!-- Filename[SampleRun]&#45;&gt;LoadedNeXusDetector[SampleRun] -->
<g id="edge6" class="edge">
<title>Filename[SampleRun]:e&#45;&gt;LoadedNeXusDetector[SampleRun]:w</title>
<path fill="none" stroke="black" d="M219,-109.5C302.88,-109.5 294.89,-211.58 371.23,-219.96"/>
<polygon fill="black" stroke="black" points="371.33,-223.47 381.5,-220.5 371.7,-216.48 371.33,-223.47"/>
</g>
<!-- ProtonCurrent[SampleRun] -->
<g id="node19" class="node">
<title>ProtonCurrent[SampleRun]</title>
<polygon fill="none" stroke="black" points="624,-33 411,-33 411,0 624,0 624,-33"/>
<text text-anchor="start" x="419" y="-18.8" font-family="Times,serif" font-size="14.00">ProtonCurrent[SampleRun]</text>
<text text-anchor="start" x="433" y="-7.2" font-family="Times,serif" font-size="11.00">via:</text>
<text text-anchor="start" x="454" y="-7.2" font-family="Times,serif" font-style="italic" font-size="11.00">load_amor_proton_current</text>
</g>
<!-- Filename[SampleRun]&#45;&gt;ProtonCurrent[SampleRun] -->
<g id="edge8" class="edge">
<title>Filename[SampleRun]:e&#45;&gt;ProtonCurrent[SampleRun]:w</title>
<path fill="none" stroke="black" d="M219,-109.5C278.79,-109.5 277.2,-60.42 332,-36.5 361.65,-23.56 372.32,-17.73 400.3,-16.68"/>
<polygon fill="black" stroke="black" points="400.56,-20.17 410.5,-16.5 400.44,-13.17 400.56,-20.17"/>
</g>
<!-- SampleRotation[SampleRun] -->
<g id="node22" class="node">
<title>SampleRotation[SampleRun]</title>
<polygon fill="none" stroke="black" points="629,-107 406,-107 406,-74 629,-74 629,-107"/>
<text text-anchor="start" x="414" y="-92.8" font-family="Times,serif" font-size="14.00">SampleRotation[SampleRun]</text>
<text text-anchor="start" x="429.5" y="-81.2" font-family="Times,serif" font-size="11.00">via:</text>
<text text-anchor="start" x="450.5" y="-81.2" font-family="Times,serif" font-style="italic" font-size="11.00">load_amor_sample_rotation</text>
</g>
<!-- Filename[SampleRun]&#45;&gt;SampleRotation[SampleRun] -->
<g id="edge40" class="edge">
<title>Filename[SampleRun]:e&#45;&gt;SampleRotation[SampleRun]:w</title>
<path fill="none" stroke="black" d="M219,-109.5C298.74,-109.5 320.36,-92.1 395.1,-90.6"/>
<polygon fill="black" stroke="black" points="395.53,-94.1 405.5,-90.5 395.47,-87.1 395.53,-94.1"/>
</g>
<!-- RawDetectorData[SampleRun] -->
<g id="node21" class="node">
<title>RawDetectorData[SampleRun]</title>
<polygon fill="none" stroke="black" points="1331,-109 1095,-109 1095,-76 1331,-76 1331,-109"/>
<text text-anchor="start" x="1103" y="-94.8" font-family="Times,serif" font-size="14.00">RawDetectorData[SampleRun]</text>
<text text-anchor="start" x="1169" y="-83.2" font-family="Times,serif" font-size="11.00">via:</text>
<text text-anchor="start" x="1190" y="-83.2" font-family="Times,serif" font-style="italic" font-size="11.00">load_events</text>
</g>
<!-- AngleCenterOfIncomingToHorizon[SampleRun]&#45;&gt;RawDetectorData[SampleRun] -->
<g id="edge19" class="edge">
<title>AngleCenterOfIncomingToHorizon[SampleRun]:e&#45;&gt;RawDetectorData[SampleRun]:w</title>
<path fill="none" stroke="black" d="M703,-53.5C774.13,-53.5 953.59,-44.97 1023,-60.5 1053.57,-67.34 1059.04,-87.55 1084.92,-91.74"/>
<polygon fill="black" stroke="black" points="1084.76,-95.23 1095,-92.5 1085.29,-88.25 1084.76,-95.23"/>
</g>
<!-- BeamDivergenceLimits -->
<g id="node4" class="node">
<title>BeamDivergenceLimits</title>
<polygon fill="none" stroke="black" points="1304.5,-136 1121.5,-136 1121.5,-113 1304.5,-113 1304.5,-136"/>
<text text-anchor="middle" x="1213" y="-120.8" font-family="Times,serif" font-size="14.00">BeamDivergenceLimits</text>
</g>
<!-- ReducibleData[SampleRun] -->
<g id="node25" class="node">
<title>ReducibleData[SampleRun]</title>
<polygon fill="none" stroke="black" points="1687.5,-125 1415.5,-125 1415.5,-92 1687.5,-92 1687.5,-125"/>
<text text-anchor="start" x="1453" y="-110.8" font-family="Times,serif" font-size="14.00">ReducibleData[SampleRun]</text>
<text text-anchor="start" x="1423.5" y="-99.2" font-family="Times,serif" font-size="11.00">via:</text>
<text text-anchor="start" x="1444.5" y="-99.2" font-family="Times,serif" font-style="italic" font-size="11.00">add_coords_masks_and_apply_corrections</text>
</g>
<!-- BeamDivergenceLimits&#45;&gt;ReducibleData[SampleRun] -->
<g id="edge23" class="edge">
<title>BeamDivergenceLimits:e&#45;&gt;ReducibleData[SampleRun]:w</title>
<path fill="none" stroke="black" d="M1306,-124.5C1351.22,-124.5 1363.97,-110.73 1404.5,-108.74"/>
<polygon fill="black" stroke="black" points="1404.59,-112.24 1414.5,-108.5 1404.42,-105.24 1404.59,-112.24"/>
</g>
<!-- BeamSize[SampleRun] -->
<g id="node5" class="node">
<title>BeamSize[SampleRun]</title>
<polygon fill="none" stroke="black" points="988.5,-195 809.5,-195 809.5,-172 988.5,-172 988.5,-195"/>
<text text-anchor="middle" x="899" y="-179.8" font-family="Times,serif" font-size="14.00">BeamSize[SampleRun]</text>
</g>
<!-- BeamSize[SampleRun]&#45;&gt;RawDetectorData[SampleRun] -->
<g id="edge18" class="edge">
<title>BeamSize[SampleRun]:e&#45;&gt;RawDetectorData[SampleRun]:w</title>
<path fill="none" stroke="black" d="M990,-183.5C1048.14,-183.5 1035.14,-102.85 1084.94,-93.4"/>
<polygon fill="black" stroke="black" points="1085.35,-96.88 1095,-92.5 1084.73,-89.91 1085.35,-96.88"/>
</g>
<!-- ChopperDistance[SampleRun] -->
<g id="node7" class="node">
<title>ChopperDistance[SampleRun]</title>
<polygon fill="none" stroke="black" points="1015,-232 783,-232 783,-199 1015,-199 1015,-232"/>
<text text-anchor="start" x="791" y="-217.8" font-family="Times,serif" font-size="14.00">ChopperDistance[SampleRun]</text>
<text text-anchor="start" x="807.5" y="-206.2" font-family="Times,serif" font-size="11.00">via:</text>
<text text-anchor="start" x="828.5" y="-206.2" font-family="Times,serif" font-style="italic" font-size="11.00">load_amor_chopper_distance</text>
</g>
<!-- RawChopper[SampleRun]&#45;&gt;ChopperDistance[SampleRun] -->
<g id="edge2" class="edge">
<title>RawChopper[SampleRun]:e&#45;&gt;ChopperDistance[SampleRun]:w</title>
<path fill="none" stroke="black" d="M618.5,-164.5C691.05,-164.5 704.68,-210.83 771.71,-215.17"/>
<polygon fill="black" stroke="black" points="771.89,-218.68 782,-215.5 772.12,-211.69 771.89,-218.68"/>
</g>
<!-- ChopperSeparation[SampleRun] -->
<g id="node10" class="node">
<title>ChopperSeparation[SampleRun]</title>
<polygon fill="none" stroke="black" points="1023,-168 775,-168 775,-135 1023,-135 1023,-168"/>
<text text-anchor="start" x="783" y="-153.8" font-family="Times,serif" font-size="14.00">ChopperSeparation[SampleRun]</text>
<text text-anchor="start" x="801" y="-142.2" font-family="Times,serif" font-size="11.00">via:</text>
<text text-anchor="start" x="822" y="-142.2" font-family="Times,serif" font-style="italic" font-size="11.00">load_amor_chopper_separation</text>
</g>
<!-- RawChopper[SampleRun]&#45;&gt;ChopperSeparation[SampleRun] -->
<g id="edge3" class="edge">
<title>RawChopper[SampleRun]:e&#45;&gt;ChopperSeparation[SampleRun]:w</title>
<path fill="none" stroke="black" d="M618.5,-164.5C684.75,-164.5 703.35,-152.79 764.76,-151.6"/>
<polygon fill="black" stroke="black" points="765.03,-155.09 775,-151.5 764.97,-148.1 765.03,-155.09"/>
</g>
<!-- ChopperDistance[SampleRun]&#45;&gt;RawDetectorData[SampleRun] -->
<g id="edge15" class="edge">
<title>ChopperDistance[SampleRun]:e&#45;&gt;RawDetectorData[SampleRun]:w</title>
<path fill="none" stroke="black" d="M1016,-215.5C1077.29,-215.5 1035.43,-106.04 1085.03,-93.64"/>
<polygon fill="black" stroke="black" points="1085.46,-97.11 1095,-92.5 1084.67,-90.16 1085.46,-97.11"/>
</g>
<!-- ChopperFrequency[SampleRun] -->
<g id="node8" class="node">
<title>ChopperFrequency[SampleRun]</title>
<polygon fill="none" stroke="black" points="1021.5,-131 776.5,-131 776.5,-108 1021.5,-108 1021.5,-131"/>
<text text-anchor="middle" x="899" y="-115.8" font-family="Times,serif" font-size="14.00">ChopperFrequency[SampleRun]</text>
</g>
<!-- ChopperFrequency[SampleRun]&#45;&gt;RawDetectorData[SampleRun] -->
<g id="edge14" class="edge">
<title>ChopperFrequency[SampleRun]:e&#45;&gt;RawDetectorData[SampleRun]:w</title>
<path fill="none" stroke="black" d="M1023,-119.5C1053.44,-119.5 1059.66,-98.08 1084.8,-93.4"/>
<polygon fill="black" stroke="black" points="1085.35,-96.86 1095,-92.5 1084.73,-89.89 1085.35,-96.86"/>
</g>
<!-- ChopperPhase[SampleRun] -->
<g id="node9" class="node">
<title>ChopperPhase[SampleRun]</title>
<polygon fill="none" stroke="black" points="1005,-104 793,-104 793,-81 1005,-81 1005,-104"/>
<text text-anchor="middle" x="899" y="-88.8" font-family="Times,serif" font-size="14.00">ChopperPhase[SampleRun]</text>
</g>
<!-- ChopperPhase[SampleRun]&#45;&gt;RawDetectorData[SampleRun] -->
<g id="edge13" class="edge">
<title>ChopperPhase[SampleRun]:e&#45;&gt;RawDetectorData[SampleRun]:w</title>
<path fill="none" stroke="black" d="M1006,-92.5C1041.85,-92.5 1053.33,-92.5 1084.61,-92.5"/>
<polygon fill="black" stroke="black" points="1085,-96 1095,-92.5 1085,-89 1085,-96"/>
</g>
<!-- ChopperSeparation[SampleRun]&#45;&gt;RawDetectorData[SampleRun] -->
<g id="edge16" class="edge">
<title>ChopperSeparation[SampleRun]:e&#45;&gt;RawDetectorData[SampleRun]:w</title>
<path fill="none" stroke="black" d="M1023,-151.5C1060.65,-151.5 1055.14,-102.63 1085.04,-93.84"/>
<polygon fill="black" stroke="black" points="1085.56,-97.3 1095,-92.5 1084.62,-90.37 1085.56,-97.3"/>
</g>
<!-- GravityToggle -->
<g id="node11" class="node">
<title>GravityToggle</title>
<polygon fill="none" stroke="black" points="957.5,-31 840.5,-31 840.5,-8 957.5,-8 957.5,-31"/>
<text text-anchor="middle" x="899" y="-15.8" font-family="Times,serif" font-size="14.00">GravityToggle</text>
</g>
<!-- CoordTransformationGraph -->
<g id="node12" class="node">
<title>CoordTransformationGraph</title>
<polygon fill="none" stroke="black" points="1325,-36 1101,-36 1101,-3 1325,-3 1325,-36"/>
<text text-anchor="start" x="1114" y="-21.8" font-family="Times,serif" font-size="14.00">CoordTransformationGraph</text>
<text text-anchor="start" x="1109" y="-10.2" font-family="Times,serif" font-size="11.00">via:</text>
<text text-anchor="start" x="1130" y="-10.2" font-family="Times,serif" font-style="italic" font-size="11.00">coordinate_transformation_graph</text>
</g>
<!-- GravityToggle&#45;&gt;CoordTransformationGraph -->
<g id="edge4" class="edge">
<title>GravityToggle:e&#45;&gt;CoordTransformationGraph:w</title>
<path fill="none" stroke="black" d="M959,-19.5C1018.12,-19.5 1035.41,-19.5 1089.79,-19.5"/>
<polygon fill="black" stroke="black" points="1090,-23 1100,-19.5 1090,-16 1090,-23"/>
</g>
<!-- CoordTransformationGraph&#45;&gt;ReducibleData[SampleRun] -->
<g id="edge26" class="edge">
<title>CoordTransformationGraph:e&#45;&gt;ReducibleData[SampleRun]:w</title>
<path fill="none" stroke="black" d="M1326,-19.5C1378.08,-19.5 1361.43,-97.07 1404.38,-107.37"/>
<polygon fill="black" stroke="black" points="1404.17,-110.87 1414.5,-108.5 1404.95,-103.92 1404.17,-110.87"/>
</g>
<!-- Reference -->
<g id="node29" class="node">
<title>Reference</title>
<polygon fill="none" stroke="black" points="2054,-101 1804,-101 1804,-68 2054,-68 2054,-101"/>
<text text-anchor="start" x="1892.5" y="-86.8" font-family="Times,serif" font-size="14.00">Reference</text>
<text text-anchor="start" x="1812" y="-75.2" font-family="Times,serif" font-size="11.00">via:</text>
<text text-anchor="start" x="1833" y="-75.2" font-family="Times,serif" font-style="italic" font-size="11.00">evaluate_reference_at_sample_coords</text>
</g>
<!-- CoordTransformationGraph&#45;&gt;Reference -->
<g id="edge31" class="edge">
<title>CoordTransformationGraph:e&#45;&gt;Reference:w</title>
<path fill="none" stroke="black" d="M1326,-19.5C1368.84,-19.5 1362.49,-63.55 1403,-77.5 1442.65,-91.15 1723.9,-85.28 1792.96,-84.57"/>
<polygon fill="black" stroke="black" points="1793.02,-88.07 1803,-84.5 1792.98,-81.07 1793.02,-88.07"/>
</g>
<!-- CriticalEdge -->
<g id="node13" class="node">
<title>CriticalEdge</title>
<polygon fill="none" stroke="black" points="1604.5,-179 1498.5,-179 1498.5,-156 1604.5,-156 1604.5,-179"/>
<text text-anchor="middle" x="1551.5" y="-163.8" font-family="Times,serif" font-size="14.00">CriticalEdge</text>
</g>
<!-- CriticalEdge&#45;&gt;Sample -->
<g id="edge37" class="edge">
<title>CriticalEdge:e&#45;&gt;Sample:w</title>
<path fill="none" stroke="black" d="M1605.5,-167.5C1676.28,-167.5 1695.93,-154.78 1761.92,-153.59"/>
<polygon fill="black" stroke="black" points="1762.03,-157.09 1772,-153.5 1761.97,-150.09 1762.03,-157.09"/>
</g>
<!-- DetectorRotation[SampleRun]&#45;&gt;RawDetectorData[SampleRun] -->
<g id="edge11" class="edge">
<title>DetectorRotation[SampleRun]:e&#45;&gt;RawDetectorData[SampleRun]:w</title>
<path fill="none" stroke="black" d="M634.5,-127.5C700.35,-127.5 710.14,-91.85 775,-80.5 883.57,-61.5 913.15,-71.41 1023,-80.5 1051.67,-82.87 1060.6,-90.47 1084.87,-92.16"/>
<polygon fill="black" stroke="black" points="1084.89,-95.67 1095,-92.5 1085.12,-88.67 1084.89,-95.67"/>
</g>
<!-- DetectorSpatialResolution[SampleRun] -->
<g id="node15" class="node">
<title>DetectorSpatialResolution[SampleRun]</title>
<polygon fill="none" stroke="black" points="1700,-77 1403,-77 1403,-54 1700,-54 1700,-77"/>
<text text-anchor="middle" x="1551.5" y="-61.8" font-family="Times,serif" font-size="14.00">DetectorSpatialResolution[SampleRun]</text>
</g>
<!-- DetectorSpatialResolution[SampleRun]&#45;&gt;Reference -->
<g id="edge30" class="edge">
<title>DetectorSpatialResolution[SampleRun]:e&#45;&gt;Reference:w</title>
<path fill="none" stroke="black" d="M1700,-65.5C1742.91,-65.5 1754.68,-81.65 1792.73,-84.17"/>
<polygon fill="black" stroke="black" points="1792.89,-87.68 1803,-84.5 1793.12,-80.68 1792.89,-87.68"/>
</g>
<!-- LoadedNeXusDetector[SampleRun]&#45;&gt;RawDetectorData[SampleRun] -->
<g id="edge10" class="edge">
<title>LoadedNeXusDetector[SampleRun]:e&#45;&gt;RawDetectorData[SampleRun]:w</title>
<path fill="none" stroke="black" d="M653.5,-220.5C707.76,-220.5 720.8,-229.83 775,-232.5 830.04,-235.21 975.96,-261.21 1023,-232.5 1079.58,-197.98 1030.79,-103.24 1084.96,-93.34"/>
<polygon fill="black" stroke="black" points="1085.33,-96.82 1095,-92.5 1084.74,-89.84 1085.33,-96.82"/>
</g>
<!-- NeXusDetectorName[SampleRun] -->
<g id="node17" class="node">
<title>NeXusDetectorName[SampleRun]</title>
<polygon fill="none" stroke="black" points="260,-232 0,-232 0,-209 260,-209 260,-232"/>
<text text-anchor="middle" x="130" y="-216.8" font-family="Times,serif" font-size="14.00">NeXusDetectorName[SampleRun]</text>
</g>
<!-- NeXusDetectorName[SampleRun]&#45;&gt;LoadedNeXusDetector[SampleRun] -->
<g id="edge7" class="edge">
<title>NeXusDetectorName[SampleRun]:e&#45;&gt;LoadedNeXusDetector[SampleRun]:w</title>
<path fill="none" stroke="black" d="M260,-220.5C310.41,-220.5 325.53,-220.5 371.25,-220.5"/>
<polygon fill="black" stroke="black" points="371.5,-224 381.5,-220.5 371.5,-217 371.5,-224"/>
</g>
<!-- MValue -->
<g id="node18" class="node">
<title>MValue</title>
<polygon fill="none" stroke="black" points="1586.5,-233 1516.5,-233 1516.5,-210 1586.5,-210 1586.5,-233"/>
<text text-anchor="middle" x="1551.5" y="-217.8" font-family="Times,serif" font-size="14.00">MValue</text>
</g>
<!-- MValue&#45;&gt;Sample -->
<g id="edge38" class="edge">
<title>MValue:e&#45;&gt;Sample:w</title>
<path fill="none" stroke="black" d="M1587.5,-221.5C1637.94,-221.5 1653.22,-225.38 1700,-206.5 1733.39,-193.02 1732.76,-160.45 1761.92,-154.45"/>
<polygon fill="black" stroke="black" points="1762.37,-157.93 1772,-153.5 1761.71,-150.96 1762.37,-157.93"/>
</g>
<!-- ProtonCurrent[SampleRun]&#45;&gt;ReducibleData[SampleRun] -->
<g id="edge25" class="edge">
<title>ProtonCurrent[SampleRun]:e&#45;&gt;ReducibleData[SampleRun]:w</title>
<path fill="none" stroke="black" d="M624.5,-16.5C691.77,-16.5 708,-26.51 775,-32.5 1021.8,-54.57 1090.07,-15.63 1331,-73.5 1366.61,-82.05 1373.24,-104.03 1404.48,-107.91"/>
<polygon fill="black" stroke="black" points="1404.31,-111.41 1414.5,-108.5 1404.72,-104.42 1404.31,-111.41"/>
</g>
<!-- QBins -->
<g id="node20" class="node">
<title>QBins</title>
<polygon fill="none" stroke="black" points="1581,-50 1522,-50 1522,-27 1581,-27 1581,-50"/>
<text text-anchor="middle" x="1551.5" y="-34.8" font-family="Times,serif" font-size="14.00">QBins</text>
</g>
<!-- QBins&#45;&gt;Reference -->
<g id="edge29" class="edge">
<title>QBins:e&#45;&gt;Reference:w</title>
<path fill="none" stroke="black" d="M1582.5,-38.5C1635.15,-38.5 1648.51,-42.54 1700,-53.5 1743.29,-62.71 1753.73,-81.44 1792.97,-84.17"/>
<polygon fill="black" stroke="black" points="1792.89,-87.66 1803,-84.5 1793.12,-80.67 1792.89,-87.66"/>
</g>
<!-- ReflectivityOverQ -->
<g id="node31" class="node">
<title>ReflectivityOverQ</title>
<polygon fill="none" stroke="black" points="2322,-101 2158,-101 2158,-68 2322,-68 2322,-101"/>
<text text-anchor="start" x="2176.5" y="-86.8" font-family="Times,serif" font-size="14.00">ReflectivityOverQ</text>
<text text-anchor="start" x="2166" y="-75.2" font-family="Times,serif" font-size="11.00">via:</text>
<text text-anchor="start" x="2187" y="-75.2" font-family="Times,serif" font-style="italic" font-size="11.00">reduce_sample_over_q</text>
</g>
<!-- QBins&#45;&gt;ReflectivityOverQ -->
<g id="edge34" class="edge">
<title>QBins:e&#45;&gt;ReflectivityOverQ:w</title>
<path fill="none" stroke="black" d="M1582.5,-38.5C1806.6,-38.5 1864.61,-30.73 2086,-65.5 2114.99,-70.05 2123.16,-81.47 2147.71,-84"/>
<polygon fill="black" stroke="black" points="2147.84,-87.51 2158,-84.5 2148.18,-80.52 2147.84,-87.51"/>
</g>
<!-- RawDetectorData[SampleRun]&#45;&gt;ReducibleData[SampleRun] -->
<g id="edge20" class="edge">
<title>RawDetectorData[SampleRun]:e&#45;&gt;ReducibleData[SampleRun]:w</title>
<path fill="none" stroke="black" d="M1331,-92.5C1365.1,-92.5 1374.88,-105.53 1404.23,-108.07"/>
<polygon fill="black" stroke="black" points="1404.36,-111.58 1414.5,-108.5 1404.65,-104.59 1404.36,-111.58"/>
</g>
<!-- SampleRotation[SampleRun]&#45;&gt;RawDetectorData[SampleRun] -->
<g id="edge12" class="edge">
<title>SampleRotation[SampleRun]:e&#45;&gt;RawDetectorData[SampleRun]:w</title>
<path fill="none" stroke="black" d="M629.5,-90.5C694.77,-90.5 709.88,-74.95 775,-70.5 884.97,-62.98 913.99,-54.22 1023,-70.5 1052.47,-74.9 1060.02,-88.91 1084.95,-91.93"/>
<polygon fill="black" stroke="black" points="1084.82,-95.42 1095,-92.5 1085.22,-88.44 1084.82,-95.42"/>
</g>
<!-- SampleSize[SampleRun] -->
<g id="node23" class="node">
<title>SampleSize[SampleRun]</title>
<polygon fill="none" stroke="black" points="995,-270 803,-270 803,-247 995,-247 995,-270"/>
<text text-anchor="middle" x="899" y="-254.8" font-family="Times,serif" font-size="14.00">SampleSize[SampleRun]</text>
</g>
<!-- SampleSize[SampleRun]&#45;&gt;RawDetectorData[SampleRun] -->
<g id="edge17" class="edge">
<title>SampleSize[SampleRun]:e&#45;&gt;RawDetectorData[SampleRun]:w</title>
<path fill="none" stroke="black" d="M996,-258.5C1078.21,-258.5 1015.06,-106.46 1084.78,-93.39"/>
<polygon fill="black" stroke="black" points="1085.34,-96.86 1095,-92.5 1084.73,-89.88 1085.34,-96.86"/>
</g>
<!-- ReducedReference -->
<g id="node24" class="node">
<title>ReducedReference</title>
<polygon fill="none" stroke="black" points="1626.5,-152 1476.5,-152 1476.5,-129 1626.5,-129 1626.5,-152"/>
<text text-anchor="middle" x="1551.5" y="-136.8" font-family="Times,serif" font-size="14.00">ReducedReference</text>
</g>
<!-- ReducedReference&#45;&gt;Reference -->
<g id="edge27" class="edge">
<title>ReducedReference:e&#45;&gt;Reference:w</title>
<path fill="none" stroke="black" d="M1627.5,-140.5C1660.5,-140.5 1668.42,-134.06 1700,-124.5 1743.61,-111.31 1752.69,-88.17 1792.98,-84.89"/>
<polygon fill="black" stroke="black" points="1793.14,-88.39 1803,-84.5 1792.87,-81.39 1793.14,-88.39"/>
</g>
<!-- ReducedReference&#45;&gt;Sample -->
<g id="edge36" class="edge">
<title>ReducedReference:e&#45;&gt;Sample:w</title>
<path fill="none" stroke="black" d="M1627.5,-140.5C1688.46,-140.5 1705.67,-152.12 1761.84,-153.39"/>
<polygon fill="black" stroke="black" points="1761.96,-156.89 1772,-153.5 1762.04,-149.89 1761.96,-156.89"/>
</g>
<!-- ReducibleData[SampleRun]&#45;&gt;Reference -->
<g id="edge28" class="edge">
<title>ReducibleData[SampleRun]:e&#45;&gt;Reference:w</title>
<path fill="none" stroke="black" d="M1688.5,-108.5C1736.94,-108.5 1749.37,-87.67 1792.89,-84.82"/>
<polygon fill="black" stroke="black" points="1793.12,-88.32 1803,-84.5 1792.89,-81.32 1793.12,-88.32"/>
</g>
<!-- ReducibleData[SampleRun]&#45;&gt;Sample -->
<g id="edge35" class="edge">
<title>ReducibleData[SampleRun]:e&#45;&gt;Sample:w</title>
<path fill="none" stroke="black" d="M1688.5,-108.5C1727.03,-108.5 1729.67,-146.1 1762.03,-152.56"/>
<polygon fill="black" stroke="black" points="1761.72,-156.05 1772,-153.5 1762.37,-149.08 1761.72,-156.05"/>
</g>
<!-- YIndexLimits -->
<g id="node26" class="node">
<title>YIndexLimits</title>
<polygon fill="none" stroke="black" points="1268,-217 1158,-217 1158,-194 1268,-194 1268,-217"/>
<text text-anchor="middle" x="1213" y="-201.8" font-family="Times,serif" font-size="14.00">YIndexLimits</text>
</g>
<!-- YIndexLimits&#45;&gt;ReducibleData[SampleRun] -->
<g id="edge21" class="edge">
<title>YIndexLimits:e&#45;&gt;ReducibleData[SampleRun]:w</title>
<path fill="none" stroke="black" d="M1269,-205.5C1297.35,-205.5 1306.21,-204.26 1331,-190.5 1373.28,-167.03 1364.16,-116.32 1404.46,-109.31"/>
<polygon fill="black" stroke="black" points="1404.81,-112.79 1414.5,-108.5 1404.25,-105.82 1404.81,-112.79"/>
</g>
<!-- ZIndexLimits -->
<g id="node27" class="node">
<title>ZIndexLimits</title>
<polygon fill="none" stroke="black" points="1268.5,-190 1157.5,-190 1157.5,-167 1268.5,-167 1268.5,-190"/>
<text text-anchor="middle" x="1213" y="-174.8" font-family="Times,serif" font-size="14.00">ZIndexLimits</text>
</g>
<!-- ZIndexLimits&#45;&gt;ReducibleData[SampleRun] -->
<g id="edge22" class="edge">
<title>ZIndexLimits:e&#45;&gt;ReducibleData[SampleRun]:w</title>
<path fill="none" stroke="black" d="M1269,-178.5C1297.35,-178.5 1305,-174.8 1331,-163.5 1368.41,-147.24 1370.05,-114.49 1404.45,-109.22"/>
<polygon fill="black" stroke="black" points="1404.78,-112.71 1414.5,-108.5 1404.28,-105.72 1404.78,-112.71"/>
</g>
<!-- WavelengthBins -->
<g id="node28" class="node">
<title>WavelengthBins</title>
<polygon fill="none" stroke="black" points="1279,-163 1147,-163 1147,-140 1279,-140 1279,-163"/>
<text text-anchor="middle" x="1213" y="-147.8" font-family="Times,serif" font-size="14.00">WavelengthBins</text>
</g>
<!-- WavelengthBins&#45;&gt;ReducibleData[SampleRun] -->
<g id="edge24" class="edge">
<title>WavelengthBins:e&#45;&gt;ReducibleData[SampleRun]:w</title>
<path fill="none" stroke="black" d="M1280,-151.5C1339.2,-151.5 1350.55,-113.23 1404.33,-108.9"/>
<polygon fill="black" stroke="black" points="1404.64,-112.39 1414.5,-108.5 1404.37,-105.39 1404.64,-112.39"/>
</g>
<!-- Reference&#45;&gt;ReflectivityOverQ -->
<g id="edge33" class="edge">
<title>Reference:e&#45;&gt;ReflectivityOverQ:w</title>
<path fill="none" stroke="black" d="M2055,-84.5C2097.2,-84.5 2110.22,-84.5 2147.87,-84.5"/>
<polygon fill="black" stroke="black" points="2148,-88 2158,-84.5 2148,-81 2148,-88"/>
</g>
<!-- Sample&#45;&gt;ReflectivityOverQ -->
<g id="edge32" class="edge">
<title>Sample:e&#45;&gt;ReflectivityOverQ:w</title>
<path fill="none" stroke="black" d="M2086,-153.5C2126.51,-153.5 2116.09,-95.85 2147.85,-85.94"/>
<polygon fill="black" stroke="black" points="2148.59,-89.37 2158,-84.5 2147.61,-82.44 2148.59,-89.37"/>
</g>
</g>
</svg>
