<?xml version="1.0" encoding="UTF-8" standalone="no"?>
<!DOCTYPE svg PUBLIC "-//W3C//DTD SVG 1.1//EN"
 "http://www.w3.org/Graphics/SVG/1.1/DTD/svg11.dtd">
<!-- Generated by graphviz version 2.43.0 (0)
 -->
<!-- Title: %3 Pages: 1 -->
<svg width="2834pt" height="660pt"
 viewBox="0.00 0.00 2834.00 659.50" xmlns="http://www.w3.org/2000/svg" xmlns:xlink="http://www.w3.org/1999/xlink">
<g id="graph0" class="graph" transform="scale(1 1) rotate(0) translate(4 655.5)">
<title>%3</title>
<polygon fill="white" stroke="transparent" points="-4,4 -4,-655.5 2830,-655.5 2830,4 -4,4"/>
<g id="clust3" class="cluster">
<title>cluster_CoordTransformationGraph</title>
<polygon fill="#f0f0ff" stroke="#f0f0ff" points="728.5,-324.5 728.5,-420.5 952.5,-420.5 952.5,-324.5 728.5,-324.5"/>
<text text-anchor="start" x="741.5" y="-406.3" font-family="Times,serif" font-size="14.00">CoordTransformationGraph</text>
<text text-anchor="start" x="736.5" y="-394.7" font-family="Times,serif" font-size="11.00">via:</text>
<text text-anchor="start" x="757.5" y="-394.7" font-family="Times,serif" font-style="italic" font-size="11.00">coordinate_transformation_graph</text>
</g>
<g id="clust11" class="cluster">
<title>cluster_Filename</title>
<polygon fill="#f0f0ff" stroke="#f0f0ff" points="23,-358.5 23,-444.5 149,-444.5 149,-358.5 23,-358.5"/>
<text text-anchor="middle" x="86" y="-429.3" font-family="Times,serif" font-size="14.00">Filename</text>
</g>
<g id="clust7" class="cluster">
<title>cluster_DetectorLtotal</title>
<polygon fill="#f0f0ff" stroke="#f0f0ff" points="1107.5,-239.5 1107.5,-335.5 1286.5,-335.5 1286.5,-239.5 1107.5,-239.5"/>
<text text-anchor="start" x="1144.5" y="-321.3" font-family="Times,serif" font-size="14.00">DetectorLtotal</text>
<text text-anchor="start" x="1115.5" y="-309.7" font-family="Times,serif" font-size="11.00">via:</text>
<text text-anchor="start" x="1136.5" y="-309.7" font-family="Times,serif" font-style="italic" font-size="11.00">detector_ltotal_from_raw</text>
</g>
<g id="clust8" class="cluster">
<title>cluster_DetectorRotation</title>
<polygon fill="#f0f0ff" stroke="#f0f0ff" points="459.5,-259.5 459.5,-355.5 623.5,-355.5 623.5,-259.5 459.5,-259.5"/>
<text text-anchor="start" x="479.5" y="-341.3" font-family="Times,serif" font-size="14.00">DetectorRotation</text>
<text text-anchor="start" x="467.5" y="-329.7" font-family="Times,serif" font-size="11.00">via:</text>
<text text-anchor="start" x="488.5" y="-329.7" font-family="Times,serif" font-style="italic" font-size="11.00">load_detector_rotation</text>
</g>
<g id="clust17" class="cluster">
<title>cluster_Position</title>
<polygon fill="#f0f0ff" stroke="#f0f0ff" points="444,-467.5 444,-643.5 639,-643.5 639,-467.5 444,-467.5"/>
<text text-anchor="middle" x="541.5" y="-628.3" font-family="Times,serif" font-size="14.00">Position</text>
</g>
<g id="clust18" class="cluster">
<title>cluster_ProtonCurrent</title>
<polygon fill="#f0f0ff" stroke="#f0f0ff" points="1443.5,-85.5 1443.5,-171.5 1569.5,-171.5 1569.5,-85.5 1443.5,-85.5"/>
<text text-anchor="middle" x="1506.5" y="-156.3" font-family="Times,serif" font-size="14.00">ProtonCurrent</text>
</g>
<g id="clust21" class="cluster">
<title>cluster_RawDetector</title>
<polygon fill="#f0f0ff" stroke="#f0f0ff" points="229,-311.5 229,-407.5 388,-407.5 388,-311.5 229,-311.5"/>
<text text-anchor="start" x="261.5" y="-393.3" font-family="Times,serif" font-size="14.00">RawDetector</text>
<text text-anchor="start" x="237" y="-381.7" font-family="Times,serif" font-size="11.00">via:</text>
<text text-anchor="start" x="258" y="-381.7" font-family="Times,serif" font-style="italic" font-size="11.00">load_mcstas_provider</text>
</g>
<g id="clust23" class="cluster">
<title>cluster_ReducibleData</title>
<polygon fill="#f0f0ff" stroke="#f0f0ff" points="1663,-204.5 1663,-300.5 1935,-300.5 1935,-204.5 1663,-204.5"/>
<text text-anchor="start" x="1746.5" y="-286.3" font-family="Times,serif" font-size="14.00">ReducibleData</text>
<text text-anchor="start" x="1671" y="-274.7" font-family="Times,serif" font-size="11.00">via:</text>
<text text-anchor="start" x="1692" y="-274.7" font-family="Times,serif" font-style="italic" font-size="11.00">add_coords_masks_and_apply_corrections</text>
</g>
<g id="clust27" class="cluster">
<title>cluster_SampleRotationOffset</title>
<polygon fill="#f0f0ff" stroke="#f0f0ff" points="0,-264.5 0,-350.5 173,-350.5 173,-264.5 0,-264.5"/>
<text text-anchor="middle" x="86.5" y="-335.3" font-family="Times,serif" font-size="14.00">SampleRotationOffset</text>
</g>
<g id="clust28" class="cluster">
<title>cluster_SampleRotation</title>
<polygon fill="#f0f0ff" stroke="#f0f0ff" points="462.5,-363.5 462.5,-459.5 620.5,-459.5 620.5,-363.5 462.5,-363.5"/>
<text text-anchor="start" x="484" y="-445.3" font-family="Times,serif" font-size="14.00">SampleRotation</text>
<text text-anchor="start" x="470.5" y="-433.7" font-family="Times,serif" font-size="11.00">via:</text>
<text text-anchor="start" x="491.5" y="-433.7" font-family="Times,serif" font-style="italic" font-size="11.00">load_sample_rotation</text>
</g>
<g id="clust30" class="cluster">
<title>cluster_WavelengthDetector</title>
<polygon fill="#f0f0ff" stroke="#f0f0ff" points="1414.5,-211.5 1414.5,-307.5 1599.5,-307.5 1599.5,-211.5 1414.5,-211.5"/>
<text text-anchor="start" x="1433.5" y="-293.3" font-family="Times,serif" font-size="14.00">WavelengthDetector</text>
<text text-anchor="start" x="1422.5" y="-281.7" font-family="Times,serif" font-size="11.00">via:</text>
<text text-anchor="start" x="1443.5" y="-281.7" font-family="Times,serif" font-style="italic" font-size="11.00">detector_wavelength_data</text>
</g>
<!-- Alpha -->
<g id="node1" class="node">
<title>Alpha</title>
<polygon fill="none" stroke="black" points="1827.5,-434 1770.5,-434 1770.5,-411 1827.5,-411 1827.5,-434"/>
<text text-anchor="middle" x="1799" y="-418.8" font-family="Times,serif" font-size="14.00">Alpha</text>
</g>
<!-- ReducedReference -->
<g id="node36" class="node">
<title>ReducedReference</title>
<polygon fill="none" stroke="black" points="2176.5,-385 2026.5,-385 2026.5,-352 2176.5,-352 2176.5,-385"/>
<text text-anchor="start" x="2034.5" y="-370.8" font-family="Times,serif" font-size="14.00">ReducedReference</text>
<text text-anchor="start" x="2042" y="-359.2" font-family="Times,serif" font-size="11.00">via:</text>
<text text-anchor="start" x="2063" y="-359.2" font-family="Times,serif" font-style="italic" font-size="11.00">reduce_reference</text>
</g>
<!-- Alpha&#45;&gt;ReducedReference -->
<g id="edge32" class="edge">
<title>Alpha:e&#45;&gt;ReducedReference:w</title>
<path fill="none" stroke="black" d="M1829,-422.5C1876.58,-422.5 1889.19,-420.36 1935,-407.5 1973.71,-396.63 1980.7,-372.85 2015.47,-369.02"/>
<polygon fill="black" stroke="black" points="2015.7,-372.52 2025.5,-368.5 2015.33,-365.53 2015.7,-372.52"/>
</g>
<!-- Sample -->
<g id="node44" class="node">
<title>Sample</title>
<polygon fill="none" stroke="black" points="2590,-414 2276,-414 2276,-381 2590,-381 2590,-414"/>
<text text-anchor="start" x="2406" y="-399.8" font-family="Times,serif" font-size="14.00">Sample</text>
<text text-anchor="start" x="2284" y="-388.2" font-family="Times,serif" font-size="11.00">via:</text>
<text text-anchor="start" x="2305" y="-388.2" font-family="Times,serif" font-style="italic" font-size="11.00">mask_events_where_supermirror_does_not_cover</text>
</g>
<!-- Alpha&#45;&gt;Sample -->
<g id="edge55" class="edge">
<title>Alpha:e&#45;&gt;Sample:w</title>
<path fill="none" stroke="black" d="M1829,-422.5C1995.75,-422.5 2038.17,-428.03 2204,-410.5 2232.67,-407.47 2241.54,-399.59 2265.85,-397.85"/>
<polygon fill="black" stroke="black" points="2266.13,-401.34 2276,-397.5 2265.89,-394.34 2266.13,-401.34"/>
</g>
<!-- BeamDivergenceLimits -->
<g id="node2" class="node">
<title>BeamDivergenceLimits</title>
<polygon fill="none" stroke="black" points="1598,-339 1415,-339 1415,-316 1598,-316 1598,-339"/>
<text text-anchor="middle" x="1506.5" y="-323.8" font-family="Times,serif" font-size="14.00">BeamDivergenceLimits</text>
</g>
<!-- ReducibleData[ReferenceRun] -->
<g id="node35" class="node">
<title>ReducibleData[ReferenceRun]</title>
<polygon fill="none" stroke="black" points="1854,-234 1744,-234 1744,-213 1854,-213 1854,-234"/>
<text text-anchor="start" x="1752" y="-220.4" font-family="Times,serif" font-size="12.00">[ReferenceRun]</text>
</g>
<!-- BeamDivergenceLimits&#45;&gt;ReducibleData[ReferenceRun] -->
<g id="edge36" class="edge">
<title>BeamDivergenceLimits:e&#45;&gt;ReducibleData[ReferenceRun]:w</title>
<path fill="none" stroke="black" stroke-width="2" d="M1599.5,-327.5C1644.49,-327.5 1625.5,-273.63 1654.93,-244.89"/>
<polygon fill="black" stroke="black" stroke-width="2" points="1657.33,-247.45 1663,-238.5 1652.99,-241.96 1657.33,-247.45"/>
</g>
<!-- Position[NXsource, ReferenceRun] -->
<g id="node3" class="node">
<title>Position[NXsource, ReferenceRun]</title>
<polygon fill="none" stroke="black" points="630,-612 453,-612 453,-581 630,-581 630,-612"/>
<text text-anchor="start" x="461" y="-599.4" font-family="Times,serif" font-size="12.00">[NXsource, ReferenceRun]</text>
<text text-anchor="start" x="472" y="-588.2" font-family="Times,serif" font-size="11.00">via:</text>
<text text-anchor="start" x="493" y="-588.2" font-family="Times,serif" font-style="italic" font-size="11.00">load_source_position</text>
</g>
<!-- CoordTransformationGraph[ReferenceRun] -->
<g id="node4" class="node">
<title>CoordTransformationGraph[ReferenceRun]</title>
<polygon fill="none" stroke="black" points="895.5,-379 785.5,-379 785.5,-358 895.5,-358 895.5,-379"/>
<text text-anchor="start" x="793.5" y="-365.4" font-family="Times,serif" font-size="12.00">[ReferenceRun]</text>
</g>
<!-- Position[NXsource, ReferenceRun]&#45;&gt;CoordTransformationGraph[ReferenceRun] -->
<g id="edge1" class="edge">
<title>Position[NXsource, ReferenceRun]:e&#45;&gt;CoordTransformationGraph[ReferenceRun]:w</title>
<path fill="none" stroke="black" d="M630.5,-596.5C749.2,-596.5 667.34,-381.66 774.29,-369.08"/>
<polygon fill="black" stroke="black" points="774.71,-372.56 784.5,-368.5 774.32,-365.57 774.71,-372.56"/>
</g>
<!-- DetectorLtotal[ReferenceRun] -->
<g id="node17" class="node">
<title>DetectorLtotal[ReferenceRun]</title>
<polygon fill="none" stroke="black" points="1251.5,-294 1141.5,-294 1141.5,-273 1251.5,-273 1251.5,-294"/>
<text text-anchor="start" x="1149.5" y="-280.4" font-family="Times,serif" font-size="12.00">[ReferenceRun]</text>
</g>
<!-- CoordTransformationGraph[ReferenceRun]&#45;&gt;DetectorLtotal[ReferenceRun] -->
<g id="edge11" class="edge">
<title>CoordTransformationGraph[ReferenceRun]:e&#45;&gt;DetectorLtotal[ReferenceRun]:w</title>
<path fill="none" stroke="black" d="M896.5,-368.5C933.25,-368.5 942.79,-365.05 978,-354.5 1050.11,-332.9 1060.81,-287.8 1130.29,-283.79"/>
<polygon fill="black" stroke="black" points="1130.6,-287.28 1140.5,-283.5 1130.41,-280.28 1130.6,-287.28"/>
</g>
<!-- CoordTransformationGraph[ReferenceRun]&#45;&gt;ReducibleData[ReferenceRun] -->
<g id="edge39" class="edge">
<title>CoordTransformationGraph[ReferenceRun]:e&#45;&gt;ReducibleData[ReferenceRun]:w</title>
<path fill="none" stroke="black" d="M896.5,-368.5C901.39,-368.5 1595.28,-343.96 1599.5,-341.5 1645.94,-314.39 1618.67,-268.95 1663,-238.5 1689.91,-220.02 1703.94,-222.68 1733,-223.37"/>
<polygon fill="black" stroke="black" points="1732.96,-226.87 1743,-223.5 1733.05,-219.87 1732.96,-226.87"/>
</g>
<!-- Reference -->
<g id="node43" class="node">
<title>Reference</title>
<polygon fill="none" stroke="black" points="2505.5,-361 2360.5,-361 2360.5,-328 2505.5,-328 2505.5,-361"/>
<text text-anchor="start" x="2396.5" y="-346.8" font-family="Times,serif" font-size="14.00">Reference</text>
<text text-anchor="start" x="2368.5" y="-335.2" font-family="Times,serif" font-size="11.00">via:</text>
<text text-anchor="start" x="2389.5" y="-335.2" font-family="Times,serif" font-style="italic" font-size="11.00">evaluate_reference</text>
</g>
<!-- CoordTransformationGraph[ReferenceRun]&#45;&gt;Reference -->
<g id="edge46" class="edge">
<title>CoordTransformationGraph[ReferenceRun]:e&#45;&gt;Reference:w</title>
<path fill="none" stroke="black" d="M896.5,-368.5C1543.1,-368.5 1707.15,-344.76 2348.57,-344.5"/>
<polygon fill="black" stroke="black" points="2349,-348 2359,-344.5 2349,-341 2349,-348"/>
</g>
<!-- Position[NXsample, ReferenceRun] -->
<g id="node5" class="node">
<title>Position[NXsample, ReferenceRun]</title>
<polygon fill="none" stroke="black" points="631,-577 452,-577 452,-546 631,-546 631,-577"/>
<text text-anchor="start" x="460" y="-564.4" font-family="Times,serif" font-size="12.00">[NXsample, ReferenceRun]</text>
<text text-anchor="start" x="470.5" y="-553.2" font-family="Times,serif" font-size="11.00">via:</text>
<text text-anchor="start" x="491.5" y="-553.2" font-family="Times,serif" font-style="italic" font-size="11.00">load_sample_position</text>
</g>
<!-- Position[NXsample, ReferenceRun]&#45;&gt;CoordTransformationGraph[ReferenceRun] -->
<g id="edge2" class="edge">
<title>Position[NXsample, ReferenceRun]:e&#45;&gt;CoordTransformationGraph[ReferenceRun]:w</title>
<path fill="none" stroke="black" d="M632.5,-561.5C738.17,-561.5 679.41,-380.74 774.48,-369.09"/>
<polygon fill="black" stroke="black" points="774.72,-372.58 784.5,-368.5 774.31,-365.59 774.72,-372.58"/>
</g>
<!-- SampleRotation[ReferenceRun] -->
<g id="node6" class="node">
<title>SampleRotation[ReferenceRun]</title>
<polygon fill="none" stroke="black" points="596.5,-418 486.5,-418 486.5,-397 596.5,-397 596.5,-418"/>
<text text-anchor="start" x="494.5" y="-404.4" font-family="Times,serif" font-size="12.00">[ReferenceRun]</text>
</g>
<!-- SampleRotation[ReferenceRun]&#45;&gt;CoordTransformationGraph[ReferenceRun] -->
<g id="edge3" class="edge">
<title>SampleRotation[ReferenceRun]:e&#45;&gt;CoordTransformationGraph[ReferenceRun]:w</title>
<path fill="none" stroke="black" d="M597.5,-407.5C678.92,-407.5 698.08,-371.63 774.39,-368.69"/>
<polygon fill="black" stroke="black" points="774.57,-372.19 784.5,-368.5 774.44,-365.19 774.57,-372.19"/>
</g>
<!-- DetectorRotation[ReferenceRun] -->
<g id="node7" class="node">
<title>DetectorRotation[ReferenceRun]</title>
<polygon fill="none" stroke="black" points="596.5,-314 486.5,-314 486.5,-293 596.5,-293 596.5,-314"/>
<text text-anchor="start" x="494.5" y="-300.4" font-family="Times,serif" font-size="12.00">[ReferenceRun]</text>
</g>
<!-- DetectorRotation[ReferenceRun]&#45;&gt;CoordTransformationGraph[ReferenceRun] -->
<g id="edge4" class="edge">
<title>DetectorRotation[ReferenceRun]:e&#45;&gt;CoordTransformationGraph[ReferenceRun]:w</title>
<path fill="none" stroke="black" d="M597.5,-303.5C649.58,-303.5 653.41,-338.6 703,-354.5 734.58,-364.62 745.6,-367.88 774.46,-368.42"/>
<polygon fill="black" stroke="black" points="774.47,-371.92 784.5,-368.5 774.53,-364.92 774.47,-371.92"/>
</g>
<!-- DetectorBankSizes -->
<g id="node8" class="node">
<title>DetectorBankSizes</title>
<polygon fill="none" stroke="black" points="617.5,-251 465.5,-251 465.5,-228 617.5,-228 617.5,-251"/>
<text text-anchor="middle" x="541.5" y="-235.8" font-family="Times,serif" font-size="14.00">DetectorBankSizes</text>
</g>
<!-- DetectorBankSizes&#45;&gt;CoordTransformationGraph[ReferenceRun] -->
<g id="edge5" class="edge">
<title>DetectorBankSizes:e&#45;&gt;CoordTransformationGraph[ReferenceRun]:w</title>
<path fill="none" stroke="black" stroke-width="2" d="M618.5,-239.5C630.92,-239.5 630.94,-249.04 639,-258.5 672.26,-297.53 660.01,-326.55 703,-354.5 708.81,-358.27 714.01,-361.12 718.89,-363.26"/>
<polygon fill="black" stroke="black" stroke-width="2" points="717.91,-366.63 728.5,-366.72 720.28,-360.04 717.91,-366.63"/>
</g>
<!-- Position[NXsource, SampleRun] -->
<g id="node9" class="node">
<title>Position[NXsource, SampleRun]</title>
<polygon fill="none" stroke="black" points="622,-542 461,-542 461,-511 622,-511 622,-542"/>
<text text-anchor="start" x="469" y="-529.4" font-family="Times,serif" font-size="12.00">[NXsource, SampleRun]</text>
<text text-anchor="start" x="472" y="-518.2" font-family="Times,serif" font-size="11.00">via:</text>
<text text-anchor="start" x="493" y="-518.2" font-family="Times,serif" font-style="italic" font-size="11.00">load_source_position</text>
</g>
<!-- CoordTransformationGraph[SampleRun] -->
<g id="node10" class="node">
<title>CoordTransformationGraph[SampleRun]</title>
<polygon fill="none" stroke="black" points="888,-354 793,-354 793,-333 888,-333 888,-354"/>
<text text-anchor="start" x="801" y="-340.4" font-family="Times,serif" font-size="12.00">[SampleRun]</text>
</g>
<!-- Position[NXsource, SampleRun]&#45;&gt;CoordTransformationGraph[SampleRun] -->
<g id="edge6" class="edge">
<title>Position[NXsource, SampleRun]:e&#45;&gt;CoordTransformationGraph[SampleRun]:w</title>
<path fill="none" stroke="black" d="M623.5,-526.5C706.1,-526.5 638.07,-409.57 703,-358.5 731.54,-336.05 748.39,-342.04 781.27,-343.3"/>
<polygon fill="black" stroke="black" points="781.43,-346.8 791.5,-343.5 781.57,-339.8 781.43,-346.8"/>
</g>
<!-- DetectorLtotal[SampleRun] -->
<g id="node19" class="node">
<title>DetectorLtotal[SampleRun]</title>
<polygon fill="none" stroke="black" points="1244,-269 1149,-269 1149,-248 1244,-248 1244,-269"/>
<text text-anchor="start" x="1157" y="-255.4" font-family="Times,serif" font-size="12.00">[SampleRun]</text>
</g>
<!-- CoordTransformationGraph[SampleRun]&#45;&gt;DetectorLtotal[SampleRun] -->
<g id="edge13" class="edge">
<title>CoordTransformationGraph[SampleRun]:e&#45;&gt;DetectorLtotal[SampleRun]:w</title>
<path fill="none" stroke="black" d="M889.5,-343.5C967.32,-343.5 975.25,-295.15 1050,-273.5 1088.66,-262.3 1101.56,-259.02 1137.33,-258.56"/>
<polygon fill="black" stroke="black" points="1137.52,-262.06 1147.5,-258.5 1137.48,-255.06 1137.52,-262.06"/>
</g>
<!-- ReducibleData[SampleRun] -->
<g id="node42" class="node">
<title>ReducibleData[SampleRun]</title>
<polygon fill="none" stroke="black" points="1846.5,-259 1751.5,-259 1751.5,-238 1846.5,-238 1846.5,-259"/>
<text text-anchor="start" x="1759.5" y="-245.4" font-family="Times,serif" font-size="12.00">[SampleRun]</text>
</g>
<!-- CoordTransformationGraph[SampleRun]&#45;&gt;ReducibleData[SampleRun] -->
<g id="edge43" class="edge">
<title>CoordTransformationGraph[SampleRun]:e&#45;&gt;ReducibleData[SampleRun]:w</title>
<path fill="none" stroke="black" d="M889.5,-343.5C1047.28,-343.5 1447.64,-382.3 1599.5,-339.5 1671.35,-319.25 1671.94,-254.67 1739.94,-248.91"/>
<polygon fill="black" stroke="black" points="1740.15,-252.41 1750,-248.5 1739.87,-245.41 1740.15,-252.41"/>
</g>
<!-- Position[NXsample, SampleRun] -->
<g id="node11" class="node">
<title>Position[NXsample, SampleRun]</title>
<polygon fill="none" stroke="black" points="623.5,-507 459.5,-507 459.5,-476 623.5,-476 623.5,-507"/>
<text text-anchor="start" x="467.5" y="-494.4" font-family="Times,serif" font-size="12.00">[NXsample, SampleRun]</text>
<text text-anchor="start" x="470.5" y="-483.2" font-family="Times,serif" font-size="11.00">via:</text>
<text text-anchor="start" x="491.5" y="-483.2" font-family="Times,serif" font-style="italic" font-size="11.00">load_sample_position</text>
</g>
<!-- Position[NXsample, SampleRun]&#45;&gt;CoordTransformationGraph[SampleRun] -->
<g id="edge7" class="edge">
<title>Position[NXsample, SampleRun]:e&#45;&gt;CoordTransformationGraph[SampleRun]:w</title>
<path fill="none" stroke="black" d="M624.5,-491.5C693.14,-491.5 646.46,-397.41 703,-358.5 732.91,-337.92 748.64,-342.38 781.3,-343.34"/>
<polygon fill="black" stroke="black" points="781.45,-346.85 791.5,-343.5 781.56,-339.85 781.45,-346.85"/>
</g>
<!-- SampleRotation[SampleRun] -->
<g id="node12" class="node">
<title>SampleRotation[SampleRun]</title>
<polygon fill="none" stroke="black" points="589,-393 494,-393 494,-372 589,-372 589,-393"/>
<text text-anchor="start" x="502" y="-379.4" font-family="Times,serif" font-size="12.00">[SampleRun]</text>
</g>
<!-- SampleRotation[SampleRun]&#45;&gt;CoordTransformationGraph[SampleRun] -->
<g id="edge8" class="edge">
<title>SampleRotation[SampleRun]:e&#45;&gt;CoordTransformationGraph[SampleRun]:w</title>
<path fill="none" stroke="black" d="M590.5,-382.5C641.63,-382.5 652.79,-368.11 703,-358.5 738.66,-351.68 749.67,-344.85 781.44,-343.68"/>
<polygon fill="black" stroke="black" points="781.56,-347.17 791.5,-343.5 781.44,-340.18 781.56,-347.17"/>
</g>
<!-- DetectorRotation[SampleRun] -->
<g id="node13" class="node">
<title>DetectorRotation[SampleRun]</title>
<polygon fill="none" stroke="black" points="589,-289 494,-289 494,-268 589,-268 589,-289"/>
<text text-anchor="start" x="502" y="-275.4" font-family="Times,serif" font-size="12.00">[SampleRun]</text>
</g>
<!-- DetectorRotation[SampleRun]&#45;&gt;CoordTransformationGraph[SampleRun] -->
<g id="edge9" class="edge">
<title>DetectorRotation[SampleRun]:e&#45;&gt;CoordTransformationGraph[SampleRun]:w</title>
<path fill="none" stroke="black" d="M590.5,-278.5C680.9,-278.5 696.52,-338.77 781.37,-343.24"/>
<polygon fill="black" stroke="black" points="781.41,-346.74 791.5,-343.5 781.59,-339.74 781.41,-346.74"/>
</g>
<!-- CorrectionsToApply -->
<g id="node14" class="node">
<title>CorrectionsToApply</title>
<polygon fill="none" stroke="black" points="1585,-203 1428,-203 1428,-180 1585,-180 1585,-203"/>
<text text-anchor="middle" x="1506.5" y="-187.8" font-family="Times,serif" font-size="14.00">CorrectionsToApply</text>
</g>
<!-- CorrectionsToApply&#45;&gt;ReducibleData[ReferenceRun] -->
<g id="edge40" class="edge">
<title>CorrectionsToApply:e&#45;&gt;ReducibleData[ReferenceRun]:w</title>
<path fill="none" stroke="black" stroke-width="2" d="M1586.5,-191.5C1615.64,-191.5 1635.26,-196.89 1653.18,-203.24"/>
<polygon fill="black" stroke="black" stroke-width="2" points="1652.41,-206.69 1663,-206.85 1654.82,-200.12 1652.41,-206.69"/>
</g>
<!-- CriticalEdge -->
<g id="node15" class="node">
<title>CriticalEdge</title>
<polygon fill="none" stroke="black" points="1852,-407 1746,-407 1746,-384 1852,-384 1852,-407"/>
<text text-anchor="middle" x="1799" y="-391.8" font-family="Times,serif" font-size="14.00">CriticalEdge</text>
</g>
<!-- CriticalEdge&#45;&gt;ReducedReference -->
<g id="edge30" class="edge">
<title>CriticalEdge:e&#45;&gt;ReducedReference:w</title>
<path fill="none" stroke="black" d="M1853,-395.5C1927.11,-395.5 1946.22,-370.87 2015.4,-368.66"/>
<polygon fill="black" stroke="black" points="2015.56,-372.16 2025.5,-368.5 2015.45,-365.16 2015.56,-372.16"/>
</g>
<!-- CriticalEdge&#45;&gt;Sample -->
<g id="edge53" class="edge">
<title>CriticalEdge:e&#45;&gt;Sample:w</title>
<path fill="none" stroke="black" d="M1853,-395.5C1918.04,-395.5 1934,-403.28 1999,-405.5 2090.06,-408.61 2113.03,-410.54 2204,-405.5 2232.51,-403.92 2241.75,-398.85 2265.93,-397.72"/>
<polygon fill="black" stroke="black" points="2266.08,-401.22 2276,-397.5 2265.92,-394.22 2266.08,-401.22"/>
</g>
<!-- RawDetector[ReferenceRun] -->
<g id="node16" class="node">
<title>RawDetector[ReferenceRun]</title>
<polygon fill="none" stroke="black" points="363,-366 253,-366 253,-345 363,-345 363,-366"/>
<text text-anchor="start" x="261" y="-352.4" font-family="Times,serif" font-size="12.00">[ReferenceRun]</text>
</g>
<!-- RawDetector[ReferenceRun]&#45;&gt;Position[NXsource, ReferenceRun] -->
<g id="edge22" class="edge">
<title>RawDetector[ReferenceRun]:e&#45;&gt;Position[NXsource, ReferenceRun]:w</title>
<path fill="none" stroke="black" d="M364,-355.5C474.43,-355.5 347.14,-581.22 442.24,-595.77"/>
<polygon fill="black" stroke="black" points="442.28,-599.28 452.5,-596.5 442.78,-592.29 442.28,-599.28"/>
</g>
<!-- RawDetector[ReferenceRun]&#45;&gt;Position[NXsample, ReferenceRun] -->
<g id="edge20" class="edge">
<title>RawDetector[ReferenceRun]:e&#45;&gt;Position[NXsample, ReferenceRun]:w</title>
<path fill="none" stroke="black" d="M364,-355.5C459.61,-355.5 359.23,-546.49 440.3,-560.67"/>
<polygon fill="black" stroke="black" points="440.25,-564.18 450.5,-561.5 440.82,-557.2 440.25,-564.18"/>
</g>
<!-- RawDetector[ReferenceRun]&#45;&gt;SampleRotation[ReferenceRun] -->
<g id="edge56" class="edge">
<title>RawDetector[ReferenceRun]:e&#45;&gt;SampleRotation[ReferenceRun]:w</title>
<path fill="none" stroke="black" d="M364,-355.5C419.18,-355.5 426.07,-401.39 475.41,-406.95"/>
<polygon fill="black" stroke="black" points="475.32,-410.45 485.5,-407.5 475.7,-403.46 475.32,-410.45"/>
</g>
<!-- RawDetector[ReferenceRun]&#45;&gt;DetectorRotation[ReferenceRun] -->
<g id="edge14" class="edge">
<title>RawDetector[ReferenceRun]:e&#45;&gt;DetectorRotation[ReferenceRun]:w</title>
<path fill="none" stroke="black" d="M364,-355.5C419.18,-355.5 426.07,-309.61 475.41,-304.05"/>
<polygon fill="black" stroke="black" points="475.7,-307.54 485.5,-303.5 475.32,-300.55 475.7,-307.54"/>
</g>
<!-- RawDetector[ReferenceRun]&#45;&gt;DetectorLtotal[ReferenceRun] -->
<g id="edge10" class="edge">
<title>RawDetector[ReferenceRun]:e&#45;&gt;DetectorLtotal[ReferenceRun]:w</title>
<path fill="none" stroke="black" d="M364,-355.5C376.35,-355.5 379.59,-350.54 388,-341.5 426.46,-300.18 396.09,-257.35 444,-227.5 480.78,-204.59 595.73,-225.09 639,-227.5 859.54,-239.78 914.57,-282.19 1130.43,-283.47"/>
<polygon fill="black" stroke="black" points="1130.49,-286.97 1140.5,-283.5 1130.51,-279.97 1130.49,-286.97"/>
</g>
<!-- WavelengthDetector[ReferenceRun] -->
<g id="node38" class="node">
<title>WavelengthDetector[ReferenceRun]</title>
<polygon fill="none" stroke="black" points="1561.5,-266 1451.5,-266 1451.5,-245 1561.5,-245 1561.5,-266"/>
<text text-anchor="start" x="1459.5" y="-252.4" font-family="Times,serif" font-size="12.00">[ReferenceRun]</text>
</g>
<!-- RawDetector[ReferenceRun]&#45;&gt;WavelengthDetector[ReferenceRun] -->
<g id="edge58" class="edge">
<title>RawDetector[ReferenceRun]:e&#45;&gt;WavelengthDetector[ReferenceRun]:w</title>
<path fill="none" stroke="black" d="M364,-355.5C376.35,-355.5 379.76,-350.7 388,-341.5 428.89,-295.85 392.84,-249.23 444,-215.5 485.7,-188.01 1294.28,-196.51 1343,-207.5 1390.55,-218.23 1397.39,-250.63 1440.41,-255.01"/>
<polygon fill="black" stroke="black" points="1440.34,-258.51 1450.5,-255.5 1440.68,-251.52 1440.34,-258.51"/>
</g>
<!-- DetectorLtotal[ReferenceRun]&#45;&gt;WavelengthDetector[ReferenceRun] -->
<g id="edge60" class="edge">
<title>DetectorLtotal[ReferenceRun]:e&#45;&gt;WavelengthDetector[ReferenceRun]:w</title>
<path fill="none" stroke="black" d="M1252.5,-283.5C1337.9,-283.5 1359.94,-257.64 1440.39,-255.62"/>
<polygon fill="black" stroke="black" points="1440.54,-259.12 1450.5,-255.5 1440.46,-252.12 1440.54,-259.12"/>
</g>
<!-- RawDetector[SampleRun] -->
<g id="node18" class="node">
<title>RawDetector[SampleRun]</title>
<polygon fill="none" stroke="black" points="355.5,-341 260.5,-341 260.5,-320 355.5,-320 355.5,-341"/>
<text text-anchor="start" x="268.5" y="-327.4" font-family="Times,serif" font-size="12.00">[SampleRun]</text>
</g>
<!-- RawDetector[SampleRun]&#45;&gt;Position[NXsource, SampleRun] -->
<g id="edge23" class="edge">
<title>RawDetector[SampleRun]:e&#45;&gt;Position[NXsource, SampleRun]:w</title>
<path fill="none" stroke="black" d="M357,-330.5C451.66,-330.5 367.92,-512.22 449.33,-525.71"/>
<polygon fill="black" stroke="black" points="449.26,-529.22 459.5,-526.5 449.8,-522.24 449.26,-529.22"/>
</g>
<!-- RawDetector[SampleRun]&#45;&gt;Position[NXsample, SampleRun] -->
<g id="edge21" class="edge">
<title>RawDetector[SampleRun]:e&#45;&gt;Position[NXsample, SampleRun]:w</title>
<path fill="none" stroke="black" d="M357,-330.5C437.95,-330.5 379.45,-477.96 448.42,-490.63"/>
<polygon fill="black" stroke="black" points="448.24,-494.13 458.5,-491.5 448.84,-487.16 448.24,-494.13"/>
</g>
<!-- RawDetector[SampleRun]&#45;&gt;SampleRotation[SampleRun] -->
<g id="edge57" class="edge">
<title>RawDetector[SampleRun]:e&#45;&gt;SampleRotation[SampleRun]:w</title>
<path fill="none" stroke="black" d="M357,-330.5C417.98,-330.5 427.11,-376.97 482.42,-382.05"/>
<polygon fill="black" stroke="black" points="482.35,-385.55 492.5,-382.5 482.67,-378.56 482.35,-385.55"/>
</g>
<!-- RawDetector[SampleRun]&#45;&gt;DetectorRotation[SampleRun] -->
<g id="edge15" class="edge">
<title>RawDetector[SampleRun]:e&#45;&gt;DetectorRotation[SampleRun]:w</title>
<path fill="none" stroke="black" d="M357,-330.5C417.98,-330.5 427.11,-284.03 482.42,-278.95"/>
<polygon fill="black" stroke="black" points="482.67,-282.44 492.5,-278.5 482.35,-275.45 482.67,-282.44"/>
</g>
<!-- RawDetector[SampleRun]&#45;&gt;DetectorLtotal[SampleRun] -->
<g id="edge12" class="edge">
<title>RawDetector[SampleRun]:e&#45;&gt;DetectorLtotal[SampleRun]:w</title>
<path fill="none" stroke="black" d="M357,-330.5C420.38,-330.5 387.13,-245.49 444,-217.5 521.76,-179.23 552.35,-215.71 639,-217.5 789.76,-220.61 827.95,-216.5 978,-231.5 1050.35,-238.73 1069.47,-256.71 1137.15,-258.38"/>
<polygon fill="black" stroke="black" points="1137.46,-261.88 1147.5,-258.5 1137.54,-254.88 1137.46,-261.88"/>
</g>
<!-- WavelengthDetector[SampleRun] -->
<g id="node41" class="node">
<title>WavelengthDetector[SampleRun]</title>
<polygon fill="none" stroke="black" points="1554,-241 1459,-241 1459,-220 1554,-220 1554,-241"/>
<text text-anchor="start" x="1467" y="-227.4" font-family="Times,serif" font-size="12.00">[SampleRun]</text>
</g>
<!-- RawDetector[SampleRun]&#45;&gt;WavelengthDetector[SampleRun] -->
<g id="edge62" class="edge">
<title>RawDetector[SampleRun]:e&#45;&gt;WavelengthDetector[SampleRun]:w</title>
<path fill="none" stroke="black" d="M357,-330.5C441.08,-330.5 377.31,-213.71 444,-162.5 537.49,-90.72 585.82,-118.24 703,-105.5 986.71,-74.65 1076.06,-56.56 1343,-157.5 1396.14,-177.6 1397.22,-224.55 1447.51,-229.98"/>
<polygon fill="black" stroke="black" points="1447.33,-233.48 1457.5,-230.5 1447.69,-226.49 1447.33,-233.48"/>
</g>
<!-- DetectorLtotal[SampleRun]&#45;&gt;WavelengthDetector[SampleRun] -->
<g id="edge64" class="edge">
<title>DetectorLtotal[SampleRun]:e&#45;&gt;WavelengthDetector[SampleRun]:w</title>
<path fill="none" stroke="black" d="M1245.5,-258.5C1337.11,-258.5 1360.78,-232.49 1447.48,-230.61"/>
<polygon fill="black" stroke="black" points="1447.54,-234.11 1457.5,-230.5 1447.46,-227.11 1447.54,-234.11"/>
</g>
<!-- DetectorSpatialResolution -->
<g id="node20" class="node">
<title>DetectorSpatialResolution</title>
<polygon fill="none" stroke="black" points="2204,-327 1999,-327 1999,-304 2204,-304 2204,-327"/>
<text text-anchor="middle" x="2101.5" y="-311.8" font-family="Times,serif" font-size="14.00">DetectorSpatialResolution</text>
</g>
<!-- DetectorSpatialResolution&#45;&gt;Reference -->
<g id="edge47" class="edge">
<title>DetectorSpatialResolution:e&#45;&gt;Reference:w</title>
<path fill="none" stroke="black" d="M2204,-315.5C2270.53,-315.5 2287.27,-341.63 2348.74,-344.28"/>
<polygon fill="black" stroke="black" points="2348.93,-347.79 2359,-344.5 2349.08,-340.79 2348.93,-347.79"/>
</g>
<!-- LookupTable -->
<g id="node21" class="node">
<title>LookupTable</title>
<polygon fill="none" stroke="black" points="909.5,-193 771.5,-193 771.5,-160 909.5,-160 909.5,-193"/>
<text text-anchor="start" x="795" y="-178.8" font-family="Times,serif" font-size="14.00">LookupTable</text>
<text text-anchor="start" x="779.5" y="-167.2" font-family="Times,serif" font-size="11.00">via:</text>
<text text-anchor="start" x="800.5" y="-167.2" font-family="Times,serif" font-style="italic" font-size="11.00">load_lookup_table</text>
</g>
<!-- ErrorLimitedLookupTable[NXdetector] -->
<g id="node22" class="node">
<title>ErrorLimitedLookupTable[NXdetector]</title>
<polygon fill="none" stroke="black" points="1343,-193 1050,-193 1050,-160 1343,-160 1343,-193"/>
<text text-anchor="start" x="1058" y="-178.8" font-family="Times,serif" font-size="14.00">ErrorLimitedLookupTable[NXdetector]</text>
<text text-anchor="start" x="1074.5" y="-167.2" font-family="Times,serif" font-size="11.00">via:</text>
<text text-anchor="start" x="1095.5" y="-167.2" font-family="Times,serif" font-style="italic" font-size="11.00">mask_large_uncertainty_in_lut_detector</text>
</g>
<!-- LookupTable&#45;&gt;ErrorLimitedLookupTable[NXdetector] -->
<g id="edge16" class="edge">
<title>LookupTable:e&#45;&gt;ErrorLimitedLookupTable[NXdetector]:w</title>
<path fill="none" stroke="black" d="M910.5,-176.5C968.99,-176.5 986.09,-176.5 1039.9,-176.5"/>
<polygon fill="black" stroke="black" points="1040,-180 1050,-176.5 1040,-173 1040,-180"/>
</g>
<!-- ErrorLimitedLookupTable[NXdetector]&#45;&gt;WavelengthDetector[ReferenceRun] -->
<g id="edge59" class="edge">
<title>ErrorLimitedLookupTable[NXdetector]:e&#45;&gt;WavelengthDetector[ReferenceRun]:w</title>
<path fill="none" stroke="black" d="M1343,-176.5C1385.95,-176.5 1377.99,-218.89 1414.5,-241.5 1425.68,-248.42 1430.78,-252.95 1440.26,-254.69"/>
<polygon fill="black" stroke="black" points="1440.26,-258.2 1450.5,-255.5 1440.81,-251.23 1440.26,-258.2"/>
</g>
<!-- ErrorLimitedLookupTable[NXdetector]&#45;&gt;WavelengthDetector[SampleRun] -->
<g id="edge63" class="edge">
<title>ErrorLimitedLookupTable[NXdetector]:e&#45;&gt;WavelengthDetector[SampleRun]:w</title>
<path fill="none" stroke="black" d="M1343,-176.5C1395.64,-176.5 1400.76,-223.76 1447.27,-229.86"/>
<polygon fill="black" stroke="black" points="1447.3,-233.36 1457.5,-230.5 1447.74,-226.38 1447.3,-233.36"/>
</g>
<!-- LookupTableRelativeErrorThreshold -->
<g id="node23" class="node">
<title>LookupTableRelativeErrorThreshold</title>
<polygon fill="none" stroke="black" points="978,-156 703,-156 703,-133 978,-133 978,-156"/>
<text text-anchor="middle" x="840.5" y="-140.8" font-family="Times,serif" font-size="14.00">LookupTableRelativeErrorThreshold</text>
</g>
<!-- LookupTableRelativeErrorThreshold&#45;&gt;ErrorLimitedLookupTable[NXdetector] -->
<g id="edge17" class="edge">
<title>LookupTableRelativeErrorThreshold:e&#45;&gt;ErrorLimitedLookupTable[NXdetector]:w</title>
<path fill="none" stroke="black" d="M978,-144.5C1009.32,-144.5 1014.2,-170.11 1039.95,-175.51"/>
<polygon fill="black" stroke="black" points="1039.7,-179 1050,-176.5 1040.39,-172.03 1039.7,-179"/>
</g>
<!-- NeXusName[NXdetector] -->
<g id="node24" class="node">
<title>NeXusName[NXdetector]</title>
<polygon fill="none" stroke="black" points="939,-129 742,-129 742,-106 939,-106 939,-129"/>
<text text-anchor="middle" x="840.5" y="-113.8" font-family="Times,serif" font-size="14.00">NeXusName[NXdetector]</text>
</g>
<!-- NeXusName[NXdetector]&#45;&gt;ErrorLimitedLookupTable[NXdetector] -->
<g id="edge18" class="edge">
<title>NeXusName[NXdetector]:e&#45;&gt;ErrorLimitedLookupTable[NXdetector]:w</title>
<path fill="none" stroke="black" d="M940.5,-117.5C992.22,-117.5 994.62,-169.14 1039.98,-175.8"/>
<polygon fill="black" stroke="black" points="1039.78,-179.29 1050,-176.5 1040.27,-172.31 1039.78,-179.29"/>
</g>
<!-- Filename[ReferenceRun] -->
<g id="node25" class="node">
<title>Filename[ReferenceRun]</title>
<polygon fill="none" stroke="black" points="141,-413 31,-413 31,-392 141,-392 141,-413"/>
<text text-anchor="start" x="39" y="-399.4" font-family="Times,serif" font-size="12.00">[ReferenceRun]</text>
</g>
<!-- Filename[ReferenceRun]&#45;&gt;RawDetector[ReferenceRun] -->
<g id="edge24" class="edge">
<title>Filename[ReferenceRun]:e&#45;&gt;RawDetector[ReferenceRun]:w</title>
<path fill="none" stroke="black" d="M142,-402.5C191.53,-402.5 198.1,-361.71 241.76,-356.13"/>
<polygon fill="black" stroke="black" points="242.23,-359.61 252,-355.5 241.8,-352.62 242.23,-359.61"/>
</g>
<!-- Filename[SampleRun] -->
<g id="node26" class="node">
<title>Filename[SampleRun]</title>
<polygon fill="none" stroke="black" points="133.5,-388 38.5,-388 38.5,-367 133.5,-367 133.5,-388"/>
<text text-anchor="start" x="46.5" y="-374.4" font-family="Times,serif" font-size="12.00">[SampleRun]</text>
</g>
<!-- Filename[SampleRun]&#45;&gt;RawDetector[SampleRun] -->
<g id="edge26" class="edge">
<title>Filename[SampleRun]:e&#45;&gt;RawDetector[SampleRun]:w</title>
<path fill="none" stroke="black" d="M135,-377.5C190.37,-377.5 199.13,-336.02 248.85,-331"/>
<polygon fill="black" stroke="black" points="249.18,-334.48 259,-330.5 248.84,-327.49 249.18,-334.48"/>
</g>
<!-- LookupTableFilename -->
<g id="node27" class="node">
<title>LookupTableFilename</title>
<polygon fill="none" stroke="black" points="628,-188 455,-188 455,-165 628,-165 628,-188"/>
<text text-anchor="middle" x="541.5" y="-172.8" font-family="Times,serif" font-size="14.00">LookupTableFilename</text>
</g>
<!-- LookupTableFilename&#45;&gt;LookupTable -->
<g id="edge19" class="edge">
<title>LookupTableFilename:e&#45;&gt;LookupTable:w</title>
<path fill="none" stroke="black" d="M629.5,-176.5C688.62,-176.5 705.91,-176.5 760.29,-176.5"/>
<polygon fill="black" stroke="black" points="760.5,-180 770.5,-176.5 760.5,-173 760.5,-180"/>
</g>
<!-- MValue -->
<g id="node28" class="node">
<title>MValue</title>
<polygon fill="none" stroke="black" points="1834,-380 1764,-380 1764,-357 1834,-357 1834,-380"/>
<text text-anchor="middle" x="1799" y="-364.8" font-family="Times,serif" font-size="14.00">MValue</text>
</g>
<!-- MValue&#45;&gt;ReducedReference -->
<g id="edge31" class="edge">
<title>MValue:e&#45;&gt;ReducedReference:w</title>
<path fill="none" stroke="black" d="M1835,-368.5C1916.19,-368.5 1938.99,-368.5 2015.39,-368.5"/>
<polygon fill="black" stroke="black" points="2015.5,-372 2025.5,-368.5 2015.5,-365 2015.5,-372"/>
</g>
<!-- MValue&#45;&gt;Sample -->
<g id="edge54" class="edge">
<title>MValue:e&#45;&gt;Sample:w</title>
<path fill="none" stroke="black" d="M1835,-368.5C1880.01,-368.5 1890.6,-377.13 1935,-384.5 1963.47,-389.22 1970.25,-392.94 1999,-395.5 2118.16,-406.1 2151.04,-397.99 2265.76,-397.52"/>
<polygon fill="black" stroke="black" points="2266.01,-401.02 2276,-397.5 2265.99,-394.02 2266.01,-401.02"/>
</g>
<!-- ProtonCurrent[ReferenceRun] -->
<g id="node29" class="node">
<title>ProtonCurrent[ReferenceRun]</title>
<polygon fill="none" stroke="black" points="1561.5,-115 1451.5,-115 1451.5,-94 1561.5,-94 1561.5,-115"/>
<text text-anchor="start" x="1459.5" y="-101.4" font-family="Times,serif" font-size="12.00">[ReferenceRun]</text>
</g>
<!-- ProtonCurrent[ReferenceRun]&#45;&gt;ReducibleData[ReferenceRun] -->
<g id="edge38" class="edge">
<title>ProtonCurrent[ReferenceRun]:e&#45;&gt;ReducibleData[ReferenceRun]:w</title>
<path fill="none" stroke="black" d="M1562.5,-104.5C1655.12,-104.5 1647.62,-215.06 1733,-223.05"/>
<polygon fill="black" stroke="black" points="1732.85,-226.54 1743,-223.5 1733.17,-219.55 1732.85,-226.54"/>
</g>
<!-- ProtonCurrent[SampleRun] -->
<g id="node30" class="node">
<title>ProtonCurrent[SampleRun]</title>
<polygon fill="none" stroke="black" points="1554,-140 1459,-140 1459,-119 1554,-119 1554,-140"/>
<text text-anchor="start" x="1467" y="-126.4" font-family="Times,serif" font-size="12.00">[SampleRun]</text>
</g>
<!-- ProtonCurrent[SampleRun]&#45;&gt;ReducibleData[SampleRun] -->
<g id="edge42" class="edge">
<title>ProtonCurrent[SampleRun]:e&#45;&gt;ReducibleData[SampleRun]:w</title>
<path fill="none" stroke="black" d="M1555.5,-129.5C1622.29,-129.5 1603.35,-204.46 1663,-234.5 1694.7,-250.47 1708.23,-248.99 1739.64,-248.57"/>
<polygon fill="black" stroke="black" points="1740.03,-252.07 1750,-248.5 1739.97,-245.07 1740.03,-252.07"/>
</g>
<!-- PulseStrideOffset -->
<g id="node31" class="node">
<title>PulseStrideOffset</title>
<polygon fill="none" stroke="black" points="1268,-231 1125,-231 1125,-208 1268,-208 1268,-231"/>
<text text-anchor="middle" x="1196.5" y="-215.8" font-family="Times,serif" font-size="14.00">PulseStrideOffset</text>
</g>
<!-- PulseStrideOffset&#45;&gt;WavelengthDetector[ReferenceRun] -->
<g id="edge61" class="edge">
<title>PulseStrideOffset:e&#45;&gt;WavelengthDetector[ReferenceRun]:w</title>
<path fill="none" stroke="black" stroke-width="2" d="M1269.5,-219.5C1333.52,-219.5 1357.9,-241.43 1404.53,-251.06"/>
<polygon fill="black" stroke="black" stroke-width="2" points="1404.04,-254.53 1414.5,-252.86 1405.28,-247.64 1404.04,-254.53"/>
</g>
<!-- QBins -->
<g id="node32" class="node">
<title>QBins</title>
<polygon fill="none" stroke="black" points="2462.5,-324 2403.5,-324 2403.5,-301 2462.5,-301 2462.5,-324"/>
<text text-anchor="middle" x="2433" y="-308.8" font-family="Times,serif" font-size="14.00">QBins</text>
</g>
<!-- ReflectivityOverQ -->
<g id="node45" class="node">
<title>ReflectivityOverQ</title>
<polygon fill="none" stroke="black" points="2826,-361 2662,-361 2662,-328 2826,-328 2826,-361"/>
<text text-anchor="start" x="2680.5" y="-346.8" font-family="Times,serif" font-size="14.00">ReflectivityOverQ</text>
<text text-anchor="start" x="2670" y="-335.2" font-family="Times,serif" font-size="11.00">via:</text>
<text text-anchor="start" x="2691" y="-335.2" font-family="Times,serif" font-style="italic" font-size="11.00">reduce_sample_over_q</text>
</g>
<!-- QBins&#45;&gt;ReflectivityOverQ -->
<g id="edge50" class="edge">
<title>QBins:e&#45;&gt;ReflectivityOverQ:w</title>
<path fill="none" stroke="black" d="M2464,-312.5C2520.45,-312.5 2534.39,-318.81 2590,-328.5 2618.64,-333.49 2627.32,-342.21 2651.78,-344.12"/>
<polygon fill="black" stroke="black" points="2651.88,-347.63 2662,-344.5 2652.14,-340.63 2651.88,-347.63"/>
</g>
<!-- SampleRotationOffset[ReferenceRun] -->
<g id="node33" class="node">
<title>SampleRotationOffset[ReferenceRun]</title>
<polygon fill="none" stroke="black" points="141,-319 31,-319 31,-298 141,-298 141,-319"/>
<text text-anchor="start" x="39" y="-305.4" font-family="Times,serif" font-size="12.00">[ReferenceRun]</text>
</g>
<!-- SampleRotationOffset[ReferenceRun]&#45;&gt;RawDetector[ReferenceRun] -->
<g id="edge25" class="edge">
<title>SampleRotationOffset[ReferenceRun]:e&#45;&gt;RawDetector[ReferenceRun]:w</title>
<path fill="none" stroke="black" d="M142,-308.5C191.53,-308.5 198.1,-349.29 241.76,-354.87"/>
<polygon fill="black" stroke="black" points="241.8,-358.38 252,-355.5 242.23,-351.39 241.8,-358.38"/>
</g>
<!-- SampleRotationOffset[SampleRun] -->
<g id="node34" class="node">
<title>SampleRotationOffset[SampleRun]</title>
<polygon fill="none" stroke="black" points="133.5,-294 38.5,-294 38.5,-273 133.5,-273 133.5,-294"/>
<text text-anchor="start" x="46.5" y="-280.4" font-family="Times,serif" font-size="12.00">[SampleRun]</text>
</g>
<!-- SampleRotationOffset[SampleRun]&#45;&gt;RawDetector[SampleRun] -->
<g id="edge27" class="edge">
<title>SampleRotationOffset[SampleRun]:e&#45;&gt;RawDetector[SampleRun]:w</title>
<path fill="none" stroke="black" d="M135,-283.5C190.37,-283.5 199.13,-324.98 248.85,-330"/>
<polygon fill="black" stroke="black" points="248.84,-333.51 259,-330.5 249.18,-326.52 248.84,-333.51"/>
</g>
<!-- ReducibleData[ReferenceRun]&#45;&gt;ReducedReference -->
<g id="edge28" class="edge">
<title>ReducibleData[ReferenceRun]:e&#45;&gt;ReducedReference:w</title>
<path fill="none" stroke="black" d="M1855,-223.5C1891.18,-223.5 1904.62,-218.86 1935,-238.5 1991,-274.71 1958.94,-358.97 2015.24,-367.76"/>
<polygon fill="black" stroke="black" points="2015.27,-371.27 2025.5,-368.5 2015.78,-364.29 2015.27,-371.27"/>
</g>
<!-- ReducedReference&#45;&gt;Reference -->
<g id="edge44" class="edge">
<title>ReducedReference:e&#45;&gt;Reference:w</title>
<path fill="none" stroke="black" d="M2177.5,-368.5C2255.37,-368.5 2275.9,-346.52 2348.85,-344.63"/>
<polygon fill="black" stroke="black" points="2349.05,-348.13 2359,-344.5 2348.96,-341.13 2349.05,-348.13"/>
</g>
<!-- ReducedReference&#45;&gt;Sample -->
<g id="edge52" class="edge">
<title>ReducedReference:e&#45;&gt;Sample:w</title>
<path fill="none" stroke="black" d="M2177.5,-368.5C2219.57,-368.5 2229,-393.15 2265.97,-397"/>
<polygon fill="black" stroke="black" points="2265.84,-400.49 2276,-397.5 2266.19,-393.5 2265.84,-400.49"/>
</g>
<!-- WavelengthBins -->
<g id="node37" class="node">
<title>WavelengthBins</title>
<polygon fill="none" stroke="black" points="1572.5,-23 1440.5,-23 1440.5,0 1572.5,0 1572.5,-23"/>
<text text-anchor="middle" x="1506.5" y="-7.8" font-family="Times,serif" font-size="14.00">WavelengthBins</text>
</g>
<!-- WavelengthBins&#45;&gt;ReducibleData[ReferenceRun] -->
<g id="edge37" class="edge">
<title>WavelengthBins:e&#45;&gt;ReducibleData[ReferenceRun]:w</title>
<path fill="none" stroke="black" stroke-width="2" d="M1573.5,-11.5C1667.26,-11.5 1644.79,-139.56 1686.77,-196.62"/>
<polygon fill="black" stroke="black" stroke-width="2" points="1684.31,-199.14 1693.45,-204.5 1689.65,-194.61 1684.31,-199.14"/>
</g>
<!-- WavelengthBins&#45;&gt;ReducedReference -->
<g id="edge29" class="edge">
<title>WavelengthBins:e&#45;&gt;ReducedReference:w</title>
<path fill="none" stroke="black" d="M1573.5,-11.5C1755.42,-11.5 1807.54,-73.69 1935,-203.5 1991.08,-260.62 1946.1,-359.53 2015.45,-367.93"/>
<polygon fill="black" stroke="black" points="2015.32,-371.43 2025.5,-368.5 2015.71,-364.44 2015.32,-371.43"/>
</g>
<!-- WavelengthDetector[ReferenceRun]&#45;&gt;ReducibleData[ReferenceRun] -->
<g id="edge33" class="edge">
<title>WavelengthDetector[ReferenceRun]:e&#45;&gt;ReducibleData[ReferenceRun]:w</title>
<path fill="none" stroke="black" d="M1562.5,-255.5C1640.47,-255.5 1659.9,-226.19 1732.84,-223.67"/>
<polygon fill="black" stroke="black" points="1733.06,-227.17 1743,-223.5 1732.94,-220.17 1733.06,-227.17"/>
</g>
<!-- YIndexLimits -->
<g id="node39" class="node">
<title>YIndexLimits</title>
<polygon fill="none" stroke="black" points="1561.5,-77 1451.5,-77 1451.5,-54 1561.5,-54 1561.5,-77"/>
<text text-anchor="middle" x="1506.5" y="-61.8" font-family="Times,serif" font-size="14.00">YIndexLimits</text>
</g>
<!-- YIndexLimits&#45;&gt;ReducibleData[ReferenceRun] -->
<g id="edge34" class="edge">
<title>YIndexLimits:e&#45;&gt;ReducibleData[ReferenceRun]:w</title>
<path fill="none" stroke="black" stroke-width="2" d="M1562.5,-65.5C1641.47,-65.5 1643.99,-152.19 1683.32,-197.14"/>
<polygon fill="black" stroke="black" stroke-width="2" points="1681.03,-199.81 1690.53,-204.5 1686.03,-194.91 1681.03,-199.81"/>
</g>
<!-- ZIndexLimits -->
<g id="node40" class="node">
<title>ZIndexLimits</title>
<polygon fill="none" stroke="black" points="1562,-50 1451,-50 1451,-27 1562,-27 1562,-50"/>
<text text-anchor="middle" x="1506.5" y="-34.8" font-family="Times,serif" font-size="14.00">ZIndexLimits</text>
</g>
<!-- ZIndexLimits&#45;&gt;ReducibleData[ReferenceRun] -->
<g id="edge35" class="edge">
<title>ZIndexLimits:e&#45;&gt;ReducibleData[ReferenceRun]:w</title>
<path fill="none" stroke="black" stroke-width="2" d="M1562.5,-38.5C1650.06,-38.5 1642.27,-145.99 1684.48,-197.1"/>
<polygon fill="black" stroke="black" stroke-width="2" points="1682.02,-199.58 1691.4,-204.5 1687.13,-194.81 1682.02,-199.58"/>
</g>
<!-- WavelengthDetector[SampleRun]&#45;&gt;ReducibleData[SampleRun] -->
<g id="edge41" class="edge">
<title>WavelengthDetector[SampleRun]:e&#45;&gt;ReducibleData[SampleRun]:w</title>
<path fill="none" stroke="black" d="M1555.5,-230.5C1638.75,-230.5 1661.36,-247.05 1739.64,-248.41"/>
<polygon fill="black" stroke="black" points="1739.97,-251.91 1750,-248.5 1740.03,-244.91 1739.97,-251.91"/>
</g>
<!-- ReducibleData[SampleRun]&#45;&gt;Reference -->
<g id="edge45" class="edge">
<title>ReducibleData[SampleRun]:e&#45;&gt;Reference:w</title>
<path fill="none" stroke="black" d="M1848,-248.5C1923.74,-248.5 1925.9,-307.69 1999,-327.5 2035.24,-337.32 2284.74,-343.67 2348.78,-344.42"/>
<polygon fill="black" stroke="black" points="2348.97,-347.93 2359,-344.5 2349.03,-340.93 2348.97,-347.93"/>
</g>
<!-- ReducibleData[SampleRun]&#45;&gt;Sample -->
<g id="edge51" class="edge">
<title>ReducibleData[SampleRun]:e&#45;&gt;Sample:w</title>
<path fill="none" stroke="black" d="M1848,-248.5C1938.62,-248.5 1915.19,-351.04 1999,-385.5 2025.32,-396.32 2213.13,-397.39 2265.87,-397.49"/>
<polygon fill="black" stroke="black" points="2266,-400.99 2276,-397.5 2266,-393.99 2266,-400.99"/>
</g>
<!-- Reference&#45;&gt;ReflectivityOverQ -->
<g id="edge49" class="edge">
<title>Reference:e&#45;&gt;ReflectivityOverQ:w</title>
<path fill="none" stroke="black" d="M2507,-344.5C2572.39,-344.5 2591.23,-344.5 2651.89,-344.5"/>
<polygon fill="black" stroke="black" points="2652,-348 2662,-344.5 2652,-341 2652,-348"/>
</g>
<!-- Sample&#45;&gt;ReflectivityOverQ -->
<g id="edge48" class="edge">
<title>Sample:e&#45;&gt;ReflectivityOverQ:w</title>
<path fill="none" stroke="black" d="M2590,-397.5C2626.01,-397.5 2623.25,-353.97 2651.99,-345.81"/>
<polygon fill="black" stroke="black" points="2652.54,-349.27 2662,-344.5 2651.63,-342.33 2652.54,-349.27"/>
</g>
</g>
</svg>
