<?xml version="1.0" encoding="UTF-8" standalone="no"?>
<!DOCTYPE svg PUBLIC "-//W3C//DTD SVG 1.1//EN"
 "http://www.w3.org/Graphics/SVG/1.1/DTD/svg11.dtd">
<!-- Generated by graphviz version 2.43.0 (0)
 -->
<!-- Title: %3 Pages: 1 -->
<svg width="2265pt" height="979pt"
 viewBox="0.00 0.00 2265.00 979.00" xmlns="http://www.w3.org/2000/svg" xmlns:xlink="http://www.w3.org/1999/xlink">
<g id="graph0" class="graph" transform="scale(1 1) rotate(0) translate(4 975)">
<title>%3</title>
<polygon fill="white" stroke="transparent" points="-4,4 -4,-975 2261,-975 2261,4 -4,4"/>
<g id="clust3" class="cluster">
<title>cluster_BeamSize</title>
<polygon fill="#f0f0ff" stroke="#f0f0ff" points="477.5,-833.5 477.5,-919.5 603.5,-919.5 603.5,-833.5 477.5,-833.5"/>
<text text-anchor="middle" x="540.5" y="-904.3" font-family="Times,serif" font-size="14.00">BeamSize</text>
</g>
<g id="clust4" class="cluster">
<title>cluster_ChopperDistance</title>
<polygon fill="#f0f0ff" stroke="#f0f0ff" points="441.5,-219.5 441.5,-315.5 640.5,-315.5 640.5,-219.5 441.5,-219.5"/>
<text text-anchor="start" x="479" y="-301.3" font-family="Times,serif" font-size="14.00">ChopperDistance</text>
<text text-anchor="start" x="449.5" y="-289.7" font-family="Times,serif" font-size="11.00">via:</text>
<text text-anchor="start" x="470.5" y="-289.7" font-family="Times,serif" font-style="italic" font-size="11.00">load_amor_chopper_distance</text>
</g>
<g id="clust5" class="cluster">
<title>cluster_ChopperFrequency</title>
<polygon fill="#f0f0ff" stroke="#f0f0ff" points="464.5,-531.5 464.5,-617.5 617.5,-617.5 617.5,-531.5 464.5,-531.5"/>
<text text-anchor="middle" x="541" y="-602.3" font-family="Times,serif" font-size="14.00">ChopperFrequency</text>
</g>
<g id="clust6" class="cluster">
<title>cluster_ChopperPhase</title>
<polygon fill="#f0f0ff" stroke="#f0f0ff" points="477.5,-125.5 477.5,-211.5 603.5,-211.5 603.5,-125.5 477.5,-125.5"/>
<text text-anchor="middle" x="540.5" y="-196.3" font-family="Times,serif" font-size="14.00">ChopperPhase</text>
</g>
<g id="clust7" class="cluster">
<title>cluster_ChopperSeparation</title>
<polygon fill="#f0f0ff" stroke="#f0f0ff" points="434.5,-323.5 434.5,-419.5 646.5,-419.5 646.5,-323.5 434.5,-323.5"/>
<text text-anchor="start" x="471" y="-405.3" font-family="Times,serif" font-size="14.00">ChopperSeparation</text>
<text text-anchor="start" x="442.5" y="-393.7" font-family="Times,serif" font-size="11.00">via:</text>
<text text-anchor="start" x="463.5" y="-393.7" font-family="Times,serif" font-style="italic" font-size="11.00">load_amor_chopper_separation</text>
</g>
<g id="clust10" class="cluster">
<title>cluster_DetectorRotation</title>
<polygon fill="#f0f0ff" stroke="#f0f0ff" points="441.5,-625.5 441.5,-721.5 640.5,-721.5 640.5,-625.5 441.5,-625.5"/>
<text text-anchor="start" x="479" y="-707.3" font-family="Times,serif" font-size="14.00">DetectorRotation</text>
<text text-anchor="start" x="449.5" y="-695.7" font-family="Times,serif" font-size="11.00">via:</text>
<text text-anchor="start" x="470.5" y="-695.7" font-family="Times,serif" font-style="italic" font-size="11.00">load_amor_detector_rotation</text>
</g>
<g id="clust12" class="cluster">
<title>cluster_Filename</title>
<polygon fill="#f0f0ff" stroke="#f0f0ff" points="8,-624.5 8,-710.5 134,-710.5 134,-624.5 8,-624.5"/>
<text text-anchor="middle" x="71" y="-695.3" font-family="Times,serif" font-size="14.00">Filename</text>
</g>
<g id="clust14" class="cluster">
<title>cluster_LoadedNeXusDetector</title>
<polygon fill="#f0f0ff" stroke="#f0f0ff" points="452.5,-729.5 452.5,-825.5 629.5,-825.5 629.5,-729.5 452.5,-729.5"/>
<text text-anchor="start" x="460.5" y="-811.3" font-family="Times,serif" font-size="14.00">LoadedNeXusDetector</text>
<text text-anchor="start" x="492" y="-799.7" font-family="Times,serif" font-size="11.00">via:</text>
<text text-anchor="start" x="513" y="-799.7" font-family="Times,serif" font-style="italic" font-size="11.00">load_detector</text>
</g>
<g id="clust16" class="cluster">
<title>cluster_NeXusDetectorName</title>
<polygon fill="#f0f0ff" stroke="#f0f0ff" points="199,-699.5 199,-785.5 366,-785.5 366,-699.5 199,-699.5"/>
<text text-anchor="middle" x="282.5" y="-770.3" font-family="Times,serif" font-size="14.00">NeXusDetectorName</text>
</g>
<g id="clust17" class="cluster">
<title>cluster_ProtonCurrent</title>
<polygon fill="#f0f0ff" stroke="#f0f0ff" points="190,-816.5 190,-912.5 375,-912.5 375,-816.5 190,-816.5"/>
<text text-anchor="start" x="230" y="-898.3" font-family="Times,serif" font-size="14.00">ProtonCurrent</text>
<text text-anchor="start" x="198" y="-886.7" font-family="Times,serif" font-size="11.00">via:</text>
<text text-anchor="start" x="219" y="-886.7" font-family="Times,serif" font-style="italic" font-size="11.00">load_amor_proton_current</text>
</g>
<g id="clust19" class="cluster">
<title>cluster_RawChopper</title>
<polygon fill="#f0f0ff" stroke="#f0f0ff" points="219,-323.5 219,-419.5 345,-419.5 345,-323.5 219,-323.5"/>
<text text-anchor="start" x="236" y="-405.3" font-family="Times,serif" font-size="14.00">RawChopper</text>
<text text-anchor="start" x="231.5" y="-393.7" font-family="Times,serif" font-size="11.00">via:</text>
<text text-anchor="start" x="252.5" y="-393.7" font-family="Times,serif" font-style="italic" font-size="11.00">amor_chopper</text>
</g>
<g id="clust20" class="cluster">
<title>cluster_RawDetectorData</title>
<polygon fill="#f0f0ff" stroke="#f0f0ff" points="755,-531.5 755,-627.5 898,-627.5 898,-531.5 755,-531.5"/>
<text text-anchor="start" x="763" y="-613.3" font-family="Times,serif" font-size="14.00">RawDetectorData</text>
<text text-anchor="start" x="782.5" y="-601.7" font-family="Times,serif" font-size="11.00">via:</text>
<text text-anchor="start" x="803.5" y="-601.7" font-family="Times,serif" font-style="italic" font-size="11.00">load_events</text>
</g>
<g id="clust22" class="cluster">
<title>cluster_ReducibleData</title>
<polygon fill="#f0f0ff" stroke="#f0f0ff" points="1002,-531.5 1002,-627.5 1274,-627.5 1274,-531.5 1002,-531.5"/>
<text text-anchor="start" x="1085.5" y="-613.3" font-family="Times,serif" font-size="14.00">ReducibleData</text>
<text text-anchor="start" x="1010" y="-601.7" font-family="Times,serif" font-size="11.00">via:</text>
<text text-anchor="start" x="1031" y="-601.7" font-family="Times,serif" font-style="italic" font-size="11.00">add_coords_masks_and_apply_corrections</text>
</g>
<g id="clust26" class="cluster">
<title>cluster_SampleRotation</title>
<polygon fill="#f0f0ff" stroke="#f0f0ff" points="444.5,-427.5 444.5,-523.5 636.5,-523.5 636.5,-427.5 444.5,-427.5"/>
<text text-anchor="start" x="483" y="-509.3" font-family="Times,serif" font-size="14.00">SampleRotation</text>
<text text-anchor="start" x="452.5" y="-497.7" font-family="Times,serif" font-size="11.00">via:</text>
<text text-anchor="start" x="473.5" y="-497.7" font-family="Times,serif" font-style="italic" font-size="11.00">load_amor_sample_rotation</text>
</g>
<g id="clust27" class="cluster">
<title>cluster_SampleSize</title>
<polygon fill="#f0f0ff" stroke="#f0f0ff" points="477.5,-31.5 477.5,-117.5 603.5,-117.5 603.5,-31.5 477.5,-31.5"/>
<text text-anchor="middle" x="540.5" y="-102.3" font-family="Times,serif" font-size="14.00">SampleSize</text>
</g>
<!-- Alpha -->
<g id="node1" class="node">
<title>Alpha</title>
<polygon fill="none" stroke="black" points="1166.5,-713 1109.5,-713 1109.5,-690 1166.5,-690 1166.5,-713"/>
<text text-anchor="middle" x="1138" y="-697.8" font-family="Times,serif" font-size="14.00">Alpha</text>
</g>
<!-- ReducedReference -->
<g id="node38" class="node">
<title>ReducedReference</title>
<polygon fill="none" stroke="black" points="1561.5,-640 1411.5,-640 1411.5,-607 1561.5,-607 1561.5,-640"/>
<text text-anchor="start" x="1419.5" y="-625.8" font-family="Times,serif" font-size="14.00">ReducedReference</text>
<text text-anchor="start" x="1427" y="-614.2" font-family="Times,serif" font-size="11.00">via:</text>
<text text-anchor="start" x="1448" y="-614.2" font-family="Times,serif" font-style="italic" font-size="11.00">reduce_reference</text>
</g>
<!-- Alpha&#45;&gt;ReducedReference -->
<g id="edge38" class="edge">
<title>Alpha:e&#45;&gt;ReducedReference:w</title>
<path fill="none" stroke="black" d="M1168,-701.5C1215.58,-701.5 1228.36,-699.95 1274,-686.5 1334.71,-668.61 1342.93,-628.08 1400.42,-623.86"/>
<polygon fill="black" stroke="black" points="1400.63,-627.35 1410.5,-623.5 1400.38,-620.36 1400.63,-627.35"/>
</g>
<!-- Sample -->
<g id="node44" class="node">
<title>Sample</title>
<polygon fill="none" stroke="black" points="2021,-652 1707,-652 1707,-619 2021,-619 2021,-652"/>
<text text-anchor="start" x="1837" y="-637.8" font-family="Times,serif" font-size="14.00">Sample</text>
<text text-anchor="start" x="1715" y="-626.2" font-family="Times,serif" font-size="11.00">via:</text>
<text text-anchor="start" x="1736" y="-626.2" font-family="Times,serif" font-style="italic" font-size="11.00">mask_events_where_supermirror_does_not_cover</text>
</g>
<!-- Alpha&#45;&gt;Sample -->
<g id="edge59" class="edge">
<title>Alpha:e&#45;&gt;Sample:w</title>
<path fill="none" stroke="black" d="M1168,-701.5C1376.24,-701.5 1432.06,-710.17 1635,-663.5 1664.8,-656.65 1671.4,-639.79 1696.74,-636.19"/>
<polygon fill="black" stroke="black" points="1697.26,-639.66 1707,-635.5 1696.79,-632.67 1697.26,-639.66"/>
</g>
<!-- BeamDivergenceLimits -->
<g id="node2" class="node">
<title>BeamDivergenceLimits</title>
<polygon fill="none" stroke="black" points="917.5,-971 734.5,-971 734.5,-948 917.5,-948 917.5,-971"/>
<text text-anchor="middle" x="826" y="-955.8" font-family="Times,serif" font-size="14.00">BeamDivergenceLimits</text>
</g>
<!-- ReducibleData[ReferenceRun] -->
<g id="node37" class="node">
<title>ReducibleData[ReferenceRun]</title>
<polygon fill="none" stroke="black" points="1193,-586 1083,-586 1083,-565 1193,-565 1193,-586"/>
<text text-anchor="start" x="1091" y="-572.4" font-family="Times,serif" font-size="12.00">[ReferenceRun]</text>
</g>
<!-- BeamDivergenceLimits&#45;&gt;ReducibleData[ReferenceRun] -->
<g id="edge42" class="edge">
<title>BeamDivergenceLimits:e&#45;&gt;ReducibleData[ReferenceRun]:w</title>
<path fill="none" stroke="black" stroke-width="2" d="M919,-959.5C929.76,-959.5 932.35,-953.66 938,-944.5 1010.17,-827.59 930.08,-756.37 1001.09,-636.23"/>
<polygon fill="black" stroke="black" stroke-width="2" points="1004.21,-637.85 1006.47,-627.5 998.25,-634.18 1004.21,-637.85"/>
</g>
<!-- BeamSize[ReferenceRun] -->
<g id="node3" class="node">
<title>BeamSize[ReferenceRun]</title>
<polygon fill="none" stroke="black" points="595.5,-888 485.5,-888 485.5,-867 595.5,-867 595.5,-888"/>
<text text-anchor="start" x="493.5" y="-874.4" font-family="Times,serif" font-size="12.00">[ReferenceRun]</text>
</g>
<!-- RawDetectorData[ReferenceRun] -->
<g id="node31" class="node">
<title>RawDetectorData[ReferenceRun]</title>
<polygon fill="none" stroke="black" points="881,-586 771,-586 771,-565 881,-565 881,-586"/>
<text text-anchor="start" x="779" y="-572.4" font-family="Times,serif" font-size="12.00">[ReferenceRun]</text>
</g>
<!-- BeamSize[ReferenceRun]&#45;&gt;RawDetectorData[ReferenceRun] -->
<g id="edge24" class="edge">
<title>BeamSize[ReferenceRun]:e&#45;&gt;RawDetectorData[ReferenceRun]:w</title>
<path fill="none" stroke="black" d="M596.5,-877.5C619.58,-877.5 629.14,-878.71 646.5,-863.5 748.61,-774.06 636.7,-585.4 759.89,-575.87"/>
<polygon fill="black" stroke="black" points="760.14,-579.37 770,-575.5 759.88,-572.37 760.14,-579.37"/>
</g>
<!-- BeamSize[SampleRun] -->
<g id="node4" class="node">
<title>BeamSize[SampleRun]</title>
<polygon fill="none" stroke="black" points="588,-863 493,-863 493,-842 588,-842 588,-863"/>
<text text-anchor="start" x="501" y="-849.4" font-family="Times,serif" font-size="12.00">[SampleRun]</text>
</g>
<!-- RawDetectorData[SampleRun] -->
<g id="node34" class="node">
<title>RawDetectorData[SampleRun]</title>
<polygon fill="none" stroke="black" points="873.5,-561 778.5,-561 778.5,-540 873.5,-540 873.5,-561"/>
<text text-anchor="start" x="786.5" y="-547.4" font-family="Times,serif" font-size="12.00">[SampleRun]</text>
</g>
<!-- BeamSize[SampleRun]&#45;&gt;RawDetectorData[SampleRun] -->
<g id="edge33" class="edge">
<title>BeamSize[SampleRun]:e&#45;&gt;RawDetectorData[SampleRun]:w</title>
<path fill="none" stroke="black" d="M589.5,-852.5C728.54,-852.5 614.74,-662.86 714,-565.5 731.98,-547.86 744.69,-549.61 766.87,-550.32"/>
<polygon fill="black" stroke="black" points="766.94,-553.82 777,-550.5 767.06,-546.82 766.94,-553.82"/>
</g>
<!-- RawChopper[ReferenceRun] -->
<g id="node5" class="node">
<title>RawChopper[ReferenceRun]</title>
<polygon fill="none" stroke="black" points="337,-378 227,-378 227,-357 337,-357 337,-378"/>
<text text-anchor="start" x="235" y="-364.4" font-family="Times,serif" font-size="12.00">[ReferenceRun]</text>
</g>
<!-- ChopperDistance[ReferenceRun] -->
<g id="node6" class="node">
<title>ChopperDistance[ReferenceRun]</title>
<polygon fill="none" stroke="black" points="595.5,-274 485.5,-274 485.5,-253 595.5,-253 595.5,-274"/>
<text text-anchor="start" x="493.5" y="-260.4" font-family="Times,serif" font-size="12.00">[ReferenceRun]</text>
</g>
<!-- RawChopper[ReferenceRun]&#45;&gt;ChopperDistance[ReferenceRun] -->
<g id="edge1" class="edge">
<title>RawChopper[ReferenceRun]:e&#45;&gt;ChopperDistance[ReferenceRun]:w</title>
<path fill="none" stroke="black" d="M338,-367.5C414.26,-367.5 405.65,-272.63 474.29,-264.11"/>
<polygon fill="black" stroke="black" points="474.73,-267.59 484.5,-263.5 474.31,-260.6 474.73,-267.59"/>
</g>
<!-- ChopperSeparation[ReferenceRun] -->
<g id="node13" class="node">
<title>ChopperSeparation[ReferenceRun]</title>
<polygon fill="none" stroke="black" points="595.5,-378 485.5,-378 485.5,-357 595.5,-357 595.5,-378"/>
<text text-anchor="start" x="493.5" y="-364.4" font-family="Times,serif" font-size="12.00">[ReferenceRun]</text>
</g>
<!-- RawChopper[ReferenceRun]&#45;&gt;ChopperSeparation[ReferenceRun] -->
<g id="edge3" class="edge">
<title>RawChopper[ReferenceRun]:e&#45;&gt;ChopperSeparation[ReferenceRun]:w</title>
<path fill="none" stroke="black" d="M338,-367.5C399.55,-367.5 417.46,-367.5 474.24,-367.5"/>
<polygon fill="black" stroke="black" points="474.5,-371 484.5,-367.5 474.5,-364 474.5,-371"/>
</g>
<!-- ChopperDistance[ReferenceRun]&#45;&gt;RawDetectorData[ReferenceRun] -->
<g id="edge21" class="edge">
<title>ChopperDistance[ReferenceRun]:e&#45;&gt;RawDetectorData[ReferenceRun]:w</title>
<path fill="none" stroke="black" d="M596.5,-263.5C630.87,-263.5 630.35,-292.16 646.5,-322.5 698.36,-419.93 634.78,-484.64 714,-561.5 729.82,-576.85 740.86,-576.16 759.93,-575.66"/>
<polygon fill="black" stroke="black" points="760.06,-579.16 770,-575.5 759.95,-572.16 760.06,-579.16"/>
</g>
<!-- RawChopper[SampleRun] -->
<g id="node7" class="node">
<title>RawChopper[SampleRun]</title>
<polygon fill="none" stroke="black" points="329.5,-353 234.5,-353 234.5,-332 329.5,-332 329.5,-353"/>
<text text-anchor="start" x="242.5" y="-339.4" font-family="Times,serif" font-size="12.00">[SampleRun]</text>
</g>
<!-- ChopperDistance[SampleRun] -->
<g id="node8" class="node">
<title>ChopperDistance[SampleRun]</title>
<polygon fill="none" stroke="black" points="588,-249 493,-249 493,-228 588,-228 588,-249"/>
<text text-anchor="start" x="501" y="-235.4" font-family="Times,serif" font-size="12.00">[SampleRun]</text>
</g>
<!-- RawChopper[SampleRun]&#45;&gt;ChopperDistance[SampleRun] -->
<g id="edge2" class="edge">
<title>RawChopper[SampleRun]:e&#45;&gt;ChopperDistance[SampleRun]:w</title>
<path fill="none" stroke="black" d="M331,-342.5C391.67,-342.5 380.79,-281.72 434.5,-253.5 454.43,-243.03 462.85,-239.48 481.46,-238.69"/>
<polygon fill="black" stroke="black" points="481.57,-242.18 491.5,-238.5 481.44,-235.19 481.57,-242.18"/>
</g>
<!-- ChopperSeparation[SampleRun] -->
<g id="node14" class="node">
<title>ChopperSeparation[SampleRun]</title>
<polygon fill="none" stroke="black" points="588,-353 493,-353 493,-332 588,-332 588,-353"/>
<text text-anchor="start" x="501" y="-339.4" font-family="Times,serif" font-size="12.00">[SampleRun]</text>
</g>
<!-- RawChopper[SampleRun]&#45;&gt;ChopperSeparation[SampleRun] -->
<g id="edge4" class="edge">
<title>RawChopper[SampleRun]:e&#45;&gt;ChopperSeparation[SampleRun]:w</title>
<path fill="none" stroke="black" d="M331,-342.5C398.85,-342.5 418.3,-342.5 481.42,-342.5"/>
<polygon fill="black" stroke="black" points="481.5,-346 491.5,-342.5 481.5,-339 481.5,-346"/>
</g>
<!-- ChopperDistance[SampleRun]&#45;&gt;RawDetectorData[SampleRun] -->
<g id="edge30" class="edge">
<title>ChopperDistance[SampleRun]:e&#45;&gt;RawDetectorData[SampleRun]:w</title>
<path fill="none" stroke="black" d="M589.5,-238.5C615.7,-238.5 628.11,-234.85 646.5,-253.5 733.95,-342.19 632.04,-431.71 714,-525.5 731.42,-545.44 743.62,-549.64 766.77,-550.37"/>
<polygon fill="black" stroke="black" points="766.96,-553.87 777,-550.5 767.05,-546.87 766.96,-553.87"/>
</g>
<!-- ChopperFrequency[ReferenceRun] -->
<g id="node9" class="node">
<title>ChopperFrequency[ReferenceRun]</title>
<polygon fill="none" stroke="black" points="595.5,-586 485.5,-586 485.5,-565 595.5,-565 595.5,-586"/>
<text text-anchor="start" x="493.5" y="-572.4" font-family="Times,serif" font-size="12.00">[ReferenceRun]</text>
</g>
<!-- ChopperFrequency[ReferenceRun]&#45;&gt;RawDetectorData[ReferenceRun] -->
<g id="edge20" class="edge">
<title>ChopperFrequency[ReferenceRun]:e&#45;&gt;RawDetectorData[ReferenceRun]:w</title>
<path fill="none" stroke="black" d="M596.5,-575.5C670.15,-575.5 691.04,-575.5 759.95,-575.5"/>
<polygon fill="black" stroke="black" points="760,-579 770,-575.5 760,-572 760,-579"/>
</g>
<!-- ChopperFrequency[SampleRun] -->
<g id="node10" class="node">
<title>ChopperFrequency[SampleRun]</title>
<polygon fill="none" stroke="black" points="588,-561 493,-561 493,-540 588,-540 588,-561"/>
<text text-anchor="start" x="501" y="-547.4" font-family="Times,serif" font-size="12.00">[SampleRun]</text>
</g>
<!-- ChopperFrequency[SampleRun]&#45;&gt;RawDetectorData[SampleRun] -->
<g id="edge29" class="edge">
<title>ChopperFrequency[SampleRun]:e&#45;&gt;RawDetectorData[SampleRun]:w</title>
<path fill="none" stroke="black" d="M589.5,-550.5C669.25,-550.5 691.76,-550.5 766.59,-550.5"/>
<polygon fill="black" stroke="black" points="767,-554 777,-550.5 767,-547 767,-554"/>
</g>
<!-- ChopperPhase[ReferenceRun] -->
<g id="node11" class="node">
<title>ChopperPhase[ReferenceRun]</title>
<polygon fill="none" stroke="black" points="595.5,-180 485.5,-180 485.5,-159 595.5,-159 595.5,-180"/>
<text text-anchor="start" x="493.5" y="-166.4" font-family="Times,serif" font-size="12.00">[ReferenceRun]</text>
</g>
<!-- ChopperPhase[ReferenceRun]&#45;&gt;RawDetectorData[ReferenceRun] -->
<g id="edge19" class="edge">
<title>ChopperPhase[ReferenceRun]:e&#45;&gt;RawDetectorData[ReferenceRun]:w</title>
<path fill="none" stroke="black" d="M596.5,-169.5C627.61,-169.5 631.72,-191.12 646.5,-218.5 720.29,-355.23 606.96,-448.89 714,-561.5 729.19,-577.48 740.68,-576.33 759.9,-575.7"/>
<polygon fill="black" stroke="black" points="760.07,-579.19 770,-575.5 759.93,-572.19 760.07,-579.19"/>
</g>
<!-- ChopperPhase[SampleRun] -->
<g id="node12" class="node">
<title>ChopperPhase[SampleRun]</title>
<polygon fill="none" stroke="black" points="588,-155 493,-155 493,-134 588,-134 588,-155"/>
<text text-anchor="start" x="501" y="-141.4" font-family="Times,serif" font-size="12.00">[SampleRun]</text>
</g>
<!-- ChopperPhase[SampleRun]&#45;&gt;RawDetectorData[SampleRun] -->
<g id="edge28" class="edge">
<title>ChopperPhase[SampleRun]:e&#45;&gt;RawDetectorData[SampleRun]:w</title>
<path fill="none" stroke="black" d="M589.5,-144.5C767.64,-144.5 600.92,-387.85 714,-525.5 730.81,-545.96 743.47,-549.77 766.74,-550.39"/>
<polygon fill="black" stroke="black" points="766.96,-553.89 777,-550.5 767.04,-546.89 766.96,-553.89"/>
</g>
<!-- ChopperSeparation[ReferenceRun]&#45;&gt;RawDetectorData[ReferenceRun] -->
<g id="edge22" class="edge">
<title>ChopperSeparation[ReferenceRun]:e&#45;&gt;RawDetectorData[ReferenceRun]:w</title>
<path fill="none" stroke="black" d="M596.5,-367.5C630.87,-367.5 627.57,-397.81 646.5,-426.5 683.45,-482.49 661.67,-519.52 714,-561.5 731.12,-575.23 741.16,-575.72 759.76,-575.57"/>
<polygon fill="black" stroke="black" points="760.02,-579.07 770,-575.5 759.98,-572.07 760.02,-579.07"/>
</g>
<!-- ChopperSeparation[SampleRun]&#45;&gt;RawDetectorData[SampleRun] -->
<g id="edge31" class="edge">
<title>ChopperSeparation[SampleRun]:e&#45;&gt;RawDetectorData[SampleRun]:w</title>
<path fill="none" stroke="black" d="M589.5,-342.5C615.7,-342.5 626.86,-340.17 646.5,-357.5 706.83,-410.74 656.98,-468.72 714,-525.5 732.76,-544.18 743.94,-549.34 766.82,-550.31"/>
<polygon fill="black" stroke="black" points="766.94,-553.81 777,-550.5 767.07,-546.81 766.94,-553.81"/>
</g>
<!-- GravityToggle -->
<g id="node15" class="node">
<title>GravityToggle</title>
<polygon fill="none" stroke="black" points="599,-23 482,-23 482,0 599,0 599,-23"/>
<text text-anchor="middle" x="540.5" y="-7.8" font-family="Times,serif" font-size="14.00">GravityToggle</text>
</g>
<!-- CoordTransformationGraph -->
<g id="node16" class="node">
<title>CoordTransformationGraph</title>
<polygon fill="none" stroke="black" points="938,-496 714,-496 714,-463 938,-463 938,-496"/>
<text text-anchor="start" x="727" y="-481.8" font-family="Times,serif" font-size="14.00">CoordTransformationGraph</text>
<text text-anchor="start" x="722" y="-470.2" font-family="Times,serif" font-size="11.00">via:</text>
<text text-anchor="start" x="743" y="-470.2" font-family="Times,serif" font-style="italic" font-size="11.00">coordinate_transformation_graph</text>
</g>
<!-- GravityToggle&#45;&gt;CoordTransformationGraph -->
<g id="edge5" class="edge">
<title>GravityToggle:e&#45;&gt;CoordTransformationGraph:w</title>
<path fill="none" stroke="black" d="M600.5,-11.5C622.62,-11.5 632.87,-13.08 646.5,-30.5 706.51,-107.16 619.63,-453.87 704.07,-478.16"/>
<polygon fill="black" stroke="black" points="703.62,-481.63 714,-479.5 704.56,-474.69 703.62,-481.63"/>
</g>
<!-- CoordTransformationGraph&#45;&gt;ReducibleData[ReferenceRun] -->
<g id="edge45" class="edge">
<title>CoordTransformationGraph:e&#45;&gt;ReducibleData[ReferenceRun]:w</title>
<path fill="none" stroke="black" stroke-width="2" d="M938,-479.5C980.62,-479.5 965.36,-528.97 993.77,-555.34"/>
<polygon fill="black" stroke="black" stroke-width="2" points="991.9,-558.3 1002,-561.5 996.1,-552.7 991.9,-558.3"/>
</g>
<!-- Reference -->
<g id="node43" class="node">
<title>Reference</title>
<polygon fill="none" stroke="black" points="1989,-589 1739,-589 1739,-556 1989,-556 1989,-589"/>
<text text-anchor="start" x="1827.5" y="-574.8" font-family="Times,serif" font-size="14.00">Reference</text>
<text text-anchor="start" x="1747" y="-563.2" font-family="Times,serif" font-size="11.00">via:</text>
<text text-anchor="start" x="1768" y="-563.2" font-family="Times,serif" font-style="italic" font-size="11.00">evaluate_reference_at_sample_coords</text>
</g>
<!-- CoordTransformationGraph&#45;&gt;Reference -->
<g id="edge51" class="edge">
<title>CoordTransformationGraph:e&#45;&gt;Reference:w</title>
<path fill="none" stroke="black" d="M938,-479.5C1249.25,-479.5 1328.46,-493.54 1635,-547.5 1677.77,-555.03 1689.18,-569.92 1727.61,-572.2"/>
<polygon fill="black" stroke="black" points="1727.9,-575.71 1738,-572.5 1728.1,-568.72 1727.9,-575.71"/>
</g>
<!-- CriticalEdge -->
<g id="node17" class="node">
<title>CriticalEdge</title>
<polygon fill="none" stroke="black" points="1191,-686 1085,-686 1085,-663 1191,-663 1191,-686"/>
<text text-anchor="middle" x="1138" y="-670.8" font-family="Times,serif" font-size="14.00">CriticalEdge</text>
</g>
<!-- CriticalEdge&#45;&gt;ReducedReference -->
<g id="edge36" class="edge">
<title>CriticalEdge:e&#45;&gt;ReducedReference:w</title>
<path fill="none" stroke="black" d="M1192,-674.5C1288.22,-674.5 1309.34,-627.02 1400.27,-623.68"/>
<polygon fill="black" stroke="black" points="1400.56,-627.18 1410.5,-623.5 1400.44,-620.18 1400.56,-627.18"/>
</g>
<!-- CriticalEdge&#45;&gt;Sample -->
<g id="edge57" class="edge">
<title>CriticalEdge:e&#45;&gt;Sample:w</title>
<path fill="none" stroke="black" d="M1192,-674.5C1389.25,-674.5 1439,-669.74 1635,-647.5 1663.58,-644.26 1672.58,-637.33 1696.87,-635.8"/>
<polygon fill="black" stroke="black" points="1697.11,-639.3 1707,-635.5 1696.9,-632.3 1697.11,-639.3"/>
</g>
<!-- Filename[ReferenceRun] -->
<g id="node18" class="node">
<title>Filename[ReferenceRun]</title>
<polygon fill="none" stroke="red" stroke-dasharray="5,2" points="126,-679 16,-679 16,-658 126,-658 126,-679"/>
<text text-anchor="start" x="24" y="-665.4" font-family="Times,serif" font-size="12.00" fill="red">[ReferenceRun]</text>
</g>
<!-- Filename[ReferenceRun]&#45;&gt;RawChopper[ReferenceRun] -->
<g id="edge14" class="edge">
<title>Filename[ReferenceRun]:e&#45;&gt;RawChopper[ReferenceRun]:w</title>
<path fill="none" stroke="black" d="M127,-668.5C264.25,-668.5 94.24,-382.59 215.89,-368.07"/>
<polygon fill="black" stroke="black" points="216.21,-371.56 226,-367.5 215.82,-364.57 216.21,-371.56"/>
</g>
<!-- DetectorRotation[ReferenceRun] -->
<g id="node19" class="node">
<title>DetectorRotation[ReferenceRun]</title>
<polygon fill="none" stroke="black" points="595.5,-680 485.5,-680 485.5,-659 595.5,-659 595.5,-680"/>
<text text-anchor="start" x="493.5" y="-666.4" font-family="Times,serif" font-size="12.00">[ReferenceRun]</text>
</g>
<!-- Filename[ReferenceRun]&#45;&gt;DetectorRotation[ReferenceRun] -->
<g id="edge6" class="edge">
<title>Filename[ReferenceRun]:e&#45;&gt;DetectorRotation[ReferenceRun]:w</title>
<path fill="none" stroke="black" d="M127,-668.5C282.48,-668.5 323.85,-669.46 474.42,-669.5"/>
<polygon fill="black" stroke="black" points="474.5,-673 484.5,-669.5 474.5,-666 474.5,-673"/>
</g>
<!-- LoadedNeXusDetector[ReferenceRun] -->
<g id="node23" class="node">
<title>LoadedNeXusDetector[ReferenceRun]</title>
<polygon fill="none" stroke="black" points="595.5,-784 485.5,-784 485.5,-763 595.5,-763 595.5,-784"/>
<text text-anchor="start" x="493.5" y="-770.4" font-family="Times,serif" font-size="12.00">[ReferenceRun]</text>
</g>
<!-- Filename[ReferenceRun]&#45;&gt;LoadedNeXusDetector[ReferenceRun] -->
<g id="edge8" class="edge">
<title>Filename[ReferenceRun]:e&#45;&gt;LoadedNeXusDetector[ReferenceRun]:w</title>
<path fill="none" stroke="black" d="M127,-668.5C186.45,-668.5 139.01,-755.92 190,-786.5 299.4,-852.11 350.75,-777.64 474.3,-773.66"/>
<polygon fill="black" stroke="black" points="474.56,-777.16 484.5,-773.5 474.45,-770.16 474.56,-777.16"/>
</g>
<!-- ProtonCurrent[ReferenceRun] -->
<g id="node28" class="node">
<title>ProtonCurrent[ReferenceRun]</title>
<polygon fill="none" stroke="black" points="337,-871 227,-871 227,-850 337,-850 337,-871"/>
<text text-anchor="start" x="235" y="-857.4" font-family="Times,serif" font-size="12.00">[ReferenceRun]</text>
</g>
<!-- Filename[ReferenceRun]&#45;&gt;ProtonCurrent[ReferenceRun] -->
<g id="edge12" class="edge">
<title>Filename[ReferenceRun]:e&#45;&gt;ProtonCurrent[ReferenceRun]:w</title>
<path fill="none" stroke="black" d="M127,-668.5C210.92,-668.5 131.58,-786.26 190,-846.5 199.24,-856.03 205.45,-859.19 215.74,-860.14"/>
<polygon fill="black" stroke="black" points="215.88,-863.64 226,-860.5 216.13,-856.65 215.88,-863.64"/>
</g>
<!-- SampleRotation[ReferenceRun] -->
<g id="node32" class="node">
<title>SampleRotation[ReferenceRun]</title>
<polygon fill="none" stroke="black" points="595.5,-482 485.5,-482 485.5,-461 595.5,-461 595.5,-482"/>
<text text-anchor="start" x="493.5" y="-468.4" font-family="Times,serif" font-size="12.00">[ReferenceRun]</text>
</g>
<!-- Filename[ReferenceRun]&#45;&gt;SampleRotation[ReferenceRun] -->
<g id="edge60" class="edge">
<title>Filename[ReferenceRun]:e&#45;&gt;SampleRotation[ReferenceRun]:w</title>
<path fill="none" stroke="black" d="M127,-668.5C250.63,-668.5 267.87,-604.22 375,-542.5 422.12,-515.36 426.15,-476.7 474.26,-471.98"/>
<polygon fill="black" stroke="black" points="474.67,-475.46 484.5,-471.5 474.35,-468.47 474.67,-475.46"/>
</g>
<!-- DetectorRotation[ReferenceRun]&#45;&gt;RawDetectorData[ReferenceRun] -->
<g id="edge17" class="edge">
<title>DetectorRotation[ReferenceRun]:e&#45;&gt;RawDetectorData[ReferenceRun]:w</title>
<path fill="none" stroke="black" d="M596.5,-669.5C680.6,-669.5 682.3,-583.05 759.65,-575.96"/>
<polygon fill="black" stroke="black" points="760.17,-579.44 770,-575.5 759.85,-572.45 760.17,-579.44"/>
</g>
<!-- Filename[SampleRun] -->
<g id="node20" class="node">
<title>Filename[SampleRun]</title>
<polygon fill="none" stroke="red" stroke-dasharray="5,2" points="118.5,-654 23.5,-654 23.5,-633 118.5,-633 118.5,-654"/>
<text text-anchor="start" x="31.5" y="-640.4" font-family="Times,serif" font-size="12.00" fill="red">[SampleRun]</text>
</g>
<!-- Filename[SampleRun]&#45;&gt;RawChopper[SampleRun] -->
<g id="edge15" class="edge">
<title>Filename[SampleRun]:e&#45;&gt;RawChopper[SampleRun]:w</title>
<path fill="none" stroke="black" d="M120,-643.5C250.86,-643.5 101.99,-454.35 190,-357.5 201.06,-345.33 209.17,-343.03 222.68,-342.6"/>
<polygon fill="black" stroke="black" points="223.03,-346.1 233,-342.5 222.97,-339.1 223.03,-346.1"/>
</g>
<!-- DetectorRotation[SampleRun] -->
<g id="node21" class="node">
<title>DetectorRotation[SampleRun]</title>
<polygon fill="none" stroke="black" points="588,-655 493,-655 493,-634 588,-634 588,-655"/>
<text text-anchor="start" x="501" y="-641.4" font-family="Times,serif" font-size="12.00">[SampleRun]</text>
</g>
<!-- Filename[SampleRun]&#45;&gt;DetectorRotation[SampleRun] -->
<g id="edge7" class="edge">
<title>Filename[SampleRun]:e&#45;&gt;DetectorRotation[SampleRun]:w</title>
<path fill="none" stroke="black" d="M120,-643.5C281.73,-643.5 324.64,-644.46 481.5,-644.5"/>
<polygon fill="black" stroke="black" points="481.5,-648 491.5,-644.5 481.5,-641 481.5,-648"/>
</g>
<!-- LoadedNeXusDetector[SampleRun] -->
<g id="node25" class="node">
<title>LoadedNeXusDetector[SampleRun]</title>
<polygon fill="none" stroke="black" points="588,-759 493,-759 493,-738 588,-738 588,-759"/>
<text text-anchor="start" x="501" y="-745.4" font-family="Times,serif" font-size="12.00">[SampleRun]</text>
</g>
<!-- Filename[SampleRun]&#45;&gt;LoadedNeXusDetector[SampleRun] -->
<g id="edge10" class="edge">
<title>Filename[SampleRun]:e&#45;&gt;LoadedNeXusDetector[SampleRun]:w</title>
<path fill="none" stroke="black" d="M120,-643.5C235.94,-643.5 264.55,-663.25 375,-698.5 425.32,-714.56 434.16,-744.45 481.5,-748.13"/>
<polygon fill="black" stroke="black" points="481.38,-751.62 491.5,-748.5 481.64,-744.63 481.38,-751.62"/>
</g>
<!-- ProtonCurrent[SampleRun] -->
<g id="node29" class="node">
<title>ProtonCurrent[SampleRun]</title>
<polygon fill="none" stroke="black" points="329.5,-846 234.5,-846 234.5,-825 329.5,-825 329.5,-846"/>
<text text-anchor="start" x="242.5" y="-832.4" font-family="Times,serif" font-size="12.00">[SampleRun]</text>
</g>
<!-- Filename[SampleRun]&#45;&gt;ProtonCurrent[SampleRun] -->
<g id="edge13" class="edge">
<title>Filename[SampleRun]:e&#45;&gt;ProtonCurrent[SampleRun]:w</title>
<path fill="none" stroke="black" d="M120,-643.5C215.44,-643.5 139.89,-821.88 222.97,-834.77"/>
<polygon fill="black" stroke="black" points="222.77,-838.26 233,-835.5 223.28,-831.28 222.77,-838.26"/>
</g>
<!-- SampleRotation[SampleRun] -->
<g id="node35" class="node">
<title>SampleRotation[SampleRun]</title>
<polygon fill="none" stroke="black" points="588,-457 493,-457 493,-436 588,-436 588,-457"/>
<text text-anchor="start" x="501" y="-443.4" font-family="Times,serif" font-size="12.00">[SampleRun]</text>
</g>
<!-- Filename[SampleRun]&#45;&gt;SampleRotation[SampleRun] -->
<g id="edge61" class="edge">
<title>Filename[SampleRun]:e&#45;&gt;SampleRotation[SampleRun]:w</title>
<path fill="none" stroke="black" d="M120,-643.5C303.42,-643.5 304.63,-453.74 481.29,-446.7"/>
<polygon fill="black" stroke="black" points="481.57,-450.2 491.5,-446.5 481.43,-443.2 481.57,-450.2"/>
</g>
<!-- DetectorRotation[SampleRun]&#45;&gt;RawDetectorData[SampleRun] -->
<g id="edge26" class="edge">
<title>DetectorRotation[SampleRun]:e&#45;&gt;RawDetectorData[SampleRun]:w</title>
<path fill="none" stroke="black" d="M589.5,-644.5C655.03,-644.5 654.98,-593.99 714,-565.5 736.58,-554.6 745.79,-551.31 766.81,-550.64"/>
<polygon fill="black" stroke="black" points="767.05,-554.14 777,-550.5 766.95,-547.14 767.05,-554.14"/>
</g>
<!-- DetectorSpatialResolution[SampleRun] -->
<g id="node22" class="node">
<title>DetectorSpatialResolution[SampleRun]</title>
<polygon fill="none" stroke="black" points="1635,-584 1338,-584 1338,-561 1635,-561 1635,-584"/>
<text text-anchor="middle" x="1486.5" y="-568.8" font-family="Times,serif" font-size="14.00">DetectorSpatialResolution[SampleRun]</text>
</g>
<!-- DetectorSpatialResolution[SampleRun]&#45;&gt;Reference -->
<g id="edge50" class="edge">
<title>DetectorSpatialResolution[SampleRun]:e&#45;&gt;Reference:w</title>
<path fill="none" stroke="black" d="M1635,-572.5C1677.2,-572.5 1690.22,-572.5 1727.87,-572.5"/>
<polygon fill="black" stroke="black" points="1728,-576 1738,-572.5 1728,-569 1728,-576"/>
</g>
<!-- LoadedNeXusDetector[ReferenceRun]&#45;&gt;RawDetectorData[ReferenceRun] -->
<g id="edge16" class="edge">
<title>LoadedNeXusDetector[ReferenceRun]:e&#45;&gt;RawDetectorData[ReferenceRun]:w</title>
<path fill="none" stroke="black" d="M596.5,-773.5C619.58,-773.5 627.8,-773.03 646.5,-759.5 723.41,-703.85 675.29,-584.54 759.91,-575.99"/>
<polygon fill="black" stroke="black" points="760.18,-579.48 770,-575.5 759.84,-572.48 760.18,-579.48"/>
</g>
<!-- NeXusDetectorName[ReferenceRun] -->
<g id="node24" class="node">
<title>NeXusDetectorName[ReferenceRun]</title>
<polygon fill="none" stroke="black" points="337,-754 227,-754 227,-733 337,-733 337,-754"/>
<text text-anchor="start" x="235" y="-740.4" font-family="Times,serif" font-size="12.00">[ReferenceRun]</text>
</g>
<!-- NeXusDetectorName[ReferenceRun]&#45;&gt;LoadedNeXusDetector[ReferenceRun] -->
<g id="edge9" class="edge">
<title>NeXusDetectorName[ReferenceRun]:e&#45;&gt;LoadedNeXusDetector[ReferenceRun]:w</title>
<path fill="none" stroke="black" d="M338,-743.5C400.96,-743.5 416.46,-770.42 474.41,-773.26"/>
<polygon fill="black" stroke="black" points="474.42,-776.76 484.5,-773.5 474.59,-769.76 474.42,-776.76"/>
</g>
<!-- LoadedNeXusDetector[SampleRun]&#45;&gt;RawDetectorData[SampleRun] -->
<g id="edge25" class="edge">
<title>LoadedNeXusDetector[SampleRun]:e&#45;&gt;RawDetectorData[SampleRun]:w</title>
<path fill="none" stroke="black" d="M589.5,-748.5C617.34,-748.5 627.03,-742.4 646.5,-722.5 699.62,-668.21 655.87,-614.39 714,-565.5 733.27,-549.29 745.02,-549.96 766.93,-550.38"/>
<polygon fill="black" stroke="black" points="766.96,-553.89 777,-550.5 767.04,-546.89 766.96,-553.89"/>
</g>
<!-- NeXusDetectorName[SampleRun] -->
<g id="node26" class="node">
<title>NeXusDetectorName[SampleRun]</title>
<polygon fill="none" stroke="black" points="329.5,-729 234.5,-729 234.5,-708 329.5,-708 329.5,-729"/>
<text text-anchor="start" x="242.5" y="-715.4" font-family="Times,serif" font-size="12.00">[SampleRun]</text>
</g>
<!-- NeXusDetectorName[SampleRun]&#45;&gt;LoadedNeXusDetector[SampleRun] -->
<g id="edge11" class="edge">
<title>NeXusDetectorName[SampleRun]:e&#45;&gt;LoadedNeXusDetector[SampleRun]:w</title>
<path fill="none" stroke="black" d="M331,-718.5C400.03,-718.5 417.29,-745.64 481.27,-748.29"/>
<polygon fill="black" stroke="black" points="481.43,-751.8 491.5,-748.5 481.57,-744.8 481.43,-751.8"/>
</g>
<!-- MValue -->
<g id="node27" class="node">
<title>MValue</title>
<polygon fill="none" stroke="black" points="1173,-659 1103,-659 1103,-636 1173,-636 1173,-659"/>
<text text-anchor="middle" x="1138" y="-643.8" font-family="Times,serif" font-size="14.00">MValue</text>
</g>
<!-- MValue&#45;&gt;ReducedReference -->
<g id="edge37" class="edge">
<title>MValue:e&#45;&gt;ReducedReference:w</title>
<path fill="none" stroke="black" d="M1174,-647.5C1276.14,-647.5 1303.09,-625.07 1400.24,-623.58"/>
<polygon fill="black" stroke="black" points="1400.53,-627.08 1410.5,-623.5 1400.47,-620.08 1400.53,-627.08"/>
</g>
<!-- MValue&#45;&gt;Sample -->
<g id="edge58" class="edge">
<title>MValue:e&#45;&gt;Sample:w</title>
<path fill="none" stroke="black" d="M1174,-647.5C1378.91,-647.5 1430.27,-649.16 1635,-640.5 1663.42,-639.3 1672.83,-636.3 1696.96,-635.63"/>
<polygon fill="black" stroke="black" points="1697.05,-639.13 1707,-635.5 1696.95,-632.13 1697.05,-639.13"/>
</g>
<!-- ProtonCurrent[ReferenceRun]&#45;&gt;ReducibleData[ReferenceRun] -->
<g id="edge44" class="edge">
<title>ProtonCurrent[ReferenceRun]:e&#45;&gt;ReducibleData[ReferenceRun]:w</title>
<path fill="none" stroke="black" d="M338,-860.5C391.78,-860.5 383.52,-916.39 434.5,-933.5 461.02,-942.4 916.25,-951.09 938,-933.5 1068.62,-827.88 916.97,-585.7 1071.86,-575.81"/>
<polygon fill="black" stroke="black" points="1072.11,-579.31 1082,-575.5 1071.9,-572.31 1072.11,-579.31"/>
</g>
<!-- ReducibleData[SampleRun] -->
<g id="node42" class="node">
<title>ReducibleData[SampleRun]</title>
<polygon fill="none" stroke="black" points="1185.5,-561 1090.5,-561 1090.5,-540 1185.5,-540 1185.5,-561"/>
<text text-anchor="start" x="1098.5" y="-547.4" font-family="Times,serif" font-size="12.00">[SampleRun]</text>
</g>
<!-- ProtonCurrent[SampleRun]&#45;&gt;ReducibleData[SampleRun] -->
<g id="edge47" class="edge">
<title>ProtonCurrent[SampleRun]:e&#45;&gt;ReducibleData[SampleRun]:w</title>
<path fill="none" stroke="black" d="M331,-835.5C351.66,-835.5 357.92,-838.88 375,-850.5 408.76,-873.47 397.44,-903.36 434.5,-920.5 477.26,-940.27 602.97,-938.51 646.5,-920.5 652.95,-917.83 995.8,-568.71 1002,-565.5 1033.58,-549.15 1047.15,-550.12 1078.62,-550.44"/>
<polygon fill="black" stroke="black" points="1078.98,-553.94 1089,-550.5 1079.02,-546.94 1078.98,-553.94"/>
</g>
<!-- QBins -->
<g id="node30" class="node">
<title>QBins</title>
<polygon fill="none" stroke="black" points="1893.5,-552 1834.5,-552 1834.5,-529 1893.5,-529 1893.5,-552"/>
<text text-anchor="middle" x="1864" y="-536.8" font-family="Times,serif" font-size="14.00">QBins</text>
</g>
<!-- ReflectivityOverQ -->
<g id="node45" class="node">
<title>ReflectivityOverQ</title>
<polygon fill="none" stroke="black" points="2257,-589 2093,-589 2093,-556 2257,-556 2257,-589"/>
<text text-anchor="start" x="2111.5" y="-574.8" font-family="Times,serif" font-size="14.00">ReflectivityOverQ</text>
<text text-anchor="start" x="2101" y="-563.2" font-family="Times,serif" font-size="11.00">via:</text>
<text text-anchor="start" x="2122" y="-563.2" font-family="Times,serif" font-style="italic" font-size="11.00">reduce_sample_over_q</text>
</g>
<!-- QBins&#45;&gt;ReflectivityOverQ -->
<g id="edge54" class="edge">
<title>QBins:e&#45;&gt;ReflectivityOverQ:w</title>
<path fill="none" stroke="black" d="M1895,-540.5C1951.45,-540.5 1965.39,-546.81 2021,-556.5 2049.64,-561.49 2058.32,-570.21 2082.78,-572.12"/>
<polygon fill="black" stroke="black" points="2082.88,-575.63 2093,-572.5 2083.14,-568.63 2082.88,-575.63"/>
</g>
<!-- RawDetectorData[ReferenceRun]&#45;&gt;ReducibleData[ReferenceRun] -->
<g id="edge39" class="edge">
<title>RawDetectorData[ReferenceRun]:e&#45;&gt;ReducibleData[ReferenceRun]:w</title>
<path fill="none" stroke="black" d="M882,-575.5C967.42,-575.5 991.27,-575.5 1071.88,-575.5"/>
<polygon fill="black" stroke="black" points="1072,-579 1082,-575.5 1072,-572 1072,-579"/>
</g>
<!-- SampleRotation[ReferenceRun]&#45;&gt;RawDetectorData[ReferenceRun] -->
<g id="edge18" class="edge">
<title>SampleRotation[ReferenceRun]:e&#45;&gt;RawDetectorData[ReferenceRun]:w</title>
<path fill="none" stroke="black" d="M596.5,-471.5C662.28,-471.5 654.75,-532.93 714,-561.5 733.68,-570.99 741.85,-574.47 759.68,-575.29"/>
<polygon fill="black" stroke="black" points="759.93,-578.8 770,-575.5 760.07,-571.8 759.93,-578.8"/>
</g>
<!-- SampleSize[ReferenceRun] -->
<g id="node33" class="node">
<title>SampleSize[ReferenceRun]</title>
<polygon fill="none" stroke="black" points="595.5,-86 485.5,-86 485.5,-65 595.5,-65 595.5,-86"/>
<text text-anchor="start" x="493.5" y="-72.4" font-family="Times,serif" font-size="12.00">[ReferenceRun]</text>
</g>
<!-- SampleSize[ReferenceRun]&#45;&gt;RawDetectorData[ReferenceRun] -->
<g id="edge23" class="edge">
<title>SampleSize[ReferenceRun]:e&#45;&gt;RawDetectorData[ReferenceRun]:w</title>
<path fill="none" stroke="black" d="M596.5,-75.5C627.61,-75.5 632.29,-96.82 646.5,-124.5 739.85,-306.31 568.05,-566.69 759.97,-575.28"/>
<polygon fill="black" stroke="black" points="759.93,-578.78 770,-575.5 760.08,-571.78 759.93,-578.78"/>
</g>
<!-- RawDetectorData[SampleRun]&#45;&gt;ReducibleData[SampleRun] -->
<g id="edge46" class="edge">
<title>RawDetectorData[SampleRun]:e&#45;&gt;ReducibleData[SampleRun]:w</title>
<path fill="none" stroke="black" d="M875,-550.5C966.67,-550.5 992.08,-550.5 1078.96,-550.5"/>
<polygon fill="black" stroke="black" points="1079,-554 1089,-550.5 1079,-547 1079,-554"/>
</g>
<!-- SampleRotation[SampleRun]&#45;&gt;RawDetectorData[SampleRun] -->
<g id="edge27" class="edge">
<title>SampleRotation[SampleRun]:e&#45;&gt;RawDetectorData[SampleRun]:w</title>
<path fill="none" stroke="black" d="M589.5,-446.5C615.7,-446.5 623.61,-448.76 646.5,-461.5 682.62,-481.61 679.16,-503.25 714,-525.5 736.31,-539.75 744.8,-548.26 766.98,-550.12"/>
<polygon fill="black" stroke="black" points="766.87,-553.61 777,-550.5 767.14,-546.62 766.87,-553.61"/>
</g>
<!-- SampleSize[SampleRun] -->
<g id="node36" class="node">
<title>SampleSize[SampleRun]</title>
<polygon fill="none" stroke="black" points="588,-61 493,-61 493,-40 588,-40 588,-61"/>
<text text-anchor="start" x="501" y="-47.4" font-family="Times,serif" font-size="12.00">[SampleRun]</text>
</g>
<!-- SampleSize[SampleRun]&#45;&gt;RawDetectorData[SampleRun] -->
<g id="edge32" class="edge">
<title>SampleSize[SampleRun]:e&#45;&gt;RawDetectorData[SampleRun]:w</title>
<path fill="none" stroke="black" d="M589.5,-50.5C823.36,-50.5 547.97,-535.96 766.9,-550.18"/>
<polygon fill="black" stroke="black" points="766.89,-553.68 777,-550.5 767.12,-546.69 766.89,-553.68"/>
</g>
<!-- ReducibleData[ReferenceRun]&#45;&gt;ReducedReference -->
<g id="edge34" class="edge">
<title>ReducibleData[ReferenceRun]:e&#45;&gt;ReducedReference:w</title>
<path fill="none" stroke="black" d="M1194,-575.5C1289.09,-575.5 1310.48,-620.18 1400.39,-623.33"/>
<polygon fill="black" stroke="black" points="1400.44,-626.83 1410.5,-623.5 1400.56,-619.83 1400.44,-626.83"/>
</g>
<!-- ReducedReference&#45;&gt;Reference -->
<g id="edge48" class="edge">
<title>ReducedReference:e&#45;&gt;Reference:w</title>
<path fill="none" stroke="black" d="M1562.5,-623.5C1640.24,-623.5 1655.53,-576.79 1727.9,-572.77"/>
<polygon fill="black" stroke="black" points="1728.1,-576.27 1738,-572.5 1727.91,-569.27 1728.1,-576.27"/>
</g>
<!-- ReducedReference&#45;&gt;Sample -->
<g id="edge56" class="edge">
<title>ReducedReference:e&#45;&gt;Sample:w</title>
<path fill="none" stroke="black" d="M1562.5,-623.5C1623.42,-623.5 1640.7,-634.22 1696.85,-635.4"/>
<polygon fill="black" stroke="black" points="1696.96,-638.9 1707,-635.5 1697.04,-631.9 1696.96,-638.9"/>
</g>
<!-- WavelengthBins -->
<g id="node39" class="node">
<title>WavelengthBins</title>
<polygon fill="none" stroke="black" points="892,-523 760,-523 760,-500 892,-500 892,-523"/>
<text text-anchor="middle" x="826" y="-507.8" font-family="Times,serif" font-size="14.00">WavelengthBins</text>
</g>
<!-- WavelengthBins&#45;&gt;ReducibleData[ReferenceRun] -->
<g id="edge43" class="edge">
<title>WavelengthBins:e&#45;&gt;ReducibleData[ReferenceRun]:w</title>
<path fill="none" stroke="black" stroke-width="2" d="M893,-511.5C914.71,-511.5 918.22,-521.54 938,-530.5 963.42,-542.01 970.39,-549.79 992.38,-558.14"/>
<polygon fill="black" stroke="black" stroke-width="2" points="991.41,-561.51 1002,-561.5 993.71,-554.9 991.41,-561.51"/>
</g>
<!-- WavelengthBins&#45;&gt;ReducedReference -->
<g id="edge35" class="edge">
<title>WavelengthBins:e&#45;&gt;ReducedReference:w</title>
<path fill="none" stroke="black" d="M893,-511.5C977.77,-511.5 1195.41,-498.72 1274,-530.5 1309.04,-544.67 1306.71,-565.3 1338,-586.5 1364.91,-604.73 1372.79,-620.07 1400.34,-623"/>
<polygon fill="black" stroke="black" points="1400.34,-626.5 1410.5,-623.5 1400.69,-619.51 1400.34,-626.5"/>
</g>
<!-- YIndexLimits -->
<g id="node40" class="node">
<title>YIndexLimits</title>
<polygon fill="none" stroke="black" points="881,-933 771,-933 771,-910 881,-910 881,-933"/>
<text text-anchor="middle" x="826" y="-917.8" font-family="Times,serif" font-size="14.00">YIndexLimits</text>
</g>
<!-- YIndexLimits&#45;&gt;ReducibleData[ReferenceRun] -->
<g id="edge40" class="edge">
<title>YIndexLimits:e&#45;&gt;ReducibleData[ReferenceRun]:w</title>
<path fill="none" stroke="black" stroke-width="2" d="M882,-921.5C907.77,-921.5 920.06,-925 938,-906.5 1022.18,-819.7 938.27,-742.34 1001.16,-636.19"/>
<polygon fill="black" stroke="black" stroke-width="2" points="1004.26,-637.83 1006.59,-627.5 998.32,-634.12 1004.26,-637.83"/>
</g>
<!-- ZIndexLimits -->
<g id="node41" class="node">
<title>ZIndexLimits</title>
<polygon fill="none" stroke="black" points="881.5,-906 770.5,-906 770.5,-883 881.5,-883 881.5,-906"/>
<text text-anchor="middle" x="826" y="-890.8" font-family="Times,serif" font-size="14.00">ZIndexLimits</text>
</g>
<!-- ZIndexLimits&#45;&gt;ReducibleData[ReferenceRun] -->
<g id="edge41" class="edge">
<title>ZIndexLimits:e&#45;&gt;ReducibleData[ReferenceRun]:w</title>
<path fill="none" stroke="black" stroke-width="2" d="M882,-894.5C907.77,-894.5 919.84,-897.78 938,-879.5 1015.09,-801.93 943.2,-731.76 1001.29,-635.94"/>
<polygon fill="black" stroke="black" stroke-width="2" points="1004.25,-637.8 1006.71,-627.5 998.36,-634.02 1004.25,-637.8"/>
</g>
<!-- ReducibleData[SampleRun]&#45;&gt;Reference -->
<g id="edge49" class="edge">
<title>ReducibleData[SampleRun]:e&#45;&gt;Reference:w</title>
<path fill="none" stroke="black" d="M1187,-550.5C1386.15,-550.5 1436.38,-545.01 1635,-559.5 1677.42,-562.59 1689.95,-571.03 1727.8,-572.33"/>
<polygon fill="black" stroke="black" points="1727.94,-575.83 1738,-572.5 1728.06,-568.83 1727.94,-575.83"/>
</g>
<!-- ReducibleData[SampleRun]&#45;&gt;Sample -->
<g id="edge55" class="edge">
<title>ReducibleData[SampleRun]:e&#45;&gt;Sample:w</title>
<path fill="none" stroke="black" d="M1187,-550.5C1226.24,-550.5 1235.92,-556.02 1274,-565.5 1303.05,-572.73 1308.6,-580.83 1338,-586.5 1467.88,-611.54 1506.19,-575.43 1635,-605.5 1665.2,-612.55 1671.24,-630.99 1697,-634.8"/>
<polygon fill="black" stroke="black" points="1696.78,-638.3 1707,-635.5 1697.27,-631.31 1696.78,-638.3"/>
</g>
<!-- Reference&#45;&gt;ReflectivityOverQ -->
<g id="edge53" class="edge">
<title>Reference:e&#45;&gt;ReflectivityOverQ:w</title>
<path fill="none" stroke="black" d="M1990,-572.5C2032.2,-572.5 2045.22,-572.5 2082.87,-572.5"/>
<polygon fill="black" stroke="black" points="2083,-576 2093,-572.5 2083,-569 2083,-576"/>
</g>
<!-- Sample&#45;&gt;ReflectivityOverQ -->
<g id="edge52" class="edge">
<title>Sample:e&#45;&gt;ReflectivityOverQ:w</title>
<path fill="none" stroke="black" d="M2021,-635.5C2059.7,-635.5 2052.37,-583.31 2082.8,-573.93"/>
<polygon fill="black" stroke="black" points="2083.59,-577.36 2093,-572.5 2082.61,-570.43 2083.59,-577.36"/>
</g>
</g>
</svg>
