<?xml version="1.0" encoding="UTF-8" standalone="no"?>
<!DOCTYPE svg PUBLIC "-//W3C//DTD SVG 1.1//EN"
 "http://www.w3.org/Graphics/SVG/1.1/DTD/svg11.dtd">
<!-- Generated by graphviz version 2.43.0 (0)
 -->
<!-- Title: %3 Pages: 1 -->
<svg width="2436pt" height="352pt"
 viewBox="0.00 0.00 2436.00 352.00" xmlns="http://www.w3.org/2000/svg" xmlns:xlink="http://www.w3.org/1999/xlink">
<g id="graph0" class="graph" transform="scale(1 1) rotate(0) translate(4 348)">
<title>%3</title>
<polygon fill="white" stroke="transparent" points="-4,4 -4,-348 2432,-348 2432,4 -4,4"/>
<g id="clust6" class="cluster">
<title>cluster_Filename</title>
<polygon fill="#f0f0ff" stroke="#f0f0ff" points="23,-105.5 23,-191.5 149,-191.5 149,-105.5 23,-105.5"/>
<text text-anchor="middle" x="86" y="-176.3" font-family="Times,serif" font-size="14.00">Filename</text>
</g>
<g id="clust8" class="cluster">
<title>cluster_ProtonCurrent</title>
<polygon fill="#f0f0ff" stroke="#f0f0ff" points="286,-162.5 286,-248.5 412,-248.5 412,-162.5 286,-162.5"/>
<text text-anchor="middle" x="349" y="-233.3" font-family="Times,serif" font-size="14.00">ProtonCurrent</text>
</g>
<g id="clust11" class="cluster">
<title>cluster_RawDetector</title>
<polygon fill="#f0f0ff" stroke="#f0f0ff" points="275,-58.5 275,-154.5 424,-154.5 424,-58.5 275,-58.5"/>
<text text-anchor="start" x="302.5" y="-140.3" font-family="Times,serif" font-size="14.00">RawDetector</text>
<text text-anchor="start" x="283" y="-128.7" font-family="Times,serif" font-size="11.00">via:</text>
<text text-anchor="start" x="304" y="-128.7" font-family="Times,serif" font-style="italic" font-size="11.00">load_mcstas_events</text>
</g>
<g id="clust13" class="cluster">
<title>cluster_ReducibleData</title>
<polygon fill="#f0f0ff" stroke="#f0f0ff" points="525,-128.5 525,-224.5 797,-224.5 797,-128.5 525,-128.5"/>
<text text-anchor="start" x="608.5" y="-210.3" font-family="Times,serif" font-size="14.00">ReducibleData</text>
<text text-anchor="start" x="533" y="-198.7" font-family="Times,serif" font-size="11.00">via:</text>
<text text-anchor="start" x="554" y="-198.7" font-family="Times,serif" font-style="italic" font-size="11.00">add_coords_masks_and_apply_corrections</text>
</g>
<g id="clust19" class="cluster">
<title>cluster_SampleRotationOffset</title>
<polygon fill="#f0f0ff" stroke="#f0f0ff" points="0,-11.5 0,-97.5 173,-97.5 173,-11.5 0,-11.5"/>
<text text-anchor="middle" x="86.5" y="-82.3" font-family="Times,serif" font-size="14.00">SampleRotationOffset</text>
</g>
<!-- Alpha -->
<g id="node1" class="node">
<title>Alpha</title>
<polygon fill="none" stroke="black" points="689.5,-42 632.5,-42 632.5,-19 689.5,-19 689.5,-42"/>
<text text-anchor="middle" x="661" y="-26.8" font-family="Times,serif" font-size="14.00">Alpha</text>
</g>
<!-- ReducedReference -->
<g id="node21" class="node">
<title>ReducedReference</title>
<polygon fill="none" stroke="black" points="1084.5,-101 934.5,-101 934.5,-68 1084.5,-68 1084.5,-101"/>
<text text-anchor="start" x="942.5" y="-86.8" font-family="Times,serif" font-size="14.00">ReducedReference</text>
<text text-anchor="start" x="950" y="-75.2" font-family="Times,serif" font-size="11.00">via:</text>
<text text-anchor="start" x="971" y="-75.2" font-family="Times,serif" font-style="italic" font-size="11.00">reduce_reference</text>
</g>
<!-- Alpha&#45;&gt;ReducedReference -->
<g id="edge13" class="edge">
<title>Alpha:e&#45;&gt;ReducedReference:w</title>
<path fill="none" stroke="black" d="M691,-30.5C738.58,-30.5 750.46,-35.61 797,-45.5 855.22,-57.87 868.92,-81.61 923.26,-84.26"/>
<polygon fill="black" stroke="black" points="923.42,-87.76 933.5,-84.5 923.59,-80.76 923.42,-87.76"/>
</g>
<!-- Sample -->
<g id="node29" class="node">
<title>Sample</title>
<polygon fill="none" stroke="black" points="1544,-95 1230,-95 1230,-62 1544,-62 1544,-95"/>
<text text-anchor="start" x="1360" y="-80.8" font-family="Times,serif" font-size="14.00">Sample</text>
<text text-anchor="start" x="1238" y="-69.2" font-family="Times,serif" font-size="11.00">via:</text>
<text text-anchor="start" x="1259" y="-69.2" font-family="Times,serif" font-style="italic" font-size="11.00">mask_events_where_supermirror_does_not_cover</text>
</g>
<!-- Alpha&#45;&gt;Sample -->
<g id="edge41" class="edge">
<title>Alpha:e&#45;&gt;Sample:w</title>
<path fill="none" stroke="black" d="M691,-30.5C898.69,-30.5 955.38,-1.88 1158,-47.5 1188.4,-54.35 1194.15,-73.75 1219.96,-77.77"/>
<polygon fill="black" stroke="black" points="1219.77,-81.26 1230,-78.5 1220.28,-74.28 1219.77,-81.26"/>
</g>
<!-- BeamDivergenceLimits -->
<g id="node2" class="node">
<title>BeamDivergenceLimits</title>
<polygon fill="none" stroke="black" points="440.5,-280 257.5,-280 257.5,-257 440.5,-257 440.5,-280"/>
<text text-anchor="middle" x="349" y="-264.8" font-family="Times,serif" font-size="14.00">BeamDivergenceLimits</text>
</g>
<!-- ReducibleData[ReferenceRun] -->
<g id="node20" class="node">
<title>ReducibleData[ReferenceRun]</title>
<polygon fill="none" stroke="black" points="716,-158 606,-158 606,-137 716,-137 716,-158"/>
<text text-anchor="start" x="614" y="-144.4" font-family="Times,serif" font-size="12.00">[ReferenceRun]</text>
</g>
<!-- BeamDivergenceLimits&#45;&gt;ReducibleData[ReferenceRun] -->
<g id="edge17" class="edge">
<title>BeamDivergenceLimits:e&#45;&gt;ReducibleData[ReferenceRun]:w</title>
<path fill="none" stroke="black" stroke-width="2" d="M442,-268.5C498.33,-268.5 477.26,-202.77 516.87,-168.51"/>
<polygon fill="black" stroke="black" stroke-width="2" points="519.04,-171.26 525,-162.5 514.88,-165.63 519.04,-171.26"/>
</g>
<!-- CoordTransformationGraph -->
<g id="node3" class="node">
<title>CoordTransformationGraph</title>
<polygon fill="none" stroke="black" points="461,-344 237,-344 237,-311 461,-311 461,-344"/>
<text text-anchor="start" x="250" y="-329.8" font-family="Times,serif" font-size="14.00">CoordTransformationGraph</text>
<text text-anchor="start" x="245" y="-318.2" font-family="Times,serif" font-size="11.00">via:</text>
<text text-anchor="start" x="266" y="-318.2" font-family="Times,serif" font-style="italic" font-size="11.00">coordinate_transformation_graph</text>
</g>
<!-- Reference -->
<g id="node14" class="node">
<title>Reference</title>
<polygon fill="none" stroke="black" points="1459.5,-132 1314.5,-132 1314.5,-99 1459.5,-99 1459.5,-132"/>
<text text-anchor="start" x="1350.5" y="-117.8" font-family="Times,serif" font-size="14.00">Reference</text>
<text text-anchor="start" x="1322.5" y="-106.2" font-family="Times,serif" font-size="11.00">via:</text>
<text text-anchor="start" x="1343.5" y="-106.2" font-family="Times,serif" font-style="italic" font-size="11.00">evaluate_reference</text>
</g>
<!-- CoordTransformationGraph&#45;&gt;Reference -->
<g id="edge25" class="edge">
<title>CoordTransformationGraph:e&#45;&gt;Reference:w</title>
<path fill="none" stroke="black" d="M461,-327.5C617.06,-327.5 670.32,-316.65 797,-225.5 836.84,-196.83 817.89,-158.96 861,-135.5 863.52,-134.13 1236.46,-118.55 1302.94,-115.89"/>
<polygon fill="black" stroke="black" points="1303.14,-119.38 1313,-115.5 1302.87,-112.39 1303.14,-119.38"/>
</g>
<!-- CoordTransformationGraph&#45;&gt;ReducibleData[ReferenceRun] -->
<g id="edge20" class="edge">
<title>CoordTransformationGraph:e&#45;&gt;ReducibleData[ReferenceRun]:w</title>
<path fill="none" stroke="black" stroke-width="2" d="M461,-327.5C536.12,-327.5 470.93,-222.83 517.64,-169.65"/>
<polygon fill="black" stroke="black" stroke-width="2" points="520.26,-171.98 525,-162.5 515.39,-166.96 520.26,-171.98"/>
</g>
<!-- CriticalEdge -->
<g id="node4" class="node">
<title>CriticalEdge</title>
<polygon fill="none" stroke="black" points="714,-69 608,-69 608,-46 714,-46 714,-69"/>
<text text-anchor="middle" x="661" y="-53.8" font-family="Times,serif" font-size="14.00">CriticalEdge</text>
</g>
<!-- CriticalEdge&#45;&gt;ReducedReference -->
<g id="edge11" class="edge">
<title>CriticalEdge:e&#45;&gt;ReducedReference:w</title>
<path fill="none" stroke="black" d="M715,-57.5C809.41,-57.5 833.95,-82.63 923.45,-84.4"/>
<polygon fill="black" stroke="black" points="923.47,-87.9 933.5,-84.5 923.53,-80.9 923.47,-87.9"/>
</g>
<!-- CriticalEdge&#45;&gt;Sample -->
<g id="edge39" class="edge">
<title>CriticalEdge:e&#45;&gt;Sample:w</title>
<path fill="none" stroke="black" d="M715,-57.5C911.89,-57.5 962.8,-33.73 1158,-59.5 1187.09,-63.34 1195.18,-75.31 1219.71,-77.97"/>
<polygon fill="black" stroke="black" points="1219.83,-81.48 1230,-78.5 1220.19,-74.49 1219.83,-81.48"/>
</g>
<!-- DetectorSpatialResolution[SampleRun] -->
<g id="node5" class="node">
<title>DetectorSpatialResolution[SampleRun]</title>
<polygon fill="none" stroke="black" points="1158,-159 861,-159 861,-136 1158,-136 1158,-159"/>
<text text-anchor="middle" x="1009.5" y="-143.8" font-family="Times,serif" font-size="14.00">DetectorSpatialResolution[SampleRun]</text>
</g>
<!-- DetectorSpatialResolution[SampleRun]&#45;&gt;Reference -->
<g id="edge26" class="edge">
<title>DetectorSpatialResolution[SampleRun]:e&#45;&gt;Reference:w</title>
<path fill="none" stroke="black" d="M1158,-147.5C1224.77,-147.5 1241.06,-118.67 1302.7,-115.74"/>
<polygon fill="black" stroke="black" points="1303.08,-119.23 1313,-115.5 1302.92,-112.23 1303.08,-119.23"/>
</g>
<!-- Filename[ReferenceRun] -->
<g id="node6" class="node">
<title>Filename[ReferenceRun]</title>
<polygon fill="none" stroke="black" points="141,-135 31,-135 31,-114 141,-114 141,-135"/>
<text text-anchor="start" x="39" y="-121.4" font-family="Times,serif" font-size="12.00">[ReferenceRun]</text>
</g>
<!-- RawDetector[ReferenceRun] -->
<g id="node16" class="node">
<title>RawDetector[ReferenceRun]</title>
<polygon fill="none" stroke="black" points="404,-88 294,-88 294,-67 404,-67 404,-88"/>
<text text-anchor="start" x="302" y="-74.4" font-family="Times,serif" font-size="12.00">[ReferenceRun]</text>
</g>
<!-- Filename[ReferenceRun]&#45;&gt;RawDetector[ReferenceRun] -->
<g id="edge5" class="edge">
<title>Filename[ReferenceRun]:e&#45;&gt;RawDetector[ReferenceRun]:w</title>
<path fill="none" stroke="black" d="M142,-124.5C208.72,-124.5 221.5,-82.15 282.74,-77.85"/>
<polygon fill="black" stroke="black" points="283.13,-81.34 293,-77.5 282.89,-74.34 283.13,-81.34"/>
</g>
<!-- Filename[SampleRun] -->
<g id="node7" class="node">
<title>Filename[SampleRun]</title>
<polygon fill="none" stroke="black" points="133.5,-160 38.5,-160 38.5,-139 133.5,-139 133.5,-160"/>
<text text-anchor="start" x="46.5" y="-146.4" font-family="Times,serif" font-size="12.00">[SampleRun]</text>
</g>
<!-- RawDetector[SampleRun] -->
<g id="node18" class="node">
<title>RawDetector[SampleRun]</title>
<polygon fill="none" stroke="black" points="396.5,-113 301.5,-113 301.5,-92 396.5,-92 396.5,-113"/>
<text text-anchor="start" x="309.5" y="-99.4" font-family="Times,serif" font-size="12.00">[SampleRun]</text>
</g>
<!-- Filename[SampleRun]&#45;&gt;RawDetector[SampleRun] -->
<g id="edge7" class="edge">
<title>Filename[SampleRun]:e&#45;&gt;RawDetector[SampleRun]:w</title>
<path fill="none" stroke="black" d="M135,-149.5C207.68,-149.5 222.44,-106.8 289.68,-102.8"/>
<polygon fill="black" stroke="black" points="290.11,-106.29 300,-102.5 289.9,-99.29 290.11,-106.29"/>
</g>
<!-- MValue -->
<g id="node8" class="node">
<title>MValue</title>
<polygon fill="none" stroke="black" points="696,-96 626,-96 626,-73 696,-73 696,-96"/>
<text text-anchor="middle" x="661" y="-80.8" font-family="Times,serif" font-size="14.00">MValue</text>
</g>
<!-- MValue&#45;&gt;ReducedReference -->
<g id="edge12" class="edge">
<title>MValue:e&#45;&gt;ReducedReference:w</title>
<path fill="none" stroke="black" d="M697,-84.5C798.62,-84.5 826.56,-84.5 923.28,-84.5"/>
<polygon fill="black" stroke="black" points="923.5,-88 933.5,-84.5 923.5,-81 923.5,-88"/>
</g>
<!-- MValue&#45;&gt;Sample -->
<g id="edge40" class="edge">
<title>MValue:e&#45;&gt;Sample:w</title>
<path fill="none" stroke="black" d="M697,-84.5C770.28,-84.5 787.82,-71.28 861,-67.5 992.82,-60.69 1026.38,-57.5 1158,-67.5 1186.62,-69.67 1195.64,-76.64 1219.89,-78.19"/>
<polygon fill="black" stroke="black" points="1219.9,-81.69 1230,-78.5 1220.11,-74.7 1219.9,-81.69"/>
</g>
<!-- ProtonCurrent[ReferenceRun] -->
<g id="node9" class="node">
<title>ProtonCurrent[ReferenceRun]</title>
<polygon fill="none" stroke="black" points="404,-192 294,-192 294,-171 404,-171 404,-192"/>
<text text-anchor="start" x="302" y="-178.4" font-family="Times,serif" font-size="12.00">[ReferenceRun]</text>
</g>
<!-- ProtonCurrent[ReferenceRun]&#45;&gt;ReducibleData[ReferenceRun] -->
<g id="edge19" class="edge">
<title>ProtonCurrent[ReferenceRun]:e&#45;&gt;ReducibleData[ReferenceRun]:w</title>
<path fill="none" stroke="black" d="M405,-181.5C491.64,-181.5 513.19,-150.1 594.75,-147.65"/>
<polygon fill="black" stroke="black" points="595.05,-151.15 605,-147.5 594.95,-144.15 595.05,-151.15"/>
</g>
<!-- ProtonCurrent[SampleRun] -->
<g id="node10" class="node">
<title>ProtonCurrent[SampleRun]</title>
<polygon fill="none" stroke="black" points="396.5,-217 301.5,-217 301.5,-196 396.5,-196 396.5,-217"/>
<text text-anchor="start" x="309.5" y="-203.4" font-family="Times,serif" font-size="12.00">[SampleRun]</text>
</g>
<!-- ReducibleData[SampleRun] -->
<g id="node12" class="node">
<title>ReducibleData[SampleRun]</title>
<polygon fill="none" stroke="black" points="708.5,-183 613.5,-183 613.5,-162 708.5,-162 708.5,-183"/>
<text text-anchor="start" x="621.5" y="-169.4" font-family="Times,serif" font-size="12.00">[SampleRun]</text>
</g>
<!-- ProtonCurrent[SampleRun]&#45;&gt;ReducibleData[SampleRun] -->
<g id="edge22" class="edge">
<title>ProtonCurrent[SampleRun]:e&#45;&gt;ReducibleData[SampleRun]:w</title>
<path fill="none" stroke="black" d="M398,-206.5C490.82,-206.5 514.05,-174.91 601.85,-172.63"/>
<polygon fill="black" stroke="black" points="602.05,-176.13 612,-172.5 601.96,-169.13 602.05,-176.13"/>
</g>
<!-- QBins -->
<g id="node11" class="node">
<title>QBins</title>
<polygon fill="none" stroke="black" points="1416.5,-159 1357.5,-159 1357.5,-136 1416.5,-136 1416.5,-159"/>
<text text-anchor="middle" x="1387" y="-143.8" font-family="Times,serif" font-size="14.00">QBins</text>
</g>
<!-- QThetaFigure -->
<g id="node13" class="node">
<title>QThetaFigure</title>
<polygon fill="none" stroke="black" points="1825,-211 1645,-211 1645,-178 1825,-178 1825,-211"/>
<text text-anchor="start" x="1685" y="-196.8" font-family="Times,serif" font-size="14.00">QThetaFigure</text>
<text text-anchor="start" x="1653" y="-185.2" font-family="Times,serif" font-size="11.00">via:</text>
<text text-anchor="start" x="1674" y="-185.2" font-family="Times,serif" font-style="italic" font-size="11.00">q_theta_diagnostic_figure</text>
</g>
<!-- QBins&#45;&gt;QThetaFigure -->
<g id="edge4" class="edge">
<title>QBins:e&#45;&gt;QThetaFigure:w</title>
<path fill="none" stroke="black" d="M1418,-147.5C1517.09,-147.5 1539.89,-191.34 1633.76,-194.34"/>
<polygon fill="black" stroke="black" points="1633.95,-197.84 1644,-194.5 1634.06,-190.84 1633.95,-197.84"/>
</g>
<!-- ReflectivityOverQ -->
<g id="node28" class="node">
<title>ReflectivityOverQ</title>
<polygon fill="none" stroke="black" points="1817,-136 1653,-136 1653,-103 1817,-103 1817,-136"/>
<text text-anchor="start" x="1671.5" y="-121.8" font-family="Times,serif" font-size="14.00">ReflectivityOverQ</text>
<text text-anchor="start" x="1661" y="-110.2" font-family="Times,serif" font-size="11.00">via:</text>
<text text-anchor="start" x="1682" y="-110.2" font-family="Times,serif" font-style="italic" font-size="11.00">reduce_sample_over_q</text>
</g>
<!-- QBins&#45;&gt;ReflectivityOverQ -->
<g id="edge33" class="edge">
<title>QBins:e&#45;&gt;ReflectivityOverQ:w</title>
<path fill="none" stroke="black" d="M1418,-147.5C1474.4,-147.5 1488,-139.2 1544,-132.5 1588.44,-127.18 1601.72,-120.57 1641.81,-119.62"/>
<polygon fill="black" stroke="black" points="1642.04,-123.11 1652,-119.5 1641.96,-116.11 1642.04,-123.11"/>
</g>
<!-- ReducibleData[SampleRun]&#45;&gt;QThetaFigure -->
<g id="edge1" class="edge">
<title>ReducibleData[SampleRun]:e&#45;&gt;QThetaFigure:w</title>
<path fill="none" stroke="black" d="M710,-172.5C825.82,-172.5 1114.25,-203.61 1230,-207.5 1369.48,-212.19 1404.74,-216.51 1544,-207.5 1585.06,-204.84 1597.24,-196.11 1633.63,-194.69"/>
<polygon fill="black" stroke="black" points="1634.07,-198.19 1644,-194.5 1633.94,-191.19 1634.07,-198.19"/>
</g>
<!-- ReducibleData[SampleRun]&#45;&gt;Reference -->
<g id="edge24" class="edge">
<title>ReducibleData[SampleRun]:e&#45;&gt;Reference:w</title>
<path fill="none" stroke="black" d="M710,-172.5C749.16,-172.5 759.8,-170.74 797,-158.5 827.4,-148.5 829.98,-133.39 861,-125.5 907.12,-113.77 1226.37,-115.29 1302.62,-115.48"/>
<polygon fill="black" stroke="black" points="1302.99,-118.98 1313,-115.5 1303.01,-111.98 1302.99,-118.98"/>
</g>
<!-- WavelengthThetaFigure -->
<g id="node25" class="node">
<title>WavelengthThetaFigure</title>
<polygon fill="none" stroke="black" points="1854,-174 1616,-174 1616,-141 1854,-141 1854,-174"/>
<text text-anchor="start" x="1649" y="-159.8" font-family="Times,serif" font-size="14.00">WavelengthThetaFigure</text>
<text text-anchor="start" x="1624" y="-148.2" font-family="Times,serif" font-size="11.00">via:</text>
<text text-anchor="start" x="1645" y="-148.2" font-family="Times,serif" font-style="italic" font-size="11.00">wavelength_theta_diagnostic_figure</text>
</g>
<!-- ReducibleData[SampleRun]&#45;&gt;WavelengthThetaFigure -->
<g id="edge42" class="edge">
<title>ReducibleData[SampleRun]:e&#45;&gt;WavelengthThetaFigure:w</title>
<path fill="none" stroke="black" d="M710,-172.5C895.33,-172.5 1359.32,-185.12 1544,-169.5 1572.66,-167.08 1581.6,-159.52 1605.87,-157.83"/>
<polygon fill="black" stroke="black" points="1606.12,-161.33 1616,-157.5 1605.89,-154.33 1606.12,-161.33"/>
</g>
<!-- ReducibleData[SampleRun]&#45;&gt;Sample -->
<g id="edge37" class="edge">
<title>ReducibleData[SampleRun]:e&#45;&gt;Sample:w</title>
<path fill="none" stroke="black" d="M710,-172.5C749.16,-172.5 760.57,-172.87 797,-158.5 828.88,-145.93 828.46,-126.26 861,-115.5 923.73,-94.76 1092.97,-113.21 1158,-101.5 1187.45,-96.2 1194.91,-82.1 1219.92,-79.07"/>
<polygon fill="black" stroke="black" points="1220.22,-82.56 1230,-78.5 1219.82,-75.58 1220.22,-82.56"/>
</g>
<!-- ReflectivityDiagnosticsView -->
<g id="node26" class="node">
<title>ReflectivityDiagnosticsView</title>
<polygon fill="none" stroke="black" points="2428,-148 2213,-148 2213,-115 2428,-115 2428,-148"/>
<text text-anchor="start" x="2221" y="-133.8" font-family="Times,serif" font-size="14.00">ReflectivityDiagnosticsView</text>
<text text-anchor="start" x="2265" y="-122.2" font-family="Times,serif" font-size="11.00">via:</text>
<text text-anchor="start" x="2286" y="-122.2" font-family="Times,serif" font-style="italic" font-size="11.00">diagnostic_view</text>
</g>
<!-- QThetaFigure&#45;&gt;ReflectivityDiagnosticsView -->
<g id="edge29" class="edge">
<title>QThetaFigure:e&#45;&gt;ReflectivityDiagnosticsView:w</title>
<path fill="none" stroke="black" d="M1826,-194.5C1967.48,-194.5 2002.02,-175 2141,-148.5 2169.64,-143.04 2178.25,-133.9 2202.75,-131.89"/>
<polygon fill="black" stroke="black" points="2203.14,-135.38 2213,-131.5 2202.87,-128.39 2203.14,-135.38"/>
</g>
<!-- Reference&#45;&gt;QThetaFigure -->
<g id="edge2" class="edge">
<title>Reference:e&#45;&gt;QThetaFigure:w</title>
<path fill="none" stroke="black" d="M1461,-115.5C1499.05,-115.5 1508.76,-122.15 1544,-136.5 1588.24,-154.51 1592.25,-189.16 1633.88,-193.95"/>
<polygon fill="black" stroke="black" points="1633.82,-197.45 1644,-194.5 1634.21,-190.46 1633.82,-197.45"/>
</g>
<!-- Reference&#45;&gt;WavelengthThetaFigure -->
<g id="edge43" class="edge">
<title>Reference:e&#45;&gt;WavelengthThetaFigure:w</title>
<path fill="none" stroke="black" d="M1461,-115.5C1499.05,-115.5 1507.28,-126.5 1544,-136.5 1572.64,-144.3 1580.94,-154.86 1605.96,-157.08"/>
<polygon fill="black" stroke="black" points="1605.86,-160.58 1616,-157.5 1606.15,-153.59 1605.86,-160.58"/>
</g>
<!-- Reference&#45;&gt;ReflectivityOverQ -->
<g id="edge32" class="edge">
<title>Reference:e&#45;&gt;ReflectivityOverQ:w</title>
<path fill="none" stroke="black" d="M1461,-115.5C1542.42,-115.5 1565.25,-119.18 1641.87,-119.48"/>
<polygon fill="black" stroke="black" points="1641.99,-122.98 1652,-119.5 1642.01,-115.98 1641.99,-122.98"/>
</g>
<!-- ReflectivityOverZW -->
<g id="node30" class="node">
<title>ReflectivityOverZW</title>
<polygon fill="none" stroke="black" points="1821.5,-98 1648.5,-98 1648.5,-65 1821.5,-65 1821.5,-98"/>
<text text-anchor="start" x="1665" y="-83.8" font-family="Times,serif" font-size="14.00">ReflectivityOverZW</text>
<text text-anchor="start" x="1656.5" y="-72.2" font-family="Times,serif" font-size="11.00">via:</text>
<text text-anchor="start" x="1677.5" y="-72.2" font-family="Times,serif" font-style="italic" font-size="11.00">reduce_sample_over_zw</text>
</g>
<!-- Reference&#45;&gt;ReflectivityOverZW -->
<g id="edge35" class="edge">
<title>Reference:e&#45;&gt;ReflectivityOverZW:w</title>
<path fill="none" stroke="black" d="M1461,-115.5C1541.59,-115.5 1561.38,-84.23 1636.98,-81.67"/>
<polygon fill="black" stroke="black" points="1637.06,-85.17 1647,-81.5 1636.94,-78.17 1637.06,-85.17"/>
</g>
<!-- ThetaBins[SampleRun] -->
<g id="node15" class="node">
<title>ThetaBins[SampleRun]</title>
<polygon fill="none" stroke="black" points="1477.5,-207 1296.5,-207 1296.5,-184 1477.5,-184 1477.5,-207"/>
<text text-anchor="middle" x="1387" y="-191.8" font-family="Times,serif" font-size="14.00">ThetaBins[SampleRun]</text>
</g>
<!-- ThetaBins[SampleRun]&#45;&gt;QThetaFigure -->
<g id="edge3" class="edge">
<title>ThetaBins[SampleRun]:e&#45;&gt;QThetaFigure:w</title>
<path fill="none" stroke="black" d="M1479,-195.5C1548.75,-195.5 1568.74,-194.6 1633.64,-194.51"/>
<polygon fill="black" stroke="black" points="1634,-198.01 1644,-194.5 1634,-191.01 1634,-198.01"/>
</g>
<!-- ThetaBins[SampleRun]&#45;&gt;WavelengthThetaFigure -->
<g id="edge45" class="edge">
<title>ThetaBins[SampleRun]:e&#45;&gt;WavelengthThetaFigure:w</title>
<path fill="none" stroke="black" d="M1479,-195.5C1508.65,-195.5 1515.41,-188.35 1544,-180.5 1572.85,-172.58 1580.78,-160.52 1605.9,-157.98"/>
<polygon fill="black" stroke="black" points="1606.18,-161.47 1616,-157.5 1605.84,-154.48 1606.18,-161.47"/>
</g>
<!-- RawDetector[ReferenceRun]&#45;&gt;ReducibleData[ReferenceRun] -->
<g id="edge14" class="edge">
<title>RawDetector[ReferenceRun]:e&#45;&gt;ReducibleData[ReferenceRun]:w</title>
<path fill="none" stroke="black" d="M405,-77.5C495.68,-77.5 509.85,-142.4 594.85,-147.22"/>
<polygon fill="black" stroke="black" points="594.91,-150.72 605,-147.5 595.1,-143.72 594.91,-150.72"/>
</g>
<!-- SampleRotationOffset[ReferenceRun] -->
<g id="node17" class="node">
<title>SampleRotationOffset[ReferenceRun]</title>
<polygon fill="none" stroke="black" points="141,-41 31,-41 31,-20 141,-20 141,-41"/>
<text text-anchor="start" x="39" y="-27.4" font-family="Times,serif" font-size="12.00">[ReferenceRun]</text>
</g>
<!-- SampleRotationOffset[ReferenceRun]&#45;&gt;RawDetector[ReferenceRun] -->
<g id="edge6" class="edge">
<title>SampleRotationOffset[ReferenceRun]:e&#45;&gt;RawDetector[ReferenceRun]:w</title>
<path fill="none" stroke="black" d="M142,-30.5C208.72,-30.5 221.5,-72.85 282.74,-77.15"/>
<polygon fill="black" stroke="black" points="282.89,-80.66 293,-77.5 283.13,-73.66 282.89,-80.66"/>
</g>
<!-- RawDetector[SampleRun]&#45;&gt;ReducibleData[SampleRun] -->
<g id="edge21" class="edge">
<title>RawDetector[SampleRun]:e&#45;&gt;ReducibleData[SampleRun]:w</title>
<path fill="none" stroke="black" d="M398,-102.5C459.69,-102.5 465.84,-141.01 525,-158.5 559.04,-168.56 570.67,-171.88 601.7,-172.42"/>
<polygon fill="black" stroke="black" points="601.97,-175.92 612,-172.5 602.03,-168.92 601.97,-175.92"/>
</g>
<!-- SampleRotationOffset[SampleRun] -->
<g id="node19" class="node">
<title>SampleRotationOffset[SampleRun]</title>
<polygon fill="none" stroke="black" points="133.5,-66 38.5,-66 38.5,-45 133.5,-45 133.5,-66"/>
<text text-anchor="start" x="46.5" y="-52.4" font-family="Times,serif" font-size="12.00">[SampleRun]</text>
</g>
<!-- SampleRotationOffset[SampleRun]&#45;&gt;RawDetector[SampleRun] -->
<g id="edge8" class="edge">
<title>SampleRotationOffset[SampleRun]:e&#45;&gt;RawDetector[SampleRun]:w</title>
<path fill="none" stroke="black" d="M135,-55.5C207.68,-55.5 222.44,-98.2 289.68,-102.2"/>
<polygon fill="black" stroke="black" points="289.9,-105.71 300,-102.5 290.11,-98.71 289.9,-105.71"/>
</g>
<!-- ReducibleData[ReferenceRun]&#45;&gt;ReducedReference -->
<g id="edge9" class="edge">
<title>ReducibleData[ReferenceRun]:e&#45;&gt;ReducedReference:w</title>
<path fill="none" stroke="black" d="M717,-147.5C813.69,-147.5 832.05,-88.85 923.24,-84.73"/>
<polygon fill="black" stroke="black" points="923.58,-88.22 933.5,-84.5 923.42,-81.22 923.58,-88.22"/>
</g>
<!-- ReducedReference&#45;&gt;Reference -->
<g id="edge23" class="edge">
<title>ReducedReference:e&#45;&gt;Reference:w</title>
<path fill="none" stroke="black" d="M1085.5,-84.5C1184.06,-84.5 1209.26,-113.42 1302.81,-115.39"/>
<polygon fill="black" stroke="black" points="1302.96,-118.9 1313,-115.5 1303.04,-111.9 1302.96,-118.9"/>
</g>
<!-- ReducedReference&#45;&gt;Sample -->
<g id="edge38" class="edge">
<title>ReducedReference:e&#45;&gt;Sample:w</title>
<path fill="none" stroke="black" d="M1085.5,-84.5C1146.26,-84.5 1163.83,-79.14 1219.87,-78.55"/>
<polygon fill="black" stroke="black" points="1220.02,-82.05 1230,-78.5 1219.98,-75.05 1220.02,-82.05"/>
</g>
<!-- WavelengthBins -->
<g id="node22" class="node">
<title>WavelengthBins</title>
<polygon fill="none" stroke="black" points="415,-23 283,-23 283,0 415,0 415,-23"/>
<text text-anchor="middle" x="349" y="-7.8" font-family="Times,serif" font-size="14.00">WavelengthBins</text>
</g>
<!-- WavelengthBins&#45;&gt;ReducibleData[ReferenceRun] -->
<g id="edge18" class="edge">
<title>WavelengthBins:e&#45;&gt;ReducibleData[ReferenceRun]:w</title>
<path fill="none" stroke="black" stroke-width="2" d="M416,-11.5C437.08,-11.5 444.22,-13.74 461,-26.5 501.53,-57.3 484.35,-90.85 525,-121.5 525.43,-121.82 525.85,-122.14 526.27,-122.45"/>
<polygon fill="black" stroke="black" stroke-width="2" points="524.49,-125.48 534.64,-128.5 528.59,-119.81 524.49,-125.48"/>
</g>
<!-- WavelengthBins&#45;&gt;ReducedReference -->
<g id="edge10" class="edge">
<title>WavelengthBins:e&#45;&gt;ReducedReference:w</title>
<path fill="none" stroke="black" d="M416,-11.5C437.08,-11.5 443.32,-15.02 461,-26.5 496.35,-49.46 486.43,-79.5 525,-96.5 605.18,-131.83 826.38,-87.81 923.4,-84.67"/>
<polygon fill="black" stroke="black" points="923.56,-88.17 933.5,-84.5 923.44,-81.17 923.56,-88.17"/>
</g>
<!-- WavelengthBins&#45;&gt;WavelengthThetaFigure -->
<g id="edge44" class="edge">
<title>WavelengthBins:e&#45;&gt;WavelengthThetaFigure:w</title>
<path fill="none" stroke="black" d="M416,-11.5C437.08,-11.5 443.71,-14.44 461,-26.5 498.35,-52.54 484.75,-85.21 525,-106.5 578.59,-134.85 738.58,-111.31 797,-127.5 827.65,-135.99 830.05,-152.19 861,-159.5 934.86,-176.94 1468.12,-160.55 1544,-159.5 1572.38,-159.11 1581.87,-157.84 1605.98,-157.56"/>
<polygon fill="black" stroke="black" points="1606.02,-161.06 1616,-157.5 1605.98,-154.06 1606.02,-161.06"/>
</g>
<!-- WavelengthBins&#45;&gt;ReflectivityOverZW -->
<g id="edge36" class="edge">
<title>WavelengthBins:e&#45;&gt;ReflectivityOverZW:w</title>
<path fill="none" stroke="black" d="M416,-11.5C917.81,-11.5 1047.9,14.94 1544,-60.5 1586.58,-66.98 1598.48,-79.36 1636.69,-81.25"/>
<polygon fill="black" stroke="black" points="1636.92,-84.76 1647,-81.5 1637.09,-77.76 1636.92,-84.76"/>
</g>
<!-- YIndexLimits -->
<g id="node23" class="node">
<title>YIndexLimits</title>
<polygon fill="none" stroke="black" points="404,-50 294,-50 294,-27 404,-27 404,-50"/>
<text text-anchor="middle" x="349" y="-34.8" font-family="Times,serif" font-size="14.00">YIndexLimits</text>
</g>
<!-- YIndexLimits&#45;&gt;ReducibleData[ReferenceRun] -->
<g id="edge15" class="edge">
<title>YIndexLimits:e&#45;&gt;ReducibleData[ReferenceRun]:w</title>
<path fill="none" stroke="black" stroke-width="2" d="M405,-38.5C431.28,-38.5 438.68,-43.62 461,-57.5 495.16,-78.74 490.7,-100.48 525,-121.5 525.91,-122.06 526.8,-122.61 527.68,-123.14"/>
<polygon fill="black" stroke="black" stroke-width="2" points="526.15,-126.31 536.52,-128.5 529.78,-120.32 526.15,-126.31"/>
</g>
<!-- ZIndexLimits -->
<g id="node24" class="node">
<title>ZIndexLimits</title>
<polygon fill="none" stroke="black" points="404.5,-307 293.5,-307 293.5,-284 404.5,-284 404.5,-307"/>
<text text-anchor="middle" x="349" y="-291.8" font-family="Times,serif" font-size="14.00">ZIndexLimits</text>
</g>
<!-- ZIndexLimits&#45;&gt;ReducibleData[ReferenceRun] -->
<g id="edge16" class="edge">
<title>ZIndexLimits:e&#45;&gt;ReducibleData[ReferenceRun]:w</title>
<path fill="none" stroke="black" stroke-width="2" d="M405,-295.5C430.77,-295.5 440.77,-296.46 461,-280.5 504.92,-245.86 480.36,-203.34 516.85,-169.21"/>
<polygon fill="black" stroke="black" stroke-width="2" points="519.5,-171.56 525,-162.5 515.05,-166.15 519.5,-171.56"/>
</g>
<!-- WavelengthThetaFigure&#45;&gt;ReflectivityDiagnosticsView -->
<g id="edge27" class="edge">
<title>WavelengthThetaFigure:e&#45;&gt;ReflectivityDiagnosticsView:w</title>
<path fill="none" stroke="black" d="M1854,-157.5C2010.54,-157.5 2051.29,-132.61 2202.85,-131.54"/>
<polygon fill="black" stroke="black" points="2203.01,-135.04 2213,-131.5 2202.99,-128.04 2203.01,-135.04"/>
</g>
<!-- WavelengthZIndexFigure -->
<g id="node27" class="node">
<title>WavelengthZIndexFigure</title>
<polygon fill="none" stroke="black" points="2141,-113 1926,-113 1926,-80 2141,-80 2141,-113"/>
<text text-anchor="start" x="1943" y="-98.8" font-family="Times,serif" font-size="14.00">WavelengthZIndexFigure</text>
<text text-anchor="start" x="1934" y="-87.2" font-family="Times,serif" font-size="11.00">via:</text>
<text text-anchor="start" x="1955" y="-87.2" font-family="Times,serif" font-style="italic" font-size="11.00">wavelength_z_diagnostic_figure</text>
</g>
<!-- WavelengthZIndexFigure&#45;&gt;ReflectivityDiagnosticsView -->
<g id="edge28" class="edge">
<title>WavelengthZIndexFigure:e&#45;&gt;ReflectivityDiagnosticsView:w</title>
<path fill="none" stroke="black" d="M2141,-96.5C2172.83,-96.5 2176.86,-124.51 2202.82,-130.41"/>
<polygon fill="black" stroke="black" points="2202.69,-133.92 2213,-131.5 2203.43,-126.96 2202.69,-133.92"/>
</g>
<!-- ReflectivityOverQ&#45;&gt;ReflectivityDiagnosticsView -->
<g id="edge30" class="edge">
<title>ReflectivityOverQ:e&#45;&gt;ReflectivityDiagnosticsView:w</title>
<path fill="none" stroke="black" d="M1818,-119.5C1990.21,-119.5 2035.61,-131.04 2202.86,-131.49"/>
<polygon fill="black" stroke="black" points="2203,-134.99 2213,-131.5 2203,-127.99 2203,-134.99"/>
</g>
<!-- Sample&#45;&gt;ReflectivityOverQ -->
<g id="edge31" class="edge">
<title>Sample:e&#45;&gt;ReflectivityOverQ:w</title>
<path fill="none" stroke="black" d="M1544,-78.5C1591.73,-78.5 1599.68,-113.94 1641.82,-118.92"/>
<polygon fill="black" stroke="black" points="1641.82,-122.43 1652,-119.5 1642.22,-115.44 1641.82,-122.43"/>
</g>
<!-- Sample&#45;&gt;ReflectivityOverZW -->
<g id="edge34" class="edge">
<title>Sample:e&#45;&gt;ReflectivityOverZW:w</title>
<path fill="none" stroke="black" d="M1544,-78.5C1586.22,-78.5 1599.21,-81.05 1636.86,-81.45"/>
<polygon fill="black" stroke="black" points="1636.98,-84.95 1647,-81.5 1637.02,-77.95 1636.98,-84.95"/>
</g>
<!-- ReflectivityOverZW&#45;&gt;WavelengthZIndexFigure -->
<g id="edge46" class="edge">
<title>ReflectivityOverZW:e&#45;&gt;WavelengthZIndexFigure:w</title>
<path fill="none" stroke="black" d="M1823,-81.5C1865.65,-81.5 1877.88,-94.25 1915.78,-96.24"/>
<polygon fill="black" stroke="black" points="1915.91,-99.74 1926,-96.5 1916.09,-92.75 1915.91,-99.74"/>
</g>
</g>
</svg>
