<?xml version="1.0" encoding="UTF-8" standalone="no"?>
<!DOCTYPE svg PUBLIC "-//W3C//DTD SVG 1.1//EN"
 "http://www.w3.org/Graphics/SVG/1.1/DTD/svg11.dtd">
<!-- Generated by graphviz version 2.43.0 (0)
 -->
<!-- Title: %3 Pages: 1 -->
<svg width="2228pt" height="265pt"
 viewBox="0.00 0.00 2228.00 265.00" xmlns="http://www.w3.org/2000/svg" xmlns:xlink="http://www.w3.org/1999/xlink">
<g id="graph0" class="graph" transform="scale(1 1) rotate(0) translate(4 261)">
<title>%3</title>
<polygon fill="white" stroke="transparent" points="-4,4 -4,-261 2224,-261 2224,4 -4,4"/>
<!-- Alpha -->
<g id="node1" class="node">
<title>Alpha</title>
<polygon fill="none" stroke="black" points="1478,-233 1421,-233 1421,-210 1478,-210 1478,-233"/>
<text text-anchor="middle" x="1449.5" y="-217.8" font-family="Times,serif" font-size="14.00">Alpha</text>
</g>
<!-- Sample -->
<g id="node29" class="node">
<title>Sample</title>
<polygon fill="none" stroke="black" points="1984,-184 1670,-184 1670,-151 1984,-151 1984,-184"/>
<text text-anchor="start" x="1800" y="-169.8" font-family="Times,serif" font-size="14.00">Sample</text>
<text text-anchor="start" x="1678" y="-158.2" font-family="Times,serif" font-size="11.00">via:</text>
<text text-anchor="start" x="1699" y="-158.2" font-family="Times,serif" font-style="italic" font-size="11.00">mask_events_where_supermirror_does_not_cover</text>
</g>
<!-- Alpha&#45;&gt;Sample -->
<g id="edge36" class="edge">
<title>Alpha:e&#45;&gt;Sample:w</title>
<path fill="none" stroke="black" d="M1479.5,-221.5C1532.59,-221.5 1547.46,-222.75 1598,-206.5 1629.13,-196.49 1633.06,-172.99 1659.94,-168.32"/>
<polygon fill="black" stroke="black" points="1660.32,-171.8 1670,-167.5 1659.75,-164.82 1660.32,-171.8"/>
</g>
<!-- BeamDivergenceLimits -->
<g id="node2" class="node">
<title>BeamDivergenceLimits</title>
<polygon fill="none" stroke="black" points="1202.5,-136 1019.5,-136 1019.5,-113 1202.5,-113 1202.5,-136"/>
<text text-anchor="middle" x="1111" y="-120.8" font-family="Times,serif" font-size="14.00">BeamDivergenceLimits</text>
</g>
<!-- ReducibleData[SampleRun] -->
<g id="node24" class="node">
<title>ReducibleData[SampleRun]</title>
<polygon fill="none" stroke="black" points="1585.5,-125 1313.5,-125 1313.5,-92 1585.5,-92 1585.5,-125"/>
<text text-anchor="start" x="1351" y="-110.8" font-family="Times,serif" font-size="14.00">ReducibleData[SampleRun]</text>
<text text-anchor="start" x="1321.5" y="-99.2" font-family="Times,serif" font-size="11.00">via:</text>
<text text-anchor="start" x="1342.5" y="-99.2" font-family="Times,serif" font-style="italic" font-size="11.00">add_coords_masks_and_apply_corrections</text>
</g>
<!-- BeamDivergenceLimits&#45;&gt;ReducibleData[SampleRun] -->
<g id="edge21" class="edge">
<title>BeamDivergenceLimits:e&#45;&gt;ReducibleData[SampleRun]:w</title>
<path fill="none" stroke="black" d="M1204,-124.5C1249.22,-124.5 1261.97,-110.73 1302.5,-108.74"/>
<polygon fill="black" stroke="black" points="1302.59,-112.24 1312.5,-108.5 1302.42,-105.24 1302.59,-112.24"/>
</g>
<!-- BeamSize[SampleRun] -->
<g id="node3" class="node">
<title>BeamSize[SampleRun]</title>
<polygon fill="none" stroke="black" points="886.5,-182 707.5,-182 707.5,-159 886.5,-159 886.5,-182"/>
<text text-anchor="middle" x="797" y="-166.8" font-family="Times,serif" font-size="14.00">BeamSize[SampleRun]</text>
</g>
<!-- RawDetectorData[SampleRun] -->
<g id="node20" class="node">
<title>RawDetectorData[SampleRun]</title>
<polygon fill="none" stroke="black" points="1229,-109 993,-109 993,-76 1229,-76 1229,-109"/>
<text text-anchor="start" x="1001" y="-94.8" font-family="Times,serif" font-size="14.00">RawDetectorData[SampleRun]</text>
<text text-anchor="start" x="1067" y="-83.2" font-family="Times,serif" font-size="11.00">via:</text>
<text text-anchor="start" x="1088" y="-83.2" font-family="Times,serif" font-style="italic" font-size="11.00">load_events</text>
</g>
<!-- BeamSize[SampleRun]&#45;&gt;RawDetectorData[SampleRun] -->
<g id="edge17" class="edge">
<title>BeamSize[SampleRun]:e&#45;&gt;RawDetectorData[SampleRun]:w</title>
<path fill="none" stroke="black" d="M888,-170.5C942.5,-170.5 936,-101.95 982.88,-93.38"/>
<polygon fill="black" stroke="black" points="983.34,-96.85 993,-92.5 982.74,-89.88 983.34,-96.85"/>
</g>
<!-- RawChopper[SampleRun] -->
<g id="node4" class="node">
<title>RawChopper[SampleRun]</title>
<polygon fill="none" stroke="black" points="566.5,-162 366.5,-162 366.5,-129 566.5,-129 566.5,-162"/>
<text text-anchor="start" x="374.5" y="-147.8" font-family="Times,serif" font-size="14.00">RawChopper[SampleRun]</text>
<text text-anchor="start" x="416" y="-136.2" font-family="Times,serif" font-size="11.00">via:</text>
<text text-anchor="start" x="437" y="-136.2" font-family="Times,serif" font-style="italic" font-size="11.00">amor_chopper</text>
</g>
<!-- ChopperDistance[SampleRun] -->
<g id="node5" class="node">
<title>ChopperDistance[SampleRun]</title>
<polygon fill="none" stroke="black" points="913,-155 681,-155 681,-122 913,-122 913,-155"/>
<text text-anchor="start" x="689" y="-140.8" font-family="Times,serif" font-size="14.00">ChopperDistance[SampleRun]</text>
<text text-anchor="start" x="705.5" y="-129.2" font-family="Times,serif" font-size="11.00">via:</text>
<text text-anchor="start" x="726.5" y="-129.2" font-family="Times,serif" font-style="italic" font-size="11.00">load_amor_chopper_distance</text>
</g>
<!-- RawChopper[SampleRun]&#45;&gt;ChopperDistance[SampleRun] -->
<g id="edge1" class="edge">
<title>RawChopper[SampleRun]:e&#45;&gt;ChopperDistance[SampleRun]:w</title>
<path fill="none" stroke="black" d="M567.5,-145.5C614.07,-145.5 627.99,-139.45 669.97,-138.6"/>
<polygon fill="black" stroke="black" points="670.04,-142.1 680,-138.5 669.97,-135.1 670.04,-142.1"/>
</g>
<!-- ChopperSeparation[SampleRun] -->
<g id="node8" class="node">
<title>ChopperSeparation[SampleRun]</title>
<polygon fill="none" stroke="black" points="921,-219 673,-219 673,-186 921,-186 921,-219"/>
<text text-anchor="start" x="681" y="-204.8" font-family="Times,serif" font-size="14.00">ChopperSeparation[SampleRun]</text>
<text text-anchor="start" x="699" y="-193.2" font-family="Times,serif" font-size="11.00">via:</text>
<text text-anchor="start" x="720" y="-193.2" font-family="Times,serif" font-style="italic" font-size="11.00">load_amor_chopper_separation</text>
</g>
<!-- RawChopper[SampleRun]&#45;&gt;ChopperSeparation[SampleRun] -->
<g id="edge2" class="edge">
<title>RawChopper[SampleRun]:e&#45;&gt;ChopperSeparation[SampleRun]:w</title>
<path fill="none" stroke="black" d="M567.5,-145.5C617.15,-145.5 619.6,-194.97 662.8,-201.74"/>
<polygon fill="black" stroke="black" points="662.77,-205.24 673,-202.5 663.29,-198.26 662.77,-205.24"/>
</g>
<!-- ChopperDistance[SampleRun]&#45;&gt;RawDetectorData[SampleRun] -->
<g id="edge14" class="edge">
<title>ChopperDistance[SampleRun]:e&#45;&gt;RawDetectorData[SampleRun]:w</title>
<path fill="none" stroke="black" d="M914,-138.5C950.98,-138.5 952.43,-100.39 983.03,-93.55"/>
<polygon fill="black" stroke="black" points="983.42,-97.03 993,-92.5 982.69,-90.06 983.42,-97.03"/>
</g>
<!-- ChopperFrequency[SampleRun] -->
<g id="node6" class="node">
<title>ChopperFrequency[SampleRun]</title>
<polygon fill="none" stroke="black" points="919.5,-118 674.5,-118 674.5,-95 919.5,-95 919.5,-118"/>
<text text-anchor="middle" x="797" y="-102.8" font-family="Times,serif" font-size="14.00">ChopperFrequency[SampleRun]</text>
</g>
<!-- ChopperFrequency[SampleRun]&#45;&gt;RawDetectorData[SampleRun] -->
<g id="edge13" class="edge">
<title>ChopperFrequency[SampleRun]:e&#45;&gt;RawDetectorData[SampleRun]:w</title>
<path fill="none" stroke="black" d="M921,-106.5C949.91,-106.5 958.53,-95.49 982.84,-93"/>
<polygon fill="black" stroke="black" points="983.18,-96.49 993,-92.5 982.84,-89.49 983.18,-96.49"/>
</g>
<!-- ChopperPhase[SampleRun] -->
<g id="node7" class="node">
<title>ChopperPhase[SampleRun]</title>
<polygon fill="none" stroke="black" points="903,-91 691,-91 691,-68 903,-68 903,-91"/>
<text text-anchor="middle" x="797" y="-75.8" font-family="Times,serif" font-size="14.00">ChopperPhase[SampleRun]</text>
</g>
<!-- ChopperPhase[SampleRun]&#45;&gt;RawDetectorData[SampleRun] -->
<g id="edge12" class="edge">
<title>ChopperPhase[SampleRun]:e&#45;&gt;RawDetectorData[SampleRun]:w</title>
<path fill="none" stroke="black" d="M904,-79.5C940.38,-79.5 951.15,-90.27 982.93,-92.2"/>
<polygon fill="black" stroke="black" points="982.9,-95.7 993,-92.5 983.11,-88.71 982.9,-95.7"/>
</g>
<!-- ChopperSeparation[SampleRun]&#45;&gt;RawDetectorData[SampleRun] -->
<g id="edge15" class="edge">
<title>ChopperSeparation[SampleRun]:e&#45;&gt;RawDetectorData[SampleRun]:w</title>
<path fill="none" stroke="black" d="M921,-202.5C975.66,-202.5 939.92,-106.22 982.93,-93.81"/>
<polygon fill="black" stroke="black" points="983.54,-97.26 993,-92.5 982.63,-90.32 983.54,-97.26"/>
</g>
<!-- GravityToggle -->
<g id="node9" class="node">
<title>GravityToggle</title>
<polygon fill="none" stroke="black" points="855.5,-28 738.5,-28 738.5,-5 855.5,-5 855.5,-28"/>
<text text-anchor="middle" x="797" y="-12.8" font-family="Times,serif" font-size="14.00">GravityToggle</text>
</g>
<!-- CoordTransformationGraph -->
<g id="node10" class="node">
<title>CoordTransformationGraph</title>
<polygon fill="none" stroke="black" points="1223,-33 999,-33 999,0 1223,0 1223,-33"/>
<text text-anchor="start" x="1012" y="-18.8" font-family="Times,serif" font-size="14.00">CoordTransformationGraph</text>
<text text-anchor="start" x="1007" y="-7.2" font-family="Times,serif" font-size="11.00">via:</text>
<text text-anchor="start" x="1028" y="-7.2" font-family="Times,serif" font-style="italic" font-size="11.00">coordinate_transformation_graph</text>
</g>
<!-- GravityToggle&#45;&gt;CoordTransformationGraph -->
<g id="edge3" class="edge">
<title>GravityToggle:e&#45;&gt;CoordTransformationGraph:w</title>
<path fill="none" stroke="black" d="M857,-16.5C916.12,-16.5 933.41,-16.5 987.79,-16.5"/>
<polygon fill="black" stroke="black" points="988,-20 998,-16.5 988,-13 988,-20"/>
</g>
<!-- CoordTransformationGraph&#45;&gt;ReducibleData[SampleRun] -->
<g id="edge24" class="edge">
<title>CoordTransformationGraph:e&#45;&gt;ReducibleData[SampleRun]:w</title>
<path fill="none" stroke="black" d="M1224,-16.5C1277.08,-16.5 1258.64,-97.02 1302.5,-107.4"/>
<polygon fill="black" stroke="black" points="1302.18,-110.89 1312.5,-108.5 1302.94,-103.93 1302.18,-110.89"/>
</g>
<!-- Reference -->
<g id="node28" class="node">
<title>Reference</title>
<polygon fill="none" stroke="black" points="1952,-120 1702,-120 1702,-87 1952,-87 1952,-120"/>
<text text-anchor="start" x="1790.5" y="-105.8" font-family="Times,serif" font-size="14.00">Reference</text>
<text text-anchor="start" x="1710" y="-94.2" font-family="Times,serif" font-size="11.00">via:</text>
<text text-anchor="start" x="1731" y="-94.2" font-family="Times,serif" font-style="italic" font-size="11.00">evaluate_reference_at_sample_coords</text>
</g>
<!-- CoordTransformationGraph&#45;&gt;Reference -->
<g id="edge28" class="edge">
<title>CoordTransformationGraph:e&#45;&gt;Reference:w</title>
<path fill="none" stroke="black" d="M1224,-16.5C1391.47,-16.5 1435.76,-20.97 1598,-62.5 1642.28,-73.84 1650.64,-99.43 1690.96,-103.07"/>
<polygon fill="black" stroke="black" points="1690.86,-106.56 1701,-103.5 1691.16,-99.57 1690.86,-106.56"/>
</g>
<!-- CriticalEdge -->
<g id="node11" class="node">
<title>CriticalEdge</title>
<polygon fill="none" stroke="black" points="1502.5,-206 1396.5,-206 1396.5,-183 1502.5,-183 1502.5,-206"/>
<text text-anchor="middle" x="1449.5" y="-190.8" font-family="Times,serif" font-size="14.00">CriticalEdge</text>
</g>
<!-- CriticalEdge&#45;&gt;Sample -->
<g id="edge34" class="edge">
<title>CriticalEdge:e&#45;&gt;Sample:w</title>
<path fill="none" stroke="black" d="M1503.5,-194.5C1546.03,-194.5 1556.03,-186.33 1598,-179.5 1626.39,-174.88 1635.54,-169.02 1659.86,-167.75"/>
<polygon fill="black" stroke="black" points="1660.09,-171.24 1670,-167.5 1659.92,-164.25 1660.09,-171.24"/>
</g>
<!-- Filename[SampleRun] -->
<g id="node12" class="node">
<title>Filename[SampleRun]</title>
<polygon fill="none" stroke="red" stroke-dasharray="5,2" points="217.5,-120 42.5,-120 42.5,-97 217.5,-97 217.5,-120"/>
<text text-anchor="middle" x="130" y="-104.8" font-family="Times,serif" font-size="14.00" fill="red">Filename[SampleRun]</text>
</g>
<!-- Filename[SampleRun]&#45;&gt;RawChopper[SampleRun] -->
<g id="edge8" class="edge">
<title>Filename[SampleRun]:e&#45;&gt;RawChopper[SampleRun]:w</title>
<path fill="none" stroke="black" d="M219,-108.5C282.61,-108.5 296.91,-141.7 355.32,-145.2"/>
<polygon fill="black" stroke="black" points="355.4,-148.71 365.5,-145.5 355.61,-141.71 355.4,-148.71"/>
</g>
<!-- DetectorRotation[SampleRun] -->
<g id="node13" class="node">
<title>DetectorRotation[SampleRun]</title>
<polygon fill="none" stroke="black" points="582.5,-125 350.5,-125 350.5,-92 582.5,-92 582.5,-125"/>
<text text-anchor="start" x="358.5" y="-110.8" font-family="Times,serif" font-size="14.00">DetectorRotation[SampleRun]</text>
<text text-anchor="start" x="375" y="-99.2" font-family="Times,serif" font-size="11.00">via:</text>
<text text-anchor="start" x="396" y="-99.2" font-family="Times,serif" font-style="italic" font-size="11.00">load_amor_detector_rotation</text>
</g>
<!-- Filename[SampleRun]&#45;&gt;DetectorRotation[SampleRun] -->
<g id="edge4" class="edge">
<title>Filename[SampleRun]:e&#45;&gt;DetectorRotation[SampleRun]:w</title>
<path fill="none" stroke="black" d="M219,-108.5C273.49,-108.5 289.58,-108.5 339.42,-108.5"/>
<polygon fill="black" stroke="black" points="339.5,-112 349.5,-108.5 339.5,-105 339.5,-112"/>
</g>
<!-- LoadedNeXusDetector[SampleRun] -->
<g id="node15" class="node">
<title>LoadedNeXusDetector[SampleRun]</title>
<polygon fill="none" stroke="black" points="601,-218 332,-218 332,-185 601,-185 601,-218"/>
<text text-anchor="start" x="340" y="-203.8" font-family="Times,serif" font-size="14.00">LoadedNeXusDetector[SampleRun]</text>
<text text-anchor="start" x="417.5" y="-192.2" font-family="Times,serif" font-size="11.00">via:</text>
<text text-anchor="start" x="438.5" y="-192.2" font-family="Times,serif" font-style="italic" font-size="11.00">load_detector</text>
</g>
<!-- Filename[SampleRun]&#45;&gt;LoadedNeXusDetector[SampleRun] -->
<g id="edge5" class="edge">
<title>Filename[SampleRun]:e&#45;&gt;LoadedNeXusDetector[SampleRun]:w</title>
<path fill="none" stroke="black" d="M219,-108.5C280.36,-108.5 268.63,-191.26 321.71,-200.64"/>
<polygon fill="black" stroke="black" points="321.74,-204.15 332,-201.5 322.33,-197.18 321.74,-204.15"/>
</g>
<!-- ProtonCurrent[SampleRun] -->
<g id="node18" class="node">
<title>ProtonCurrent[SampleRun]</title>
<polygon fill="none" stroke="black" points="573,-51 360,-51 360,-18 573,-18 573,-51"/>
<text text-anchor="start" x="368" y="-36.8" font-family="Times,serif" font-size="14.00">ProtonCurrent[SampleRun]</text>
<text text-anchor="start" x="382" y="-25.2" font-family="Times,serif" font-size="11.00">via:</text>
<text text-anchor="start" x="403" y="-25.2" font-family="Times,serif" font-style="italic" font-size="11.00">load_amor_proton_current</text>
</g>
<!-- Filename[SampleRun]&#45;&gt;ProtonCurrent[SampleRun] -->
<g id="edge7" class="edge">
<title>Filename[SampleRun]:e&#45;&gt;ProtonCurrent[SampleRun]:w</title>
<path fill="none" stroke="black" d="M219,-108.5C285.99,-108.5 288.81,-41.82 349.28,-35.05"/>
<polygon fill="black" stroke="black" points="349.7,-38.54 359.5,-34.5 349.33,-31.55 349.7,-38.54"/>
</g>
<!-- SampleRotation[SampleRun] -->
<g id="node21" class="node">
<title>SampleRotation[SampleRun]</title>
<polygon fill="none" stroke="black" points="578,-88 355,-88 355,-55 578,-55 578,-88"/>
<text text-anchor="start" x="363" y="-73.8" font-family="Times,serif" font-size="14.00">SampleRotation[SampleRun]</text>
<text text-anchor="start" x="378.5" y="-62.2" font-family="Times,serif" font-size="11.00">via:</text>
<text text-anchor="start" x="399.5" y="-62.2" font-family="Times,serif" font-style="italic" font-size="11.00">load_amor_sample_rotation</text>
</g>
<!-- Filename[SampleRun]&#45;&gt;SampleRotation[SampleRun] -->
<g id="edge37" class="edge">
<title>Filename[SampleRun]:e&#45;&gt;SampleRotation[SampleRun]:w</title>
<path fill="none" stroke="black" d="M219,-108.5C277.89,-108.5 290.7,-75.57 344.37,-71.84"/>
<polygon fill="black" stroke="black" points="344.62,-75.34 354.5,-71.5 344.39,-68.34 344.62,-75.34"/>
</g>
<!-- DetectorRotation[SampleRun]&#45;&gt;RawDetectorData[SampleRun] -->
<g id="edge10" class="edge">
<title>DetectorRotation[SampleRun]:e&#45;&gt;RawDetectorData[SampleRun]:w</title>
<path fill="none" stroke="black" d="M583.5,-108.5C627.25,-108.5 630.25,-76.83 673,-67.5 726.84,-55.75 866.66,-58.33 921,-67.5 950.75,-72.52 957.75,-88.43 982.86,-91.85"/>
<polygon fill="black" stroke="black" points="982.8,-95.35 993,-92.5 983.24,-88.37 982.8,-95.35"/>
</g>
<!-- DetectorSpatialResolution[SampleRun] -->
<g id="node14" class="node">
<title>DetectorSpatialResolution[SampleRun]</title>
<polygon fill="none" stroke="black" points="1598,-88 1301,-88 1301,-65 1598,-65 1598,-88"/>
<text text-anchor="middle" x="1449.5" y="-72.8" font-family="Times,serif" font-size="14.00">DetectorSpatialResolution[SampleRun]</text>
</g>
<!-- DetectorSpatialResolution[SampleRun]&#45;&gt;Reference -->
<g id="edge27" class="edge">
<title>DetectorSpatialResolution[SampleRun]:e&#45;&gt;Reference:w</title>
<path fill="none" stroke="black" d="M1598,-76.5C1641.63,-76.5 1652.13,-99.45 1690.58,-103.03"/>
<polygon fill="black" stroke="black" points="1690.85,-106.55 1701,-103.5 1691.17,-99.55 1690.85,-106.55"/>
</g>
<!-- LoadedNeXusDetector[SampleRun]&#45;&gt;RawDetectorData[SampleRun] -->
<g id="edge9" class="edge">
<title>LoadedNeXusDetector[SampleRun]:e&#45;&gt;RawDetectorData[SampleRun]:w</title>
<path fill="none" stroke="black" d="M601,-201.5C633.98,-201.5 640.26,-215.47 673,-219.5 727.7,-226.23 873.38,-247.24 921,-219.5 973.89,-188.69 933.32,-102.99 983.03,-93.38"/>
<polygon fill="black" stroke="black" points="983.35,-96.87 993,-92.5 982.73,-89.89 983.35,-96.87"/>
</g>
<!-- NeXusDetectorName[SampleRun] -->
<g id="node16" class="node">
<title>NeXusDetectorName[SampleRun]</title>
<polygon fill="none" stroke="black" points="260,-213 0,-213 0,-190 260,-190 260,-213"/>
<text text-anchor="middle" x="130" y="-197.8" font-family="Times,serif" font-size="14.00">NeXusDetectorName[SampleRun]</text>
</g>
<!-- NeXusDetectorName[SampleRun]&#45;&gt;LoadedNeXusDetector[SampleRun] -->
<g id="edge6" class="edge">
<title>NeXusDetectorName[SampleRun]:e&#45;&gt;LoadedNeXusDetector[SampleRun]:w</title>
<path fill="none" stroke="black" d="M260,-201.5C288.38,-201.5 297.88,-201.5 321.98,-201.5"/>
<polygon fill="black" stroke="black" points="322,-205 332,-201.5 322,-198 322,-205"/>
</g>
<!-- MValue -->
<g id="node17" class="node">
<title>MValue</title>
<polygon fill="none" stroke="black" points="1484.5,-179 1414.5,-179 1414.5,-156 1484.5,-156 1484.5,-179"/>
<text text-anchor="middle" x="1449.5" y="-163.8" font-family="Times,serif" font-size="14.00">MValue</text>
</g>
<!-- MValue&#45;&gt;Sample -->
<g id="edge35" class="edge">
<title>MValue:e&#45;&gt;Sample:w</title>
<path fill="none" stroke="black" d="M1485.5,-167.5C1563.98,-167.5 1586.12,-167.5 1659.76,-167.5"/>
<polygon fill="black" stroke="black" points="1660,-171 1670,-167.5 1660,-164 1660,-171"/>
</g>
<!-- ProtonCurrent[SampleRun]&#45;&gt;ReducibleData[SampleRun] -->
<g id="edge23" class="edge">
<title>ProtonCurrent[SampleRun]:e&#45;&gt;ReducibleData[SampleRun]:w</title>
<path fill="none" stroke="black" d="M573.5,-34.5C719.42,-34.5 1087.28,-38.73 1229,-73.5 1264.57,-82.23 1271.23,-104.06 1302.48,-107.91"/>
<polygon fill="black" stroke="black" points="1302.31,-111.41 1312.5,-108.5 1302.72,-104.42 1302.31,-111.41"/>
</g>
<!-- QBins -->
<g id="node19" class="node">
<title>QBins</title>
<polygon fill="none" stroke="black" points="1856.5,-147 1797.5,-147 1797.5,-124 1856.5,-124 1856.5,-147"/>
<text text-anchor="middle" x="1827" y="-131.8" font-family="Times,serif" font-size="14.00">QBins</text>
</g>
<!-- ReflectivityOverQ -->
<g id="node30" class="node">
<title>ReflectivityOverQ</title>
<polygon fill="none" stroke="black" points="2220,-152 2056,-152 2056,-119 2220,-119 2220,-152"/>
<text text-anchor="start" x="2074.5" y="-137.8" font-family="Times,serif" font-size="14.00">ReflectivityOverQ</text>
<text text-anchor="start" x="2064" y="-126.2" font-family="Times,serif" font-size="11.00">via:</text>
<text text-anchor="start" x="2085" y="-126.2" font-family="Times,serif" font-style="italic" font-size="11.00">reduce_sample_over_q</text>
</g>
<!-- QBins&#45;&gt;ReflectivityOverQ -->
<g id="edge31" class="edge">
<title>QBins:e&#45;&gt;ReflectivityOverQ:w</title>
<path fill="none" stroke="black" d="M1858,-135.5C1942.56,-135.5 1966.18,-135.5 2045.98,-135.5"/>
<polygon fill="black" stroke="black" points="2046,-139 2056,-135.5 2046,-132 2046,-139"/>
</g>
<!-- RawDetectorData[SampleRun]&#45;&gt;ReducibleData[SampleRun] -->
<g id="edge18" class="edge">
<title>RawDetectorData[SampleRun]:e&#45;&gt;ReducibleData[SampleRun]:w</title>
<path fill="none" stroke="black" d="M1229,-92.5C1263.1,-92.5 1272.88,-105.53 1302.23,-108.07"/>
<polygon fill="black" stroke="black" points="1302.36,-111.58 1312.5,-108.5 1302.65,-104.59 1302.36,-111.58"/>
</g>
<!-- SampleRotation[SampleRun]&#45;&gt;RawDetectorData[SampleRun] -->
<g id="edge11" class="edge">
<title>SampleRotation[SampleRun]:e&#45;&gt;RawDetectorData[SampleRun]:w</title>
<path fill="none" stroke="black" d="M578.5,-71.5C620.84,-71.5 630.75,-62.17 673,-59.5 783,-52.54 813.31,-36 921,-59.5 951.76,-66.21 956.94,-87.32 982.88,-91.7"/>
<polygon fill="black" stroke="black" points="982.76,-95.2 993,-92.5 983.31,-88.22 982.76,-95.2"/>
</g>
<!-- SampleSize[SampleRun] -->
<g id="node22" class="node">
<title>SampleSize[SampleRun]</title>
<polygon fill="none" stroke="black" points="893,-257 701,-257 701,-234 893,-234 893,-257"/>
<text text-anchor="middle" x="797" y="-241.8" font-family="Times,serif" font-size="14.00">SampleSize[SampleRun]</text>
</g>
<!-- SampleSize[SampleRun]&#45;&gt;RawDetectorData[SampleRun] -->
<g id="edge16" class="edge">
<title>SampleSize[SampleRun]:e&#45;&gt;RawDetectorData[SampleRun]:w</title>
<path fill="none" stroke="black" d="M894,-245.5C971.36,-245.5 917.37,-105.94 982.93,-93.4"/>
<polygon fill="black" stroke="black" points="983.35,-96.88 993,-92.5 982.73,-89.9 983.35,-96.88"/>
</g>
<!-- ReducedReference -->
<g id="node23" class="node">
<title>ReducedReference</title>
<polygon fill="none" stroke="black" points="1524.5,-152 1374.5,-152 1374.5,-129 1524.5,-129 1524.5,-152"/>
<text text-anchor="middle" x="1449.5" y="-136.8" font-family="Times,serif" font-size="14.00">ReducedReference</text>
</g>
<!-- ReducedReference&#45;&gt;Reference -->
<g id="edge25" class="edge">
<title>ReducedReference:e&#45;&gt;Reference:w</title>
<path fill="none" stroke="black" d="M1525.5,-140.5C1601.63,-140.5 1619.71,-106.75 1690.63,-103.72"/>
<polygon fill="black" stroke="black" points="1691.08,-107.21 1701,-103.5 1690.93,-100.21 1691.08,-107.21"/>
</g>
<!-- ReducedReference&#45;&gt;Sample -->
<g id="edge33" class="edge">
<title>ReducedReference:e&#45;&gt;Sample:w</title>
<path fill="none" stroke="black" d="M1525.5,-140.5C1587.26,-140.5 1603,-164.63 1659.73,-167.27"/>
<polygon fill="black" stroke="black" points="1659.92,-170.77 1670,-167.5 1660.08,-163.77 1659.92,-170.77"/>
</g>
<!-- ReducibleData[SampleRun]&#45;&gt;Reference -->
<g id="edge26" class="edge">
<title>ReducibleData[SampleRun]:e&#45;&gt;Reference:w</title>
<path fill="none" stroke="black" d="M1586.5,-108.5C1633.86,-108.5 1648.1,-104.18 1690.8,-103.57"/>
<polygon fill="black" stroke="black" points="1691.02,-107.07 1701,-103.5 1690.98,-100.07 1691.02,-107.07"/>
</g>
<!-- ReducibleData[SampleRun]&#45;&gt;Sample -->
<g id="edge32" class="edge">
<title>ReducibleData[SampleRun]:e&#45;&gt;Sample:w</title>
<path fill="none" stroke="black" d="M1586.5,-108.5C1628.21,-108.5 1625.41,-158.22 1659.83,-166.37"/>
<polygon fill="black" stroke="black" points="1659.68,-169.88 1670,-167.5 1660.45,-162.92 1659.68,-169.88"/>
</g>
<!-- YIndexLimits -->
<g id="node25" class="node">
<title>YIndexLimits</title>
<polygon fill="none" stroke="black" points="1166,-217 1056,-217 1056,-194 1166,-194 1166,-217"/>
<text text-anchor="middle" x="1111" y="-201.8" font-family="Times,serif" font-size="14.00">YIndexLimits</text>
</g>
<!-- YIndexLimits&#45;&gt;ReducibleData[SampleRun] -->
<g id="edge19" class="edge">
<title>YIndexLimits:e&#45;&gt;ReducibleData[SampleRun]:w</title>
<path fill="none" stroke="black" d="M1167,-205.5C1195.35,-205.5 1204.21,-204.26 1229,-190.5 1271.28,-167.03 1262.16,-116.32 1302.46,-109.31"/>
<polygon fill="black" stroke="black" points="1302.81,-112.79 1312.5,-108.5 1302.25,-105.82 1302.81,-112.79"/>
</g>
<!-- ZIndexLimits -->
<g id="node26" class="node">
<title>ZIndexLimits</title>
<polygon fill="none" stroke="black" points="1166.5,-190 1055.5,-190 1055.5,-167 1166.5,-167 1166.5,-190"/>
<text text-anchor="middle" x="1111" y="-174.8" font-family="Times,serif" font-size="14.00">ZIndexLimits</text>
</g>
<!-- ZIndexLimits&#45;&gt;ReducibleData[SampleRun] -->
<g id="edge20" class="edge">
<title>ZIndexLimits:e&#45;&gt;ReducibleData[SampleRun]:w</title>
<path fill="none" stroke="black" d="M1167,-178.5C1195.46,-178.5 1202.94,-173.93 1229,-162.5 1266.15,-146.21 1268.22,-114.32 1302.49,-109.2"/>
<polygon fill="black" stroke="black" points="1302.77,-112.69 1312.5,-108.5 1302.28,-105.71 1302.77,-112.69"/>
</g>
<!-- WavelengthBins -->
<g id="node27" class="node">
<title>WavelengthBins</title>
<polygon fill="none" stroke="black" points="1177,-163 1045,-163 1045,-140 1177,-140 1177,-163"/>
<text text-anchor="middle" x="1111" y="-147.8" font-family="Times,serif" font-size="14.00">WavelengthBins</text>
</g>
<!-- WavelengthBins&#45;&gt;ReducibleData[SampleRun] -->
<g id="edge22" class="edge">
<title>WavelengthBins:e&#45;&gt;ReducibleData[SampleRun]:w</title>
<path fill="none" stroke="black" d="M1178,-151.5C1237.2,-151.5 1248.55,-113.23 1302.33,-108.9"/>
<polygon fill="black" stroke="black" points="1302.64,-112.39 1312.5,-108.5 1302.37,-105.39 1302.64,-112.39"/>
</g>
<!-- Reference&#45;&gt;ReflectivityOverQ -->
<g id="edge30" class="edge">
<title>Reference:e&#45;&gt;ReflectivityOverQ:w</title>
<path fill="none" stroke="black" d="M1953,-103.5C1997.38,-103.5 2006.78,-130.93 2045.97,-135"/>
<polygon fill="black" stroke="black" points="2045.84,-138.5 2056,-135.5 2046.19,-131.5 2045.84,-138.5"/>
</g>
<!-- Sample&#45;&gt;ReflectivityOverQ -->
<g id="edge29" class="edge">
<title>Sample:e&#45;&gt;ReflectivityOverQ:w</title>
<path fill="none" stroke="black" d="M1984,-167.5C2015.32,-167.5 2020.2,-141.89 2045.95,-136.49"/>
<polygon fill="black" stroke="black" points="2046.39,-139.97 2056,-135.5 2045.7,-133 2046.39,-139.97"/>
</g>
</g>
</svg>
